 0
SECTION
 2
ENTITIES
  0
POLYLINE
 8
GROUP0
 66
     1
70
    8
 10
0.0
 20
 0.0
 30
0.0
  0
VERTEX
  8
MY3DLAYER
10
-9.50895706469857
20
742.563412153508
30
8.88289442002588e-014
 70
     32
  0
VERTEX
  8
MY3DLAYER
10
-10.5955111462892
20
740.554597087292
30
9.02389274415327e-014
 70
     32
  0
VERTEX
  8
MY3DLAYER
10
-11.6108934332466
20
738.821732507452
30
8.88289442002588e-014
 70
     32
  0
VERTEX
  8
MY3DLAYER
10
-11.9365349268834
20
738.155421925215
30
9.02389274415327e-014
 70
     32
  0
VERTEX
  8
MY3DLAYER
10
0.138937575171944
20
738.155421925215
30
9.02389274415327e-014
 70
     32
  0
VERTEX
  8
MY3DLAYER
10
20.0480725332978
20
738.155421925215
30
8.88289442002588e-014
 70
     32
  0
VERTEX
  8
MY3DLAYER
10
29.5317107696694
20
738.157957248227
30
8.88289442002588e-014
 70
     32
  0
VERTEX
  8
MY3DLAYER
10
29.7986987488688
20
742.694410679844
30
8.88289442002588e-014
 70
     32
  0
VERTEX
  8
MY3DLAYER
10
30.356981568123
20
747.206840378954
30
8.88289442002588e-014
 70
     32
  0
VERTEX
  8
MY3DLAYER
10
31.2042487752371
20
751.674036342357
30
8.74189609589848e-014
 70
     32
  0
VERTEX
  8
MY3DLAYER
10
32.3369939567743
20
756.077511089576
30
8.60089777177109e-014
 70
     32
  0
VERTEX
  8
MY3DLAYER
10
33.7505292493415
20
760.399040850246
30
8.60089777177109e-014
 70
     32
  0
VERTEX
  8
MY3DLAYER
10
35.4390047403008
20
764.620740983145
30
8.45989944764369e-014
 70
     32
  0
VERTEX
  8
MY3DLAYER
10
37.3954326776195
20
768.725139991741
30
8.45989944764369e-014
 70
     32
  0
VERTEX
  8
MY3DLAYER
10
39.6117163886672
20
772.695251829943
30
8.3189011235163e-014
 70
     32
  0
VERTEX
  8
MY3DLAYER
10
42.0786837882763
20
776.514646198813
30
8.3189011235163e-014
 70
     32
  0
VERTEX
  8
MY3DLAYER
10
44.7861253373964
20
780.167516543322
30
8.3189011235163e-014
 70
     32
  0
VERTEX
  8
MY3DLAYER
10
47.722836295249
20
783.63874546774
30
8.3189011235163e-014
 70
     32
  0
VERTEX
  8
MY3DLAYER
10
50.8766630901212
20
786.91396729895
30
8.3189011235163e-014
 70
     32
  0
VERTEX
  8
MY3DLAYER
10
54.234553616896
20
789.979627538749
30
8.3189011235163e-014
 70
     32
  0
VERTEX
  8
MY3DLAYER
10
57.7826112531595
20
792.823038959111
30
8.03690447526151e-014
 70
     32
  0
VERTEX
  8
MY3DLAYER
10
61.5061523703416
20
795.432434108249
30
8.1779027993889e-014
 70
     32
  0
VERTEX
  8
MY3DLAYER
10
65.3897671018799
20
797.79701401019
30
8.1779027993889e-014
 70
     32
  0
VERTEX
  8
MY3DLAYER
10
69.4173831169185
20
799.906992856315
30
7.89590615113411e-014
 70
     32
  0
VERTEX
  8
MY3DLAYER
10
73.5723321356119
20
801.753638503901
30
8.03690447526151e-014
 70
     32
  0
VERTEX
  8
MY3DLAYER
10
77.8374189107654
20
803.329308614077
30
8.03690447526151e-014
 70
     32
  0
VERTEX
  8
MY3DLAYER
10
82.1949923903254
20
804.627482279625
30
8.03690447526151e-014
 70
     32
  0
VERTEX
  8
MY3DLAYER
10
86.6270187662203
20
805.642787011744
30
7.89590615113411e-014
 70
     32
  0
VERTEX
  8
MY3DLAYER
10
91.1151561072335
20
806.371020974074
30
7.89590615113411e-014
 70
     32
  0
VERTEX
  8
MY3DLAYER
10
95.6408302670454
20
806.809170371998
30
7.89590615113411e-014
 70
     32
  0
VERTEX
  8
MY3DLAYER
10
98.1853117532956
20
806.891057463104
30
7.89590615113411e-014
 70
     32
  0
VERTEX
  8
MY3DLAYER
10
98.1853117532957
20
896.632948997786
30
6.48592290986016e-014
 70
     32
  0
VERTEX
  8
MY3DLAYER
10
102.185311753296
20
896.632948997786
30
6.34492458573277e-014
 70
     32
  0
VERTEX
  8
MY3DLAYER
10
102.185311753296
20
806.891057463104
30
7.61390950287932e-014
 70
     32
  0
VERTEX
  8
MY3DLAYER
10
104.729793239546
20
806.809170371999
30
8.03690447526151e-014
 70
     32
  0
VERTEX
  8
MY3DLAYER
10
109.255467399358
20
806.371020974075
30
7.75490782700672e-014
 70
     32
  0
VERTEX
  8
MY3DLAYER
10
113.743604740371
20
805.642787011744
30
7.89590615113411e-014
 70
     32
  0
VERTEX
  8
MY3DLAYER
10
118.175631116266
20
804.627482279626
30
8.03690447526151e-014
 70
     32
  0
VERTEX
  8
MY3DLAYER
10
122.533204595826
20
803.329308614077
30
7.89590615113411e-014
 70
     32
  0
VERTEX
  8
MY3DLAYER
10
126.798291370979
20
801.753638503901
30
7.89590615113411e-014
 70
     32
  0
VERTEX
  8
MY3DLAYER
10
130.953240389673
20
799.906992856315
30
7.89590615113411e-014
 70
     32
  0
VERTEX
  8
MY3DLAYER
10
134.980856404711
20
797.797014010191
30
7.89590615113411e-014
 70
     32
  0
VERTEX
  8
MY3DLAYER
10
138.86447113625
20
795.432434108249
30
8.03690447526151e-014
 70
     32
  0
VERTEX
  8
MY3DLAYER
10
142.588012253432
20
792.823038959111
30
8.1779027993889e-014
 70
     32
  0
VERTEX
  8
MY3DLAYER
10
146.136069889695
20
789.979627538749
30
8.3189011235163e-014
 70
     32
  0
VERTEX
  8
MY3DLAYER
10
149.49396041647
20
786.91396729895
30
8.1779027993889e-014
 70
     32
  0
VERTEX
  8
MY3DLAYER
10
152.647787211342
20
783.63874546774
30
8.1779027993889e-014
 70
     32
  0
VERTEX
  8
MY3DLAYER
10
155.584498169195
20
780.167516543322
30
8.3189011235163e-014
 70
     32
  0
VERTEX
  8
MY3DLAYER
10
158.291939718315
20
776.514646198814
30
8.3189011235163e-014
 70
     32
  0
VERTEX
  8
MY3DLAYER
10
160.758907117924
20
772.695251829944
30
8.3189011235163e-014
 70
     32
  0
VERTEX
  8
MY3DLAYER
10
162.975190828972
20
768.725139991741
30
8.45989944764369e-014
 70
     32
  0
VERTEX
  8
MY3DLAYER
10
164.931618766291
20
764.620740983145
30
8.60089777177109e-014
 70
     32
  0
VERTEX
  8
MY3DLAYER
10
166.62009425725
20
760.399040850246
30
8.60089777177109e-014
 70
     32
  0
VERTEX
  8
MY3DLAYER
10
168.033629549817
20
756.077511089576
30
8.60089777177109e-014
 70
     32
  0
VERTEX
  8
MY3DLAYER
10
169.166374731354
20
751.674036342357
30
8.74189609589848e-014
 70
     32
  0
VERTEX
  8
MY3DLAYER
10
170.013641938468
20
747.206840378955
30
8.74189609589848e-014
 70
     32
  0
VERTEX
  8
MY3DLAYER
10
170.571924757722
20
742.694410679844
30
8.74189609589848e-014
 70
     32
  0
VERTEX
  8
MY3DLAYER
10
170.838912736922
20
738.155421925215
30
9.02389274415327e-014
 70
     32
  0
VERTEX
  8
MY3DLAYER
10
181.988895339967
20
738.155421925215
30
9.02389274415327e-014
 70
     32
  0
VERTEX
  8
MY3DLAYER
10
201.958763542541
20
738.155421925215
30
9.02389274415327e-014
 70
     32
  0
VERTEX
  8
MY3DLAYER
10
212.412370213391
20
738.155421925215
30
9.02389274415327e-014
 70
     32
  0
VERTEX
  8
MY3DLAYER
10
199.728262589571
20
764.217606011861
30
8.45989944764369e-014
 70
     32
  0
VERTEX
  8
MY3DLAYER
10
181.619825169931
20
801.409146902048
30
7.89590615113411e-014
 70
     32
  0
VERTEX
  8
MY3DLAYER
10
170.940089677821
20
823.335002491207
30
7.61390950287932e-014
 70
     32
  0
VERTEX
  8
MY3DLAYER
10
155.259445940815
20
862.501198075533
30
7.19091453049714e-014
 70
     32
  0
VERTEX
  8
MY3DLAYER
10
155.178221133962
20
862.724155237663
30
7.04991620636974e-014
 70
     32
  0
VERTEX
  8
MY3DLAYER
10
155.125646924055
20
862.868468251092
30
6.90891788224235e-014
 70
     32
  0
VERTEX
  8
MY3DLAYER
10
154.342148859057
20
865.905793252849
30
7.04991620636974e-014
 70
     32
  0
VERTEX
  8
MY3DLAYER
10
150.574706696784
20
880.957191663132
30
6.90891788224235e-014
 70
     32
  0
VERTEX
  8
MY3DLAYER
10
140.106824823103
20
922.252033460423
30
6.20392626160537e-014
 70
     32
  0
VERTEX
  8
MY3DLAYER
10
138.005758659107
20
930.513950137441
30
5.92192961335058e-014
 70
     32
  0
VERTEX
  8
MY3DLAYER
10
137.878557532065
20
931.043763347881
30
6.06292793747798e-014
 70
     32
  0
VERTEX
  8
MY3DLAYER
10
131.791214182454
20
955.679639805571
30
5.78093128922319e-014
 70
     32
  0
VERTEX
  8
MY3DLAYER
10
126.201967414944
20
1004.46040729677
30
4.93494134445882e-014
 70
     32
  0
VERTEX
  8
MY3DLAYER
10
123.097537438008
20
1031.98498396739
30
4.51194637207664e-014
 70
     32
  0
VERTEX
  8
MY3DLAYER
10
122.368908335246
20
1038.68282810814
30
4.37094804794924e-014
 70
     32
  0
VERTEX
  8
MY3DLAYER
10
117.645413505967
20
1116.2559286997
30
3.10196313080269e-014
 70
     32
  0
VERTEX
  8
MY3DLAYER
10
117.572718586382
20
1117.62265842199
30
3.24296145493008e-014
 70
     32
  0
VERTEX
  8
MY3DLAYER
10
117.511025728014
20
1118.74891162072
30
3.24296145493008e-014
 70
     32
  0
VERTEX
  8
MY3DLAYER
10
117.172921333768
20
1123.35862732446
30
3.10196313080269e-014
 70
     32
  0
VERTEX
  8
MY3DLAYER
10
116.117824738995
20
1137.51160627422
30
2.8199664825479e-014
 70
     32
  0
VERTEX
  8
MY3DLAYER
10
115.270651441968
20
1148.8755192079
30
2.6789681584205e-014
 70
     32
  0
VERTEX
  8
MY3DLAYER
10
115.041520436743
20
1153.85104801828
30
2.6789681584205e-014
 70
     32
  0
VERTEX
  8
MY3DLAYER
10
114.487129310931
20
1167.62677945401
30
2.39697151016571e-014
 70
     32
  0
VERTEX
  8
MY3DLAYER
10
114.038172381879
20
1178.78263998797
30
2.25597318603832e-014
 70
     32
  0
VERTEX
  8
MY3DLAYER
10
110.438586386807
20
1244.37074102859
30
1.26898491714655e-014
 70
     32
  0
VERTEX
  8
MY3DLAYER
10
110.330510524196
20
1245.69957660277
30
1.26898491714655e-014
 70
     32
  0
VERTEX
  8
MY3DLAYER
10
110.504811300045
20
1245.86326812356
30
1.26898491714655e-014
 70
     32
  0
VERTEX
  8
MY3DLAYER
10
111.320228935492
20
1245.86326812356
30
1.26898491714655e-014
 70
     32
  0
VERTEX
  8
MY3DLAYER
10
112.061373088202
20
1245.86326812356
30
1.40998324127395e-014
 70
     32
  0
VERTEX
  8
MY3DLAYER
10
112.155570113469
20
1246.0271646933
30
1.26898491714655e-014
 70
     32
  0
VERTEX
  8
MY3DLAYER
10
112.155874785979
20
1246.75441797431
30
1.12798659301916e-014
 70
     32
  0
VERTEX
  8
MY3DLAYER
10
112.156153939739
20
1247.42075799831
30
1.12798659301916e-014
 70
     32
  0
VERTEX
  8
MY3DLAYER
10
112.124858414105
20
1247.95629104174
30
1.12798659301916e-014
 70
     32
  0
VERTEX
  8
MY3DLAYER
10
111.982879359865
20
1249.98788223604
30
1.12798659301916e-014
 70
     32
  0
VERTEX
  8
MY3DLAYER
10
111.85174577451
20
1251.86428463013
30
1.12798659301916e-014
 70
     32
  0
VERTEX
  8
MY3DLAYER
10
111.833746855072
20
1253.59070151896
30
1.26898491714655e-014
 70
     32
  0
VERTEX
  8
MY3DLAYER
10
111.832233321049
20
1260.41159394661
30
8.45989944764369e-015
 70
     32
  0
VERTEX
  8
MY3DLAYER
10
111.830824181914
20
1266.76202037355
30
8.45989944764369e-015
 70
     32
  0
VERTEX
  8
MY3DLAYER
10
111.714678606676
20
1268.71715328246
30
9.86988268891764e-015
 70
     32
  0
VERTEX
  8
MY3DLAYER
10
110.591013386586
20
1273.40605126571
30
8.45989944764369e-015
 70
     32
  0
VERTEX
  8
MY3DLAYER
10
107.40536586425
20
1278.78585433451
30
7.04991620636974e-015
 70
     32
  0
VERTEX
  8
MY3DLAYER
10
105.066117090997
20
1281.43792919072
30
7.04991620636974e-015
 70
     32
  0
VERTEX
  8
MY3DLAYER
10
105.065816420734
20
1285.8992745545
30
7.04991620636974e-015
 70
     32
  0
VERTEX
  8
MY3DLAYER
10
105.065531989676
20
1290.11966259824
30
4.22994972382185e-015
 70
     32
  0
VERTEX
  8
MY3DLAYER
10
105.065156863645
20
1290.7483447329
30
4.22994972382185e-015
 70
     32
  0
VERTEX
  8
MY3DLAYER
10
105.06193754018
20
1290.84082711609
30
5.63993296509579e-015
 70
     32
  0
VERTEX
  8
MY3DLAYER
10
104.930203242784
20
1291.78704039267
30
4.22994972382185e-015
 70
     32
  0
VERTEX
  8
MY3DLAYER
10
104.282949655373
20
1293.76211767279
30
4.22994972382185e-015
 70
     32
  0
VERTEX
  8
MY3DLAYER
10
103.002530634834
20
1295.55202858074
30
5.63993296509579e-015
 70
     32
  0
VERTEX
  8
MY3DLAYER
10
102.154382659949
20
1297.73764941166
30
4.22994972382185e-015
 70
     32
  0
VERTEX
  8
MY3DLAYER
10
102.154382659949
20
1305.91157971683
30
1.40998324127395e-015
 70
     32
  0
VERTEX
  8
MY3DLAYER
10
102.154382659949
20
1313.83053594839
30
1.40998324127395e-015
 70
     32
  0
VERTEX
  8
MY3DLAYER
10
101.836448678675
20
1315.08940698182
30
0.0
 70
     32
  0
VERTEX
  8
MY3DLAYER
10
100.153576514257
20
1315.08940698182
30
2.8199664825479e-015
 70
     32
  0
VERTEX
  8
MY3DLAYER
10
98.5102212946468
20
1315.08940698182
30
1.40998324127395e-015
 70
     32
  0
VERTEX
  8
MY3DLAYER
10
98.2421296460078
20
1313.59226942945
30
1.40998324127395e-015
 70
     32
  0
VERTEX
  8
MY3DLAYER
10
98.2421296460078
20
1305.47916309223
30
1.40998324127395e-015
 70
     32
  0
VERTEX
  8
MY3DLAYER
10
98.2421296460078
20
1297.49354379181
30
2.8199664825479e-015
 70
     32
  0
VERTEX
  8
MY3DLAYER
10
97.3197036722157
20
1295.48196336675
30
5.63993296509579e-015
 70
     32
  0
VERTEX
  8
MY3DLAYER
10
96.0711417625371
20
1293.66812970695
30
5.63993296509579e-015
 70
     32
  0
VERTEX
  8
MY3DLAYER
10
95.4496579040922
20
1291.69253616872
30
4.22994972382185e-015
 70
     32
  0
VERTEX
  8
MY3DLAYER
10
95.3341579868288
20
1290.82528892105
30
5.63993296509579e-015
 70
     32
  0
VERTEX
  8
MY3DLAYER
10
95.3306421724378
20
1290.73182685515
30
5.63993296509579e-015
 70
     32
  0
VERTEX
  8
MY3DLAYER
10
95.3303330209786
20
1289.98175823458
30
7.04991620636974e-015
 70
     32
  0
VERTEX
  8
MY3DLAYER
10
95.3303330209785
20
1285.65821630663
30
5.63993296509579e-015
 70
     32
  0
VERTEX
  8
MY3DLAYER
10
95.3303330209786
20
1281.3003029419
30
5.63993296509579e-015
 70
     32
  0
VERTEX
  8
MY3DLAYER
10
92.785484715131
20
1278.57202239754
30
7.04991620636974e-015
 70
     32
  0
VERTEX
  8
MY3DLAYER
10
89.7168081476896
20
1273.14739553387
30
8.45989944764369e-015
 70
     32
  0
VERTEX
  8
MY3DLAYER
10
88.6622975441184
20
1268.55922400797
30
8.45989944764369e-015
 70
     32
  0
VERTEX
  8
MY3DLAYER
10
88.5650056902323
20
1266.55516994725
30
9.86988268891764e-015
 70
     32
  0
VERTEX
  8
MY3DLAYER
10
88.5638479901833
20
1260.04426487146
30
9.86988268891764e-015
 70
     32
  0
VERTEX
  8
MY3DLAYER
10
88.5626624514975
20
1253.37679530281
30
1.12798659301916e-014
 70
     32
  0
VERTEX
  8
MY3DLAYER
10
88.5410197540547
20
1251.81064874408
30
9.86988268891764e-015
 70
     32
  0
VERTEX
  8
MY3DLAYER
10
88.4062848107112
20
1249.8825700896
30
1.26898491714655e-014
 70
     32
  0
VERTEX
  8
MY3DLAYER
10
88.2672116798138
20
1247.89241127527
30
1.26898491714655e-014
 70
     32
  0
VERTEX
  8
MY3DLAYER
10
88.2403884850198
20
1247.40759396048
30
1.12798659301916e-014
 70
     32
  0
VERTEX
  8
MY3DLAYER
10
88.2408189302
20
1246.76163922684
30
1.12798659301916e-014
 70
     32
  0
VERTEX
  8
MY3DLAYER
10
88.2412667745281
20
1245.86326812356
30
1.26898491714655e-014
 70
     32
  0
VERTEX
  8
MY3DLAYER
10
89.9451211627276
20
1245.86326812356
30
1.40998324127395e-014
 70
     32
  0
VERTEX
  8
MY3DLAYER
10
88.2515618453071
20
1214.77689536432
30
1.69197988952874e-014
 70
     32
  0
VERTEX
  8
MY3DLAYER
10
87.1442687069166
20
1194.45181616591
30
2.11497486191092e-014
 70
     32
  0
VERTEX
  8
MY3DLAYER
10
86.5903442773705
20
1189.51420535647
30
2.11497486191092e-014
 70
     32
  0
VERTEX
  8
MY3DLAYER
10
83.0992905631753
20
1110.51568121934
30
3.24296145493008e-014
 70
     32
  0
VERTEX
  8
MY3DLAYER
10
81.4624413675513
20
1083.07138253052
30
3.66595642731227e-014
 70
     32
  0
VERTEX
  8
MY3DLAYER
10
79.5081644367473
20
1050.30491879457
30
4.22994972382185e-014
 70
     32
  0
VERTEX
  8
MY3DLAYER
10
78.7206740157859
20
1040.89957233547
30
4.37094804794924e-014
 70
     32
  0
VERTEX
  8
MY3DLAYER
10
68.6153142518924
20
953.566534650645
30
5.6399329650958e-014
 70
     32
  0
VERTEX
  8
MY3DLAYER
10
66.6356886662555
20
945.873736091753
30
5.78093128922319e-014
 70
     32
  0
VERTEX
  8
MY3DLAYER
10
64.0376416854624
20
935.77776025936
30
5.92192961335058e-014
 70
     32
  0
VERTEX
  8
MY3DLAYER
10
62.9445318761419
20
932.210234668055
30
5.92192961335058e-014
 70
     32
  0
VERTEX
  8
MY3DLAYER
10
44.32690072308
20
861.055663327516
30
7.19091453049714e-014
 70
     32
  0
VERTEX
  8
MY3DLAYER
10
42.3438693954938
20
855.811958393169
30
7.19091453049714e-014
 70
     32
  0
VERTEX
  8
MY3DLAYER
10
34.3446049786
20
835.287580486454
30
7.47291117875193e-014
 70
     32
  0
VERTEX
  8
MY3DLAYER
10
31.099531883232
20
827.487634448986
30
7.61390950287932e-014
 70
     32
  0
VERTEX
  8
MY3DLAYER
10
-9.50895706469857
20
742.563412153508
30
8.88289442002588e-014
 70
     32
  0
SEQEND
  0
POLYLINE
 8
GROUP0
 66
     1
70
    8
 10
0.0
 20
 0.0
 30
0.0
  0
VERTEX
  8
MY3DLAYER
10
151.221426264334
20
797.653449243497
30
8.1779027993889e-014
 70
     32
  0
VERTEX
  8
MY3DLAYER
10
151.28279707043
20
797.526495197278
30
8.03690447526151e-014
 70
     32
  0
VERTEX
  8
MY3DLAYER
10
151.192258115412
20
797.564088015818
30
8.03690447526151e-014
 70
     32
  0
VERTEX
  8
MY3DLAYER
10
151.078437663791
20
797.649332059532
30
8.03690447526151e-014
 70
     32
  0
VERTEX
  8
MY3DLAYER
10
150.964482671457
20
797.734380840617
30
8.1779027993889e-014
 70
     32
  0
VERTEX
  8
MY3DLAYER
10
150.850400282163
20
797.819255790337
30
8.1779027993889e-014
 70
     32
  0
VERTEX
  8
MY3DLAYER
10
150.736197639665
20
797.903978339957
30
8.03690447526151e-014
 70
     32
  0
VERTEX
  8
MY3DLAYER
10
150.621881887718
20
797.988569920741
30
8.03690447526151e-014
 70
     32
  0
VERTEX
  8
MY3DLAYER
10
150.507460170076
20
798.073051963952
30
8.03690447526151e-014
 70
     32
  0
VERTEX
  8
MY3DLAYER
10
150.392939630493
20
798.157445900855
30
7.75490782700672e-014
 70
     32
  0
VERTEX
  8
MY3DLAYER
10
150.393118268458
20
798.237298438235
30
8.03690447526151e-014
 70
     32
  0
VERTEX
  8
MY3DLAYER
10
150.443912150392
20
798.305782439647
30
8.1779027993889e-014
 70
     32
  0
VERTEX
  8
MY3DLAYER
10
150.506182474268
20
798.389739813762
30
8.1779027993889e-014
 70
     32
  0
VERTEX
  8
MY3DLAYER
10
150.572278278792
20
798.478854978778
30
8.03690447526151e-014
 70
     32
  0
VERTEX
  8
MY3DLAYER
10
150.634548602668
20
798.562812352894
30
7.89590615113411e-014
 70
     32
  0
VERTEX
  8
MY3DLAYER
10
150.685342484601
20
798.631296354305
30
8.1779027993889e-014
 70
     32
  0
VERTEX
  8
MY3DLAYER
10
150.717008963296
20
798.67399140121
30
8.03690447526151e-014
 70
     32
  0
VERTEX
  8
MY3DLAYER
10
150.763660415588
20
798.60040155546
30
7.89590615113411e-014
 70
     32
  0
VERTEX
  8
MY3DLAYER
10
150.835092009568
20
798.452635370516
30
8.1779027993889e-014
 70
     32
  0
VERTEX
  8
MY3DLAYER
10
150.928657336894
20
798.259082480379
30
8.1779027993889e-014
 70
     32
  0
VERTEX
  8
MY3DLAYER
10
151.032283452105
20
798.044717451517
30
7.89590615113411e-014
 70
     32
  0
VERTEX
  8
MY3DLAYER
10
151.133897409739
20
797.8345148504
30
7.89590615113411e-014
 70
     32
  0
VERTEX
  8
MY3DLAYER
10
151.221426264334
20
797.653449243497
30
8.1779027993889e-014
 70
     32
  0
SEQEND
 0
ENDSEC
 0
EOF
