<?xml version="1.0" encoding="UTF-8" standalone="no"?>
<!-- Generator: Adobe Illustrator 14.0.0, SVG Export Plug-In . SVG Version: 6.00 Build 43363)  -->

<svg
   xmlns:dc="http://purl.org/dc/elements/1.1/"
   xmlns:cc="http://creativecommons.org/ns#"
   xmlns:rdf="http://www.w3.org/1999/02/22-rdf-syntax-ns#"
   xmlns:svg="http://www.w3.org/2000/svg"
   xmlns="http://www.w3.org/2000/svg"
   xmlns:sodipodi="http://sodipodi.sourceforge.net/DTD/sodipodi-0.dtd"
   xmlns:inkscape="http://www.inkscape.org/namespaces/inkscape"
   version="1.1"
   id="Layer_1"
   x="0px"
   y="0px"
   width="68mm"
   height="141mm"
   viewBox="0 0 240.94487 499.60629"
   enable-background="new 0 0 566.929 566.929"
   xml:space="preserve"
   inkscape:version="0.92.1 r15371"
   sodipodi:docname="toupie_matière-3mm_63x135mm.svg"><metadata
     id="metadata449"><rdf:RDF><cc:Work
         rdf:about=""><dc:format>image/svg+xml</dc:format><dc:type
           rdf:resource="http://purl.org/dc/dcmitype/StillImage" /><dc:title></dc:title></cc:Work></rdf:RDF></metadata><defs
     id="defs447" /><sodipodi:namedview
     pagecolor="#ffffff"
     bordercolor="#666666"
     borderopacity="1"
     objecttolerance="10"
     gridtolerance="10"
     guidetolerance="10"
     inkscape:pageopacity="0"
     inkscape:pageshadow="2"
     inkscape:window-width="1920"
     inkscape:window-height="1018"
     id="namedview445"
     showgrid="false"
     inkscape:zoom="0.83883293"
     inkscape:cx="524.45844"
     inkscape:cy="309.66906"
     inkscape:window-x="-8"
     inkscape:window-y="-8"
     inkscape:window-maximized="1"
     inkscape:current-layer="Layer_1"
     inkscape:document-units="mm"
     units="mm"
     inkscape:snap-text-baseline="false" /><g
     id="g125"
     style="fill:none;stroke:#ff0000;stroke-width:0.35252821;stroke-miterlimit:4;stroke-dasharray:none;stroke-opacity:1"
     transform="matrix(0.99800342,0,0,0.99786382,-171.42513,7.2587857)" /><g
     id="g129"
     style="fill:none;stroke:#ff0000;stroke-width:0.35252821;stroke-miterlimit:4;stroke-dasharray:none;stroke-opacity:1"
     transform="matrix(0.99800342,0,0,0.99786382,-171.42513,7.2587857)" /><g
     id="g133"
     style="fill:none;stroke:#ff0000;stroke-width:0.35252821;stroke-miterlimit:4;stroke-dasharray:none;stroke-opacity:1"
     transform="matrix(0.99800342,0,0,0.99786382,-171.42513,7.2587857)" /><g
     id="g137"
     style="fill:none;stroke:#ff0000;stroke-width:0.35252821;stroke-miterlimit:4;stroke-dasharray:none;stroke-opacity:1"
     transform="matrix(0.99800342,0,0,0.99786382,-171.42513,7.2587857)" /><g
     id="g141"
     style="fill:none;stroke:#ff0000;stroke-width:0.35252821;stroke-miterlimit:4;stroke-dasharray:none;stroke-opacity:1"
     transform="matrix(0.99800342,0,0,0.99786382,-171.42513,7.2587857)" /><g
     id="g145"
     style="fill:none;stroke:#ff0000;stroke-width:0.35252821;stroke-miterlimit:4;stroke-dasharray:none;stroke-opacity:1"
     transform="matrix(0.99800342,0,0,0.99786382,-171.42513,7.2587857)" /><g
     id="g149"
     style="fill:none;stroke:#ff0000;stroke-width:0.35252821;stroke-miterlimit:4;stroke-dasharray:none;stroke-opacity:1"
     transform="matrix(0.99800342,0,0,0.99786382,-171.42513,7.2587857)" /><g
     id="g153"
     style="fill:none;stroke:#ff0000;stroke-width:0.35252821;stroke-miterlimit:4;stroke-dasharray:none;stroke-opacity:1"
     transform="matrix(0.99800342,0,0,0.99786382,-171.42513,7.2587857)" /><g
     id="g157"
     style="fill:none;stroke:#ff0000;stroke-width:0.35252821;stroke-miterlimit:4;stroke-dasharray:none;stroke-opacity:1"
     transform="matrix(0.99800342,0,0,0.99786382,-171.42513,7.2587857)" /><g
     id="g161"
     style="fill:none;stroke:#ff0000;stroke-width:0.35252821;stroke-miterlimit:4;stroke-dasharray:none;stroke-opacity:1"
     transform="matrix(0.99800342,0,0,0.99786382,-171.42513,7.2587857)" /><g
     id="g165"
     style="fill:none;stroke:#ff0000;stroke-width:0.35252821;stroke-miterlimit:4;stroke-dasharray:none;stroke-opacity:1"
     transform="matrix(0.99800342,0,0,0.99786382,-171.42513,7.2587857)" /><g
     id="g169"
     style="fill:none;stroke:#ff0000;stroke-width:0.35252821;stroke-miterlimit:4;stroke-dasharray:none;stroke-opacity:1"
     transform="matrix(0.99800342,0,0,0.99786382,-171.42513,7.2587857)" /><g
     id="g173"
     style="fill:none;stroke:#ff0000;stroke-width:0.35252821;stroke-miterlimit:4;stroke-dasharray:none;stroke-opacity:1"
     transform="matrix(0.99800342,0,0,0.99786382,-171.42513,7.2587857)" /><g
     id="g177"
     style="fill:none;stroke:#ff0000;stroke-width:0.35252821;stroke-miterlimit:4;stroke-dasharray:none;stroke-opacity:1"
     transform="matrix(0.99800342,0,0,0.99786382,-171.42513,7.2587857)" /><g
     id="g181"
     style="fill:none;stroke:#ff0000;stroke-width:0.35252821;stroke-miterlimit:4;stroke-dasharray:none;stroke-opacity:1"
     transform="matrix(0.99800342,0,0,0.99786382,-171.42513,7.2587857)" /><g
     id="g185"
     style="fill:none;stroke:#ff0000;stroke-width:0.35252821;stroke-miterlimit:4;stroke-dasharray:none;stroke-opacity:1"
     transform="matrix(0.99800342,0,0,0.99786382,-171.42513,7.2587857)" /><g
     id="g189"
     style="fill:none;stroke:#ff0000;stroke-width:0.35252821;stroke-miterlimit:4;stroke-dasharray:none;stroke-opacity:1"
     transform="matrix(0.99800342,0,0,0.99786382,-171.42513,7.2587857)" /><g
     id="g193"
     style="fill:none;stroke:#ff0000;stroke-width:0.35252821;stroke-miterlimit:4;stroke-dasharray:none;stroke-opacity:1"
     transform="matrix(0.99800342,0,0,0.99786382,-171.42513,7.2587857)" /><g
     id="g197"
     style="fill:none;stroke:#ff0000;stroke-width:0.35252821;stroke-miterlimit:4;stroke-dasharray:none;stroke-opacity:1"
     transform="matrix(0.99800342,0,0,0.99786382,-171.42513,7.2587857)" /><g
     id="g201"
     style="fill:none;stroke:#ff0000;stroke-width:0.35252821;stroke-miterlimit:4;stroke-dasharray:none;stroke-opacity:1"
     transform="matrix(0.99800342,0,0,0.99786382,-171.42513,7.2587857)" /><g
     id="g205"
     style="fill:none;stroke:#ff0000;stroke-width:0.35252821;stroke-miterlimit:4;stroke-dasharray:none;stroke-opacity:1"
     transform="matrix(0.99800342,0,0,0.99786382,-171.42513,7.2587857)" /><g
     id="g209"
     style="fill:none;stroke:#ff0000;stroke-width:0.35252821;stroke-miterlimit:4;stroke-dasharray:none;stroke-opacity:1"
     transform="matrix(0.99800342,0,0,0.99786382,-171.42513,7.2587857)" /><g
     id="g213"
     style="fill:none;stroke:#ff0000;stroke-width:0.35252821;stroke-miterlimit:4;stroke-dasharray:none;stroke-opacity:1"
     transform="matrix(0.99800342,0,0,0.99786382,-171.42513,7.2587857)" /><g
     id="g217"
     style="fill:none;stroke:#ff0000;stroke-width:0.35252821;stroke-miterlimit:4;stroke-dasharray:none;stroke-opacity:1"
     transform="matrix(0.99800342,0,0,0.99786382,-171.42513,7.2587857)" /><g
     id="g221"
     style="fill:none;stroke:#ff0000;stroke-width:0.35252821;stroke-miterlimit:4;stroke-dasharray:none;stroke-opacity:1"
     transform="matrix(0.99800342,0,0,0.99786382,-171.42513,7.2587857)" /><g
     id="g225"
     style="fill:none;stroke:#ff0000;stroke-width:0.35252821;stroke-miterlimit:4;stroke-dasharray:none;stroke-opacity:1"
     transform="matrix(0.99800342,0,0,0.99786382,-171.42513,7.2587857)" /><g
     id="g229"
     style="fill:none;stroke:#ff0000;stroke-width:0.35252821;stroke-miterlimit:4;stroke-dasharray:none;stroke-opacity:1"
     transform="matrix(0.99800342,0,0,0.99786382,-171.42513,7.2587857)" /><g
     id="g233"
     style="fill:none;stroke:#ff0000;stroke-width:0.35252821;stroke-miterlimit:4;stroke-dasharray:none;stroke-opacity:1"
     transform="matrix(0.99800342,0,0,0.99786382,-171.42513,7.2587857)" /><g
     id="g237"
     style="fill:none;stroke:#ff0000;stroke-width:0.35252821;stroke-miterlimit:4;stroke-dasharray:none;stroke-opacity:1"
     transform="matrix(0.99800342,0,0,0.99786382,-171.42513,7.2587857)" /><g
     id="g241"
     style="fill:none;stroke:#ff0000;stroke-width:0.35252821;stroke-miterlimit:4;stroke-dasharray:none;stroke-opacity:1"
     transform="matrix(0.99800342,0,0,0.99786382,-171.42513,7.2587857)" /><g
     id="g245"
     style="fill:none;stroke:#ff0000;stroke-width:0.35252821;stroke-miterlimit:4;stroke-dasharray:none;stroke-opacity:1"
     transform="matrix(0.99800342,0,0,0.99786382,-171.42513,7.2587857)" /><g
     id="g249"
     style="fill:none;stroke:#ff0000;stroke-width:0.35252821;stroke-miterlimit:4;stroke-dasharray:none;stroke-opacity:1"
     transform="matrix(0.99800342,0,0,0.99786382,-171.42513,7.2587857)" /><g
     id="g253"
     style="fill:none;stroke:#ff0000;stroke-width:0.35252821;stroke-miterlimit:4;stroke-dasharray:none;stroke-opacity:1"
     transform="matrix(0.99800342,0,0,0.99786382,-171.42513,7.2587857)" /><g
     style="fill:none;stroke:#ff0000;stroke-width:0.36559004;stroke-miterlimit:4;stroke-dasharray:none;stroke-opacity:1"
     id="g5040"
     transform="matrix(0.96920913,0,0,0.96919546,9.1643375,-3.7706683)"><path
       sodipodi:nodetypes="cccccccccccc"
       inkscape:connector-curvature="0"
       id="path4938"
       d="m 193.44425,437.07332 v 4.4889 H 128.5115 v -58.08753 c 0.10134,-4.81692 -3.62338,-9.29976 -8.37215,-10.07825 v 75.00037 H 109.5442 v -75.00087 c -4.74996,0.77921 -8.47347,5.26204 -8.37144,10.07755 l -5e-4,58.08852 -64.930504,1e-4 v -4.48879"
       style="fill:none;stroke:#ff0000;stroke-width:0.36559004;stroke-linecap:round;stroke-linejoin:round;stroke-miterlimit:4;stroke-dasharray:none;stroke-opacity:1" /><path
       sodipodi:nodetypes="cccccccccccc"
       inkscape:connector-curvature="0"
       id="path4924"
       d="m 36.241756,435.76819 v -4.4575 H 12.319419 v 9.20578 c -0.02894,0.59829 0.387185,1.27729 0.930574,1.51972 l 100.040627,50.96707 c 0.85639,0.49931 2.24834,0.49931 3.10352,0 l 100.03883,-50.96707 c 0.54279,-0.24243 0.96013,-0.92143 0.93116,-1.51962 v -9.20567 h -23.91988 v 4.4575"
       style="fill:none;stroke:#ff0000;stroke-width:0.36559004;stroke-linecap:round;stroke-linejoin:round;stroke-miterlimit:4;stroke-dasharray:none;stroke-opacity:1" /><path
       sodipodi:nodetypes="cccccccccc"
       inkscape:connector-curvature="0"
       id="path4918"
       d="m 168.31812,455.04309 c 0.84072,-0.42692 1.17845,-1.45567 0.74663,-2.29627 -0.24484,-0.54392 -0.92393,-0.9588 -1.5216,-0.93285 l -37.32368,-6e-4 c -0.94445,-1e-5 -1.70797,0.76341 -1.70797,1.70773 v 6e-4 19.01377 c 0,0.94432 0.76352,1.71014 1.70798,1.71014 0.22193,0.0125 0.58257,-0.0748 0.77557,-0.18572 z"
       style="fill:none;stroke:#ff0000;stroke-width:0.36559004;stroke-linecap:round;stroke-linejoin:round;stroke-miterlimit:4;stroke-dasharray:none;stroke-opacity:1" /><path
       sodipodi:nodetypes="cccccccccc"
       inkscape:connector-curvature="0"
       id="path4896"
       d="m 99.461676,451.81473 v -6e-4 l -37.320656,-6e-4 c -0.943245,-1e-5 -1.709175,0.76341 -1.709175,1.70772 -0.02654,0.59819 0.388392,1.27721 0.93359,1.52201 l 37.321869,19.01678 c 0.839507,0.42693 1.870806,0.0917 2.297796,-0.74895 0.11096,-0.19057 0.19901,-0.55356 0.18636,-0.77546 l 5.9e-4,-19.01317 c 0,-0.94431 -0.76593,-1.70773 -1.710374,-1.70773 z"
       style="fill:none;stroke:#ff0000;stroke-width:0.36559004;stroke-linecap:round;stroke-linejoin:round;stroke-miterlimit:4;stroke-dasharray:none;stroke-opacity:1" /></g><g
     style="fill:none;stroke:#ff0000;stroke-width:0.36559004;stroke-miterlimit:4;stroke-dasharray:none;stroke-opacity:1"
     id="g5034"
     transform="matrix(0.96920913,0,0,0.96919546,9.1642734,-3.7706683)"><path
       sodipodi:nodetypes="cccccccccccc"
       inkscape:connector-curvature="0"
       id="path5012"
       d="m 193.44425,308.97421 v 4.43581 H 128.5115 v -58.08631 c 0,-5.66116 -4.59075,-10.25134 -10.25259,-10.25134 v 1e-5 h -6.83425 c -5.66306,-1e-5 -10.25261,4.59017 -10.25261,10.25132 l 1e-5,1e-5 v 58.08631 H 36.241756 v -4.45754"
       style="fill:none;stroke:#ff0000;stroke-width:0.36559004;stroke-linecap:round;stroke-linejoin:round;stroke-miterlimit:4;stroke-dasharray:none;stroke-opacity:1" /><path
       sodipodi:nodetypes="cccccccccccccccccc"
       inkscape:connector-curvature="0"
       id="path4996"
       d="M 36.241756,307.51613 V 303.1611 H 12.319419 v 9.20449 c -0.02773,0.59579 0.387185,1.27597 0.932986,1.52201 l 96.291795,49.05671 v -5.11117 c 1.13865,-1.88382 1.13865,-4.94594 0,-6.8334 v -30.75393 h 10.59515 v 30.75393 c -1.13984,1.88746 -1.13984,4.94958 0,6.8334 v 5.11117 l 96.29362,-49.05671 c 0.5464,-0.24604 0.96016,-0.92622 0.93116,-1.52201 v -9.20449 h -23.91988 v 4.30555"
       style="fill:none;stroke:#ff0000;stroke-width:0.36559004;stroke-linecap:round;stroke-linejoin:round;stroke-miterlimit:4;stroke-dasharray:none;stroke-opacity:1" /><path
       sodipodi:nodetypes="cccccccccc"
       inkscape:connector-curvature="0"
       id="path4990"
       d="m 168.32053,326.89229 c 0.83831,-0.42694 1.17485,-1.4581 0.74785,-2.29629 -0.24847,-0.54514 -0.92756,-0.95881 -1.52523,-0.93347 l -37.32368,-10e-4 c -0.94202,-1e-5 -1.70797,0.76583 -1.70797,1.71015 v 0 19.01547 c 0,0.94181 0.76595,1.70765 1.70798,1.70765 0.22193,0.0144 0.58257,-0.0748 0.7792,-0.18513 z"
       style="fill:none;stroke:#ff0000;stroke-width:0.36559004;stroke-linecap:round;stroke-linejoin:round;stroke-miterlimit:4;stroke-dasharray:none;stroke-opacity:1" /><path
       sodipodi:nodetypes="cccccccccc"
       inkscape:connector-curvature="0"
       id="path4972"
       d="m 62.141014,323.66131 c -0.943239,0 -1.709169,0.76584 -1.709169,1.71016 -0.02532,0.59579 0.388392,1.27478 0.93359,1.52142 l 37.321869,19.01617 c 0.839507,0.42816 1.870806,0.094 2.297796,-0.74533 0.11096,-0.19416 0.19901,-0.55477 0.18636,-0.77668 l 5.9e-4,-19.01558 c 0,-0.94432 -0.76593,-1.71016 -1.70796,-1.71016 v 10e-6 H 62.141026"
       style="fill:none;stroke:#ff0000;stroke-width:0.36559004;stroke-linecap:round;stroke-linejoin:round;stroke-miterlimit:4;stroke-dasharray:none;stroke-opacity:1" /></g><path
     d="m 231.90705,476.40775 c 0,7.82326 -6.47386,14.16552 -14.45611,14.16552 H 23.489141 c -7.98588,0 -14.4561215,-6.34226 -14.4561215,-14.16552 V 24.306182 c 0,-7.823242 6.4726625,-14.165525 14.4561215,-14.165525 H 217.45094 c 7.98466,0 14.45611,6.342283 14.45611,14.165525 z"
     id="path415"
     style="fill:none;stroke:#ff0000;stroke-width:0.35433069;stroke-linecap:round;stroke-linejoin:round;stroke-miterlimit:4;stroke-dasharray:none;stroke-opacity:1"
     inkscape:connector-curvature="0"
     sodipodi:nodetypes="sssssssss" /><g
     style="fill:none;stroke:#ff0000;stroke-width:0.36559004;stroke-miterlimit:4;stroke-dasharray:none;stroke-opacity:1"
     id="g4756"
     transform="matrix(0.96920913,0,0,0.96919546,-270.81308,-51.086352)"><path
       sodipodi:nodetypes="ccccccccccccc"
       inkscape:connector-curvature="0"
       id="path4731"
       d="m 398.41618,175.03818 v -8.3711 h 10.59526 l 1e-4,8.3711 h 8.37216 l -1.1e-4,10.59262 h -8.37225 v 8.3723 h -10.59516 v -8.3723 h -8.37213 v -10.59262 z"
       style="fill:none;stroke:#ff0000;stroke-width:0.36559004;stroke-linecap:round;stroke-linejoin:round;stroke-miterlimit:4;stroke-dasharray:none;stroke-opacity:1" /><path
       sodipodi:nodetypes="cccc"
       inkscape:connector-curvature="0"
       id="path4715"
       d="M 409.01134,82.829473 V 101.74374 H 398.41618 V 82.854803"
       style="fill:none;stroke:#ff0000;stroke-width:0.36559004;stroke-linecap:round;stroke-linejoin:round;stroke-miterlimit:4;stroke-dasharray:none;stroke-opacity:1" /><path
       sodipodi:nodetypes="cccccccc"
       inkscape:connector-curvature="0"
       id="path4705"
       d="m 409.01134,279.28794 v 3.42032 c 51.77804,-2.0358 95.05244,-45.30716 97.08848,-97.07746 h -23.7836 v -10.59262 h 23.7836 C 504.06619,123.26666 460.78938,79.996503 409.01134,77.960703 v 3.38656"
       style="fill:none;stroke:#ff0000;stroke-width:0.36559004;stroke-linecap:round;stroke-linejoin:round;stroke-miterlimit:4;stroke-dasharray:none;stroke-opacity:1" /><path
       sodipodi:nodetypes="cccc"
       inkscape:connector-curvature="0"
       id="path4699"
       d="m 398.41618,277.93115 v -19.00471 h 10.59516 v 19.03004"
       style="fill:none;stroke:#ff0000;stroke-width:0.36559004;stroke-linecap:round;stroke-linejoin:round;stroke-miterlimit:4;stroke-dasharray:none;stroke-opacity:1" /><path
       sodipodi:nodetypes="cccccccc"
       inkscape:connector-curvature="0"
       id="path4693"
       d="m 398.41618,279.3386 v 3.36966 c -51.77682,-2.0358 -95.05364,-45.30596 -97.08787,-97.07746 h 23.78543 v -10.59262 h -23.78593 c 2.03615,-51.77152 45.31055,-95.042887 97.08787,-97.077477 l 5e-4,3.41188"
       style="fill:none;stroke:#ff0000;stroke-width:0.36559004;stroke-linecap:round;stroke-linejoin:round;stroke-miterlimit:4;stroke-dasharray:none;stroke-opacity:1" /></g><text
     xml:space="preserve"
     style="font-style:normal;font-weight:normal;font-size:37.5px;line-height:23.4375px;font-family:sans-serif;letter-spacing:0px;word-spacing:0px;fill:#000000;fill-opacity:1;stroke:none;stroke-width:0.93749994"
     x="15.80563"
     y="-70.975616"
     id="text4533"><tspan
       sodipodi:role="line"
       id="tspan4531"
       x="15.80563"
       y="-70.975616"
       style="font-style:normal;font-variant:normal;font-weight:normal;font-stretch:normal;font-size:22.5px;font-family:sans-serif;-inkscape-font-specification:'sans-serif, Normal';font-variant-ligatures:normal;font-variant-caps:normal;font-variant-numeric:normal;font-feature-settings:normal;text-align:start;writing-mode:lr-tb;text-anchor:start;stroke-width:0.93749994">matière : 3mm = 63x136mm</tspan><tspan
       sodipodi:role="line"
       x="15.80563"
       y="-43.641632"
       style="font-style:normal;font-variant:normal;font-weight:normal;font-stretch:normal;font-size:22.5px;font-family:sans-serif;-inkscape-font-specification:'sans-serif, Normal';font-variant-ligatures:normal;font-variant-caps:normal;font-variant-numeric:normal;font-feature-settings:normal;text-align:start;writing-mode:lr-tb;text-anchor:start;stroke-width:0.93749994"
       id="tspan4535">encoche : 2,90mm</tspan></text>
</svg>