<?xml version="1.0" encoding="UTF-8" standalone="no"?>
<!-- Generator: Adobe Illustrator 14.0.0, SVG Export Plug-In . SVG Version: 6.00 Build 43363)  -->

<svg
   xmlns:dc="http://purl.org/dc/elements/1.1/"
   xmlns:cc="http://creativecommons.org/ns#"
   xmlns:rdf="http://www.w3.org/1999/02/22-rdf-syntax-ns#"
   xmlns:svg="http://www.w3.org/2000/svg"
   xmlns="http://www.w3.org/2000/svg"
   xmlns:sodipodi="http://sodipodi.sourceforge.net/DTD/sodipodi-0.dtd"
   xmlns:inkscape="http://www.inkscape.org/namespaces/inkscape"
   version="1.1"
   id="Layer_1"
   sodipodi:docname="toupie - pour 3mm.svg"
   inkscape:version="0.92.2 (5c3e80d, 2017-08-06)"
   inkscape:label="gravure"
   x="0px"
   y="0px"
   width="54mm"
   height="115mm"
   viewBox="0 0 204.09449 434.64564"
   enable-background="new 0 0 283.464 340.157"
   xml:space="preserve"><metadata
     id="metadata33"><rdf:RDF><cc:Work
         rdf:about=""><dc:format>image/svg+xml</dc:format><dc:type
           rdf:resource="http://purl.org/dc/dcmitype/StillImage" /><dc:title></dc:title></cc:Work></rdf:RDF></metadata><defs
     id="defs31" /><sodipodi:namedview
     pagecolor="#ffffff"
     bordercolor="#666666"
     borderopacity="1"
     objecttolerance="10"
     gridtolerance="10"
     guidetolerance="10"
     inkscape:pageopacity="0"
     inkscape:pageshadow="2"
     inkscape:window-width="1920"
     inkscape:window-height="1001"
     id="namedview29"
     showgrid="false"
     units="mm"
     inkscape:document-units="mm"
     inkscape:zoom="1.3875945"
     inkscape:cx="-43.450919"
     inkscape:cy="178.01228"
     inkscape:window-x="-9"
     inkscape:window-y="-9"
     inkscape:window-maximized="1"
     inkscape:current-layer="Layer_1"
     showguides="false" /><g
     id="decoupe"
     transform="matrix(1.4991859,0,0,1.4991859,-238.654,-158.00792)"
     style="fill:none;stroke:#ff0000;stroke-width:0.25165871;stroke-miterlimit:4;stroke-dasharray:none;stroke-opacity:1"><path
       id="cadre"
       inkscape:connector-curvature="0"
       d="m 290.158,381.875 c 0,4.57 -3.654,8.274 -8.161,8.274 H 172.518 c -4.508,0 -8.161,-3.704 -8.161,-8.274 V 117.794 c 0,-4.57 3.654,-8.275 8.161,-8.275 h 109.479 c 4.507,0 8.161,3.705 8.161,8.275 z"
       style="fill:none;stroke:#ff0000;stroke-width:0.25165871;stroke-linecap:round;stroke-linejoin:round;stroke-miterlimit:4;stroke-dasharray:none;stroke-opacity:1" /><g
       id="T3"
       style="fill:none;stroke:#ff0000;stroke-width:0.25165871;stroke-miterlimit:4;stroke-dasharray:none;stroke-opacity:1"><polygon
         id="cross"
         points="224.26,178.849 224.26,183.587 230.256,183.587 230.256,178.849 234.996,178.849 234.996,172.851 230.256,172.851 230.256,168.111 224.26,168.111 224.26,172.851 219.52,172.851 219.52,178.849 "
         style="fill:none;stroke:#ff0000;stroke-width:0.25165871;stroke-linecap:round;stroke-linejoin:round;stroke-miterlimit:4;stroke-dasharray:none;stroke-opacity:1" /><path
         id="left"
         inkscape:connector-curvature="0"
         d="m 230.256,228.96 v -8.618 h -5.996 v 13.463 0 c -29.31,-1.152 -53.804,-25.648 -54.958,-54.956 h 13.465 v -5.998 h -13.465 0.002 c 1.151,-29.309 25.646,-53.805 54.956,-54.958 v 13.463 h 5.996 v -9.547"
         style="fill:none;stroke:#ff0000;stroke-width:0.25165871;stroke-linecap:round;stroke-linejoin:round;stroke-miterlimit:4;stroke-dasharray:none;stroke-opacity:1" /><path
         id="right"
         inkscape:connector-curvature="0"
         d="m 230.256,229.526 v 4.278 c 29.311,-1.152 53.807,-25.648 54.958,-54.956 H 271.75 v -5.998 h 13.463 c -1.153,-29.309 -25.647,-53.805 -54.958,-54.958 v 3.35"
         style="fill:none;stroke:#ff0000;stroke-width:0.25165871;stroke-linecap:round;stroke-linejoin:round;stroke-miterlimit:4;stroke-dasharray:none;stroke-opacity:1" /></g><g
       id="T2"
       style="fill:none;stroke:#ff0000;stroke-width:0.25165871;stroke-miterlimit:4;stroke-dasharray:none;stroke-opacity:1"><path
         id="pocket_left_1_"
         d="m 196.988,286.454 21.125,10.767 c 0.475,0.243 1.06,0.054 1.301,-0.423 0.062,-0.108 0.112,-0.314 0.105,-0.44 h 0.001 v -10.763 c 0,-0.536 -0.434,-0.969 -0.967,-0.969 v 0 h -21.125 c -0.534,0 -0.969,0.433 -0.969,0.969 -0.014,0.337 0.22,0.722 0.529,0.861 z"
         inkscape:connector-curvature="0"
         style="fill:none;stroke:#ff0000;stroke-width:0.25165871;stroke-linecap:round;stroke-linejoin:round;stroke-miterlimit:4;stroke-dasharray:none;stroke-opacity:1" /><path
         id="pocket_right_1_"
         d="m 257.529,286.454 c 0.475,-0.241 0.666,-0.825 0.424,-1.299 -0.141,-0.311 -0.525,-0.544 -0.864,-0.528 v -0.001 h -21.126 c -0.534,0 -0.967,0.433 -0.967,0.969 v 0 10.763 c 0,0.535 0.433,0.969 0.967,0.969 0.125,0.008 0.329,-0.042 0.44,-0.105 z"
         inkscape:connector-curvature="0"
         style="fill:none;stroke:#ff0000;stroke-width:0.25165871;stroke-linecap:round;stroke-linejoin:round;stroke-miterlimit:4;stroke-dasharray:none;stroke-opacity:1" /><path
         id="above_1_"
         d="m 271.75,275.732 v 3.091 h -36.754 v -32.885 c 0,-3.205 -2.599,-5.804 -5.803,-5.804 v 0 h -3.869 c -3.206,0 -5.803,2.599 -5.803,5.804 v 0 32.885 h -36.753 v -3.091"
         inkscape:connector-curvature="0"
         style="fill:none;stroke:#ff0000;stroke-width:0.25165871;stroke-linecap:round;stroke-linejoin:round;stroke-miterlimit:4;stroke-dasharray:none;stroke-opacity:1" /><path
         id="below_1_"
         d="m 271.75,275.165 v -2.145 h 13.541 v 5.21 c 0.017,0.337 -0.217,0.724 -0.528,0.862 l -54.507,27.771 v -2.893 c -0.645,-1.068 -0.645,-2.798 0,-3.869 v -17.41 h -5.996 v 17.41 c 0.645,1.071 0.645,2.801 0,3.869 v 2.893 l -54.505,-27.771 c -0.311,-0.139 -0.545,-0.525 -0.529,-0.862 v -5.21 h 13.541 v 2.145"
         inkscape:connector-curvature="0"
         style="fill:none;stroke:#ff0000;stroke-width:0.25165871;stroke-linecap:round;stroke-linejoin:round;stroke-miterlimit:4;stroke-dasharray:none;stroke-opacity:1" /></g><g
       id="T1"
       style="fill:none;stroke:#ff0000;stroke-width:0.25165871;stroke-miterlimit:4;stroke-dasharray:none;stroke-opacity:1"><path
         id="pocket_left"
         d="m 196.988,359.003 21.125,10.766 c 0.475,0.243 1.06,0.054 1.301,-0.425 0.062,-0.105 0.112,-0.313 0.105,-0.436 h 0.001 v -10.766 c 0,-0.534 -0.434,-0.966 -0.969,-0.966 v 0 -10e-4 h -21.124 c -0.534,0 -0.969,0.433 -0.969,0.967 -0.015,0.34 0.221,0.721 0.53,0.861 z"
         inkscape:connector-curvature="0"
         style="fill:none;stroke:#ff0000;stroke-width:0.25165871;stroke-linecap:round;stroke-linejoin:round;stroke-miterlimit:4;stroke-dasharray:none;stroke-opacity:1" /><path
         id="pocket_right"
         d="m 257.528,359.003 c 0.476,-0.242 0.667,-0.823 0.423,-1.299 -0.139,-0.31 -0.524,-0.543 -0.863,-0.527 v -0.001 h -21.126 c -0.535,0 -0.967,0.433 -0.967,0.967 v 0 10.766 c 0,0.533 0.432,0.967 0.967,0.967 0.125,0.006 0.329,-0.042 0.438,-0.106 z"
         inkscape:connector-curvature="0"
         style="fill:none;stroke:#ff0000;stroke-width:0.25165871;stroke-linecap:round;stroke-linejoin:round;stroke-miterlimit:4;stroke-dasharray:none;stroke-opacity:1" /><path
         id="below"
         d="m 182.767,347.165 v -1.595 h -13.541 v 5.21 c -0.017,0.339 0.218,0.724 0.527,0.861 l 56.627,28.853 c 0.485,0.282 1.272,0.282 1.756,0 l 56.626,-28.853 c 0.309,-0.138 0.544,-0.522 0.528,-0.861 v -5.21 h -13.54 v 1.595"
         inkscape:connector-curvature="0"
         style="fill:none;stroke:#ff0000;stroke-width:0.25165871;stroke-linecap:round;stroke-linejoin:round;stroke-miterlimit:4;stroke-dasharray:none;stroke-opacity:1" /><path
         id="above"
         d="m 271.75,347.732 v 3.641 h -36.754 v -32.885 c 0.057,-2.727 -2.051,-5.266 -4.74,-5.707 v 42.46 h -5.996 v -42.46 c -2.69,0.441 -4.797,2.98 -4.74,5.705 v 0.002 32.885 h -36.753 v -3.641"
         inkscape:connector-curvature="0"
         style="fill:none;stroke:#ff0000;stroke-width:0.25165871;stroke-linecap:round;stroke-linejoin:round;stroke-miterlimit:4;stroke-dasharray:none;stroke-opacity:1" /></g></g></svg>