<?xml version="1.0" encoding="UTF-8" standalone="no"?>
<!-- Generator: Adobe Illustrator 14.0.0, SVG Export Plug-In . SVG Version: 6.00 Build 43363)  -->

<svg
   xmlns:dc="http://purl.org/dc/elements/1.1/"
   xmlns:cc="http://creativecommons.org/ns#"
   xmlns:rdf="http://www.w3.org/1999/02/22-rdf-syntax-ns#"
   xmlns:svg="http://www.w3.org/2000/svg"
   xmlns="http://www.w3.org/2000/svg"
   xmlns:sodipodi="http://sodipodi.sourceforge.net/DTD/sodipodi-0.dtd"
   xmlns:inkscape="http://www.inkscape.org/namespaces/inkscape"
   version="1.1"
   id="Layer_1"
   sodipodi:docname="zbis - carton2.20mm copy.svg"
   inkscape:version="0.92.2 (5c3e80d, 2017-08-06)"
   inkscape:label="gravure"
   x="0px"
   y="0px"
   width="100mm"
   height="120mm"
   viewBox="0 0 377.95277 453.54328"
   enable-background="new 0 0 283.464 340.157"
   xml:space="preserve"><metadata
     id="metadata35"><rdf:RDF><cc:Work
         rdf:about=""><dc:format>image/svg+xml</dc:format><dc:type
           rdf:resource="http://purl.org/dc/dcmitype/StillImage" /><dc:title></dc:title></cc:Work></rdf:RDF></metadata><defs
     id="defs33" /><sodipodi:namedview
     pagecolor="#ffffff"
     bordercolor="#666666"
     borderopacity="1"
     objecttolerance="10"
     gridtolerance="10"
     guidetolerance="10"
     inkscape:pageopacity="0"
     inkscape:pageshadow="2"
     inkscape:window-width="1920"
     inkscape:window-height="1001"
     id="namedview31"
     showgrid="false"
     inkscape:document-units="mm"
     units="mm"
     inkscape:zoom="5.550378"
     inkscape:cx="111.10345"
     inkscape:cy="285.56614"
     inkscape:window-x="-9"
     inkscape:window-y="-9"
     inkscape:window-maximized="1"
     inkscape:current-layer="Layer_1" /><g
     id="decoupe"
     transform="matrix(1.3291147,0,0,1.3291147,-212.55737,-67.298422)"
     style="fill:none;stroke:#0000ff;stroke-width:0.02843643;stroke-miterlimit:4;stroke-dasharray:none;stroke-opacity:1"><path
       id="cadre"
       inkscape:connector-curvature="0"
       d="m 289.785,373.273 c 0,4.324 -3.458,7.83 -7.722,7.83 H 178.452 c -4.266,0 -7.722,-3.506 -7.722,-7.83 V 123.35 c 0,-4.325 3.458,-7.831 7.722,-7.831 h 103.611 c 4.265,0 7.722,3.506 7.722,7.831 z"
       style="fill:none;stroke:#0000ff;stroke-width:0.02843643;stroke-linecap:round;stroke-linejoin:round;stroke-miterlimit:4;stroke-dasharray:none;stroke-opacity:1" /><g
       id="T3"
       style="fill:none;stroke:#0000ff;stroke-width:0.02843643;stroke-miterlimit:4;stroke-dasharray:none;stroke-opacity:1"><polyline
         id="line41"
         points="    227.42,126.004 227.42,136.186 233.095,136.186 233.095,125.991   "
         style="fill:none;stroke:#0000ff;stroke-width:0.02843643;stroke-linecap:round;stroke-linejoin:round;stroke-miterlimit:4;stroke-dasharray:none;stroke-opacity:1" /><polyline
         id="line57"
         points="    233.095,230.533 233.095,220.4 227.42,220.4 227.42,230.52   "
         style="fill:none;stroke:#0000ff;stroke-width:0.02843643;stroke-linecap:round;stroke-linejoin:round;stroke-miterlimit:4;stroke-dasharray:none;stroke-opacity:1" /><polygon
         id="cross"
         points="222.935,175.456 222.935,181.131 227.42,181.131 227.42,185.616 233.095,185.616 233.095,181.131 237.581,181.131 237.581,175.456 233.095,175.456 233.095,170.97 227.42,170.97 227.42,175.456 "
         style="fill:none;stroke:#0000ff;stroke-width:0.02843643;stroke-linecap:round;stroke-linejoin:round;stroke-miterlimit:4;stroke-dasharray:none;stroke-opacity:1" /><path
         id="left"
         inkscape:connector-curvature="0"
         d="m 227.42,125.251 v -1.806 c -27.737,1.09 -50.92,24.273 -52.01,52.011 h -0.001 12.743 v 5.675 h -12.743 c 1.091,27.738 24.273,50.92 52.01,52.011 v 0 -1.827"
         style="fill:none;stroke:#0000ff;stroke-width:0.02843643;stroke-linecap:round;stroke-linejoin:round;stroke-miterlimit:4;stroke-dasharray:none;stroke-opacity:1" /><path
         id="right"
         inkscape:connector-curvature="0"
         d="m 233.095,231.328 v 1.813 c 27.738,-1.091 50.921,-24.273 52.011,-52.011 h -12.741 v -5.675 h 12.741 c -1.091,-27.737 -24.273,-50.92 -52.011,-52.011 v 1.833"
         style="fill:none;stroke:#0000ff;stroke-width:0.02843643;stroke-linecap:round;stroke-linejoin:round;stroke-miterlimit:4;stroke-dasharray:none;stroke-opacity:1" /></g><g
       id="T2"
       style="fill:none;stroke:#0000ff;stroke-width:0.02843643;stroke-miterlimit:4;stroke-dasharray:none;stroke-opacity:1"><path
         id="pocket_left_1_"
         d="m 201.611,282.969 19.993,10.189 c 0.45,0.229 1.002,0.05 1.23,-0.4 0.06,-0.104 0.106,-0.298 0.1,-0.417 v 0 -10.187 c 0,-0.506 -0.41,-0.916 -0.915,-0.916 v 0 h -19.994 c -0.505,0 -0.916,0.41 -0.916,0.916 -0.012,0.32 0.209,0.683 0.502,0.815 z"
         inkscape:connector-curvature="0"
         style="fill:none;stroke:#0000ff;stroke-width:0.02843643;stroke-linecap:round;stroke-linejoin:round;stroke-miterlimit:4;stroke-dasharray:none;stroke-opacity:1" /><path
         id="pocket_right_1_"
         d="m 258.906,282.969 c 0.45,-0.229 0.63,-0.781 0.401,-1.229 -0.133,-0.293 -0.498,-0.514 -0.818,-0.5 v -0.001 h -19.994 c -0.505,0 -0.915,0.41 -0.915,0.916 v 0 10.187 c 0,0.507 0.41,0.917 0.915,0.917 0.119,0.008 0.312,-0.041 0.417,-0.1 z"
         inkscape:connector-curvature="0"
         style="fill:none;stroke:#0000ff;stroke-width:0.02843643;stroke-linecap:round;stroke-linejoin:round;stroke-miterlimit:4;stroke-dasharray:none;stroke-opacity:1" /><path
         id="above_1_"
         d="m 272.365,273.369 v 2.376 h -34.784 v -31.121 c 0,-3.032 -2.459,-5.491 -5.492,-5.491 v 0 h -3.661 c -3.034,0 -5.493,2.459 -5.493,5.491 v 0 31.121 h -34.783 v -2.388"
         inkscape:connector-curvature="0"
         style="fill:none;stroke:#0000ff;stroke-width:0.02843643;stroke-linecap:round;stroke-linejoin:round;stroke-miterlimit:4;stroke-dasharray:none;stroke-opacity:1" /><path
         id="below_1_"
         d="m 272.365,272.561 v -2.307 h 12.814 v 4.932 c 0.015,0.319 -0.206,0.684 -0.5,0.815 l -51.584,26.283 v -2.738 c -0.61,-1.01 -0.61,-2.649 0,-3.661 v -16.477 h -5.675 v 16.477 c 0.61,1.012 0.61,2.651 0,3.661 v 2.738 l -51.583,-26.283 c -0.293,-0.132 -0.516,-0.496 -0.5,-0.815 v -4.932 h 12.815 v 2.335"
         inkscape:connector-curvature="0"
         style="fill:none;stroke:#0000ff;stroke-width:0.02843643;stroke-linecap:round;stroke-linejoin:round;stroke-miterlimit:4;stroke-dasharray:none;stroke-opacity:1" /></g><g
       id="T1"
       style="fill:none;stroke:#0000ff;stroke-width:0.02843643;stroke-miterlimit:4;stroke-dasharray:none;stroke-opacity:1"><path
         id="pocket_left"
         d="m 201.611,351.627 19.993,10.189 c 0.45,0.229 1.002,0.05 1.23,-0.401 0.06,-0.102 0.106,-0.297 0.1,-0.415 v 0 -10.188 c 0,-0.506 -0.41,-0.914 -0.916,-0.914 v 0 -0.001 h -19.993 c -0.505,0 -0.916,0.409 -0.916,0.915 -0.013,0.321 0.209,0.684 0.502,0.815 z"
         inkscape:connector-curvature="0"
         style="fill:none;stroke:#0000ff;stroke-width:0.02843643;stroke-linecap:round;stroke-linejoin:round;stroke-miterlimit:4;stroke-dasharray:none;stroke-opacity:1" /><path
         id="pocket_right"
         d="m 258.905,351.627 c 0.451,-0.229 0.631,-0.779 0.4,-1.229 -0.131,-0.292 -0.496,-0.514 -0.816,-0.499 v -10e-4 h -19.994 c -0.506,0 -0.915,0.409 -0.915,0.915 v 0 V 361 c 0,0.506 0.409,0.916 0.915,0.916 0.119,0.007 0.312,-0.04 0.415,-0.1 z"
         inkscape:connector-curvature="0"
         style="fill:none;stroke:#0000ff;stroke-width:0.02843643;stroke-linecap:round;stroke-linejoin:round;stroke-miterlimit:4;stroke-dasharray:none;stroke-opacity:1" /><path
         id="below"
         d="m 188.152,341.301 v -2.388 h -12.815 v 4.932 c -0.016,0.32 0.207,0.686 0.499,0.814 l 53.591,27.307 c 0.459,0.268 1.204,0.268 1.662,0 l 53.591,-27.307 c 0.292,-0.129 0.515,-0.494 0.5,-0.814 v -4.932 h -12.814 v 2.388"
         inkscape:connector-curvature="0"
         style="fill:none;stroke:#0000ff;stroke-width:0.02843643;stroke-linecap:round;stroke-linejoin:round;stroke-miterlimit:4;stroke-dasharray:none;stroke-opacity:1" /><path
         id="above"
         d="m 272.365,342 v 2.405 h -34.784 v -31.121 c 0.054,-2.581 -1.941,-4.983 -4.485,-5.4 v 40.183 h -5.675 v -40.183 c -2.545,0.417 -4.54,2.819 -4.485,5.398 v 0.002 31.121 H 188.153 V 342"
         inkscape:connector-curvature="0"
         style="fill:none;stroke:#0000ff;stroke-width:0.02843643;stroke-linecap:round;stroke-linejoin:round;stroke-miterlimit:4;stroke-dasharray:none;stroke-opacity:1" /></g></g><g
     id="zbis"
     transform="matrix(1.3291147,0,0,1.3291147,-4.6441982,6.0632477)"
     style="fill:#000000;fill-opacity:1;stroke:none"><path
       id="cube3"
       inkscape:connector-curvature="0"
       sodipodi:nodetypes="cccccccc"
       d="m 80.827,135.114 6.205,4.803 -3.578,5.629 -5.684,-4.644 z"
       style="fill:#000000;fill-opacity:1;stroke:none" /><path
       id="cube2"
       inkscape:connector-curvature="0"
       sodipodi:nodetypes="cccc"
       d="m 87.032,139.917 -3.578,5.629 3.928,-2.803 3.527,-5.328 z"
       style="fill:#000000;fill-opacity:1;stroke:none" /><path
       id="cube1"
       inkscape:connector-curvature="0"
       d="m 90.909,137.416 -5.904,-4.429 -4.178,2.127 6.205,4.803 z"
       style="fill:#000000;fill-opacity:1;stroke:none" /><path
       id="z"
       inkscape:connector-curvature="0"
       d="m 43.31,160.581 v -3.778 l 9.482,-10.919 h -8.84 v -3.891 h 15.112 v 3.967 l -9.483,10.616 h 9.748 v 4.005 z"
       style="fill:#000000;fill-opacity:1;stroke:none" /><path
       id="s"
       inkscape:connector-curvature="0"
       d="m 91.834,141.936 c -1.007,0.29 -1.826,0.674 -2.456,1.153 v 0 c -0.63,0.479 -1.09,1.033 -1.379,1.662 v 0 c -0.29,0.63 -0.434,1.298 -0.434,2.002 v 0 c 0,0.781 0.106,1.486 0.321,2.116 v 0 c 0.214,0.63 0.629,1.208 1.247,1.737 v 0 c 0.617,0.529 1.479,1.014 2.588,1.455 v 0 c 1.108,0.441 2.569,0.863 4.382,1.266 v 0 c 1.007,0.227 1.757,0.491 2.248,0.793 v 0 c 0.491,0.302 0.737,0.793 0.737,1.474 v 0 c 0,0.604 -0.334,1.052 -1.001,1.341 v 0 c -0.667,0.29 -1.468,0.434 -2.399,0.434 v 0 c -1.109,0 -2.009,-0.239 -2.701,-0.718 v 0 c -0.693,-0.478 -1.039,-1.158 -1.039,-2.04 v 0 h -5.062 c 0.024,0.982 0.245,1.87 0.661,2.664 v 0 c 0.416,0.793 1.007,1.473 1.776,2.04 v 0 c 0.768,0.567 1.694,1.001 2.776,1.303 v 0 c 1.083,0.303 2.292,0.454 3.627,0.454 v 0 c 2.72,0 4.772,-0.548 6.158,-1.644 v 0 c 1.385,-1.095 2.078,-2.474 2.078,-4.137 v 0 c 0,-1.083 -0.145,-1.946 -0.435,-2.588 v 0 c -0.29,-0.642 -0.768,-1.177 -1.436,-1.605 v 0 c -0.667,-0.428 -1.556,-0.799 -2.663,-1.114 v 0 c -1.109,-0.314 -2.469,-0.699 -4.081,-1.152 v 0 c -0.982,-0.277 -1.732,-0.567 -2.248,-0.869 v 0 c -0.517,-0.302 -0.774,-0.705 -0.774,-1.209 v 0 c 0,-0.579 0.258,-0.988 0.774,-1.228 v 0 c 0.516,-0.239 1.278,-0.359 2.286,-0.359 v 0 c 1.057,0 1.844,0.195 2.361,0.585 v 0 c 0.516,0.391 0.837,1.014 0.964,1.87 v 0 h 4.722 c -0.126,-1.914 -0.806,-3.413 -2.04,-4.496 v 0 c -1.234,-1.083 -3.187,-1.625 -5.856,-1.625 v 0 c -1.461,0.001 -2.695,0.146 -3.702,0.435"
       style="fill:#000000;fill-opacity:1;stroke:none" /><path
       id="b2"
       inkscape:connector-curvature="0"
       d="m 70.432,150.695 c -1.227,0.014 -2.214,1.026 -2.197,2.253 v 0 c 0.014,1.227 1.025,2.213 2.252,2.197 v 0 c 1.227,-0.014 2.213,-1.025 2.197,-2.252 v 0 c -0.014,-1.217 -1.008,-2.198 -2.222,-2.198 v 0 c -0.009,0 -0.02,0 -0.03,0"
       style="fill:#000000;fill-opacity:1;stroke:none" /><path
       id="b1"
       inkscape:connector-curvature="0"
       d="m 67.84,140.032 c -1.073,0.012 -1.936,0.897 -1.921,1.97 v 0 c 0.012,1.073 0.896,1.936 1.97,1.921 v 0 c 1.073,-0.012 1.935,-0.896 1.921,-1.969 v 0 c -0.012,-1.063 -0.882,-1.921 -1.943,-1.921 v 0 c -0.009,-10e-4 -0.017,-10e-4 -0.027,-10e-4"
       style="fill:#000000;fill-opacity:1;stroke:none" /><path
       id="b"
       inkscape:connector-curvature="0"
       d="m 60.447,135.193 v 25.388 h 10.365 c 2.912,0 5.072,-0.682 6.482,-2.045 v 0 c 1.409,-1.363 2.115,-3.205 2.115,-5.525 v 0 c 0,-0.918 -0.093,-1.714 -0.277,-2.39 v 0 c -0.185,-0.675 -0.434,-1.261 -0.746,-1.759 v 0 c -0.312,-0.497 -0.682,-0.904 -1.109,-1.224 v 0 c -0.428,-0.318 -0.884,-0.579 -1.37,-0.783 v 0 c 0.809,-0.357 1.479,-0.962 2.011,-1.816 v 0 c 0.246,-0.396 0.434,-0.817 0.566,-1.264 v 0 l -2.862,-2.338 1.925,-3.646 c -0.179,-0.263 -0.379,-0.511 -0.6,-0.742 v 0 c -1.179,-1.236 -2.9,-1.854 -5.165,-1.854 v 0 H 60.447 Z m 6.202,2.509 0.061,-0.584 c 0.032,-0.305 0.288,-0.535 0.592,-0.54 v 0 l 0.993,-0.013 c 0.304,-0.002 0.565,0.224 0.604,0.527 v 0 l 0.076,0.584 c 0.381,0.098 0.748,0.245 1.088,0.44 v 0 l 0.446,-0.361 c 0.236,-0.193 0.581,-0.178 0.799,0.036 v 0 l 0.71,0.693 c 0.219,0.214 0.243,0.559 0.051,0.801 v 0 l -0.365,0.471 c 0.187,0.323 0.331,0.666 0.431,1.025 v 0 l 0.602,0.063 c 0.305,0.032 0.535,0.288 0.54,0.592 v 0 l 0.013,0.993 c 0.002,0.305 -0.224,0.566 -0.527,0.604 v 0 l -0.609,0.08 c -0.094,0.365 -0.238,0.717 -0.423,1.046 v 0 l 0.406,0.498 c 0.193,0.236 0.178,0.581 -0.036,0.799 v 0 l -0.693,0.71 c -0.213,0.219 -0.556,0.243 -0.798,0.056 v 0 l -0.519,-0.399 c -0.33,0.191 -0.684,0.34 -1.053,0.441 v 0 l -0.069,0.662 c -0.032,0.304 -0.288,0.535 -0.592,0.539 v 0 l -0.993,0.013 c -0.304,0.002 -0.566,-0.225 -0.604,-0.526 v 0 l -0.088,-0.688 c -0.346,-0.092 -0.678,-0.229 -0.992,-0.404 v 0 l -0.528,0.428 c -0.236,0.193 -0.581,0.178 -0.799,-0.036 v 0 l -0.71,-0.693 c -0.219,-0.214 -0.242,-0.556 -0.056,-0.799 v 0 l 0.418,-0.542 c -0.174,-0.3 -0.313,-0.616 -0.412,-0.947 v 0 l -0.673,-0.07 c -0.304,-0.032 -0.535,-0.288 -0.539,-0.592 v 0 l -0.014,-0.993 c -0.002,-0.304 0.225,-0.565 0.526,-0.604 v 0 l 0.634,-0.083 c 0.089,-0.363 0.222,-0.713 0.398,-1.043 v 0 l -0.403,-0.497 c -0.193,-0.236 -0.178,-0.581 0.036,-0.799 v 0 l 0.693,-0.715 c 0.213,-0.219 0.555,-0.243 0.798,-0.056 v 0 l 0.476,0.367 c 0.344,-0.213 0.715,-0.375 1.104,-0.484 m 2.421,10.328 0.07,-0.668 c 0.036,-0.348 0.329,-0.612 0.677,-0.617 v 0 l 1.136,-0.015 c 0.348,-0.002 0.647,0.257 0.691,0.602 v 0 L 71.73,148 c 0.437,0.111 0.855,0.28 1.245,0.503 v 0 l 0.51,-0.413 c 0.27,-0.221 0.664,-0.204 0.914,0.041 v 0 l 0.813,0.793 c 0.25,0.245 0.277,0.638 0.059,0.915 v 0 l -0.417,0.539 c 0.213,0.369 0.378,0.762 0.493,1.173 v 0 l 0.688,0.072 c 0.348,0.036 0.611,0.328 0.617,0.676 v 0 l 0.015,1.136 c 0.002,0.348 -0.256,0.646 -0.602,0.691 v 0 l -0.697,0.091 c -0.107,0.417 -0.271,0.82 -0.483,1.197 v 0 l 0.464,0.569 c 0.221,0.27 0.203,0.663 -0.042,0.914 v 0 l -0.793,0.813 c -0.244,0.25 -0.635,0.277 -0.913,0.064 v 0 l -0.594,-0.457 c -0.378,0.219 -0.782,0.388 -1.205,0.504 v 0 l -0.079,0.756 c -0.036,0.349 -0.328,0.612 -0.677,0.617 v 0 l -1.136,0.015 c -0.348,0.003 -0.647,-0.256 -0.691,-0.602 v 0 l -0.101,-0.786 c -0.396,-0.106 -0.776,-0.263 -1.135,-0.462 v 0 l -0.604,0.489 c -0.27,0.221 -0.664,0.203 -0.914,-0.041 v 0 l -0.813,-0.792 c -0.25,-0.245 -0.277,-0.636 -0.064,-0.914 v 0 l 0.478,-0.62 c -0.199,-0.343 -0.357,-0.705 -0.471,-1.083 v 0 l -0.771,-0.08 c -0.348,-0.036 -0.611,-0.329 -0.616,-0.677 v 0 l -0.015,-1.136 c -0.002,-0.348 0.256,-0.647 0.602,-0.691 v 0 l 0.725,-0.094 c 0.102,-0.415 0.255,-0.815 0.456,-1.193 v 0 l -0.462,-0.569 c -0.221,-0.27 -0.203,-0.663 0.042,-0.914 v 0 l 0.793,-0.818 c 0.244,-0.25 0.636,-0.277 0.913,-0.064 v 0 l 0.544,0.42 c 0.394,-0.242 0.818,-0.427 1.264,-0.552"
       style="fill:#000000;fill-opacity:1;stroke:none" /><path
       id="i"
       inkscape:connector-curvature="0"
       d="m 80.528,160.581 h 4.912 v -14.615 l -2.28,1.627 -2.631,-2.149 v 15.137 z"
       style="fill:#000000;fill-opacity:1;stroke:none" /></g></svg>