<?xml version="1.0" encoding="UTF-8" standalone="no"?>
<!-- Generator: Adobe Illustrator 14.0.0, SVG Export Plug-In . SVG Version: 6.00 Build 43363)  -->

<svg
   xmlns:dc="http://purl.org/dc/elements/1.1/"
   xmlns:cc="http://creativecommons.org/ns#"
   xmlns:rdf="http://www.w3.org/1999/02/22-rdf-syntax-ns#"
   xmlns:svg="http://www.w3.org/2000/svg"
   xmlns="http://www.w3.org/2000/svg"
   xmlns:sodipodi="http://sodipodi.sourceforge.net/DTD/sodipodi-0.dtd"
   xmlns:inkscape="http://www.inkscape.org/namespaces/inkscape"
   version="1.1"
   id="Layer_1"
   sodipodi:docname="zbis - carton2.20mm copy.svg"
   inkscape:version="0.92.2 (5c3e80d, 2017-08-06)"
   inkscape:label="gravure"
   x="0px"
   y="0px"
   width="50mm"
   height="100mm"
   viewBox="0 0 188.97638 377.95273"
   enable-background="new 0 0 283.464 340.157"
   xml:space="preserve"><metadata
     id="metadata33"><rdf:RDF><cc:Work
         rdf:about=""><dc:format>image/svg+xml</dc:format><dc:type
           rdf:resource="http://purl.org/dc/dcmitype/StillImage" /><dc:title></dc:title></cc:Work></rdf:RDF></metadata><defs
     id="defs31" /><sodipodi:namedview
     pagecolor="#ffffff"
     bordercolor="#666666"
     borderopacity="1"
     objecttolerance="10"
     gridtolerance="10"
     guidetolerance="10"
     inkscape:pageopacity="0"
     inkscape:pageshadow="2"
     inkscape:window-width="1920"
     inkscape:window-height="1001"
     id="namedview29"
     showgrid="false"
     units="mm"
     inkscape:document-units="mm"
     inkscape:zoom="1.962355"
     inkscape:cx="86.950876"
     inkscape:cy="191.60876"
     inkscape:window-x="-9"
     inkscape:window-y="-9"
     inkscape:window-maximized="1"
     inkscape:current-layer="Layer_1" /><g
     id="decoupe"
     transform="matrix(1.3331985,0,0,1.3331985,-209.65282,-144.10195)"
     style="fill:none;stroke:#0000ff;stroke-opacity:1;stroke-width:0.02834933;stroke-miterlimit:4;stroke-dasharray:none"><path
       id="cadre"
       inkscape:connector-curvature="0"
       d="m 290.158,381.875 c 0,4.57 -3.654,8.274 -8.161,8.274 H 172.518 c -4.508,0 -8.161,-3.704 -8.161,-8.274 V 117.794 c 0,-4.57 3.654,-8.275 8.161,-8.275 h 109.479 c 4.507,0 8.161,3.705 8.161,8.275 z"
       style="fill:none;stroke:#0000ff;stroke-width:0.02834933;stroke-linecap:round;stroke-linejoin:round;stroke-opacity:1;stroke-miterlimit:4;stroke-dasharray:none" /><g
       id="T3"
       style="fill:none;stroke:#0000ff;stroke-opacity:1;stroke-width:0.02834933;stroke-miterlimit:4;stroke-dasharray:none"><polygon
         id="cross"
         points="230.256,178.849 234.996,178.849 234.996,172.851 230.256,172.851 230.256,168.111 224.26,168.111 224.26,172.851 219.52,172.851 219.52,178.849 224.26,178.849 224.26,183.587 230.256,183.587 "
         style="fill:none;stroke:#0000ff;stroke-width:0.02834933;stroke-linecap:round;stroke-linejoin:round;stroke-opacity:1;stroke-miterlimit:4;stroke-dasharray:none" /><path
         id="left"
         inkscape:connector-curvature="0"
         d="m 230.256,228.96 v -8.618 h -5.996 v 13.463 0 c -29.31,-1.152 -53.804,-25.648 -54.958,-54.956 h 13.465 v -5.998 h -13.465 0.002 c 1.151,-29.309 25.646,-53.805 54.956,-54.958 v 13.463 h 5.996 v -9.547"
         style="fill:none;stroke:#0000ff;stroke-width:0.02834933;stroke-linecap:round;stroke-linejoin:round;stroke-opacity:1;stroke-miterlimit:4;stroke-dasharray:none" /><path
         id="right"
         inkscape:connector-curvature="0"
         d="m 230.256,229.526 v 4.278 c 29.311,-1.152 53.807,-25.648 54.958,-54.956 H 271.75 v -5.998 h 13.463 c -1.153,-29.309 -25.647,-53.805 -54.958,-54.958 v 3.35"
         style="fill:none;stroke:#0000ff;stroke-width:0.02834933;stroke-linecap:round;stroke-linejoin:round;stroke-opacity:1;stroke-miterlimit:4;stroke-dasharray:none" /></g><g
       id="T2"
       style="fill:none;stroke:#0000ff;stroke-opacity:1;stroke-width:0.02834933;stroke-miterlimit:4;stroke-dasharray:none"><path
         id="pocket_left_1_"
         d="m 196.988,286.454 21.125,10.767 c 0.475,0.243 1.06,0.054 1.301,-0.423 0.062,-0.108 0.112,-0.314 0.105,-0.44 h 0.001 v -10.763 c 0,-0.536 -0.434,-0.969 -0.967,-0.969 v 0 h -21.125 c -0.534,0 -0.969,0.433 -0.969,0.969 -0.014,0.337 0.22,0.722 0.529,0.861 z"
         inkscape:connector-curvature="0"
         style="fill:none;stroke:#0000ff;stroke-width:0.02834933;stroke-linecap:round;stroke-linejoin:round;stroke-opacity:1;stroke-miterlimit:4;stroke-dasharray:none" /><path
         id="pocket_right_1_"
         d="m 257.529,286.454 c 0.475,-0.241 0.666,-0.825 0.424,-1.299 -0.141,-0.311 -0.525,-0.544 -0.864,-0.528 v -0.001 h -21.126 c -0.534,0 -0.967,0.433 -0.967,0.969 v 0 10.763 c 0,0.535 0.433,0.969 0.967,0.969 0.125,0.008 0.329,-0.042 0.44,-0.105 z"
         inkscape:connector-curvature="0"
         style="fill:none;stroke:#0000ff;stroke-width:0.02834933;stroke-linecap:round;stroke-linejoin:round;stroke-opacity:1;stroke-miterlimit:4;stroke-dasharray:none" /><path
         id="above_1_"
         d="m 271.75,275.732 v 3.091 h -36.754 v -32.885 c 0,-3.205 -2.599,-5.804 -5.803,-5.804 v 0 h -3.869 c -3.206,0 -5.803,2.599 -5.803,5.804 v 0 32.885 h -36.753 v -3.091"
         inkscape:connector-curvature="0"
         style="fill:none;stroke:#0000ff;stroke-width:0.02834933;stroke-linecap:round;stroke-linejoin:round;stroke-opacity:1;stroke-miterlimit:4;stroke-dasharray:none" /><path
         id="below_1_"
         d="m 271.75,275.165 v -2.145 h 13.541 v 5.21 c 0.017,0.337 -0.217,0.724 -0.528,0.862 l -54.507,27.771 v -2.893 c -0.645,-1.068 -0.645,-2.798 0,-3.869 v -17.41 h -5.996 v 17.41 c 0.645,1.071 0.645,2.801 0,3.869 v 2.893 l -54.505,-27.771 c -0.311,-0.139 -0.545,-0.525 -0.529,-0.862 v -5.21 h 13.541 v 2.145"
         inkscape:connector-curvature="0"
         style="fill:none;stroke:#0000ff;stroke-width:0.02834933;stroke-linecap:round;stroke-linejoin:round;stroke-opacity:1;stroke-miterlimit:4;stroke-dasharray:none" /></g><g
       id="T1"
       style="fill:none;stroke:#0000ff;stroke-opacity:1;stroke-width:0.02834933;stroke-miterlimit:4;stroke-dasharray:none"><path
         id="pocket_left"
         d="m 196.988,359.003 21.125,10.766 c 0.475,0.243 1.06,0.054 1.301,-0.425 0.062,-0.105 0.112,-0.313 0.105,-0.436 h 0.001 v -10.766 c 0,-0.534 -0.434,-0.966 -0.969,-0.966 v 0 -10e-4 h -21.124 c -0.534,0 -0.969,0.433 -0.969,0.967 -0.015,0.34 0.221,0.721 0.53,0.861 z"
         inkscape:connector-curvature="0"
         style="fill:none;stroke:#0000ff;stroke-width:0.02834933;stroke-linecap:round;stroke-linejoin:round;stroke-opacity:1;stroke-miterlimit:4;stroke-dasharray:none" /><path
         id="pocket_right"
         d="m 257.528,359.003 c 0.476,-0.242 0.667,-0.823 0.423,-1.299 -0.139,-0.31 -0.524,-0.543 -0.863,-0.527 v -0.001 h -21.126 c -0.535,0 -0.967,0.433 -0.967,0.967 v 0 10.766 c 0,0.533 0.432,0.967 0.967,0.967 0.125,0.006 0.329,-0.042 0.438,-0.106 z"
         inkscape:connector-curvature="0"
         style="fill:none;stroke:#0000ff;stroke-width:0.02834933;stroke-linecap:round;stroke-linejoin:round;stroke-opacity:1;stroke-miterlimit:4;stroke-dasharray:none" /><path
         id="below"
         d="m 182.767,347.165 v -1.595 h -13.541 v 5.21 c -0.017,0.339 0.218,0.724 0.527,0.861 l 56.627,28.853 c 0.485,0.282 1.272,0.282 1.756,0 l 56.626,-28.853 c 0.309,-0.138 0.544,-0.522 0.528,-0.861 v -5.21 h -13.54 v 1.595"
         inkscape:connector-curvature="0"
         style="fill:none;stroke:#0000ff;stroke-width:0.02834933;stroke-linecap:round;stroke-linejoin:round;stroke-opacity:1;stroke-miterlimit:4;stroke-dasharray:none" /><path
         id="above"
         d="m 271.75,347.732 v 3.641 h -36.754 v -32.885 c 0.057,-2.727 -2.051,-5.266 -4.74,-5.707 v 42.46 h -5.996 v -42.46 c -2.69,0.441 -4.797,2.98 -4.74,5.705 v 0.002 32.885 h -36.753 v -3.641"
         inkscape:connector-curvature="0"
         style="fill:none;stroke:#0000ff;stroke-width:0.02834933;stroke-linecap:round;stroke-linejoin:round;stroke-opacity:1;stroke-miterlimit:4;stroke-dasharray:none" /></g></g><g
     id="zbis"
     transform="matrix(1.3331985,0,0,1.3331985,-1.1008301,-70.514879)"
     style="fill:#000000;fill-opacity:1;stroke:none"><path
       id="cube3"
       inkscape:connector-curvature="0"
       sodipodi:nodetypes="cccccccc"
       d="m 78.224,133.351 6.556,5.075 -3.781,5.948 -6.005,-4.906 z"
       style="fill:#000000;fill-opacity:1;stroke:none" /><path
       id="cube2"
       inkscape:connector-curvature="0"
       sodipodi:nodetypes="cccc"
       d="m 84.78,138.426 -3.781,5.948 4.15,-2.961 3.729,-5.63 z"
       style="fill:#000000;fill-opacity:1;stroke:none" /><path
       id="cube1"
       inkscape:connector-curvature="0"
       d="m 88.877,135.783 -6.239,-4.68 -4.414,2.248 6.556,5.075 z"
       style="fill:#000000;fill-opacity:1;stroke:none" /><path
       id="z"
       inkscape:connector-curvature="0"
       d="m 38.581,160.26 v -3.991 l 10.02,-11.538 H 39.26 v -4.111 h 15.968 v 4.19 l -10.02,11.218 h 10.299 v 4.231 H 38.581 Z"
       style="fill:#000000;fill-opacity:1;stroke:none" /><path
       id="s"
       inkscape:connector-curvature="0"
       d="m 89.854,140.56 c -1.064,0.306 -1.929,0.712 -2.595,1.218 v 0 c -0.665,0.506 -1.152,1.091 -1.457,1.757 v 0 c -0.307,0.666 -0.459,1.371 -0.459,2.116 v 0 c 0,0.826 0.112,1.57 0.339,2.236 v 0 c 0.226,0.666 0.664,1.278 1.318,1.836 v 0 c 0.651,0.559 1.562,1.071 2.734,1.537 v 0 c 1.171,0.466 2.714,0.913 4.63,1.338 v 0 c 1.065,0.239 1.857,0.519 2.376,0.837 v 0 c 0.519,0.32 0.779,0.839 0.779,1.558 v 0 c 0,0.639 -0.354,1.112 -1.058,1.417 v 0 c -0.706,0.307 -1.551,0.459 -2.535,0.459 v 0 c -1.172,0 -2.123,-0.252 -2.854,-0.758 v 0 c -0.732,-0.506 -1.098,-1.224 -1.098,-2.156 v 0 h -5.349 c 0.026,1.038 0.259,1.976 0.698,2.814 v 0 c 0.439,0.839 1.063,1.557 1.876,2.156 v 0 c 0.812,0.599 1.789,1.058 2.934,1.377 v 0 c 1.144,0.32 2.421,0.479 3.832,0.479 v 0 c 2.874,0 5.043,-0.579 6.507,-1.736 v 0 c 1.464,-1.157 2.196,-2.615 2.196,-4.372 v 0 c 0,-1.144 -0.153,-2.056 -0.46,-2.734 v 0 c -0.306,-0.679 -0.811,-1.244 -1.517,-1.697 v 0 c -0.706,-0.453 -1.644,-0.844 -2.814,-1.177 v 0 c -1.171,-0.332 -2.608,-0.738 -4.311,-1.218 v 0 c -1.038,-0.292 -1.831,-0.599 -2.375,-0.918 v 0 c -0.546,-0.319 -0.818,-0.745 -0.818,-1.277 v 0 c 0,-0.612 0.271,-1.045 0.818,-1.297 v 0 c 0.545,-0.253 1.351,-0.38 2.416,-0.38 v 0 c 1.117,0 1.949,0.207 2.494,0.619 v 0 c 0.547,0.412 0.885,1.071 1.019,1.976 v 0 h 4.989 c -0.132,-2.023 -0.851,-3.606 -2.156,-4.75 v 0 c -1.304,-1.145 -3.367,-1.717 -6.188,-1.717 v 0 c -1.542,-0.002 -2.846,0.152 -3.911,0.457"
       style="fill:#000000;fill-opacity:1;stroke:none" /><path
       id="b2"
       inkscape:connector-curvature="0"
       d="m 67.24,149.815 c -1.295,0.015 -2.339,1.084 -2.321,2.38 v 0 c 0.014,1.296 1.083,2.338 2.38,2.32 v 0 c 1.296,-0.014 2.338,-1.083 2.321,-2.378 v 0 c -0.015,-1.286 -1.066,-2.322 -2.349,-2.322 v 0 c -0.01,0 -0.021,0 -0.031,0"
       style="fill:#000000;fill-opacity:1;stroke:none" /><path
       id="b1"
       inkscape:connector-curvature="0"
       d="m 64.501,138.548 c -1.134,0.013 -2.045,0.947 -2.03,2.081 v 0 c 0.013,1.133 0.947,2.045 2.081,2.03 v 0 c 1.133,-0.014 2.045,-0.947 2.03,-2.082 v 0 c -0.014,-1.124 -0.933,-2.03 -2.053,-2.03 v 0 c -0.008,0.001 -0.018,0.001 -0.028,0.001"
       style="fill:#000000;fill-opacity:1;stroke:none" /><path
       id="b"
       inkscape:connector-curvature="0"
       d="m 56.689,133.434 v 26.826 h 10.952 c 3.076,0 5.36,-0.72 6.85,-2.16 v 0 c 1.488,-1.441 2.234,-3.387 2.234,-5.838 v 0 c 0,-0.97 -0.098,-1.812 -0.293,-2.526 v 0 c -0.196,-0.712 -0.458,-1.333 -0.788,-1.858 v 0 c -0.329,-0.526 -0.72,-0.956 -1.171,-1.293 v 0 c -0.452,-0.337 -0.935,-0.612 -1.447,-0.828 v 0 c 0.854,-0.377 1.562,-1.017 2.125,-1.92 v 0 c 0.26,-0.417 0.458,-0.863 0.598,-1.334 v 0 l -3.024,-2.472 2.035,-3.854 c -0.19,-0.277 -0.402,-0.539 -0.635,-0.785 v 0 c -1.245,-1.306 -3.065,-1.959 -5.458,-1.959 v 0 H 56.689 Z m 6.553,2.651 0.064,-0.618 c 0.035,-0.321 0.304,-0.565 0.627,-0.569 v 0 l 1.049,-0.014 c 0.322,-0.002 0.597,0.237 0.639,0.556 v 0 l 0.081,0.618 c 0.402,0.104 0.79,0.259 1.15,0.465 v 0 l 0.47,-0.38 c 0.25,-0.205 0.614,-0.188 0.846,0.038 v 0 l 0.75,0.731 c 0.231,0.227 0.256,0.591 0.054,0.847 v 0 l -0.386,0.497 c 0.197,0.342 0.35,0.704 0.455,1.084 v 0 l 0.635,0.065 c 0.323,0.035 0.565,0.304 0.571,0.626 v 0 l 0.014,1.049 c 0.002,0.323 -0.237,0.598 -0.558,0.639 v 0 l -0.643,0.084 c -0.099,0.386 -0.251,0.757 -0.447,1.105 v 0 l 0.429,0.526 c 0.203,0.25 0.188,0.613 -0.038,0.844 v 0 l -0.732,0.751 c -0.226,0.232 -0.588,0.256 -0.844,0.06 v 0 l -0.548,-0.422 c -0.349,0.202 -0.723,0.359 -1.112,0.465 v 0 l -0.073,0.699 c -0.033,0.321 -0.304,0.565 -0.626,0.57 v 0 l -1.049,0.013 c -0.321,0.002 -0.598,-0.237 -0.638,-0.555 v 0 l -0.093,-0.727 c -0.365,-0.098 -0.717,-0.243 -1.048,-0.427 v 0 l -0.558,0.452 c -0.249,0.203 -0.613,0.188 -0.844,-0.038 v 0 l -0.75,-0.732 c -0.231,-0.226 -0.257,-0.586 -0.059,-0.843 v 0 l 0.442,-0.573 c -0.185,-0.317 -0.332,-0.651 -0.437,-1 v 0 l -0.711,-0.074 c -0.321,-0.034 -0.565,-0.304 -0.57,-0.625 v 0 l -0.014,-1.049 c -0.002,-0.321 0.237,-0.598 0.556,-0.638 v 0 l 0.669,-0.088 c 0.094,-0.383 0.236,-0.753 0.421,-1.102 v 0 l -0.426,-0.526 c -0.204,-0.25 -0.188,-0.613 0.038,-0.843 v 0 l 0.733,-0.756 c 0.225,-0.231 0.585,-0.256 0.843,-0.059 v 0 l 0.502,0.388 c 0.362,-0.226 0.755,-0.398 1.166,-0.514 M 65.8,147 l 0.074,-0.707 c 0.039,-0.368 0.346,-0.646 0.715,-0.652 v 0 l 1.2,-0.016 c 0.367,-0.002 0.684,0.271 0.729,0.636 v 0 l 0.093,0.707 c 0.461,0.118 0.903,0.296 1.315,0.532 v 0 l 0.54,-0.438 c 0.285,-0.232 0.701,-0.214 0.964,0.043 v 0 l 0.86,0.839 c 0.264,0.258 0.293,0.673 0.062,0.967 v 0 l -0.441,0.568 c 0.225,0.391 0.399,0.806 0.521,1.241 v 0 l 0.726,0.075 c 0.368,0.037 0.646,0.347 0.651,0.715 v 0 l 0.016,1.201 c 0.002,0.368 -0.271,0.683 -0.635,0.729 v 0 l -0.737,0.096 c -0.113,0.44 -0.287,0.867 -0.51,1.265 v 0 l 0.491,0.601 c 0.232,0.284 0.214,0.7 -0.044,0.965 v 0 l -0.838,0.858 c -0.257,0.265 -0.671,0.293 -0.964,0.068 v 0 l -0.627,-0.483 c -0.399,0.231 -0.826,0.41 -1.272,0.533 v 0 l -0.084,0.798 c -0.039,0.369 -0.347,0.646 -0.715,0.652 v 0 l -1.201,0.016 c -0.367,0.003 -0.683,-0.271 -0.729,-0.636 v 0 l -0.107,-0.83 c -0.417,-0.113 -0.821,-0.278 -1.199,-0.49 v 0 l -0.639,0.518 c -0.284,0.233 -0.701,0.214 -0.966,-0.044 v 0 l -0.857,-0.836 c -0.265,-0.259 -0.294,-0.673 -0.068,-0.966 v 0 l 0.505,-0.655 c -0.21,-0.362 -0.378,-0.744 -0.5,-1.144 v 0 l -0.814,-0.085 c -0.367,-0.038 -0.644,-0.347 -0.65,-0.715 v 0 l -0.016,-1.2 c -0.003,-0.368 0.271,-0.684 0.636,-0.731 v 0 l 0.765,-0.099 c 0.107,-0.438 0.27,-0.861 0.482,-1.261 v 0 l -0.488,-0.602 c -0.233,-0.285 -0.215,-0.7 0.043,-0.965 v 0 l 0.838,-0.865 c 0.258,-0.264 0.672,-0.292 0.965,-0.067 v 0 l 0.575,0.444 c 0.416,-0.254 0.864,-0.449 1.335,-0.58"
       style="fill:#000000;fill-opacity:1;stroke:none" /><path
       id="i"
       inkscape:connector-curvature="0"
       d="m 77.907,160.26 h 5.189 v -15.443 l -2.408,1.72 -2.781,-2.271 z"
       style="fill:#000000;fill-opacity:1;stroke:none" /></g></svg>