<?xml version="1.0" encoding="UTF-8" standalone="no"?>
<svg
   xmlns:dc="http://purl.org/dc/elements/1.1/"
   xmlns:cc="http://creativecommons.org/ns#"
   xmlns:rdf="http://www.w3.org/1999/02/22-rdf-syntax-ns#"
   xmlns:svg="http://www.w3.org/2000/svg"
   xmlns="http://www.w3.org/2000/svg"
   xmlns:sodipodi="http://sodipodi.sourceforge.net/DTD/sodipodi-0.dtd"
   xmlns:inkscape="http://www.inkscape.org/namespaces/inkscape"
   inkscape:version="1.0 (4035a4fb49, 2020-05-01)"
   sodipodi:docname="cloison_v2_usinage_rexport.svg"
   version="1.1"
   id="svg2"
   viewBox="0 0 2500.00000000 1220.00000000"
   height="1220.00000000mm"
   width="2500.00000000mm">
  <metadata
     id="metadata202">
    <rdf:RDF>
      <cc:Work
         rdf:about="">
        <dc:format>image/svg+xml</dc:format>
        <dc:type
           rdf:resource="http://purl.org/dc/dcmitype/StillImage" />
        <dc:title></dc:title>
      </cc:Work>
    </rdf:RDF>
  </metadata>
  <defs
     id="defs200" />
  <sodipodi:namedview
     inkscape:current-layer="c480e819-3b08-49d7-b519-95aa86342b91"
     inkscape:window-maximized="1"
     inkscape:window-y="-8"
     inkscape:window-x="-8"
     inkscape:cy="2603.6764"
     inkscape:cx="4727.1124"
     inkscape:zoom="0.10836176"
     showgrid="false"
     id="namedview198"
     inkscape:window-height="1017"
     inkscape:window-width="1920"
     inkscape:pageshadow="2"
     inkscape:pageopacity="0"
     guidetolerance="10"
     gridtolerance="10"
     objecttolerance="10"
     borderopacity="1"
     bordercolor="#666666"
     pagecolor="#ffffff" />
  <g
     style="display:inline"
     inkscape:label="Poches 9mm"
     id="e2b3614f-7c14-4981-85cf-aad3e70e22f9"
     inkscape:groupmode="layer">
    <path
       id="path3"
       d="m 624.9275,198.2971 h 12.98 a 4.01,4.01 0 0 0 8.02,0 v -18 a 4.01,4.01 0 0 0 -8.02,0 h -43.96 a 4.01,4.01 0 0 0 -8.02,0 v 18 a 4.01,4.01 0 0 0 8.02,0 h 12.98 l 10e-6,805.3257 h 18 l -10e-6,-805.3257"
       style="fill:none;stroke:#000000;stroke-width:0.1;stroke-linecap:round;stroke-linejoin:round;stroke-opacity:1" />
    <path
       id="path5"
       d="m 410.20922,178.25373 10e-6,805.32566 h 12.98 a 4.01,4.01 0 0 1 8.02,0 v 18.00001 a 4.01,4.01 0 0 1 -8.02,0 h -43.96 a 4.01,4.01 0 0 1 -8.02,0 v -18.00001 a 4.01,4.01 0 0 1 8.02,0 h 12.98 l -10e-6,-805.32566 h 18"
       style="fill:none;stroke:#000000;stroke-width:0.1;stroke-linecap:round;stroke-linejoin:round;stroke-opacity:1" />
  </g>
  <g
     style="display:inline"
     inkscape:label="Poches 18mm"
     id="17c84a60-a0d9-4eb6-b28e-b8c57ed0205d"
     inkscape:groupmode="layer">
    <path
       id="path8"
       d="m 953,1004.8038 1.24264,0.9536 0.95351,1.2426 0.59941,1.4471 L 956,1010 l -0.20444,1.5529 -0.59941,1.4471 -0.95351,1.2426 -1.24264,0.9536 -1.44709,0.5994 L 950,1016 948.44709,1015.7956 947,1015.1962 945.75736,1014.2426 944.80385,1013 944.20444,1011.5529 944,1010 l 0.20444,-1.5529 0.59941,-1.4471 0.95351,-1.2426 1.24264,-0.9536 1.44709,-0.5994 L 950,1004 l 1.55291,0.2044 1.44709,0.5994"
       style="fill:none;stroke:#000000;stroke-width:0.1;stroke-linecap:round;stroke-linejoin:round;stroke-opacity:1" />
    <path
       id="path10"
       d="m 1153,1004.8038 1.2426,0.9536 0.9536,1.2426 0.5994,1.4471 0.2044,1.5529 -0.2044,1.5529 -0.5994,1.4471 -0.9536,1.2426 -1.2426,0.9536 -1.4471,0.5994 L 1150,1016 l -1.5529,-0.2044 -1.4471,-0.5994 -1.2426,-0.9536 -0.9536,-1.2426 -0.5994,-1.4471 L 1144,1010 l 0.2044,-1.5529 0.5994,-1.4471 0.9536,-1.2426 1.2426,-0.9536 1.4471,-0.5994 L 1150,1004 l 1.5529,0.2044 1.4471,0.5994"
       style="fill:none;stroke:#000000;stroke-width:0.1;stroke-linecap:round;stroke-linejoin:round;stroke-opacity:1" />
    <path
       id="path12"
       d="m 1353,1004.8038 1.2426,0.9536 0.9536,1.2426 0.5994,1.4471 0.2044,1.5529 -0.2044,1.5529 -0.5994,1.4471 -0.9536,1.2426 -1.2426,0.9536 -1.4471,0.5994 L 1350,1016 l -1.5529,-0.2044 -1.4471,-0.5994 -1.2426,-0.9536 -0.9536,-1.2426 -0.5994,-1.4471 L 1344,1010 l 0.2044,-1.5529 0.5994,-1.4471 0.9536,-1.2426 1.2426,-0.9536 1.4471,-0.5994 L 1350,1004 l 1.5529,0.2044 1.4471,0.5994"
       style="fill:none;stroke:#000000;stroke-width:0.1;stroke-linecap:round;stroke-linejoin:round;stroke-opacity:1" />
    <path
       id="path14"
       d="m 951.55291,804.20444 1.44709,0.59941 1.24264,0.95351 0.95351,1.24264 0.59941,1.44709 L 956,810 955.79556,811.55291 955.19615,813 954.24264,814.24264 953,815.19615 951.55291,815.79556 950,816 948.44709,815.79556 947,815.19615 945.75736,814.24264 944.80385,813 944.20444,811.55291 944,810 944.20444,808.44709 944.80385,807 945.75736,805.75736 947,804.80385 948.44709,804.20444 950,804 l 1.55291,0.20444"
       style="fill:none;stroke:#000000;stroke-width:0.1;stroke-linecap:round;stroke-linejoin:round;stroke-opacity:1" />
    <path
       id="path16"
       d="m 1553,1004.8038 1.2426,0.9536 0.9536,1.2426 0.5994,1.4471 0.2044,1.5529 -0.2044,1.5529 -0.5994,1.4471 -0.9536,1.2426 -1.2426,0.9536 -1.4471,0.5994 L 1550,1016 l -1.5529,-0.2044 -1.4471,-0.5994 -1.2426,-0.9536 -0.9536,-1.2426 -0.5994,-1.4471 L 1544,1010 l 0.2044,-1.5529 0.5994,-1.4471 0.9536,-1.2426 1.2426,-0.9536 1.4471,-0.5994 L 1550,1004 l 1.5529,0.2044 1.4471,0.5994"
       style="fill:none;stroke:#000000;stroke-width:0.1;stroke-linecap:round;stroke-linejoin:round;stroke-opacity:1" />
    <path
       id="path18"
       d="m 1153,804.80385 1.2426,0.95351 0.9536,1.24264 0.5994,1.44709 L 1156,810 l -0.2044,1.55291 -0.5994,1.44709 -0.9536,1.24264 -1.2426,0.95351 -1.4471,0.59941 L 1150,816 1148.4471,815.79556 1147,815.19615 1145.7574,814.24264 1144.8038,813 1144.2044,811.55291 1144,810 l 0.2044,-1.55291 0.5994,-1.44709 0.9536,-1.24264 1.2426,-0.95351 1.4471,-0.59941 L 1150,804 l 1.5529,0.20444 1.4471,0.59941"
       style="fill:none;stroke:#000000;stroke-width:0.1;stroke-linecap:round;stroke-linejoin:round;stroke-opacity:1" />
    <path
       id="path20"
       d="m 1753,1004.8038 1.2426,0.9536 0.9536,1.2426 0.5994,1.4471 0.2044,1.5529 -0.2044,1.5529 -0.5994,1.4471 -0.9536,1.2426 -1.2426,0.9536 -1.4471,0.5994 L 1750,1016 l -1.5529,-0.2044 -1.4471,-0.5994 -1.2426,-0.9536 -0.9536,-1.2426 -0.5994,-1.4471 L 1744,1010 l 0.2044,-1.5529 0.5994,-1.4471 0.9536,-1.2426 1.2426,-0.9536 1.4471,-0.5994 L 1750,1004 l 1.5529,0.2044 1.4471,0.5994"
       style="fill:none;stroke:#000000;stroke-width:0.1;stroke-linecap:round;stroke-linejoin:round;stroke-opacity:1" />
    <path
       id="path22"
       d="m 1353,804.80385 1.2426,0.95351 0.9536,1.24264 0.5994,1.44709 L 1356,810 l -0.2044,1.55291 -0.5994,1.44709 -0.9536,1.24264 -1.2426,0.95351 -1.4471,0.59941 L 1350,816 1348.4471,815.79556 1347,815.19615 1345.7574,814.24264 1344.8038,813 1344.2044,811.55291 1344,810 l 0.2044,-1.55291 0.5994,-1.44709 0.9536,-1.24264 1.2426,-0.95351 1.4471,-0.59941 L 1350,804 l 1.5529,0.20444 1.4471,0.59941"
       style="fill:none;stroke:#000000;stroke-width:0.1;stroke-linecap:round;stroke-linejoin:round;stroke-opacity:1" />
    <path
       id="path24"
       d="m 951.55291,604.20444 1.44709,0.59941 1.24264,0.95351 0.95351,1.24264 0.59941,1.44709 L 956,610 955.79556,611.55291 955.19615,613 954.24264,614.24264 953,615.19615 951.55291,615.79556 950,616 948.44709,615.79556 947,615.19615 945.75736,614.24264 944.80385,613 944.20444,611.55291 944,610 944.20444,608.44709 944.80385,607 945.75736,605.75736 947,604.80385 948.44709,604.20444 950,604 l 1.55291,0.20444"
       style="fill:none;stroke:#000000;stroke-width:0.1;stroke-linecap:round;stroke-linejoin:round;stroke-opacity:1" />
    <path
       id="path26"
       d="m 1553,804.80385 1.2426,0.95351 0.9536,1.24264 0.5994,1.44709 L 1556,810 l -0.2044,1.55291 -0.5994,1.44709 -0.9536,1.24264 -1.2426,0.95351 -1.4471,0.59941 L 1550,816 1548.4471,815.79556 1547,815.19615 1545.7574,814.24264 1544.8038,813 1544.2044,811.55291 1544,810 l 0.2044,-1.55291 0.5994,-1.44709 0.9536,-1.24264 1.2426,-0.95351 1.4471,-0.59941 L 1550,804 l 1.5529,0.20444 1.4471,0.59941"
       style="fill:none;stroke:#000000;stroke-width:0.1;stroke-linecap:round;stroke-linejoin:round;stroke-opacity:1" />
    <path
       id="path28"
       d="m 1953,1004.8038 1.2426,0.9536 0.9536,1.2426 0.5994,1.4471 0.2044,1.5529 -0.2044,1.5529 -0.5994,1.4471 -0.9536,1.2426 -1.2426,0.9536 -1.4471,0.5994 L 1950,1016 l -1.5529,-0.2044 -1.4471,-0.5994 -1.2426,-0.9536 -0.9536,-1.2426 -0.5994,-1.4471 L 1944,1010 l 0.2044,-1.5529 0.5994,-1.4471 0.9536,-1.2426 1.2426,-0.9536 1.4471,-0.5994 L 1950,1004 l 1.5529,0.2044 1.4471,0.5994"
       style="fill:none;stroke:#000000;stroke-width:0.1;stroke-linecap:round;stroke-linejoin:round;stroke-opacity:1" />
    <path
       id="path30"
       d="m 1153,604.80385 1.2426,0.95351 0.9536,1.24264 0.5994,1.44709 L 1156,610 l -0.2044,1.55291 -0.5994,1.44709 -0.9536,1.24264 -1.2426,0.95351 -1.4471,0.59941 L 1150,616 1148.4471,615.79556 1147,615.19615 1145.7574,614.24264 1144.8038,613 1144.2044,611.55291 1144,610 l 0.2044,-1.55291 0.5994,-1.44709 0.9536,-1.24264 1.2426,-0.95351 1.4471,-0.59941 L 1150,604 l 1.5529,0.20444 1.4471,0.59941"
       style="fill:none;stroke:#000000;stroke-width:0.1;stroke-linecap:round;stroke-linejoin:round;stroke-opacity:1" />
    <path
       id="path32"
       d="m 1753,804.80385 1.2426,0.95351 0.9536,1.24264 0.5994,1.44709 L 1756,810 l -0.2044,1.55291 -0.5994,1.44709 -0.9536,1.24264 -1.2426,0.95351 -1.4471,0.59941 L 1750,816 1748.4471,815.79556 1747,815.19615 1745.7574,814.24264 1744.8038,813 1744.2044,811.55291 1744,810 l 0.2044,-1.55291 0.5994,-1.44709 0.9536,-1.24264 1.2426,-0.95351 1.4471,-0.59941 L 1750,804 l 1.5529,0.20444 1.4471,0.59941"
       style="fill:none;stroke:#000000;stroke-width:0.1;stroke-linecap:round;stroke-linejoin:round;stroke-opacity:1" />
    <path
       id="path34"
       d="m 1353,604.80385 1.2426,0.95351 0.9536,1.24264 0.5994,1.44709 L 1356,610 l -0.2044,1.55291 -0.5994,1.44709 -0.9536,1.24264 -1.2426,0.95351 -1.4471,0.59941 L 1350,616 1348.4471,615.79556 1347,615.19615 1345.7574,614.24264 1344.8038,613 1344.2044,611.55291 1344,610 l 0.2044,-1.55291 0.5994,-1.44709 0.9536,-1.24264 1.2426,-0.95351 1.4471,-0.59941 L 1350,604 l 1.5529,0.20444 1.4471,0.59941"
       style="fill:none;stroke:#000000;stroke-width:0.1;stroke-linecap:round;stroke-linejoin:round;stroke-opacity:1" />
    <path
       id="path36"
       d="m 2153,1004.8038 1.2426,0.9536 0.9536,1.2426 0.5994,1.4471 0.2044,1.5529 -0.2044,1.5529 -0.5994,1.4471 -0.9536,1.2426 -1.2426,0.9536 -1.4471,0.5994 L 2150,1016 l -1.5529,-0.2044 -1.4471,-0.5994 -1.2426,-0.9536 -0.9536,-1.2426 -0.5994,-1.4471 L 2144,1010 l 0.2044,-1.5529 0.5994,-1.4471 0.9536,-1.2426 1.2426,-0.9536 1.4471,-0.5994 L 2150,1004 l 1.5529,0.2044 1.4471,0.5994"
       style="fill:none;stroke:#000000;stroke-width:0.1;stroke-linecap:round;stroke-linejoin:round;stroke-opacity:1" />
    <path
       id="path38"
       d="m 951.55291,404.20445 1.44709,0.5994 1.24264,0.95351 0.95351,1.24264 0.59941,1.44709 L 956,410 955.79556,411.55291 955.19615,413 954.24264,414.24264 953,415.19615 951.55291,415.79555 950,416 948.44709,415.79555 947,415.19615 945.75736,414.24264 944.80385,413 944.20444,411.55291 944,410 944.20444,408.44709 944.80385,407 945.75736,405.75736 947,404.80385 948.44709,404.20445 950,404 l 1.55291,0.20445"
       style="fill:none;stroke:#000000;stroke-width:0.1;stroke-linecap:round;stroke-linejoin:round;stroke-opacity:1" />
    <path
       id="path40"
       d="m 1953,804.80385 1.2426,0.95351 0.9536,1.24264 0.5994,1.44709 L 1956,810 l -0.2044,1.55291 -0.5994,1.44709 -0.9536,1.24264 -1.2426,0.95351 -1.4471,0.59941 L 1950,816 1948.4471,815.79556 1947,815.19615 1945.7574,814.24264 1944.8038,813 1944.2044,811.55291 1944,810 l 0.2044,-1.55291 0.5994,-1.44709 0.9536,-1.24264 1.2426,-0.95351 1.4471,-0.59941 L 1950,804 l 1.5529,0.20444 1.4471,0.59941"
       style="fill:none;stroke:#000000;stroke-width:0.1;stroke-linecap:round;stroke-linejoin:round;stroke-opacity:1" />
    <path
       id="path42"
       d="m 1553,604.80385 1.2426,0.95351 0.9536,1.24264 0.5994,1.44709 L 1556,610 l -0.2044,1.55291 -0.5994,1.44709 -0.9536,1.24264 -1.2426,0.95351 -1.4471,0.59941 L 1550,616 1548.4471,615.79556 1547,615.19615 1545.7574,614.24264 1544.8038,613 1544.2044,611.55291 1544,610 l 0.2044,-1.55291 0.5994,-1.44709 0.9536,-1.24264 1.2426,-0.95351 1.4471,-0.59941 L 1550,604 l 1.5529,0.20444 1.4471,0.59941"
       style="fill:none;stroke:#000000;stroke-width:0.1;stroke-linecap:round;stroke-linejoin:round;stroke-opacity:1" />
    <path
       id="path44"
       d="m 2353,1004.8038 1.2426,0.9536 0.9536,1.2426 0.5994,1.4471 0.2044,1.5529 -0.2044,1.5529 -0.5994,1.4471 -0.9536,1.2426 -1.2426,0.9536 -1.4471,0.5994 L 2350,1016 l -1.5529,-0.2044 -1.4471,-0.5994 -1.2426,-0.9536 -0.9536,-1.2426 -0.5994,-1.4471 L 2344,1010 l 0.2044,-1.5529 0.5994,-1.4471 0.9536,-1.2426 1.2426,-0.9536 1.4471,-0.5994 L 2350,1004 l 1.5529,0.2044 1.4471,0.5994"
       style="fill:none;stroke:#000000;stroke-width:0.1;stroke-linecap:round;stroke-linejoin:round;stroke-opacity:1" />
    <path
       id="path46"
       d="m 1151.5529,404.20445 1.4471,0.5994 1.2426,0.95351 0.9536,1.24264 0.5994,1.44709 L 1156,410 l -0.2044,1.55291 -0.5994,1.44709 -0.9536,1.24264 -1.2426,0.95351 -1.4471,0.5994 L 1150,416 l -1.5529,-0.20445 -1.4471,-0.5994 -1.2426,-0.95351 L 1144.8038,413 1144.2044,411.55291 1144,410 l 0.2044,-1.55291 0.5994,-1.44709 0.9536,-1.24264 1.2426,-0.95351 1.4471,-0.5994 L 1150,404 l 1.5529,0.20445"
       style="fill:none;stroke:#000000;stroke-width:0.1;stroke-linecap:round;stroke-linejoin:round;stroke-opacity:1" />
    <path
       id="path48"
       d="m 1753,604.80385 1.2426,0.95351 0.9536,1.24264 0.5994,1.44709 L 1756,610 l -0.2044,1.55291 -0.5994,1.44709 -0.9536,1.24264 -1.2426,0.95351 -1.4471,0.59941 L 1750,616 1748.4471,615.79556 1747,615.19615 1745.7574,614.24264 1744.8038,613 1744.2044,611.55291 1744,610 l 0.2044,-1.55291 0.5994,-1.44709 0.9536,-1.24264 1.2426,-0.95351 1.4471,-0.59941 L 1750,604 l 1.5529,0.20444 1.4471,0.59941"
       style="fill:none;stroke:#000000;stroke-width:0.1;stroke-linecap:round;stroke-linejoin:round;stroke-opacity:1" />
    <path
       id="path50"
       d="m 2153,804.80385 1.2426,0.95351 0.9536,1.24264 0.5994,1.44709 L 2156,810 l -0.2044,1.55291 -0.5994,1.44709 -0.9536,1.24264 -1.2426,0.95351 -1.4471,0.59941 L 2150,816 2148.4471,815.79556 2147,815.19615 2145.7574,814.24264 2144.8038,813 2144.2044,811.55291 2144,810 l 0.2044,-1.55291 0.5994,-1.44709 0.9536,-1.24264 1.2426,-0.95351 1.4471,-0.59941 L 2150,804 l 1.5529,0.20444 1.4471,0.59941"
       style="fill:none;stroke:#000000;stroke-width:0.1;stroke-linecap:round;stroke-linejoin:round;stroke-opacity:1" />
    <path
       id="path52"
       d="m 1353,404.80385 1.2426,0.95351 0.9536,1.24264 0.5994,1.44709 L 1356,410 l -0.2044,1.55291 -0.5994,1.44709 -0.9536,1.24264 -1.2426,0.95351 -1.4471,0.5994 L 1350,416 l -1.5529,-0.20445 -1.4471,-0.5994 -1.2426,-0.95351 L 1344.8038,413 1344.2044,411.55291 1344,410 l 0.2044,-1.55291 0.5994,-1.44709 0.9536,-1.24264 1.2426,-0.95351 1.4471,-0.5994 L 1350,404 l 1.5529,0.20445 1.4471,0.5994"
       style="fill:none;stroke:#000000;stroke-width:0.1;stroke-linecap:round;stroke-linejoin:round;stroke-opacity:1" />
    <path
       id="path54"
       d="m 951.55291,204.20444 1.44709,0.59941 1.24264,0.95351 0.95351,1.24264 0.59941,1.44709 L 956,210 955.79556,211.55291 955.19615,213 954.24264,214.24264 953,215.19615 951.55291,215.79555 950,216 948.44709,215.79555 947,215.19615 945.75736,214.24264 944.80385,213 944.20444,211.55291 944,210 944.20444,208.44709 944.80385,207 945.75736,205.75736 947,204.80385 948.44709,204.20444 950,204 l 1.55291,0.20444"
       style="fill:none;stroke:#000000;stroke-width:0.1;stroke-linecap:round;stroke-linejoin:round;stroke-opacity:1" />
    <path
       id="path56"
       d="m 1953,604.80385 1.2426,0.95351 0.9536,1.24264 0.5994,1.44709 L 1956,610 l -0.2044,1.55291 -0.5994,1.44709 -0.9536,1.24264 -1.2426,0.95351 -1.4471,0.59941 L 1950,616 1948.4471,615.79556 1947,615.19615 1945.7574,614.24264 1944.8038,613 1944.2044,611.55291 1944,610 l 0.2044,-1.55291 0.5994,-1.44709 0.9536,-1.24264 1.2426,-0.95351 1.4471,-0.59941 L 1950,604 l 1.5529,0.20444 1.4471,0.59941"
       style="fill:none;stroke:#000000;stroke-width:0.1;stroke-linecap:round;stroke-linejoin:round;stroke-opacity:1" />
    <path
       id="path58"
       d="m 1553,404.80385 1.2426,0.95351 0.9536,1.24264 0.5994,1.44709 L 1556,410 l -0.2044,1.55291 -0.5994,1.44709 -0.9536,1.24264 -1.2426,0.95351 -1.4471,0.5994 L 1550,416 l -1.5529,-0.20445 -1.4471,-0.5994 -1.2426,-0.95351 L 1544.8038,413 1544.2044,411.55291 1544,410 l 0.2044,-1.55291 0.5994,-1.44709 0.9536,-1.24264 1.2426,-0.95351 1.4471,-0.5994 L 1550,404 l 1.5529,0.20445 1.4471,0.5994"
       style="fill:none;stroke:#000000;stroke-width:0.1;stroke-linecap:round;stroke-linejoin:round;stroke-opacity:1" />
    <path
       id="path60"
       d="m 2353,804.80385 1.2426,0.95351 0.9536,1.24264 0.5994,1.44709 L 2356,810 l -0.2044,1.55291 -0.5994,1.44709 -0.9536,1.24264 -1.2426,0.95351 -1.4471,0.59941 L 2350,816 2348.4471,815.79556 2347,815.19615 2345.7574,814.24264 2344.8038,813 2344.2044,811.55291 2344,810 l 0.2044,-1.55291 0.5994,-1.44709 0.9536,-1.24264 1.2426,-0.95351 1.4471,-0.59941 L 2350,804 l 1.5529,0.20444 1.4471,0.59941"
       style="fill:none;stroke:#000000;stroke-width:0.1;stroke-linecap:round;stroke-linejoin:round;stroke-opacity:1" />
    <path
       id="path62"
       d="m 1151.5529,204.20444 1.4471,0.59941 1.2426,0.95351 0.9536,1.24264 0.5994,1.44709 L 1156,210 l -0.2044,1.55291 -0.5994,1.44709 -0.9536,1.24264 -1.2426,0.95351 -1.4471,0.5994 L 1150,216 l -1.5529,-0.20445 -1.4471,-0.5994 -1.2426,-0.95351 L 1144.8038,213 1144.2044,211.55291 1144,210 l 0.2044,-1.55291 0.5994,-1.44709 0.9536,-1.24264 1.2426,-0.95351 1.4471,-0.59941 L 1150,204 l 1.5529,0.20444"
       style="fill:none;stroke:#000000;stroke-width:0.1;stroke-linecap:round;stroke-linejoin:round;stroke-opacity:1" />
    <path
       id="path64"
       d="m 1753,404.80385 1.2426,0.95351 0.9536,1.24264 0.5994,1.44709 L 1756,410 l -0.2044,1.55291 -0.5994,1.44709 -0.9536,1.24264 -1.2426,0.95351 -1.4471,0.5994 L 1750,416 l -1.5529,-0.20445 -1.4471,-0.5994 -1.2426,-0.95351 L 1744.8038,413 1744.2044,411.55291 1744,410 l 0.2044,-1.55291 0.5994,-1.44709 0.9536,-1.24264 1.2426,-0.95351 1.4471,-0.5994 L 1750,404 l 1.5529,0.20445 1.4471,0.5994"
       style="fill:none;stroke:#000000;stroke-width:0.1;stroke-linecap:round;stroke-linejoin:round;stroke-opacity:1" />
    <path
       id="path66"
       d="m 2153,604.80385 1.2426,0.95351 0.9536,1.24264 0.5994,1.44709 L 2156,610 l -0.2044,1.55291 -0.5994,1.44709 -0.9536,1.24264 -1.2426,0.95351 -1.4471,0.59941 L 2150,616 2148.4471,615.79556 2147,615.19615 2145.7574,614.24264 2144.8038,613 2144.2044,611.55291 2144,610 l 0.2044,-1.55291 0.5994,-1.44709 0.9536,-1.24264 1.2426,-0.95351 1.4471,-0.59941 L 2150,604 l 1.5529,0.20444 1.4471,0.59941"
       style="fill:none;stroke:#000000;stroke-width:0.1;stroke-linecap:round;stroke-linejoin:round;stroke-opacity:1" />
    <path
       id="path68"
       d="m 1351.5529,204.20444 1.4471,0.59941 1.2426,0.95351 0.9536,1.24264 0.5994,1.44709 L 1356,210 l -0.2044,1.55291 -0.5994,1.44709 -0.9536,1.24264 -1.2426,0.95351 -1.4471,0.5994 L 1350,216 l -1.5529,-0.20445 -1.4471,-0.5994 -1.2426,-0.95351 L 1344.8038,213 1344.2044,211.55291 1344,210 l 0.2044,-1.55291 0.5994,-1.44709 0.9536,-1.24264 1.2426,-0.95351 1.4471,-0.59941 L 1350,204 l 1.5529,0.20444"
       style="fill:none;stroke:#000000;stroke-width:0.1;stroke-linecap:round;stroke-linejoin:round;stroke-opacity:1" />
    <path
       id="path70"
       d="m 1953,404.80385 1.2426,0.95351 0.9536,1.24264 0.5994,1.44709 L 1956,410 l -0.2044,1.55291 -0.5994,1.44709 -0.9536,1.24264 -1.2426,0.95351 -1.4471,0.5994 L 1950,416 l -1.5529,-0.20445 -1.4471,-0.5994 -1.2426,-0.95351 L 1944.8038,413 1944.2044,411.55291 1944,410 l 0.2044,-1.55291 0.5994,-1.44709 0.9536,-1.24264 1.2426,-0.95351 1.4471,-0.5994 L 1950,404 l 1.5529,0.20445 1.4471,0.5994"
       style="fill:none;stroke:#000000;stroke-width:0.1;stroke-linecap:round;stroke-linejoin:round;stroke-opacity:1" />
    <path
       id="path72"
       d="m 1553,204.80385 1.2426,0.95351 0.9536,1.24264 0.5994,1.44709 L 1556,210 l -0.2044,1.55291 -0.5994,1.44709 -0.9536,1.24264 -1.2426,0.95351 -1.4471,0.5994 L 1550,216 l -1.5529,-0.20445 -1.4471,-0.5994 -1.2426,-0.95351 L 1544.8038,213 1544.2044,211.55291 1544,210 l 0.2044,-1.55291 0.5994,-1.44709 0.9536,-1.24264 1.2426,-0.95351 1.4471,-0.59941 L 1550,204 l 1.5529,0.20444 1.4471,0.59941"
       style="fill:none;stroke:#000000;stroke-width:0.1;stroke-linecap:round;stroke-linejoin:round;stroke-opacity:1" />
    <path
       id="path74"
       d="m 2353,604.80385 1.2426,0.95351 0.9536,1.24264 0.5994,1.44709 L 2356,610 l -0.2044,1.55291 -0.5994,1.44709 -0.9536,1.24264 -1.2426,0.95351 -1.4471,0.59941 L 2350,616 2348.4471,615.79556 2347,615.19615 2345.7574,614.24264 2344.8038,613 2344.2044,611.55291 2344,610 l 0.2044,-1.55291 0.5994,-1.44709 0.9536,-1.24264 1.2426,-0.95351 1.4471,-0.59941 L 2350,604 l 1.5529,0.20444 1.4471,0.59941"
       style="fill:none;stroke:#000000;stroke-width:0.1;stroke-linecap:round;stroke-linejoin:round;stroke-opacity:1" />
    <path
       id="path76"
       d="m 2153,404.80385 1.2426,0.95351 0.9536,1.24264 0.5994,1.44709 L 2156,410 l -0.2044,1.55291 -0.5994,1.44709 -0.9536,1.24264 -1.2426,0.95351 -1.4471,0.5994 L 2150,416 l -1.5529,-0.20445 -1.4471,-0.5994 -1.2426,-0.95351 L 2144.8038,413 2144.2044,411.55291 2144,410 l 0.2044,-1.55291 0.5994,-1.44709 0.9536,-1.24264 1.2426,-0.95351 1.4471,-0.5994 L 2150,404 l 1.5529,0.20445 1.4471,0.5994"
       style="fill:none;stroke:#000000;stroke-width:0.1;stroke-linecap:round;stroke-linejoin:round;stroke-opacity:1" />
    <path
       id="path78"
       d="m 1753,204.80385 1.2426,0.95351 0.9536,1.24264 0.5994,1.44709 L 1756,210 l -0.2044,1.55291 -0.5994,1.44709 -0.9536,1.24264 -1.2426,0.95351 -1.4471,0.5994 L 1750,216 l -1.5529,-0.20445 -1.4471,-0.5994 -1.2426,-0.95351 L 1744.8038,213 1744.2044,211.55291 1744,210 l 0.2044,-1.55291 0.5994,-1.44709 0.9536,-1.24264 1.2426,-0.95351 1.4471,-0.59941 L 1750,204 l 1.5529,0.20444 1.4471,0.59941"
       style="fill:none;stroke:#000000;stroke-width:0.1;stroke-linecap:round;stroke-linejoin:round;stroke-opacity:1" />
    <path
       id="path80"
       d="m 1953,204.80385 1.2426,0.95351 0.9536,1.24264 0.5994,1.44709 L 1956,210 l -0.2044,1.55291 -0.5994,1.44709 -0.9536,1.24264 -1.2426,0.95351 -1.4471,0.5994 L 1950,216 l -1.5529,-0.20445 -1.4471,-0.5994 -1.2426,-0.95351 L 1944.8038,213 1944.2044,211.55291 1944,210 l 0.2044,-1.55291 0.5994,-1.44709 0.9536,-1.24264 1.2426,-0.95351 1.4471,-0.59941 L 1950,204 l 1.5529,0.20444 1.4471,0.59941"
       style="fill:none;stroke:#000000;stroke-width:0.1;stroke-linecap:round;stroke-linejoin:round;stroke-opacity:1" />
    <path
       id="path82"
       d="m 2353,404.80385 1.2426,0.95351 0.9536,1.24264 0.5994,1.44709 L 2356,410 l -0.2044,1.55291 -0.5994,1.44709 -0.9536,1.24264 -1.2426,0.95351 -1.4471,0.5994 L 2350,416 l -1.5529,-0.20445 -1.4471,-0.5994 -1.2426,-0.95351 L 2344.8038,413 2344.2044,411.55291 2344,410 l 0.2044,-1.55291 0.5994,-1.44709 0.9536,-1.24264 1.2426,-0.95351 1.4471,-0.5994 L 2350,404 l 1.5529,0.20445 1.4471,0.5994"
       style="fill:none;stroke:#000000;stroke-width:0.1;stroke-linecap:round;stroke-linejoin:round;stroke-opacity:1" />
    <path
       id="path84"
       d="m 2153,204.80385 1.2426,0.95351 0.9536,1.24264 0.5994,1.44709 L 2156,210 l -0.2044,1.55291 -0.5994,1.44709 -0.9536,1.24264 -1.2426,0.95351 -1.4471,0.5994 L 2150,216 l -1.5529,-0.20445 -1.4471,-0.5994 -1.2426,-0.95351 L 2144.8038,213 2144.2044,211.55291 2144,210 l 0.2044,-1.55291 0.5994,-1.44709 0.9536,-1.24264 1.2426,-0.95351 1.4471,-0.59941 L 2150,204 l 1.5529,0.20444 1.4471,0.59941"
       style="fill:none;stroke:#000000;stroke-width:0.1;stroke-linecap:round;stroke-linejoin:round;stroke-opacity:1" />
    <path
       id="path86"
       d="m 2353,204.80385 1.2426,0.95351 0.9536,1.24264 0.5994,1.44709 L 2356,210 l -0.2044,1.55291 -0.5994,1.44709 -0.9536,1.24264 -1.2426,0.95351 -1.4471,0.5994 L 2350,216 l -1.5529,-0.20445 -1.4471,-0.5994 -1.2426,-0.95351 L 2344.8038,213 2344.2044,211.55291 2344,210 l 0.2044,-1.55291 0.5994,-1.44709 0.9536,-1.24264 1.2426,-0.95351 1.4471,-0.59941 L 2350,204 l 1.5529,0.20444 1.4471,0.59941"
       style="fill:none;stroke:#000000;stroke-width:0.1;stroke-linecap:round;stroke-linejoin:round;stroke-opacity:1" />
    <path
       id="path104"
       d="m 2332.7542,34.156428 -0.3263,-0.218016 -0.295,-0.25874 -0.2587,-0.295036 -0.2181,-0.326284 -0.1735,-0.35195 -0.1262,-0.371593 -0.077,-0.384879 -0.026,-0.391578 0.026,-0.391579 0.077,-0.384878 0.1262,-0.371594 0.1735,-0.351949 0.2181,-0.326285 0.2587,-0.295036 0.295,-0.258739 0.3263,-0.218016 0.352,-0.173563 0.3716,-0.126139 0.3848,-0.07656 0.3916,-0.02567 0.3916,0.02567 0.3849,0.07656 0.3716,0.126139 0.3519,0.173563 0.3263,0.218016 0.295,0.258739 0.2588,0.295036 0.218,0.326285 0.1736,0.351949 0.1261,0.371594 0.077,0.384878 0.026,0.391579 -0.026,0.391578 -0.077,0.384879 -0.1261,0.371593 -0.1736,0.35195 -0.218,0.326284 -0.2588,0.295036 -0.295,0.25874 -0.3263,0.218016 -0.3519,0.173562 -0.3716,0.126139 -0.3849,0.07656 -0.3916,0.02567 -0.3916,-0.02567 -0.3848,-0.07656 -0.3716,-0.126139 -0.352,-0.173562"
       style="fill:none;stroke:#000000;stroke-width:0.1;stroke-linecap:round;stroke-linejoin:round;stroke-opacity:1" />
    <path
       id="path106"
       d="m 2277.7542,34.156428 -0.3263,-0.218016 -0.295,-0.25874 -0.2587,-0.295036 -0.2181,-0.326284 -0.1735,-0.35195 -0.1262,-0.371593 -0.077,-0.384879 -0.026,-0.391578 0.026,-0.391579 0.077,-0.384878 0.1262,-0.371594 0.1735,-0.351949 0.2181,-0.326285 0.2587,-0.295036 0.295,-0.258739 0.3263,-0.218016 0.352,-0.173563 0.3716,-0.126139 0.3848,-0.07656 0.3916,-0.02567 0.3916,0.02567 0.3849,0.07656 0.3716,0.126139 0.3519,0.173563 0.3263,0.218016 0.295,0.258739 0.2588,0.295036 0.218,0.326285 0.1736,0.351949 0.1261,0.371594 0.077,0.384878 0.026,0.391579 -0.026,0.391578 -0.077,0.384879 -0.1261,0.371593 -0.1736,0.35195 -0.218,0.326284 -0.2588,0.295036 -0.295,0.25874 -0.3263,0.218016 -0.3519,0.173562 -0.3716,0.126139 -0.3849,0.07656 -0.3916,0.02567 -0.3916,-0.02567 -0.3848,-0.07656 -0.3716,-0.126139 -0.352,-0.173562"
       style="fill:none;stroke:#000000;stroke-width:0.1;stroke-linecap:round;stroke-linejoin:round;stroke-opacity:1" />
    <path
       id="path108"
       d="m 2332.7542,75.156428 -0.3263,-0.218016 -0.295,-0.25874 -0.2587,-0.295036 -0.2181,-0.326284 -0.1735,-0.35195 -0.1262,-0.371593 -0.077,-0.384879 -0.026,-0.391578 0.026,-0.391579 0.077,-0.384878 0.1262,-0.371594 0.1735,-0.351949 0.2181,-0.326285 0.2587,-0.295036 0.295,-0.258739 0.3263,-0.218016 0.352,-0.173563 0.3716,-0.126139 0.3848,-0.07656 0.3916,-0.02567 0.3916,0.02567 0.3849,0.07656 0.3716,0.126139 0.3519,0.173563 0.3263,0.218016 0.295,0.258739 0.2588,0.295036 0.218,0.326285 0.1736,0.351949 0.1261,0.371594 0.077,0.384878 0.026,0.391579 -0.026,0.391578 -0.077,0.384879 -0.1261,0.371593 -0.1736,0.35195 -0.218,0.326284 -0.2588,0.295036 -0.295,0.25874 -0.3263,0.218016 -0.3519,0.173562 -0.3716,0.126139 -0.3849,0.07656 -0.3916,0.02567 -0.3916,-0.02567 -0.3848,-0.07656 -0.3716,-0.126139 -0.352,-0.173562"
       style="fill:none;stroke:#000000;stroke-width:0.1;stroke-linecap:round;stroke-linejoin:round;stroke-opacity:1" />
    <path
       id="path110"
       d="m 2277.7542,75.156428 -0.3263,-0.218016 -0.295,-0.25874 -0.2587,-0.295036 -0.2181,-0.326284 -0.1735,-0.35195 -0.1262,-0.371593 -0.077,-0.384879 -0.026,-0.391578 0.026,-0.391579 0.077,-0.384878 0.1262,-0.371594 0.1735,-0.351949 0.2181,-0.326285 0.2587,-0.295036 0.295,-0.258739 0.3263,-0.218016 0.352,-0.173563 0.3716,-0.126139 0.3848,-0.07656 0.3916,-0.02567 0.3916,0.02567 0.3849,0.07656 0.3716,0.126139 0.3519,0.173563 0.3263,0.218016 0.295,0.258739 0.2588,0.295036 0.218,0.326285 0.1736,0.351949 0.1261,0.371594 0.077,0.384878 0.026,0.391579 -0.026,0.391578 -0.077,0.384879 -0.1261,0.371593 -0.1736,0.35195 -0.218,0.326284 -0.2588,0.295036 -0.295,0.25874 -0.3263,0.218016 -0.3519,0.173562 -0.3716,0.126139 -0.3849,0.07656 -0.3916,0.02567 -0.3916,-0.02567 -0.3848,-0.07656 -0.3716,-0.126139 -0.352,-0.173562"
       style="fill:none;stroke:#000000;stroke-width:0.1;stroke-linecap:round;stroke-linejoin:round;stroke-opacity:1" />
    <path
       id="path112"
       d="m 1825.3542,34.156428 -0.3263,-0.218016 -0.295,-0.25874 -0.2587,-0.295036 -0.2181,-0.326284 -0.1735,-0.35195 -0.1262,-0.371593 -0.077,-0.384879 -0.026,-0.391578 0.026,-0.391579 0.077,-0.384878 0.1262,-0.371594 0.1735,-0.351949 0.2181,-0.326285 0.2587,-0.295036 0.295,-0.258739 0.3263,-0.218016 0.352,-0.173563 0.3716,-0.126139 0.3848,-0.07656 0.3916,-0.02567 0.3916,0.02567 0.3849,0.07656 0.3716,0.126139 0.3519,0.173563 0.3263,0.218016 0.295,0.258739 0.2588,0.295036 0.218,0.326285 0.1736,0.351949 0.1261,0.371594 0.077,0.384878 0.026,0.391579 -0.026,0.391578 -0.077,0.384879 -0.1261,0.371593 -0.1736,0.35195 -0.218,0.326284 -0.2588,0.295036 -0.295,0.25874 -0.3263,0.218016 -0.3519,0.173562 -0.3716,0.126139 -0.3849,0.07656 -0.3916,0.02567 -0.3916,-0.02567 -0.3848,-0.07656 -0.3716,-0.126139 -0.352,-0.173562"
       style="fill:none;stroke:#000000;stroke-width:0.1;stroke-linecap:round;stroke-linejoin:round;stroke-opacity:1" />
    <path
       id="path114"
       d="m 1770.3542,34.156428 -0.3263,-0.218016 -0.295,-0.25874 -0.2587,-0.295036 -0.2181,-0.326284 -0.1735,-0.35195 -0.1262,-0.371593 -0.077,-0.384879 -0.026,-0.391578 0.026,-0.391579 0.077,-0.384878 0.1262,-0.371594 0.1735,-0.351949 0.2181,-0.326285 0.2587,-0.295036 0.295,-0.258739 0.3263,-0.218016 0.352,-0.173563 0.3716,-0.126139 0.3848,-0.07656 0.3916,-0.02567 0.3916,0.02567 0.3849,0.07656 0.3716,0.126139 0.3519,0.173563 0.3263,0.218016 0.295,0.258739 0.2588,0.295036 0.218,0.326285 0.1736,0.351949 0.1261,0.371594 0.077,0.384878 0.026,0.391579 -0.026,0.391578 -0.077,0.384879 -0.1261,0.371593 -0.1736,0.35195 -0.218,0.326284 -0.2588,0.295036 -0.295,0.25874 -0.3263,0.218016 -0.3519,0.173562 -0.3716,0.126139 -0.3849,0.07656 -0.3916,0.02567 -0.3916,-0.02567 -0.3848,-0.07656 -0.3716,-0.126139 -0.352,-0.173562"
       style="fill:none;stroke:#000000;stroke-width:0.1;stroke-linecap:round;stroke-linejoin:round;stroke-opacity:1" />
    <path
       id="path116"
       d="m 1825.3542,75.156428 -0.3263,-0.218016 -0.295,-0.25874 -0.2587,-0.295036 -0.2181,-0.326284 -0.1735,-0.35195 -0.1262,-0.371593 -0.077,-0.384879 -0.026,-0.391578 0.026,-0.391579 0.077,-0.384878 0.1262,-0.371594 0.1735,-0.351949 0.2181,-0.326285 0.2587,-0.295036 0.295,-0.258739 0.3263,-0.218016 0.352,-0.173563 0.3716,-0.126139 0.3848,-0.07656 0.3916,-0.02567 0.3916,0.02567 0.3849,0.07656 0.3716,0.126139 0.3519,0.173563 0.3263,0.218016 0.295,0.258739 0.2588,0.295036 0.218,0.326285 0.1736,0.351949 0.1261,0.371594 0.077,0.384878 0.026,0.391579 -0.026,0.391578 -0.077,0.384879 -0.1261,0.371593 -0.1736,0.35195 -0.218,0.326284 -0.2588,0.295036 -0.295,0.25874 -0.3263,0.218016 -0.3519,0.173562 -0.3716,0.126139 -0.3849,0.07656 -0.3916,0.02567 -0.3916,-0.02567 -0.3848,-0.07656 -0.3716,-0.126139 -0.352,-0.173562"
       style="fill:none;stroke:#000000;stroke-width:0.1;stroke-linecap:round;stroke-linejoin:round;stroke-opacity:1" />
    <path
       id="path118"
       d="m 1770.3542,75.156428 -0.3263,-0.218016 -0.295,-0.25874 -0.2587,-0.295036 -0.2181,-0.326284 -0.1735,-0.35195 -0.1262,-0.371593 -0.077,-0.384879 -0.026,-0.391578 0.026,-0.391579 0.077,-0.384878 0.1262,-0.371594 0.1735,-0.351949 0.2181,-0.326285 0.2587,-0.295036 0.295,-0.258739 0.3263,-0.218016 0.352,-0.173563 0.3716,-0.126139 0.3848,-0.07656 0.3916,-0.02567 0.3916,0.02567 0.3849,0.07656 0.3716,0.126139 0.3519,0.173563 0.3263,0.218016 0.295,0.258739 0.2588,0.295036 0.218,0.326285 0.1736,0.351949 0.1261,0.371594 0.077,0.384878 0.026,0.391579 -0.026,0.391578 -0.077,0.384879 -0.1261,0.371593 -0.1736,0.35195 -0.218,0.326284 -0.2588,0.295036 -0.295,0.25874 -0.3263,0.218016 -0.3519,0.173562 -0.3716,0.126139 -0.3849,0.07656 -0.3916,0.02567 -0.3916,-0.02567 -0.3848,-0.07656 -0.3716,-0.126139 -0.352,-0.173562"
       style="fill:none;stroke:#000000;stroke-width:0.1;stroke-linecap:round;stroke-linejoin:round;stroke-opacity:1" />
    <path
       id="path126"
       d="m 2268.0546,43.05835 v 18.000001 a 4.01,4.01 0 0 1 -8.02,0 h -69.96 a 4.01,4.01 0 0 1 -8.02,0 V 43.05835 a 4.01,4.01 0 0 1 8.02,0 h 69.96 a 4.01,4.01 0 0 1 8.02,0"
       style="fill:none;stroke:#000000;stroke-width:0.1;stroke-linecap:round;stroke-linejoin:round;stroke-opacity:1" />
    <path
       id="path128"
       d="m 2096.0546,43.058348 v 18.000001 a 4.01,4.01 0 0 1 -8.02,0 h -69.96 a 4.01,4.01 0 0 1 -8.02,0 V 43.058348 a 4.01,4.01 0 0 1 8.02,0 h 69.96 a 4.01,4.01 0 0 1 8.02,0"
       style="fill:none;stroke:#000000;stroke-width:0.1;stroke-linecap:round;stroke-linejoin:round;stroke-opacity:1" />
    <path
       id="path130"
       d="m 1924.0546,43.058346 v 18.000001 a 4.01,4.01 0 0 1 -8.02,0 h -69.96 a 4.01,4.01 0 0 1 -8.02,0 V 43.058346 a 4.01,4.01 0 0 1 8.02,0 h 69.96 a 4.01,4.01 0 0 1 8.02,0"
       style="fill:none;stroke:#000000;stroke-width:0.1;stroke-linecap:round;stroke-linejoin:round;stroke-opacity:1" />
    <path
       id="path132"
       d="m 1597.9886,34.156428 -0.3263,-0.218016 -0.295,-0.25874 -0.2588,-0.295036 -0.218,-0.326284 -0.1735,-0.35195 -0.1262,-0.371593 -0.076,-0.384879 -0.026,-0.391578 0.026,-0.391579 0.076,-0.384878 0.1262,-0.371594 0.1735,-0.351949 0.218,-0.326285 0.2588,-0.295036 0.295,-0.258739 0.3263,-0.218016 0.3519,-0.173563 0.3716,-0.126139 0.3849,-0.07656 0.3916,-0.02567 0.3916,0.02567 0.3849,0.07656 0.3715,0.126139 0.352,0.173563 0.3263,0.218016 0.295,0.258739 0.2588,0.295036 0.218,0.326285 0.1735,0.351949 0.1262,0.371594 0.076,0.384878 0.026,0.391579 -0.026,0.391578 -0.076,0.384879 -0.1262,0.371593 -0.1735,0.35195 -0.218,0.326284 -0.2588,0.295036 -0.295,0.25874 -0.3263,0.218016 -0.352,0.173562 -0.3715,0.126139 -0.3849,0.07656 -0.3916,0.02567 -0.3916,-0.02567 -0.3849,-0.07656 -0.3716,-0.126139 -0.3519,-0.173562"
       style="fill:none;stroke:#000000;stroke-width:0.1;stroke-linecap:round;stroke-linejoin:round;stroke-opacity:1" />
    <path
       id="path134"
       d="m 1542.9886,34.156428 -0.3263,-0.218016 -0.295,-0.25874 -0.2588,-0.295036 -0.218,-0.326284 -0.1735,-0.35195 -0.1262,-0.371593 -0.076,-0.384879 -0.026,-0.391578 0.026,-0.391579 0.076,-0.384878 0.1262,-0.371594 0.1735,-0.351949 0.218,-0.326285 0.2588,-0.295036 0.295,-0.258739 0.3263,-0.218016 0.3519,-0.173563 0.3716,-0.126139 0.3849,-0.07656 0.3916,-0.02567 0.3916,0.02567 0.3849,0.07656 0.3715,0.126139 0.352,0.173563 0.3263,0.218016 0.295,0.258739 0.2588,0.295036 0.218,0.326285 0.1735,0.351949 0.1262,0.371594 0.076,0.384878 0.026,0.391579 -0.026,0.391578 -0.076,0.384879 -0.1262,0.371593 -0.1735,0.35195 -0.218,0.326284 -0.2588,0.295036 -0.295,0.25874 -0.3263,0.218016 -0.352,0.173562 -0.3715,0.126139 -0.3849,0.07656 -0.3916,0.02567 -0.3916,-0.02567 -0.3849,-0.07656 -0.3716,-0.126139 -0.3519,-0.173562"
       style="fill:none;stroke:#000000;stroke-width:0.1;stroke-linecap:round;stroke-linejoin:round;stroke-opacity:1" />
    <path
       id="path136"
       d="m 1597.9886,75.156428 -0.3263,-0.218016 -0.295,-0.25874 -0.2588,-0.295036 -0.218,-0.326284 -0.1735,-0.35195 -0.1262,-0.371593 -0.076,-0.384879 -0.026,-0.391578 0.026,-0.391579 0.076,-0.384878 0.1262,-0.371594 0.1735,-0.351949 0.218,-0.326285 0.2588,-0.295036 0.295,-0.258739 0.3263,-0.218016 0.3519,-0.173563 0.3716,-0.126139 0.3849,-0.07656 0.3916,-0.02567 0.3916,0.02567 0.3849,0.07656 0.3715,0.126139 0.352,0.173563 0.3263,0.218016 0.295,0.258739 0.2588,0.295036 0.218,0.326285 0.1735,0.351949 0.1262,0.371594 0.076,0.384878 0.026,0.391579 -0.026,0.391578 -0.076,0.384879 -0.1262,0.371593 -0.1735,0.35195 -0.218,0.326284 -0.2588,0.295036 -0.295,0.25874 -0.3263,0.218016 -0.352,0.173562 -0.3715,0.126139 -0.3849,0.07656 -0.3916,0.02567 -0.3916,-0.02567 -0.3849,-0.07656 -0.3716,-0.126139 -0.3519,-0.173562"
       style="fill:none;stroke:#000000;stroke-width:0.1;stroke-linecap:round;stroke-linejoin:round;stroke-opacity:1" />
    <path
       id="path138"
       d="m 1542.9886,75.156428 -0.3263,-0.218016 -0.295,-0.25874 -0.2588,-0.295036 -0.218,-0.326284 -0.1735,-0.35195 -0.1262,-0.371593 -0.076,-0.384879 -0.026,-0.391578 0.026,-0.391579 0.076,-0.384878 0.1262,-0.371594 0.1735,-0.351949 0.218,-0.326285 0.2588,-0.295036 0.295,-0.258739 0.3263,-0.218016 0.3519,-0.173563 0.3716,-0.126139 0.3849,-0.07656 0.3916,-0.02567 0.3916,0.02567 0.3849,0.07656 0.3715,0.126139 0.352,0.173563 0.3263,0.218016 0.295,0.258739 0.2588,0.295036 0.218,0.326285 0.1735,0.351949 0.1262,0.371594 0.076,0.384878 0.026,0.391579 -0.026,0.391578 -0.076,0.384879 -0.1262,0.371593 -0.1735,0.35195 -0.218,0.326284 -0.2588,0.295036 -0.295,0.25874 -0.3263,0.218016 -0.352,0.173562 -0.3715,0.126139 -0.3849,0.07656 -0.3916,0.02567 -0.3916,-0.02567 -0.3849,-0.07656 -0.3716,-0.126139 -0.3519,-0.173562"
       style="fill:none;stroke:#000000;stroke-width:0.1;stroke-linecap:round;stroke-linejoin:round;stroke-opacity:1" />
    <path
       id="path140"
       d="m 1090.5886,34.156428 -0.3263,-0.218016 -0.295,-0.25874 -0.2588,-0.295036 -0.218,-0.326284 -0.1735,-0.35195 -0.1262,-0.371593 -0.077,-0.384879 -0.026,-0.391578 0.026,-0.391579 0.077,-0.384878 0.1262,-0.371594 0.1735,-0.351949 0.218,-0.326285 0.2588,-0.295036 0.295,-0.258739 0.3263,-0.218016 0.3519,-0.173563 0.3716,-0.126139 0.3849,-0.07656 0.3916,-0.02567 0.3916,0.02567 0.3849,0.07656 0.3715,0.126139 0.352,0.173563 0.3263,0.218016 0.295,0.258739 0.2588,0.295036 0.218,0.326285 0.1735,0.351949 0.1262,0.371594 0.076,0.384878 0.026,0.391579 -0.026,0.391578 -0.076,0.384879 -0.1262,0.371593 -0.1735,0.35195 -0.218,0.326284 -0.2588,0.295036 -0.295,0.25874 -0.3263,0.218016 -0.352,0.173562 -0.3715,0.126139 -0.3849,0.07656 -0.3916,0.02567 -0.3916,-0.02567 -0.3849,-0.07656 -0.3716,-0.126139 -0.3519,-0.173562"
       style="fill:none;stroke:#000000;stroke-width:0.1;stroke-linecap:round;stroke-linejoin:round;stroke-opacity:1" />
    <path
       id="path142"
       d="m 1035.5886,34.156428 -0.3263,-0.218016 -0.295,-0.25874 -0.2588,-0.295036 -0.218,-0.326284 -0.1735,-0.35195 -0.1262,-0.371593 -0.077,-0.384879 -0.026,-0.391578 0.026,-0.391579 0.077,-0.384878 0.1262,-0.371594 0.1735,-0.351949 0.218,-0.326285 0.2588,-0.295036 0.295,-0.258739 0.3263,-0.218016 0.3519,-0.173563 0.3716,-0.126139 0.3849,-0.07656 0.3916,-0.02567 0.3916,0.02567 0.3849,0.07656 0.3715,0.126139 0.352,0.173563 0.3263,0.218016 0.295,0.258739 0.2588,0.295036 0.218,0.326285 0.1735,0.351949 0.1262,0.371594 0.076,0.384878 0.026,0.391579 -0.026,0.391578 -0.076,0.384879 -0.1262,0.371593 -0.1735,0.35195 -0.218,0.326284 -0.2588,0.295036 -0.295,0.25874 -0.3263,0.218016 -0.352,0.173562 -0.3715,0.126139 -0.3849,0.07656 -0.3916,0.02567 -0.3916,-0.02567 -0.3849,-0.07656 -0.3716,-0.126139 -0.3519,-0.173562"
       style="fill:none;stroke:#000000;stroke-width:0.1;stroke-linecap:round;stroke-linejoin:round;stroke-opacity:1" />
    <path
       id="path144"
       d="m 1090.5886,75.156428 -0.3263,-0.218016 -0.295,-0.25874 -0.2588,-0.295036 -0.218,-0.326284 -0.1735,-0.35195 -0.1262,-0.371593 -0.077,-0.384879 -0.026,-0.391578 0.026,-0.391579 0.077,-0.384878 0.1262,-0.371594 0.1735,-0.351949 0.218,-0.326285 0.2588,-0.295036 0.295,-0.258739 0.3263,-0.218016 0.3519,-0.173563 0.3716,-0.126139 0.3849,-0.07656 0.3916,-0.02567 0.3916,0.02567 0.3849,0.07656 0.3715,0.126139 0.352,0.173563 0.3263,0.218016 0.295,0.258739 0.2588,0.295036 0.218,0.326285 0.1735,0.351949 0.1262,0.371594 0.076,0.384878 0.026,0.391579 -0.026,0.391578 -0.076,0.384879 -0.1262,0.371593 -0.1735,0.35195 -0.218,0.326284 -0.2588,0.295036 -0.295,0.25874 -0.3263,0.218016 -0.352,0.173562 -0.3715,0.126139 -0.3849,0.07656 -0.3916,0.02567 -0.3916,-0.02567 -0.3849,-0.07656 -0.3716,-0.126139 -0.3519,-0.173562"
       style="fill:none;stroke:#000000;stroke-width:0.1;stroke-linecap:round;stroke-linejoin:round;stroke-opacity:1" />
    <path
       id="path146"
       d="m 1035.5886,75.156428 -0.3263,-0.218016 -0.295,-0.25874 -0.2588,-0.295036 -0.218,-0.326284 -0.1735,-0.35195 -0.1262,-0.371593 -0.077,-0.384879 -0.026,-0.391578 0.026,-0.391579 0.077,-0.384878 0.1262,-0.371594 0.1735,-0.351949 0.218,-0.326285 0.2588,-0.295036 0.295,-0.258739 0.3263,-0.218016 0.3519,-0.173563 0.3716,-0.126139 0.3849,-0.07656 0.3916,-0.02567 0.3916,0.02567 0.3849,0.07656 0.3715,0.126139 0.352,0.173563 0.3263,0.218016 0.295,0.258739 0.2588,0.295036 0.218,0.326285 0.1735,0.351949 0.1262,0.371594 0.076,0.384878 0.026,0.391579 -0.026,0.391578 -0.076,0.384879 -0.1262,0.371593 -0.1735,0.35195 -0.218,0.326284 -0.2588,0.295036 -0.295,0.25874 -0.3263,0.218016 -0.352,0.173562 -0.3715,0.126139 -0.3849,0.07656 -0.3916,0.02567 -0.3916,-0.02567 -0.3849,-0.07656 -0.3716,-0.126139 -0.3519,-0.173562"
       style="fill:none;stroke:#000000;stroke-width:0.1;stroke-linecap:round;stroke-linejoin:round;stroke-opacity:1" />
    <path
       id="path148"
       d="m 1533.289,43.05835 v 18.000001 a 4.01,4.01 0 0 1 -8.02,0 h -69.96 a 4.01,4.01 0 0 1 -8.02,0 V 43.05835 a 4.01,4.01 0 0 1 8.02,0 h 69.96 a 4.01,4.01 0 0 1 8.02,0"
       style="fill:none;stroke:#000000;stroke-width:0.1;stroke-linecap:round;stroke-linejoin:round;stroke-opacity:1" />
    <path
       id="path150"
       d="m 1361.289,43.058348 v 18.000001 a 4.01,4.01 0 0 1 -8.02,0 h -69.96 a 4.01,4.01 0 0 1 -8.02,0 V 43.058348 a 4.01,4.01 0 0 1 8.02,0 h 69.96 a 4.01,4.01 0 0 1 8.02,0"
       style="fill:none;stroke:#000000;stroke-width:0.1;stroke-linecap:round;stroke-linejoin:round;stroke-opacity:1" />
    <path
       id="path152"
       d="m 1189.289,43.058346 v 18.000001 a 4.01,4.01 0 0 1 -8.02,0 h -69.96 a 4.01,4.01 0 0 1 -8.02,0 V 43.058346 a 4.01,4.01 0 0 1 8.02,0 h 69.96 a 4.01,4.01 0 0 1 8.02,0"
       style="fill:none;stroke:#000000;stroke-width:0.1;stroke-linecap:round;stroke-linejoin:round;stroke-opacity:1" />
  </g>
  <g
     style="display:inline"
     inkscape:label="Contours EXT 18mm"
     id="b2b40705-9403-4f29-98af-07261e56b936"
     inkscape:groupmode="layer">
    <path
       id="path177"
       d="m 1756.0546,91.254504 1.4471,0.599403 1.5529,0.204445 h 588 l 1.5529,-0.204445 1.4471,-0.599403 1.2426,-0.953512 0.9535,-1.24264 0.5995,-1.447086 0.2044,-1.552914 v -68 l -0.2044,-1.552915 -0.5995,-1.447085 -0.9535,-1.242641 -1.2426,-0.953512 -1.4471,-0.599402 -1.5529,-0.204445 h -588 l -1.5529,0.204445 -1.4471,0.599402 -1.2426,0.953512 -0.9536,1.242641 -0.5994,1.447085 -0.2044,1.552915 v 68 l 0.2044,1.552914 0.5994,1.447086 0.9536,1.24264 1.2426,0.953512"
       style="fill:none;stroke:#000000;stroke-width:0.1;stroke-linecap:round;stroke-linejoin:round;stroke-opacity:1" />
    <path
       id="path179"
       d="M 2446,110 H 854 a 4,4 0 0 0 -4,4 v 992 a 4,4 0 0 0 4,4 h 1592 a 4,4 0 0 0 4,-4 V 114 a 4,4 0 0 0 -4,-4"
       style="fill:none;stroke:#000000;stroke-width:0.1;stroke-linecap:round;stroke-linejoin:round;stroke-opacity:1" />
    <path
       id="path183"
       d="m 730.33803,205.6441 h 9.98 a 4.01,4.01 0 0 0 8.02,0 l -10e-6,-9 h 60 l 10e-6,9 a 4.01,4.01 0 0 0 8.02,0 h 9.98 v 9 l -16.82843,16.82843 a 4,4 0 0 0 -1.17157,2.82843 l -10e-6,924.68624 a 4,4 0 0 0 1.17158,2.8285 l 16.82842,16.8284 v 9 h -9.98 a 4.01,4.01 0 0 0 -8.02,0 v 9 h -60 v -9 a 4.01,4.01 0 0 0 -8.02,0 h -9.98 v -9 l 16.82843,-16.8284 a 4,4 0 0 0 1.17157,-2.8285 V 234.30095 a 4,4 0 0 0 -1.17157,-2.82842 L 730.33803,214.6441 v -9"
       style="fill:none;stroke:#000000;stroke-width:0.1;stroke-linecap:round;stroke-linejoin:round;stroke-opacity:1" />
    <path
       id="path185"
       d="m 428.20922,183.03524 h -54 l -41.99999,818.54416 -189,116.4558 v 18 h 34.98 a 4.01,4.01 0 0 1 8.02,0 v 18 h 86 v -18 a 4.010005,4.010005 0 0 1 8.02001,0 h 69.95999 a 4.01,4.01 0 0 1 8.02,0 v 18 h 86 v -18 a 4.010005,4.010005 0 0 1 8.02001,0 h 69.96 a 4.01,4.01 0 0 1 8.02,0 v 18 h 86 v -18 a 4.01,4.01 0 0 1 8.02,0 h 34.98 l -10e-6,-18 -189,-116.4558 -42.00001,-818.54416"
       style="fill:none;stroke:#000000;stroke-width:0.1;stroke-linecap:round;stroke-linejoin:round;stroke-opacity:1" />
    <path
       id="path187"
       d="m 873.9275,45.841249 -34.98,1e-6 a 4.01,4.01 0 0 1 -8.02,0 v -18 l -86,1e-6 v 18 a 4.01,4.01 0 0 1 -8.02,0 l -69.96,10e-7 a 4.01,4.01 0 0 1 -8.02,1e-6 v -18 l -86,1e-6 v 18 a 4.01,4.01 0 0 1 -8.02,0 l -69.96,10e-7 a 4.01,4.01 0 0 1 -8.02,0 v -18 l -86,1e-6 v 18 a 4.01,4.01 0 0 1 -8.02,10e-7 h -34.98 v 18 l 189,116.455843 42.00001,818.54415 h 54 l 41.99999,-818.54415 189,-116.455851 v -18"
       style="fill:none;stroke:#000000;stroke-width:0.1;stroke-linecap:round;stroke-linejoin:round;stroke-opacity:1" />
    <path
       id="path189"
       d="m 1021.289,91.254504 1.4471,0.599403 1.5529,0.204445 h 588 l 1.5529,-0.204445 1.4471,-0.599403 1.2426,-0.953512 0.9535,-1.24264 0.5994,-1.447086 0.2045,-1.552914 v -68 l -0.2045,-1.552915 -0.5994,-1.447085 -0.9535,-1.242641 -1.2426,-0.953512 -1.4471,-0.599402 -1.5529,-0.204445 h -588 l -1.5529,0.204445 -1.4471,0.599402 -1.2427,0.953512 -0.9535,1.242641 -0.5994,1.447085 -0.2044,1.552915 v 68 l 0.2044,1.552914 0.5994,1.447086 0.9535,1.24264 1.2427,0.953512"
       style="fill:none;stroke:#000000;stroke-width:0.1;stroke-linecap:round;stroke-linejoin:round;stroke-opacity:1" />
  </g>
  <g
     style="display:inline"
     inkscape:label="Brut"
     id="c480e819-3b08-49d7-b519-95aa86342b91"
     inkscape:groupmode="layer">
    <path
       id="path194"
       d="M 2500,1220 V 0 H 0 v 1220 h 2500"
       style="fill:none;stroke:#000000;stroke-width:0.1;stroke-linecap:round;stroke-linejoin:round;stroke-opacity:1" />
  </g>
</svg>
