<?xml version="1.0" encoding="UTF-8" standalone="no"?>
<!-- Created with Inkscape (http://www.inkscape.org/) -->

<svg
   xmlns:dc="http://purl.org/dc/elements/1.1/"
   xmlns:cc="http://creativecommons.org/ns#"
   xmlns:rdf="http://www.w3.org/1999/02/22-rdf-syntax-ns#"
   xmlns:svg="http://www.w3.org/2000/svg"
   xmlns="http://www.w3.org/2000/svg"
   xmlns:sodipodi="http://sodipodi.sourceforge.net/DTD/sodipodi-0.dtd"
   xmlns:inkscape="http://www.inkscape.org/namespaces/inkscape"
   width="1000mm"
   height="600mm"
   viewBox="0 0 1000 600"
   version="1.1"
   id="svg8"
   inkscape:version="0.92.2 (5c3e80d, 2017-08-06)"
   sodipodi:docname="disque adaptateur culot.svg">
  <defs
     id="defs2" />
  <sodipodi:namedview
     id="base"
     pagecolor="#ffffff"
     bordercolor="#666666"
     borderopacity="1.0"
     inkscape:pageopacity="0.0"
     inkscape:pageshadow="2"
     inkscape:zoom="0.44099809"
     inkscape:cx="1510.9185"
     inkscape:cy="1421.6288"
     inkscape:document-units="mm"
     inkscape:current-layer="layer1"
     showgrid="false"
     inkscape:measure-start="746.46,1327.81"
     inkscape:measure-end="719.391,1328.24"
     inkscape:window-width="1920"
     inkscape:window-height="1001"
     inkscape:window-x="-9"
     inkscape:window-y="-9"
     inkscape:window-maximized="1"
     showguides="false" />
  <metadata
     id="metadata5">
    <rdf:RDF>
      <cc:Work
         rdf:about="">
        <dc:format>image/svg+xml</dc:format>
        <dc:type
           rdf:resource="http://purl.org/dc/dcmitype/StillImage" />
        <dc:title />
      </cc:Work>
    </rdf:RDF>
  </metadata>
  <g
     inkscape:label="Calque 1"
     inkscape:groupmode="layer"
     id="layer1"
     transform="translate(0,303)">
    <circle
       style="opacity:1;fill:#000000;fill-opacity:1;stroke:none;stroke-width:0.02816991;stroke-linejoin:miter;stroke-miterlimit:4;stroke-dasharray:none;stroke-dashoffset:0;stroke-opacity:1"
       id="path4512"
       cx="-130.76848"
       cy="561.77844"
       r="9.75"
       transform="rotate(90)" />
    <circle
       style="opacity:1;fill:#000000;fill-opacity:1;stroke:none;stroke-width:0.2671864;stroke-linejoin:miter;stroke-miterlimit:4;stroke-dasharray:none;stroke-dashoffset:0;stroke-opacity:1"
       id="path4514"
       cx="-130.76848"
       cy="561.77844"
       r="76.5"
       transform="rotate(90)" />
    <circle
       style="opacity:1;fill:#000000;fill-opacity:1;stroke:none;stroke-width:0.28963116;stroke-linejoin:miter;stroke-miterlimit:4;stroke-dasharray:none;stroke-dashoffset:0;stroke-opacity:1"
       id="path4516"
       cx="-130.76848"
       cy="561.77844"
       r="78"
       transform="rotate(90)" />
    <path
       sodipodi:type="star"
       style="opacity:1;fill:#000000;fill-opacity:1;stroke:none;stroke-width:0.14072511;stroke-linejoin:miter;stroke-miterlimit:4;stroke-dasharray:none;stroke-dashoffset:0;stroke-opacity:1"
       id="path4518"
       sodipodi:sides="8"
       sodipodi:cx="467.20807"
       sodipodi:cy="145.40202"
       sodipodi:r1="58.534145"
       sodipodi:r2="78.045525"
       sodipodi:arg1="-0.52359878"
       sodipodi:arg2="-0.1308997"
       inkscape:flatsided="false"
       inkscape:rounded="1"
       inkscape:randomized="0"
       d="m 517.90013,116.13495 c 16.40259,28.41013 22.40384,-13.44445 26.68577,19.08009 4.28194,32.52453 -12.34758,-6.35065 -20.83819,25.33673 -8.49061,31.68738 25.34857,6.33525 5.37804,32.36136 -19.97054,26.0261 -4.24048,-13.22164 -32.65061,3.18095 -28.41013,16.40259 13.44445,22.40384 -19.08009,26.68578 -32.52453,4.28193 6.35065,-12.34759 -25.33673,-20.83819 -31.68738,-8.49061 -6.33525,25.34857 -32.36136,5.37803 -26.0261,-19.97053 13.22165,-4.24048 -3.18095,-32.6506 -16.40259,-28.41013 -22.40384,13.44445 -26.68578,-19.08009 -4.28193,-32.52454 12.34759,6.35064 20.8382,-25.33674 8.4906,-31.687378 -25.34857,-6.33524 -5.37804,-32.361351 19.97053,-26.026107 4.24048,13.221641 32.65061,-3.180952 28.41012,-16.402595 -13.44445,-22.403841 19.08008,-26.685778 32.52454,-4.281937 -6.35064,12.347584 25.33674,20.838192 31.68738,8.490607 6.33525,-25.348569 32.36135,-5.378036 26.02611,19.970535 -13.22164,4.240478 3.18096,32.650605 z"
       inkscape:transform-center-x="2.6802354e-005"
       inkscape:transform-center-y="-9.7933941e-006"
       transform="matrix(-0.1225832,0.99120228,-0.99120228,-0.1225832,-360.38374,-576.04234)" />
    <circle
       style="opacity:1;fill:#000000;fill-opacity:1;stroke:none;stroke-width:0.02338463;stroke-linejoin:miter;stroke-miterlimit:4;stroke-dasharray:none;stroke-dashoffset:0;stroke-opacity:1"
       id="path4520"
       cx="-131.16536"
       cy="486.37216"
       r="1"
       transform="rotate(90)" />
    <circle
       style="opacity:1;fill:#000000;fill-opacity:1;stroke:none;stroke-width:0.02338463;stroke-linejoin:miter;stroke-miterlimit:4;stroke-dasharray:none;stroke-dashoffset:0;stroke-opacity:1"
       id="path4520-5"
       cx="-77.472908"
       cy="508.28439"
       r="1"
       transform="rotate(90)" />
    <circle
       style="opacity:1;fill:#000000;fill-opacity:1;stroke:none;stroke-width:0.02338463;stroke-linejoin:miter;stroke-miterlimit:4;stroke-dasharray:none;stroke-dashoffset:0;stroke-opacity:1"
       id="path4520-9"
       cx="-55.277973"
       cy="560.56213"
       r="1"
       transform="rotate(90)" />
    <circle
       style="opacity:1;fill:#000000;fill-opacity:1;stroke:none;stroke-width:0.02338463;stroke-linejoin:miter;stroke-miterlimit:4;stroke-dasharray:none;stroke-dashoffset:0;stroke-opacity:1"
       id="path4520-0"
       cx="-76.208534"
       cy="613.95258"
       r="1"
       transform="rotate(90)" />
    <circle
       style="opacity:1;fill:#000000;fill-opacity:1;stroke:none;stroke-width:0.02338463;stroke-linejoin:miter;stroke-miterlimit:4;stroke-dasharray:none;stroke-dashoffset:0;stroke-opacity:1"
       id="path4520-2"
       cx="-130.17776"
       cy="637.27429"
       r="1"
       transform="rotate(90)" />
    <circle
       style="opacity:1;fill:#000000;fill-opacity:1;stroke:none;stroke-width:0.02338463;stroke-linejoin:miter;stroke-miterlimit:4;stroke-dasharray:none;stroke-dashoffset:0;stroke-opacity:1"
       id="path4520-2-6"
       cx="-183.77634"
       cy="615.54926"
       r="1"
       transform="rotate(90)" />
    <circle
       style="opacity:1;fill:#000000;fill-opacity:1;stroke:none;stroke-width:0.02338463;stroke-linejoin:miter;stroke-miterlimit:4;stroke-dasharray:none;stroke-dashoffset:0;stroke-opacity:1"
       id="path4520-2-1"
       cx="-206.25854"
       cy="562.71368"
       r="1"
       transform="rotate(90)" />
    <circle
       style="opacity:1;fill:#000000;fill-opacity:1;stroke:none;stroke-width:0.02338463;stroke-linejoin:miter;stroke-miterlimit:4;stroke-dasharray:none;stroke-dashoffset:0;stroke-opacity:1"
       id="path4520-2-2"
       cx="-184.52994"
       cy="508.74741"
       r="1"
       transform="rotate(90)" />
    <path
       inkscape:connector-curvature="0"
       style="opacity:1;fill:none;fill-opacity:1;stroke:#ff0000;stroke-width:0.1;stroke-linejoin:miter;stroke-miterlimit:4;stroke-dasharray:none;stroke-dashoffset:0;stroke-opacity:1"
       d="m -488.23306,52.349988 c 0.003,-0.47667 0,-0.97067 -0.003,-1.4826 -0.25728,-32.76329 -11.33652,7.9872 -24.11222,-22.18366 -12.77567,-30.1708598 24.19866,-9.76836 0.84958,-32.7535498 -23.34908,-22.9852102 -2.36821,13.66399 -32.736,1.36374 -30.3678,-12.3002602 10.20395,-24.0176102 -22.55935,-23.7603102 -32.76328,0.2573 7.98721,11.33602 -22.18365,24.1117102 -30.17086,12.7756798 -9.76783,-24.1981402 -32.75303,-0.84905 -22.9852,23.3490798 13.66398,2.36819001 1.36374,32.7359898 -12.30027,30.36779 -24.01813,-10.20394 -23.76083,22.55934 0.25731,32.76329 11.33653,-7.98772 24.11222,22.18315 12.77567,30.170862 -24.19866,9.76835 -0.84955,32.753552 23.34908,22.98521 2.36818,-13.663992 32.73597,-1.36374 30.36779,12.30025 -10.20395,24.01761 22.55936,23.76031 32.76327,-0.2573 -7.98723,-11.33602 22.18364,-24.11171 30.17089,-12.775682 9.76784,24.19865 32.75306,0.84956 22.9852,-23.349082 -13.66401,-2.36819 -1.36374,-32.735982 12.10805,-29.8933 23.65156,8.95337 23.76392,-21.07675 z m -1.54255,-1.26763 a 1,1 0 0 1 -0.99994,0.99994 1,1 0 0 1 -1.00047,-0.99994 1,1 0 0 1 1.00047,-0.99994 1,1 0 0 1 0.99994,0.99994 z m -21.91237,53.692332 a 1,1 0 0 1 -0.99994,1.00046 1,1 0 0 1 -0.99994,-1.00046 1,1 0 0 1 0.99994,-0.99993 1,1 0 0 1 0.99994,0.99993 z M -512.151,-2.2823418 a 1,1 0 0 1 -0.99994,0.99994 1,1 0 0 1 -0.99994,-0.99994 1,1 0 0 1 0.99994,-0.99994 1,1 0 0 1 0.99994,0.99994 z m -44.28101,53.7615798 a 9.7500001,9.7500001 0 0 1 -9.74979,9.74979 9.7500001,9.7500001 0 0 1 -9.75033,-9.74979 9.7500001,9.7500001 0 0 1 9.75033,-9.74979 9.7500001,9.7500001 0 0 1 9.74979,9.74979 z m -7.5339,75.490482 a 1,1 0 0 1 -0.99994,0.99994 1,1 0 0 1 -0.99994,-0.99994 1,1 0 0 1 0.99994,-0.99994 1,1 0 0 1 0.99994,0.99994 z m -2.15131,-150.980452 a 1,1 0 0 1 -0.99994,0.99994 1,1 0 0 1 -0.99995,-0.99994 1,1 0 0 1 0.99995,-0.99994 1,1 0 0 1 0.99994,0.99994 z m -51.23873,130.049952 a 1,1 0 0 1 -1.00044,0.99994 1,1 0 0 1 -0.99994,-0.99994 1,1 0 0 1 0.99994,-0.99994 1,1 0 0 1 1.00044,0.99994 z m -1.59678,-107.5676018 a 1,1 0 0 1 -0.99994,0.99994001 1,1 0 0 1 -0.99994,-0.99994001 1,1 0 0 1 0.99994,-0.99994 1,1 0 0 1 0.99994,0.99994 z m -21.72531,53.5982798 a 1,1 0 0 1 -0.99994,0.99994 1,1 0 0 1 -0.99994,-0.99994 1,1 0 0 1 0.99994,-0.99994 1,1 0 0 1 0.99994,0.99994 z"
       id="path4518-8-7" />
    <flowRoot
       xml:space="preserve"
       id="flowRoot4626"
       style="font-style:normal;font-weight:normal;font-size:40px;line-height:1.25;font-family:sans-serif;letter-spacing:0px;word-spacing:0px;fill:#000000;fill-opacity:1;stroke:none"
       transform="matrix(0.26458333,0,0,0.26458333,-273.74719,-767.57257)"><flowRegion
         id="flowRegion4628"><rect
           id="rect4630"
           width="793.87067"
           height="276.64514"
           x="-1362.8177"
           y="1834.608" /></flowRegion><flowPara
         id="flowPara4632">1) grand, pagode festons bas</flowPara><flowPara
         id="flowPara887">petites fleurs fond bleu</flowPara><flowPara
         id="flowPara889" /><flowPara
         id="flowPara875">156mm de diam. int.</flowPara><flowPara
         id="flowPara4636">8 baleines à éviter</flowPara></flowRoot>    <flowRoot
       xml:space="preserve"
       id="flowRoot4626-0"
       style="font-style:normal;font-weight:normal;font-size:40px;line-height:1.25;font-family:sans-serif;letter-spacing:0px;word-spacing:0px;fill:#000000;fill-opacity:1;stroke:none"
       transform="matrix(0.26458333,0,0,0.26458333,-63.778388,-769.20604)"><flowRegion
         id="flowRegion4628-6"><rect
           id="rect4630-9"
           width="713.69952"
           height="234.95613"
           x="-1362.8177"
           y="1834.608" /></flowRegion><flowPara
         id="flowPara4632-5">2) moyen, cone, roses fond bleu</flowPara><flowPara
         id="flowPara4636-5">147mm de diam. int.</flowPara></flowRoot>    <flowRoot
       xml:space="preserve"
       id="flowRoot4626-0-3"
       style="font-style:normal;font-weight:normal;font-size:40px;line-height:1.25;font-family:sans-serif;letter-spacing:0px;word-spacing:0px;fill:#000000;fill-opacity:1;stroke:none"
       transform="matrix(0.26458333,0,0,0.26458333,147.18317,-770.88304)"><flowRegion
         id="flowRegion4628-6-8"><rect
           id="rect4630-9-6"
           width="793.87067"
           height="260.6109"
           x="-1362.8177"
           y="1834.608" /></flowRegion><flowPara
         id="flowPara4632-5-8">3) grand, dome à col</flowPara><flowPara
         id="flowPara883">colonnes fleurs fond vert et ponpons</flowPara><flowPara
         id="flowPara885" /><flowPara
         id="flowPara879">100mm de diam. int.</flowPara><flowPara
         id="flowPara4636-5-7">8 baleines à éviter</flowPara></flowRoot>    <circle
       style="opacity:1;fill:#000000;fill-opacity:1;stroke:none;stroke-width:0.02816991;stroke-linejoin:miter;stroke-miterlimit:4;stroke-dasharray:none;stroke-dashoffset:0;stroke-opacity:1"
       id="path4512-3"
       cx="-128.28448"
       cy="359.43848"
       r="9.75"
       transform="rotate(90)" />
    <circle
       style="opacity:1;fill:#000000;fill-opacity:1;stroke:none;stroke-width:0.25146955;stroke-linejoin:miter;stroke-miterlimit:4;stroke-dasharray:none;stroke-dashoffset:0;stroke-opacity:1"
       id="path4514-4"
       cx="-128.28448"
       cy="359.43848"
       r="72"
       transform="rotate(90)" />
    <circle
       style="opacity:1;fill:#000000;fill-opacity:1;stroke:none;stroke-width:0.27292168;stroke-linejoin:miter;stroke-miterlimit:4;stroke-dasharray:none;stroke-dashoffset:0;stroke-opacity:1"
       id="path4516-4"
       cx="-128.28448"
       cy="359.43848"
       r="73.5"
       transform="rotate(90)" />
    <path
       sodipodi:type="star"
       style="opacity:1;fill:#000000;fill-opacity:1;stroke:none;stroke-width:0.14072511;stroke-linejoin:miter;stroke-miterlimit:4;stroke-dasharray:none;stroke-dashoffset:0;stroke-opacity:1"
       id="path4518-80"
       sodipodi:sides="8"
       sodipodi:cx="467.20807"
       sodipodi:cy="145.40202"
       sodipodi:r1="58.534145"
       sodipodi:r2="78.045525"
       sodipodi:arg1="-0.52359878"
       sodipodi:arg2="-0.1308997"
       inkscape:flatsided="false"
       inkscape:rounded="0.9"
       inkscape:randomized="0"
       d="m 517.90013,116.13495 c 14.76233,25.56911 22.83203,-10.192 26.68577,19.08009 3.85375,29.27208 -13.19664,-3.18191 -20.83819,25.33673 -7.64155,28.51865 23.35152,8.93786 5.37804,32.36136 -17.97348,23.42349 -7.08149,-11.58139 -32.65061,3.18095 -25.56911,14.76234 10.192,22.83203 -19.08009,26.68578 -29.27208,3.85374 3.18191,-13.19665 -25.33673,-20.83819 -28.51864,-7.64155 -8.93786,23.35151 -32.36136,5.37803 -23.42349,-17.97348 11.58139,-7.08149 -3.18095,-32.6506 -14.76233,-25.56912 -22.83203,10.19199 -26.68578,-19.08009 -3.85374,-29.27208 13.19665,3.1819 20.8382,-25.33674 7.64154,-28.51864 -23.35152,-8.93786 -5.37804,-32.361351 17.97348,-23.423497 7.08149,11.581381 32.65061,-3.180952 25.56911,-14.762336 -10.192,-22.832035 19.08008,-26.685778 29.27209,-3.853743 -3.1819,13.196645 25.33674,20.838192 28.51864,7.641546 8.93786,-23.351516 32.36135,-5.378036 23.4235,17.973485 -11.58138,7.081491 3.18096,32.650605 z"
       inkscape:transform-center-x="2.5974926e-005"
       inkscape:transform-center-y="-1.158678e-005"
       transform="matrix(-0.11558519,0.93461665,-0.93461665,-0.11558519,-169.54098,-548.1386)" />
    <circle
       style="opacity:1;fill:#000000;fill-opacity:1;stroke:none;stroke-width:0.02338463;stroke-linejoin:miter;stroke-miterlimit:4;stroke-dasharray:none;stroke-dashoffset:0;stroke-opacity:1"
       id="path4520-8"
       cx="-128.69409"
       cy="288.44421"
       r="1"
       transform="rotate(90)" />
    <circle
       style="opacity:1;fill:#000000;fill-opacity:1;stroke:none;stroke-width:0.02338463;stroke-linejoin:miter;stroke-miterlimit:4;stroke-dasharray:none;stroke-dashoffset:0;stroke-opacity:1"
       id="path4520-5-4"
       cx="-78.713936"
       cy="308.59402"
       r="1"
       transform="rotate(90)" />
    <circle
       style="opacity:1;fill:#000000;fill-opacity:1;stroke:none;stroke-width:0.02338463;stroke-linejoin:miter;stroke-miterlimit:4;stroke-dasharray:none;stroke-dashoffset:0;stroke-opacity:1"
       id="path4520-9-9"
       cx="-57.306454"
       cy="358.80936"
       r="1"
       transform="rotate(90)" />
    <circle
       style="opacity:1;fill:#000000;fill-opacity:1;stroke:none;stroke-width:0.02338463;stroke-linejoin:miter;stroke-miterlimit:4;stroke-dasharray:none;stroke-dashoffset:0;stroke-opacity:1"
       id="path4520-0-01"
       cx="-78.199516"
       cy="407.13757"
       r="1"
       transform="rotate(90)" />
    <circle
       style="opacity:1;fill:#000000;fill-opacity:1;stroke:none;stroke-width:0.02338463;stroke-linejoin:miter;stroke-miterlimit:4;stroke-dasharray:none;stroke-dashoffset:0;stroke-opacity:1"
       id="path4520-2-28"
       cx="-127.744"
       cy="430.45932"
       r="1"
       transform="rotate(90)" />
    <circle
       style="opacity:1;fill:#000000;fill-opacity:1;stroke:none;stroke-width:0.02338463;stroke-linejoin:miter;stroke-miterlimit:4;stroke-dasharray:none;stroke-dashoffset:0;stroke-opacity:1"
       id="path4520-2-6-66"
       cx="-178.55525"
       cy="409.52972"
       r="1"
       transform="rotate(90)" />
    <circle
       style="opacity:1;fill:#000000;fill-opacity:1;stroke:none;stroke-width:0.02338463;stroke-linejoin:miter;stroke-miterlimit:4;stroke-dasharray:none;stroke-dashoffset:0;stroke-opacity:1"
       id="path4520-2-1-7"
       cx="-199.28755"
       cy="359.91095"
       r="1"
       transform="rotate(90)" />
    <circle
       style="opacity:1;fill:#000000;fill-opacity:1;stroke:none;stroke-width:0.02338463;stroke-linejoin:miter;stroke-miterlimit:4;stroke-dasharray:none;stroke-dashoffset:0;stroke-opacity:1"
       id="path4520-2-2-0"
       cx="-178.85318"
       cy="309.61456"
       r="1"
       transform="rotate(90)" />
    <circle
       style="opacity:1;fill:#000000;fill-opacity:1;stroke:none;stroke-width:0.02816991;stroke-linejoin:miter;stroke-miterlimit:4;stroke-dasharray:none;stroke-dashoffset:0;stroke-opacity:1"
       id="path4512-3-6"
       cx="-139.37355"
       cy="164.19122"
       r="9.75"
       transform="rotate(90)" />
    <circle
       style="opacity:1;fill:#000000;fill-opacity:1;stroke:none;stroke-width:0.16939269;stroke-linejoin:miter;stroke-miterlimit:4;stroke-dasharray:none;stroke-dashoffset:0;stroke-opacity:1"
       id="path4514-4-4"
       cx="-139.37355"
       cy="164.19122"
       r="48.5"
       transform="rotate(90)" />
    <circle
       style="opacity:1;fill:#000000;fill-opacity:1;stroke:none;stroke-width:0.185661;stroke-linejoin:miter;stroke-miterlimit:4;stroke-dasharray:none;stroke-dashoffset:0;stroke-opacity:1"
       id="path4516-4-9"
       cx="-139.37355"
       cy="164.19122"
       r="50"
       transform="rotate(90)" />
    <path
       sodipodi:type="star"
       style="opacity:1;fill:#000000;fill-opacity:1;stroke:none;stroke-width:0.14072511;stroke-linejoin:miter;stroke-miterlimit:4;stroke-dasharray:none;stroke-dashoffset:0;stroke-opacity:1"
       id="path4518-80-6"
       sodipodi:sides="8"
       sodipodi:cx="467.20807"
       sodipodi:cy="145.40202"
       sodipodi:r1="58.534145"
       sodipodi:r2="78.045525"
       sodipodi:arg1="-0.52359878"
       sodipodi:arg2="-0.1308997"
       inkscape:flatsided="false"
       inkscape:rounded="0.9"
       inkscape:randomized="0"
       d="m 517.90013,116.13495 c 14.76233,25.56911 22.83203,-10.192 26.68577,19.08009 3.85375,29.27208 -13.19664,-3.18191 -20.83819,25.33673 -7.64155,28.51865 23.35152,8.93786 5.37804,32.36136 -17.97348,23.42349 -7.08149,-11.58139 -32.65061,3.18095 -25.56911,14.76234 10.192,22.83203 -19.08009,26.68578 -29.27208,3.85374 3.18191,-13.19665 -25.33673,-20.83819 -28.51864,-7.64155 -8.93786,23.35151 -32.36136,5.37803 -23.42349,-17.97348 11.58139,-7.08149 -3.18095,-32.6506 -14.76233,-25.56912 -22.83203,10.19199 -26.68578,-19.08009 -3.85374,-29.27208 13.19665,3.1819 20.8382,-25.33674 7.64154,-28.51864 -23.35152,-8.93786 -5.37804,-32.361351 17.97348,-23.423497 7.08149,11.581381 32.65061,-3.180952 25.56911,-14.762336 -10.192,-22.832035 19.08008,-26.685778 29.27209,-3.853743 -3.1819,13.196645 25.33674,20.838192 28.51864,7.641546 8.93786,-23.351516 32.36135,-5.378036 23.4235,17.973485 -11.58138,7.081491 3.18096,32.650605 z"
       inkscape:transform-center-x="1.4495937e-005"
       inkscape:transform-center-y="-6.627914e-006"
       transform="matrix(-0.07863048,0.63580255,-0.63580255,-0.07863048,-35.007448,-424.9926)" />
    <circle
       style="opacity:1;fill:#000000;fill-opacity:1;stroke:none;stroke-width:0.02338463;stroke-linejoin:miter;stroke-miterlimit:4;stroke-dasharray:none;stroke-dashoffset:0;stroke-opacity:1"
       id="path4520-8-1"
       cx="-139.49966"
       cy="116.70096"
       r="1"
       transform="rotate(90)" />
    <circle
       style="opacity:1;fill:#000000;fill-opacity:1;stroke:none;stroke-width:0.02338463;stroke-linejoin:miter;stroke-miterlimit:4;stroke-dasharray:none;stroke-dashoffset:0;stroke-opacity:1"
       id="path4520-5-4-2"
       cx="-106.25291"
       cy="130.26993"
       r="1"
       transform="rotate(90)" />
    <circle
       style="opacity:1;fill:#000000;fill-opacity:1;stroke:none;stroke-width:0.02338463;stroke-linejoin:miter;stroke-miterlimit:4;stroke-dasharray:none;stroke-dashoffset:0;stroke-opacity:1"
       id="path4520-9-9-4"
       cx="-91.895012"
       cy="163.61127"
       r="1"
       transform="rotate(90)" />
    <circle
       style="opacity:1;fill:#000000;fill-opacity:1;stroke:none;stroke-width:0.02338463;stroke-linejoin:miter;stroke-miterlimit:4;stroke-dasharray:none;stroke-dashoffset:0;stroke-opacity:1"
       id="path4520-0-01-2"
       cx="-105.62902"
       cy="197.61807"
       r="1"
       transform="rotate(90)" />
    <circle
       style="opacity:1;fill:#000000;fill-opacity:1;stroke:none;stroke-width:0.02338463;stroke-linejoin:miter;stroke-miterlimit:4;stroke-dasharray:none;stroke-dashoffset:0;stroke-opacity:1"
       id="path4520-2-28-5"
       cx="-139.15891"
       cy="211.67514"
       r="1"
       transform="rotate(90)" />
    <circle
       style="opacity:1;fill:#000000;fill-opacity:1;stroke:none;stroke-width:0.02338463;stroke-linejoin:miter;stroke-miterlimit:4;stroke-dasharray:none;stroke-dashoffset:0;stroke-opacity:1"
       id="path4520-2-6-66-9"
       cx="-173.02548"
       cy="197.70303"
       r="1"
       transform="rotate(90)" />
    <circle
       style="opacity:1;fill:#000000;fill-opacity:1;stroke:none;stroke-width:0.02338463;stroke-linejoin:miter;stroke-miterlimit:4;stroke-dasharray:none;stroke-dashoffset:0;stroke-opacity:1"
       id="path4520-2-1-7-2"
       cx="-186.88437"
       cy="164.52646"
       r="1"
       transform="rotate(90)" />
    <circle
       style="opacity:1;fill:#000000;fill-opacity:1;stroke:none;stroke-width:0.02338463;stroke-linejoin:miter;stroke-miterlimit:4;stroke-dasharray:none;stroke-dashoffset:0;stroke-opacity:1"
       id="path4520-2-2-0-6"
       cx="-173.29086"
       cy="130.98752"
       r="1"
       transform="rotate(90)" />
    <path
       inkscape:connector-curvature="0"
       style="opacity:1;fill:none;fill-opacity:1;stroke:#ff0000;stroke-width:0.1;stroke-linejoin:miter;stroke-miterlimit:4;stroke-dasharray:none;stroke-dashoffset:0;stroke-opacity:1"
       d="m -361.02627,-25.606645 c -0.40552,-0.003 -0.82544,-0.003 -1.25986,0 -27.80361,0.21836 4.68707,11.89387 -20.91656,22.7355705 -25.6036,10.84172 -11.37817,-20.6154905 -30.8839,-0.80098 -19.50572,19.8145195 11.72448,5.09662 1.28623,30.8673495 -10.43825,25.77076 -22.62267,-6.53203 -22.40432,21.27158 0.21836,27.8036 11.89385,-4.68654 22.73557,20.91708 10.84171,25.60363 -20.61551,11.37767 -0.80099,30.883395 19.81452,19.50571 5.0961,-11.724275 30.86685,-1.286255 25.77073,10.438265 -6.53203,22.622705 21.27157,22.404335 27.80361,-0.21836 -4.68656,-11.89384 20.91706,-22.735565 25.60363,-10.84173 11.37767,20.615515 30.88339,0.80097 19.50574,-19.81451 -11.72395,-5.09609 -1.28569,-30.86685 10.43823,-25.77073 22.62267,6.53206 22.40431,-21.27157 -0.21836,-27.80361 -11.89384,4.68656 -22.73557,-20.91706 -10.84173,-25.60361951 20.61551,-11.37766 0.80097,-30.8833795 -19.81451,-19.5057205 -5.09661,11.72395 -30.86735,1.28572 -25.36809,-10.2751505 5.53691,-22.2421805 -20.01171,-22.4053705 z m -1.15495,1.49397 a 1,1 0 0 1 0.99994,1.00047 1,1 0 0 1 -0.99994,0.99994 1,1 0 0 1 -0.99994,-0.99994 1,1 0 0 1 0.99994,-1.00047 z m 50.29665,20.4344105 a 1,1 0 0 1 0.99994,0.99994 1,1 0 0 1 -0.99994,1.00046 1,1 0 0 1 -1.00044,-1.00046 1,1 0 0 1 1.00044,-0.99994 z m -99.91533,0.29818 a 1,1 0 0 1 0.99993,0.99994 1,1 0 0 1 -0.99993,0.99994 1,1 0 0 1 -0.99994,-0.99994 1,1 0 0 1 0.99994,-0.99994 z m 50.09098,41.5204495 a 9.7500001,9.7500001 0 0 1 9.75032,9.75032 9.7500001,9.7500001 0 0 1 -9.75032,9.74979 9.7500001,9.7500001 0 0 1 -9.74979,-9.74979 9.7500001,9.7500001 0 0 1 9.74979,-9.75032 z m 70.99464,8.3406 a 1,1 0 0 1 0.99994,0.99994 1,1 0 0 1 -0.99994,0.99994 1,1 0 0 1 -0.99993,-0.99994 1,1 0 0 1 0.99993,-0.99994 z m -142.0151,0.95033 a 1,1 0 0 1 0.99994,0.99994 1,1 0 0 1 -0.99994,0.99994 1,1 0 0 1 -0.99993,-0.99994 1,1 0 0 1 0.99993,-0.99994 z m 121.86491,49.03007 a 1,1 0 0 1 1.00047,0.99994 1,1 0 0 1 -1.00047,0.99994 1,1 0 0 1 -0.99994,-0.99994 1,1 0 0 1 0.99994,-0.99994 z m -98.54333,0.51419 a 1,1 0 0 1 0.99994,0.99994 1,1 0 0 1 -0.99994,0.99994 1,1 0 0 1 -0.99994,-0.99994 1,1 0 0 1 0.99994,-0.99994 z m 48.3283,20.893305 a 1,1 0 0 1 0.99994,0.99994 1,1 0 0 1 -0.99994,0.99994 1,1 0 0 1 -0.99994,-0.99994 1,1 0 0 1 0.99994,-0.99994 z"
       id="path4518-80-4-6" />
    <path
       id="path4520-2-2-0-6-1-7"
       style="opacity:1;fill:none;fill-opacity:1;stroke:#ff0000;stroke-width:0.1;stroke-linejoin:miter;stroke-miterlimit:4;stroke-dasharray:none;stroke-dashoffset:0;stroke-opacity:1"
       d="m -125.18688,-41.899236 a 1,1 0 0 1 -1,-1 1,1 0 0 1 1,-1 1,1 0 0 1 1,1 1,1 0 0 1 -1,1 z m -33.53894,-13.5935 a 1,1 0 0 1 -1,-1 1,1 0 0 1 1,-1 1,1 0 0 1 1,1 1,1 0 0 1 -1,1 z m -33.17657,13.85888 a 1,1 0 0 1 -1,-1 1,1 0 0 1 1,-1 1,1 0 0 1 1,1 1,1 0 0 1 -1,1 z m -13.97211,33.8665801 a 1,1 0 0 1 -1,-1 1,1 0 0 1 1,-1 1,1 0 0 1 1,1 1,1 0 0 1 -1,1 z m 14.05707,33.5298769 a 1,1 0 0 1 -1,-1 1,1 0 0 1 1,-1 1,1 0 0 1 1,1 1,1 0 0 1 -1,1 z m 34.0068,13.73401 a 1,1 0 0 1 -1,-1 1,1 0 0 1 1,-1 1,1 0 0 1 1,1 1,1 0 0 1 -1,1 z m 33.34134,-14.3579 a 1,1 0 0 1 -1,-1 1,1 0 0 1 1,-1 1,1 0 0 1 1,1 1,1 0 0 1 -1,1 z m 13.56897,-33.2467469 a 1,1 0 0 1 -1,-1 1,1 0 0 1 1,-1.0000001 1,1 0 0 1 1,1.0000001 1,1 0 0 1 -1,1 z m -47.49041,-10.6238001 a 9.7500001,9.7500001 0 0 1 9.75032,9.7497901 9.7500001,9.7500001 0 0 1 -9.75032,9.75032001 9.7500001,9.7500001 0 0 1 -9.74979,-9.75032001 9.7500001,9.7500001 0 0 1 9.74979,-9.7497901 z m -0.39272,-40.24819 c -18.9143,0.14854 3.18857,8.09133 -14.22911,15.46675 -17.41768,7.37542 -7.7402,-14.02464 -21.00958,-0.54518 -13.26938,13.47945 7.97584,3.46735 0.8749,20.99872 -7.10097,17.5313701 -15.39,-4.44386 -15.24146,14.4704401 0.14854,18.9142569 8.09133,-3.1880701 15.46675,14.229607 7.37542,17.4176799 -14.02464,7.7401899 -0.54517,21.0095799 13.47946,13.26938 3.46733,-7.97584 20.9987,-0.8749 17.53138,7.10097 -4.44383,15.38949 14.47044,15.24093 18.91429,-0.14854 -3.18805,-8.0908 14.22963,-15.46622 17.41768,-7.37542 7.74018,14.0241 21.00956,0.54467 13.26938,-13.47946 -7.97584,-3.46684 -0.87487,-20.9982099 7.10094,-17.5313671 15.38946,4.44334 15.24092,-14.470957 -0.14853,-18.9142701 -8.09082,3.18857 -15.46624,-14.2291001 -7.37542,-17.41768 14.02413,-7.74018 0.54467,-21.00957 -13.47946,-13.26938 -3.46684,7.97583 -20.99821,0.87488 -17.53137,-7.10095 4.44334,-15.38999 -14.47093,-15.24144 z"
       inkscape:connector-curvature="0" />
    <flowRoot
       xml:space="preserve"
       id="flowRoot4626-0-3-4"
       style="font-style:normal;font-weight:normal;font-size:40px;line-height:1.25;font-family:sans-serif;letter-spacing:0px;word-spacing:0px;fill:#000000;fill-opacity:1;stroke:none"
       transform="matrix(0.26458333,0,0,0.26458333,371.91886,-777.09726)"><flowRegion
         id="flowRegion4628-6-8-2"><rect
           id="rect4630-9-6-6"
           width="793.87067"
           height="260.6109"
           x="-1362.8177"
           y="1834.608" /></flowRegion><flowPara
         id="flowPara4632-5-8-2">4) moyen, dome à col</flowPara><flowPara
         id="flowPara883-7">bleu pale, motif fleurs dedans</flowPara><flowPara
         id="flowPara885-8" /><flowPara
         id="flowPara879-7">80mm de diam. int.</flowPara><flowPara
         id="flowPara4636-5-7-7">10 baleines à éviter</flowPara></flowRoot>    <circle
       style="opacity:1;fill:#000000;fill-opacity:1;stroke:none;stroke-width:0.02816991;stroke-linejoin:miter;stroke-miterlimit:4;stroke-dasharray:none;stroke-dashoffset:0;stroke-opacity:1"
       id="path4512-3-6-9"
       cx="-155.90343"
       cy="-52.597992"
       r="9.75"
       transform="rotate(90)" />
    <circle
       style="opacity:1;fill:#000000;fill-opacity:1;stroke:none;stroke-width:0.13446636;stroke-linejoin:miter;stroke-miterlimit:4;stroke-dasharray:none;stroke-dashoffset:0;stroke-opacity:1"
       id="path4514-4-4-0"
       cx="-155.90343"
       cy="-52.597992"
       r="38.5"
       transform="rotate(90)" />
    <circle
       style="opacity:1;fill:#000000;fill-opacity:1;stroke:none;stroke-width:0.1485288;stroke-linejoin:miter;stroke-miterlimit:4;stroke-dasharray:none;stroke-dashoffset:0;stroke-opacity:1"
       id="path4516-4-9-6"
       cx="-155.90343"
       cy="-52.597992"
       transform="rotate(90)"
       r="40" />
    <path
       sodipodi:type="star"
       style="opacity:1;fill:#000000;fill-opacity:1;stroke:none;stroke-width:0.14072511;stroke-linejoin:miter;stroke-miterlimit:4;stroke-dasharray:none;stroke-dashoffset:0;stroke-opacity:1"
       id="path4518-80-6-5"
       sodipodi:sides="5"
       sodipodi:cx="467.20807"
       sodipodi:cy="145.40202"
       sodipodi:r1="58.534145"
       sodipodi:r2="78.045525"
       sodipodi:arg1="-0.52359878"
       sodipodi:arg2="0.10471975"
       inkscape:flatsided="false"
       inkscape:rounded="0.7"
       inkscape:randomized="0"
       d="m 517.90013,116.13495 c 16.13663,27.94947 30.2994,5.32858 26.92592,37.42505 -3.37347,32.09647 -12.5236,7.0253 -34.11863,31.00901 -21.59503,23.98371 4.29524,30.46307 -27.27277,37.17306 -31.56802,6.70998 -10.55147,-9.73972 -40.03456,-22.86644 -29.4831,-13.12672 -27.6448,13.49862 -43.78143,-14.45084 -16.13663,-27.94947 6.00245,-13.04478 9.37592,-45.14125 3.37347,-32.09647 -21.38067,-22.12046 0.21436,-46.104166 21.59503,-23.983709 14.26118,1.677605 45.8292,-5.032384 31.56801,-6.70999 14.43081,-27.16982 43.9139,-14.043101 29.4831,13.126719 2.81145,14.081595 18.94809,42.031061 z"
       inkscape:transform-center-x="1.3265828e-005"
       inkscape:transform-center-y="-1.0151908e-005"
       transform="matrix(-0.06290438,0.50864204,-0.50864204,-0.06290438,155.94502,-384.39866)" />
    <circle
       style="opacity:1;fill:#000000;fill-opacity:1;stroke:none;stroke-width:0.02338463;stroke-linejoin:miter;stroke-miterlimit:4;stroke-dasharray:none;stroke-dashoffset:0;stroke-opacity:1"
       id="path4520-0-01-2-7"
       cx="-120.27209"
       cy="-40.945465"
       r="1"
       transform="rotate(90)" />
    <circle
       style="opacity:1;fill:#000000;fill-opacity:1;stroke:none;stroke-width:0.02338463;stroke-linejoin:miter;stroke-miterlimit:4;stroke-dasharray:none;stroke-dashoffset:0;stroke-opacity:1"
       id="path4520-0-01-2-7-9"
       cx="-118.84246"
       cy="-46.807159"
       r="1"
       transform="rotate(90)" />
    <circle
       style="opacity:1;fill:#000000;fill-opacity:1;stroke:none;stroke-width:0.02338463;stroke-linejoin:miter;stroke-miterlimit:4;stroke-dasharray:none;stroke-dashoffset:0;stroke-opacity:1"
       id="path4520-0-01-2-7-3"
       cx="40.454739"
       cy="-152.532"
       r="1"
       transform="rotate(16.933348)" />
    <circle
       style="opacity:1;fill:#000000;fill-opacity:1;stroke:none;stroke-width:0.02338463;stroke-linejoin:miter;stroke-miterlimit:4;stroke-dasharray:none;stroke-dashoffset:0;stroke-opacity:1"
       id="path4520-0-01-2-7-9-8"
       cx="41.884365"
       cy="-158.39369"
       r="1"
       transform="rotate(16.933348)" />
    <circle
       style="opacity:1;fill:#000000;fill-opacity:1;stroke:none;stroke-width:0.02338463;stroke-linejoin:miter;stroke-miterlimit:4;stroke-dasharray:none;stroke-dashoffset:0;stroke-opacity:1"
       id="path4520-0-01-2-7-3-1"
       cx="194.03799"
       cy="-32.411633"
       r="1"
       transform="rotate(-55.758074)" />
    <circle
       style="opacity:1;fill:#000000;fill-opacity:1;stroke:none;stroke-width:0.02338463;stroke-linejoin:miter;stroke-miterlimit:4;stroke-dasharray:none;stroke-dashoffset:0;stroke-opacity:1"
       id="path4520-0-01-2-7-9-8-7"
       cx="195.46762"
       cy="-38.273327"
       r="1"
       transform="rotate(-55.758074)" />
    <circle
       style="opacity:1;fill:#000000;fill-opacity:1;stroke:none;stroke-width:0.02338463;stroke-linejoin:miter;stroke-miterlimit:4;stroke-dasharray:none;stroke-dashoffset:0;stroke-opacity:1"
       id="path4520-0-01-2-7-3-1-9"
       cx="-130.48175"
       cy="-141.27022"
       r="1"
       transform="rotate(53.257222)" />
    <circle
       style="opacity:1;fill:#000000;fill-opacity:1;stroke:none;stroke-width:0.02338463;stroke-linejoin:miter;stroke-miterlimit:4;stroke-dasharray:none;stroke-dashoffset:0;stroke-opacity:1"
       id="path4520-0-01-2-7-9-8-7-2"
       cx="-129.05212"
       cy="-147.13191"
       r="1"
       transform="rotate(53.257222)" />
    <circle
       style="opacity:1;fill:#000000;fill-opacity:1;stroke:none;stroke-width:0.02338463;stroke-linejoin:miter;stroke-miterlimit:4;stroke-dasharray:none;stroke-dashoffset:0;stroke-opacity:1"
       id="path4520-0-01-2-7-3-1-9-0"
       cx="65.049904"
       cy="-135.09485"
       r="1"
       transform="rotate(-19.677262)" />
    <circle
       style="opacity:1;fill:#000000;fill-opacity:1;stroke:none;stroke-width:0.02338463;stroke-linejoin:miter;stroke-miterlimit:4;stroke-dasharray:none;stroke-dashoffset:0;stroke-opacity:1"
       id="path4520-0-01-2-7-9-8-7-2-5"
       cx="66.47953"
       cy="-140.95653"
       r="1"
       transform="rotate(-19.677262)" />
    <path
       inkscape:connector-curvature="0"
       style="opacity:1;fill:none;fill-opacity:1;stroke:#ff0000;stroke-width:0.1;stroke-linejoin:miter;stroke-miterlimit:4;stroke-dasharray:none;stroke-dashoffset:0;stroke-opacity:1"
       d="m 46.165849,-80.524797 c -1.54519,-0.0303 -3.78526,0.55956 -7.3551,2.07119 -15.23135,6.4496 -1.57287,7.18984 -10.10428,21.36045 -8.53143,14.17062 -15.57623,2.44549 -14.14901,18.92443 1.42721,16.47891 6.35153,3.71809 17.19223,16.21089 10.84069,12.4928335 -2.48738,15.5698835 13.62604,19.3047735 16.11341,3.73491 5.49867,-4.89231 20.72999,-11.3419535 15.23135,-6.44961 14.0388,7.1772535 22.57021,-6.99336 8.53141,-14.17061 -2.95289,-6.7414 -4.3801,-23.22029 -1.42722,-16.47891 11.1637,-11.13416 0.32298,-23.62699 -10.8407,-12.49281 -7.32341,0.72579 -23.43682,-3.00911 -12.33681,-2.85953 -9.96844,-9.58096 -15.01614,-9.68003 z m -3.69848,2.37815 a 1,1 0 0 1 0.84286,0.40101 1,1 0 0 1 -0.20309,1.39939 1,1 0 0 1 -1.39941,-0.20308 1,1 0 0 1 0.20309,-1.3994 1,1 0 0 1 0.55655,-0.19792 z m -5.55209,2.36109 a 1,1 0 0 1 0.8423,0.40101 1,1 0 0 1 -0.20307,1.3994 1,1 0 0 1 -1.39941,-0.20309 1,1 0 0 1 0.2031,-1.39939 1,1 0 0 1 0.55708,-0.19793 z m 43.26919,5.94641 a 1,1 0 0 1 0.53586,0.17312 1,1 0 0 1 0.26408,1.38906 1,1 0 0 1 -1.38959,0.26407 1,1 0 0 1 -0.26355,-1.38907 1,1 0 0 1 0.8532,-0.43718 z m 4.04159,4.48035 a 1,1 0 0 1 0.53589,0.1726 1,1 0 0 1 0.26355,1.38958 1,1 0 0 1 -1.38907,0.26406 1,1 0 0 1 -0.26405,-1.38958 1,1 0 0 1 0.85368,-0.43666 z m -29.81833,13.98881 a 9.7500001,9.7500001 0 0 1 9.75032,9.75031 9.7500001,9.7500001 0 0 1 -9.75032,9.74978 9.7500001,9.7500001 0 0 1 -9.74979,-9.74978 9.7500001,9.7500001 0 0 1 9.74979,-9.75031 z m -37.50726,9.54412 a 1,1 0 0 1 0.98547,0.66249 1,1 0 0 1 -0.60513,1.27796 1,1 0 0 1 -1.27849,-0.60462 1,1 0 0 1 0.60513,-1.27847 1,1 0 0 1 0.29302,-0.0574 z m 0.62786,6.00066 a 1,1 0 0 1 0.98497,0.66249 1,1 0 0 1 -0.60463,1.27847 1,1 0 0 1 -1.27847,-0.60513 1,1 0 0 1 0.6046,-1.27847 1,1 0 0 1 0.29353,-0.0574 z m 70.50836,9.78183 a 1,1 0 0 1 0.26615,0.0429 1,1 0 0 1 0.66558,1.24799 1,1 0 0 1 -1.24798,0.66559 1,1 0 0 1 -0.66509,-1.24799 1,1 0 0 1 0.98134,-0.70848 z m -3.07528,5.19142 a 1,1 0 0 1 0.26668,0.0429 1,1 0 0 1 0.66558,1.24799 1,1 0 0 1 -1.24798,0.66508 1,1 0 0 1 -0.66559,-1.24799 1,1 0 0 1 0.98131,-0.70797 z m -42.2062,13.8632435 a 1,1 0 0 1 0.99994,0.99994 1,1 0 0 1 -0.99994,1.00044 1,1 0 0 1 -0.99994,-1.00044 1,1 0 0 1 0.99994,-0.99994 z m 5.86166,1.42989 a 1,1 0 0 1 0.99994,0.99994 1,1 0 0 1 -0.99994,0.99994 1,1 0 0 1 -0.99994,-0.99994 1,1 0 0 1 0.99994,-0.99994 z"
       id="path4518-80-6-5-9-8" />
    <flowRoot
       xml:space="preserve"
       id="flowRoot4626-0-3-4-5"
       style="font-style:normal;font-weight:normal;font-size:40px;line-height:1.25;font-family:sans-serif;letter-spacing:0px;word-spacing:0px;fill:#000000;fill-opacity:1;stroke:none"
       transform="matrix(0.26458333,0,0,0.26458333,564.54502,-779.23847)"><flowRegion
         id="flowRegion4628-6-8-2-2"><rect
           id="rect4630-9-6-6-0"
           width="793.87067"
           height="260.6109"
           x="-1362.8177"
           y="1834.608" /></flowRegion><flowPara
         id="flowPara4632-5-8-2-7">5) grand, carré</flowPara><flowPara
         id="flowPara883-7-6">taupe, pois dedans</flowPara><flowPara
         id="flowPara885-8-5" /><flowPara
         id="flowPara4636-5-7-7-5">169mm</flowPara></flowRoot>    <rect
       style="fill:#000000;fill-opacity:1;fill-rule:evenodd;stroke-width:0.26458332"
       id="rect937"
       width="169"
       height="169"
       x="193.18867"
       y="-215.36993" />
    <circle
       style="opacity:1;fill:#000000;fill-opacity:1;stroke:none;stroke-width:0.02816991;stroke-linejoin:miter;stroke-miterlimit:4;stroke-dasharray:none;stroke-dashoffset:0;stroke-opacity:1"
       id="path4512-3-6-9-8"
       cx="-130.86993"
       cy="-277.68866"
       r="9.75"
       transform="rotate(90)" />
    <circle
       style="opacity:1;fill:#000000;fill-opacity:1;stroke:none;stroke-width:0.02338463;stroke-linejoin:miter;stroke-miterlimit:4;stroke-dasharray:none;stroke-dashoffset:0;stroke-opacity:1"
       id="path4520-0-01-2-7-9-8-7-9"
       cx="282.67825"
       cy="47.099518"
       r="1"
       transform="rotate(-55.758074)" />
    <circle
       style="opacity:1;fill:#000000;fill-opacity:1;stroke:none;stroke-width:0.02338463;stroke-linejoin:miter;stroke-miterlimit:4;stroke-dasharray:none;stroke-dashoffset:0;stroke-opacity:1"
       id="path4520-0-01-2-7-9-8-7-9-3"
       cx="287.61337"
       cy="48.086323"
       r="1"
       transform="rotate(-55.758074)" />
    <circle
       style="opacity:1;fill:#000000;fill-opacity:1;stroke:none;stroke-width:0.02338463;stroke-linejoin:miter;stroke-miterlimit:4;stroke-dasharray:none;stroke-dashoffset:0;stroke-opacity:1"
       id="path4520-0-01-2-7-9-8-7-9-2"
       cx="241.53745"
       cy="264.46713"
       r="1"
       transform="rotate(-55.758074)" />
    <circle
       style="opacity:1;fill:#000000;fill-opacity:1;stroke:none;stroke-width:0.02338463;stroke-linejoin:miter;stroke-miterlimit:4;stroke-dasharray:none;stroke-dashoffset:0;stroke-opacity:1"
       id="path4520-0-01-2-7-9-8-7-9-3-6"
       cx="246.47256"
       cy="265.45395"
       r="1"
       transform="rotate(-55.758074)" />
    <circle
       style="opacity:1;fill:#000000;fill-opacity:1;stroke:none;stroke-width:0.02338463;stroke-linejoin:miter;stroke-miterlimit:4;stroke-dasharray:none;stroke-dashoffset:0;stroke-opacity:1"
       id="path4520-0-01-2-7-9-8-7-9-4"
       cx="-373.22034"
       cy="-179.30081"
       r="1"
       transform="rotate(124.24193)" />
    <circle
       style="opacity:1;fill:#000000;fill-opacity:1;stroke:none;stroke-width:0.02338463;stroke-linejoin:miter;stroke-miterlimit:4;stroke-dasharray:none;stroke-dashoffset:0;stroke-opacity:1"
       id="path4520-0-01-2-7-9-8-7-9-3-0"
       cx="-374.20712"
       cy="-174.36569"
       r="1"
       transform="rotate(124.24193)" />
    <circle
       style="opacity:1;fill:#000000;fill-opacity:1;stroke:none;stroke-width:0.02338463;stroke-linejoin:miter;stroke-miterlimit:4;stroke-dasharray:none;stroke-dashoffset:0;stroke-opacity:1"
       id="path4520-0-01-2-7-9-8-7-9-4-7"
       cx="-155.07858"
       cy="-137.63332"
       r="1"
       transform="rotate(124.24193)" />
    <circle
       style="opacity:1;fill:#000000;fill-opacity:1;stroke:none;stroke-width:0.02338463;stroke-linejoin:miter;stroke-miterlimit:4;stroke-dasharray:none;stroke-dashoffset:0;stroke-opacity:1"
       id="path4520-0-01-2-7-9-8-7-9-3-0-4"
       cx="-156.06537"
       cy="-132.6982"
       r="1"
       transform="rotate(124.24193)" />
    <path
       id="path4520-0-01-2-7-9-8-7-9-3-0-4-0"
       style="opacity:1;fill:none;fill-opacity:1;stroke:#ff0000;stroke-width:0.1;stroke-linejoin:miter;stroke-miterlimit:4;stroke-dasharray:none;stroke-dashoffset:0;stroke-opacity:1"
       d="m 3.285516,-242.38193 a 1,1 0 0 1 -1,1 1,1 0 0 1 -1,-1 1,1 0 0 1 1,-1 1,1 0 0 1 1,1 z m 0.9867773,-4.93512 a 1,1 0 0 1 -1,1 1,1 0 0 1 -1,-1 1,1 0 0 1 1,-1 1,1 0 0 1 1,1 z M -214.85561,-284.04941 a 1,1 0 0 1 -1,1 1,1 0 0 1 -1,-1 1,1 0 0 1 1,-1 1,1 0 0 1 1,1 z m 0.98679,-4.93515 a 1,1 0 0 1 -1,1 1,1 0 0 1 -1,-1 1,1 0 0 1 1,-1 1,1 0 0 1 1,1 z m 124.747082,-86.15309 a 1,1 0 0 1 1,-1 1,1 0 0 1 1,1 1,1 0 0 1 -1,1 1,1 0 0 1 -1,-1 z m 4.93512,0.98681 a 1,1 0 0 1 1,-1 1,1 0 0 1 1,1 1,1 0 0 1 -1,1 1,1 0 0 1 -1,-1 z m -46.075902,216.38082 a 1,1 0 0 1 1,-1 1,1 0 0 1 1,1 1,1 0 0 1 -1,1 1,1 0 0 1 -1,-1 z m 4.93508,0.9868 a 1,1 0 0 1 1,-1 1,1 0 0 1 1,1 1,1 0 0 1 -1,1 1,1 0 0 1 -1,-1 z m 27.300041,-114.3046 a 9.75,9.75 0 0 1 -2.573811,13.54624 9.75,9.75 0 0 1 -13.54624,-2.57381 9.75,9.75 0 0 1 2.57381,-13.54624 9.75,9.75 0 0 1 13.546241,2.57381 z m -30.366391,122.88684 -95.09436,-139.70707 139.707065,-95.09435 95.094356,139.70706 z"
       transform="rotate(124.24193)" />
  </g>
</svg>
