<?xml version="1.0" encoding="UTF-8" standalone="no"?>
<!-- Created with Inkscape (http://www.inkscape.org/) -->

<svg
   xmlns:dc="http://purl.org/dc/elements/1.1/"
   xmlns:cc="http://creativecommons.org/ns#"
   xmlns:rdf="http://www.w3.org/1999/02/22-rdf-syntax-ns#"
   xmlns:svg="http://www.w3.org/2000/svg"
   xmlns="http://www.w3.org/2000/svg"
   xmlns:sodipodi="http://sodipodi.sourceforge.net/DTD/sodipodi-0.dtd"
   xmlns:inkscape="http://www.inkscape.org/namespaces/inkscape"
   width="1000mm"
   height="600mm"
   viewBox="0 0 1000 600"
   version="1.1"
   id="svg8"
   inkscape:version="0.92.2 (5c3e80d, 2017-08-06)"
   sodipodi:docname="disque adaptateur culot.svg">
  <defs
     id="defs2" />
  <sodipodi:namedview
     id="base"
     pagecolor="#ffffff"
     bordercolor="#666666"
     borderopacity="1.0"
     inkscape:pageopacity="0.0"
     inkscape:pageshadow="2"
     inkscape:zoom="0.31183274"
     inkscape:cx="1329.8525"
     inkscape:cy="1197.0226"
     inkscape:document-units="mm"
     inkscape:current-layer="layer1"
     showgrid="false"
     inkscape:measure-start="276.25,618.25"
     inkscape:measure-end="391,618.25"
     inkscape:window-width="1920"
     inkscape:window-height="1001"
     inkscape:window-x="-9"
     inkscape:window-y="-9"
     inkscape:window-maximized="1" />
  <metadata
     id="metadata5">
    <rdf:RDF>
      <cc:Work
         rdf:about="">
        <dc:format>image/svg+xml</dc:format>
        <dc:type
           rdf:resource="http://purl.org/dc/dcmitype/StillImage" />
        <dc:title />
      </cc:Work>
    </rdf:RDF>
  </metadata>
  <g
     inkscape:label="Calque 1"
     inkscape:groupmode="layer"
     id="layer1"
     transform="translate(0,303)">
    <circle
       style="opacity:1;fill:#000000;fill-opacity:1;stroke:none;stroke-width:0.02816991;stroke-linejoin:miter;stroke-miterlimit:4;stroke-dasharray:none;stroke-dashoffset:0;stroke-opacity:1"
       id="path4512"
       cx="-133.16833"
       cy="-92.183212"
       r="9.75"
       transform="rotate(90)" />
    <circle
       style="opacity:1;fill:#000000;fill-opacity:1;stroke:none;stroke-width:0.2671864;stroke-linejoin:miter;stroke-miterlimit:4;stroke-dasharray:none;stroke-dashoffset:0;stroke-opacity:1"
       id="path4514"
       cx="-133.16833"
       cy="-92.183212"
       r="76.5"
       transform="rotate(90)" />
    <circle
       style="opacity:1;fill:#000000;fill-opacity:1;stroke:none;stroke-width:0.28963116;stroke-linejoin:miter;stroke-miterlimit:4;stroke-dasharray:none;stroke-dashoffset:0;stroke-opacity:1"
       id="path4516"
       cx="-133.16833"
       cy="-92.183212"
       r="78"
       transform="rotate(90)" />
    <path
       sodipodi:type="star"
       style="opacity:1;fill:#000000;fill-opacity:1;stroke:none;stroke-width:0.14072511;stroke-linejoin:miter;stroke-miterlimit:4;stroke-dasharray:none;stroke-dashoffset:0;stroke-opacity:1"
       id="path4518"
       sodipodi:sides="8"
       sodipodi:cx="467.20807"
       sodipodi:cy="145.40202"
       sodipodi:r1="58.534145"
       sodipodi:r2="78.045525"
       sodipodi:arg1="-0.52359878"
       sodipodi:arg2="-0.1308997"
       inkscape:flatsided="false"
       inkscape:rounded="1"
       inkscape:randomized="0"
       d="m 517.90013,116.13495 c 16.40259,28.41013 22.40384,-13.44445 26.68577,19.08009 4.28194,32.52453 -12.34758,-6.35065 -20.83819,25.33673 -8.49061,31.68738 25.34857,6.33525 5.37804,32.36136 -19.97054,26.0261 -4.24048,-13.22164 -32.65061,3.18095 -28.41013,16.40259 13.44445,22.40384 -19.08009,26.68578 -32.52453,4.28193 6.35065,-12.34759 -25.33673,-20.83819 -31.68738,-8.49061 -6.33525,25.34857 -32.36136,5.37803 -26.0261,-19.97053 13.22165,-4.24048 -3.18095,-32.6506 -16.40259,-28.41013 -22.40384,13.44445 -26.68578,-19.08009 -4.28193,-32.52454 12.34759,6.35064 20.8382,-25.33674 8.4906,-31.687378 -25.34857,-6.33524 -5.37804,-32.361351 19.97053,-26.026107 4.24048,13.221641 32.65061,-3.180952 28.41012,-16.402595 -13.44445,-22.403841 19.08008,-26.685778 32.52454,-4.281937 -6.35064,12.347584 25.33674,20.838192 31.68738,8.490607 6.33525,-25.348569 32.36135,-5.378036 26.02611,19.970535 -13.22164,4.240478 3.18096,32.650605 z"
       inkscape:transform-center-x="2.6802354e-005"
       inkscape:transform-center-y="-9.7933941e-006"
       transform="matrix(-0.1225832,0.99120228,-0.99120228,-0.1225832,293.5779,-578.4422)" />
    <circle
       style="opacity:1;fill:#000000;fill-opacity:1;stroke:none;stroke-width:0.02338463;stroke-linejoin:miter;stroke-miterlimit:4;stroke-dasharray:none;stroke-dashoffset:0;stroke-opacity:1"
       id="path4520"
       cx="-133.56522"
       cy="-167.58948"
       r="1"
       transform="rotate(90)" />
    <circle
       style="opacity:1;fill:#000000;fill-opacity:1;stroke:none;stroke-width:0.02338463;stroke-linejoin:miter;stroke-miterlimit:4;stroke-dasharray:none;stroke-dashoffset:0;stroke-opacity:1"
       id="path4520-5"
       cx="-79.872765"
       cy="-145.67725"
       r="1"
       transform="rotate(90)" />
    <circle
       style="opacity:1;fill:#000000;fill-opacity:1;stroke:none;stroke-width:0.02338463;stroke-linejoin:miter;stroke-miterlimit:4;stroke-dasharray:none;stroke-dashoffset:0;stroke-opacity:1"
       id="path4520-9"
       cx="-57.677834"
       cy="-93.399521"
       r="1"
       transform="rotate(90)" />
    <circle
       style="opacity:1;fill:#000000;fill-opacity:1;stroke:none;stroke-width:0.02338463;stroke-linejoin:miter;stroke-miterlimit:4;stroke-dasharray:none;stroke-dashoffset:0;stroke-opacity:1"
       id="path4520-0"
       cx="-78.608391"
       cy="-40.009083"
       r="1"
       transform="rotate(90)" />
    <circle
       style="opacity:1;fill:#000000;fill-opacity:1;stroke:none;stroke-width:0.02338463;stroke-linejoin:miter;stroke-miterlimit:4;stroke-dasharray:none;stroke-dashoffset:0;stroke-opacity:1"
       id="path4520-2"
       cx="-132.57762"
       cy="-16.687338"
       r="1"
       transform="rotate(90)" />
    <circle
       style="opacity:1;fill:#000000;fill-opacity:1;stroke:none;stroke-width:0.02338463;stroke-linejoin:miter;stroke-miterlimit:4;stroke-dasharray:none;stroke-dashoffset:0;stroke-opacity:1"
       id="path4520-2-6"
       cx="-186.17619"
       cy="-38.412403"
       r="1"
       transform="rotate(90)" />
    <circle
       style="opacity:1;fill:#000000;fill-opacity:1;stroke:none;stroke-width:0.02338463;stroke-linejoin:miter;stroke-miterlimit:4;stroke-dasharray:none;stroke-dashoffset:0;stroke-opacity:1"
       id="path4520-2-1"
       cx="-208.6584"
       cy="-91.247978"
       r="1"
       transform="rotate(90)" />
    <circle
       style="opacity:1;fill:#000000;fill-opacity:1;stroke:none;stroke-width:0.02338463;stroke-linejoin:miter;stroke-miterlimit:4;stroke-dasharray:none;stroke-dashoffset:0;stroke-opacity:1"
       id="path4520-2-2"
       cx="-186.92979"
       cy="-145.21423"
       r="1"
       transform="rotate(90)" />
    <path
       style="opacity:1;fill:#000000;fill-opacity:1;stroke:none;stroke-width:0.14054969;stroke-linejoin:miter;stroke-miterlimit:4;stroke-dasharray:none;stroke-dashoffset:0;stroke-opacity:1"
       d="m 171.07825,29.690159 c 0.002,-0.476668 9e-4,-0.970669 -0.003,-1.482596 -0.25728,-32.7632867 -11.33652,7.987205 -24.11222,-22.1836577 -12.77567,-30.1708653 24.19866,-9.768356 0.84958,-32.7535553 -23.34908,-22.985203 -2.3682,13.663989 -32.73599,1.363742 -30.367799,-12.30026 10.20394,-24.017613 -22.559356,-23.760309 -32.763279,0.257303 7.987216,11.336024 -22.183649,24.111707 -30.17086,12.775683 -9.76784,-24.198135 -32.75304,-0.849043 -22.9852,23.3490813 13.66398,2.368188 1.36374,32.7359853 -12.30026,30.3677947 -24.01813,-10.203942 -23.76082,22.5593447 0.2573,32.763285 11.33652,-7.987723 24.11222,22.183145 12.77567,30.170863 -24.19866,9.76835 -0.84955,32.753553 23.34908,22.985205 2.36818,-13.66399 32.73597,-1.36374 30.367785,12.30025 -10.20395,24.017615 22.559359,23.760315 32.763266,-0.2573 -7.987233,-11.336025 22.183636,-24.111715 30.17089,-12.77568 9.76784,24.198655 32.75307,0.84956 22.9852,-23.349083 -13.66401,-2.36819 -1.36375,-32.735983 12.10805,-29.893302 23.65156,8.95337 23.76393,-21.076753 z m -1.54255,-1.267622 a 1,1 0 0 1 -0.99994,0.999938 1,1 0 0 1 -1.00047,-0.999938 1,1 0 0 1 1.00047,-0.999939 1,1 0 0 1 0.99994,0.999939 z m -21.91237,53.692328 a 1,1 0 0 1 -0.99994,1.00046 1,1 0 0 1 -0.99994,-1.00046 1,1 0 0 1 0.99994,-0.99994 1,1 0 0 1 0.99994,0.99994 z m -0.46302,-107.057027 a 1,1 0 0 1 -0.99994,0.999937 1,1 0 0 1 -0.99994,-0.999937 1,1 0 0 1 0.99994,-0.99994 1,1 0 0 1 0.99994,0.99994 z M 102.8793,28.819412 a 9.75,9.75 0 0 1 -9.749786,9.749793 9.75,9.75 0 0 1 -9.750333,-9.749793 9.75,9.75 0 0 1 9.750333,-9.749792 9.75,9.75 0 0 1 9.749786,9.749792 z M 95.345404,104.3099 a 1,1 0 0 1 -0.99994,0.99994 1,1 0 0 1 -0.99994,-0.99994 1,1 0 0 1 0.99994,-0.99994 1,1 0 0 1 0.99994,0.99994 z m -2.15131,-150.980453 a 1,1 0 0 1 -0.99995,0.999939 1,1 0 0 1 -0.99993,-0.999939 1,1 0 0 1 0.99993,-0.999939 1,1 0 0 1 0.99995,0.999939 z M 41.955355,83.379385 a 1,1 0 0 1 -1.00044,0.99994 1,1 0 0 1 -0.99994,-0.99994 1,1 0 0 1 0.99994,-0.99993 1,1 0 0 1 1.00044,0.99993 z m -1.59678,-107.567588 a 1,1 0 0 1 -0.99994,0.999937 1,1 0 0 1 -0.99994,-0.999937 1,1 0 0 1 0.99994,-0.99994 1,1 0 0 1 0.99994,0.99994 z m -21.72531,53.598277 a 1,1 0 0 1 -0.99994,0.999939 1,1 0 0 1 -0.99994,-0.999939 1,1 0 0 1 0.99994,-0.99994 1,1 0 0 1 0.99994,0.99994 z"
       id="path4518-8"
       inkscape:connector-curvature="0" />
    <path
       inkscape:connector-curvature="0"
       style="opacity:1;fill:none;fill-opacity:1;stroke:#ff0000;stroke-width:0.1;stroke-linejoin:miter;stroke-miterlimit:4;stroke-dasharray:none;stroke-dashoffset:0;stroke-opacity:1"
       d="m 172.32819,198.7414 c 0.003,-0.47667 0,-0.97067 -0.003,-1.4826 -0.25728,-32.76329 -11.33652,7.9872 -24.11222,-22.18366 -12.77567,-30.17086 24.19866,-9.76836 0.84958,-32.75355 -23.34908,-22.98521 -2.36821,13.66399 -32.736,1.36374 -30.367804,-12.30026 10.20395,-24.01761 -22.559354,-23.76031 -32.763282,0.2573 7.987214,11.33602 -22.183652,24.11171 -30.17086,12.77568 -9.76783,-24.19814 -32.75303,-0.84905 -22.9852,23.34908 13.66398,2.36819 1.36374,32.73599 -12.30027,30.36779 -24.01813,-10.20394 -23.76083,22.55934 0.25731,32.76329 11.33653,-7.98772 24.11222,22.18315 12.77567,30.17086 -24.19866,9.76835 -0.84955,32.75355 23.34908,22.98521 2.36818,-13.66399 32.73597,-1.36374 30.367796,12.30025 -10.20395,24.01761 22.559362,23.76031 32.763274,-0.2573 -7.98723,-11.33602 22.183644,-24.11171 30.17089,-12.77568 9.76784,24.19865 32.75306,0.84956 22.9852,-23.34908 -13.66401,-2.36819 -1.36374,-32.73598 12.10805,-29.8933 23.65156,8.95337 23.76392,-21.07675 z m -1.54255,-1.26763 a 1,1 0 0 1 -0.99994,0.99994 1,1 0 0 1 -1.00047,-0.99994 1,1 0 0 1 1.00047,-0.99994 1,1 0 0 1 0.99994,0.99994 z m -21.91237,53.69233 a 1,1 0 0 1 -0.99994,1.00046 1,1 0 0 1 -0.99994,-1.00046 1,1 0 0 1 0.99994,-0.99993 1,1 0 0 1 0.99994,0.99993 z m -0.46302,-107.05703 a 1,1 0 0 1 -0.99994,0.99994 1,1 0 0 1 -0.99994,-0.99994 1,1 0 0 1 0.99994,-0.99994 1,1 0 0 1 0.99994,0.99994 z m -44.28101,53.76158 a 9.7500001,9.7500001 0 0 1 -9.749794,9.74979 9.7500001,9.7500001 0 0 1 -9.75033,-9.74979 9.7500001,9.7500001 0 0 1 9.75033,-9.74979 9.7500001,9.7500001 0 0 1 9.749794,9.74979 z m -7.533904,75.49048 a 1,1 0 0 1 -0.99994,0.99994 1,1 0 0 1 -0.99994,-0.99994 1,1 0 0 1 0.99994,-0.99994 1,1 0 0 1 0.99994,0.99994 z m -2.15131,-150.98045 a 1,1 0 0 1 -0.99994,0.99994 1,1 0 0 1 -0.99995,-0.99994 1,1 0 0 1 0.99995,-0.99994 1,1 0 0 1 0.99994,0.99994 z M 43.205294,252.43063 a 1,1 0 0 1 -1.00044,0.99994 1,1 0 0 1 -0.99994,-0.99994 1,1 0 0 1 0.99994,-0.99994 1,1 0 0 1 1.00044,0.99994 z m -1.59678,-107.5676 a 1,1 0 0 1 -0.99994,0.99994 1,1 0 0 1 -0.99994,-0.99994 1,1 0 0 1 0.99994,-0.99994 1,1 0 0 1 0.99994,0.99994 z m -21.72531,53.59828 a 1,1 0 0 1 -0.99994,0.99994 1,1 0 0 1 -0.99994,-0.99994 1,1 0 0 1 0.99994,-0.99994 1,1 0 0 1 0.99994,0.99994 z"
       id="path4518-8-7" />
    <circle
       style="opacity:1;fill:#000000;fill-opacity:1;stroke:none;stroke-width:0.02816991;stroke-linejoin:miter;stroke-miterlimit:4;stroke-dasharray:none;stroke-dashoffset:0;stroke-opacity:1"
       id="path4512-7"
       cx="-104.77311"
       cy="105.84675"
       r="9.75"
       transform="rotate(90)" />
    <circle
       style="opacity:1;fill:#000000;fill-opacity:1;stroke:none;stroke-width:0.2671864;stroke-linejoin:miter;stroke-miterlimit:4;stroke-dasharray:none;stroke-dashoffset:0;stroke-opacity:1"
       id="path4514-9"
       cx="-104.77311"
       cy="105.84675"
       r="76.5"
       transform="rotate(90)" />
    <circle
       style="opacity:1;fill:#000000;fill-opacity:1;stroke:none;stroke-width:0.28963116;stroke-linejoin:miter;stroke-miterlimit:4;stroke-dasharray:none;stroke-dashoffset:0;stroke-opacity:1"
       id="path4516-7"
       cx="-104.77311"
       cy="105.84675"
       r="78"
       transform="rotate(90)" />
    <path
       sodipodi:type="star"
       style="opacity:1;fill:#000000;fill-opacity:1;stroke:none;stroke-width:0.14072511;stroke-linejoin:miter;stroke-miterlimit:4;stroke-dasharray:none;stroke-dashoffset:0;stroke-opacity:1"
       id="path4518-2"
       sodipodi:sides="6"
       sodipodi:cx="467.20807"
       sodipodi:cy="145.40202"
       sodipodi:r1="58.534145"
       sodipodi:r2="78.045525"
       sodipodi:arg1="-0.52359878"
       sodipodi:arg2="-4.4017012e-009"
       inkscape:flatsided="false"
       inkscape:rounded="0.8"
       inkscape:randomized="0"
       d="m 517.90013,116.13495 c 16.02385,27.75412 27.35346,-2.78063 27.35346,29.26707 0,32.0477 -11.32961,1.51295 -27.35346,29.26708 -16.02385,27.75412 16.08483,22.29848 -11.6693,38.32233 -27.75412,16.02385 -6.97506,-9.05526 -39.02276,-9.05526 -32.0477,0 -11.26864,25.07911 -39.02276,9.05526 -27.75413,-16.02385 4.35455,-10.56821 -11.6693,-38.32233 -16.02385,-27.75413 -27.35347,2.78063 -27.35347,-29.26708 0,-32.0477 11.32962,-1.51295 27.35347,-29.26707 16.02385,-27.754123 -16.08483,-22.298482 11.6693,-38.322333 27.75412,-16.023852 6.97506,9.055261 39.02276,9.055261 32.0477,0 11.26864,-25.079113 39.02276,-9.055262 27.75412,16.023851 -4.35456,10.568211 11.6693,38.322334 z"
       inkscape:transform-center-x="2.1411042e-005"
       inkscape:transform-center-y="-1.626287e-005"
       transform="matrix(-0.50038496,0.86364776,-0.86364776,-0.50038496,253.46499,-435.56453)" />
    <circle
       style="opacity:1;fill:#000000;fill-opacity:1;stroke:none;stroke-width:0.02338463;stroke-linejoin:miter;stroke-miterlimit:4;stroke-dasharray:none;stroke-dashoffset:0;stroke-opacity:1"
       id="path4520-25"
       cx="-105.17002"
       cy="30.440485"
       r="1"
       transform="rotate(90)" />
    <circle
       style="opacity:1;fill:#000000;fill-opacity:1;stroke:none;stroke-width:0.02338463;stroke-linejoin:miter;stroke-miterlimit:4;stroke-dasharray:none;stroke-dashoffset:0;stroke-opacity:1"
       id="path4520-5-2"
       cx="-39.386723"
       cy="68.314705"
       r="1"
       transform="rotate(90)" />
    <circle
       style="opacity:1;fill:#000000;fill-opacity:1;stroke:none;stroke-width:0.02338463;stroke-linejoin:miter;stroke-miterlimit:4;stroke-dasharray:none;stroke-dashoffset:0;stroke-opacity:1"
       id="path4520-0-0"
       cx="-39.607182"
       cy="143.80888"
       r="1"
       transform="rotate(90)" />
    <circle
       style="opacity:1;fill:#000000;fill-opacity:1;stroke:none;stroke-width:0.02338463;stroke-linejoin:miter;stroke-miterlimit:4;stroke-dasharray:none;stroke-dashoffset:0;stroke-opacity:1"
       id="path4520-2-4"
       cx="-104.18241"
       cy="181.34264"
       r="1"
       transform="rotate(90)" />
    <circle
       style="opacity:1;fill:#000000;fill-opacity:1;stroke:none;stroke-width:0.02338463;stroke-linejoin:miter;stroke-miterlimit:4;stroke-dasharray:none;stroke-dashoffset:0;stroke-opacity:1"
       id="path4520-2-6-6"
       cx="-169.39453"
       cy="144.71617"
       r="1"
       transform="rotate(90)" />
    <circle
       style="opacity:1;fill:#000000;fill-opacity:1;stroke:none;stroke-width:0.02338463;stroke-linejoin:miter;stroke-miterlimit:4;stroke-dasharray:none;stroke-dashoffset:0;stroke-opacity:1"
       id="path4520-2-2-4"
       cx="-169.40894"
       cy="67.064919"
       r="1"
       transform="rotate(90)" />
    <path
       style="opacity:1;fill:#000000;fill-opacity:1;stroke:none;stroke-width:0.14046259;stroke-linejoin:miter;stroke-miterlimit:4;stroke-dasharray:none;stroke-dashoffset:0;stroke-opacity:1"
       d="m -25.743442,64.733008 c 0.0488,-31.98788 -11.30606,-1.52732 -27.25777,-29.25403 -15.95151,-27.7267003 16.089,-22.23227 -11.58893,-38.2684603 -27.67793,-16.0361897 -6.97617,9.02756 -38.964048,8.97878 -31.98786,-0.0488 -11.20942,-25.0493297 -38.93611,-9.09764 -27.72672,15.9517003 4.33043,10.55488 -11.70575,38.2328103 -16.03618,27.67793 -27.29786,-2.81705 -27.34664,29.17083 -0.0488,31.98788 11.30606,1.52732 27.25777,29.25403 15.95167,27.726692 -16.08897,22.232792 11.58893,38.268982 27.67793,16.03619 6.97616,-9.02808 38.96405,-8.9793 31.987858,0.0488 11.209418,25.04985 38.936108,9.09816 27.72672,-15.9517 -4.33043,-10.55541 11.70575,-38.233332 16.03618,-27.67792 27.29788,2.81705 27.34664,-29.17083 z m -1.44486,-0.47026 a 1,1 0 0 1 -1.00047,0.99994 1,1 0 0 1 -0.99994,-0.99994 1,1 0 0 1 0.99994,-0.99993 1,1 0 0 1 1.00047,0.99993 z M -63.812932,0.02377766 a 1,1 0 0 1 -0.99994,0.99994004 1,1 0 0 1 -0.99994,-0.99994004 1,1 0 0 1 0.99994,-0.99994 1,1 0 0 1 0.99994,0.99994 z M -65.062982,130.04582 a 1,1 0 0 1 -0.99994,0.99994 1,1 0 0 1 -0.99994,-0.99994 1,1 0 0 1 0.99994,-0.99994 1,1 0 0 1 0.99994,0.99994 z m -28.8303,-65.431662 a 9.75,9.75 0 0 1 -9.749788,9.7503 9.75,9.75 0 0 1 -9.74979,-9.7503 9.75,9.75 0 0 1 9.74979,-9.7498 9.75,9.75 0 0 1 9.749788,9.7498 z M -140.5571,129.82568 a 1,1 0 0 1 -0.99994,0.99994 1,1 0 0 1 -0.99994,-0.99994 1,1 0 0 1 0.99994,-1.00046 1,1 0 0 1 0.99994,1.00046 z M -141.46401,0.03824766 a 1,1 0 0 1 -0.99994,0.99994004 1,1 0 0 1 -1.00047,-0.99994004 1,1 0 0 1 1.00047,-0.99994 1,1 0 0 1 0.99994,0.99994 z M -178.0907,65.250288 a 1,1 0 0 1 -0.99994,0.99994 1,1 0 0 1 -0.99994,-0.99994 1,1 0 0 1 0.99994,-0.99994 1,1 0 0 1 0.99994,0.99994 z"
       id="path4518-2-7"
       inkscape:connector-curvature="0" />
    <path
       inkscape:connector-curvature="0"
       style="opacity:1;fill:none;fill-opacity:1;stroke:#ff0000;stroke-width:0.1;stroke-linejoin:miter;stroke-miterlimit:4;stroke-dasharray:none;stroke-dashoffset:0;stroke-opacity:1"
       d="m -21.248852,245.27485 c 0.0488,-31.98788 -11.30607,-1.52732 -27.25777,-29.25403 -15.95152,-27.7267 16.089,-22.23227 -11.58893,-38.26846 -27.67793,-16.03619 -6.97617,9.02756 -38.96405,8.97878 -31.987858,-0.0488 -11.209418,-25.04933 -38.936108,-9.09764 -27.72672,15.9517 4.33043,10.55488 -11.70575,38.23281 -16.03619,27.67793 -27.29786,-2.81705 -27.34665,29.17083 -0.0488,31.98788 11.30607,1.52732 27.25777,29.25403 15.95168,27.7267 -16.08896,22.2328 11.58894,38.26898 27.67793,16.03619 6.97616,-9.02808 38.964048,-8.97929 31.98786,0.0488 11.20942,25.04984 38.93611,9.09815 27.72672,-15.95169 -4.33044,-10.5554 11.70575,-38.23333 16.03618,-27.67792 27.29788,2.81705 27.34664,-29.17083 z m -1.44486,-0.47025 a 1,1 0 0 1 -1.00047,0.99994 1,1 0 0 1 -0.99994,-0.99994 1,1 0 0 1 0.99994,-0.99994 1,1 0 0 1 1.00047,0.99994 z m -36.62463,-64.23898 a 1,1 0 0 1 -0.99994,0.99994 1,1 0 0 1 -0.99994,-0.99994 1,1 0 0 1 0.99994,-0.99994 1,1 0 0 1 0.99994,0.99994 z m -1.25005,130.02204 a 1,1 0 0 1 -0.99994,0.99994 1,1 0 0 1 -0.99994,-0.99994 1,1 0 0 1 0.99994,-0.99994 1,1 0 0 1 0.99994,0.99994 z m -28.8303,-65.43166 a 9.7500001,9.7500001 0 0 1 -9.74979,9.75031 9.7500001,9.7500001 0 0 1 -9.749788,-9.75031 9.7500001,9.7500001 0 0 1 9.749788,-9.74979 9.7500001,9.7500001 0 0 1 9.74979,9.74979 z m -46.663818,65.21152 a 1,1 0 0 1 -0.99994,0.99994 1,1 0 0 1 -0.99994,-0.99994 1,1 0 0 1 0.99994,-1.00045 1,1 0 0 1 0.99994,1.00045 z m -0.90691,-129.78743 a 1,1 0 0 1 -0.99994,0.99994 1,1 0 0 1 -1.00047,-0.99994 1,1 0 0 1 1.00047,-0.99994 1,1 0 0 1 0.99994,0.99994 z m -36.62669,65.21205 a 1,1 0 0 1 -0.99994,0.99993 1,1 0 0 1 -0.99994,-0.99993 1,1 0 0 1 0.99994,-0.99994 1,1 0 0 1 0.99994,0.99994 z"
       id="path4518-2-7-9" />
    <flowRoot
       xml:space="preserve"
       id="flowRoot4626"
       style="font-style:normal;font-weight:normal;font-size:40px;line-height:1.25;font-family:sans-serif;letter-spacing:0px;word-spacing:0px;fill:#000000;fill-opacity:1;stroke:none"
       transform="matrix(0.26458333,0,0,0.26458333,380.21445,-769.97243)"><flowRegion
         id="flowRegion4628"><rect
           id="rect4630"
           width="793.87067"
           height="276.64514"
           x="-1362.8177"
           y="1834.608" /></flowRegion><flowPara
         id="flowPara4632">1) grand, pagode festons bas</flowPara><flowPara
         id="flowPara887">petites fleurs fond bleu</flowPara><flowPara
         id="flowPara889" /><flowPara
         id="flowPara875">156mm de diam. int.</flowPara><flowPara
         id="flowPara4636">8 baleines à éviter</flowPara></flowRoot>    <flowRoot
       xml:space="preserve"
       id="flowRoot4626-0"
       style="font-style:normal;font-weight:normal;font-size:40px;line-height:1.25;font-family:sans-serif;letter-spacing:0px;word-spacing:0px;fill:#000000;fill-opacity:1;stroke:none"
       transform="matrix(0.26458333,0,0,0.26458333,590.18325,-771.6059)"><flowRegion
         id="flowRegion4628-6"><rect
           id="rect4630-9"
           width="713.69952"
           height="234.95613"
           x="-1362.8177"
           y="1834.608" /></flowRegion><flowPara
         id="flowPara4632-5">2) moyen, cone, roses fond bleu</flowPara><flowPara
         id="flowPara4636-5">147mm de diam. int.</flowPara></flowRoot>    <flowRoot
       xml:space="preserve"
       id="flowRoot4626-0-3"
       style="font-style:normal;font-weight:normal;font-size:40px;line-height:1.25;font-family:sans-serif;letter-spacing:0px;word-spacing:0px;fill:#000000;fill-opacity:1;stroke:none"
       transform="matrix(0.26458333,0,0,0.26458333,801.14481,-773.2829)"><flowRegion
         id="flowRegion4628-6-8"><rect
           id="rect4630-9-6"
           width="793.87067"
           height="260.6109"
           x="-1362.8177"
           y="1834.608" /></flowRegion><flowPara
         id="flowPara4632-5-8">3) grand, dome à col</flowPara><flowPara
         id="flowPara883">colonnes fleurs fond vert et ponpons</flowPara><flowPara
         id="flowPara885" /><flowPara
         id="flowPara879">100mm de diam. int.</flowPara><flowPara
         id="flowPara4636-5-7">8 baleines à éviter</flowPara></flowRoot>    <circle
       style="opacity:1;fill:#000000;fill-opacity:1;stroke:none;stroke-width:0.02816991;stroke-linejoin:miter;stroke-miterlimit:4;stroke-dasharray:none;stroke-dashoffset:0;stroke-opacity:1"
       id="path4512-3"
       cx="-130.68434"
       cy="-294.52316"
       r="9.75"
       transform="rotate(90)" />
    <circle
       style="opacity:1;fill:#000000;fill-opacity:1;stroke:none;stroke-width:0.25146955;stroke-linejoin:miter;stroke-miterlimit:4;stroke-dasharray:none;stroke-dashoffset:0;stroke-opacity:1"
       id="path4514-4"
       cx="-130.68434"
       cy="-294.52316"
       r="72"
       transform="rotate(90)" />
    <circle
       style="opacity:1;fill:#000000;fill-opacity:1;stroke:none;stroke-width:0.27292168;stroke-linejoin:miter;stroke-miterlimit:4;stroke-dasharray:none;stroke-dashoffset:0;stroke-opacity:1"
       id="path4516-4"
       cx="-130.68434"
       cy="-294.52316"
       r="73.5"
       transform="rotate(90)" />
    <path
       sodipodi:type="star"
       style="opacity:1;fill:#000000;fill-opacity:1;stroke:none;stroke-width:0.14072511;stroke-linejoin:miter;stroke-miterlimit:4;stroke-dasharray:none;stroke-dashoffset:0;stroke-opacity:1"
       id="path4518-80"
       sodipodi:sides="8"
       sodipodi:cx="467.20807"
       sodipodi:cy="145.40202"
       sodipodi:r1="58.534145"
       sodipodi:r2="78.045525"
       sodipodi:arg1="-0.52359878"
       sodipodi:arg2="-0.1308997"
       inkscape:flatsided="false"
       inkscape:rounded="0.9"
       inkscape:randomized="0"
       d="m 517.90013,116.13495 c 14.76233,25.56911 22.83203,-10.192 26.68577,19.08009 3.85375,29.27208 -13.19664,-3.18191 -20.83819,25.33673 -7.64155,28.51865 23.35152,8.93786 5.37804,32.36136 -17.97348,23.42349 -7.08149,-11.58139 -32.65061,3.18095 -25.56911,14.76234 10.192,22.83203 -19.08009,26.68578 -29.27208,3.85374 3.18191,-13.19665 -25.33673,-20.83819 -28.51864,-7.64155 -8.93786,23.35151 -32.36136,5.37803 -23.42349,-17.97348 11.58139,-7.08149 -3.18095,-32.6506 -14.76233,-25.56912 -22.83203,10.19199 -26.68578,-19.08009 -3.85374,-29.27208 13.19665,3.1819 20.8382,-25.33674 7.64154,-28.51864 -23.35152,-8.93786 -5.37804,-32.361351 17.97348,-23.423497 7.08149,11.581381 32.65061,-3.180952 25.56911,-14.762336 -10.192,-22.832035 19.08008,-26.685778 29.27209,-3.853743 -3.1819,13.196645 25.33674,20.838192 28.51864,7.641546 8.93786,-23.351516 32.36135,-5.378036 23.4235,17.973485 -11.58138,7.081491 3.18096,32.650605 z"
       inkscape:transform-center-x="2.5974926e-005"
       inkscape:transform-center-y="-1.158678e-005"
       transform="matrix(-0.11558519,0.93461665,-0.93461665,-0.11558519,484.42066,-550.53846)" />
    <circle
       style="opacity:1;fill:#000000;fill-opacity:1;stroke:none;stroke-width:0.02338463;stroke-linejoin:miter;stroke-miterlimit:4;stroke-dasharray:none;stroke-dashoffset:0;stroke-opacity:1"
       id="path4520-8"
       cx="-131.09395"
       cy="-365.51743"
       r="1"
       transform="rotate(90)" />
    <circle
       style="opacity:1;fill:#000000;fill-opacity:1;stroke:none;stroke-width:0.02338463;stroke-linejoin:miter;stroke-miterlimit:4;stroke-dasharray:none;stroke-dashoffset:0;stroke-opacity:1"
       id="path4520-5-4"
       cx="-81.113792"
       cy="-345.36761"
       r="1"
       transform="rotate(90)" />
    <circle
       style="opacity:1;fill:#000000;fill-opacity:1;stroke:none;stroke-width:0.02338463;stroke-linejoin:miter;stroke-miterlimit:4;stroke-dasharray:none;stroke-dashoffset:0;stroke-opacity:1"
       id="path4520-9-9"
       cx="-59.706314"
       cy="-295.15228"
       r="1"
       transform="rotate(90)" />
    <circle
       style="opacity:1;fill:#000000;fill-opacity:1;stroke:none;stroke-width:0.02338463;stroke-linejoin:miter;stroke-miterlimit:4;stroke-dasharray:none;stroke-dashoffset:0;stroke-opacity:1"
       id="path4520-0-01"
       cx="-80.599373"
       cy="-246.82405"
       r="1"
       transform="rotate(90)" />
    <circle
       style="opacity:1;fill:#000000;fill-opacity:1;stroke:none;stroke-width:0.02338463;stroke-linejoin:miter;stroke-miterlimit:4;stroke-dasharray:none;stroke-dashoffset:0;stroke-opacity:1"
       id="path4520-2-28"
       cx="-130.14386"
       cy="-223.5023"
       r="1"
       transform="rotate(90)" />
    <circle
       style="opacity:1;fill:#000000;fill-opacity:1;stroke:none;stroke-width:0.02338463;stroke-linejoin:miter;stroke-miterlimit:4;stroke-dasharray:none;stroke-dashoffset:0;stroke-opacity:1"
       id="path4520-2-6-66"
       cx="-180.95511"
       cy="-244.43192"
       r="1"
       transform="rotate(90)" />
    <circle
       style="opacity:1;fill:#000000;fill-opacity:1;stroke:none;stroke-width:0.02338463;stroke-linejoin:miter;stroke-miterlimit:4;stroke-dasharray:none;stroke-dashoffset:0;stroke-opacity:1"
       id="path4520-2-1-7"
       cx="-201.68741"
       cy="-294.05069"
       r="1"
       transform="rotate(90)" />
    <circle
       style="opacity:1;fill:#000000;fill-opacity:1;stroke:none;stroke-width:0.02338463;stroke-linejoin:miter;stroke-miterlimit:4;stroke-dasharray:none;stroke-dashoffset:0;stroke-opacity:1"
       id="path4520-2-2-0"
       cx="-181.25304"
       cy="-344.34708"
       r="1"
       transform="rotate(90)" />
    <circle
       style="opacity:1;fill:#000000;fill-opacity:1;stroke:none;stroke-width:0.02816991;stroke-linejoin:miter;stroke-miterlimit:4;stroke-dasharray:none;stroke-dashoffset:0;stroke-opacity:1"
       id="path4512-3-6"
       cx="-141.77341"
       cy="-489.77042"
       r="9.75"
       transform="rotate(90)" />
    <circle
       style="opacity:1;fill:#000000;fill-opacity:1;stroke:none;stroke-width:0.16939269;stroke-linejoin:miter;stroke-miterlimit:4;stroke-dasharray:none;stroke-dashoffset:0;stroke-opacity:1"
       id="path4514-4-4"
       cx="-141.77341"
       cy="-489.77042"
       r="48.5"
       transform="rotate(90)" />
    <circle
       style="opacity:1;fill:#000000;fill-opacity:1;stroke:none;stroke-width:0.185661;stroke-linejoin:miter;stroke-miterlimit:4;stroke-dasharray:none;stroke-dashoffset:0;stroke-opacity:1"
       id="path4516-4-9"
       cx="-141.77341"
       cy="-489.77042"
       r="50"
       transform="rotate(90)" />
    <path
       sodipodi:type="star"
       style="opacity:1;fill:#000000;fill-opacity:1;stroke:none;stroke-width:0.14072511;stroke-linejoin:miter;stroke-miterlimit:4;stroke-dasharray:none;stroke-dashoffset:0;stroke-opacity:1"
       id="path4518-80-6"
       sodipodi:sides="8"
       sodipodi:cx="467.20807"
       sodipodi:cy="145.40202"
       sodipodi:r1="58.534145"
       sodipodi:r2="78.045525"
       sodipodi:arg1="-0.52359878"
       sodipodi:arg2="-0.1308997"
       inkscape:flatsided="false"
       inkscape:rounded="0.9"
       inkscape:randomized="0"
       d="m 517.90013,116.13495 c 14.76233,25.56911 22.83203,-10.192 26.68577,19.08009 3.85375,29.27208 -13.19664,-3.18191 -20.83819,25.33673 -7.64155,28.51865 23.35152,8.93786 5.37804,32.36136 -17.97348,23.42349 -7.08149,-11.58139 -32.65061,3.18095 -25.56911,14.76234 10.192,22.83203 -19.08009,26.68578 -29.27208,3.85374 3.18191,-13.19665 -25.33673,-20.83819 -28.51864,-7.64155 -8.93786,23.35151 -32.36136,5.37803 -23.42349,-17.97348 11.58139,-7.08149 -3.18095,-32.6506 -14.76233,-25.56912 -22.83203,10.19199 -26.68578,-19.08009 -3.85374,-29.27208 13.19665,3.1819 20.8382,-25.33674 7.64154,-28.51864 -23.35152,-8.93786 -5.37804,-32.361351 17.97348,-23.423497 7.08149,11.581381 32.65061,-3.180952 25.56911,-14.762336 -10.192,-22.832035 19.08008,-26.685778 29.27209,-3.853743 -3.1819,13.196645 25.33674,20.838192 28.51864,7.641546 8.93786,-23.351516 32.36135,-5.378036 23.4235,17.973485 -11.58138,7.081491 3.18096,32.650605 z"
       inkscape:transform-center-x="1.4495937e-005"
       inkscape:transform-center-y="-6.627914e-006"
       transform="matrix(-0.07863048,0.63580255,-0.63580255,-0.07863048,618.95419,-427.39246)" />
    <circle
       style="opacity:1;fill:#000000;fill-opacity:1;stroke:none;stroke-width:0.02338463;stroke-linejoin:miter;stroke-miterlimit:4;stroke-dasharray:none;stroke-dashoffset:0;stroke-opacity:1"
       id="path4520-8-1"
       cx="-141.89952"
       cy="-537.26068"
       r="1"
       transform="rotate(90)" />
    <circle
       style="opacity:1;fill:#000000;fill-opacity:1;stroke:none;stroke-width:0.02338463;stroke-linejoin:miter;stroke-miterlimit:4;stroke-dasharray:none;stroke-dashoffset:0;stroke-opacity:1"
       id="path4520-5-4-2"
       cx="-108.65276"
       cy="-523.69171"
       r="1"
       transform="rotate(90)" />
    <circle
       style="opacity:1;fill:#000000;fill-opacity:1;stroke:none;stroke-width:0.02338463;stroke-linejoin:miter;stroke-miterlimit:4;stroke-dasharray:none;stroke-dashoffset:0;stroke-opacity:1"
       id="path4520-9-9-4"
       cx="-94.294868"
       cy="-490.35037"
       r="1"
       transform="rotate(90)" />
    <circle
       style="opacity:1;fill:#000000;fill-opacity:1;stroke:none;stroke-width:0.02338463;stroke-linejoin:miter;stroke-miterlimit:4;stroke-dasharray:none;stroke-dashoffset:0;stroke-opacity:1"
       id="path4520-0-01-2"
       cx="-108.02888"
       cy="-456.34357"
       r="1"
       transform="rotate(90)" />
    <circle
       style="opacity:1;fill:#000000;fill-opacity:1;stroke:none;stroke-width:0.02338463;stroke-linejoin:miter;stroke-miterlimit:4;stroke-dasharray:none;stroke-dashoffset:0;stroke-opacity:1"
       id="path4520-2-28-5"
       cx="-141.55876"
       cy="-442.2865"
       r="1"
       transform="rotate(90)" />
    <circle
       style="opacity:1;fill:#000000;fill-opacity:1;stroke:none;stroke-width:0.02338463;stroke-linejoin:miter;stroke-miterlimit:4;stroke-dasharray:none;stroke-dashoffset:0;stroke-opacity:1"
       id="path4520-2-6-66-9"
       cx="-175.42534"
       cy="-456.25861"
       r="1"
       transform="rotate(90)" />
    <circle
       style="opacity:1;fill:#000000;fill-opacity:1;stroke:none;stroke-width:0.02338463;stroke-linejoin:miter;stroke-miterlimit:4;stroke-dasharray:none;stroke-dashoffset:0;stroke-opacity:1"
       id="path4520-2-1-7-2"
       cx="-189.28423"
       cy="-489.43518"
       r="1"
       transform="rotate(90)" />
    <circle
       style="opacity:1;fill:#000000;fill-opacity:1;stroke:none;stroke-width:0.02338463;stroke-linejoin:miter;stroke-miterlimit:4;stroke-dasharray:none;stroke-dashoffset:0;stroke-opacity:1"
       id="path4520-2-2-0-6"
       cx="-175.69072"
       cy="-522.97412"
       r="1"
       transform="rotate(90)" />
    <path
       style="opacity:1;fill:#000000;fill-opacity:1;stroke:none;stroke-width:0.13252601;stroke-linejoin:miter;stroke-miterlimit:4;stroke-dasharray:none;stroke-dashoffset:0;stroke-opacity:1"
       d="m 295.26515,-43.48157 c -0.40553,-0.0026 -0.82545,-0.0024 -1.25987,10e-4 -27.8036,0.218361 4.68707,11.893867 -20.91655,22.735566 -25.6036,10.8417253 -11.37817,-20.615486 -30.8839,-0.800973 -19.50572,19.814513 11.72448,5.096616 1.28623,30.86735 -10.43825,25.77076 -22.62267,-6.532034 -22.40432,21.271573 0.21835,27.803607 11.89385,-4.686538 22.73556,20.917085 10.84172,25.603623 -20.6155,11.377665 -0.80098,30.88339 19.81451,19.505709 5.0961,-11.724276 30.86685,-1.286252 25.77073,10.438262 -6.53204,22.622701 21.27157,22.404331 27.80361,-0.21836 -4.68656,-11.893839 20.91706,-22.735563 25.60362,-10.841725 11.37766,20.615513 30.88338,0.800974 19.50575,-19.814514 -11.72395,-5.096087 -1.28569,-30.866848 10.43824,-25.770733 22.62267,6.53206 22.40431,-21.271573 -0.21836,-27.803575 -11.89384,4.686596 -22.73557,-20.917027 -10.84172,-25.603623 20.61552,-11.377665 0.80098,-30.883383 -19.81452,-19.505718 -5.09662,11.723952 -30.86735,1.285716 -25.36809,-10.275146 5.53691,-22.242171 -20.01171,-22.405366 z m -1.15496,1.49397 a 1,1 0 0 1 0.99994,1.000469 1,1 0 0 1 -0.99994,0.99994 1,1 0 0 1 -0.99994,-0.99994 1,1 0 0 1 0.99994,-1.000469 z m 50.29666,20.434405 a 1,1 0 0 1 0.99994,0.99994 1,1 0 0 1 -0.99994,1.000469 1,1 0 0 1 -1.00044,-1.000469 1,1 0 0 1 1.00044,-0.99994 z m -99.91534,0.298186 a 1,1 0 0 1 0.99994,0.99994 1,1 0 0 1 -0.99994,0.999939 1,1 0 0 1 -0.99994,-0.999939 1,1 0 0 1 0.99994,-0.99994 z m 50.09099,41.520453 a 9.75,9.75 0 0 1 9.75032,9.750319 9.75,9.75 0 0 1 -9.75032,9.74979 9.75,9.75 0 0 1 -9.74979,-9.74979 9.75,9.75 0 0 1 9.74979,-9.750319 z m 70.99464,8.340593 a 1,1 0 0 1 0.99994,0.99994 1,1 0 0 1 -0.99994,0.999939 1,1 0 0 1 -0.99994,-0.999939 1,1 0 0 1 0.99994,-0.99994 z m -142.0151,0.95033 a 1,1 0 0 1 0.99994,0.99994 1,1 0 0 1 -0.99994,0.99994 1,1 0 0 1 -0.99994,-0.99994 1,1 0 0 1 0.99994,-0.99994 z m 121.86491,49.030069 a 1,1 0 0 1 1.00047,0.99994 1,1 0 0 1 -1.00047,0.99994 1,1 0 0 1 -0.99994,-0.99994 1,1 0 0 1 0.99994,-0.99994 z m -98.54334,0.514192 a 1,1 0 0 1 0.99994,0.999939 1,1 0 0 1 -0.99994,0.99994 1,1 0 0 1 -0.99993,-0.99994 1,1 0 0 1 0.99993,-0.999939 z m 48.32831,20.893303 a 1,1 0 0 1 0.99994,0.999939 1,1 0 0 1 -0.99994,0.99994 1,1 0 0 1 -0.99994,-0.99994 1,1 0 0 1 0.99994,-0.999939 z"
       id="path4518-80-4"
       inkscape:connector-curvature="0" />
    <path
       inkscape:connector-curvature="0"
       style="opacity:1;fill:none;fill-opacity:1;stroke:#ff0000;stroke-width:0.1;stroke-linejoin:miter;stroke-miterlimit:4;stroke-dasharray:none;stroke-dashoffset:0;stroke-opacity:1"
       d="m 296.53516,112.38526 c -0.40552,-0.003 -0.82544,-0.003 -1.25986,0 -27.80361,0.21836 4.68707,11.89387 -20.91656,22.73557 -25.6036,10.84172 -11.37817,-20.61549 -30.8839,-0.80098 -19.50572,19.81452 11.72448,5.09662 1.28623,30.86735 -10.43825,25.77076 -22.62267,-6.53203 -22.40432,21.27158 0.21836,27.8036 11.89385,-4.68654 22.73557,20.91708 10.84171,25.60363 -20.61551,11.37767 -0.80099,30.88339 19.81452,19.50571 5.0961,-11.72427 30.86685,-1.28625 25.77073,10.43826 -6.53203,22.6227 21.27157,22.40433 27.80361,-0.21836 -4.68656,-11.89384 20.91706,-22.73556 25.60363,-10.84173 11.37767,20.61551 30.88339,0.80097 19.50574,-19.81451 -11.72395,-5.09609 -1.28569,-30.86685 10.43823,-25.77073 22.62267,6.53206 22.40431,-21.27157 -0.21836,-27.80361 -11.89384,4.68656 -22.73557,-20.91706 -10.84173,-25.60362 20.61551,-11.37766 0.80097,-30.88338 -19.81451,-19.50572 -5.09661,11.72395 -30.86735,1.28572 -25.36809,-10.27515 5.53691,-22.24218 -20.01171,-22.40537 z m -1.15495,1.49397 a 1,1 0 0 1 0.99994,1.00047 1,1 0 0 1 -0.99994,0.99994 1,1 0 0 1 -0.99994,-0.99994 1,1 0 0 1 0.99994,-1.00047 z m 50.29665,20.43441 a 1,1 0 0 1 0.99994,0.99994 1,1 0 0 1 -0.99994,1.00046 1,1 0 0 1 -1.00044,-1.00046 1,1 0 0 1 1.00044,-0.99994 z m -99.91533,0.29818 a 1,1 0 0 1 0.99993,0.99994 1,1 0 0 1 -0.99993,0.99994 1,1 0 0 1 -0.99994,-0.99994 1,1 0 0 1 0.99994,-0.99994 z m 50.09098,41.52045 a 9.7500001,9.7500001 0 0 1 9.75032,9.75032 9.7500001,9.7500001 0 0 1 -9.75032,9.74979 9.7500001,9.7500001 0 0 1 -9.74979,-9.74979 9.7500001,9.7500001 0 0 1 9.74979,-9.75032 z m 70.99464,8.3406 a 1,1 0 0 1 0.99994,0.99994 1,1 0 0 1 -0.99994,0.99994 1,1 0 0 1 -0.99993,-0.99994 1,1 0 0 1 0.99993,-0.99994 z m -142.0151,0.95033 a 1,1 0 0 1 0.99994,0.99994 1,1 0 0 1 -0.99994,0.99994 1,1 0 0 1 -0.99993,-0.99994 1,1 0 0 1 0.99993,-0.99994 z m 121.86491,49.03007 a 1,1 0 0 1 1.00047,0.99994 1,1 0 0 1 -1.00047,0.99994 1,1 0 0 1 -0.99994,-0.99994 1,1 0 0 1 0.99994,-0.99994 z m -98.54333,0.51419 a 1,1 0 0 1 0.99994,0.99994 1,1 0 0 1 -0.99994,0.99994 1,1 0 0 1 -0.99994,-0.99994 1,1 0 0 1 0.99994,-0.99994 z m 48.3283,20.8933 a 1,1 0 0 1 0.99994,0.99994 1,1 0 0 1 -0.99994,0.99994 1,1 0 0 1 -0.99994,-0.99994 1,1 0 0 1 0.99994,-0.99994 z"
       id="path4518-80-4-6" />
    <path
       id="path4520-2-2-0-6-1"
       style="opacity:1;fill:#000000;fill-opacity:1;stroke:none;stroke-width:0.02338463;stroke-linejoin:miter;stroke-miterlimit:4;stroke-dasharray:none;stroke-dashoffset:0;stroke-opacity:1"
       d="m 523.29406,-60.011067 a 1,1 0 0 1 -1,-1 1,1 0 0 1 1,-1 1,1 0 0 1 1,1 1,1 0 0 1 -1,1 z m -33.53894,-13.593506 a 1,1 0 0 1 -1,-1 1,1 0 0 1 1,-1 1,1 0 0 1 1,1 1,1 0 0 1 -1,1 z m -33.17657,13.858887 a 1,1 0 0 1 -1,-1 1,1 0 0 1 1,-1 1,1 0 0 1 1,1 1,1 0 0 1 -1,1 z m -13.97211,33.866578 a 1,1 0 0 1 -1,-1 1,1 0 0 1 1,-1 1,1 0 0 1 1,1 1,1 0 0 1 -1,1 z m 14.05707,33.5298777 a 1,1 0 0 1 -1,-1 1,1 0 0 1 1,-1 1,1 0 0 1 1,1 1,1 0 0 1 -1,1 z m 34.0068,13.7340073 a 1,1 0 0 1 -1,-1 1,1 0 0 1 1,-1 1,1 0 0 1 1,1 1,1 0 0 1 -1,1 z M 524.01165,7.0268837 a 1,1 0 0 1 -1,-1 1,1 0 0 1 1,-1 1,1 0 0 1 1,1 1,1 0 0 1 -1,1 z m 13.56897,-33.2467507 a 1,1 0 0 1 -1,-1 1,1 0 0 1 1,-1 1,1 0 0 1 1,1 1,1 0 0 1 -1,1 z M 490.09021,-36.84367 a 9.75,9.75 0 0 1 9.75032,9.74979 9.75,9.75 0 0 1 -9.75032,9.750318 9.75,9.75 0 0 1 -9.74979,-9.750318 9.75,9.75 0 0 1 9.74979,-9.74979 z m -0.39272,-40.248191 c -18.9143,0.148539 3.18857,8.091336 -14.22911,15.466755 -17.41768,7.375419 -7.7402,-14.024641 -21.00958,-0.545187 -13.26938,13.479454 7.97584,3.467351 0.8749,20.998727 -7.10097,17.531371 -15.39,-4.443862 -15.24146,14.470433 0.14854,18.9142684 8.09133,-3.18807 15.46675,14.229609 7.37542,17.4176797 -14.02464,7.7402 -0.54517,21.0095827 13.47946,13.2693843 3.46733,-7.97583804 20.9987,-0.874897 17.53138,7.1009673 -4.44383,15.3894893 14.47044,15.2409263 18.91429,-0.148537 -3.18805,-8.0908 14.22963,-15.4662193 17.41768,-7.37541904 7.74018,14.0241073 21.00956,0.544671 13.26938,-13.4794621 -7.97584,-3.466835 -0.87487,-20.9982057 7.10094,-17.531371 15.38946,4.4433329 15.24092,-14.470962 -0.14853,-18.914268 -8.09082,3.188573 -15.46624,-14.229106 -7.37542,-17.417672 14.02413,-7.740174 0.54467,-21.009562 -13.47946,-13.269386 -3.46684,7.97583 -20.99821,0.874882 -17.53137,-7.100951 4.44334,-15.38999 -14.47093,-15.241447 z"
       inkscape:connector-curvature="0" />
    <path
       id="path4520-2-2-0-6-1-7"
       style="opacity:1;fill:none;fill-opacity:1;stroke:#ff0000;stroke-width:0.1;stroke-linejoin:miter;stroke-miterlimit:4;stroke-dasharray:none;stroke-dashoffset:0;stroke-opacity:1"
       d="m 524.57501,51.695274 a 1,1 0 0 1 -1,-1 1,1 0 0 1 1,-1 1,1 0 0 1 1,1 1,1 0 0 1 -1,1 z m -33.53894,-13.5935 a 1,1 0 0 1 -1,-1 1,1 0 0 1 1,-1 1,1 0 0 1 1,1 1,1 0 0 1 -1,1 z m -33.17657,13.85888 a 1,1 0 0 1 -1,-1 1,1 0 0 1 1,-1 1,1 0 0 1 1,1 1,1 0 0 1 -1,1 z m -13.97211,33.86658 a 1,1 0 0 1 -1,-1 1,1 0 0 1 1,-1 1,1 0 0 1 1,1 1,1 0 0 1 -1,1 z m 14.05707,33.529876 a 1,1 0 0 1 -1,-1 1,1 0 0 1 1,-1 1,1 0 0 1 1,1 1,1 0 0 1 -1,1 z m 34.0068,13.73401 a 1,1 0 0 1 -1,-1 1,1 0 0 1 1,-1 1,1 0 0 1 1,1 1,1 0 0 1 -1,1 z m 33.34134,-14.3579 a 1,1 0 0 1 -1,-1 1,1 0 0 1 1,-1 1,1 0 0 1 1,1 1,1 0 0 1 -1,1 z m 13.56897,-33.246746 a 1,1 0 0 1 -1,-1 1,1 0 0 1 1,-1 1,1 0 0 1 1,1 1,1 0 0 1 -1,1 z m -47.49041,-10.6238 a 9.7500001,9.7500001 0 0 1 9.75032,9.74979 9.7500001,9.7500001 0 0 1 -9.75032,9.75032 9.7500001,9.7500001 0 0 1 -9.74979,-9.75032 9.7500001,9.7500001 0 0 1 9.74979,-9.74979 z m -0.39272,-40.24819 c -18.9143,0.14854 3.18857,8.09133 -14.22911,15.46675 -17.41768,7.37542 -7.7402,-14.02464 -21.00958,-0.54518 -13.26938,13.47945 7.97584,3.46735 0.8749,20.99872 -7.10097,17.53137 -15.39,-4.44386 -15.24146,14.47044 0.14854,18.914256 8.09133,-3.18807 15.46675,14.22961 7.37542,17.417676 -14.02464,7.740186 -0.54517,21.009576 13.47946,13.26938 3.46733,-7.97584 20.9987,-0.8749 17.53138,7.10097 -4.44383,15.38949 14.47044,15.24093 18.91429,-0.14854 -3.18805,-8.0908 14.22963,-15.46622 17.41768,-7.37542 7.74018,14.0241 21.00956,0.54467 13.26938,-13.47946 -7.97584,-3.46684 -0.87487,-20.998206 7.10094,-17.53137 15.38946,4.443336 15.24092,-14.47096 -0.14853,-18.91427 -8.09082,3.18857 -15.46624,-14.2291 -7.37542,-17.41768 14.02413,-7.74018 0.54467,-21.00957 -13.47946,-13.26938 -3.46684,7.97583 -20.99821,0.87488 -17.53137,-7.10095 4.44334,-15.38999 -14.47093,-15.24144 z"
       inkscape:connector-curvature="0" />
  </g>
</svg>
