<?xml version="1.0" encoding="UTF-8" standalone="no"?>
<!-- Created with Inkscape (http://www.inkscape.org/) -->

<svg
   xmlns:dc="http://purl.org/dc/elements/1.1/"
   xmlns:cc="http://creativecommons.org/ns#"
   xmlns:rdf="http://www.w3.org/1999/02/22-rdf-syntax-ns#"
   xmlns:svg="http://www.w3.org/2000/svg"
   xmlns="http://www.w3.org/2000/svg"
   xmlns:sodipodi="http://sodipodi.sourceforge.net/DTD/sodipodi-0.dtd"
   xmlns:inkscape="http://www.inkscape.org/namespaces/inkscape"
   width="1000mm"
   height="600mm"
   viewBox="0 0 1000 600"
   version="1.1"
   id="svg8"
   inkscape:version="0.92.2 (5c3e80d, 2017-08-06)"
   sodipodi:docname="disque adaptateur culot.svg">
  <defs
     id="defs2" />
  <sodipodi:namedview
     id="base"
     pagecolor="#ffffff"
     bordercolor="#666666"
     borderopacity="1.0"
     inkscape:pageopacity="0.0"
     inkscape:pageshadow="2"
     inkscape:zoom="0.44099809"
     inkscape:cx="2324.573"
     inkscape:cy="1360.0473"
     inkscape:document-units="mm"
     inkscape:current-layer="layer1"
     showgrid="false"
     inkscape:measure-start="2689.07,1459.97"
     inkscape:measure-end="2710.4,1454.23"
     inkscape:window-width="1920"
     inkscape:window-height="1001"
     inkscape:window-x="-9"
     inkscape:window-y="-9"
     inkscape:window-maximized="1" />
  <metadata
     id="metadata5">
    <rdf:RDF>
      <cc:Work
         rdf:about="">
        <dc:format>image/svg+xml</dc:format>
        <dc:type
           rdf:resource="http://purl.org/dc/dcmitype/StillImage" />
        <dc:title />
      </cc:Work>
    </rdf:RDF>
  </metadata>
  <g
     inkscape:label="Calque 1"
     inkscape:groupmode="layer"
     id="layer1"
     transform="translate(0,303)">
    <circle
       style="opacity:1;fill:#000000;fill-opacity:1;stroke:none;stroke-width:0.02816991;stroke-linejoin:miter;stroke-miterlimit:4;stroke-dasharray:none;stroke-dashoffset:0;stroke-opacity:1"
       id="path4512"
       cx="-133.16833"
       cy="-92.183212"
       r="9.75"
       transform="rotate(90)" />
    <circle
       style="opacity:1;fill:#000000;fill-opacity:1;stroke:none;stroke-width:0.2671864;stroke-linejoin:miter;stroke-miterlimit:4;stroke-dasharray:none;stroke-dashoffset:0;stroke-opacity:1"
       id="path4514"
       cx="-133.16833"
       cy="-92.183212"
       r="76.5"
       transform="rotate(90)" />
    <circle
       style="opacity:1;fill:#000000;fill-opacity:1;stroke:none;stroke-width:0.28963116;stroke-linejoin:miter;stroke-miterlimit:4;stroke-dasharray:none;stroke-dashoffset:0;stroke-opacity:1"
       id="path4516"
       cx="-133.16833"
       cy="-92.183212"
       r="78"
       transform="rotate(90)" />
    <path
       sodipodi:type="star"
       style="opacity:1;fill:#000000;fill-opacity:1;stroke:none;stroke-width:0.14072511;stroke-linejoin:miter;stroke-miterlimit:4;stroke-dasharray:none;stroke-dashoffset:0;stroke-opacity:1"
       id="path4518"
       sodipodi:sides="8"
       sodipodi:cx="467.20807"
       sodipodi:cy="145.40202"
       sodipodi:r1="58.534145"
       sodipodi:r2="78.045525"
       sodipodi:arg1="-0.52359878"
       sodipodi:arg2="-0.1308997"
       inkscape:flatsided="false"
       inkscape:rounded="1"
       inkscape:randomized="0"
       d="m 517.90013,116.13495 c 16.40259,28.41013 22.40384,-13.44445 26.68577,19.08009 4.28194,32.52453 -12.34758,-6.35065 -20.83819,25.33673 -8.49061,31.68738 25.34857,6.33525 5.37804,32.36136 -19.97054,26.0261 -4.24048,-13.22164 -32.65061,3.18095 -28.41013,16.40259 13.44445,22.40384 -19.08009,26.68578 -32.52453,4.28193 6.35065,-12.34759 -25.33673,-20.83819 -31.68738,-8.49061 -6.33525,25.34857 -32.36136,5.37803 -26.0261,-19.97053 13.22165,-4.24048 -3.18095,-32.6506 -16.40259,-28.41013 -22.40384,13.44445 -26.68578,-19.08009 -4.28193,-32.52454 12.34759,6.35064 20.8382,-25.33674 8.4906,-31.687378 -25.34857,-6.33524 -5.37804,-32.361351 19.97053,-26.026107 4.24048,13.221641 32.65061,-3.180952 28.41012,-16.402595 -13.44445,-22.403841 19.08008,-26.685778 32.52454,-4.281937 -6.35064,12.347584 25.33674,20.838192 31.68738,8.490607 6.33525,-25.348569 32.36135,-5.378036 26.02611,19.970535 -13.22164,4.240478 3.18096,32.650605 z"
       inkscape:transform-center-x="2.6802354e-005"
       inkscape:transform-center-y="-9.7933941e-006"
       transform="matrix(-0.1225832,0.99120228,-0.99120228,-0.1225832,293.5779,-578.4422)" />
    <circle
       style="opacity:1;fill:#000000;fill-opacity:1;stroke:none;stroke-width:0.02338463;stroke-linejoin:miter;stroke-miterlimit:4;stroke-dasharray:none;stroke-dashoffset:0;stroke-opacity:1"
       id="path4520"
       cx="-133.56522"
       cy="-167.58948"
       r="1"
       transform="rotate(90)" />
    <circle
       style="opacity:1;fill:#000000;fill-opacity:1;stroke:none;stroke-width:0.02338463;stroke-linejoin:miter;stroke-miterlimit:4;stroke-dasharray:none;stroke-dashoffset:0;stroke-opacity:1"
       id="path4520-5"
       cx="-79.872765"
       cy="-145.67725"
       r="1"
       transform="rotate(90)" />
    <circle
       style="opacity:1;fill:#000000;fill-opacity:1;stroke:none;stroke-width:0.02338463;stroke-linejoin:miter;stroke-miterlimit:4;stroke-dasharray:none;stroke-dashoffset:0;stroke-opacity:1"
       id="path4520-9"
       cx="-57.677834"
       cy="-93.399521"
       r="1"
       transform="rotate(90)" />
    <circle
       style="opacity:1;fill:#000000;fill-opacity:1;stroke:none;stroke-width:0.02338463;stroke-linejoin:miter;stroke-miterlimit:4;stroke-dasharray:none;stroke-dashoffset:0;stroke-opacity:1"
       id="path4520-0"
       cx="-78.608391"
       cy="-40.009083"
       r="1"
       transform="rotate(90)" />
    <circle
       style="opacity:1;fill:#000000;fill-opacity:1;stroke:none;stroke-width:0.02338463;stroke-linejoin:miter;stroke-miterlimit:4;stroke-dasharray:none;stroke-dashoffset:0;stroke-opacity:1"
       id="path4520-2"
       cx="-132.57762"
       cy="-16.687338"
       r="1"
       transform="rotate(90)" />
    <circle
       style="opacity:1;fill:#000000;fill-opacity:1;stroke:none;stroke-width:0.02338463;stroke-linejoin:miter;stroke-miterlimit:4;stroke-dasharray:none;stroke-dashoffset:0;stroke-opacity:1"
       id="path4520-2-6"
       cx="-186.17619"
       cy="-38.412403"
       r="1"
       transform="rotate(90)" />
    <circle
       style="opacity:1;fill:#000000;fill-opacity:1;stroke:none;stroke-width:0.02338463;stroke-linejoin:miter;stroke-miterlimit:4;stroke-dasharray:none;stroke-dashoffset:0;stroke-opacity:1"
       id="path4520-2-1"
       cx="-208.6584"
       cy="-91.247978"
       r="1"
       transform="rotate(90)" />
    <circle
       style="opacity:1;fill:#000000;fill-opacity:1;stroke:none;stroke-width:0.02338463;stroke-linejoin:miter;stroke-miterlimit:4;stroke-dasharray:none;stroke-dashoffset:0;stroke-opacity:1"
       id="path4520-2-2"
       cx="-186.92979"
       cy="-145.21423"
       r="1"
       transform="rotate(90)" />
    <path
       style="opacity:1;fill:#000000;fill-opacity:1;stroke:none;stroke-width:0.14054969;stroke-linejoin:miter;stroke-miterlimit:4;stroke-dasharray:none;stroke-dashoffset:0;stroke-opacity:1"
       d="m 171.07825,29.690159 c 0.002,-0.476668 9e-4,-0.970669 -0.003,-1.482596 -0.25728,-32.7632867 -11.33652,7.987205 -24.11222,-22.1836577 -12.77567,-30.1708653 24.19866,-9.768356 0.84958,-32.7535553 -23.34908,-22.985203 -2.3682,13.663989 -32.73599,1.363742 -30.367799,-12.30026 10.20394,-24.017613 -22.559356,-23.760309 -32.763279,0.257303 7.987216,11.336024 -22.183649,24.111707 -30.17086,12.775683 -9.76784,-24.198135 -32.75304,-0.849043 -22.9852,23.3490813 13.66398,2.368188 1.36374,32.7359853 -12.30026,30.3677947 -24.01813,-10.203942 -23.76082,22.5593447 0.2573,32.763285 11.33652,-7.987723 24.11222,22.183145 12.77567,30.170863 -24.19866,9.76835 -0.84955,32.753553 23.34908,22.985205 2.36818,-13.66399 32.73597,-1.36374 30.367785,12.30025 -10.20395,24.017615 22.559359,23.760315 32.763266,-0.2573 -7.987233,-11.336025 22.183636,-24.111715 30.17089,-12.77568 9.76784,24.198655 32.75307,0.84956 22.9852,-23.349083 -13.66401,-2.36819 -1.36375,-32.735983 12.10805,-29.893302 23.65156,8.95337 23.76393,-21.076753 z m -1.54255,-1.267622 a 1,1 0 0 1 -0.99994,0.999938 1,1 0 0 1 -1.00047,-0.999938 1,1 0 0 1 1.00047,-0.999939 1,1 0 0 1 0.99994,0.999939 z m -21.91237,53.692328 a 1,1 0 0 1 -0.99994,1.00046 1,1 0 0 1 -0.99994,-1.00046 1,1 0 0 1 0.99994,-0.99994 1,1 0 0 1 0.99994,0.99994 z m -0.46302,-107.057027 a 1,1 0 0 1 -0.99994,0.999937 1,1 0 0 1 -0.99994,-0.999937 1,1 0 0 1 0.99994,-0.99994 1,1 0 0 1 0.99994,0.99994 z M 102.8793,28.819412 a 9.75,9.75 0 0 1 -9.749786,9.749793 9.75,9.75 0 0 1 -9.750333,-9.749793 9.75,9.75 0 0 1 9.750333,-9.749792 9.75,9.75 0 0 1 9.749786,9.749792 z M 95.345404,104.3099 a 1,1 0 0 1 -0.99994,0.99994 1,1 0 0 1 -0.99994,-0.99994 1,1 0 0 1 0.99994,-0.99994 1,1 0 0 1 0.99994,0.99994 z m -2.15131,-150.980453 a 1,1 0 0 1 -0.99995,0.999939 1,1 0 0 1 -0.99993,-0.999939 1,1 0 0 1 0.99993,-0.999939 1,1 0 0 1 0.99995,0.999939 z M 41.955355,83.379385 a 1,1 0 0 1 -1.00044,0.99994 1,1 0 0 1 -0.99994,-0.99994 1,1 0 0 1 0.99994,-0.99993 1,1 0 0 1 1.00044,0.99993 z m -1.59678,-107.567588 a 1,1 0 0 1 -0.99994,0.999937 1,1 0 0 1 -0.99994,-0.999937 1,1 0 0 1 0.99994,-0.99994 1,1 0 0 1 0.99994,0.99994 z m -21.72531,53.598277 a 1,1 0 0 1 -0.99994,0.999939 1,1 0 0 1 -0.99994,-0.999939 1,1 0 0 1 0.99994,-0.99994 1,1 0 0 1 0.99994,0.99994 z"
       id="path4518-8"
       inkscape:connector-curvature="0" />
    <path
       inkscape:connector-curvature="0"
       style="opacity:1;fill:none;fill-opacity:1;stroke:#ff0000;stroke-width:0.1;stroke-linejoin:miter;stroke-miterlimit:4;stroke-dasharray:none;stroke-dashoffset:0;stroke-opacity:1"
       d="m 172.32819,198.7414 c 0.003,-0.47667 0,-0.97067 -0.003,-1.4826 -0.25728,-32.76329 -11.33652,7.9872 -24.11222,-22.18366 -12.77567,-30.17086 24.19866,-9.76836 0.84958,-32.75355 -23.34908,-22.98521 -2.36821,13.66399 -32.736,1.36374 -30.367804,-12.30026 10.20395,-24.01761 -22.559354,-23.76031 -32.763282,0.2573 7.987214,11.33602 -22.183652,24.11171 -30.17086,12.77568 -9.76783,-24.19814 -32.75303,-0.84905 -22.9852,23.34908 13.66398,2.36819 1.36374,32.73599 -12.30027,30.36779 -24.01813,-10.20394 -23.76083,22.55934 0.25731,32.76329 11.33653,-7.98772 24.11222,22.18315 12.77567,30.17086 -24.19866,9.76835 -0.84955,32.75355 23.34908,22.98521 2.36818,-13.66399 32.73597,-1.36374 30.367796,12.30025 -10.20395,24.01761 22.559362,23.76031 32.763274,-0.2573 -7.98723,-11.33602 22.183644,-24.11171 30.17089,-12.77568 9.76784,24.19865 32.75306,0.84956 22.9852,-23.34908 -13.66401,-2.36819 -1.36374,-32.73598 12.10805,-29.8933 23.65156,8.95337 23.76392,-21.07675 z m -1.54255,-1.26763 a 1,1 0 0 1 -0.99994,0.99994 1,1 0 0 1 -1.00047,-0.99994 1,1 0 0 1 1.00047,-0.99994 1,1 0 0 1 0.99994,0.99994 z m -21.91237,53.69233 a 1,1 0 0 1 -0.99994,1.00046 1,1 0 0 1 -0.99994,-1.00046 1,1 0 0 1 0.99994,-0.99993 1,1 0 0 1 0.99994,0.99993 z m -0.46302,-107.05703 a 1,1 0 0 1 -0.99994,0.99994 1,1 0 0 1 -0.99994,-0.99994 1,1 0 0 1 0.99994,-0.99994 1,1 0 0 1 0.99994,0.99994 z m -44.28101,53.76158 a 9.7500001,9.7500001 0 0 1 -9.749794,9.74979 9.7500001,9.7500001 0 0 1 -9.75033,-9.74979 9.7500001,9.7500001 0 0 1 9.75033,-9.74979 9.7500001,9.7500001 0 0 1 9.749794,9.74979 z m -7.533904,75.49048 a 1,1 0 0 1 -0.99994,0.99994 1,1 0 0 1 -0.99994,-0.99994 1,1 0 0 1 0.99994,-0.99994 1,1 0 0 1 0.99994,0.99994 z m -2.15131,-150.98045 a 1,1 0 0 1 -0.99994,0.99994 1,1 0 0 1 -0.99995,-0.99994 1,1 0 0 1 0.99995,-0.99994 1,1 0 0 1 0.99994,0.99994 z M 43.205294,252.43063 a 1,1 0 0 1 -1.00044,0.99994 1,1 0 0 1 -0.99994,-0.99994 1,1 0 0 1 0.99994,-0.99994 1,1 0 0 1 1.00044,0.99994 z m -1.59678,-107.5676 a 1,1 0 0 1 -0.99994,0.99994 1,1 0 0 1 -0.99994,-0.99994 1,1 0 0 1 0.99994,-0.99994 1,1 0 0 1 0.99994,0.99994 z m -21.72531,53.59828 a 1,1 0 0 1 -0.99994,0.99994 1,1 0 0 1 -0.99994,-0.99994 1,1 0 0 1 0.99994,-0.99994 1,1 0 0 1 0.99994,0.99994 z"
       id="path4518-8-7" />
    <flowRoot
       xml:space="preserve"
       id="flowRoot4626"
       style="font-style:normal;font-weight:normal;font-size:40px;line-height:1.25;font-family:sans-serif;letter-spacing:0px;word-spacing:0px;fill:#000000;fill-opacity:1;stroke:none"
       transform="matrix(0.26458333,0,0,0.26458333,380.21445,-769.97243)"><flowRegion
         id="flowRegion4628"><rect
           id="rect4630"
           width="793.87067"
           height="276.64514"
           x="-1362.8177"
           y="1834.608" /></flowRegion><flowPara
         id="flowPara4632">1) grand, pagode festons bas</flowPara><flowPara
         id="flowPara887">petites fleurs fond bleu</flowPara><flowPara
         id="flowPara889" /><flowPara
         id="flowPara875">156mm de diam. int.</flowPara><flowPara
         id="flowPara4636">8 baleines à éviter</flowPara></flowRoot>    <flowRoot
       xml:space="preserve"
       id="flowRoot4626-0"
       style="font-style:normal;font-weight:normal;font-size:40px;line-height:1.25;font-family:sans-serif;letter-spacing:0px;word-spacing:0px;fill:#000000;fill-opacity:1;stroke:none"
       transform="matrix(0.26458333,0,0,0.26458333,590.18325,-771.6059)"><flowRegion
         id="flowRegion4628-6"><rect
           id="rect4630-9"
           width="713.69952"
           height="234.95613"
           x="-1362.8177"
           y="1834.608" /></flowRegion><flowPara
         id="flowPara4632-5">2) moyen, cone, roses fond bleu</flowPara><flowPara
         id="flowPara4636-5">147mm de diam. int.</flowPara></flowRoot>    <flowRoot
       xml:space="preserve"
       id="flowRoot4626-0-3"
       style="font-style:normal;font-weight:normal;font-size:40px;line-height:1.25;font-family:sans-serif;letter-spacing:0px;word-spacing:0px;fill:#000000;fill-opacity:1;stroke:none"
       transform="matrix(0.26458333,0,0,0.26458333,801.14481,-773.2829)"><flowRegion
         id="flowRegion4628-6-8"><rect
           id="rect4630-9-6"
           width="793.87067"
           height="260.6109"
           x="-1362.8177"
           y="1834.608" /></flowRegion><flowPara
         id="flowPara4632-5-8">3) grand, dome à col</flowPara><flowPara
         id="flowPara883">colonnes fleurs fond vert et ponpons</flowPara><flowPara
         id="flowPara885" /><flowPara
         id="flowPara879">100mm de diam. int.</flowPara><flowPara
         id="flowPara4636-5-7">8 baleines à éviter</flowPara></flowRoot>    <circle
       style="opacity:1;fill:#000000;fill-opacity:1;stroke:none;stroke-width:0.02816991;stroke-linejoin:miter;stroke-miterlimit:4;stroke-dasharray:none;stroke-dashoffset:0;stroke-opacity:1"
       id="path4512-3"
       cx="-130.68434"
       cy="-294.52316"
       r="9.75"
       transform="rotate(90)" />
    <circle
       style="opacity:1;fill:#000000;fill-opacity:1;stroke:none;stroke-width:0.25146955;stroke-linejoin:miter;stroke-miterlimit:4;stroke-dasharray:none;stroke-dashoffset:0;stroke-opacity:1"
       id="path4514-4"
       cx="-130.68434"
       cy="-294.52316"
       r="72"
       transform="rotate(90)" />
    <circle
       style="opacity:1;fill:#000000;fill-opacity:1;stroke:none;stroke-width:0.27292168;stroke-linejoin:miter;stroke-miterlimit:4;stroke-dasharray:none;stroke-dashoffset:0;stroke-opacity:1"
       id="path4516-4"
       cx="-130.68434"
       cy="-294.52316"
       r="73.5"
       transform="rotate(90)" />
    <path
       sodipodi:type="star"
       style="opacity:1;fill:#000000;fill-opacity:1;stroke:none;stroke-width:0.14072511;stroke-linejoin:miter;stroke-miterlimit:4;stroke-dasharray:none;stroke-dashoffset:0;stroke-opacity:1"
       id="path4518-80"
       sodipodi:sides="8"
       sodipodi:cx="467.20807"
       sodipodi:cy="145.40202"
       sodipodi:r1="58.534145"
       sodipodi:r2="78.045525"
       sodipodi:arg1="-0.52359878"
       sodipodi:arg2="-0.1308997"
       inkscape:flatsided="false"
       inkscape:rounded="0.9"
       inkscape:randomized="0"
       d="m 517.90013,116.13495 c 14.76233,25.56911 22.83203,-10.192 26.68577,19.08009 3.85375,29.27208 -13.19664,-3.18191 -20.83819,25.33673 -7.64155,28.51865 23.35152,8.93786 5.37804,32.36136 -17.97348,23.42349 -7.08149,-11.58139 -32.65061,3.18095 -25.56911,14.76234 10.192,22.83203 -19.08009,26.68578 -29.27208,3.85374 3.18191,-13.19665 -25.33673,-20.83819 -28.51864,-7.64155 -8.93786,23.35151 -32.36136,5.37803 -23.42349,-17.97348 11.58139,-7.08149 -3.18095,-32.6506 -14.76233,-25.56912 -22.83203,10.19199 -26.68578,-19.08009 -3.85374,-29.27208 13.19665,3.1819 20.8382,-25.33674 7.64154,-28.51864 -23.35152,-8.93786 -5.37804,-32.361351 17.97348,-23.423497 7.08149,11.581381 32.65061,-3.180952 25.56911,-14.762336 -10.192,-22.832035 19.08008,-26.685778 29.27209,-3.853743 -3.1819,13.196645 25.33674,20.838192 28.51864,7.641546 8.93786,-23.351516 32.36135,-5.378036 23.4235,17.973485 -11.58138,7.081491 3.18096,32.650605 z"
       inkscape:transform-center-x="2.5974926e-005"
       inkscape:transform-center-y="-1.158678e-005"
       transform="matrix(-0.11558519,0.93461665,-0.93461665,-0.11558519,484.42066,-550.53846)" />
    <circle
       style="opacity:1;fill:#000000;fill-opacity:1;stroke:none;stroke-width:0.02338463;stroke-linejoin:miter;stroke-miterlimit:4;stroke-dasharray:none;stroke-dashoffset:0;stroke-opacity:1"
       id="path4520-8"
       cx="-131.09395"
       cy="-365.51743"
       r="1"
       transform="rotate(90)" />
    <circle
       style="opacity:1;fill:#000000;fill-opacity:1;stroke:none;stroke-width:0.02338463;stroke-linejoin:miter;stroke-miterlimit:4;stroke-dasharray:none;stroke-dashoffset:0;stroke-opacity:1"
       id="path4520-5-4"
       cx="-81.113792"
       cy="-345.36761"
       r="1"
       transform="rotate(90)" />
    <circle
       style="opacity:1;fill:#000000;fill-opacity:1;stroke:none;stroke-width:0.02338463;stroke-linejoin:miter;stroke-miterlimit:4;stroke-dasharray:none;stroke-dashoffset:0;stroke-opacity:1"
       id="path4520-9-9"
       cx="-59.706314"
       cy="-295.15228"
       r="1"
       transform="rotate(90)" />
    <circle
       style="opacity:1;fill:#000000;fill-opacity:1;stroke:none;stroke-width:0.02338463;stroke-linejoin:miter;stroke-miterlimit:4;stroke-dasharray:none;stroke-dashoffset:0;stroke-opacity:1"
       id="path4520-0-01"
       cx="-80.599373"
       cy="-246.82405"
       r="1"
       transform="rotate(90)" />
    <circle
       style="opacity:1;fill:#000000;fill-opacity:1;stroke:none;stroke-width:0.02338463;stroke-linejoin:miter;stroke-miterlimit:4;stroke-dasharray:none;stroke-dashoffset:0;stroke-opacity:1"
       id="path4520-2-28"
       cx="-130.14386"
       cy="-223.5023"
       r="1"
       transform="rotate(90)" />
    <circle
       style="opacity:1;fill:#000000;fill-opacity:1;stroke:none;stroke-width:0.02338463;stroke-linejoin:miter;stroke-miterlimit:4;stroke-dasharray:none;stroke-dashoffset:0;stroke-opacity:1"
       id="path4520-2-6-66"
       cx="-180.95511"
       cy="-244.43192"
       r="1"
       transform="rotate(90)" />
    <circle
       style="opacity:1;fill:#000000;fill-opacity:1;stroke:none;stroke-width:0.02338463;stroke-linejoin:miter;stroke-miterlimit:4;stroke-dasharray:none;stroke-dashoffset:0;stroke-opacity:1"
       id="path4520-2-1-7"
       cx="-201.68741"
       cy="-294.05069"
       r="1"
       transform="rotate(90)" />
    <circle
       style="opacity:1;fill:#000000;fill-opacity:1;stroke:none;stroke-width:0.02338463;stroke-linejoin:miter;stroke-miterlimit:4;stroke-dasharray:none;stroke-dashoffset:0;stroke-opacity:1"
       id="path4520-2-2-0"
       cx="-181.25304"
       cy="-344.34708"
       r="1"
       transform="rotate(90)" />
    <circle
       style="opacity:1;fill:#000000;fill-opacity:1;stroke:none;stroke-width:0.02816991;stroke-linejoin:miter;stroke-miterlimit:4;stroke-dasharray:none;stroke-dashoffset:0;stroke-opacity:1"
       id="path4512-3-6"
       cx="-141.77341"
       cy="-489.77042"
       r="9.75"
       transform="rotate(90)" />
    <circle
       style="opacity:1;fill:#000000;fill-opacity:1;stroke:none;stroke-width:0.16939269;stroke-linejoin:miter;stroke-miterlimit:4;stroke-dasharray:none;stroke-dashoffset:0;stroke-opacity:1"
       id="path4514-4-4"
       cx="-141.77341"
       cy="-489.77042"
       r="48.5"
       transform="rotate(90)" />
    <circle
       style="opacity:1;fill:#000000;fill-opacity:1;stroke:none;stroke-width:0.185661;stroke-linejoin:miter;stroke-miterlimit:4;stroke-dasharray:none;stroke-dashoffset:0;stroke-opacity:1"
       id="path4516-4-9"
       cx="-141.77341"
       cy="-489.77042"
       r="50"
       transform="rotate(90)" />
    <path
       sodipodi:type="star"
       style="opacity:1;fill:#000000;fill-opacity:1;stroke:none;stroke-width:0.14072511;stroke-linejoin:miter;stroke-miterlimit:4;stroke-dasharray:none;stroke-dashoffset:0;stroke-opacity:1"
       id="path4518-80-6"
       sodipodi:sides="8"
       sodipodi:cx="467.20807"
       sodipodi:cy="145.40202"
       sodipodi:r1="58.534145"
       sodipodi:r2="78.045525"
       sodipodi:arg1="-0.52359878"
       sodipodi:arg2="-0.1308997"
       inkscape:flatsided="false"
       inkscape:rounded="0.9"
       inkscape:randomized="0"
       d="m 517.90013,116.13495 c 14.76233,25.56911 22.83203,-10.192 26.68577,19.08009 3.85375,29.27208 -13.19664,-3.18191 -20.83819,25.33673 -7.64155,28.51865 23.35152,8.93786 5.37804,32.36136 -17.97348,23.42349 -7.08149,-11.58139 -32.65061,3.18095 -25.56911,14.76234 10.192,22.83203 -19.08009,26.68578 -29.27208,3.85374 3.18191,-13.19665 -25.33673,-20.83819 -28.51864,-7.64155 -8.93786,23.35151 -32.36136,5.37803 -23.42349,-17.97348 11.58139,-7.08149 -3.18095,-32.6506 -14.76233,-25.56912 -22.83203,10.19199 -26.68578,-19.08009 -3.85374,-29.27208 13.19665,3.1819 20.8382,-25.33674 7.64154,-28.51864 -23.35152,-8.93786 -5.37804,-32.361351 17.97348,-23.423497 7.08149,11.581381 32.65061,-3.180952 25.56911,-14.762336 -10.192,-22.832035 19.08008,-26.685778 29.27209,-3.853743 -3.1819,13.196645 25.33674,20.838192 28.51864,7.641546 8.93786,-23.351516 32.36135,-5.378036 23.4235,17.973485 -11.58138,7.081491 3.18096,32.650605 z"
       inkscape:transform-center-x="1.4495937e-005"
       inkscape:transform-center-y="-6.627914e-006"
       transform="matrix(-0.07863048,0.63580255,-0.63580255,-0.07863048,618.95419,-427.39246)" />
    <circle
       style="opacity:1;fill:#000000;fill-opacity:1;stroke:none;stroke-width:0.02338463;stroke-linejoin:miter;stroke-miterlimit:4;stroke-dasharray:none;stroke-dashoffset:0;stroke-opacity:1"
       id="path4520-8-1"
       cx="-141.89952"
       cy="-537.26068"
       r="1"
       transform="rotate(90)" />
    <circle
       style="opacity:1;fill:#000000;fill-opacity:1;stroke:none;stroke-width:0.02338463;stroke-linejoin:miter;stroke-miterlimit:4;stroke-dasharray:none;stroke-dashoffset:0;stroke-opacity:1"
       id="path4520-5-4-2"
       cx="-108.65276"
       cy="-523.69171"
       r="1"
       transform="rotate(90)" />
    <circle
       style="opacity:1;fill:#000000;fill-opacity:1;stroke:none;stroke-width:0.02338463;stroke-linejoin:miter;stroke-miterlimit:4;stroke-dasharray:none;stroke-dashoffset:0;stroke-opacity:1"
       id="path4520-9-9-4"
       cx="-94.294868"
       cy="-490.35037"
       r="1"
       transform="rotate(90)" />
    <circle
       style="opacity:1;fill:#000000;fill-opacity:1;stroke:none;stroke-width:0.02338463;stroke-linejoin:miter;stroke-miterlimit:4;stroke-dasharray:none;stroke-dashoffset:0;stroke-opacity:1"
       id="path4520-0-01-2"
       cx="-108.02888"
       cy="-456.34357"
       r="1"
       transform="rotate(90)" />
    <circle
       style="opacity:1;fill:#000000;fill-opacity:1;stroke:none;stroke-width:0.02338463;stroke-linejoin:miter;stroke-miterlimit:4;stroke-dasharray:none;stroke-dashoffset:0;stroke-opacity:1"
       id="path4520-2-28-5"
       cx="-141.55876"
       cy="-442.2865"
       r="1"
       transform="rotate(90)" />
    <circle
       style="opacity:1;fill:#000000;fill-opacity:1;stroke:none;stroke-width:0.02338463;stroke-linejoin:miter;stroke-miterlimit:4;stroke-dasharray:none;stroke-dashoffset:0;stroke-opacity:1"
       id="path4520-2-6-66-9"
       cx="-175.42534"
       cy="-456.25861"
       r="1"
       transform="rotate(90)" />
    <circle
       style="opacity:1;fill:#000000;fill-opacity:1;stroke:none;stroke-width:0.02338463;stroke-linejoin:miter;stroke-miterlimit:4;stroke-dasharray:none;stroke-dashoffset:0;stroke-opacity:1"
       id="path4520-2-1-7-2"
       cx="-189.28423"
       cy="-489.43518"
       r="1"
       transform="rotate(90)" />
    <circle
       style="opacity:1;fill:#000000;fill-opacity:1;stroke:none;stroke-width:0.02338463;stroke-linejoin:miter;stroke-miterlimit:4;stroke-dasharray:none;stroke-dashoffset:0;stroke-opacity:1"
       id="path4520-2-2-0-6"
       cx="-175.69072"
       cy="-522.97412"
       r="1"
       transform="rotate(90)" />
    <path
       style="opacity:1;fill:#000000;fill-opacity:1;stroke:none;stroke-width:0.13252601;stroke-linejoin:miter;stroke-miterlimit:4;stroke-dasharray:none;stroke-dashoffset:0;stroke-opacity:1"
       d="m 295.26515,-43.48157 c -0.40553,-0.0026 -0.82545,-0.0024 -1.25987,10e-4 -27.8036,0.218361 4.68707,11.893867 -20.91655,22.735566 -25.6036,10.8417253 -11.37817,-20.615486 -30.8839,-0.800973 -19.50572,19.814513 11.72448,5.096616 1.28623,30.86735 -10.43825,25.77076 -22.62267,-6.532034 -22.40432,21.271573 0.21835,27.803607 11.89385,-4.686538 22.73556,20.917085 10.84172,25.603623 -20.6155,11.377665 -0.80098,30.88339 19.81451,19.505709 5.0961,-11.724276 30.86685,-1.286252 25.77073,10.438262 -6.53204,22.622701 21.27157,22.404331 27.80361,-0.21836 -4.68656,-11.893839 20.91706,-22.735563 25.60362,-10.841725 11.37766,20.615513 30.88338,0.800974 19.50575,-19.814514 -11.72395,-5.096087 -1.28569,-30.866848 10.43824,-25.770733 22.62267,6.53206 22.40431,-21.271573 -0.21836,-27.803575 -11.89384,4.686596 -22.73557,-20.917027 -10.84172,-25.603623 20.61552,-11.377665 0.80098,-30.883383 -19.81452,-19.505718 -5.09662,11.723952 -30.86735,1.285716 -25.36809,-10.275146 5.53691,-22.242171 -20.01171,-22.405366 z m -1.15496,1.49397 a 1,1 0 0 1 0.99994,1.000469 1,1 0 0 1 -0.99994,0.99994 1,1 0 0 1 -0.99994,-0.99994 1,1 0 0 1 0.99994,-1.000469 z m 50.29666,20.434405 a 1,1 0 0 1 0.99994,0.99994 1,1 0 0 1 -0.99994,1.000469 1,1 0 0 1 -1.00044,-1.000469 1,1 0 0 1 1.00044,-0.99994 z m -99.91534,0.298186 a 1,1 0 0 1 0.99994,0.99994 1,1 0 0 1 -0.99994,0.999939 1,1 0 0 1 -0.99994,-0.999939 1,1 0 0 1 0.99994,-0.99994 z m 50.09099,41.520453 a 9.75,9.75 0 0 1 9.75032,9.750319 9.75,9.75 0 0 1 -9.75032,9.74979 9.75,9.75 0 0 1 -9.74979,-9.74979 9.75,9.75 0 0 1 9.74979,-9.750319 z m 70.99464,8.340593 a 1,1 0 0 1 0.99994,0.99994 1,1 0 0 1 -0.99994,0.999939 1,1 0 0 1 -0.99994,-0.999939 1,1 0 0 1 0.99994,-0.99994 z m -142.0151,0.95033 a 1,1 0 0 1 0.99994,0.99994 1,1 0 0 1 -0.99994,0.99994 1,1 0 0 1 -0.99994,-0.99994 1,1 0 0 1 0.99994,-0.99994 z m 121.86491,49.030069 a 1,1 0 0 1 1.00047,0.99994 1,1 0 0 1 -1.00047,0.99994 1,1 0 0 1 -0.99994,-0.99994 1,1 0 0 1 0.99994,-0.99994 z m -98.54334,0.514192 a 1,1 0 0 1 0.99994,0.999939 1,1 0 0 1 -0.99994,0.99994 1,1 0 0 1 -0.99993,-0.99994 1,1 0 0 1 0.99993,-0.999939 z m 48.32831,20.893303 a 1,1 0 0 1 0.99994,0.999939 1,1 0 0 1 -0.99994,0.99994 1,1 0 0 1 -0.99994,-0.99994 1,1 0 0 1 0.99994,-0.999939 z"
       id="path4518-80-4"
       inkscape:connector-curvature="0" />
    <path
       inkscape:connector-curvature="0"
       style="opacity:1;fill:none;fill-opacity:1;stroke:#ff0000;stroke-width:0.1;stroke-linejoin:miter;stroke-miterlimit:4;stroke-dasharray:none;stroke-dashoffset:0;stroke-opacity:1"
       d="m 296.53516,112.38526 c -0.40552,-0.003 -0.82544,-0.003 -1.25986,0 -27.80361,0.21836 4.68707,11.89387 -20.91656,22.73557 -25.6036,10.84172 -11.37817,-20.61549 -30.8839,-0.80098 -19.50572,19.81452 11.72448,5.09662 1.28623,30.86735 -10.43825,25.77076 -22.62267,-6.53203 -22.40432,21.27158 0.21836,27.8036 11.89385,-4.68654 22.73557,20.91708 10.84171,25.60363 -20.61551,11.37767 -0.80099,30.88339 19.81452,19.50571 5.0961,-11.72427 30.86685,-1.28625 25.77073,10.43826 -6.53203,22.6227 21.27157,22.40433 27.80361,-0.21836 -4.68656,-11.89384 20.91706,-22.73556 25.60363,-10.84173 11.37767,20.61551 30.88339,0.80097 19.50574,-19.81451 -11.72395,-5.09609 -1.28569,-30.86685 10.43823,-25.77073 22.62267,6.53206 22.40431,-21.27157 -0.21836,-27.80361 -11.89384,4.68656 -22.73557,-20.91706 -10.84173,-25.60362 20.61551,-11.37766 0.80097,-30.88338 -19.81451,-19.50572 -5.09661,11.72395 -30.86735,1.28572 -25.36809,-10.27515 5.53691,-22.24218 -20.01171,-22.40537 z m -1.15495,1.49397 a 1,1 0 0 1 0.99994,1.00047 1,1 0 0 1 -0.99994,0.99994 1,1 0 0 1 -0.99994,-0.99994 1,1 0 0 1 0.99994,-1.00047 z m 50.29665,20.43441 a 1,1 0 0 1 0.99994,0.99994 1,1 0 0 1 -0.99994,1.00046 1,1 0 0 1 -1.00044,-1.00046 1,1 0 0 1 1.00044,-0.99994 z m -99.91533,0.29818 a 1,1 0 0 1 0.99993,0.99994 1,1 0 0 1 -0.99993,0.99994 1,1 0 0 1 -0.99994,-0.99994 1,1 0 0 1 0.99994,-0.99994 z m 50.09098,41.52045 a 9.7500001,9.7500001 0 0 1 9.75032,9.75032 9.7500001,9.7500001 0 0 1 -9.75032,9.74979 9.7500001,9.7500001 0 0 1 -9.74979,-9.74979 9.7500001,9.7500001 0 0 1 9.74979,-9.75032 z m 70.99464,8.3406 a 1,1 0 0 1 0.99994,0.99994 1,1 0 0 1 -0.99994,0.99994 1,1 0 0 1 -0.99993,-0.99994 1,1 0 0 1 0.99993,-0.99994 z m -142.0151,0.95033 a 1,1 0 0 1 0.99994,0.99994 1,1 0 0 1 -0.99994,0.99994 1,1 0 0 1 -0.99993,-0.99994 1,1 0 0 1 0.99993,-0.99994 z m 121.86491,49.03007 a 1,1 0 0 1 1.00047,0.99994 1,1 0 0 1 -1.00047,0.99994 1,1 0 0 1 -0.99994,-0.99994 1,1 0 0 1 0.99994,-0.99994 z m -98.54333,0.51419 a 1,1 0 0 1 0.99994,0.99994 1,1 0 0 1 -0.99994,0.99994 1,1 0 0 1 -0.99994,-0.99994 1,1 0 0 1 0.99994,-0.99994 z m 48.3283,20.8933 a 1,1 0 0 1 0.99994,0.99994 1,1 0 0 1 -0.99994,0.99994 1,1 0 0 1 -0.99994,-0.99994 1,1 0 0 1 0.99994,-0.99994 z"
       id="path4518-80-4-6" />
    <path
       id="path4520-2-2-0-6-1"
       style="opacity:1;fill:#000000;fill-opacity:1;stroke:none;stroke-width:0.02338463;stroke-linejoin:miter;stroke-miterlimit:4;stroke-dasharray:none;stroke-dashoffset:0;stroke-opacity:1"
       d="m 523.29406,-60.011067 a 1,1 0 0 1 -1,-1 1,1 0 0 1 1,-1 1,1 0 0 1 1,1 1,1 0 0 1 -1,1 z m -33.53894,-13.593506 a 1,1 0 0 1 -1,-1 1,1 0 0 1 1,-1 1,1 0 0 1 1,1 1,1 0 0 1 -1,1 z m -33.17657,13.858887 a 1,1 0 0 1 -1,-1 1,1 0 0 1 1,-1 1,1 0 0 1 1,1 1,1 0 0 1 -1,1 z m -13.97211,33.866578 a 1,1 0 0 1 -1,-1 1,1 0 0 1 1,-1 1,1 0 0 1 1,1 1,1 0 0 1 -1,1 z m 14.05707,33.5298777 a 1,1 0 0 1 -1,-1 1,1 0 0 1 1,-1 1,1 0 0 1 1,1 1,1 0 0 1 -1,1 z m 34.0068,13.7340073 a 1,1 0 0 1 -1,-1 1,1 0 0 1 1,-1 1,1 0 0 1 1,1 1,1 0 0 1 -1,1 z M 524.01165,7.0268837 a 1,1 0 0 1 -1,-1 1,1 0 0 1 1,-1 1,1 0 0 1 1,1 1,1 0 0 1 -1,1 z m 13.56897,-33.2467507 a 1,1 0 0 1 -1,-1 1,1 0 0 1 1,-1 1,1 0 0 1 1,1 1,1 0 0 1 -1,1 z M 490.09021,-36.84367 a 9.75,9.75 0 0 1 9.75032,9.74979 9.75,9.75 0 0 1 -9.75032,9.750318 9.75,9.75 0 0 1 -9.74979,-9.750318 9.75,9.75 0 0 1 9.74979,-9.74979 z m -0.39272,-40.248191 c -18.9143,0.148539 3.18857,8.091336 -14.22911,15.466755 -17.41768,7.375419 -7.7402,-14.024641 -21.00958,-0.545187 -13.26938,13.479454 7.97584,3.467351 0.8749,20.998727 -7.10097,17.531371 -15.39,-4.443862 -15.24146,14.470433 0.14854,18.9142684 8.09133,-3.18807 15.46675,14.229609 7.37542,17.4176797 -14.02464,7.7402 -0.54517,21.0095827 13.47946,13.2693843 3.46733,-7.97583804 20.9987,-0.874897 17.53138,7.1009673 -4.44383,15.3894893 14.47044,15.2409263 18.91429,-0.148537 -3.18805,-8.0908 14.22963,-15.4662193 17.41768,-7.37541904 7.74018,14.0241073 21.00956,0.544671 13.26938,-13.4794621 -7.97584,-3.466835 -0.87487,-20.9982057 7.10094,-17.531371 15.38946,4.4433329 15.24092,-14.470962 -0.14853,-18.914268 -8.09082,3.188573 -15.46624,-14.229106 -7.37542,-17.417672 14.02413,-7.740174 0.54467,-21.009562 -13.47946,-13.269386 -3.46684,7.97583 -20.99821,0.874882 -17.53137,-7.100951 4.44334,-15.38999 -14.47093,-15.241447 z"
       inkscape:connector-curvature="0" />
    <path
       id="path4520-2-2-0-6-1-7"
       style="opacity:1;fill:none;fill-opacity:1;stroke:#ff0000;stroke-width:0.1;stroke-linejoin:miter;stroke-miterlimit:4;stroke-dasharray:none;stroke-dashoffset:0;stroke-opacity:1"
       d="m 524.57501,51.695274 a 1,1 0 0 1 -1,-1 1,1 0 0 1 1,-1 1,1 0 0 1 1,1 1,1 0 0 1 -1,1 z m -33.53894,-13.5935 a 1,1 0 0 1 -1,-1 1,1 0 0 1 1,-1 1,1 0 0 1 1,1 1,1 0 0 1 -1,1 z m -33.17657,13.85888 a 1,1 0 0 1 -1,-1 1,1 0 0 1 1,-1 1,1 0 0 1 1,1 1,1 0 0 1 -1,1 z m -13.97211,33.86658 a 1,1 0 0 1 -1,-1 1,1 0 0 1 1,-1 1,1 0 0 1 1,1 1,1 0 0 1 -1,1 z m 14.05707,33.529876 a 1,1 0 0 1 -1,-1 1,1 0 0 1 1,-1 1,1 0 0 1 1,1 1,1 0 0 1 -1,1 z m 34.0068,13.73401 a 1,1 0 0 1 -1,-1 1,1 0 0 1 1,-1 1,1 0 0 1 1,1 1,1 0 0 1 -1,1 z m 33.34134,-14.3579 a 1,1 0 0 1 -1,-1 1,1 0 0 1 1,-1 1,1 0 0 1 1,1 1,1 0 0 1 -1,1 z m 13.56897,-33.246746 a 1,1 0 0 1 -1,-1 1,1 0 0 1 1,-1 1,1 0 0 1 1,1 1,1 0 0 1 -1,1 z m -47.49041,-10.6238 a 9.7500001,9.7500001 0 0 1 9.75032,9.74979 9.7500001,9.7500001 0 0 1 -9.75032,9.75032 9.7500001,9.7500001 0 0 1 -9.74979,-9.75032 9.7500001,9.7500001 0 0 1 9.74979,-9.74979 z m -0.39272,-40.24819 c -18.9143,0.14854 3.18857,8.09133 -14.22911,15.46675 -17.41768,7.37542 -7.7402,-14.02464 -21.00958,-0.54518 -13.26938,13.47945 7.97584,3.46735 0.8749,20.99872 -7.10097,17.53137 -15.39,-4.44386 -15.24146,14.47044 0.14854,18.914256 8.09133,-3.18807 15.46675,14.22961 7.37542,17.417676 -14.02464,7.740186 -0.54517,21.009576 13.47946,13.26938 3.46733,-7.97584 20.9987,-0.8749 17.53138,7.10097 -4.44383,15.38949 14.47044,15.24093 18.91429,-0.14854 -3.18805,-8.0908 14.22963,-15.46622 17.41768,-7.37542 7.74018,14.0241 21.00956,0.54467 13.26938,-13.47946 -7.97584,-3.46684 -0.87487,-20.998206 7.10094,-17.53137 15.38946,4.443336 15.24092,-14.47096 -0.14853,-18.91427 -8.09082,3.18857 -15.46624,-14.2291 -7.37542,-17.41768 14.02413,-7.74018 0.54467,-21.00957 -13.47946,-13.26938 -3.46684,7.97583 -20.99821,0.87488 -17.53137,-7.10095 4.44334,-15.38999 -14.47093,-15.24144 z"
       inkscape:connector-curvature="0" />
    <flowRoot
       xml:space="preserve"
       id="flowRoot4626-0-3-4"
       style="font-style:normal;font-weight:normal;font-size:40px;line-height:1.25;font-family:sans-serif;letter-spacing:0px;word-spacing:0px;fill:#000000;fill-opacity:1;stroke:none"
       transform="matrix(0.26458333,0,0,0.26458333,1025.8805,-779.49712)"><flowRegion
         id="flowRegion4628-6-8-2"><rect
           id="rect4630-9-6-6"
           width="793.87067"
           height="260.6109"
           x="-1362.8177"
           y="1834.608" /></flowRegion><flowPara
         id="flowPara4632-5-8-2">4) moyen, dome à col</flowPara><flowPara
         id="flowPara883-7">bleu pale, motif fleurs dedans</flowPara><flowPara
         id="flowPara885-8" /><flowPara
         id="flowPara879-7">80mm de diam. int.</flowPara><flowPara
         id="flowPara4636-5-7-7">10 baleines à éviter</flowPara></flowRoot>    <circle
       style="opacity:1;fill:#000000;fill-opacity:1;stroke:none;stroke-width:0.02816991;stroke-linejoin:miter;stroke-miterlimit:4;stroke-dasharray:none;stroke-dashoffset:0;stroke-opacity:1"
       id="path4512-3-6-9"
       cx="-158.30328"
       cy="-706.55963"
       r="9.75"
       transform="rotate(90)" />
    <circle
       style="opacity:1;fill:#000000;fill-opacity:1;stroke:none;stroke-width:0.13446636;stroke-linejoin:miter;stroke-miterlimit:4;stroke-dasharray:none;stroke-dashoffset:0;stroke-opacity:1"
       id="path4514-4-4-0"
       cx="-158.30328"
       cy="-706.55963"
       r="38.5"
       transform="rotate(90)" />
    <circle
       style="opacity:1;fill:#000000;fill-opacity:1;stroke:none;stroke-width:0.1485288;stroke-linejoin:miter;stroke-miterlimit:4;stroke-dasharray:none;stroke-dashoffset:0;stroke-opacity:1"
       id="path4516-4-9-6"
       cx="-158.30328"
       cy="-706.55963"
       transform="rotate(90)"
       r="40" />
    <path
       sodipodi:type="star"
       style="opacity:1;fill:#000000;fill-opacity:1;stroke:none;stroke-width:0.14072511;stroke-linejoin:miter;stroke-miterlimit:4;stroke-dasharray:none;stroke-dashoffset:0;stroke-opacity:1"
       id="path4518-80-6-5"
       sodipodi:sides="5"
       sodipodi:cx="467.20807"
       sodipodi:cy="145.40202"
       sodipodi:r1="58.534145"
       sodipodi:r2="78.045525"
       sodipodi:arg1="-0.52359878"
       sodipodi:arg2="0.10471975"
       inkscape:flatsided="false"
       inkscape:rounded="0.7"
       inkscape:randomized="0"
       d="m 517.90013,116.13495 c 16.13663,27.94947 30.2994,5.32858 26.92592,37.42505 -3.37347,32.09647 -12.5236,7.0253 -34.11863,31.00901 -21.59503,23.98371 4.29524,30.46307 -27.27277,37.17306 -31.56802,6.70998 -10.55147,-9.73972 -40.03456,-22.86644 -29.4831,-13.12672 -27.6448,13.49862 -43.78143,-14.45084 -16.13663,-27.94947 6.00245,-13.04478 9.37592,-45.14125 3.37347,-32.09647 -21.38067,-22.12046 0.21436,-46.104166 21.59503,-23.983709 14.26118,1.677605 45.8292,-5.032384 31.56801,-6.70999 14.43081,-27.16982 43.9139,-14.043101 29.4831,13.126719 2.81145,14.081595 18.94809,42.031061 z"
       inkscape:transform-center-x="1.3265828e-005"
       inkscape:transform-center-y="-1.0151908e-005"
       transform="matrix(-0.06290438,0.50864204,-0.50864204,-0.06290438,809.90666,-386.79852)" />
    <circle
       style="opacity:1;fill:#000000;fill-opacity:1;stroke:none;stroke-width:0.02338463;stroke-linejoin:miter;stroke-miterlimit:4;stroke-dasharray:none;stroke-dashoffset:0;stroke-opacity:1"
       id="path4520-0-01-2-7"
       cx="-122.67194"
       cy="-694.9071"
       r="1"
       transform="rotate(90)" />
    <circle
       style="opacity:1;fill:#000000;fill-opacity:1;stroke:none;stroke-width:0.02338463;stroke-linejoin:miter;stroke-miterlimit:4;stroke-dasharray:none;stroke-dashoffset:0;stroke-opacity:1"
       id="path4520-0-01-2-7-9"
       cx="-121.24232"
       cy="-700.7688"
       r="1"
       transform="rotate(90)" />
    <circle
       style="opacity:1;fill:#000000;fill-opacity:1;stroke:none;stroke-width:0.02338463;stroke-linejoin:miter;stroke-miterlimit:4;stroke-dasharray:none;stroke-dashoffset:0;stroke-opacity:1"
       id="path4520-0-01-2-7-3"
       cx="665.36438"
       cy="-345.30005"
       r="1"
       transform="rotate(16.933348)" />
    <circle
       style="opacity:1;fill:#000000;fill-opacity:1;stroke:none;stroke-width:0.02338463;stroke-linejoin:miter;stroke-miterlimit:4;stroke-dasharray:none;stroke-dashoffset:0;stroke-opacity:1"
       id="path4520-0-01-2-7-9-8"
       cx="666.79401"
       cy="-351.16174"
       r="1"
       transform="rotate(16.933348)" />
    <circle
       style="opacity:1;fill:#000000;fill-opacity:1;stroke:none;stroke-width:0.02338463;stroke-linejoin:miter;stroke-miterlimit:4;stroke-dasharray:none;stroke-dashoffset:0;stroke-opacity:1"
       id="path4520-0-01-2-7-3-1"
       cx="563.99854"
       cy="506.84784"
       r="1"
       transform="rotate(-55.758074)" />
    <circle
       style="opacity:1;fill:#000000;fill-opacity:1;stroke:none;stroke-width:0.02338463;stroke-linejoin:miter;stroke-miterlimit:4;stroke-dasharray:none;stroke-dashoffset:0;stroke-opacity:1"
       id="path4520-0-01-2-7-9-8-7"
       cx="565.42816"
       cy="500.98615"
       r="1"
       transform="rotate(-55.758074)" />
    <circle
       style="opacity:1;fill:#000000;fill-opacity:1;stroke:none;stroke-width:0.02338463;stroke-linejoin:miter;stroke-miterlimit:4;stroke-dasharray:none;stroke-dashoffset:0;stroke-opacity:1"
       id="path4520-0-01-2-7-3-1-9"
       cx="258.81046"
       cy="-666.74445"
       r="1"
       transform="rotate(53.257222)" />
    <circle
       style="opacity:1;fill:#000000;fill-opacity:1;stroke:none;stroke-width:0.02338463;stroke-linejoin:miter;stroke-miterlimit:4;stroke-dasharray:none;stroke-dashoffset:0;stroke-opacity:1"
       id="path4520-0-01-2-7-9-8-7-2"
       cx="260.24008"
       cy="-672.60614"
       r="1"
       transform="rotate(53.257222)" />
    <circle
       style="opacity:1;fill:#000000;fill-opacity:1;stroke:none;stroke-width:0.02338463;stroke-linejoin:miter;stroke-miterlimit:4;stroke-dasharray:none;stroke-dashoffset:0;stroke-opacity:1"
       id="path4520-0-01-2-7-3-1-9-0"
       cx="681.63104"
       cy="82.84845"
       r="1"
       transform="rotate(-19.677262)" />
    <circle
       style="opacity:1;fill:#000000;fill-opacity:1;stroke:none;stroke-width:0.02338463;stroke-linejoin:miter;stroke-miterlimit:4;stroke-dasharray:none;stroke-dashoffset:0;stroke-opacity:1"
       id="path4520-0-01-2-7-9-8-7-2-5"
       cx="683.06067"
       cy="76.986771"
       r="1"
       transform="rotate(-19.677262)" />
    <path
       style="opacity:1;fill:#000000;fill-opacity:1;stroke:none;stroke-width:0.27259469;stroke-linejoin:miter;stroke-miterlimit:4;stroke-dasharray:none;stroke-dashoffset:0;stroke-opacity:1"
       d="M 2629.1816 844.46875 C 2623.3415 844.35412 2614.8751 846.58362 2601.3828 852.29688 C 2543.8155 876.67331 2595.4381 879.47107 2563.1934 933.0293 C 2530.9486 986.58752 2504.3226 942.2721 2509.7168 1004.5547 C 2515.111 1066.8372 2533.7226 1018.6073 2574.6953 1065.8242 C 2615.668 1113.0412 2565.2942 1124.671 2626.1953 1138.7871 C 2687.0964 1152.9033 2646.9777 1120.2965 2704.5449 1095.9199 C 2762.1122 1071.5434 2757.6049 1123.0465 2789.8496 1069.4883 C 2822.0943 1015.9301 2778.6891 1044.009 2773.2949 981.72656 C 2767.9007 919.44408 2815.4884 939.64469 2774.5156 892.42773 C 2733.5429 845.21078 2746.8366 895.17084 2685.9355 881.05469 C 2639.3082 870.24701 2648.2595 844.84321 2629.1816 844.46875 z M 2615.2031 853.45703 A 3.7795276 3.7795276 0 0 1 2618.3887 854.97266 A 3.7795276 3.7795276 0 0 1 2617.6211 860.26172 A 3.7795276 3.7795276 0 0 1 2612.332 859.49414 A 3.7795276 3.7795276 0 0 1 2613.0996 854.20508 A 3.7795276 3.7795276 0 0 1 2615.2031 853.45703 z M 2594.2188 862.38086 A 3.7795276 3.7795276 0 0 1 2597.4023 863.89648 A 3.7795276 3.7795276 0 0 1 2596.6348 869.18555 A 3.7795276 3.7795276 0 0 1 2591.3457 868.41797 A 3.7795276 3.7795276 0 0 1 2592.1133 863.12891 A 3.7795276 3.7795276 0 0 1 2594.2188 862.38086 z M 2757.7559 884.85547 A 3.7795276 3.7795276 0 0 1 2759.7812 885.50977 A 3.7795276 3.7795276 0 0 1 2760.7793 890.75977 A 3.7795276 3.7795276 0 0 1 2755.5273 891.75781 A 3.7795276 3.7795276 0 0 1 2754.5312 886.50781 A 3.7795276 3.7795276 0 0 1 2757.7559 884.85547 z M 2773.0312 901.78906 A 3.7795276 3.7795276 0 0 1 2775.0566 902.44141 A 3.7795276 3.7795276 0 0 1 2776.0527 907.69336 A 3.7795276 3.7795276 0 0 1 2770.8027 908.69141 A 3.7795276 3.7795276 0 0 1 2769.8047 903.43945 A 3.7795276 3.7795276 0 0 1 2773.0312 901.78906 z M 2660.332 954.66016 A 36.850394 36.850394 0 0 1 2697.1836 991.51172 A 36.850394 36.850394 0 0 1 2660.332 1028.3613 A 36.850394 36.850394 0 0 1 2623.4824 991.51172 A 36.850394 36.850394 0 0 1 2660.332 954.66016 z M 2518.5723 990.73242 A 3.7795276 3.7795276 0 0 1 2522.2969 993.23633 A 3.7795276 3.7795276 0 0 1 2520.0098 998.06641 A 3.7795276 3.7795276 0 0 1 2515.1777 995.78125 A 3.7795276 3.7795276 0 0 1 2517.4648 990.94922 A 3.7795276 3.7795276 0 0 1 2518.5723 990.73242 z M 2520.9453 1013.4121 A 3.7795276 3.7795276 0 0 1 2524.668 1015.916 A 3.7795276 3.7795276 0 0 1 2522.3828 1020.748 A 3.7795276 3.7795276 0 0 1 2517.5508 1018.4609 A 3.7795276 3.7795276 0 0 1 2519.8359 1013.6289 A 3.7795276 3.7795276 0 0 1 2520.9453 1013.4121 z M 2787.4336 1050.3828 A 3.7795276 3.7795276 0 0 1 2788.4395 1050.5449 A 3.7795276 3.7795276 0 0 1 2790.9551 1055.2617 A 3.7795276 3.7795276 0 0 1 2786.2383 1057.7773 A 3.7795276 3.7795276 0 0 1 2783.7246 1053.0605 A 3.7795276 3.7795276 0 0 1 2787.4336 1050.3828 z M 2775.8105 1070.0039 A 3.7795276 3.7795276 0 0 1 2776.8184 1070.166 A 3.7795276 3.7795276 0 0 1 2779.334 1074.8828 A 3.7795276 3.7795276 0 0 1 2774.6172 1077.3965 A 3.7795276 3.7795276 0 0 1 2772.1016 1072.6797 A 3.7795276 3.7795276 0 0 1 2775.8105 1070.0039 z M 2616.291 1122.4004 A 3.7795276 3.7795276 0 0 1 2620.0703 1126.1797 A 3.7795276 3.7795276 0 0 1 2616.291 1129.9609 A 3.7795276 3.7795276 0 0 1 2612.5117 1126.1797 A 3.7795276 3.7795276 0 0 1 2616.291 1122.4004 z M 2638.4453 1127.8047 A 3.7795276 3.7795276 0 0 1 2642.2246 1131.584 A 3.7795276 3.7795276 0 0 1 2638.4453 1135.3633 A 3.7795276 3.7795276 0 0 1 2634.666 1131.584 A 3.7795276 3.7795276 0 0 1 2638.4453 1127.8047 z "
       transform="matrix(0.26458333,0,0,0.26458333,0,-303)"
       id="path4518-80-6-5-9" />
    <path
       inkscape:connector-curvature="0"
       style="opacity:1;fill:none;fill-opacity:1;stroke:#ff0000;stroke-width:0.1;stroke-linejoin:miter;stroke-miterlimit:4;stroke-dasharray:none;stroke-dashoffset:0;stroke-opacity:1"
       d="m 690.52805,31.068657 c -1.54519,-0.0303 -3.78526,0.55956 -7.3551,2.07119 -15.23135,6.4496 -1.57287,7.18984 -10.10428,21.36045 -8.53143,14.17062 -15.57623,2.44549 -14.14901,18.92443 1.42721,16.47891 6.35153,3.71809 17.19223,16.21089 10.84069,12.492833 -2.48738,15.569883 13.62604,19.304773 16.11341,3.73491 5.49867,-4.89231 20.72999,-11.341953 15.23135,-6.44961 14.0388,7.177253 22.57021,-6.99336 8.53141,-14.17061 -2.95289,-6.7414 -4.3801,-23.22029 -1.42722,-16.47891 11.1637,-11.13416 0.32298,-23.62699 -10.8407,-12.49281 -7.32341,0.72579 -23.43682,-3.00911 -12.33681,-2.85953 -9.96844,-9.58096 -15.01614,-9.68003 z m -3.69848,2.37815 a 1,1 0 0 1 0.84286,0.40101 1,1 0 0 1 -0.20309,1.39939 1,1 0 0 1 -1.39941,-0.20308 1,1 0 0 1 0.20309,-1.3994 1,1 0 0 1 0.55655,-0.19792 z m -5.55209,2.36109 a 1,1 0 0 1 0.8423,0.40101 1,1 0 0 1 -0.20307,1.3994 1,1 0 0 1 -1.39941,-0.20309 1,1 0 0 1 0.2031,-1.39939 1,1 0 0 1 0.55708,-0.19793 z m 43.26919,5.94641 a 1,1 0 0 1 0.53586,0.17312 1,1 0 0 1 0.26408,1.38906 1,1 0 0 1 -1.38959,0.26407 1,1 0 0 1 -0.26355,-1.38907 1,1 0 0 1 0.8532,-0.43718 z m 4.04159,4.48035 a 1,1 0 0 1 0.53589,0.1726 1,1 0 0 1 0.26355,1.38958 1,1 0 0 1 -1.38907,0.26406 1,1 0 0 1 -0.26405,-1.38958 1,1 0 0 1 0.85368,-0.43666 z m -29.81833,13.98881 a 9.7500001,9.7500001 0 0 1 9.75032,9.75031 9.7500001,9.7500001 0 0 1 -9.75032,9.74978 9.7500001,9.7500001 0 0 1 -9.74979,-9.74978 9.7500001,9.7500001 0 0 1 9.74979,-9.75031 z m -37.50726,9.54412 a 1,1 0 0 1 0.98547,0.66249 1,1 0 0 1 -0.60513,1.27796 1,1 0 0 1 -1.27849,-0.60462 1,1 0 0 1 0.60513,-1.27847 1,1 0 0 1 0.29302,-0.0574 z m 0.62786,6.00066 a 1,1 0 0 1 0.98497,0.66249 1,1 0 0 1 -0.60463,1.27847 1,1 0 0 1 -1.27847,-0.60513 1,1 0 0 1 0.6046,-1.27847 1,1 0 0 1 0.29353,-0.0574 z m 70.50836,9.78183 a 1,1 0 0 1 0.26615,0.0429 1,1 0 0 1 0.66558,1.24799 1,1 0 0 1 -1.24798,0.66559 1,1 0 0 1 -0.66509,-1.24799 1,1 0 0 1 0.98134,-0.70848 z m -3.07528,5.19142 a 1,1 0 0 1 0.26668,0.0429 1,1 0 0 1 0.66558,1.24799 1,1 0 0 1 -1.24798,0.66508 1,1 0 0 1 -0.66559,-1.24799 1,1 0 0 1 0.98131,-0.70797 z m -42.2062,13.863243 a 1,1 0 0 1 0.99994,0.99994 1,1 0 0 1 -0.99994,1.00044 1,1 0 0 1 -0.99994,-1.00044 1,1 0 0 1 0.99994,-0.99994 z m 5.86166,1.42989 a 1,1 0 0 1 0.99994,0.99994 1,1 0 0 1 -0.99994,0.99994 1,1 0 0 1 -0.99994,-0.99994 1,1 0 0 1 0.99994,-0.99994 z"
       id="path4518-80-6-5-9-8" />
  </g>
</svg>
