<?xml version="1.0" encoding="UTF-8" standalone="no"?>
<svg
   xmlns:dc="http://purl.org/dc/elements/1.1/"
   xmlns:cc="http://creativecommons.org/ns#"
   xmlns:rdf="http://www.w3.org/1999/02/22-rdf-syntax-ns#"
   xmlns:svg="http://www.w3.org/2000/svg"
   xmlns="http://www.w3.org/2000/svg"
   xmlns:sodipodi="http://sodipodi.sourceforge.net/DTD/sodipodi-0.dtd"
   xmlns:inkscape="http://www.inkscape.org/namespaces/inkscape"
   inkscape:version="1.0 (4035a4fb49, 2020-05-01)"
   sodipodi:docname="Mangeoire.svg"
   version="1.1"
   id="svg2"
   viewBox="0 0 800 600"
   height="600mm"
   width="800mm">
  <metadata
     id="metadata236">
    <rdf:RDF>
      <cc:Work
         rdf:about="">
        <dc:format>image/svg+xml</dc:format>
        <dc:type
           rdf:resource="http://purl.org/dc/dcmitype/StillImage" />
        <dc:title />
      </cc:Work>
    </rdf:RDF>
  </metadata>
  <defs
     id="defs234" />
  <sodipodi:namedview
     inkscape:document-rotation="0"
     inkscape:current-layer="c9812489-0f45-4c1f-95f1-2234ef4e0888"
     inkscape:window-maximized="1"
     inkscape:window-y="-8"
     inkscape:window-x="-8"
     inkscape:cy="507.02323"
     inkscape:cx="1111.6011"
     inkscape:zoom="0.49350171"
     inkscape:document-units="mm"
     showgrid="false"
     id="namedview232"
     inkscape:window-height="1018"
     inkscape:window-width="1920"
     inkscape:pageshadow="2"
     inkscape:pageopacity="0"
     guidetolerance="10"
     gridtolerance="10"
     objecttolerance="10"
     borderopacity="1"
     bordercolor="#666666"
     pagecolor="#ffffff" />
  <g
     transform="translate(0,360)"
     style="stroke:#000000"
     inkscape:label="GROUP0"
     id="c9812489-0f45-4c1f-95f1-2234ef4e0888"
     inkscape:groupmode="layer">
    <path
       inkscape:connector-curvature="0"
       id="path2"
       d="m 609.95581,-334.88628 v -5.5 h 3 v 5.5 h -3"
       style="fill:none;stroke:#ff0000;stroke-width:0.1;stroke-linecap:round;stroke-linejoin:round;stroke-miterlimit:4;stroke-dasharray:none;stroke-opacity:1" />
    <path
       inkscape:connector-curvature="0"
       id="path4"
       d="m 524.95581,-334.88628 h 3 v -5.5 h -3 v 5.5"
       style="fill:none;stroke:#ff0000;stroke-width:0.1;stroke-linecap:round;stroke-linejoin:round;stroke-miterlimit:4;stroke-dasharray:none;stroke-opacity:1" />
    <path
       inkscape:connector-curvature="0"
       id="path6"
       d="m 615.95581,-260.64797 h 3 v -15 h -3 v 15"
       style="fill:none;stroke:#ff0000;stroke-width:0.1;stroke-linecap:round;stroke-linejoin:round;stroke-miterlimit:4;stroke-dasharray:none;stroke-opacity:1" />
    <path
       inkscape:connector-curvature="0"
       id="path8"
       d="m 601.45581,-260.64797 h 5 v -10 h -5 v 10"
       style="fill:none;stroke:#ff0000;stroke-width:0.1;stroke-linecap:round;stroke-linejoin:round;stroke-miterlimit:4;stroke-dasharray:none;stroke-opacity:1" />
    <path
       inkscape:connector-curvature="0"
       id="path10"
       d="m 508.4558,-318 v -3 h 5.50001 v 3 h -5.50001"
       style="fill:none;stroke:#ff0000;stroke-width:0.1;stroke-linecap:round;stroke-linejoin:round;stroke-miterlimit:4;stroke-dasharray:none;stroke-opacity:1" />
    <path
       inkscape:connector-curvature="0"
       id="path12"
       d="m 591.45581,-260.64797 h 5 v -10 h -5 v 10"
       style="fill:none;stroke:#ff0000;stroke-width:0.1;stroke-linecap:round;stroke-linejoin:round;stroke-miterlimit:4;stroke-dasharray:none;stroke-opacity:1" />
    <path
       inkscape:connector-curvature="0"
       id="path14"
       d="m 586.45581,-260.64797 v -10 h -5 v 10 h 5"
       style="fill:none;stroke:#ff0000;stroke-width:0.1;stroke-linecap:round;stroke-linejoin:round;stroke-miterlimit:4;stroke-dasharray:none;stroke-opacity:1" />
    <path
       inkscape:connector-curvature="0"
       id="path16"
       d="m 481.9558,-329.5 v -5.5 h 3 v 5.5 h -3"
       style="fill:none;stroke:#ff0000;stroke-width:0.1;stroke-linecap:round;stroke-linejoin:round;stroke-miterlimit:4;stroke-dasharray:none;stroke-opacity:1" />
    <path
       inkscape:connector-curvature="0"
       id="path18"
       d="m 571.45581,-260.64797 h 5 v -10 h -5 v 10"
       style="fill:none;stroke:#ff0000;stroke-width:0.1;stroke-linecap:round;stroke-linejoin:round;stroke-miterlimit:4;stroke-dasharray:none;stroke-opacity:1" />
    <path
       inkscape:connector-curvature="0"
       id="path20"
       d="m 561.45581,-260.64797 h 5 v -10 h -5 v 10"
       style="fill:none;stroke:#ff0000;stroke-width:0.1;stroke-linecap:round;stroke-linejoin:round;stroke-miterlimit:4;stroke-dasharray:none;stroke-opacity:1" />
    <path
       inkscape:connector-curvature="0"
       id="path22"
       d="m 531.45581,-275.64797 h 5 v -5 l 1.66666,-2 h 1.66667 l 1.66667,2 v 5 h 5 v -5 l 1.66666,-2 h 1.66667 l 1.66667,2 v 5 h 5 v -5 l 1.66666,-2 h 1.66667 l 1.66667,2 v 5 h 5 v -5 l 1.66666,-2 h 1.66667 l 1.66667,2 v 5 h 5 v -5 l 1.66666,-2 h 1.66667 l 1.66667,2 v 5 h 5 v -5 l 1.66666,-2 h 1.66667 l 1.66667,2 v 5 h 5 v -5 l 1.66666,-2 h 1.66667 l 1.66667,2 v 5 h 5 v -5 l 2.5,-3 v -38.71242 h -80 v 38.71242 l 2.5,3 v 5"
       style="fill:none;stroke:#ff0000;stroke-width:0.1;stroke-linecap:round;stroke-linejoin:round;stroke-miterlimit:4;stroke-dasharray:none;stroke-opacity:1" />
    <path
       inkscape:connector-curvature="0"
       id="path24"
       d="m 480.9558,-309.5 h 10 v -5 h -10 v 5"
       style="fill:none;stroke:#ff0000;stroke-width:0.1;stroke-linecap:round;stroke-linejoin:round;stroke-miterlimit:4;stroke-dasharray:none;stroke-opacity:1" />
    <path
       inkscape:connector-curvature="0"
       id="path26"
       d="m 551.45581,-260.64797 h 5 v -10 h -5 v 10"
       style="fill:none;stroke:#ff0000;stroke-width:0.1;stroke-linecap:round;stroke-linejoin:round;stroke-miterlimit:4;stroke-dasharray:none;stroke-opacity:1" />
    <path
       inkscape:connector-curvature="0"
       id="path28"
       d="m 541.45581,-260.64797 h 5 v -10 h -5 v 10"
       style="fill:none;stroke:#ff0000;stroke-width:0.1;stroke-linecap:round;stroke-linejoin:round;stroke-miterlimit:4;stroke-dasharray:none;stroke-opacity:1" />
    <path
       inkscape:connector-curvature="0"
       id="path30"
       d="m 615.95581,-215.64797 h 3 v -15 h -3 v 15"
       style="fill:none;stroke:#ff0000;stroke-width:0.1;stroke-linecap:round;stroke-linejoin:round;stroke-miterlimit:4;stroke-dasharray:none;stroke-opacity:1" />
    <path
       inkscape:connector-curvature="0"
       id="path32"
       d="m 606.45581,-220.64797 h -5 v -10 h 5 v 10"
       style="fill:none;stroke:#ff0000;stroke-width:0.1;stroke-linecap:round;stroke-linejoin:round;stroke-miterlimit:4;stroke-dasharray:none;stroke-opacity:1" />
    <path
       inkscape:connector-curvature="0"
       id="path34"
       d="m 480.9558,-299.5 h 10 v -5 h -10 v 5"
       style="fill:none;stroke:#ff0000;stroke-width:0.1;stroke-linecap:round;stroke-linejoin:round;stroke-miterlimit:4;stroke-dasharray:none;stroke-opacity:1" />
    <path
       inkscape:connector-curvature="0"
       id="path36"
       d="m 531.45581,-260.64797 h 5 v -10 h -5 v 10"
       style="fill:none;stroke:#ff0000;stroke-width:0.1;stroke-linecap:round;stroke-linejoin:round;stroke-miterlimit:4;stroke-dasharray:none;stroke-opacity:1" />
    <path
       inkscape:connector-curvature="0"
       id="path38"
       d="m 591.45581,-220.64797 v -10 h 5 v 10 h -5"
       style="fill:none;stroke:#ff0000;stroke-width:0.1;stroke-linecap:round;stroke-linejoin:round;stroke-miterlimit:4;stroke-dasharray:none;stroke-opacity:1" />
    <path
       inkscape:connector-curvature="0"
       id="path40"
       d="m 480.9558,-289.5 h 10 v -5 h -10 v 5"
       style="fill:none;stroke:#ff0000;stroke-width:0.1;stroke-linecap:round;stroke-linejoin:round;stroke-miterlimit:4;stroke-dasharray:none;stroke-opacity:1" />
    <path
       inkscape:connector-curvature="0"
       id="path42"
       d="m 518.95581,-260.64797 h 3 v -15 h -3 v 15"
       style="fill:none;stroke:#ff0000;stroke-width:0.1;stroke-linecap:round;stroke-linejoin:round;stroke-miterlimit:4;stroke-dasharray:none;stroke-opacity:1" />
    <path
       inkscape:connector-curvature="0"
       id="path44"
       d="m 581.45581,-220.64797 v -10 h 5 v 10 h -5"
       style="fill:none;stroke:#ff0000;stroke-width:0.1;stroke-linecap:round;stroke-linejoin:round;stroke-miterlimit:4;stroke-dasharray:none;stroke-opacity:1" />
    <path
       inkscape:connector-curvature="0"
       id="path46"
       d="m 480.9558,-279.5 h 10 v -5 h -10 v 5"
       style="fill:none;stroke:#ff0000;stroke-width:0.1;stroke-linecap:round;stroke-linejoin:round;stroke-miterlimit:4;stroke-dasharray:none;stroke-opacity:1" />
    <path
       inkscape:connector-curvature="0"
       id="path48"
       d="m 571.45581,-220.64797 v -10 h 5 v 10 h -5"
       style="fill:none;stroke:#ff0000;stroke-width:0.1;stroke-linecap:round;stroke-linejoin:round;stroke-miterlimit:4;stroke-dasharray:none;stroke-opacity:1" />
    <path
       inkscape:connector-curvature="0"
       id="path50"
       d="m 480.9558,-274.5 v 5 h 10 v -5 h -10"
       style="fill:none;stroke:#ff0000;stroke-width:0.1;stroke-linecap:round;stroke-linejoin:round;stroke-miterlimit:4;stroke-dasharray:none;stroke-opacity:1" />
    <path
       inkscape:connector-curvature="0"
       id="path52"
       d="m 561.45581,-220.64797 v -10 h 5 v 10 h -5"
       style="fill:none;stroke:#ff0000;stroke-width:0.1;stroke-linecap:round;stroke-linejoin:round;stroke-miterlimit:4;stroke-dasharray:none;stroke-opacity:1" />
    <path
       inkscape:connector-curvature="0"
       id="path54"
       d="m 551.45581,-220.64797 v -10 h 5 v 10 h -5"
       style="fill:none;stroke:#ff0000;stroke-width:0.1;stroke-linecap:round;stroke-linejoin:round;stroke-miterlimit:4;stroke-dasharray:none;stroke-opacity:1" />
    <path
       inkscape:connector-curvature="0"
       id="path56"
       d="m 541.45581,-220.64797 v -10 h 5 v 10 h -5"
       style="fill:none;stroke:#ff0000;stroke-width:0.1;stroke-linecap:round;stroke-linejoin:round;stroke-miterlimit:4;stroke-dasharray:none;stroke-opacity:1" />
    <path
       inkscape:connector-curvature="0"
       id="path58"
       d="m 480.9558,-259.5 h 10 v -5 h -10 v 5"
       style="fill:none;stroke:#ff0000;stroke-width:0.1;stroke-linecap:round;stroke-linejoin:round;stroke-miterlimit:4;stroke-dasharray:none;stroke-opacity:1" />
    <path
       inkscape:connector-curvature="0"
       id="path60"
       d="m 531.45581,-220.64797 v -10 h 5 v 10 h -5"
       style="fill:none;stroke:#ff0000;stroke-width:0.1;stroke-linecap:round;stroke-linejoin:round;stroke-miterlimit:4;stroke-dasharray:none;stroke-opacity:1" />
    <path
       inkscape:connector-curvature="0"
       id="path62"
       d="m 480.9558,-249.5 h 10 v -5 h -10 v 5"
       style="fill:none;stroke:#ff0000;stroke-width:0.1;stroke-linecap:round;stroke-linejoin:round;stroke-miterlimit:4;stroke-dasharray:none;stroke-opacity:1" />
    <path
       inkscape:connector-curvature="0"
       id="path64"
       d="m 518.95581,-215.64797 h 3 v -15 h -3 v 15"
       style="fill:none;stroke:#ff0000;stroke-width:0.1;stroke-linecap:round;stroke-linejoin:round;stroke-miterlimit:4;stroke-dasharray:none;stroke-opacity:1" />
    <path
       inkscape:connector-curvature="0"
       id="path66"
       d="m 480.9558,-239.5 h 10 v -5 h -10 v 5"
       style="fill:none;stroke:#ff0000;stroke-width:0.1;stroke-linecap:round;stroke-linejoin:round;stroke-miterlimit:4;stroke-dasharray:none;stroke-opacity:1" />
    <path
       inkscape:connector-curvature="0"
       id="path68"
       d="m 480.9558,-229.5 h 10 v -5 h -10 v 5"
       style="fill:none;stroke:#ff0000;stroke-width:0.1;stroke-linecap:round;stroke-linejoin:round;stroke-miterlimit:4;stroke-dasharray:none;stroke-opacity:1" />
    <path
       inkscape:connector-curvature="0"
       id="path70"
       d="m 480.9558,-224.5 v 5 h 10 v -5 h -10"
       style="fill:none;stroke:#ff0000;stroke-width:0.1;stroke-linecap:round;stroke-linejoin:round;stroke-miterlimit:4;stroke-dasharray:none;stroke-opacity:1" />
    <path
       inkscape:connector-curvature="0"
       id="path72"
       d="m 480.9558,-209.5 h 10 v -5 h -10 v 5"
       style="fill:none;stroke:#ff0000;stroke-width:0.1;stroke-linecap:round;stroke-linejoin:round;stroke-miterlimit:4;stroke-dasharray:none;stroke-opacity:1" />
    <path
       inkscape:connector-curvature="0"
       id="path74"
       d="m 317,-329.5 h -3 v -5.5 h 3 v 5.5"
       style="fill:none;stroke:#ff0000;stroke-width:0.1;stroke-linecap:round;stroke-linejoin:round;stroke-miterlimit:4;stroke-dasharray:none;stroke-opacity:1" />
    <path
       inkscape:connector-curvature="0"
       id="path76"
       d="m 609.95581,-124.97411 h 3 v -5.5 h -3 v 5.5"
       style="fill:none;stroke:#ff0000;stroke-width:0.1;stroke-linecap:round;stroke-linejoin:round;stroke-miterlimit:4;stroke-dasharray:none;stroke-opacity:1" />
    <path
       inkscape:connector-curvature="0"
       id="path78"
       d="m 480.9558,-199.5 h 10 v -5 h -10 v 5"
       style="fill:none;stroke:#ff0000;stroke-width:0.1;stroke-linecap:round;stroke-linejoin:round;stroke-miterlimit:4;stroke-dasharray:none;stroke-opacity:1" />
    <path
       inkscape:connector-curvature="0"
       id="path80"
       d="m 480.9558,-189.5 h 10 v -5 h -10 v 5"
       style="fill:none;stroke:#ff0000;stroke-width:0.1;stroke-linecap:round;stroke-linejoin:round;stroke-miterlimit:4;stroke-dasharray:none;stroke-opacity:1" />
    <path
       inkscape:connector-curvature="0"
       id="path82"
       d="m 308,-315.5 h 10 v -1.5 h -10 v 1.5"
       style="fill:none;stroke:#ff0000;stroke-width:0.1;stroke-linecap:round;stroke-linejoin:round;stroke-miterlimit:4;stroke-dasharray:none;stroke-opacity:1" />
    <path
       inkscape:connector-curvature="0"
       id="path84"
       d="m 399.38194,-240.32554 0.39753,-2.97354 5.4515,0.7288 -0.39753,2.97355 -5.4515,-0.72881"
       style="fill:none;stroke:#ff0000;stroke-width:0.1;stroke-linecap:round;stroke-linejoin:round;stroke-miterlimit:4;stroke-dasharray:none;stroke-opacity:1" />
    <path
       inkscape:connector-curvature="0"
       id="path86"
       d="m 480.9558,-179.5 h 10 v -5 h -10 v 5"
       style="fill:none;stroke:#ff0000;stroke-width:0.1;stroke-linecap:round;stroke-linejoin:round;stroke-miterlimit:4;stroke-dasharray:none;stroke-opacity:1" />
    <path
       inkscape:connector-curvature="0"
       id="path88"
       d="m 308,-305.5 h 10 v -5 h -10 v 5"
       style="fill:none;stroke:#ff0000;stroke-width:0.1;stroke-linecap:round;stroke-linejoin:round;stroke-miterlimit:4;stroke-dasharray:none;stroke-opacity:1" />
    <path
       inkscape:connector-curvature="0"
       id="path90"
       d="m 480.9558,-174.5 v 5 h 10 v -5 h -10"
       style="fill:none;stroke:#ff0000;stroke-width:0.1;stroke-linecap:round;stroke-linejoin:round;stroke-miterlimit:4;stroke-dasharray:none;stroke-opacity:1" />
    <path
       inkscape:connector-curvature="0"
       id="path92"
       d="m 528.95581,-143 v -64.64797 l 2.5,-3 v -5 h 5 v 5 l 1.66666,2 h 1.66667 l 1.66667,-2 v -5 h 5 v 5 l 1.66666,2 h 1.66667 l 1.66667,-2 v -5 h 5 v 5 l 1.66666,2 h 1.66667 l 1.66667,-2 v -5 h 5 v 5 l 1.66666,2 h 1.66667 l 1.66667,-2 v -5 h 5 v 5 l 1.66666,2 h 1.66667 l 1.66667,-2 v -5 h 5 v 5 l 1.66666,2 h 1.66667 l 1.66667,-2 v -5 h 5 v 5 l 1.66666,2 h 1.66667 l 1.66667,-2 v -5 h 5 v 5 l 2.5,3 V -143 h -80"
       style="fill:none;stroke:#ff0000;stroke-width:0.1;stroke-linecap:round;stroke-linejoin:round;stroke-miterlimit:4;stroke-dasharray:none;stroke-opacity:1" />
    <path
       inkscape:connector-curvature="0"
       id="path94"
       d="m 285,-318 v -3 h 5.5 v 3 H 285"
       style="fill:none;stroke:#ff0000;stroke-width:0.1;stroke-linecap:round;stroke-linejoin:round;stroke-miterlimit:4;stroke-dasharray:none;stroke-opacity:1" />
    <path
       inkscape:connector-curvature="0"
       id="path96"
       d="m 308,-295.5 h 10 v -5 h -10 v 5"
       style="fill:none;stroke:#ff0000;stroke-width:0.1;stroke-linecap:round;stroke-linejoin:round;stroke-miterlimit:4;stroke-dasharray:none;stroke-opacity:1" />
    <path
       inkscape:connector-curvature="0"
       id="path98"
       d="m 480.9558,-159.5 h 10 v -5 h -10 v 5"
       style="fill:none;stroke:#ff0000;stroke-width:0.1;stroke-linecap:round;stroke-linejoin:round;stroke-miterlimit:4;stroke-dasharray:none;stroke-opacity:1" />
    <path
       inkscape:connector-curvature="0"
       id="path100"
       d="m 393.72484,-217.42972 0.39753,-2.97355 5.4515,0.7288 -0.39753,2.97355 -5.4515,-0.7288"
       style="fill:none;stroke:#ff0000;stroke-width:0.1;stroke-linecap:round;stroke-linejoin:round;stroke-miterlimit:4;stroke-dasharray:none;stroke-opacity:1" />
    <path
       inkscape:connector-curvature="0"
       id="path102"
       d="m 308,-285.5 h 10 v -5 h -10 v 5"
       style="fill:none;stroke:#ff0000;stroke-width:0.1;stroke-linecap:round;stroke-linejoin:round;stroke-miterlimit:4;stroke-dasharray:none;stroke-opacity:1" />
    <path
       inkscape:connector-curvature="0"
       id="path104"
       d="m 508.4558,-139 v -3 h 5.50001 v 3 h -5.50001"
       style="fill:none;stroke:#ff0000;stroke-width:0.1;stroke-linecap:round;stroke-linejoin:round;stroke-miterlimit:4;stroke-dasharray:none;stroke-opacity:1" />
    <path
       inkscape:connector-curvature="0"
       id="path106"
       d="m 535.45581,-120 h 4 v -13 h -5.5 v 3 l 1.5,10"
       style="fill:none;stroke:#ff0000;stroke-width:0.1;stroke-linecap:round;stroke-linejoin:round;stroke-miterlimit:4;stroke-dasharray:none;stroke-opacity:1" />
    <path
       inkscape:connector-curvature="0"
       id="path108"
       d="m 524.95581,-124.97411 v -5.5 h 3 v 5.5 h -3"
       style="fill:none;stroke:#ff0000;stroke-width:0.1;stroke-linecap:round;stroke-linejoin:round;stroke-miterlimit:4;stroke-dasharray:none;stroke-opacity:1" />
    <path
       inkscape:connector-curvature="0"
       id="path110"
       d="m 480.9558,-149.5 h 10 v -5 h -10 v 5"
       style="fill:none;stroke:#ff0000;stroke-width:0.1;stroke-linecap:round;stroke-linejoin:round;stroke-miterlimit:4;stroke-dasharray:none;stroke-opacity:1" />
    <path
       inkscape:connector-curvature="0"
       id="path112"
       d="m 257,-322 v -15 h 3 v 15 h -3"
       style="fill:none;stroke:#ff0000;stroke-width:0.1;stroke-linecap:round;stroke-linejoin:round;stroke-miterlimit:4;stroke-dasharray:none;stroke-opacity:1" />
    <path
       inkscape:connector-curvature="0"
       id="path114"
       d="m 308,-275.5 h 10 v -5 h -10 v 5"
       style="fill:none;stroke:#ff0000;stroke-width:0.1;stroke-linecap:round;stroke-linejoin:round;stroke-miterlimit:4;stroke-dasharray:none;stroke-opacity:1" />
    <path
       inkscape:connector-curvature="0"
       id="path116"
       d="m 480.9558,-143 h 10 v -1.5 h -10 v 1.5"
       style="fill:none;stroke:#ff0000;stroke-width:0.1;stroke-linecap:round;stroke-linejoin:round;stroke-miterlimit:4;stroke-dasharray:none;stroke-opacity:1" />
    <path
       inkscape:connector-curvature="0"
       id="path118"
       d="m 513.4558,-120 v -13 h 4 l 1.5,10 v 3 h -5.5"
       style="fill:none;stroke:#ff0000;stroke-width:0.1;stroke-linecap:round;stroke-linejoin:round;stroke-miterlimit:4;stroke-dasharray:none;stroke-opacity:1" />
    <path
       inkscape:connector-curvature="0"
       id="path120"
       d="m 308,-265.5 h 10 v -5 h -10 v 5"
       style="fill:none;stroke:#ff0000;stroke-width:0.1;stroke-linecap:round;stroke-linejoin:round;stroke-miterlimit:4;stroke-dasharray:none;stroke-opacity:1" />
    <path
       inkscape:connector-curvature="0"
       id="path122"
       d="m 308,-255.5 h 10 v -5 h -10 v 5"
       style="fill:none;stroke:#ff0000;stroke-width:0.1;stroke-linecap:round;stroke-linejoin:round;stroke-miterlimit:4;stroke-dasharray:none;stroke-opacity:1" />
    <path
       inkscape:connector-curvature="0"
       id="path124"
       d="m 481.9558,-125 v -5.5 h 3 v 5.5 h -3"
       style="fill:none;stroke:#ff0000;stroke-width:0.1;stroke-linecap:round;stroke-linejoin:round;stroke-miterlimit:4;stroke-dasharray:none;stroke-opacity:1" />
    <path
       inkscape:connector-curvature="0"
       id="path126"
       d="m 308,-245.5 h 10 v -5 h -10 v 5"
       style="fill:none;stroke:#ff0000;stroke-width:0.1;stroke-linecap:round;stroke-linejoin:round;stroke-miterlimit:4;stroke-dasharray:none;stroke-opacity:1" />
    <path
       inkscape:connector-curvature="0"
       id="path128"
       d="m 308,-235.5 h 10 v -5 h -10 v 5"
       style="fill:none;stroke:#ff0000;stroke-width:0.1;stroke-linecap:round;stroke-linejoin:round;stroke-miterlimit:4;stroke-dasharray:none;stroke-opacity:1" />
    <path
       inkscape:connector-curvature="0"
       id="path130"
       d="m 308,-225.5 h 10 v -5 h -10 v 5"
       style="fill:none;stroke:#ff0000;stroke-width:0.1;stroke-linecap:round;stroke-linejoin:round;stroke-miterlimit:4;stroke-dasharray:none;stroke-opacity:1" />
    <path
       inkscape:connector-curvature="0"
       id="path132"
       d="m 308,-215.5 h 10 v -5 h -10 v 5"
       style="fill:none;stroke:#ff0000;stroke-width:0.1;stroke-linecap:round;stroke-linejoin:round;stroke-miterlimit:4;stroke-dasharray:none;stroke-opacity:1" />
    <path
       inkscape:connector-curvature="0"
       id="path134"
       d="m 404.31569,-143 h 71.64011 v -1.5 h -5 l -2,-1.66667 v -1.66666 l 2,-1.66667 h 5 v -5 h -5 l -2,-1.66667 v -1.66666 l 2,-1.66667 h 5 v -5 h -5 l -2,-1.66667 v -1.66666 l 2,-1.66667 h 5 v -5 h -5 l -2,-1.66667 v -1.66666 l 2,-1.66667 h 5 v -5 h -5 l -2,-1.66667 v -1.66666 l 2,-1.66667 h 5 v -5 h -5 l -2,-1.66667 v -1.66666 l 2,-1.66667 h 5 v -5 h -5 l -2,-1.66667 v -1.66666 l 2,-1.66667 h 5 v -5 h -5 l -2,-1.66667 v -1.66666 l 2,-1.66667 h 5 v -5 h -5 l -2,-1.66667 v -1.66666 l 2,-1.66667 h 5 v -5 h -5 l -2,-1.66667 v -1.66666 l 2,-1.66667 h 5 v -5 h -5 l -2,-1.66667 v -1.66666 l 2,-1.66667 h 5 v -5 h -5 l -2,-1.66667 v -1.66666 l 2,-1.66667 h 5 v -5 h -5 l -2,-1.66667 v -1.66666 l 2,-1.66667 h 5 v -5 h -5 l -2,-1.66667 v -1.66666 l 2,-1.66667 h 5 v -5 h -5 l -2,-1.66667 v -1.66666 l 2,-1.66667 h 5 v -5 h -5 l -2,-1.66667 v -1.66666 l 2,-1.66667 h 5 v -5 h -5 l -2,-1.66667 v -1.66666 l 2,-1.66667 h 5 v -5 h -5 l -3,-2.5 h -40.33761 l -23.3025,174"
       style="fill:none;stroke:#ff0000;stroke-width:0.1;stroke-linecap:round;stroke-linejoin:round;stroke-miterlimit:4;stroke-dasharray:none;stroke-opacity:1" />
    <path
       inkscape:connector-curvature="0"
       id="path136"
       d="m 308,-205.5 h 10 v -5 h -10 v 5"
       style="fill:none;stroke:#ff0000;stroke-width:0.1;stroke-linecap:round;stroke-linejoin:round;stroke-miterlimit:4;stroke-dasharray:none;stroke-opacity:1" />
    <path
       inkscape:connector-curvature="0"
       id="path138"
       d="m 308,-195.5 h 10 v -5 h -10 v 5"
       style="fill:none;stroke:#ff0000;stroke-width:0.1;stroke-linecap:round;stroke-linejoin:round;stroke-miterlimit:4;stroke-dasharray:none;stroke-opacity:1" />
    <path
       inkscape:connector-curvature="0"
       id="path140"
       d="m 160,-322 v -15 h 3 v 15 h -3"
       style="fill:none;stroke:#ff0000;stroke-width:0.1;stroke-linecap:round;stroke-linejoin:round;stroke-miterlimit:4;stroke-dasharray:none;stroke-opacity:1" />
    <path
       inkscape:connector-curvature="0"
       id="path142"
       d="m 308,-185.5 h 10 v -5 h -10 v 5"
       style="fill:none;stroke:#ff0000;stroke-width:0.1;stroke-linecap:round;stroke-linejoin:round;stroke-miterlimit:4;stroke-dasharray:none;stroke-opacity:1" />
    <path
       inkscape:connector-curvature="0"
       id="path144"
       d="m 308,-175.5 h 10 v -5 h -10 v 5"
       style="fill:none;stroke:#ff0000;stroke-width:0.1;stroke-linecap:round;stroke-linejoin:round;stroke-miterlimit:4;stroke-dasharray:none;stroke-opacity:1" />
    <path
       inkscape:connector-curvature="0"
       id="path146"
       d="m 308,-165.5 h 10 v -5 h -10 v 5"
       style="fill:none;stroke:#ff0000;stroke-width:0.1;stroke-linecap:round;stroke-linejoin:round;stroke-miterlimit:4;stroke-dasharray:none;stroke-opacity:1" />
    <path
       inkscape:connector-curvature="0"
       id="path148"
       d="m 323,-145.5 h 5 l 3,2.5 h 40.33762 l 23.30249,-174 H 323 v 1.5 h 5 l 2,1.66667 v 1.66666 l -2,1.66667 h -5 v 5 h 5 l 2,1.66667 v 1.66666 l -2,1.66667 h -5 v 5 h 5 l 2,1.66667 v 1.66666 l -2,1.66667 h -5 v 5 h 5 l 2,1.66667 v 1.66666 l -2,1.66667 h -5 v 5 h 5 l 2,1.66667 v 1.66666 l -2,1.66667 h -5 v 5 h 5 l 2,1.66667 v 1.66666 l -2,1.66667 h -5 v 5 h 5 l 2,1.66667 v 1.66666 l -2,1.66667 h -5 v 5 h 5 l 2,1.66667 v 1.66666 l -2,1.66667 h -5 v 5 h 5 l 2,1.66667 v 1.66666 l -2,1.66667 h -5 v 5 h 5 l 2,1.66667 v 1.66666 l -2,1.66667 h -5 v 5 h 5 l 2,1.66667 v 1.66666 l -2,1.66667 h -5 v 5 h 5 l 2,1.66667 v 1.66666 l -2,1.66667 h -5 v 5 h 5 l 2,1.66667 v 1.66666 l -2,1.66667 h -5 v 5 h 5 l 2,1.66667 v 1.66666 l -2,1.66667 h -5 v 5 h 5 l 2,1.66667 v 1.66666 l -2,1.66667 h -5 v 5 h 5 l 2,1.66667 v 1.66666 l -2,1.66667 h -5 v 5 h 5 l 2,1.66667 v 1.66666 l -2,1.66667 h -5 v 5"
       style="fill:none;stroke:#ff0000;stroke-width:0.1;stroke-linecap:round;stroke-linejoin:round;stroke-miterlimit:4;stroke-dasharray:none;stroke-opacity:1" />
    <path
       inkscape:connector-curvature="0"
       id="path150"
       d="m 308,-155.5 h 10 v -5 h -10 v 5"
       style="fill:none;stroke:#ff0000;stroke-width:0.1;stroke-linecap:round;stroke-linejoin:round;stroke-miterlimit:4;stroke-dasharray:none;stroke-opacity:1" />
    <path
       inkscape:connector-curvature="0"
       id="path152"
       d="m 105,-336.69649 v -3.52589 h 15 v 3.52589 h -15"
       style="fill:none;stroke:#ff0000;stroke-width:0.1;stroke-linecap:round;stroke-linejoin:round;stroke-miterlimit:4;stroke-dasharray:none;stroke-opacity:1" />
    <path
       inkscape:connector-curvature="0"
       id="path154"
       d="m 308,-145.5 h 10 v -5 h -10 v 5"
       style="fill:none;stroke:#ff0000;stroke-width:0.1;stroke-linecap:round;stroke-linejoin:round;stroke-miterlimit:4;stroke-dasharray:none;stroke-opacity:1" />
    <path
       inkscape:connector-curvature="0"
       id="path156"
       d="m 314,-125 v -5.5 h 3 v 5.5 h -3"
       style="fill:none;stroke:#ff0000;stroke-width:0.1;stroke-linecap:round;stroke-linejoin:round;stroke-miterlimit:4;stroke-dasharray:none;stroke-opacity:1" />
    <path
       inkscape:connector-curvature="0"
       id="path158"
       d="m 285,-139 v -3 h 5.5 v 3 H 285"
       style="fill:none;stroke:#ff0000;stroke-width:0.1;stroke-linecap:round;stroke-linejoin:round;stroke-miterlimit:4;stroke-dasharray:none;stroke-opacity:1" />
    <path
       inkscape:connector-curvature="0"
       id="path160"
       d="m 257,-143 v -15 h 3 v 15 h -3"
       style="fill:none;stroke:#ff0000;stroke-width:0.1;stroke-linecap:round;stroke-linejoin:round;stroke-miterlimit:4;stroke-dasharray:none;stroke-opacity:1" />
    <path
       inkscape:connector-curvature="0"
       id="path162"
       d="m 20,-336.69649 v -3.52589 h 15 v 3.52589 H 20"
       style="fill:none;stroke:#ff0000;stroke-width:0.1;stroke-linecap:round;stroke-linejoin:round;stroke-miterlimit:4;stroke-dasharray:none;stroke-opacity:1" />
    <path
       inkscape:connector-curvature="0"
       id="path164"
       d="m 117,-217.11793 h 3 v -22.24155 h -3 v 22.24155"
       style="fill:none;stroke:#ff0000;stroke-width:0.1;stroke-linecap:round;stroke-linejoin:round;stroke-miterlimit:4;stroke-dasharray:none;stroke-opacity:1" />
    <path
       inkscape:connector-curvature="0"
       id="path166"
       d="m 160,-143 h 3 v -15 h -3 v 15"
       style="fill:none;stroke:#ff0000;stroke-width:0.1;stroke-linecap:round;stroke-linejoin:round;stroke-miterlimit:4;stroke-dasharray:none;stroke-opacity:1" />
    <path
       inkscape:connector-curvature="0"
       id="path168"
       d="m 105,-137.99659 v -3.52588 h 15 v 3.52588 h -15"
       style="fill:none;stroke:#ff0000;stroke-width:0.1;stroke-linecap:round;stroke-linejoin:round;stroke-miterlimit:4;stroke-dasharray:none;stroke-opacity:1" />
    <path
       inkscape:connector-curvature="0"
       id="path170"
       d="m 20,-217.11793 h 3 v -22.24155 h -3 v 22.24155"
       style="fill:none;stroke:#ff0000;stroke-width:0.1;stroke-linecap:round;stroke-linejoin:round;stroke-miterlimit:4;stroke-dasharray:none;stroke-opacity:1" />
    <path
       inkscape:connector-curvature="0"
       id="path172"
       d="m 20,-137.99659 v -3.52588 h 15 v 3.52588 H 20"
       style="fill:none;stroke:#ff0000;stroke-width:0.1;stroke-linecap:round;stroke-linejoin:round;stroke-miterlimit:4;stroke-dasharray:none;stroke-opacity:1" />
    <path
       inkscape:connector-curvature="0"
       id="path174"
       d="m 518.95581,-327 v 15 25.35203 l -5,6 v 35 l 110,10e-6 v 34.99999 l -5,6 -1e-5,84.64797 h -15 l 1e-5,-13 h -60.5 l 1.5,10 v 3 h -5.5"
       style="fill:none;stroke:#ff0000;stroke-width:0.1;stroke-linecap:round;stroke-linejoin:round;stroke-miterlimit:4;stroke-dasharray:none;stroke-opacity:1" />
    <path
       inkscape:connector-curvature="0"
       id="path176"
       d="M 518.95581,-312 H 505.9558 v 85 h -7.5 v 3 h 7.5 v 76 h 13.00001"
       style="fill:none;stroke:#ff0000;stroke-width:0.1;stroke-linecap:round;stroke-linejoin:round;stroke-miterlimit:4;stroke-dasharray:none;stroke-opacity:1" />
    <path
       inkscape:connector-curvature="0"
       id="path178"
       d="m 513.95581,-245.64797 v 35 l 5,6 V -148 v 15"
       style="fill:none;stroke:#ff0000;stroke-width:0.1;stroke-linecap:round;stroke-linejoin:round;stroke-miterlimit:4;stroke-dasharray:none;stroke-opacity:1" />
    <path
       inkscape:connector-curvature="0"
       id="path180"
       d="m 395.95878,-251.55556 h 12.80116 L 418.84842,-327 h 57.10738 v -13 h 15 v 13 h 28.00001 v -18.36039 h 15 v 13 h 70 v -13 h 15 v 58.71242 l 5,6 v 35.00001"
       style="fill:none;stroke:#ff0000;stroke-width:0.1;stroke-linecap:round;stroke-linejoin:round;stroke-miterlimit:4;stroke-dasharray:none;stroke-opacity:1" />
    <path
       inkscape:connector-curvature="0"
       id="path182"
       d="m 543.45581,-133 h -4"
       style="fill:none;stroke:#ff0000;stroke-width:0.1;stroke-linecap:round;stroke-linejoin:round;stroke-miterlimit:4;stroke-dasharray:none;stroke-opacity:1" />
    <path
       inkscape:connector-curvature="0"
       id="path184"
       d="m 533.95581,-130 -1e-5,10 h -15"
       style="fill:none;stroke:#ff0000;stroke-width:0.1;stroke-linecap:round;stroke-linejoin:round;stroke-miterlimit:4;stroke-dasharray:none;stroke-opacity:1" />
    <path
       inkscape:connector-curvature="0"
       id="path186"
       d="m 280,-312 v 164"
       style="fill:none;stroke:#ff0000;stroke-width:0.1;stroke-linecap:round;stroke-linejoin:round;stroke-miterlimit:4;stroke-dasharray:none;stroke-opacity:1" />
    <path
       inkscape:connector-curvature="0"
       id="path188"
       d="M 402.99702,-208.44444 392.91288,-133 H 380.10738 323 v 7.5"
       style="fill:none;stroke:#ff0000;stroke-width:0.1;stroke-linecap:round;stroke-linejoin:round;stroke-miterlimit:4;stroke-dasharray:none;stroke-opacity:1" />
    <path
       inkscape:connector-curvature="0"
       id="path190"
       d="m 518.9558,-123 1e-5,-10 h -1.50001"
       style="fill:none;stroke:#ff0000;stroke-width:0.1;stroke-linecap:round;stroke-linejoin:round;stroke-miterlimit:4;stroke-dasharray:none;stroke-opacity:1" />
    <path
       inkscape:connector-curvature="0"
       id="path192"
       d="m 500.4558,-133 1.5,10 v 3 h -5.5 -4 l -1.5,-10 v -3 h 5.5 4 7.5 5.5"
       style="fill:none;stroke:#ff0000;stroke-width:0.1;stroke-linecap:round;stroke-linejoin:round;stroke-miterlimit:4;stroke-dasharray:none;stroke-opacity:1" />
    <path
       inkscape:connector-curvature="0"
       id="path194"
       d="m 496.4558,-133 v 13"
       style="fill:none;stroke:#ff0000;stroke-width:0.1;stroke-linecap:round;stroke-linejoin:round;stroke-miterlimit:4;stroke-dasharray:none;stroke-opacity:1" />
    <path
       inkscape:connector-curvature="0"
       id="path196"
       d="m 513.4558,-120 h -4 l -1.5,-10 v -3"
       style="fill:none;stroke:#ff0000;stroke-width:0.1;stroke-linecap:round;stroke-linejoin:round;stroke-miterlimit:4;stroke-dasharray:none;stroke-opacity:1" />
    <path
       inkscape:connector-curvature="0"
       id="path198"
       d="m 490.9558,-130 v 10 h -15 v -3 l -1.5,-10"
       style="fill:none;stroke:#ff0000;stroke-width:0.1;stroke-linecap:round;stroke-linejoin:round;stroke-miterlimit:4;stroke-dasharray:none;stroke-opacity:1" />
    <path
       inkscape:connector-curvature="0"
       id="path200"
       d="m 475.9558,-123 v -10 h -1.5 -4 -5.5 -5.5"
       style="fill:none;stroke:#ff0000;stroke-width:0.1;stroke-linecap:round;stroke-linejoin:round;stroke-miterlimit:4;stroke-dasharray:none;stroke-opacity:1" />
    <path
       inkscape:connector-curvature="0"
       id="path202"
       d="m 455.4558,-133 h 4 l 1.5,10 v 3 h -5.5"
       style="fill:none;stroke:#ff0000;stroke-width:0.1;stroke-linecap:round;stroke-linejoin:round;stroke-miterlimit:4;stroke-dasharray:none;stroke-opacity:1" />
    <path
       inkscape:connector-curvature="0"
       id="path204"
       d="m 475.9558,-120 h -5.5 v -13"
       style="fill:none;stroke:#ff0000;stroke-width:0.1;stroke-linecap:round;stroke-linejoin:round;stroke-miterlimit:4;stroke-dasharray:none;stroke-opacity:1" />
    <path
       inkscape:connector-curvature="0"
       id="path206"
       d="m 470.4558,-120 h -4 l -1.5,-10 v -3"
       style="fill:none;stroke:#ff0000;stroke-width:0.1;stroke-linecap:round;stroke-linejoin:round;stroke-miterlimit:4;stroke-dasharray:none;stroke-opacity:1" />
    <path
       inkscape:connector-curvature="0"
       id="path208"
       d="m 449.9558,-133 v 3 l 1.5,10 h 4 v -13 h -5.5 -5.5 l 1.5,10 v 3 h -5.5"
       style="fill:none;stroke:#ff0000;stroke-width:0.1;stroke-linecap:round;stroke-linejoin:round;stroke-miterlimit:4;stroke-dasharray:none;stroke-opacity:1" />
    <path
       inkscape:connector-curvature="0"
       id="path210"
       d="m 440.4558,-133 v 13 h -4 l -1.5,-10 v -3 h 5.5 4"
       style="fill:none;stroke:#ff0000;stroke-width:0.1;stroke-linecap:round;stroke-linejoin:round;stroke-miterlimit:4;stroke-dasharray:none;stroke-opacity:1" />
    <path
       inkscape:connector-curvature="0"
       id="path212"
       d="M 434.9558,-133 H 423 392.91288"
       style="fill:none;stroke:#ff0000;stroke-width:0.1;stroke-linecap:round;stroke-linejoin:round;stroke-miterlimit:4;stroke-dasharray:none;stroke-opacity:1" />
    <path
       inkscape:connector-curvature="0"
       id="path214"
       d="m 423,-133 v 7.5 h -3 v 5.5 h -94 v -5.5 h -3 v 5.5 h -15 v -3 -10 h -1.5 -4"
       style="fill:none;stroke:#ff0000;stroke-width:0.1;stroke-linecap:round;stroke-linejoin:round;stroke-miterlimit:4;stroke-dasharray:none;stroke-opacity:1" />
    <path
       inkscape:connector-curvature="0"
       id="path216"
       d="m 380.10738,-133 10.08849,-75.44444 h 12.80115 L 405.87821,-230 h -12.80062 l 2.88119,-21.55556 L 406.04293,-327 H 323 v -13 h -15 v 13 h -28"
       style="fill:none;stroke:#ff0000;stroke-width:0.1;stroke-linecap:round;stroke-linejoin:round;stroke-miterlimit:4;stroke-dasharray:none;stroke-opacity:1" />
    <path
       inkscape:connector-curvature="0"
       id="path218"
       d="m 306.5,-133 1.5,10"
       style="fill:none;stroke:#ff0000;stroke-width:0.1;stroke-linecap:round;stroke-linejoin:round;stroke-miterlimit:4;stroke-dasharray:none;stroke-opacity:1" />
    <path
       inkscape:connector-curvature="0"
       id="path220"
       d="m 308,-120 h -5.5 -4 l -1.5,-10 v -3 h -7.5"
       style="fill:none;stroke:#ff0000;stroke-width:0.1;stroke-linecap:round;stroke-linejoin:round;stroke-miterlimit:4;stroke-dasharray:none;stroke-opacity:1" />
    <path
       inkscape:connector-curvature="0"
       id="path222"
       d="m 302.5,-120 v -13 H 297"
       style="fill:none;stroke:#ff0000;stroke-width:0.1;stroke-linecap:round;stroke-linejoin:round;stroke-miterlimit:4;stroke-dasharray:none;stroke-opacity:1" />
    <path
       inkscape:connector-curvature="0"
       id="path224"
       d="m 280,-133 v 3 l 1.5,10 h 4 v -13"
       style="fill:none;stroke:#ff0000;stroke-width:0.1;stroke-linecap:round;stroke-linejoin:round;stroke-miterlimit:4;stroke-dasharray:none;stroke-opacity:1" />
    <path
       inkscape:connector-curvature="0"
       id="path226"
       d="m 285.5,-120 h 5.5 v -3 l -1.5,-10 h -4 -5.5 v -15 h 13 v -85 h 7.5 v -3 H 293 v -76 h -13 v -15 -33 H 140 0 v 240 h 140 140 v -10"
       style="fill:none;stroke:#ff0000;stroke-width:0.1;stroke-linecap:round;stroke-linejoin:round;stroke-miterlimit:4;stroke-dasharray:none;stroke-opacity:1" />
    <path
       inkscape:connector-curvature="0"
       id="path228"
       d="M 140,-120 V -360"
       style="fill:none;stroke:#ff0000;stroke-width:0.1;stroke-linecap:round;stroke-linejoin:round;stroke-miterlimit:4;stroke-dasharray:none;stroke-opacity:1" />
  </g>
</svg>
