 0
SECTION
 2
ENTITIES
  0
LINE
 8
GROUP0
10
566.455808142977
20
140.647971458979
30
5.01354791015984e-012
11
566.455808142976
21
150.647971458979
31
8.35626567941006e-012
  0
LINE
 8
GROUP0
10
524.955808142967
20
220.386284645976
30
3.16657561283407e-011
11
524.955808142968
21
214.886284645976
31
2.98274904775297e-011
  0
LINE
 8
GROUP0
10
623.955808142979
20
125.647968180691
30
4.86444218239512e-014
11
623.955808142975
21
160.647971458986
31
1.16083920254084e-011
  0
LINE
 8
GROUP0
10
586.455808142977
20
140.647971458982
30
5.01354791015984e-012
11
586.455808142976
21
150.647971458982
31
8.35626567941006e-012
  0
LINE
 8
GROUP0
10
576.455808142977
20
140.64797145898
30
5.01354791015984e-012
11
576.455808142976
21
150.647971458981
31
8.35626567941006e-012
  0
LINE
 8
GROUP0
10
513.955808142979
20
125.647971458973
30
0.0
11
513.955808142974
21
160.647971458973
31
1.169863095285e-011
  0
LINE
 8
GROUP0
10
571.455808142977
20
140.64797145898
30
5.01354791015984e-012
11
576.455808142977
21
140.64797145898
31
5.01354791015984e-012
  0
LINE
 8
GROUP0
10
561.455808142977
20
140.647971458979
30
5.01354791015984e-012
11
566.455808142977
21
140.647971458979
31
5.01354791015984e-012
  0
LINE
 8
GROUP0
10
596.455808142976
20
150.647971458983
30
8.35626567941006e-012
11
591.455808142976
21
150.647971458982
31
8.35626567941006e-012
  0
LINE
 8
GROUP0
10
536.455808142976
20
150.647971458976
30
8.35626567941006e-012
11
531.455808142976
21
150.647971458975
31
8.35626567941006e-012
  0
LINE
 8
GROUP0
10
536.455808142977
20
140.647971458976
30
5.01354791015984e-012
11
536.455808142976
21
150.647971458976
31
8.35626567941006e-012
  0
LINE
 8
GROUP0
10
581.455808142976
20
150.647971458981
30
8.35626567941006e-012
11
581.455808142977
21
140.647971458981
31
5.01354791015984e-012
  0
LINE
 8
GROUP0
10
581.455808142977
20
140.647971458981
30
5.01354791015984e-012
11
586.455808142977
21
140.647971458982
31
5.01354791015984e-012
  0
LINE
 8
GROUP0
10
618.955808142974
20
166.647971458985
30
1.36588601540311e-011
11
618.955808142967
21
225.360397764248
31
3.3328478865613e-011
  0
LINE
 8
GROUP0
10
576.455808142976
20
150.647971458981
30
8.35626567941006e-012
11
571.455808142976
21
150.64797145898
31
8.35626567941006e-012
  0
LINE
 8
GROUP0
10
556.455808142976
20
150.647971458978
30
8.35626567941006e-012
11
551.455808142976
21
150.647971458978
31
8.35626567941006e-012
  0
LINE
 8
GROUP0
10
601.455808142976
20
150.647971458983
30
8.35626567941006e-012
11
601.455808142977
21
140.647971458983
31
5.01354791015984e-012
  0
LINE
 8
GROUP0
10
606.455808142977
20
140.647971458984
30
5.01354791015984e-012
11
606.455808142976
21
150.647971458984
31
8.35626567941006e-012
  0
LINE
 8
GROUP0
10
513.955808142974
20
160.647971458973
30
1.169863095285e-011
11
518.955808142974
21
166.647971458974
31
1.37039796177518e-011
  0
LINE
 8
GROUP0
10
601.455808142977
20
140.647971458983
30
5.01354791015984e-012
11
606.455808142977
21
140.647971458984
31
5.01354791015984e-012
  0
LINE
 8
GROUP0
10
606.455808142976
20
150.647971458984
30
8.35626567941006e-012
11
601.455808142976
21
150.647971458983
31
8.35626567941006e-012
  0
LINE
 8
GROUP0
10
518.955808142974
20
166.647971458974
30
1.37039796177518e-011
11
518.955804785822
21
192.000002980256
31
1.67861768209376e-006
  0
LINE
 8
GROUP0
10
524.955808142968
20
214.886284645976
30
2.98274904775297e-011
11
527.955808142968
21
214.886284645977
31
2.98274904775297e-011
  0
LINE
 8
GROUP0
10
596.455808142977
20
140.647971458983
30
5.01354791015984e-012
11
596.455808142976
21
150.647971458983
31
8.35626567941006e-012
  0
LINE
 8
GROUP0
10
556.455808142977
20
140.647971458978
30
5.01354791015984e-012
11
556.455808142976
21
150.647971458978
31
8.35626567941006e-012
  0
LINE
 8
GROUP0
10
531.455808142976
20
150.647971458975
30
8.35626567941006e-012
11
531.455808142977
21
140.647971458975
31
5.01354791015984e-012
  0
LINE
 8
GROUP0
10
623.955808142975
20
160.647971458986
30
1.16083920254084e-011
11
618.955808142974
21
166.647971458985
31
1.36588601540311e-011
  0
LINE
 8
GROUP0
10
571.455808142976
20
150.64797145898
30
8.35626567941006e-012
11
571.455808142977
21
140.64797145898
31
5.01354791015984e-012
  0
LINE
 8
GROUP0
10
546.455808142977
20
140.647971458977
30
5.01354791015984e-012
11
546.455808142976
21
150.647971458977
31
8.35626567941006e-012
  0
LINE
 8
GROUP0
10
591.455808142976
20
150.647971458982
30
8.35626567941006e-012
11
591.455808142977
21
140.647971458982
31
5.01354791015984e-012
  0
LINE
 8
GROUP0
10
586.455808142976
20
150.647971458982
30
8.35626567941006e-012
11
581.455808142976
21
150.647971458981
31
8.35626567941006e-012
  0
LINE
 8
GROUP0
10
591.455808142977
20
140.647971458982
30
5.01354791015984e-012
11
596.455808142977
21
140.647971458983
31
5.01354791015984e-012
  0
LINE
 8
GROUP0
10
586.455808142975
20
160.647971458982
30
1.169863095285e-011
11
588.122474809641
21
162.647971458982
31
1.23669630092138e-011
  0
LINE
 8
GROUP0
10
581.455808142974
20
160.647971458981
30
1.169863095285e-011
11
581.455808142975
21
155.647971458981
31
1.002744831613e-011
  0
LINE
 8
GROUP0
10
578.122474809641
20
162.647971458981
30
1.23669630092138e-011
11
579.789141476307
21
162.647971458981
31
1.23669630092138e-011
  0
LINE
 8
GROUP0
10
608.955808142974
20
163.647971458984
30
1.2701481533206e-011
11
608.955808142969
21
202.360397764246
31
2.56408977383771e-011
  0
LINE
 8
GROUP0
10
596.455808142975
20
155.647971458983
30
1.002744831613e-011
11
596.455808142974
21
160.647971458983
31
1.169863095285e-011
  0
LINE
 8
GROUP0
10
606.455808142975
20
155.647971458984
30
1.002744831613e-011
11
606.455808142975
21
160.647971458984
31
1.169863095285e-011
  0
LINE
 8
GROUP0
10
596.455808142974
20
160.647971458983
30
1.169863095285e-011
11
598.122474809641
21
162.647971458983
31
1.23669630092138e-011
  0
LINE
 8
GROUP0
10
588.122474809641
20
162.647971458982
30
1.23669630092138e-011
11
589.789141476308
21
162.647971458982
31
1.23669630092138e-011
  0
LINE
 8
GROUP0
10
601.455808142975
20
155.647971458983
30
1.002744831613e-011
11
606.455808142975
21
155.647971458984
31
1.002744831613e-011
  0
LINE
 8
GROUP0
10
541.455808142977
20
140.647971458976
30
5.01354791015984e-012
11
546.455808142977
21
140.647971458977
31
5.01354791015984e-012
  0
LINE
 8
GROUP0
10
569.789141476308
20
162.64797145898
30
1.23669630092138e-011
11
571.455808142975
21
160.64797145898
31
1.169863095285e-011
  0
LINE
 8
GROUP0
10
598.122474809641
20
162.647971458983
30
1.23669630092138e-011
11
599.789141476308
21
162.647971458983
31
1.23669630092138e-011
  0
LINE
 8
GROUP0
10
531.455808142977
20
140.647971458975
30
5.01354791015984e-012
11
536.455808142977
21
140.647971458976
31
5.01354791015984e-012
  0
LINE
 8
GROUP0
10
579.789141476307
20
162.647971458981
30
1.23669630092138e-011
11
581.455808142974
21
160.647971458981
31
1.169863095285e-011
  0
LINE
 8
GROUP0
10
606.455808142975
20
160.647971458984
30
1.169863095285e-011
11
608.955808142974
21
163.647971458984
31
1.2701481533206e-011
  0
LINE
 8
GROUP0
10
589.789141476308
20
162.647971458982
30
1.23669630092138e-011
11
591.455808142975
21
160.647971458982
31
1.169863095285e-011
  0
LINE
 8
GROUP0
10
566.455808142975
20
155.647971458979
30
1.002744831613e-011
11
566.455808142974
21
160.647971458979
31
1.169863095285e-011
  0
LINE
 8
GROUP0
10
591.455808142975
20
160.647971458982
30
1.169863095285e-011
11
591.455808142975
21
155.647971458982
31
1.002744831613e-011
  0
LINE
 8
GROUP0
10
601.455808142975
20
160.647971458984
30
1.169863095285e-011
11
601.455808142975
21
155.647971458983
31
1.002744831613e-011
  0
LINE
 8
GROUP0
10
591.455808142975
20
155.647971458982
30
1.002744831613e-011
11
596.455808142975
21
155.647971458983
31
1.002744831613e-011
  0
LINE
 8
GROUP0
10
571.455808142975
20
155.64797145898
30
1.002744831613e-011
11
576.455808142975
21
155.64797145898
31
1.002744831613e-011
  0
LINE
 8
GROUP0
10
581.455808142975
20
155.647971458981
30
1.002744831613e-011
11
586.455808142975
21
155.647971458982
31
1.002744831613e-011
  0
LINE
 8
GROUP0
10
586.455808142975
20
155.647971458982
30
1.002744831613e-011
11
586.455808142975
21
160.647971458982
31
1.169863095285e-011
  0
LINE
 8
GROUP0
10
541.455808142976
20
150.647971458976
30
8.35626567941006e-012
11
541.455808142977
21
140.647971458976
31
5.01354791015984e-012
  0
LINE
 8
GROUP0
10
568.122474809641
20
162.64797145898
30
1.23669630092138e-011
11
569.789141476308
21
162.64797145898
31
1.23669630092138e-011
  0
LINE
 8
GROUP0
10
566.455808142974
20
160.647971458979
30
1.169863095285e-011
11
568.122474809641
21
162.64797145898
31
1.23669630092138e-011
  0
LINE
 8
GROUP0
10
599.789141476308
20
162.647971458983
30
1.23669630092138e-011
11
601.455808142975
21
160.647971458984
31
1.169863095285e-011
  0
LINE
 8
GROUP0
10
556.455808142975
20
155.647971458978
30
1.002744831613e-011
11
556.455808142975
21
160.647971458978
31
1.169863095285e-011
  0
LINE
 8
GROUP0
10
561.455808142975
20
155.647971458979
30
1.002744831613e-011
11
566.455808142975
21
155.647971458979
31
1.002744831613e-011
  0
LINE
 8
GROUP0
10
576.455808142975
20
155.64797145898
30
1.002744831613e-011
11
576.455808142975
21
160.647971458981
31
1.169863095285e-011
  0
LINE
 8
GROUP0
10
539.789141476308
20
162.647971458976
30
1.23669630092138e-011
11
541.455808142975
21
160.647971458976
31
1.169863095285e-011
  0
LINE
 8
GROUP0
10
551.455808142975
20
155.647971458978
30
1.002744831613e-011
11
556.455808142975
21
155.647971458978
31
1.002744831613e-011
  0
LINE
 8
GROUP0
10
559.789141476307
20
162.647971458979
30
1.23669630092138e-011
11
561.455808142975
21
160.647971458979
31
1.169863095285e-011
  0
LINE
 8
GROUP0
10
576.455808142975
20
160.647971458981
30
1.169863095285e-011
11
578.122474809641
21
162.647971458981
31
1.23669630092138e-011
  0
LINE
 8
GROUP0
10
541.455808142975
20
155.647971458976
30
1.002744831613e-011
11
546.455808142975
21
155.647971458977
31
1.002744831613e-011
  0
LINE
 8
GROUP0
10
538.122474809641
20
162.647971458976
30
1.23669630092138e-011
11
539.789141476308
21
162.647971458976
31
1.23669630092138e-011
  0
LINE
 8
GROUP0
10
556.455808142975
20
160.647971458978
30
1.169863095285e-011
11
558.122474809641
21
162.647971458978
31
1.23669630092138e-011
  0
LINE
 8
GROUP0
10
549.789141476308
20
162.647971458977
30
1.23669630092138e-011
11
551.455808142974
21
160.647971458978
31
1.169863095285e-011
  0
LINE
 8
GROUP0
10
541.455808142975
20
160.647971458976
30
1.169863095285e-011
11
541.455808142975
21
155.647971458976
31
1.002744831613e-011
  0
LINE
 8
GROUP0
10
551.455808142974
20
160.647971458978
30
1.169863095285e-011
11
551.455808142975
21
155.647971458978
31
1.002744831613e-011
  0
LINE
 8
GROUP0
10
571.455808142975
20
160.64797145898
30
1.169863095285e-011
11
571.455808142975
21
155.64797145898
31
1.002744831613e-011
  0
LINE
 8
GROUP0
10
546.455808142974
20
160.647971458977
30
1.169863095285e-011
11
548.122474809641
21
162.647971458977
31
1.23669630092138e-011
  0
LINE
 8
GROUP0
10
531.455808142975
20
155.647971458975
30
1.002744831613e-011
11
536.455808142975
21
155.647971458976
31
1.002744831613e-011
  0
LINE
 8
GROUP0
10
546.455808142975
20
155.647971458977
30
1.002744831613e-011
11
546.455808142974
21
160.647971458977
31
1.169863095285e-011
  0
LINE
 8
GROUP0
10
536.455808142974
20
160.647971458976
30
1.169863095285e-011
11
538.122474809641
21
162.647971458976
31
1.23669630092138e-011
  0
LINE
 8
GROUP0
10
618.955808142975
20
155.647971458986
30
1.002744831613e-011
11
615.955808142975
21
155.647971458985
31
1.002744831613e-011
  0
LINE
 8
GROUP0
10
521.955808142975
20
155.647971458974
30
1.002744831613e-011
11
518.955808142975
21
155.647971458974
31
1.002744831613e-011
  0
LINE
 8
GROUP0
10
615.955808142977
20
140.647971458985
30
5.01354791015984e-012
11
618.955808142977
21
140.647971458986
31
5.01354791015984e-012
  0
LINE
 8
GROUP0
10
548.122474809641
20
162.647971458977
30
1.23669630092138e-011
11
549.789141476308
21
162.647971458977
31
1.23669630092138e-011
  0
LINE
 8
GROUP0
10
561.455808142975
20
160.647971458979
30
1.169863095285e-011
11
561.455808142975
21
155.647971458979
31
1.002744831613e-011
  0
LINE
 8
GROUP0
10
518.955808142975
20
155.647971458974
30
1.002744831613e-011
11
518.955808142977
21
140.647971458974
31
5.01354791015984e-012
  0
LINE
 8
GROUP0
10
558.122474809641
20
162.647971458978
30
1.23669630092138e-011
11
559.789141476307
21
162.647971458979
31
1.23669630092138e-011
  0
LINE
 8
GROUP0
10
618.955808142977
20
140.647971458986
30
5.01354791015984e-012
11
618.955808142975
21
155.647971458986
31
1.002744831613e-011
  0
LINE
 8
GROUP0
10
615.955808142975
20
155.647971458985
30
1.002744831613e-011
11
615.955808142977
21
140.647971458985
31
5.01354791015984e-012
  0
LINE
 8
GROUP0
10
536.455808142975
20
155.647971458976
30
1.002744831613e-011
11
536.455808142974
21
160.647971458976
31
1.169863095285e-011
  0
LINE
 8
GROUP0
10
531.455808142974
20
160.647971458975
30
1.169863095285e-011
11
528.955808142974
21
163.647971458975
31
1.2701481533206e-011
  0
LINE
 8
GROUP0
10
521.955808142977
20
140.647971458974
30
5.01354791015984e-012
11
521.955808142975
21
155.647971458974
31
1.002744831613e-011
  0
LINE
 8
GROUP0
10
531.455808142974
20
160.647971458975
30
1.169863095285e-011
11
531.455808142975
21
155.647971458975
31
1.002744831613e-011
  0
LINE
 8
GROUP0
10
518.955808142977
20
140.647971458974
30
5.01354791015984e-012
11
521.955808142977
21
140.647971458974
31
5.01354791015984e-012
  0
LINE
 8
GROUP0
10
556.455807397915
20
100.647970192364
30
3.72527693204283e-007
11
551.455807397915
21
100.647970341377
31
3.72527691089308e-007
  0
LINE
 8
GROUP0
10
586.45580769594
20
110.647969298287
30
2.23516636649324e-007
11
586.455807397915
21
100.647969298287
31
3.72527706599124e-007
  0
LINE
 8
GROUP0
10
591.455807397914
20
100.647969149275
30
3.72527708714099e-007
11
591.45580769594
21
110.647969149275
31
2.23516639116794e-007
  0
LINE
 8
GROUP0
10
581.455807397915
20
100.6479694473
30
3.72527704484149e-007
11
581.45580769594
21
110.6479694473
31
2.23516634534349e-007
  0
LINE
 8
GROUP0
10
576.45580769594
20
110.647969596313
30
2.23516632419374e-007
11
576.455807397914
21
100.647969596313
31
3.72527702016678e-007
  0
LINE
 8
GROUP0
10
566.455807397915
20
100.647969894339
30
3.72527697786729e-007
11
561.455807397914
21
100.647970043351
31
3.72527695319258e-007
  0
LINE
 8
GROUP0
10
571.455807397915
20
100.647969745326
30
3.72527699901704e-007
11
571.45580769594
21
110.647969745326
31
2.23516629951903e-007
  0
LINE
 8
GROUP0
10
566.45580769594
20
110.647969894339
30
2.23516627836928e-007
11
566.455807397915
21
100.647969894339
31
3.72527697786729e-007
  0
LINE
 8
GROUP0
10
581.45580769594
20
110.6479694473
30
2.23516634534349e-007
11
586.45580769594
21
110.647969298287
31
2.23516636649324e-007
  0
LINE
 8
GROUP0
10
591.45580769594
20
110.647969149275
30
2.23516639116794e-007
11
596.45580769594
21
110.647969000262
31
2.23516641231769e-007
  0
LINE
 8
GROUP0
10
571.45580769594
20
110.647969745326
30
2.23516629951903e-007
11
576.45580769594
21
110.647969596313
31
2.23516632419374e-007
  0
LINE
 8
GROUP0
10
596.45580769594
20
110.647969000262
30
2.23516641231769e-007
11
596.455807397914
21
100.647969000262
31
3.72527711181569e-007
  0
LINE
 8
GROUP0
10
586.455807397915
20
100.647969298287
30
3.72527706599124e-007
11
581.455807397915
21
100.6479694473
31
3.72527704484149e-007
  0
LINE
 8
GROUP0
10
561.455807397914
20
100.647970043351
30
3.72527695319258e-007
11
561.45580769594
21
110.647970043351
31
2.23516625721953e-007
  0
LINE
 8
GROUP0
10
561.45580769594
20
110.647970043351
30
2.23516625721953e-007
11
566.45580769594
21
110.647969894339
31
2.23516627836928e-007
  0
LINE
 8
GROUP0
10
576.455807397914
20
100.647969596313
30
3.72527702016678e-007
11
571.455807397915
21
100.647969745326
31
3.72527699901704e-007
  0
LINE
 8
GROUP0
10
551.455807397915
20
100.647970341377
30
3.72527691089308e-007
11
551.45580769594
21
110.647970341377
31
2.23516621139508e-007
  0
LINE
 8
GROUP0
10
536.455807397915
20
100.647970788415
30
3.72527684391888e-007
11
531.455807397914
21
100.647970937428
31
3.72527682276913e-007
  0
LINE
 8
GROUP0
10
551.45580769594
20
110.647970341377
30
2.23516621139508e-007
11
556.45580769594
21
110.647970192364
31
2.23516623606979e-007
  0
LINE
 8
GROUP0
10
531.455807397914
20
100.647970937428
30
3.72527682276913e-007
11
531.45580769594
21
110.647970937428
31
2.23516612327113e-007
  0
LINE
 8
GROUP0
10
536.45580769594
20
110.647970788416
30
2.23516614442087e-007
11
536.455807397915
21
100.647970788415
31
3.72527684391888e-007
  0
LINE
 8
GROUP0
10
541.45580769594
20
110.647970639403
30
2.23516616909558e-007
11
546.45580769594
21
110.64797049039
31
2.23516619024533e-007
  0
LINE
 8
GROUP0
10
608.955805083806
20
23.0000002980257
30
1.52956839948315e-006
11
528.955805083806
21
23.0000026822307
31
1.52956836388107e-006
  0
LINE
 8
GROUP0
10
541.455807397914
20
100.647970639403
30
3.72527686506863e-007
11
541.45580769594
21
110.647970639403
31
2.23516616909558e-007
  0
LINE
 8
GROUP0
10
546.455807397914
20
100.64797049039
30
3.72527688974333e-007
11
541.455807397914
21
100.647970639403
31
3.72527686506863e-007
  0
LINE
 8
GROUP0
10
546.45580769594
20
110.64797049039
30
2.23516619024533e-007
11
546.455807397914
21
100.64797049039
31
3.72527688974333e-007
  0
LINE
 8
GROUP0
10
556.45580769594
20
110.647970192364
30
2.23516623606979e-007
11
556.455807397915
21
100.647970192364
31
3.72527693204283e-007
  0
LINE
 8
GROUP0
10
531.45580769594
20
110.647970937428
30
2.23516612327113e-007
11
536.45580769594
21
110.647970788416
31
2.23516614442087e-007
  0
LINE
 8
GROUP0
10
528.955805083806
20
23.0000026822307
30
1.52956836388107e-006
11
528.955807010481
21
87.6479710119346
31
5.66242071731171e-007
  0
LINE
 8
GROUP0
10
536.455807099889
20
90.6479707884155
30
5.21538753989192e-007
11
538.12247370695
21
88.6479707387445
31
5.51340968754643e-007
  0
LINE
 8
GROUP0
10
531.455807099889
20
90.6479709374283
30
5.21538751874218e-007
11
528.955807010481
21
87.6479710119346
31
5.66242071731171e-007
  0
LINE
 8
GROUP0
10
536.455807248902
20
95.6479707884155
30
4.47033219366788e-007
11
536.455807099889
21
90.6479707884155
31
5.21538753989192e-007
  0
LINE
 8
GROUP0
10
538.12247370695
20
88.6479707387445
30
5.51340968754643e-007
11
539.789140373617
21
88.6479706890736
31
5.51340969459635e-007
  0
LINE
 8
GROUP0
10
531.455807099889
20
90.6479709374283
30
5.21538751874218e-007
11
531.455807248902
21
95.6479709374283
31
4.47033216899317e-007
  0
LINE
 8
GROUP0
10
539.789140373617
20
88.6479706890736
30
5.51340969459635e-007
11
541.455807099889
21
90.6479706394027
31
5.21538756456663e-007
  0
LINE
 8
GROUP0
10
541.455807099889
20
90.6479706394027
30
5.21538756456663e-007
11
541.455807248902
21
95.6479706394027
31
4.47033221481763e-007
  0
LINE
 8
GROUP0
10
531.455807248902
20
95.6479709374283
30
4.47033216899317e-007
11
536.455807248902
21
95.6479707884155
31
4.47033219366788e-007
  0
LINE
 8
GROUP0
10
559.789140373617
20
88.6479700930224
30
5.51340978624526e-007
11
561.455807099889
21
90.6479700433514
31
5.21538765269058e-007
  0
LINE
 8
GROUP0
10
558.12247370695
20
88.6479701426933
30
5.51340977567039e-007
11
559.789140373617
21
88.6479700930224
31
5.51340978624526e-007
  0
LINE
 8
GROUP0
10
561.455807248902
20
95.6479700433514
30
4.47033230294158e-007
11
566.455807248902
21
95.6479698943386
31
4.47033232409133e-007
  0
LINE
 8
GROUP0
10
551.455807248902
20
95.647970341377
30
4.47033226064208e-007
11
556.455807248902
21
95.6479701923642
31
4.47033228179183e-007
  0
LINE
 8
GROUP0
10
561.455807099889
20
90.6479700433514
30
5.21538765269058e-007
11
561.455807248902
21
95.6479700433514
31
4.47033230294158e-007
  0
LINE
 8
GROUP0
10
541.455807248902
20
95.6479706394027
30
4.47033221481763e-007
11
546.455807248902
21
95.6479704903899
31
4.47033223596738e-007
  0
LINE
 8
GROUP0
10
551.455807099889
20
90.647970341377
30
5.21538760686613e-007
11
551.455807248902
21
95.647970341377
31
4.47033226064208e-007
  0
LINE
 8
GROUP0
10
556.455807248902
20
95.6479701923642
30
4.47033228179183e-007
11
556.455807099889
21
90.6479701923642
31
5.21538763154084e-007
  0
LINE
 8
GROUP0
10
548.12247370695
20
88.6479704407189
30
5.51340973337089e-007
11
549.789140373617
21
88.647970391048
31
5.5134097404208e-007
  0
LINE
 8
GROUP0
10
546.455807248902
20
95.6479704903899
30
4.47033223596738e-007
11
546.455807099889
21
90.6479704903898
31
5.21538758571638e-007
  0
LINE
 8
GROUP0
10
546.455807099889
20
90.6479704903898
30
5.21538758571638e-007
11
548.12247370695
21
88.6479704407189
31
5.51340973337089e-007
  0
LINE
 8
GROUP0
10
549.789140373617
20
88.647970391048
30
5.5134097404208e-007
11
551.455807099889
21
90.647970341377
31
5.21538760686613e-007
  0
LINE
 8
GROUP0
10
566.455807248902
20
95.6479698943386
30
4.47033232409133e-007
11
566.455807099889
21
90.6479698943386
31
5.21538767384033e-007
  0
LINE
 8
GROUP0
10
556.455807099889
20
90.6479701923642
30
5.21538763154084e-007
11
558.12247370695
21
88.6479701426933
31
5.51340977567039e-007
  0
LINE
 8
GROUP0
10
579.789140373617
20
88.6479694969711
30
5.51340987436921e-007
11
581.455807099889
21
90.6479694473001
31
5.21538774081454e-007
  0
LINE
 8
GROUP0
10
571.455807099889
20
90.6479697453258
30
5.21538769851504e-007
11
571.455807248902
21
95.6479697453257
31
4.47033234876604e-007
  0
LINE
 8
GROUP0
10
581.455807248902
20
95.6479694473001
30
4.47033239106553e-007
11
586.455807248902
21
95.6479692982873
31
4.47033241574024e-007
  0
LINE
 8
GROUP0
10
568.12247370695
20
88.6479698446676
30
5.51340982149484e-007
11
569.789140373617
21
88.6479697949967
31
5.51340982854476e-007
  0
LINE
 8
GROUP0
10
571.455807248902
20
95.6479697453257
30
4.47033234876604e-007
11
576.455807248902
21
95.6479695963129
31
4.47033236991579e-007
  0
LINE
 8
GROUP0
10
586.455807099889
20
90.6479692982873
30
5.21538776196428e-007
11
588.12247370695
21
88.6479692486163
31
5.51340990961879e-007
  0
LINE
 8
GROUP0
10
566.455807099889
20
90.6479698943386
30
5.21538767384033e-007
11
568.12247370695
21
88.6479698446676
31
5.51340982149484e-007
  0
LINE
 8
GROUP0
10
589.789140373617
20
88.6479691989454
30
5.51340991666871e-007
11
591.455807099889
21
90.6479691492745
31
5.21538778663899e-007
  0
LINE
 8
GROUP0
10
586.455807248902
20
95.6479692982873
30
4.47033241574024e-007
11
586.455807099889
21
90.6479692982873
31
5.21538776196428e-007
  0
LINE
 8
GROUP0
10
581.455807099889
20
90.6479694473001
30
5.21538774081454e-007
11
581.455807248902
21
95.6479694473001
31
4.47033239106553e-007
  0
LINE
 8
GROUP0
10
588.12247370695
20
88.6479692486163
30
5.51340990961879e-007
11
589.789140373617
21
88.6479691989454
31
5.51340991666871e-007
  0
LINE
 8
GROUP0
10
576.455807099889
20
90.6479695963129
30
5.21538771966479e-007
11
578.12247370695
21
88.647969546642
31
5.5134098673193e-007
  0
LINE
 8
GROUP0
10
569.789140373617
20
88.6479697949967
30
5.51340982854476e-007
11
571.455807099889
21
90.6479697453258
31
5.21538769851504e-007
  0
LINE
 8
GROUP0
10
591.455807099889
20
90.6479691492745
30
5.21538778663899e-007
11
591.455807248902
21
95.6479691492745
31
4.47033243688999e-007
  0
LINE
 8
GROUP0
10
576.455807248902
20
95.6479695963129
30
4.47033236991579e-007
11
576.455807099889
21
90.6479695963129
31
5.21538771966479e-007
  0
LINE
 8
GROUP0
10
578.12247370695
20
88.647969546642
30
5.5134098673193e-007
11
579.789140373617
21
88.6479694969711
31
5.51340987436921e-007
  0
LINE
 8
GROUP0
10
596.455807099889
20
90.6479690002617
30
5.21538780778874e-007
11
598.12247370695
21
88.6479689505907
31
5.51340995544325e-007
  0
LINE
 8
GROUP0
10
521.95580769594
20
110.647971220553
30
2.23516608097163e-007
11
518.95580769594
21
110.64797130996
31
2.2351660668718e-007
  0
LINE
 8
GROUP0
10
606.455807248902
20
95.6479687022361
30
4.47033250386419e-007
11
606.455807099889
21
90.6479687022361
31
5.2153878536132e-007
  0
LINE
 8
GROUP0
10
521.955807248902
20
95.6479712205526
30
4.47033212669368e-007
11
521.95580769594
21
110.647971220553
31
2.23516608097163e-007
  0
LINE
 8
GROUP0
10
518.955807248902
20
95.6479713099603
30
4.4703321161188e-007
11
521.955807248902
21
95.6479712205526
31
4.47033212669368e-007
  0
LINE
 8
GROUP0
10
596.455807248902
20
95.6479690002617
30
4.47033245803974e-007
11
596.455807099889
21
90.6479690002617
31
5.21538780778874e-007
  0
LINE
 8
GROUP0
10
601.455807099889
20
90.6479688512489
30
5.21538782893849e-007
11
601.455807248902
21
95.6479688512489
31
4.47033248271445e-007
  0
LINE
 8
GROUP0
10
599.789140373617
20
88.6479689009198
30
5.51340996249317e-007
11
601.455807099889
21
90.6479688512489
31
5.21538782893849e-007
  0
LINE
 8
GROUP0
10
606.455807099889
20
90.6479687022361
30
5.2153878536132e-007
11
608.955807010481
21
87.6479686277297
31
5.66242107333248e-007
  0
LINE
 8
GROUP0
10
598.12247370695
20
88.6479689505907
30
5.51340995544325e-007
11
599.789140373617
21
88.6479689009198
31
5.51340996249317e-007
  0
LINE
 8
GROUP0
10
518.95580769594
20
110.64797130996
30
2.2351660668718e-007
11
518.955807248902
21
95.6479713099603
31
4.4703321161188e-007
  0
LINE
 8
GROUP0
10
615.955807248902
20
95.6479684191117
30
4.47033254616369e-007
11
618.955807248902
21
95.647968329704
31
4.47033256026352e-007
  0
LINE
 8
GROUP0
10
615.95580769594
20
110.647968419112
30
2.23516650044164e-007
11
615.955807248902
21
95.6479684191117
31
4.47033254616369e-007
  0
LINE
 8
GROUP0
10
601.455807248902
20
95.6479688512489
30
4.47033248271445e-007
11
606.455807248902
21
95.6479687022361
31
4.47033250386419e-007
  0
LINE
 8
GROUP0
10
608.955807010481
20
87.6479686277297
30
5.66242107333248e-007
11
608.955805083806
21
23.0000002980257
31
1.52956839948315e-006
  0
LINE
 8
GROUP0
10
591.455807248902
20
95.6479691492745
30
4.47033243688999e-007
11
596.455807248902
21
95.6479690002617
31
4.47033245803974e-007
  0
LINE
 8
GROUP0
10
464.955804785777
20
13.0000029802837
30
1.67857666603377e-006
11
459.455804785777
21
13.000002980284
31
1.67857666603377e-006
  0
LINE
 8
GROUP0
10
618.955807248902
20
95.647968329704
30
4.47033256026352e-007
11
618.95580769594
21
110.647968329704
31
2.23516651101652e-007
  0
LINE
 8
GROUP0
10
434.955804785777
20
13.0000029802837
30
1.67857666603377e-006
11
422.999999999998
21
13.0000029802913
31
1.88465877706823e-007
  0
LINE
 8
GROUP0
10
618.95580769594
20
110.647968329704
30
2.23516651101652e-007
11
615.95580769594
21
110.647968419112
31
2.23516650044164e-007
  0
LINE
 8
GROUP0
10
440.455804785777
20
13.000002980284
30
1.67857666603377e-006
11
434.955804785777
21
13.0000029802837
31
1.67857666603377e-006
  0
LINE
 8
GROUP0
10
459.455804785777
20
13.000002980284
30
1.67857666603377e-006
11
455.455804785777
21
13.000002980284
31
1.67857666603377e-006
  0
LINE
 8
GROUP0
10
444.455804785777
20
13.000002980284
30
1.67857666603377e-006
11
440.455804785777
21
13.000002980284
31
1.67857666603377e-006
  0
LINE
 8
GROUP0
10
402.997025497551
20
88.4444474247295
30
1.67859555064431e-006
11
392.912878963318
21
13.0000029802853
31
1.67857942924843e-006
  0
LINE
 8
GROUP0
10
455.455804785777
20
13.000002980284
30
1.67857666603377e-006
11
449.955804785777
21
13.0000029802837
31
1.67857666603377e-006
  0
LINE
 8
GROUP0
10
449.955804785777
20
13.0000029802837
30
1.67857666603377e-006
11
444.455804785777
21
13.000002980284
31
1.67857666603377e-006
  0
LINE
 8
GROUP0
10
474.455804785777
20
13.000002980284
30
1.67857666603377e-006
11
470.455804785777
21
13.000002980284
31
1.67857666603377e-006
  0
LINE
 8
GROUP0
10
422.999999999998
20
13.0000029802913
30
1.88465877706823e-007
11
392.912878963318
21
13.0000029802853
31
1.67857942924843e-006
  0
LINE
 8
GROUP0
10
475.95580478578
20
13.0000029802663
30
1.67857942924843e-006
11
475.955804785777
21
3.00000298028396
31
1.6785766547539e-006
  0
LINE
 8
GROUP0
10
475.95580478578
20
13.0000029802663
30
1.67857942924843e-006
11
474.455804785777
21
13.000002980284
31
1.67857666603377e-006
  0
LINE
 8
GROUP0
10
475.955804785777
20
3.00000298028396
30
1.6785766547539e-006
11
475.955804785777
21
2.98026619134362e-006
31
1.67857665087645e-006
  0
LINE
 8
GROUP0
10
470.455804785777
20
13.000002980284
30
1.67857666603377e-006
11
464.955804785777
21
13.0000029802837
31
1.67857666603377e-006
  0
LINE
 8
GROUP0
10
490.95580478578
20
13.0000029802627
30
1.67857942924843e-006
11
490.955804785781
21
10.0000029802629
31
1.67857943488836e-006
  0
LINE
 8
GROUP0
10
498.455804785801
20
107.000002980261
30
1.67859942704074e-006
11
498.455804785801
21
104.000002980261
31
1.67859878585086e-006
  0
LINE
 8
GROUP0
10
505.955804785821
20
192.000002980259
30
1.67861768209376e-006
11
518.955804785822
21
192.000002980256
31
1.67861768209376e-006
  0
LINE
 8
GROUP0
10
505.955804785801
20
107.000002980259
30
1.67859942704074e-006
11
498.455804785801
21
107.000002980261
31
1.67859942704074e-006
  0
LINE
 8
GROUP0
10
505.955804785821
20
192.000002980259
30
1.67861768209376e-006
11
505.955804785801
21
107.000002980259
31
1.67859942704074e-006
  0
LINE
 8
GROUP0
10
507.955804398347
20
13.0000029802561
30
1.87229383667997e-006
11
500.45580478578
21
13.0000029802633
31
1.67857942924843e-006
  0
LINE
 8
GROUP0
10
498.455804785801
20
104.000002980261
30
1.67859878585086e-006
11
505.955804785801
21
104.000002980259
31
1.67859878585086e-006
  0
LINE
 8
GROUP0
10
505.955804785784
20
28.0000029802593
30
1.67858263484533e-006
11
518.955804785784
21
28.0000029802564
31
1.67858263484533e-006
  0
LINE
 8
GROUP0
10
500.45580478578
20
13.0000029802633
30
1.67857942924843e-006
11
496.45580478578
21
13.0000029802633
31
1.67857942924843e-006
  0
LINE
 8
GROUP0
10
518.95580478578
20
13.0000029802564
30
1.67857942924843e-006
11
517.455804398347
21
13.0000029802564
31
1.87229383667997e-006
  0
LINE
 8
GROUP0
10
513.455804398347
20
13.0000029802564
30
1.87229383667997e-006
11
507.955804398347
21
13.0000029802561
31
1.87229383667997e-006
  0
LINE
 8
GROUP0
10
490.955804785781
20
10.0000029802629
30
1.67857943488836e-006
11
490.955804785777
21
2.98026276226437e-006
31
1.67857665087645e-006
  0
LINE
 8
GROUP0
10
490.955804785777
20
2.98026276226437e-006
30
1.67857665087645e-006
11
475.955804785777
21
2.98026619134362e-006
31
1.67857665087645e-006
  0
LINE
 8
GROUP0
10
517.455804398347
20
13.0000029802564
30
1.87229383667997e-006
11
513.455804398347
21
13.0000029802564
31
1.87229383667997e-006
  0
LINE
 8
GROUP0
10
505.955804785801
20
104.000002980259
30
1.67859878585086e-006
11
505.955804785784
21
28.0000029802593
31
1.67858263484533e-006
  0
LINE
 8
GROUP0
10
496.45580478578
20
13.0000029802633
30
1.67857942924843e-006
11
490.95580478578
21
13.0000029802627
31
1.67857942924843e-006
  0
LINE
 8
GROUP0
10
481.955804785825
20
209.500002980265
30
1.67862142207431e-006
11
481.955804785827
21
215.000002980265
31
1.67862259729534e-006
  0
LINE
 8
GROUP0
10
484.955804785827
20
215.000002980264
30
1.67862259729534e-006
11
484.955804785825
21
209.500002980264
31
1.67862142207431e-006
  0
LINE
 8
GROUP0
10
518.955804785822
20
192.000002980256
30
1.67861768209376e-006
11
518.955804785825
21
207.000002980256
31
1.67862088769066e-006
  0
LINE
 8
GROUP0
10
481.955804785827
20
215.000002980265
30
1.67862259729534e-006
11
484.955804785827
21
215.000002980264
31
1.67862259729534e-006
  0
LINE
 8
GROUP0
10
518.955804785825
20
207.000002980256
30
1.67862088769066e-006
11
490.955804785825
21
207.000002980263
31
1.67862088769066e-006
  0
LINE
 8
GROUP0
10
490.955804785828
20
220.000002980263
30
1.67862366571014e-006
11
475.955804785828
21
220.000002980266
31
1.67862366571014e-006
  0
LINE
 8
GROUP0
10
399.3819382429
20
120.325538313846
30
1.67860236509332e-006
11
399.779466629717
21
123.299083534904
31
1.67860300064326e-006
  0
LINE
 8
GROUP0
10
490.955804785825
20
207.000002980263
30
1.67862088769066e-006
11
490.955804785828
21
220.000002980263
31
1.67862366571014e-006
  0
LINE
 8
GROUP0
10
395.958779288255
20
131.55555853584
30
1.67860476488479e-006
11
408.759937113213
21
131.555558535837
31
1.67860476488479e-006
  0
LINE
 8
GROUP0
10
475.955804785825
20
207.000002980266
30
1.67862088769066e-006
11
418.848420987805
21
207.000002980279
31
1.67862088769066e-006
  0
LINE
 8
GROUP0
10
404.83343781484
20
119.596736271349
30
1.67860220929017e-006
11
399.3819382429
21
120.325538313846
31
1.67860236509332e-006
  0
LINE
 8
GROUP0
10
418.848420987805
20
207.000002980279
30
1.67862088769066e-006
11
408.759937113213
21
131.555558535837
31
1.67860476488479e-006
  0
LINE
 8
GROUP0
10
405.230966201656
20
122.570281492407
30
1.67860284484012e-006
11
404.83343781484
21
119.596736271349
31
1.67860220929017e-006
  0
LINE
 8
GROUP0
10
484.955804785825
20
209.500002980264
30
1.67862142207431e-006
11
481.955804785825
21
209.500002980265
31
1.67862142207431e-006
  0
LINE
 8
GROUP0
10
475.955804785825
20
207.000002980266
30
1.67862088769066e-006
11
475.955804785828
21
220.000002980266
31
1.67862366571014e-006
  0
LINE
 8
GROUP0
10
399.779466629717
20
123.299083534904
30
1.67860300064326e-006
11
405.230966201656
21
122.570281492407
31
1.67860284484012e-006
  0
LINE
 8
GROUP0
10
481.955804785779
20
5.00000298026492
30
1.67857771964375e-006
11
481.95580478578
21
10.5000029802649
31
1.67857889486478e-006
  0
LINE
 8
GROUP0
10
513.955804785823
20
201.000002980258
30
1.6786196056634e-006
11
513.955804785822
21
198.000002980257
31
1.67861896447352e-006
  0
LINE
 8
GROUP0
10
508.455804785823
20
198.000002980259
30
1.67861896447352e-006
11
508.455804785823
21
201.000002980259
31
1.6786196056634e-006
  0
LINE
 8
GROUP0
10
508.455804785823
20
201.000002980259
30
1.6786196056634e-006
11
513.955804785823
21
201.000002980258
31
1.6786196056634e-006
  0
LINE
 8
GROUP0
10
513.955804785781
20
19.0000029802576
30
1.67858071127569e-006
11
508.455804785781
21
19.000002980259
31
1.67858071127569e-006
  0
LINE
 8
GROUP0
10
484.95580478578
20
10.5000029802642
30
1.67857889486478e-006
11
484.955804785779
21
5.0000029802642
31
1.67857771964375e-006
  0
LINE
 8
GROUP0
10
480.955804785783
20
23.0000029802652
30
1.67858156607803e-006
11
490.955804785783
21
23.0000029802628
31
1.67858156607803e-006
  0
LINE
 8
GROUP0
10
480.955804785782
20
24.5000029802652
30
1.67858188684922e-006
11
480.955804785783
21
23.0000029802652
31
1.67858156607803e-006
  0
LINE
 8
GROUP0
10
513.955804785822
20
198.000002980257
30
1.67861896447352e-006
11
508.455804785823
21
198.000002980259
31
1.67861896447352e-006
  0
LINE
 8
GROUP0
10
490.955804785782
20
24.5000029802628
30
1.67858188684922e-006
11
480.955804785782
21
24.5000029802652
31
1.67858188684922e-006
  0
LINE
 8
GROUP0
10
490.955804785783
20
23.0000029802628
30
1.67858156607803e-006
11
490.955804785782
21
24.5000029802628
31
1.67858188684922e-006
  0
LINE
 8
GROUP0
10
484.955804785779
20
5.0000029802642
30
1.67857771964375e-006
11
481.955804785779
21
5.00000298026492
31
1.67857771964375e-006
  0
LINE
 8
GROUP0
10
508.455804785782
20
22.0000029802589
30
1.67858135246557e-006
11
513.955804785782
21
22.0000029802576
31
1.67858135246557e-006
  0
LINE
 8
GROUP0
10
513.955804785782
20
22.0000029802576
30
1.67858135246557e-006
11
513.955804785781
21
19.0000029802576
31
1.67858071127569e-006
  0
LINE
 8
GROUP0
10
508.455804785781
20
19.000002980259
30
1.67858071127569e-006
11
508.455804785782
21
22.0000029802589
31
1.67858135246557e-006
  0
LINE
 8
GROUP0
10
481.95580478578
20
10.5000029802649
30
1.67857889486478e-006
11
484.95580478578
21
10.5000029802642
31
1.67857889486478e-006
  0
LINE
 8
GROUP0
10
475.955804785819
20
184.500002980266
30
1.67861607929531e-006
11
470.955804785819
21
184.500002980267
31
1.67861607929531e-006
  0
LINE
 8
GROUP0
10
468.95580478582
20
186.166669646935
30
1.67861643566858e-006
11
468.95580478582
21
187.833336313601
31
1.67861679168935e-006
  0
LINE
 8
GROUP0
10
468.955804785818
20
177.833336313601
30
1.67861465450725e-006
11
470.955804785818
21
179.500002980268
31
1.67861501088051e-006
  0
LINE
 8
GROUP0
10
468.955804785817
20
176.166669646934
30
1.67861429848648e-006
11
468.955804785818
21
177.833336313601
31
1.67861465450725e-006
  0
LINE
 8
GROUP0
10
470.955804785817
20
174.500002980267
30
1.67861394246571e-006
11
468.955804785817
21
176.166669646934
31
1.67861429848648e-006
  0
LINE
 8
GROUP0
10
470.955804785821
20
189.500002980267
30
1.67861714806261e-006
11
475.955804785821
21
189.500002980266
31
1.67861714806261e-006
  0
LINE
 8
GROUP0
10
470.955804785819
20
184.500002980267
30
1.67861607929531e-006
11
468.95580478582
21
186.166669646935
31
1.67861643566858e-006
  0
LINE
 8
GROUP0
10
467.955804785822
20
197.000002980268
30
1.67861875050856e-006
11
427.618185617742
21
197.000002980277
31
1.67861875050856e-006
  0
LINE
 8
GROUP0
10
470.955804785822
20
194.500002980267
30
1.67861821647741e-006
11
467.955804785822
21
197.000002980268
31
1.67861875050856e-006
  0
LINE
 8
GROUP0
10
404.31569354498
20
23.0000029802828
30
1.67858156607803e-006
11
475.955804785782
21
23.0000029802664
31
1.67858156607803e-006
  0
LINE
 8
GROUP0
10
475.955804785819
20
179.500002980266
30
1.67861501088051e-006
11
475.955804785819
21
184.500002980266
31
1.67861607929531e-006
  0
LINE
 8
GROUP0
10
470.955804785818
20
179.500002980268
30
1.67861501088051e-006
11
475.955804785819
21
179.500002980266
31
1.67861501088051e-006
  0
LINE
 8
GROUP0
10
404.31569354498
20
23.0000029802828
30
1.67858156607803e-006
11
427.618185617742
21
197.000002980277
31
1.67861875050856e-006
  0
LINE
 8
GROUP0
10
475.955804785822
20
194.500002980266
30
1.67861821647741e-006
11
470.955804785822
21
194.500002980267
31
1.67861821647741e-006
  0
LINE
 8
GROUP0
10
468.95580478582
20
187.833336313601
30
1.67861679168935e-006
11
470.955804785821
21
189.500002980267
31
1.67861714806261e-006
  0
LINE
 8
GROUP0
10
475.955804785821
20
189.500002980266
30
1.67861714806261e-006
11
475.955804785822
21
194.500002980266
31
1.67861821647741e-006
  0
LINE
 8
GROUP0
10
470.955804785812
20
154.500002980267
30
1.67860966810152e-006
11
468.955804785813
21
156.166669646935
31
1.67861002447478e-006
  0
LINE
 8
GROUP0
10
475.955804785813
20
159.500002980266
30
1.67861073686881e-006
11
475.955804785815
21
164.500002980266
31
1.67861180528361e-006
  0
LINE
 8
GROUP0
10
475.955804785813
20
154.500002980266
30
1.67860966810152e-006
11
470.955804785812
21
154.500002980267
31
1.67860966810152e-006
  0
LINE
 8
GROUP0
10
475.955804785812
20
149.500002980266
30
1.67860859968671e-006
11
475.955804785813
21
154.500002980266
31
1.67860966810152e-006
  0
LINE
 8
GROUP0
10
470.955804785812
20
149.500002980267
30
1.67860859968671e-006
11
475.955804785812
21
149.500002980266
31
1.67860859968671e-006
  0
LINE
 8
GROUP0
10
475.955804785816
20
169.500002980266
30
1.67861287369842e-006
11
475.955804785817
21
174.500002980266
31
1.67861394246571e-006
  0
LINE
 8
GROUP0
10
470.955804785816
20
169.500002980268
30
1.67861287369842e-006
11
475.955804785816
21
169.500002980266
31
1.67861287369842e-006
  0
LINE
 8
GROUP0
10
468.955804785813
20
156.166669646935
30
1.67861002447478e-006
11
468.955804785813
21
157.833336313601
31
1.67861038049555e-006
  0
LINE
 8
GROUP0
10
468.955804785811
20
147.833336313601
30
1.67860824366595e-006
11
470.955804785812
21
149.500002980267
31
1.67860859968671e-006
  0
LINE
 8
GROUP0
10
468.955804785813
20
157.833336313601
30
1.67861038049555e-006
11
470.955804785813
21
159.500002980267
31
1.67861073686881e-006
  0
LINE
 8
GROUP0
10
470.955804785815
20
164.500002980267
30
1.67861180528361e-006
11
468.955804785815
21
166.166669646934
31
1.67861216130438e-006
  0
LINE
 8
GROUP0
10
475.955804785815
20
164.500002980266
30
1.67861180528361e-006
11
470.955804785815
21
164.500002980267
31
1.67861180528361e-006
  0
LINE
 8
GROUP0
10
475.955804785817
20
174.500002980266
30
1.67861394246571e-006
11
470.955804785817
21
174.500002980267
31
1.67861394246571e-006
  0
LINE
 8
GROUP0
10
468.955804785816
20
167.833336313601
30
1.67861251767765e-006
11
470.955804785816
21
169.500002980268
31
1.67861287369842e-006
  0
LINE
 8
GROUP0
10
468.955804785815
20
166.166669646934
30
1.67861216130438e-006
11
468.955804785816
21
167.833336313601
31
1.67861251767765e-006
  0
LINE
 8
GROUP0
10
470.955804785813
20
159.500002980267
30
1.67861073686881e-006
11
475.955804785813
21
159.500002980266
31
1.67861073686881e-006
  0
LINE
 8
GROUP0
10
468.955804785806
20
126.166669646935
30
1.67860361328098e-006
11
468.955804785806
21
127.833336313601
31
1.67860396965425e-006
  0
LINE
 8
GROUP0
10
475.955804785808
20
134.500002980266
30
1.67860539408982e-006
11
470.955804785808
21
134.500002980267
31
1.67860539408982e-006
  0
LINE
 8
GROUP0
10
470.955804785806
20
124.500002980267
30
1.67860325726021e-006
11
468.955804785806
21
126.166669646935
31
1.67860361328098e-006
  0
LINE
 8
GROUP0
10
475.955804785806
20
124.500002980266
30
1.67860325726021e-006
11
470.955804785806
21
124.500002980267
31
1.67860325726021e-006
  0
LINE
 8
GROUP0
10
475.955804785804
20
119.500002980266
30
1.67860218849292e-006
11
475.955804785806
21
124.500002980266
31
1.67860325726021e-006
  0
LINE
 8
GROUP0
10
468.955804785811
20
146.166669646935
30
1.67860788729268e-006
11
468.955804785811
21
147.833336313601
31
1.67860824366595e-006
  0
LINE
 8
GROUP0
10
475.95580478581
20
144.500002980266
30
1.67860753127191e-006
11
470.95580478581
21
144.500002980267
31
1.67860753127191e-006
  0
LINE
 8
GROUP0
10
475.955804785809
20
139.500002980266
30
1.67860646285711e-006
11
475.95580478581
21
144.500002980266
31
1.67860753127191e-006
  0
LINE
 8
GROUP0
10
468.955804785806
20
127.833336313601
30
1.67860396965425e-006
11
470.955804785806
21
129.500002980268
31
1.67860432567501e-006
  0
LINE
 8
GROUP0
10
470.955804785806
20
129.500002980268
30
1.67860432567501e-006
11
475.955804785807
21
129.500002980266
31
1.67860432567501e-006
  0
LINE
 8
GROUP0
10
468.955804785809
20
136.166669646935
30
1.67860575046308e-006
11
468.955804785809
21
137.833336313601
31
1.67860610648385e-006
  0
LINE
 8
GROUP0
10
470.955804785808
20
134.500002980267
30
1.67860539408982e-006
11
468.955804785809
21
136.166669646935
31
1.67860575046308e-006
  0
LINE
 8
GROUP0
10
470.95580478581
20
144.500002980267
30
1.67860753127191e-006
11
468.955804785811
21
146.166669646935
31
1.67860788729268e-006
  0
LINE
 8
GROUP0
10
470.955804785809
20
139.500002980267
30
1.67860646285711e-006
11
475.955804785809
21
139.500002980266
31
1.67860646285711e-006
  0
LINE
 8
GROUP0
10
468.955804785809
20
137.833336313601
30
1.67860610648385e-006
11
470.955804785809
21
139.500002980267
31
1.67860646285711e-006
  0
LINE
 8
GROUP0
10
475.955804785807
20
129.500002980266
30
1.67860432567501e-006
11
475.955804785808
21
134.500002980266
31
1.67860539408982e-006
  0
LINE
 8
GROUP0
10
468.9558047858
20
97.8333363136014
30
1.67859755846045e-006
11
470.9558047858
21
99.5000029802677
31
1.67859791448122e-006
  0
LINE
 8
GROUP0
10
475.955804785802
20
109.500002980266
30
1.67860005166331e-006
11
475.955804785803
21
114.500002980266
31
1.67860112007812e-006
  0
LINE
 8
GROUP0
10
475.9558047858
20
99.5000029802665
30
1.67859791448122e-006
11
475.955804785801
21
104.500002980266
31
1.67859898289602e-006
  0
LINE
 8
GROUP0
10
468.955804785804
20
116.166669646935
30
1.67860147609888e-006
11
468.955804785804
21
117.833336313601
31
1.67860183247215e-006
  0
LINE
 8
GROUP0
10
475.955804785803
20
114.500002980266
30
1.67860112007812e-006
11
470.955804785803
21
114.500002980268
31
1.67860112007812e-006
  0
LINE
 8
GROUP0
10
470.955804785799
20
94.5000029802674
30
1.67859684606642e-006
11
468.955804785799
21
96.1666696469346
31
1.67859720208718e-006
  0
LINE
 8
GROUP0
10
470.955804785803
20
109.500002980268
30
1.67860005166331e-006
11
475.955804785802
21
109.500002980266
31
1.67860005166331e-006
  0
LINE
 8
GROUP0
10
470.9558047858
20
99.5000029802677
30
1.67859791448122e-006
11
475.9558047858
21
99.5000029802665
31
1.67859791448122e-006
  0
LINE
 8
GROUP0
10
475.955804785801
20
104.500002980266
30
1.67859898289602e-006
11
470.955804785801
21
104.500002980268
31
1.67859898289602e-006
  0
LINE
 8
GROUP0
10
468.955804785801
20
106.166669646935
30
1.67859933926928e-006
11
468.955804785802
21
107.833336313601
31
1.67859969529005e-006
  0
LINE
 8
GROUP0
10
468.955804785799
20
96.1666696469346
30
1.67859720208718e-006
11
468.9558047858
21
97.8333363136014
31
1.67859755846045e-006
  0
LINE
 8
GROUP0
10
470.955804785801
20
104.500002980268
30
1.67859898289602e-006
11
468.955804785801
21
106.166669646935
31
1.67859933926928e-006
  0
LINE
 8
GROUP0
10
470.955804785805
20
119.500002980267
30
1.67860218849292e-006
11
475.955804785804
21
119.500002980266
31
1.67860218849292e-006
  0
LINE
 8
GROUP0
10
468.955804785804
20
117.833336313601
30
1.67860183247215e-006
11
470.955804785805
21
119.500002980267
31
1.67860218849292e-006
  0
LINE
 8
GROUP0
10
468.955804785802
20
107.833336313601
30
1.67859969529005e-006
11
470.955804785803
21
109.500002980268
31
1.67860005166331e-006
  0
LINE
 8
GROUP0
10
470.955804785803
20
114.500002980268
30
1.67860112007812e-006
11
468.955804785804
21
116.166669646935
31
1.67860147609888e-006
  0
LINE
 8
GROUP0
10
470.955804785797
20
84.5000029802676
30
1.67859470888432e-006
11
468.955804785797
21
86.1666696469347
31
1.67859506525758e-006
  0
LINE
 8
GROUP0
10
475.955804785793
20
69.5000029802663
30
1.67859150328742e-006
11
475.955804785794
21
74.5000029802664
31
1.67859257205472e-006
  0
LINE
 8
GROUP0
10
468.955804785793
20
67.8333363136013
30
1.67859114726665e-006
11
470.955804785793
21
69.5000029802675
31
1.67859150328742e-006
  0
LINE
 8
GROUP0
10
475.955804785799
20
94.5000029802663
30
1.67859684606642e-006
11
470.955804785799
21
94.5000029802674
31
1.67859684606642e-006
  0
LINE
 8
GROUP0
10
470.955804785795
20
79.5000029802676
30
1.67859364046952e-006
11
475.955804785795
21
79.5000029802663
31
1.67859364046952e-006
  0
LINE
 8
GROUP0
10
468.955804785795
20
77.8333363136013
30
1.67859328444875e-006
11
470.955804785795
21
79.5000029802676
31
1.67859364046952e-006
  0
LINE
 8
GROUP0
10
468.955804785794
20
76.1666696469347
30
1.67859292807548e-006
11
468.955804785795
21
77.8333363136013
31
1.67859328444875e-006
  0
LINE
 8
GROUP0
10
468.955804785797
20
86.1666696469347
30
1.67859506525758e-006
11
468.955804785797
21
87.8333363136013
31
1.67859542127835e-006
  0
LINE
 8
GROUP0
10
475.955804785798
20
89.5000029802662
30
1.67859577765161e-006
11
475.955804785799
21
94.5000029802663
31
1.67859684606642e-006
  0
LINE
 8
GROUP0
10
470.955804785798
20
89.5000029802675
30
1.67859577765161e-006
11
475.955804785798
21
89.5000029802662
31
1.67859577765161e-006
  0
LINE
 8
GROUP0
10
475.955804785794
20
74.5000029802664
30
1.67859257205472e-006
11
470.955804785794
21
74.5000029802676
31
1.67859257205472e-006
  0
LINE
 8
GROUP0
10
475.955804785797
20
84.5000029802663
30
1.67859470888432e-006
11
470.955804785797
21
84.5000029802676
31
1.67859470888432e-006
  0
LINE
 8
GROUP0
10
475.955804785795
20
79.5000029802663
30
1.67859364046952e-006
11
475.955804785797
21
84.5000029802663
31
1.67859470888432e-006
  0
LINE
 8
GROUP0
10
468.955804785797
20
87.8333363136013
30
1.67859542127835e-006
11
470.955804785798
21
89.5000029802675
31
1.67859577765161e-006
  0
LINE
 8
GROUP0
10
470.955804785794
20
74.5000029802676
30
1.67859257205472e-006
11
468.955804785794
21
76.1666696469347
31
1.67859292807548e-006
  0
LINE
 8
GROUP0
10
470.955804785793
20
69.5000029802675
30
1.67859150328742e-006
11
475.955804785793
21
69.5000029802663
31
1.67859150328742e-006
  0
LINE
 8
GROUP0
10
470.955804785788
20
49.5000029802676
30
1.67858722927572e-006
11
475.955804785788
21
49.5000029802665
31
1.67858722927572e-006
  0
LINE
 8
GROUP0
10
475.955804785792
20
64.5000029802664
30
1.67859043487262e-006
11
470.955804785792
21
64.5000029802676
31
1.67859043487262e-006
  0
LINE
 8
GROUP0
10
468.95580478579
20
56.1666696469347
30
1.67858865406378e-006
11
468.955804785791
21
57.8333363136014
31
1.67858901008455e-006
  0
LINE
 8
GROUP0
10
468.955804785788
20
47.8333363136013
30
1.67858687325495e-006
11
470.955804785788
21
49.5000029802676
31
1.67858722927572e-006
  0
LINE
 8
GROUP0
10
468.955804785788
20
46.1666696469347
30
1.67858651688169e-006
11
468.955804785788
21
47.8333363136013
31
1.67858687325495e-006
  0
LINE
 8
GROUP0
10
470.955804785787
20
44.5000029802677
30
1.67858616086092e-006
11
468.955804785788
21
46.1666696469347
31
1.67858651688169e-006
  0
LINE
 8
GROUP0
10
468.955804785791
20
57.8333363136014
30
1.67858901008455e-006
11
470.955804785791
21
59.5000029802676
31
1.67858936645782e-006
  0
LINE
 8
GROUP0
10
475.955804785787
20
44.5000029802666
30
1.67858616086092e-006
11
470.955804785787
21
44.5000029802677
31
1.67858616086092e-006
  0
LINE
 8
GROUP0
10
475.955804785786
20
39.5000029802666
30
1.67858509244612e-006
11
475.955804785787
21
44.5000029802666
31
1.67858616086092e-006
  0
LINE
 8
GROUP0
10
470.955804785791
20
59.5000029802676
30
1.67858936645782e-006
11
475.955804785791
21
59.5000029802665
31
1.67858936645782e-006
  0
LINE
 8
GROUP0
10
468.955804785792
20
66.1666696469347
30
1.67859079089339e-006
11
468.955804785793
21
67.8333363136013
31
1.67859114726665e-006
  0
LINE
 8
GROUP0
10
470.955804785792
20
64.5000029802676
30
1.67859043487262e-006
11
468.955804785792
21
66.1666696469347
31
1.67859079089339e-006
  0
LINE
 8
GROUP0
10
475.95580478579
20
54.5000029802664
30
1.67858829769052e-006
11
470.95580478579
21
54.5000029802675
31
1.67858829769052e-006
  0
LINE
 8
GROUP0
10
475.955804785788
20
49.5000029802665
30
1.67858722927572e-006
11
475.95580478579
21
54.5000029802664
31
1.67858829769052e-006
  0
LINE
 8
GROUP0
10
470.95580478579
20
54.5000029802675
30
1.67858829769052e-006
11
468.95580478579
21
56.1666696469347
31
1.67858865406378e-006
  0
LINE
 8
GROUP0
10
475.955804785791
20
59.5000029802665
30
1.67858936645782e-006
11
475.955804785792
21
64.5000029802664
31
1.67859043487262e-006
  0
LINE
 8
GROUP0
10
475.955804785782
20
24.5000029802664
30
1.67858188684922e-006
11
470.955804785782
21
24.5000029802675
31
1.67858188684922e-006
  0
LINE
 8
GROUP0
10
475.955804785782
20
23.0000029802664
30
1.67858156607803e-006
11
475.955804785782
21
24.5000029802664
31
1.67858188684922e-006
  0
LINE
 8
GROUP0
10
468.955804785784
20
27.8333363136014
30
1.67858259924325e-006
11
470.955804785784
21
29.5000029802676
31
1.67858295526402e-006
  0
LINE
 8
GROUP0
10
480.955804785784
20
29.5000029802653
30
1.67858295526402e-006
11
490.955804785784
21
29.500002980263
31
1.67858295526402e-006
  0
LINE
 8
GROUP0
10
480.955804785785
20
34.5000029802653
30
1.67858402367882e-006
11
480.955804785784
21
29.5000029802653
31
1.67858295526402e-006
  0
LINE
 8
GROUP0
10
470.955804785784
20
29.5000029802676
30
1.67858295526402e-006
11
475.955804785784
21
29.5000029802666
31
1.67858295526402e-006
  0
LINE
 8
GROUP0
10
468.955804785785
20
36.1666696469348
30
1.67858438005208e-006
11
468.955804785786
21
37.8333363136014
31
1.67858473607285e-006
  0
LINE
 8
GROUP0
10
490.955804785784
20
29.500002980263
30
1.67858295526402e-006
11
490.955804785785
21
34.5000029802629
31
1.67858402367882e-006
  0
LINE
 8
GROUP0
10
468.955804785786
20
37.8333363136014
30
1.67858473607285e-006
11
470.955804785786
21
39.5000029802677
31
1.67858509244612e-006
  0
LINE
 8
GROUP0
10
475.955804785785
20
34.5000029802665
30
1.67858402367882e-006
11
470.955804785785
21
34.5000029802676
31
1.67858402367882e-006
  0
LINE
 8
GROUP0
10
470.955804785786
20
39.5000029802677
30
1.67858509244612e-006
11
475.955804785786
21
39.5000029802666
31
1.67858509244612e-006
  0
LINE
 8
GROUP0
10
468.955804785783
20
26.1666696469347
30
1.67858224286999e-006
11
468.955804785784
21
27.8333363136014
31
1.67858259924325e-006
  0
LINE
 8
GROUP0
10
470.955804785782
20
24.5000029802675
30
1.67858188684922e-006
11
468.955804785783
21
26.1666696469347
31
1.67858224286999e-006
  0
LINE
 8
GROUP0
10
475.955804785784
20
29.5000029802666
30
1.67858295526402e-006
11
475.955804785785
21
34.5000029802665
31
1.67858402367882e-006
  0
LINE
 8
GROUP0
10
490.955804785785
20
34.5000029802629
30
1.67858402367882e-006
11
480.955804785785
21
34.5000029802653
31
1.67858402367882e-006
  0
LINE
 8
GROUP0
10
470.955804785785
20
34.5000029802676
30
1.67858402367882e-006
11
468.955804785785
21
36.1666696469348
31
1.67858438005208e-006
  0
LINE
 8
GROUP0
10
490.955804785786
20
39.500002980263
30
1.67858509244612e-006
11
490.955804785787
21
44.500002980263
31
1.67858616086092e-006
  0
LINE
 8
GROUP0
10
480.955804785799
20
94.5000029802651
30
1.67859684606642e-006
11
480.955804785798
21
89.5000029802652
31
1.67859577765161e-006
  0
LINE
 8
GROUP0
10
490.955804785799
20
94.5000029802629
30
1.67859684606642e-006
11
480.955804785799
21
94.5000029802651
31
1.67859684606642e-006
  0
LINE
 8
GROUP0
10
480.955804785801
20
104.500002980265
30
1.67859898289602e-006
11
480.9558047858
21
99.5000029802652
31
1.67859791448122e-006
  0
LINE
 8
GROUP0
10
480.9558047858
20
99.5000029802652
30
1.67859791448122e-006
11
490.9558047858
21
99.500002980263
31
1.67859791448122e-006
  0
LINE
 8
GROUP0
10
490.955804785787
20
44.500002980263
30
1.67858616086092e-006
11
480.955804785787
21
44.5000029802653
31
1.67858616086092e-006
  0
LINE
 8
GROUP0
10
490.9558047858
20
99.500002980263
30
1.67859791448122e-006
11
490.955804785801
21
104.500002980263
31
1.67859898289602e-006
  0
LINE
 8
GROUP0
10
480.955804785786
20
39.5000029802654
30
1.67858509244612e-006
11
490.955804785786
21
39.500002980263
31
1.67858509244612e-006
  0
LINE
 8
GROUP0
10
490.95580478579
20
54.500002980263
30
1.67858829769052e-006
11
480.95580478579
21
54.5000029802652
31
1.67858829769052e-006
  0
LINE
 8
GROUP0
10
490.955804785788
20
49.5000029802629
30
1.67858722927572e-006
11
490.95580478579
21
54.500002980263
31
1.67858829769052e-006
  0
LINE
 8
GROUP0
10
480.955804785787
20
44.5000029802653
30
1.67858616086092e-006
11
480.955804785786
21
39.5000029802654
31
1.67858509244612e-006
  0
LINE
 8
GROUP0
10
490.955804785798
20
89.5000029802628
30
1.67859577765161e-006
11
490.955804785799
21
94.5000029802629
31
1.67859684606642e-006
  0
LINE
 8
GROUP0
10
490.955804785801
20
104.500002980263
30
1.67859898289602e-006
11
480.955804785801
21
104.500002980265
31
1.67859898289602e-006
  0
LINE
 8
GROUP0
10
480.95580478579
20
54.5000029802652
30
1.67858829769052e-006
11
480.955804785788
21
49.5000029802653
31
1.67858722927572e-006
  0
LINE
 8
GROUP0
10
480.955804785788
20
49.5000029802653
30
1.67858722927572e-006
11
490.955804785788
21
49.5000029802629
31
1.67858722927572e-006
  0
LINE
 8
GROUP0
10
480.955804785798
20
89.5000029802652
30
1.67859577765161e-006
11
490.955804785798
21
89.5000029802628
31
1.67859577765161e-006
  0
LINE
 8
GROUP0
10
490.955804785792
20
64.5000029802629
30
1.67859043487262e-006
11
480.955804785792
21
64.5000029802652
31
1.67859043487262e-006
  0
LINE
 8
GROUP0
10
490.955804785793
20
69.5000029802629
30
1.67859150328742e-006
11
490.955804785794
21
74.500002980263
31
1.67859257205472e-006
  0
LINE
 8
GROUP0
10
480.955804785793
20
69.5000029802652
30
1.67859150328742e-006
11
490.955804785793
21
69.5000029802629
31
1.67859150328742e-006
  0
LINE
 8
GROUP0
10
480.955804785791
20
59.5000029802653
30
1.67858936645782e-006
11
490.955804785791
21
59.500002980263
31
1.67858936645782e-006
  0
LINE
 8
GROUP0
10
490.955804785795
20
79.500002980263
30
1.67859364046952e-006
11
490.955804785797
21
84.5000029802628
31
1.67859470888432e-006
  0
LINE
 8
GROUP0
10
480.955804785797
20
84.5000029802652
30
1.67859470888432e-006
11
480.955804785795
21
79.5000029802653
31
1.67859364046952e-006
  0
LINE
 8
GROUP0
10
490.955804785797
20
84.5000029802628
30
1.67859470888432e-006
11
480.955804785797
21
84.5000029802652
31
1.67859470888432e-006
  0
LINE
 8
GROUP0
10
480.955804785792
20
64.5000029802652
30
1.67859043487262e-006
11
480.955804785791
21
59.5000029802653
31
1.67858936645782e-006
  0
LINE
 8
GROUP0
10
480.955804785795
20
79.5000029802653
30
1.67859364046952e-006
11
490.955804785795
21
79.500002980263
31
1.67859364046952e-006
  0
LINE
 8
GROUP0
10
480.955804785803
20
109.500002980265
30
1.67860005166331e-006
11
490.955804785802
21
109.500002980263
31
1.67860005166331e-006
  0
LINE
 8
GROUP0
10
490.955804785803
20
114.500002980263
30
1.67860112007812e-006
11
480.955804785803
21
114.500002980265
31
1.67860112007812e-006
  0
LINE
 8
GROUP0
10
490.955804785802
20
109.500002980263
30
1.67860005166331e-006
11
490.955804785803
21
114.500002980263
31
1.67860112007812e-006
  0
LINE
 8
GROUP0
10
480.955804785803
20
114.500002980265
30
1.67860112007812e-006
11
480.955804785803
21
109.500002980265
31
1.67860005166331e-006
  0
LINE
 8
GROUP0
10
480.955804785794
20
74.5000029802652
30
1.67859257205472e-006
11
480.955804785793
21
69.5000029802652
31
1.67859150328742e-006
  0
LINE
 8
GROUP0
10
490.955804785791
20
59.500002980263
30
1.67858936645782e-006
11
490.955804785792
21
64.5000029802629
31
1.67859043487262e-006
  0
LINE
 8
GROUP0
10
490.955804785794
20
74.500002980263
30
1.67859257205472e-006
11
480.955804785794
21
74.5000029802652
31
1.67859257205472e-006
  0
LINE
 8
GROUP0
10
490.95580478581
20
144.500002980263
30
1.67860753127191e-006
11
480.95580478581
21
144.500002980265
31
1.67860753127191e-006
  0
LINE
 8
GROUP0
10
480.955804785808
20
134.500002980265
30
1.67860539408982e-006
11
480.955804785807
21
129.500002980265
31
1.67860432567501e-006
  0
LINE
 8
GROUP0
10
490.955804785804
20
119.500002980263
30
1.67860218849292e-006
11
490.955804785806
21
124.500002980263
31
1.67860325726021e-006
  0
LINE
 8
GROUP0
10
480.955804785809
20
139.500002980265
30
1.67860646285711e-006
11
490.955804785809
21
139.500002980263
31
1.67860646285711e-006
  0
LINE
 8
GROUP0
10
490.955804785808
20
134.500002980263
30
1.67860539408982e-006
11
480.955804785808
21
134.500002980265
31
1.67860539408982e-006
  0
LINE
 8
GROUP0
10
480.955804785807
20
129.500002980265
30
1.67860432567501e-006
11
490.955804785807
21
129.500002980263
31
1.67860432567501e-006
  0
LINE
 8
GROUP0
10
480.95580478581
20
144.500002980265
30
1.67860753127191e-006
11
480.955804785809
21
139.500002980265
31
1.67860646285711e-006
  0
LINE
 8
GROUP0
10
490.955804785807
20
129.500002980263
30
1.67860432567501e-006
11
490.955804785808
21
134.500002980263
31
1.67860539408982e-006
  0
LINE
 8
GROUP0
10
490.955804785809
20
139.500002980263
30
1.67860646285711e-006
11
490.95580478581
21
144.500002980263
31
1.67860753127191e-006
  0
LINE
 8
GROUP0
10
480.955804785816
20
169.500002980265
30
1.67861287369842e-006
11
490.955804785816
21
169.500002980263
31
1.67861287369842e-006
  0
LINE
 8
GROUP0
10
480.955804785806
20
124.500002980265
30
1.67860325726021e-006
11
480.955804785804
21
119.500002980265
31
1.67860218849292e-006
  0
LINE
 8
GROUP0
10
490.955804785806
20
124.500002980263
30
1.67860325726021e-006
11
480.955804785806
21
124.500002980265
31
1.67860325726021e-006
  0
LINE
 8
GROUP0
10
480.955804785817
20
174.500002980265
30
1.67861394246571e-006
11
480.955804785816
21
169.500002980265
31
1.67861287369842e-006
  0
LINE
 8
GROUP0
10
480.955804785804
20
119.500002980265
30
1.67860218849292e-006
11
490.955804785804
21
119.500002980263
31
1.67860218849292e-006
  0
LINE
 8
GROUP0
10
490.955804785817
20
174.500002980263
30
1.67861394246571e-006
11
480.955804785817
21
174.500002980265
31
1.67861394246571e-006
  0
LINE
 8
GROUP0
10
490.955804785816
20
169.500002980263
30
1.67861287369842e-006
11
490.955804785817
21
174.500002980263
31
1.67861394246571e-006
  0
LINE
 8
GROUP0
10
480.955804785821
20
189.500002980265
30
1.67861714806261e-006
11
490.955804785821
21
189.500002980263
31
1.67861714806261e-006
  0
LINE
 8
GROUP0
10
490.955804785822
20
194.500002980263
30
1.67861821647741e-006
11
480.955804785822
21
194.500002980265
31
1.67861821647741e-006
  0
LINE
 8
GROUP0
10
480.955804785813
20
159.500002980265
30
1.67861073686881e-006
11
490.955804785813
21
159.500002980263
31
1.67861073686881e-006
  0
LINE
 8
GROUP0
10
480.955804785822
20
194.500002980265
30
1.67861821647741e-006
11
480.955804785821
21
189.500002980265
31
1.67861714806261e-006
  0
LINE
 8
GROUP0
10
480.955804785818
20
179.500002980265
30
1.67861501088051e-006
11
490.955804785819
21
179.500002980263
31
1.67861501088051e-006
  0
LINE
 8
GROUP0
10
480.955804785813
20
154.500002980265
30
1.67860966810152e-006
11
480.955804785812
21
149.500002980265
31
1.67860859968671e-006
  0
LINE
 8
GROUP0
10
480.955804785812
20
149.500002980265
30
1.67860859968671e-006
11
490.955804785812
21
149.500002980263
31
1.67860859968671e-006
  0
LINE
 8
GROUP0
10
490.955804785813
20
159.500002980263
30
1.67861073686881e-006
11
490.955804785815
21
164.500002980263
31
1.67861180528361e-006
  0
LINE
 8
GROUP0
10
490.955804785819
20
179.500002980263
30
1.67861501088051e-006
11
490.955804785819
21
184.500002980263
31
1.67861607929531e-006
  0
LINE
 8
GROUP0
10
490.955804785815
20
164.500002980263
30
1.67861180528361e-006
11
480.955804785815
21
164.500002980265
31
1.67861180528361e-006
  0
LINE
 8
GROUP0
10
480.955804785819
20
184.500002980265
30
1.67861607929531e-006
11
480.955804785818
21
179.500002980265
31
1.67861501088051e-006
  0
LINE
 8
GROUP0
10
480.955804785815
20
164.500002980265
30
1.67861180528361e-006
11
480.955804785813
21
159.500002980265
31
1.67861073686881e-006
  0
LINE
 8
GROUP0
10
490.955804785819
20
184.500002980263
30
1.67861607929531e-006
11
480.955804785819
21
184.500002980265
31
1.67861607929531e-006
  0
LINE
 8
GROUP0
10
490.955804785813
20
154.500002980263
30
1.67860966810152e-006
11
480.955804785813
21
154.500002980265
31
1.67860966810152e-006
  0
LINE
 8
GROUP0
10
490.955804785821
20
189.500002980263
30
1.67861714806261e-006
11
490.955804785822
21
194.500002980263
31
1.67861821647741e-006
  0
LINE
 8
GROUP0
10
490.955804785812
20
149.500002980263
30
1.67860859968671e-006
11
490.955804785813
21
154.500002980263
31
1.67860966810152e-006
  0
LINE
 8
GROUP0
10
500.45580478578
20
13.0000029802633
30
1.67857942924843e-006
11
501.955804785781
21
3.00000298026321
31
1.67857941796856e-006
  0
LINE
 8
GROUP0
10
451.455804785778
20
2.98028369769554e-006
30
1.67857668295357e-006
11
449.955804785777
21
10.0000029802836
31
1.6785766716737e-006
  0
LINE
 8
GROUP0
10
455.455804785777
20
13.000002980284
30
1.67857666603377e-006
11
455.455804785778
21
2.98028405865125e-006
31
1.67857668295357e-006
  0
LINE
 8
GROUP0
10
440.455804785777
20
2.9802838781734e-006
30
1.67857664911397e-006
11
440.455804785777
21
13.000002980284
31
1.67857666603377e-006
  0
LINE
 8
GROUP0
10
445.955804785777
20
2.9802838781734e-006
30
1.67857664911397e-006
11
440.455804785777
21
2.9802838781734e-006
31
1.67857664911397e-006
  0
LINE
 8
GROUP0
10
444.455804785777
20
13.000002980284
30
1.67857666603377e-006
11
445.955804785777
21
3.00000298028396
31
1.6785766547539e-006
  0
LINE
 8
GROUP0
10
459.455804785777
20
13.000002980284
30
1.67857666603377e-006
11
460.955804785777
21
3.00000298028396
31
1.6785766547539e-006
  0
LINE
 8
GROUP0
10
496.45580478578
20
13.0000029802633
30
1.67857942924843e-006
11
496.45580478578
21
2.98026312322008e-006
31
1.67857941232863e-006
  0
LINE
 8
GROUP0
10
451.455804785778
20
2.98028369769554e-006
30
1.67857668295357e-006
11
455.455804785778
21
2.98028405865125e-006
31
1.67857668295357e-006
  0
LINE
 8
GROUP0
10
449.955804785777
20
10.0000029802836
30
1.6785766716737e-006
11
449.955804785777
21
13.0000029802837
31
1.67857666603377e-006
  0
LINE
 8
GROUP0
10
460.955804785777
20
2.9802838781734e-006
30
1.67857664911397e-006
11
455.455804785778
21
2.98028405865125e-006
31
1.67857668295357e-006
  0
LINE
 8
GROUP0
10
460.955804785777
20
3.00000298028396
30
1.6785766547539e-006
11
460.955804785777
21
2.9802838781734e-006
31
1.67857664911397e-006
  0
LINE
 8
GROUP0
10
501.955804785781
20
2.98026312322008e-006
30
1.67857941232863e-006
11
496.45580478578
21
2.98026312322008e-006
31
1.67857941232863e-006
  0
LINE
 8
GROUP0
10
501.955804785781
20
3.00000298026321
30
1.67857941796856e-006
11
501.955804785781
21
2.98026312322008e-006
31
1.67857941232863e-006
  0
LINE
 8
GROUP0
10
445.955804785777
20
3.00000298028396
30
1.6785766547539e-006
11
445.955804785777
21
2.9802838781734e-006
31
1.67857664911397e-006
  0
LINE
 8
GROUP0
10
436.455804785778
20
2.98028369769554e-006
30
1.67857668295357e-006
11
440.455804785777
21
2.9802838781734e-006
31
1.67857664911397e-006
  0
LINE
 8
GROUP0
10
325.999999999999
20
5.50000298028448
30
1.63387602126752e-006
11
322.999999999999
21
5.50000298028412
31
1.67857942783844e-006
  0
LINE
 8
GROUP0
10
464.955804785777
20
10.0000029802836
30
1.6785766716737e-006
11
464.955804785777
21
13.0000029802837
31
1.67857666603377e-006
  0
LINE
 8
GROUP0
10
306.499999999998
20
13.000002980284
30
1.67857666603377e-006
11
307.999999999998
21
3.00000298028396
31
1.6785766547539e-006
  0
LINE
 8
GROUP0
10
466.455804785778
20
2.98028369769554e-006
30
1.67857668295357e-006
11
470.455804785778
21
2.98028405865125e-006
31
1.67857668295357e-006
  0
LINE
 8
GROUP0
10
434.955804785777
20
10.0000029802836
30
1.6785766716737e-006
11
434.955804785777
21
13.0000029802837
31
1.67857666603377e-006
  0
LINE
 8
GROUP0
10
492.455804785781
20
2.98026276226437e-006
30
1.67857944616823e-006
11
490.955804785781
21
10.0000029802629
31
1.67857943488836e-006
  0
LINE
 8
GROUP0
10
436.455804785778
20
2.98028369769554e-006
30
1.67857668295357e-006
11
434.955804785777
21
10.0000029802836
31
1.6785766716737e-006
  0
LINE
 8
GROUP0
10
492.455804785781
20
2.98026276226437e-006
30
1.67857944616823e-006
11
496.45580478578
21
2.98026312322008e-006
31
1.67857941232863e-006
  0
LINE
 8
GROUP0
10
466.455804785778
20
2.98028369769554e-006
30
1.67857668295357e-006
11
464.955804785777
21
10.0000029802836
31
1.6785766716737e-006
  0
LINE
 8
GROUP0
10
298.499999999999
20
2.98028369769554e-006
30
1.67857668295357e-006
11
302.499999999998
21
2.9802838781734e-006
31
1.67857664911397e-006
  0
LINE
 8
GROUP0
10
296.999999999999
20
10.0000029802836
30
1.6785766716737e-006
11
296.999999999998
21
13.0000029802837
31
1.67857666603377e-006
  0
LINE
 8
GROUP0
10
302.499999999998
20
2.9802838781734e-006
30
1.67857664911397e-006
11
302.499999999998
21
13.000002980284
31
1.67857666603377e-006
  0
LINE
 8
GROUP0
10
298.499999999999
20
2.98028369769554e-006
30
1.67857668295357e-006
11
296.999999999999
21
10.0000029802836
31
1.6785766716737e-006
  0
LINE
 8
GROUP0
10
307.999999999998
20
2.9802838781734e-006
30
1.67857664911397e-006
11
302.499999999998
21
2.9802838781734e-006
31
1.67857664911397e-006
  0
LINE
 8
GROUP0
10
470.455804785777
20
13.000002980284
30
1.67857666603377e-006
11
470.455804785778
21
2.98028405865125e-006
31
1.67857668295357e-006
  0
LINE
 8
GROUP0
10
392.912878963318
20
13.0000029802853
30
1.67857942924843e-006
11
380.107383798018
21
13.0000029802846
31
1.67857942783844e-006
  0
LINE
 8
GROUP0
10
475.955804785777
20
2.98026619134362e-006
30
1.67857665087645e-006
11
470.455804785778
21
2.98028405865125e-006
31
1.67857668295357e-006
  0
LINE
 8
GROUP0
10
281.499999999999
20
2.9802838781734e-006
30
1.67857944475824e-006
11
279.999999999998
21
10.0000029802838
31
1.67857943347838e-006
  0
LINE
 8
GROUP0
10
517.455804398347
20
13.0000029802564
30
1.87229383667997e-006
11
518.955804398347
21
3.00000298025635
31
1.87229382540011e-006
  0
LINE
 8
GROUP0
10
419.999999999999
20
5.50000298029116
30
2.33169284277746e-007
11
419.999999999999
21
2.98029109728759e-006
31
2.33169284277746e-007
  0
LINE
 8
GROUP0
10
9.02389274415327e-014
20
2.9802638451315e-006
30
1.67857674111538e-006
11
140.0
21
2.98026402560936e-006
31
1.67857674111538e-006
  0
LINE
 8
GROUP0
10
20.0000000000001
20
21.5224760271682
30
1.67857671855565e-006
11
35.0000000000001
21
21.5224760271682
31
1.67857671855565e-006
  0
LINE
 8
GROUP0
10
0.0
20
240.000002980264
30
1.67857674111538e-006
11
9.02389274415327e-014
21
2.9802638451315e-006
31
1.67857674111538e-006
  0
LINE
 8
GROUP0
10
419.999999999999
20
2.98029109728759e-006
30
2.33169284277746e-007
11
325.999999999999
21
2.98028441960696e-006
31
1.63387602126752e-006
  0
LINE
 8
GROUP0
10
35.0000000000001
20
21.5224760271682
30
1.67857671855565e-006
11
35.0000000000001
21
17.9965891454284
31
1.67857671855565e-006
  0
LINE
 8
GROUP0
10
20.0000000000001
20
17.9965891454284
30
1.67857671855565e-006
11
20.0000000000001
21
21.5224760271682
31
1.67857671855565e-006
  0
LINE
 8
GROUP0
10
105.0
20
21.5224760271682
30
1.67857676367511e-006
11
120.0
21
21.5224760271682
31
1.67857676367511e-006
  0
LINE
 8
GROUP0
10
419.999999999999
20
5.50000298029116
30
2.33169284277746e-007
11
422.999999999999
21
5.50000298029134
31
1.88465877706823e-007
  0
LINE
 8
GROUP0
10
117.0
20
97.1179276087016
30
1.67857674111538e-006
11
120.0
21
97.1179276087016
31
1.67857674111538e-006
  0
LINE
 8
GROUP0
10
35.0000000000001
20
17.9965891454284
30
1.67857671855565e-006
11
20.0000000000001
21
17.9965891454284
31
1.67857671855565e-006
  0
LINE
 8
GROUP0
10
120.0
20
21.5224760271682
30
1.67857676367511e-006
11
120.0
21
17.9965891454284
31
1.67857671855565e-006
  0
LINE
 8
GROUP0
10
422.999999999998
20
13.0000029802913
30
1.88465877706823e-007
11
422.999999999999
21
5.50000298029134
31
1.88465877706823e-007
  0
LINE
 8
GROUP0
10
509.455804398348
20
2.98025608458374e-006
30
1.87229385359977e-006
11
507.955804398347
21
10.000002980256
31
1.87229384231991e-006
  0
LINE
 8
GROUP0
10
140.0
20
240.000002980264
30
1.67857674111538e-006
11
0.0
21
240.000002980264
31
1.67857674111538e-006
  0
LINE
 8
GROUP0
10
507.955804398347
20
10.000002980256
30
1.87229384231991e-006
11
507.955804398347
21
13.0000029802561
31
1.87229383667997e-006
  0
LINE
 8
GROUP0
10
105.0
20
17.9965891454284
30
1.67857671855565e-006
11
105.0
21
21.5224760271682
31
1.67857676367511e-006
  0
LINE
 8
GROUP0
10
20.0000000000001
20
97.1179276087015
30
1.67857674111538e-006
11
23.0000000000001
21
97.1179276087015
31
1.67857674111538e-006
  0
LINE
 8
GROUP0
10
120.0
20
119.359485203426
30
1.67857667343618e-006
11
117.0
21
119.359485203426
31
1.67857667343618e-006
  0
LINE
 8
GROUP0
10
474.455804785777
20
13.000002980284
30
1.67857666603377e-006
11
475.955804785777
21
3.00000298028396
31
1.6785766547539e-006
  0
LINE
 8
GROUP0
10
535.455804785781
20
2.53321803285189e-006
30
1.67857945286565e-006
11
539.455804785781
21
2.53321821332975e-006
31
1.67857945286565e-006
  0
LINE
 8
GROUP0
10
281.499999999999
20
2.9802838781734e-006
30
1.67857944475824e-006
11
285.499999999998
21
2.98028405865125e-006
31
1.67857941091865e-006
  0
LINE
 8
GROUP0
10
535.455804785781
20
2.53321803285189e-006
30
1.67857945286565e-006
11
533.955804785781
21
10.000002533218
31
1.67857944158578e-006
  0
LINE
 8
GROUP0
10
325.999999999999
20
5.50000298028448
30
1.63387602126752e-006
11
325.999999999999
21
2.98028441960696e-006
31
1.63387602126752e-006
  0
LINE
 8
GROUP0
10
20.0
20
220.222381261422
30
1.67857671855565e-006
11
35.0
21
220.222381261422
31
1.67857671855565e-006
  0
LINE
 8
GROUP0
10
159.999999977618
20
217.000002980267
30
9.33535054808976e-007
11
162.999999977618
21
217.000002980267
31
9.78237568155516e-007
  0
LINE
 8
GROUP0
10
159.999999977643
20
38.000002980267
30
9.33535054808976e-007
11
159.999999977646
21
23.0000029802668
31
9.33535054808976e-007
  0
LINE
 8
GROUP0
10
259.99999997762
20
202.000002980281
30
2.42361883138198e-006
11
256.99999997762
21
202.000002980281
31
2.37891631803544e-006
  0
LINE
 8
GROUP0
10
35.0
20
220.222381261422
30
1.67857671855565e-006
11
35.0
21
216.696494379682
31
1.67857674111538e-006
  0
LINE
 8
GROUP0
10
120.0
20
220.222381261422
30
1.67857671855565e-006
11
120.0
21
216.696494379682
31
1.67857674111538e-006
  0
LINE
 8
GROUP0
10
20.0
20
216.696494379682
30
1.67857674111538e-006
11
20.0
21
220.222381261422
31
1.67857671855565e-006
  0
LINE
 8
GROUP0
10
117.0
20
119.359485203426
30
1.67857667343618e-006
11
117.0
21
97.1179276087016
31
1.67857674111538e-006
  0
LINE
 8
GROUP0
10
35.0
20
216.696494379682
30
1.67857674111538e-006
11
20.0
21
216.696494379682
31
1.67857674111538e-006
  0
LINE
 8
GROUP0
10
120.0
20
17.9965891454284
30
1.67857671855565e-006
11
105.0
21
17.9965891454284
31
1.67857671855565e-006
  0
LINE
 8
GROUP0
10
140.0
20
2.98026402560936e-006
30
1.67857674111538e-006
11
140.0
21
240.000002980264
31
1.67857674111538e-006
  0
LINE
 8
GROUP0
10
279.999999977615
20
240.000002980284
30
2.72163558655558e-006
11
279.999999999997
21
207.000002980284
31
1.67862088628068e-006
  0
LINE
 8
GROUP0
10
105.0
20
220.222381261422
30
1.67857671855565e-006
11
120.0
21
220.222381261422
31
1.67857671855565e-006
  0
LINE
 8
GROUP0
10
120.0
20
216.696494379682
30
1.67857674111538e-006
11
105.0
21
216.696494379682
31
1.67857674111538e-006
  0
LINE
 8
GROUP0
10
23.0000000000001
20
119.359485203426
30
1.67857667343618e-006
11
20.0000000000001
21
119.359485203426
31
1.67857667343618e-006
  0
LINE
 8
GROUP0
10
20.0000000000001
20
119.359485203426
30
1.67857667343618e-006
11
20.0000000000001
21
97.1179276087015
31
1.67857674111538e-006
  0
LINE
 8
GROUP0
10
140.0
20
240.000002980264
30
1.67857674111538e-006
11
279.999999977615
21
240.000002980284
31
2.72163558655558e-006
  0
LINE
 8
GROUP0
10
105.0
20
216.696494379682
30
1.67857674111538e-006
11
105.0
21
220.222381261422
31
1.67857671855565e-006
  0
LINE
 8
GROUP0
10
256.999999977618
20
217.000002980281
30
2.37891631803544e-006
11
259.999999977618
21
217.000002980281
31
2.42361883138198e-006
  0
LINE
 8
GROUP0
10
279.999999977649
20
2.98028369769554e-006
30
2.72163558655558e-006
11
140.0
21
2.98026402560936e-006
31
1.67857674111538e-006
  0
LINE
 8
GROUP0
10
256.999999977645
20
23.0000029802805
30
2.37891631803544e-006
11
256.999999977643
21
38.0000029802805
31
2.37891631803544e-006
  0
LINE
 8
GROUP0
10
23.0000000000001
20
97.1179276087015
30
1.67857674111538e-006
11
23.0000000000001
21
119.359485203426
31
1.67857667343618e-006
  0
LINE
 8
GROUP0
10
256.999999977643
20
38.0000029802805
30
2.37891631803544e-006
11
259.999999977643
21
38.0000029802811
31
2.42361883138198e-006
  0
LINE
 8
GROUP0
10
162.99999997762
20
202.000002980267
30
9.78237568155516e-007
11
159.99999997762
21
202.000002980267
31
9.33535054808976e-007
  0
LINE
 8
GROUP0
10
256.99999997762
20
202.000002980281
30
2.37891631803544e-006
11
256.999999977618
21
217.000002980281
31
2.37891631803544e-006
  0
LINE
 8
GROUP0
10
162.999999977645
20
23.0000029802673
30
9.78237568155516e-007
11
162.999999977643
21
38.0000029802673
31
9.78237568155516e-007
  0
LINE
 8
GROUP0
10
259.999999977618
20
217.000002980281
30
2.42361883138198e-006
11
259.99999997762
21
202.000002980281
31
2.42361883138198e-006
  0
LINE
 8
GROUP0
10
259.999999977643
20
38.0000029802811
30
2.42361883138198e-006
11
259.999999977646
21
23.000002980281
31
2.42361883138198e-006
  0
LINE
 8
GROUP0
10
120.0
20
97.1179276087016
30
1.67857674111538e-006
11
120.0
21
119.359485203426
31
1.67857667343618e-006
  0
LINE
 8
GROUP0
10
259.999999977646
20
23.000002980281
30
2.42361883138198e-006
11
256.999999977645
21
23.0000029802805
31
2.37891631803544e-006
  0
LINE
 8
GROUP0
10
162.999999977618
20
217.000002980267
30
9.78237568155516e-007
11
162.99999997762
21
202.000002980267
31
9.78237568155516e-007
  0
LINE
 8
GROUP0
10
159.99999997762
20
202.000002980267
30
9.33535054808976e-007
11
159.999999977618
21
217.000002980267
31
9.33535054808976e-007
  0
LINE
 8
GROUP0
10
159.999999977646
20
23.0000029802668
30
9.33535054808976e-007
11
162.999999977645
21
23.0000029802673
31
9.78237568155516e-007
  0
LINE
 8
GROUP0
10
513.455804398347
20
2.9802562650616e-006
30
1.87229381976017e-006
11
513.455804398347
21
13.0000029802564
31
1.87229383667997e-006
  0
LINE
 8
GROUP0
10
162.999999977643
20
38.0000029802673
30
9.78237568155516e-007
11
159.999999977643
21
38.000002980267
31
9.33535054808976e-007
  0
LINE
 8
GROUP0
10
279.999999999998
20
13.0000029802839
30
1.67857942783844e-006
11
279.999999999998
21
10.0000029802838
31
1.67857943347838e-006
  0
LINE
 8
GROUP0
10
518.955804398347
20
2.9802562650616e-006
30
1.87229381976017e-006
11
513.455804398347
21
2.9802562650616e-006
31
1.87229381976017e-006
  0
LINE
 8
GROUP0
10
279.999999999998
20
10.0000029802838
30
1.67857943347838e-006
11
279.999999977649
21
2.98028369769554e-006
31
2.72163558655558e-006
  0
LINE
 8
GROUP0
10
279.999999999997
20
192.000002980284
30
1.67861768068378e-006
11
279.999999999998
21
28.0000029802839
31
1.67858263343534e-006
  0
LINE
 8
GROUP0
10
612.955808142967
20
220.386284645987
30
3.16657561283407e-011
11
612.955808142968
21
214.886284645987
31
2.98274904775297e-011
  0
LINE
 8
GROUP0
10
609.955808142968
20
220.386284645986
30
3.16657561283407e-011
11
612.955808142967
21
220.386284645987
31
3.16657561283407e-011
  0
LINE
 8
GROUP0
10
533.955808142968
20
212.360397764237
30
2.8983263011817e-011
11
603.955808142968
21
212.360397764246
31
2.8983263011817e-011
  0
LINE
 8
GROUP0
10
566.455808142976
20
150.647971458979
30
8.35626567941006e-012
11
561.455808142976
21
150.647971458979
31
8.35626567941006e-012
  0
LINE
 8
GROUP0
10
546.455808142976
20
150.647971458977
30
8.35626567941006e-012
11
541.455808142976
21
150.647971458976
31
8.35626567941006e-012
  0
LINE
 8
GROUP0
10
518.955808142967
20
225.360397764236
30
3.3328478865613e-011
11
533.955808142967
21
225.360397764237
31
3.3328478865613e-011
  0
LINE
 8
GROUP0
10
543.45580478578
20
13.0000025332184
30
1.67857943594585e-006
11
544.95580478578
21
3.0000025332183
31
1.67857942466598e-006
  0
LINE
 8
GROUP0
10
539.45580478578
20
13.0000025332184
30
1.67857943594585e-006
11
539.455804785781
21
2.53321821332975e-006
31
1.67857945286565e-006
  0
LINE
 8
GROUP0
10
609.955808142968
20
214.886284645986
30
2.98274904775297e-011
11
609.955808142968
21
220.386284645986
31
3.16657561283407e-011
  0
LINE
 8
GROUP0
10
533.955808142968
20
212.360397764237
30
2.8983263011817e-011
11
533.955808142967
21
225.360397764237
31
3.3328478865613e-011
  0
LINE
 8
GROUP0
10
527.955808142967
20
220.386284645977
30
3.16657561283407e-011
11
524.955808142967
21
220.386284645976
31
3.16657561283407e-011
  0
LINE
 8
GROUP0
10
561.455808142976
20
150.647971458979
30
8.35626567941006e-012
11
561.455808142977
21
140.647971458979
31
5.01354791015984e-012
  0
LINE
 8
GROUP0
10
551.455808142977
20
140.647971458978
30
5.01354791015984e-012
11
556.455808142977
21
140.647971458978
31
5.01354791015984e-012
  0
LINE
 8
GROUP0
10
544.95580478578
20
3.0000025332183
30
1.67857942466598e-006
11
544.95580478578
21
2.53321821332975e-006
31
1.67857941902605e-006
  0
LINE
 8
GROUP0
10
544.95580478578
20
2.53321821332975e-006
30
1.67857941902605e-006
11
539.455804785781
21
2.53321821332975e-006
31
1.67857945286565e-006
  0
LINE
 8
GROUP0
10
608.955808142969
20
202.360397764246
30
2.56408977383771e-011
11
528.955808142969
21
202.360397764237
31
2.56408977383771e-011
  0
LINE
 8
GROUP0
10
518.955804785825
20
207.000002980256
30
1.67862088769066e-006
11
518.955808142967
21
225.360397764236
31
3.3328478865613e-011
  0
LINE
 8
GROUP0
10
551.455808142976
20
150.647971458978
30
8.35626567941006e-012
11
551.455808142977
21
140.647971458978
31
5.01354791015984e-012
  0
LINE
 8
GROUP0
10
527.955808142968
20
214.886284645977
30
2.98274904775297e-011
11
527.955808142967
21
220.386284645977
31
3.16657561283407e-011
  0
LINE
 8
GROUP0
10
528.955808142969
20
202.360397764237
30
2.56408977383771e-011
11
528.955808142974
21
163.647971458975
31
1.2701481533206e-011
  0
LINE
 8
GROUP0
10
603.955808142967
20
225.360397764246
30
3.3328478865613e-011
11
618.955808142967
21
225.360397764248
31
3.3328478865613e-011
  0
LINE
 8
GROUP0
10
603.955808142968
20
212.360397764246
30
2.8983263011817e-011
11
603.955808142967
21
225.360397764246
31
3.3328478865613e-011
  0
LINE
 8
GROUP0
10
612.955808142968
20
214.886284645987
30
2.98274904775297e-011
11
609.955808142968
21
214.886284645986
31
2.98274904775297e-011
  0
LINE
 8
GROUP0
10
612.955804546588
20
4.97411329707565
30
1.79817416018635e-006
11
612.955804710502
21
10.4741132970757
31
1.71621807178446e-006
  0
LINE
 8
GROUP0
10
612.955804710502
20
10.4741132970757
30
1.71621807178446e-006
11
609.955804710502
21
10.4741133864833
31
1.71621807037448e-006
  0
LINE
 8
GROUP0
10
609.955804710502
20
10.4741133864833
30
1.71621807037448e-006
11
609.955804546589
21
4.9741133864833
31
1.79817415877637e-006
  0
LINE
 8
GROUP0
10
533.95580478578
20
13.000002533218
30
1.67857943594585e-006
11
533.955804785781
21
10.000002533218
31
1.67857944158578e-006
  0
LINE
 8
GROUP0
10
524.955804546588
20
4.97411591970115
30
1.79817403082039e-006
11
524.955804710502
21
10.4741159197012
31
1.7162179424185e-006
  0
LINE
 8
GROUP0
10
609.955804546589
20
4.9741133864833
30
1.79817415877637e-006
11
612.955804546588
21
4.97411329707565
31
1.79817416018635e-006
  0
LINE
 8
GROUP0
10
307.999999999997
20
207.000002980284
30
1.67862088628068e-006
11
307.999999999997
21
220.000002980284
31
1.67862366465266e-006
  0
LINE
 8
GROUP0
10
290.999999999998
20
3.00000298028414
30
1.67857941655858e-006
11
290.999999999998
21
2.98028405865125e-006
31
1.67857941091865e-006
  0
LINE
 8
GROUP0
10
395.958779288255
20
131.55555853584
30
1.67860476488479e-006
11
406.042925822459
21
207.000002980285
31
1.67862088628068e-006
  0
LINE
 8
GROUP0
10
322.999999999997
20
207.000002980284
30
1.67862088628068e-006
11
322.999999999997
21
220.000002980284
31
1.67862366465266e-006
  0
LINE
 8
GROUP0
10
279.999999999997
20
207.000002980284
30
1.67862088628068e-006
11
307.999999999997
21
207.000002980284
31
1.67862088628068e-006
  0
LINE
 8
GROUP0
10
279.999999999997
20
207.000002980284
30
1.67862088628068e-006
11
279.999999999997
21
192.000002980284
31
1.67861768068378e-006
  0
LINE
 8
GROUP0
10
524.955804710502
20
10.4741159197012
30
1.7162179424185e-006
11
527.955804710503
21
10.4741158302935
31
1.71621794382848e-006
  0
LINE
 8
GROUP0
10
509.455804398348
20
2.98025608458374e-006
30
1.87229385359977e-006
11
513.455804398347
21
2.9802562650616e-006
31
1.87229381976017e-006
  0
LINE
 8
GROUP0
10
285.499999999998
20
13.0000029802842
30
1.67857942783844e-006
11
289.499999999998
21
13.0000029802842
31
1.67857942783844e-006
  0
LINE
 8
GROUP0
10
285.499999999998
20
2.98028405865125e-006
30
1.67857941091865e-006
11
285.499999999998
21
13.0000029802842
31
1.67857942783844e-006
  0
LINE
 8
GROUP0
10
527.955804546588
20
4.9741158302935
30
1.79817403223037e-006
11
524.955804546588
21
4.97411591970115
31
1.79817403082039e-006
  0
LINE
 8
GROUP0
10
393.077594564197
20
110.000002980285
30
1.67860015846955e-006
11
395.958779288255
21
131.55555853584
31
1.67860476488479e-006
  0
LINE
 8
GROUP0
10
603.95580478578
20
13.0000004470386
30
1.67857946696548e-006
11
543.45580478578
21
13.0000025332184
31
1.67857943594585e-006
  0
LINE
 8
GROUP0
10
322.999999999997
20
207.000002980284
30
1.67862088628068e-006
11
406.042925822459
21
207.000002980285
31
1.67862088628068e-006
  0
LINE
 8
GROUP0
10
290.999999999998
20
2.98028405865125e-006
30
1.67857941091865e-006
11
285.499999999998
21
2.98028405865125e-006
31
1.67857941091865e-006
  0
LINE
 8
GROUP0
10
405.878210221603
20
110.000002980282
30
1.67860015846955e-006
11
393.077594564197
21
110.000002980285
31
1.67860015846955e-006
  0
LINE
 8
GROUP0
10
289.499999999998
20
13.0000029802842
30
1.67857942783844e-006
11
290.999999999998
21
3.00000298028414
31
1.67857941655858e-006
  0
LINE
 8
GROUP0
10
307.999999999997
20
220.000002980284
30
1.67862366465266e-006
11
322.999999999997
21
220.000002980284
31
1.67862366465266e-006
  0
LINE
 8
GROUP0
10
292.999999999998
20
116.000002980284
30
1.67860134920039e-006
11
292.999999999997
21
192.000002980284
31
1.67861768068378e-006
  0
LINE
 8
GROUP0
10
292.999999999998
20
28.0000029802839
30
1.67858263343534e-006
11
292.999999999998
21
113.000002980284
31
1.67860070801051e-006
  0
LINE
 8
GROUP0
10
292.999999999997
20
192.000002980284
30
1.67861768068378e-006
11
279.999999999997
21
192.000002980284
31
1.67861768068378e-006
  0
LINE
 8
GROUP0
10
292.999999999998
20
28.0000029802839
30
1.67858263343534e-006
11
279.999999999998
21
28.0000029802839
31
1.67858263343534e-006
  0
LINE
 8
GROUP0
10
300.499999999998
20
113.000002980284
30
1.67860070801051e-006
11
300.499999999998
21
116.000002980284
31
1.67860134920039e-006
  0
LINE
 8
GROUP0
10
302.499999999998
20
13.000002980284
30
1.67857666603377e-006
11
306.499999999998
21
13.000002980284
31
1.67857666603377e-006
  0
LINE
 8
GROUP0
10
306.499999999998
20
13.000002980284
30
1.67857666603377e-006
11
307.999999999998
21
13.000002980284
31
1.67857942783844e-006
  0
LINE
 8
GROUP0
10
307.999999999998
20
3.00000298028396
30
1.6785766547539e-006
11
307.999999999998
21
2.9802838781734e-006
31
1.67857664911397e-006
  0
LINE
 8
GROUP0
10
289.499999999998
20
13.0000029802842
30
1.67857942783844e-006
11
296.999999999998
21
13.0000029802837
31
1.67857666603377e-006
  0
LINE
 8
GROUP0
10
279.999999999998
20
28.0000029802839
30
1.67858263343534e-006
11
279.999999999998
21
13.0000029802839
31
1.67857942783844e-006
  0
LINE
 8
GROUP0
10
296.999999999998
20
13.0000029802837
30
1.67857666603377e-006
11
302.499999999998
21
13.000002980284
31
1.67857666603377e-006
  0
LINE
 8
GROUP0
10
292.999999999998
20
113.000002980284
30
1.67860070801051e-006
11
300.499999999998
21
113.000002980284
31
1.67860070801051e-006
  0
LINE
 8
GROUP0
10
279.999999999998
20
13.0000029802839
30
1.67857942783844e-006
11
285.499999999998
21
13.0000029802842
31
1.67857942783844e-006
  0
LINE
 8
GROUP0
10
307.999999999998
20
13.000002980284
30
1.67857942783844e-006
11
307.999999999998
21
3.00000298028396
31
1.6785766547539e-006
  0
LINE
 8
GROUP0
10
307.999999999998
20
2.9802838781734e-006
30
1.67857664911397e-006
11
322.999999999998
21
2.98028405865125e-006
31
1.67857664911397e-006
  0
LINE
 8
GROUP0
10
300.499999999998
20
116.000002980284
30
1.67860134920039e-006
11
292.999999999998
21
116.000002980284
31
1.67860134920039e-006
  0
LINE
 8
GROUP0
10
316.999999999998
20
5.00000298028423
30
1.67857771823376e-006
11
313.999999999998
21
5.00000298028405
31
1.67857771823376e-006
  0
LINE
 8
GROUP0
10
380.107383798018
20
13.0000029802846
30
1.67857942783844e-006
11
322.999999999998
21
13.0000029802842
31
1.67857942783844e-006
  0
LINE
 8
GROUP0
10
322.999999999998
20
13.0000029802842
30
1.67857942783844e-006
11
322.999999999999
21
5.50000298028412
31
1.67857942783844e-006
  0
LINE
 8
GROUP0
10
290.499999999998
20
19.0000029802839
30
1.67858070986571e-006
11
284.999999999998
21
19.0000029802839
31
1.67858070986571e-006
  0
LINE
 8
GROUP0
10
393.724838584147
20
97.4297244681604
30
1.67859747068899e-006
11
394.122366970963
21
100.403269689218
31
1.67859810623894e-006
  0
LINE
 8
GROUP0
10
380.107383798018
20
13.0000029802846
30
1.67857942783844e-006
11
390.195867672592
21
88.4444474247293
31
1.67859555064431e-006
  0
LINE
 8
GROUP0
10
284.999999999998
20
19.0000029802839
30
1.67858070986571e-006
11
284.999999999998
21
22.000002980284
31
1.67858135105559e-006
  0
LINE
 8
GROUP0
10
405.878210221603
20
110.000002980282
30
1.67860015846955e-006
11
402.997025497551
21
88.4444474247295
31
1.67859555064431e-006
  0
LINE
 8
GROUP0
10
402.997025497551
20
88.4444474247295
30
1.67859555064431e-006
11
390.195867672592
21
88.4444474247293
31
1.67859555064431e-006
  0
LINE
 8
GROUP0
10
399.573866542902
20
99.6744676467221
30
1.67859795043579e-006
11
399.176338156086
21
96.7009224256644
31
1.67859731488584e-006
  0
LINE
 8
GROUP0
10
322.999999999999
20
5.50000298028412
30
1.67857942783844e-006
11
322.999999999998
21
2.98028405865125e-006
31
1.67857664911397e-006
  0
LINE
 8
GROUP0
10
394.122366970963
20
100.403269689218
30
1.67859810623894e-006
11
399.573866542902
21
99.6744676467221
31
1.67859795043579e-006
  0
LINE
 8
GROUP0
10
399.176338156086
20
96.7009224256644
30
1.67859731488584e-006
11
393.724838584147
21
97.4297244681604
31
1.67859747068899e-006
  0
LINE
 8
GROUP0
10
313.999999999998
20
10.5000029802841
30
1.6785788934548e-006
11
316.999999999998
21
10.5000029802841
31
1.6785788934548e-006
  0
LINE
 8
GROUP0
10
316.999999999998
20
10.5000029802841
30
1.6785788934548e-006
11
316.999999999998
21
5.00000298028423
31
1.67857771823376e-006
  0
LINE
 8
GROUP0
10
313.999999999998
20
5.00000298028405
30
1.67857771823376e-006
11
313.999999999998
21
10.5000029802841
31
1.6785788934548e-006
  0
LINE
 8
GROUP0
10
290.499999999997
20
198.000002980284
30
1.67861896306354e-006
11
284.999999999997
21
198.000002980284
31
1.67861896306354e-006
  0
LINE
 8
GROUP0
10
394.640111240799
20
197.000002980285
30
1.67861874945108e-006
11
322.999999999997
21
197.000002980284
31
1.67861874945108e-006
  0
LINE
 8
GROUP0
10
290.499999999998
20
22.0000029802838
30
1.67858135105559e-006
11
290.499999999998
21
19.0000029802839
31
1.67858070986571e-006
  0
LINE
 8
GROUP0
10
313.999999999997
20
215.000002980284
30
1.67862259588536e-006
11
316.999999999997
21
215.000002980284
31
1.67862259588536e-006
  0
LINE
 8
GROUP0
10
284.999999999998
20
22.000002980284
30
1.67858135105559e-006
11
290.499999999998
21
22.0000029802838
31
1.67858135105559e-006
  0
LINE
 8
GROUP0
10
316.999999999997
20
215.000002980284
30
1.67862259588536e-006
11
316.999999999997
21
209.500002980284
31
1.67862142066433e-006
  0
LINE
 8
GROUP0
10
307.999999999997
20
197.000002980284
30
1.67861874945108e-006
11
307.999999999997
21
195.500002980284
31
1.67861842867989e-006
  0
LINE
 8
GROUP0
10
394.640111240799
20
197.000002980285
30
1.67861874945108e-006
11
371.337619168078
21
23.0000029802845
31
1.67858156431555e-006
  0
LINE
 8
GROUP0
10
290.499999999997
20
201.000002980284
30
1.67861960425342e-006
11
290.499999999997
21
198.000002980284
31
1.67861896306354e-006
  0
LINE
 8
GROUP0
10
284.999999999997
20
201.000002980284
30
1.67861960425342e-006
11
290.499999999997
21
201.000002980284
31
1.67861960425342e-006
  0
LINE
 8
GROUP0
10
317.999999999997
20
197.000002980284
30
1.67861874945108e-006
11
307.999999999997
21
197.000002980284
31
1.67861874945108e-006
  0
LINE
 8
GROUP0
10
317.999999999997
20
195.500002980284
30
1.67861842867989e-006
11
317.999999999997
21
197.000002980284
31
1.67861874945108e-006
  0
LINE
 8
GROUP0
10
284.999999999997
20
198.000002980284
30
1.67861896306354e-006
11
284.999999999997
21
201.000002980284
31
1.67861960425342e-006
  0
LINE
 8
GROUP0
10
307.999999999997
20
195.500002980284
30
1.67861842867989e-006
11
317.999999999997
21
195.500002980284
31
1.67861842867989e-006
  0
LINE
 8
GROUP0
10
316.999999999997
20
209.500002980284
30
1.67862142066433e-006
11
313.999999999997
21
209.500002980284
31
1.67862142066433e-006
  0
LINE
 8
GROUP0
10
313.999999999997
20
209.500002980284
30
1.67862142066433e-006
11
313.999999999997
21
215.000002980284
31
1.67862259588536e-006
  0
LINE
 8
GROUP0
10
329.999999999998
20
33.8333363136175
30
1.67858387986053e-006
11
329.999999999998
21
32.1666696469509
31
1.67858352383976e-006
  0
LINE
 8
GROUP0
10
322.999999999998
20
40.5000029802841
30
1.67858530464859e-006
11
322.999999999998
21
35.5000029802842
31
1.67858423623379e-006
  0
LINE
 8
GROUP0
10
329.999999999998
20
42.1666696469509
30
1.67858566031687e-006
11
327.999999999998
21
40.5000029802841
31
1.67858530464859e-006
  0
LINE
 8
GROUP0
10
329.999999999998
20
43.8333363136176
30
1.67858601704263e-006
11
329.999999999998
21
42.1666696469509
31
1.67858566031687e-006
  0
LINE
 8
GROUP0
10
327.999999999998
20
45.500002980284
30
1.6785863730634e-006
11
329.999999999998
21
43.8333363136176
31
1.67858601704263e-006
  0
LINE
 8
GROUP0
10
322.999999999998
20
45.500002980284
30
1.6785863730634e-006
11
327.999999999998
21
45.500002980284
31
1.6785863730634e-006
  0
LINE
 8
GROUP0
10
322.999999999998
20
50.500002980284
30
1.67858744183069e-006
11
322.999999999998
21
45.500002980284
31
1.6785863730634e-006
  0
LINE
 8
GROUP0
10
322.999999999998
20
25.5000029802843
30
1.6785820990517e-006
11
327.999999999998
21
25.5000029802843
31
1.6785820990517e-006
  0
LINE
 8
GROUP0
10
327.999999999998
20
40.5000029802841
30
1.67858530464859e-006
11
322.999999999998
21
40.5000029802841
31
1.67858530464859e-006
  0
LINE
 8
GROUP0
10
322.999999999998
20
35.5000029802842
30
1.67858423623379e-006
11
327.999999999999
21
35.5000029802842
31
1.67858423623379e-006
  0
LINE
 8
GROUP0
10
327.999999999998
20
25.5000029802843
30
1.6785820990517e-006
11
330.999999999998
21
23.0000029802841
31
1.67858156431555e-006
  0
LINE
 8
GROUP0
10
330.999999999998
20
23.0000029802841
30
1.67858156431555e-006
11
371.337619168078
21
23.0000029802845
31
1.67858156431555e-006
  0
LINE
 8
GROUP0
10
322.999999999998
20
30.5000029802842
30
1.6785831674665e-006
11
322.999999999998
21
25.5000029802843
31
1.6785820990517e-006
  0
LINE
 8
GROUP0
10
327.999999999999
20
35.5000029802842
30
1.67858423623379e-006
11
329.999999999998
21
33.8333363136175
31
1.67858387986053e-006
  0
LINE
 8
GROUP0
10
327.999999999998
20
30.5000029802842
30
1.6785831674665e-006
11
322.999999999998
21
30.5000029802842
31
1.6785831674665e-006
  0
LINE
 8
GROUP0
10
329.999999999998
20
32.1666696469509
30
1.67858352383976e-006
11
327.999999999998
21
30.5000029802842
31
1.6785831674665e-006
  0
LINE
 8
GROUP0
10
322.999999999998
20
55.5000029802843
30
1.67858851024549e-006
11
327.999999999998
21
55.5000029802843
31
1.67858851024549e-006
  0
LINE
 8
GROUP0
10
327.999999999998
20
55.5000029802843
30
1.67858851024549e-006
11
329.999999999998
21
53.8333363136176
31
1.67858815351973e-006
  0
LINE
 8
GROUP0
10
322.999999999998
20
70.5000029802841
30
1.67859171584239e-006
11
322.999999999998
21
65.5000029802841
31
1.6785906467226e-006
  0
LINE
 8
GROUP0
10
327.999999999998
20
65.5000029802841
30
1.6785906467226e-006
11
329.999999999998
21
63.8333363136175
31
1.67859029105433e-006
  0
LINE
 8
GROUP0
10
329.999999999998
20
63.8333363136175
30
1.67859029105433e-006
11
329.999999999998
21
62.1666696469508
31
1.67858993503356e-006
  0
LINE
 8
GROUP0
10
329.999999999998
20
52.1666696469508
30
1.67858779785146e-006
11
327.999999999998
21
50.500002980284
31
1.67858744183069e-006
  0
LINE
 8
GROUP0
10
322.999999999998
20
65.5000029802841
30
1.6785906467226e-006
11
327.999999999998
21
65.5000029802841
31
1.6785906467226e-006
  0
LINE
 8
GROUP0
10
329.999999999998
20
53.8333363136176
30
1.67858815351973e-006
11
329.999999999998
21
52.1666696469508
31
1.67858779785146e-006
  0
LINE
 8
GROUP0
10
322.999999999998
20
60.5000029802842
30
1.67858957866029e-006
11
322.999999999998
21
55.5000029802843
31
1.67858851024549e-006
  0
LINE
 8
GROUP0
10
327.999999999998
20
50.500002980284
30
1.67858744183069e-006
11
322.999999999998
21
50.500002980284
31
1.67858744183069e-006
  0
LINE
 8
GROUP0
10
329.999999999998
20
62.1666696469508
30
1.67858993503356e-006
11
327.999999999998
21
60.5000029802842
31
1.67858957866029e-006
  0
LINE
 8
GROUP0
10
327.999999999998
20
60.5000029802842
30
1.67858957866029e-006
11
322.999999999998
21
60.5000029802842
31
1.67858957866029e-006
  0
LINE
 8
GROUP0
10
329.999999999998
20
73.8333363136174
30
1.67859242823643e-006
11
329.999999999998
21
72.1666696469507
31
1.67859207186316e-006
  0
LINE
 8
GROUP0
10
329.999999999998
20
72.1666696469507
30
1.67859207186316e-006
11
327.999999999998
21
70.5000029802841
31
1.67859171584239e-006
  0
LINE
 8
GROUP0
10
327.999999999998
20
75.5000029802841
30
1.67859278425719e-006
11
329.999999999998
21
73.8333363136174
31
1.67859242823643e-006
  0
LINE
 8
GROUP0
10
327.999999999998
20
70.5000029802841
30
1.67859171584239e-006
11
322.999999999998
21
70.5000029802841
31
1.67859171584239e-006
  0
LINE
 8
GROUP0
10
322.999999999998
20
85.5000029802841
30
1.67859492143929e-006
11
327.999999999998
21
85.5000029802841
31
1.67859492143929e-006
  0
LINE
 8
GROUP0
10
322.999999999998
20
90.5000029802841
30
1.67859598985409e-006
11
322.999999999998
21
85.5000029802841
31
1.67859492143929e-006
  0
LINE
 8
GROUP0
10
322.999999999998
20
100.500002980284
30
1.67859812703619e-006
11
322.999999999997
21
95.5000029802842
31
1.67859705826889e-006
  0
LINE
 8
GROUP0
10
327.999999999998
20
100.500002980284
30
1.67859812703619e-006
11
322.999999999998
21
100.500002980284
31
1.67859812703619e-006
  0
LINE
 8
GROUP0
10
322.999999999998
20
75.500002980284
30
1.67859278425719e-006
11
327.999999999998
21
75.5000029802841
31
1.67859278425719e-006
  0
LINE
 8
GROUP0
10
329.999999999998
20
102.166669646951
30
1.67859848305696e-006
11
327.999999999998
21
100.500002980284
31
1.67859812703619e-006
  0
LINE
 8
GROUP0
10
329.999999999998
20
92.1666696469509
30
1.67859634587486e-006
11
327.999999999998
21
90.5000029802841
31
1.67859598985409e-006
  0
LINE
 8
GROUP0
10
327.999999999998
20
80.5000029802842
30
1.67859385267199e-006
11
322.999999999998
21
80.5000029802842
31
1.67859385267199e-006
  0
LINE
 8
GROUP0
10
327.999999999998
20
90.5000029802841
30
1.67859598985409e-006
11
322.999999999998
21
90.5000029802841
31
1.67859598985409e-006
  0
LINE
 8
GROUP0
10
322.999999999997
20
95.5000029802842
30
1.67859705826889e-006
11
327.999999999997
21
95.5000029802842
31
1.67859705826889e-006
  0
LINE
 8
GROUP0
10
329.999999999998
20
83.8333363136175
30
1.67859456506603e-006
11
329.999999999998
21
82.1666696469508
31
1.67859420904526e-006
  0
LINE
 8
GROUP0
10
327.999999999998
20
85.5000029802841
30
1.67859492143929e-006
11
329.999999999998
21
83.8333363136175
31
1.67859456506603e-006
  0
LINE
 8
GROUP0
10
329.999999999998
20
93.8333363136175
30
1.67859670224813e-006
11
329.999999999998
21
92.1666696469509
31
1.67859634587486e-006
  0
LINE
 8
GROUP0
10
327.999999999997
20
95.5000029802842
30
1.67859705826889e-006
11
329.999999999998
21
93.8333363136175
31
1.67859670224813e-006
  0
LINE
 8
GROUP0
10
322.999999999998
20
80.5000029802842
30
1.67859385267199e-006
11
322.999999999998
21
75.500002980284
31
1.67859278425719e-006
  0
LINE
 8
GROUP0
10
329.999999999998
20
82.1666696469508
30
1.67859420904526e-006
11
327.999999999998
21
80.5000029802842
31
1.67859385267199e-006
  0
LINE
 8
GROUP0
10
329.999999999998
20
113.833336313617
30
1.67860097625983e-006
11
329.999999999997
21
112.166669646951
31
1.67860062023906e-006
  0
LINE
 8
GROUP0
10
322.999999999997
20
120.500002980284
30
1.67860240104789e-006
11
322.999999999998
21
115.500002980284
31
1.6786013319281e-006
  0
LINE
 8
GROUP0
10
329.999999999997
20
122.166669646951
30
1.67860275706866e-006
11
327.999999999998
21
120.500002980284
31
1.67860240104789e-006
  0
LINE
 8
GROUP0
10
322.999999999997
20
110.500002980284
30
1.67860026386579e-006
11
322.999999999998
21
105.500002980284
31
1.67859919545099e-006
  0
LINE
 8
GROUP0
10
327.999999999998
20
105.500002980284
30
1.67859919545099e-006
11
329.999999999998
21
103.833336313617
31
1.67859883872523e-006
  0
LINE
 8
GROUP0
10
329.999999999998
20
103.833336313617
30
1.67859883872523e-006
11
329.999999999998
21
102.166669646951
31
1.67859848305696e-006
  0
LINE
 8
GROUP0
10
322.999999999997
20
130.500002980284
30
1.67860453787749e-006
11
322.999999999997
21
125.500002980284
31
1.67860346946269e-006
  0
LINE
 8
GROUP0
10
327.999999999998
20
120.500002980284
30
1.67860240104789e-006
11
322.999999999997
21
120.500002980284
31
1.67860240104789e-006
  0
LINE
 8
GROUP0
10
322.999999999998
20
115.500002980284
30
1.6786013319281e-006
11
327.999999999998
21
115.500002980284
31
1.6786013319281e-006
  0
LINE
 8
GROUP0
10
322.999999999998
20
105.500002980284
30
1.67859919545099e-006
11
327.999999999998
21
105.500002980284
31
1.67859919545099e-006
  0
LINE
 8
GROUP0
10
327.999999999997
20
110.500002980284
30
1.67860026386579e-006
11
322.999999999997
21
110.500002980284
31
1.67860026386579e-006
  0
LINE
 8
GROUP0
10
327.999999999998
20
115.500002980284
30
1.6786013319281e-006
11
329.999999999998
21
113.833336313617
31
1.67860097625983e-006
  0
LINE
 8
GROUP0
10
329.999999999997
20
112.166669646951
30
1.67860062023906e-006
11
327.999999999997
21
110.500002980284
31
1.67860026386579e-006
  0
LINE
 8
GROUP0
10
329.999999999997
20
123.833336313617
30
1.67860311344192e-006
11
329.999999999997
21
122.166669646951
31
1.67860275706866e-006
  0
LINE
 8
GROUP0
10
327.999999999997
20
125.500002980284
30
1.67860346946269e-006
11
329.999999999997
21
123.833336313617
31
1.67860311344192e-006
  0
LINE
 8
GROUP0
10
322.999999999997
20
125.500002980284
30
1.67860346946269e-006
11
327.999999999997
21
125.500002980284
31
1.67860346946269e-006
  0
LINE
 8
GROUP0
10
327.999999999997
20
135.500002980284
30
1.67860560664479e-006
11
329.999999999998
21
133.833336313617
31
1.67860525027153e-006
  0
LINE
 8
GROUP0
10
329.999999999998
20
143.833336313617
30
1.67860738745362e-006
11
329.999999999998
21
142.166669646951
31
1.67860703108036e-006
  0
LINE
 8
GROUP0
10
322.999999999997
20
150.500002980284
30
1.67860881224169e-006
11
322.999999999997
21
145.500002980284
31
1.67860774347439e-006
  0
LINE
 8
GROUP0
10
322.999999999997
20
145.500002980284
30
1.67860774347439e-006
11
327.999999999997
21
145.500002980284
31
1.67860774347439e-006
  0
LINE
 8
GROUP0
10
327.999999999997
20
130.500002980284
30
1.67860453787749e-006
11
322.999999999997
21
130.500002980284
31
1.67860453787749e-006
  0
LINE
 8
GROUP0
10
329.999999999997
20
152.166669646951
30
1.67860916826246e-006
11
327.999999999997
21
150.500002980284
31
1.67860881224169e-006
  0
LINE
 8
GROUP0
10
329.999999999998
20
132.166669646951
30
1.67860489425076e-006
11
327.999999999997
21
130.500002980284
31
1.67860453787749e-006
  0
LINE
 8
GROUP0
10
322.999999999997
20
135.500002980284
30
1.67860560664479e-006
11
327.999999999997
21
135.500002980284
31
1.67860560664479e-006
  0
LINE
 8
GROUP0
10
322.999999999998
20
140.500002980284
30
1.67860667505959e-006
11
322.999999999997
21
135.500002980284
31
1.67860560664479e-006
  0
LINE
 8
GROUP0
10
329.999999999998
20
133.833336313617
30
1.67860525027153e-006
11
329.999999999998
21
132.166669646951
31
1.67860489425076e-006
  0
LINE
 8
GROUP0
10
327.999999999997
20
150.500002980284
30
1.67860881224169e-006
11
322.999999999997
21
150.500002980284
31
1.67860881224169e-006
  0
LINE
 8
GROUP0
10
329.999999999997
20
153.833336313617
30
1.67860952393073e-006
11
329.999999999997
21
152.166669646951
31
1.67860916826246e-006
  0
LINE
 8
GROUP0
10
327.999999999997
20
155.500002980284
30
1.67860988065649e-006
11
329.999999999997
21
153.833336313617
31
1.67860952393073e-006
  0
LINE
 8
GROUP0
10
327.999999999998
20
140.500002980284
30
1.67860667505959e-006
11
322.999999999998
21
140.500002980284
31
1.67860667505959e-006
  0
LINE
 8
GROUP0
10
327.999999999997
20
145.500002980284
30
1.67860774347439e-006
11
329.999999999998
21
143.833336313617
31
1.67860738745362e-006
  0
LINE
 8
GROUP0
10
329.999999999998
20
142.166669646951
30
1.67860703108036e-006
11
327.999999999998
21
140.500002980284
31
1.67860667505959e-006
  0
LINE
 8
GROUP0
10
322.999999999997
20
175.500002980284
30
1.67861415466819e-006
11
327.999999999997
21
175.500002980284
31
1.67861415466819e-006
  0
LINE
 8
GROUP0
10
322.999999999997
20
155.500002980284
30
1.67860988065649e-006
11
327.999999999997
21
155.500002980284
31
1.67860988065649e-006
  0
LINE
 8
GROUP0
10
322.999999999997
20
180.500002980284
30
1.67861522308299e-006
11
322.999999999997
21
175.500002980284
31
1.67861415466819e-006
  0
LINE
 8
GROUP0
10
327.999999999997
20
180.500002980284
30
1.67861522308299e-006
11
322.999999999997
21
180.500002980284
31
1.67861522308299e-006
  0
LINE
 8
GROUP0
10
327.999999999997
20
165.500002980284
30
1.6786120171336e-006
11
329.999999999997
21
163.833336313617
31
1.67861166146532e-006
  0
LINE
 8
GROUP0
10
329.999999999997
20
162.166669646951
30
1.67861130544456e-006
11
327.999999999997
21
160.500002980284
31
1.67861094907129e-006
  0
LINE
 8
GROUP0
10
329.999999999997
20
163.833336313617
30
1.67861166146532e-006
11
329.999999999997
21
162.166669646951
31
1.67861130544456e-006
  0
LINE
 8
GROUP0
10
327.999999999997
20
170.500002980284
30
1.67861308625339e-006
11
322.999999999997
21
170.500002980284
31
1.67861308625339e-006
  0
LINE
 8
GROUP0
10
329.999999999997
20
182.166669646951
30
1.67861557945626e-006
11
327.999999999997
21
180.500002980284
31
1.67861522308299e-006
  0
LINE
 8
GROUP0
10
327.999999999997
20
160.500002980284
30
1.67861094907129e-006
11
322.999999999997
21
160.500002980284
31
1.67861094907129e-006
  0
LINE
 8
GROUP0
10
322.999999999997
20
160.500002980284
30
1.67861094907129e-006
11
322.999999999997
21
155.500002980284
31
1.67860988065649e-006
  0
LINE
 8
GROUP0
10
329.999999999997
20
172.166669646951
30
1.67861344227416e-006
11
327.999999999997
21
170.500002980284
31
1.67861308625339e-006
  0
LINE
 8
GROUP0
10
322.999999999997
20
165.500002980284
30
1.6786120171336e-006
11
327.999999999997
21
165.500002980284
31
1.6786120171336e-006
  0
LINE
 8
GROUP0
10
329.999999999997
20
173.833336313617
30
1.67861379864742e-006
11
329.999999999997
21
172.166669646951
31
1.67861344227416e-006
  0
LINE
 8
GROUP0
10
322.999999999997
20
170.500002980284
30
1.67861308625339e-006
11
322.999999999997
21
165.500002980284
31
1.6786120171336e-006
  0
LINE
 8
GROUP0
10
327.999999999997
20
175.500002980284
30
1.67861415466819e-006
11
329.999999999997
21
173.833336313617
31
1.67861379864742e-006
  0
LINE
 8
GROUP0
10
322.999999999997
20
195.500002980284
30
1.67861842867989e-006
11
327.999999999997
21
195.500002980284
31
1.67861842867989e-006
  0
LINE
 8
GROUP0
10
307.999999999997
20
190.500002980284
30
1.67861736026509e-006
11
307.999999999997
21
185.500002980284
31
1.67861629185029e-006
  0
LINE
 8
GROUP0
10
307.999999999997
20
180.500002980284
30
1.67861522308299e-006
11
307.999999999997
21
175.500002980284
31
1.67861415466819e-006
  0
LINE
 8
GROUP0
10
322.999999999997
20
185.500002980284
30
1.67861629185029e-006
11
327.999999999997
21
185.500002980284
31
1.67861629185029e-006
  0
LINE
 8
GROUP0
10
307.999999999997
20
175.500002980284
30
1.67861415466819e-006
11
317.999999999997
21
175.500002980284
31
1.67861415466819e-006
  0
LINE
 8
GROUP0
10
329.999999999997
20
183.833336313617
30
1.67861593547702e-006
11
329.999999999997
21
182.166669646951
31
1.67861557945626e-006
  0
LINE
 8
GROUP0
10
329.999999999997
20
193.833336313617
30
1.67861807265912e-006
11
329.999999999997
21
192.166669646951
31
1.67861771628586e-006
  0
LINE
 8
GROUP0
10
317.999999999997
20
190.500002980284
30
1.67861736026509e-006
11
307.999999999997
21
190.500002980284
31
1.67861736026509e-006
  0
LINE
 8
GROUP0
10
327.999999999997
20
185.500002980284
30
1.67861629185029e-006
11
329.999999999997
21
183.833336313617
31
1.67861593547702e-006
  0
LINE
 8
GROUP0
10
327.999999999997
20
195.500002980284
30
1.67861842867989e-006
11
329.999999999997
21
193.833336313617
31
1.67861807265912e-006
  0
LINE
 8
GROUP0
10
322.999999999997
20
190.500002980284
30
1.67861736026509e-006
11
322.999999999997
21
185.500002980284
31
1.67861629185029e-006
  0
LINE
 8
GROUP0
10
329.999999999997
20
192.166669646951
30
1.67861771628586e-006
11
327.999999999997
21
190.500002980284
31
1.67861736026509e-006
  0
LINE
 8
GROUP0
10
322.999999999997
20
197.000002980284
30
1.67861874945108e-006
11
322.999999999997
21
195.500002980284
31
1.67861842867989e-006
  0
LINE
 8
GROUP0
10
327.999999999997
20
190.500002980284
30
1.67861736026509e-006
11
322.999999999997
21
190.500002980284
31
1.67861736026509e-006
  0
LINE
 8
GROUP0
10
317.999999999997
20
185.500002980284
30
1.67861629185029e-006
11
317.999999999997
21
190.500002980284
31
1.67861736026509e-006
  0
LINE
 8
GROUP0
10
307.999999999997
20
185.500002980284
30
1.67861629185029e-006
11
317.999999999997
21
185.500002980284
31
1.67861629185029e-006
  0
LINE
 8
GROUP0
10
317.999999999997
20
170.500002980284
30
1.67861308625339e-006
11
307.999999999997
21
170.500002980284
31
1.67861308625339e-006
  0
LINE
 8
GROUP0
10
307.999999999998
20
115.500002980284
30
1.6786013319281e-006
11
317.999999999998
21
115.500002980284
31
1.6786013319281e-006
  0
LINE
 8
GROUP0
10
307.999999999997
20
155.500002980284
30
1.67860988065649e-006
11
317.999999999997
21
155.500002980284
31
1.67860988065649e-006
  0
LINE
 8
GROUP0
10
317.999999999997
20
165.500002980284
30
1.6786120171336e-006
11
317.999999999997
21
170.500002980284
31
1.67861308625339e-006
  0
LINE
 8
GROUP0
10
307.999999999997
20
160.500002980284
30
1.67861094907129e-006
11
307.999999999997
21
155.500002980284
31
1.67860988065649e-006
  0
LINE
 8
GROUP0
10
307.999999999997
20
120.500002980284
30
1.67860240104789e-006
11
307.999999999998
21
115.500002980284
31
1.6786013319281e-006
  0
LINE
 8
GROUP0
10
307.999999999997
20
165.500002980284
30
1.6786120171336e-006
11
317.999999999997
21
165.500002980284
31
1.6786120171336e-006
  0
LINE
 8
GROUP0
10
317.999999999998
20
115.500002980284
30
1.6786013319281e-006
11
317.999999999998
21
120.500002980284
31
1.67860240104789e-006
  0
LINE
 8
GROUP0
10
307.999999999997
20
130.500002980284
30
1.67860453787749e-006
11
307.999999999997
21
125.500002980284
31
1.67860346946269e-006
  0
LINE
 8
GROUP0
10
317.999999999998
20
120.500002980284
30
1.67860240104789e-006
11
307.999999999997
21
120.500002980284
31
1.67860240104789e-006
  0
LINE
 8
GROUP0
10
317.999999999997
20
125.500002980284
30
1.67860346946269e-006
11
317.999999999997
21
130.500002980284
31
1.67860453787749e-006
  0
LINE
 8
GROUP0
10
317.999999999997
20
175.500002980284
30
1.67861415466819e-006
11
317.999999999997
21
180.500002980284
31
1.67861522308299e-006
  0
LINE
 8
GROUP0
10
317.999999999997
20
130.500002980284
30
1.67860453787749e-006
11
307.999999999997
21
130.500002980284
31
1.67860453787749e-006
  0
LINE
 8
GROUP0
10
317.999999999997
20
180.500002980284
30
1.67861522308299e-006
11
307.999999999997
21
180.500002980284
31
1.67861522308299e-006
  0
LINE
 8
GROUP0
10
307.999999999997
20
170.500002980284
30
1.67861308625339e-006
11
307.999999999997
21
165.500002980284
31
1.6786120171336e-006
  0
LINE
 8
GROUP0
10
307.999999999997
20
125.500002980284
30
1.67860346946269e-006
11
317.999999999997
21
125.500002980284
31
1.67860346946269e-006
  0
LINE
 8
GROUP0
10
307.999999999997
20
145.500002980284
30
1.67860774347439e-006
11
317.999999999997
21
145.500002980284
31
1.67860774347439e-006
  0
LINE
 8
GROUP0
10
307.999999999997
20
110.500002980284
30
1.67860026386579e-006
11
307.999999999998
21
105.500002980284
31
1.67859919545099e-006
  0
LINE
 8
GROUP0
10
317.999999999997
20
160.500002980284
30
1.67861094907129e-006
11
307.999999999997
21
160.500002980284
31
1.67861094907129e-006
  0
LINE
 8
GROUP0
10
317.999999999997
20
145.500002980284
30
1.67860774347439e-006
11
317.999999999997
21
150.500002980284
31
1.67860881224169e-006
  0
LINE
 8
GROUP0
10
307.999999999998
20
100.500002980284
30
1.67859812703619e-006
11
307.999999999997
21
95.500002980284
31
1.67859705826889e-006
  0
LINE
 8
GROUP0
10
317.999999999998
20
100.500002980284
30
1.67859812703619e-006
11
307.999999999998
21
100.500002980284
31
1.67859812703619e-006
  0
LINE
 8
GROUP0
10
317.999999999997
20
110.500002980284
30
1.67860026386579e-006
11
307.999999999997
21
110.500002980284
31
1.67860026386579e-006
  0
LINE
 8
GROUP0
10
317.999999999997
20
155.500002980284
30
1.67860988065649e-006
11
317.999999999997
21
160.500002980284
31
1.67861094907129e-006
  0
LINE
 8
GROUP0
10
307.999999999997
20
150.500002980284
30
1.67860881224169e-006
11
307.999999999997
21
145.500002980284
31
1.67860774347439e-006
  0
LINE
 8
GROUP0
10
317.999999999997
20
135.500002980284
30
1.67860560664479e-006
11
317.999999999998
21
140.500002980284
31
1.67860667505959e-006
  0
LINE
 8
GROUP0
10
317.999999999998
20
105.500002980284
30
1.67859919545099e-006
11
317.999999999997
21
110.500002980284
31
1.67860026386579e-006
  0
LINE
 8
GROUP0
10
317.999999999998
20
140.500002980284
30
1.67860667505959e-006
11
307.999999999998
21
140.500002980284
31
1.67860667505959e-006
  0
LINE
 8
GROUP0
10
307.999999999997
20
135.500002980284
30
1.67860560664479e-006
11
317.999999999997
21
135.500002980284
31
1.67860560664479e-006
  0
LINE
 8
GROUP0
10
307.999999999998
20
140.500002980284
30
1.67860667505959e-006
11
307.999999999997
21
135.500002980284
31
1.67860560664479e-006
  0
LINE
 8
GROUP0
10
317.999999999997
20
150.500002980284
30
1.67860881224169e-006
11
307.999999999997
21
150.500002980284
31
1.67860881224169e-006
  0
LINE
 8
GROUP0
10
307.999999999998
20
105.500002980284
30
1.67859919545099e-006
11
317.999999999998
21
105.500002980284
31
1.67859919545099e-006
  0
LINE
 8
GROUP0
10
317.999999999998
20
50.500002980284
30
1.67858744183069e-006
11
307.999999999998
21
50.500002980284
31
1.67858744183069e-006
  0
LINE
 8
GROUP0
10
307.999999999997
20
95.500002980284
30
1.67859705826889e-006
11
317.999999999998
21
95.5000029802841
31
1.67859705826889e-006
  0
LINE
 8
GROUP0
10
317.999999999998
20
90.500002980284
30
1.67859598985409e-006
11
307.999999999998
21
90.5000029802839
31
1.67859598985409e-006
  0
LINE
 8
GROUP0
10
317.999999999998
20
80.5000029802841
30
1.67859385267199e-006
11
307.999999999998
21
80.500002980284
31
1.67859385267199e-006
  0
LINE
 8
GROUP0
10
317.999999999998
20
65.5000029802841
30
1.6785906467226e-006
11
317.999999999998
21
70.500002980284
31
1.67859171584239e-006
  0
LINE
 8
GROUP0
10
317.999999999998
20
95.5000029802841
30
1.67859705826889e-006
11
317.999999999998
21
100.500002980284
31
1.67859812703619e-006
  0
LINE
 8
GROUP0
10
317.999999999998
20
85.500002980284
30
1.67859492143929e-006
11
317.999999999998
21
90.500002980284
31
1.67859598985409e-006
  0
LINE
 8
GROUP0
10
307.999999999998
20
45.500002980284
30
1.6785863730634e-006
11
317.999999999998
21
45.500002980284
31
1.6785863730634e-006
  0
LINE
 8
GROUP0
10
307.999999999998
20
75.500002980284
30
1.67859278425719e-006
11
317.999999999998
21
75.500002980284
31
1.67859278425719e-006
  0
LINE
 8
GROUP0
10
307.999999999998
20
90.5000029802839
30
1.67859598985409e-006
11
307.999999999998
21
85.5000029802839
31
1.67859492143929e-006
  0
LINE
 8
GROUP0
10
317.999999999998
20
45.500002980284
30
1.6785863730634e-006
11
317.999999999998
21
50.500002980284
31
1.67858744183069e-006
  0
LINE
 8
GROUP0
10
307.999999999998
20
80.500002980284
30
1.67859385267199e-006
11
307.999999999998
21
75.500002980284
31
1.67859278425719e-006
  0
LINE
 8
GROUP0
10
317.999999999998
20
75.500002980284
30
1.67859278425719e-006
11
317.999999999998
21
80.5000029802841
31
1.67859385267199e-006
  0
LINE
 8
GROUP0
10
317.999999999998
20
70.500002980284
30
1.67859171584239e-006
11
307.999999999998
21
70.5000029802839
31
1.67859171584239e-006
  0
LINE
 8
GROUP0
10
307.999999999998
20
85.5000029802839
30
1.67859492143929e-006
11
317.999999999998
21
85.500002980284
31
1.67859492143929e-006
  0
LINE
 8
GROUP0
10
307.999999999998
20
50.500002980284
30
1.67858744183069e-006
11
307.999999999998
21
45.500002980284
31
1.6785863730634e-006
  0
LINE
 8
GROUP0
10
317.999999999998
20
25.5000029802841
30
1.6785820990517e-006
11
317.999999999998
21
30.500002980284
31
1.6785831674665e-006
  0
LINE
 8
GROUP0
10
307.999999999998
20
65.500002980284
30
1.6785906467226e-006
11
317.999999999998
21
65.5000029802841
31
1.6785906467226e-006
  0
LINE
 8
GROUP0
10
307.999999999998
20
25.5000029802841
30
1.6785820990517e-006
11
317.999999999998
21
25.5000029802841
31
1.6785820990517e-006
  0
LINE
 8
GROUP0
10
307.999999999998
20
30.500002980284
30
1.6785831674665e-006
11
307.999999999998
21
25.5000029802841
31
1.6785820990517e-006
  0
LINE
 8
GROUP0
10
307.999999999998
20
35.500002980284
30
1.67858423623379e-006
11
317.999999999998
21
35.500002980284
31
1.67858423623379e-006
  0
LINE
 8
GROUP0
10
317.999999999998
20
55.5000029802842
30
1.67858851024549e-006
11
317.999999999998
21
60.5000029802841
31
1.67858957866029e-006
  0
LINE
 8
GROUP0
10
317.999999999998
20
35.500002980284
30
1.67858423623379e-006
11
317.999999999998
21
40.5000029802839
31
1.67858530464859e-006
  0
LINE
 8
GROUP0
10
618.955806921073
20
84.6479683297043
30
6.10945483589531e-007
11
618.955804398347
21
0.0
31
1.87229386417465e-006
  0
LINE
 8
GROUP0
10
307.999999999998
20
60.500002980284
30
1.67858957866029e-006
11
307.999999999998
21
55.5000029802841
31
1.67858851024549e-006
  0
LINE
 8
GROUP0
10
317.999999999998
20
30.500002980284
30
1.6785831674665e-006
11
307.999999999998
21
30.500002980284
31
1.6785831674665e-006
  0
LINE
 8
GROUP0
10
317.999999999998
20
60.5000029802841
30
1.67858957866029e-006
11
307.999999999998
21
60.500002980284
31
1.67858957866029e-006
  0
LINE
 8
GROUP0
10
307.999999999998
20
40.5000029802839
30
1.67858530464859e-006
11
307.999999999998
21
35.500002980284
31
1.67858423623379e-006
  0
LINE
 8
GROUP0
10
317.999999999998
20
40.5000029802839
30
1.67858530464859e-006
11
307.999999999998
21
40.5000029802839
31
1.67858530464859e-006
  0
LINE
 8
GROUP0
10
623.955807099889
20
90.6479681806912
30
5.21538891815054e-007
11
618.955806921073
21
84.6479683297043
31
6.10945483589531e-007
  0
LINE
 8
GROUP0
10
307.999999999998
20
55.5000029802841
30
1.67858851024549e-006
11
317.999999999998
21
55.5000029802842
31
1.67858851024549e-006
  0
LINE
 8
GROUP0
10
307.999999999998
20
70.5000029802839
30
1.67859171584239e-006
11
307.999999999998
21
65.500002980284
31
1.6785906467226e-006
  0
LINE
 8
GROUP0
10
527.955804710503
20
10.4741158302935
30
1.71621794382848e-006
11
527.955804546588
21
4.9741158302935
31
1.79817403223037e-006
  0
LINE
 8
GROUP0
10
533.955804785781
20
10.000002533218
30
1.67857944158578e-006
11
533.955804398347
21
2.53321785237404e-006
31
1.87229382645759e-006
  0
LINE
 8
GROUP0
10
518.955804398347
20
3.00000298025635
30
1.87229382540011e-006
11
518.955804398347
21
2.9802562650616e-006
31
1.87229381976017e-006
  0
LINE
 8
GROUP0
10
533.955804398347
20
2.53321785237404e-006
30
1.87229382645759e-006
11
518.955804398347
21
2.9802562650616e-006
31
1.87229381976017e-006
  0
LINE
 8
GROUP0
10
543.45580478578
20
13.0000025332184
30
1.67857943594585e-006
11
539.45580478578
21
13.0000025332184
31
1.67857943594585e-006
  0
LINE
 8
GROUP0
10
513.955807099889
20
90.6479714589731
30
5.2153874411931e-007
11
518.955806921073
21
84.6479713099602
31
6.10945388415662e-007
  0
LINE
 8
GROUP0
10
513.955808142979
20
125.647971458973
30
0.0
11
623.955808142979
21
125.647968180691
31
4.86444218239512e-014
  0
LINE
 8
GROUP0
10
518.955804785784
20
28.0000029802564
30
1.67858263484533e-006
11
518.955806921073
21
84.6479713099602
31
6.10945388415662e-007
  0
LINE
 8
GROUP0
10
539.45580478578
20
13.0000025332184
30
1.67857943594585e-006
11
533.95580478578
21
13.000002533218
31
1.67857943594585e-006
  0
LINE
 8
GROUP0
10
518.95580478578
20
13.0000029802564
30
1.67857942924843e-006
11
518.955804785784
21
28.0000029802564
31
1.67858263484533e-006
  0
LINE
 8
GROUP0
10
618.955804398347
20
0.0
30
1.87229386417465e-006
11
603.955804398347
21
4.47038593165416e-007
31
1.87229385747723e-006
  0
LINE
 8
GROUP0
10
513.955808142979
20
125.647971458973
30
0.0
11
513.955807099889
21
90.6479714589731
31
5.2153874411931e-007
  0
LINE
 8
GROUP0
10
518.95580478578
20
13.0000029802564
30
1.67857942924843e-006
11
518.955804398347
21
3.00000298025635
31
1.87229382540011e-006
  0
LINE
 8
GROUP0
10
603.95580478578
20
13.0000004470386
30
1.67857946696548e-006
11
603.955804398347
21
4.47038593165416e-007
31
1.87229385747723e-006
  0
LINE
 8
GROUP0
10
623.955808142979
20
125.647968180691
30
4.86444218239512e-014
11
623.955807099889
21
90.6479681806912
31
5.21538891815054e-007
  0
LINE
 8
GROUP0
10
606.455807397915
20
100.647968702236
30
3.72527715411519e-007
11
601.455807397915
21
100.647968851249
31
3.72527713296544e-007
  0
LINE
 8
GROUP0
10
601.455807397915
20
100.647968851249
30
3.72527713296544e-007
11
601.45580769594
21
110.647968851249
31
2.23516643346744e-007
  0
LINE
 8
GROUP0
10
601.45580769594
20
110.647968851249
30
2.23516643346744e-007
11
606.45580769594
21
110.647968702236
31
2.23516645814215e-007
  0
LINE
 8
GROUP0
10
596.455807397914
20
100.647969000262
30
3.72527711181569e-007
11
591.455807397914
21
100.647969149275
31
3.72527708714099e-007
  0
LINE
 8
GROUP0
10
606.45580769594
20
110.647968702236
30
2.23516645814215e-007
11
606.455807397915
21
100.647968702236
31
3.72527715411519e-007
 0
ENDSEC
 0
EOF
