solid bas-pour-1mm
facet normal 0.0 0.0 1.0
outer loop
vertex 2.40414083687722 1.05594825115383 1.2
vertex 8.76250925853825 10.7185492148506 1.2
vertex 1.20207041843861 2.11189650230765 1.2
endloop
endfacet
facet normal 0.0 0.0 1.0
outer loop
vertex 8.76250925853825 10.7185492148506 1.2
vertex 2.40414083687722 1.05594825115383 1.2
vertex 9.88281889070199 9.56952611607819 1.2
endloop
endfacet
facet normal 0.0 0.0 1.0
outer loop
vertex 8.76250925853825 10.7185492148506 1.2
vertex 9.88281889070199 9.56952611607819 1.2
vertex 17.4625841094402 17.9794259583017 1.2
endloop
endfacet
facet normal 0.0 0.0 1.0
outer loop
vertex 17.4625841094402 17.9794259583017 1.2
vertex 9.88281889070199 9.56952611607819 1.2
vertex 18.392666282863 16.671643520695 1.2
endloop
endfacet
facet normal 0.0 0.0 1.0
outer loop
vertex 17.4625841094402 17.9794259583017 1.2
vertex 18.392666282863 16.671643520695 1.2
vertex 27.1766637988468 23.8145171557677 1.2
endloop
endfacet
facet normal 0.0 0.0 1.0
outer loop
vertex 27.1766637988468 23.8145171557677 1.2
vertex 18.392666282863 16.671643520695 1.2
vertex 27.8943472601905 22.3791502330802 1.2
endloop
endfacet
facet normal 0.0 0.0 1.0
outer loop
vertex 27.1766637988468 23.8145171557677 1.2
vertex 27.8943472601905 22.3791502330802 1.2
vertex 37.6731845704636 28.0847261888134 1.2
endloop
endfacet
facet normal 0.0 0.0 1.0
outer loop
vertex 37.6731845704636 28.0847261888134 1.2
vertex 27.8943472601905 22.3791502330802 1.2
vertex 38.1613612164954 26.5559909875111 1.2
endloop
endfacet
facet normal 0.0 0.0 1.0
outer loop
vertex 37.6731845704636 28.0847261888134 1.2
vertex 38.1613612164954 26.5559909875111 1.2
vertex 48.7019308757658 30.6882600234644 1.2
endloop
endfacet
facet normal 0.0 0.0 1.0
outer loop
vertex 48.7019308757658 30.6882600234644 1.2
vertex 38.1613612164954 26.5559909875111 1.2
vertex 48.9489635754856 29.1025984584699 1.2
endloop
endfacet
facet normal 0.0 0.0 1.0
outer loop
vertex 48.7019308757658 30.6882600234644 1.2
vertex 48.9489635754856 29.1025984584699 1.2
vertex 60.0000000000001 31.5630557475696 1.2
endloop
endfacet
facet normal 0.0 0.0 1.0
outer loop
vertex 60.0000000000001 31.5630557475696 1.2
vertex 48.9489635754856 29.1025984584699 1.2
vertex 60.0000000000001 29.9582667416777 1.2
endloop
endfacet
facet normal 0.0 0.0 1.0
outer loop
vertex 60.0000000000001 31.5630557475696 1.2
vertex 60.0000000000001 29.9582667416777 1.2
vertex 71.0510364245143 29.1025984584699 1.2
endloop
endfacet
facet normal 0.0 0.0 1.0
outer loop
vertex 60.0000000000001 31.5630557475696 1.2
vertex 71.0510364245143 29.1025984584699 1.2
vertex 71.2980691242342 30.6882600234644 1.2
endloop
endfacet
facet normal 0.0 0.0 1.0
outer loop
vertex 71.2980691242342 30.6882600234644 1.2
vertex 71.0510364245143 29.1025984584699 1.2
vertex 81.8386387835047 26.5559909875111 1.2
endloop
endfacet
facet normal 0.0 0.0 1.0
outer loop
vertex 71.2980691242342 30.6882600234644 1.2
vertex 81.8386387835047 26.5559909875111 1.2
vertex 82.3268154295363 28.0847261888134 1.2
endloop
endfacet
facet normal 0.0 0.0 1.0
outer loop
vertex 82.3268154295363 28.0847261888134 1.2
vertex 81.8386387835047 26.5559909875111 1.2
vertex 92.1056527398093 22.3791502330803 1.2
endloop
endfacet
facet normal 0.0 0.0 1.0
outer loop
vertex 82.3268154295363 28.0847261888134 1.2
vertex 92.1056527398093 22.3791502330803 1.2
vertex 92.823336201153 23.8145171557678 1.2
endloop
endfacet
facet normal 0.0 0.0 1.0
outer loop
vertex 92.823336201153 23.8145171557678 1.2
vertex 92.1056527398093 22.3791502330803 1.2
vertex 101.607333717137 16.6716435206949 1.2
endloop
endfacet
facet normal 0.0 0.0 1.0
outer loop
vertex 92.823336201153 23.8145171557678 1.2
vertex 101.607333717137 16.6716435206949 1.2
vertex 102.53741589056 17.9794259583017 1.2
endloop
endfacet
facet normal 0.0 0.0 1.0
outer loop
vertex 102.53741589056 17.9794259583017 1.2
vertex 101.607333717137 16.6716435206949 1.2
vertex 110.117181109298 9.56952611607815 1.2
endloop
endfacet
facet normal 0.0 0.0 1.0
outer loop
vertex 102.53741589056 17.9794259583017 1.2
vertex 110.117181109298 9.56952611607815 1.2
vertex 111.237490741462 10.7185492148506 1.2
endloop
endfacet
facet normal 0.0 0.0 1.0
outer loop
vertex 111.237490741462 10.7185492148506 1.2
vertex 110.117181109298 9.56952611607815 1.2
vertex 117.595859163123 1.05594825115385 1.2
endloop
endfacet
facet normal 0.0 0.0 1.0
outer loop
vertex 111.237490741462 10.7185492148506 1.2
vertex 117.595859163123 1.05594825115385 1.2
vertex 118.797929581561 2.11189650230767 1.2
endloop
endfacet
facet normal 0.153934690986053 0.988081024466632 0.0
outer loop
vertex 71.545101823954 32.2739215884588 12.0
vertex 82.8149920755681 29.6134613901157 0.0
vertex 71.545101823954 32.2739215884588 0.0
endloop
endfacet
facet normal 0.304199894340909 0.952608221822056 0.0
outer loop
vertex 82.8149920755681 29.6134613901157 0.0
vertex 71.545101823954 32.2739215884588 12.0
vertex 82.8149920755681 29.6134613901157 12.0
endloop
endfacet
facet normal -0.698104004981673 -0.715996367468822 0.0
outer loop
vertex 108.996871477134 8.42050301730557 10.8
vertex 116.393788744684 2.04447569984723e-014 0.0
vertex 116.393788744684 2.04447569984723e-014 10.8
endloop
endfacet
facet normal -0.751294011524132 -0.659967656971141 0.0
outer loop
vertex 116.393788744684 2.04447569984723e-014 0.0
vertex 108.996871477134 8.42050301730557 10.8
vertex 108.996871477134 8.42050301730557 0.0
endloop
endfacet
facet normal -0.447213595499959 0.894427190999916 0.0
outer loop
vertex 26.4589803375031 25.2498840784552 12.0
vertex 37.1850079244319 29.6134613901157 0.0
vertex 26.4589803375031 25.2498840784552 0.0
endloop
endfacet
facet normal -0.304199894340907 0.952608221822057 0.0
outer loop
vertex 37.1850079244319 29.6134613901157 0.0
vertex 26.4589803375031 25.2498840784552 12.0
vertex 37.1850079244319 29.6134613901157 12.0
endloop
endfacet
facet normal -0.698104004981673 0.715996367468822 0.0
outer loop
vertex 7.64219962637451 11.8675723136231 12.0
vertex 0.0 3.16784475346148 0.0
vertex 0.0 3.16784475346148 12.0
endloop
endfacet
facet normal -0.751294011524132 0.659967656971141 0.0
outer loop
vertex 0.0 3.16784475346148 0.0
vertex 7.64219962637451 11.8675723136231 12.0
vertex 7.64219962637451 11.8675723136231 0.0
endloop
endfacet
facet normal 0.304199894340909 0.952608221822056 0.0
outer loop
vertex 82.8149920755681 29.6134613901157 12.0
vertex 93.5410196624968 25.2498840784552 0.0
vertex 82.8149920755681 29.6134613901157 0.0
endloop
endfacet
facet normal 0.447213595499958 0.894427190999916 0.0
outer loop
vertex 93.5410196624968 25.2498840784552 0.0
vertex 82.8149920755681 29.6134613901157 12.0
vertex 93.5410196624968 25.2498840784552 12.0
endloop
endfacet
facet normal -0.304199894340908 -0.952608221822057 0.0
outer loop
vertex 81.3504621374729 25.0272557862089 10.8
vertex 70.8040037247945 27.5169368934755 0.0
vertex 81.3504621374729 25.0272557862089 0.0
endloop
endfacet
facet normal -0.153934690986053 -0.988081024466632 0.0
outer loop
vertex 70.8040037247945 27.5169368934755 0.0
vertex 81.3504621374729 25.0272557862089 10.8
vertex 70.8040037247945 27.5169368934755 10.8
endloop
endfacet
facet normal 0.659967656971142 -0.751294011524131 1.09482926123738e-016
outer loop
vertex 120.0 3.1678447534615 0.0
vertex 118.797929581561 2.11189650230767 1.2
vertex 116.393788744684 2.04447569984723e-014 0.0
endloop
endfacet
facet normal 0.659967656971142 -0.751294011524131 1.09482926123738e-016
outer loop
vertex 118.797929581561 2.11189650230767 1.2
vertex 120.0 3.1678447534615 0.0
vertex 120.0 3.1678447534615 12.0
endloop
endfacet
facet normal 0.659967656971142 -0.751294011524131 1.09482926123738e-016
outer loop
vertex 118.797929581561 2.11189650230767 1.2
vertex 120.0 3.1678447534615 12.0
vertex 118.797929581561 2.11189650230767 12.0
endloop
endfacet
facet normal 0.659967656971142 -0.751294011524131 1.09482926123738e-016
outer loop
vertex 116.393788744684 2.04447569984723e-014 0.0
vertex 117.595859163123 1.05594825115385 1.2
vertex 116.393788744684 2.04447569984723e-014 10.8
endloop
endfacet
facet normal 0.659967656971142 -0.751294011524131 1.09482926123738e-016
outer loop
vertex 117.595859163123 1.05594825115385 1.2
vertex 116.393788744684 2.04447569984723e-014 0.0
vertex 118.797929581561 2.11189650230767 1.2
endloop
endfacet
facet normal 0.659967656971142 -0.751294011524131 1.09482926123738e-016
outer loop
vertex 116.393788744684 2.04447569984723e-014 10.8
vertex 117.595859163123 1.05594825115385 1.2
vertex 117.595859163123 1.05594825115385 10.8
endloop
endfacet
facet normal 0.447213595499958 0.894427190999916 0.0
outer loop
vertex 93.5410196624968 25.2498840784552 12.0
vertex 103.467498063983 19.2872083959085 0.0
vertex 93.5410196624968 25.2498840784552 0.0
endloop
endfacet
facet normal 0.579566640853099 0.814924848565961 0.0
outer loop
vertex 103.467498063983 19.2872083959085 0.0
vertex 93.5410196624968 25.2498840784552 12.0
vertex 103.467498063983 19.2872083959085 12.0
endloop
endfacet
facet normal 0.579566640853099 0.814924848565961 0.0
outer loop
vertex 103.467498063983 19.2872083959085 12.0
vertex 112.357800373625 11.8675723136231 0.0
vertex 103.467498063983 19.2872083959085 0.0
endloop
endfacet
facet normal 0.698104004981672 0.715996367468823 0.0
outer loop
vertex 112.357800373625 11.8675723136231 0.0
vertex 103.467498063983 19.2872083959085 12.0
vertex 112.357800373625 11.8675723136231 12.0
endloop
endfacet
facet normal -0.698104004981673 -0.715996367468822 0.0
outer loop
vertex 108.996871477134 8.42050301730557 10.8
vertex 100.677251543714 15.3638610830882 0.0
vertex 108.996871477134 8.42050301730557 0.0
endloop
endfacet
facet normal -0.579566640853099 -0.814924848565962 0.0
outer loop
vertex 100.677251543714 15.3638610830882 0.0
vertex 108.996871477134 8.42050301730557 10.8
vertex 100.677251543714 15.3638610830882 10.8
endloop
endfacet
facet normal 0.698104004981672 0.715996367468823 0.0
outer loop
vertex 112.357800373625 11.8675723136231 0.0
vertex 120.0 3.1678447534615 12.0
vertex 120.0 3.1678447534615 0.0
endloop
endfacet
facet normal 0.751294011524132 0.659967656971141 0.0
outer loop
vertex 120.0 3.1678447534615 12.0
vertex 112.357800373625 11.8675723136231 0.0
vertex 112.357800373625 11.8675723136231 12.0
endloop
endfacet
facet normal 0.304199894340909 -0.952608221822056 0.0
outer loop
vertex 38.6495378625271 25.0272557862088 10.8
vertex 28.6120307215342 20.9437833103928 0.0
vertex 38.6495378625271 25.0272557862088 0.0
endloop
endfacet
facet normal 0.447213595499958 -0.894427190999916 0.0
outer loop
vertex 28.6120307215342 20.9437833103928 0.0
vertex 38.6495378625271 25.0272557862088 10.8
vertex 28.6120307215342 20.9437833103928 10.8
endloop
endfacet
facet normal -0.659967656971141 -0.751294011524132 4.47600080236565e-017
outer loop
vertex 0.0 3.16784475346148 0.0
vertex 1.20207041843861 2.11189650230765 1.2
vertex 0.0 3.16784475346148 12.0
endloop
endfacet
facet normal -0.659967656971141 -0.751294011524132 4.47600080236565e-017
outer loop
vertex 1.20207041843861 2.11189650230765 1.2
vertex 0.0 3.16784475346148 0.0
vertex 2.40414083687722 1.05594825115383 1.2
endloop
endfacet
facet normal -0.659967656971141 -0.751294011524132 4.47600080236565e-017
outer loop
vertex 0.0 3.16784475346148 12.0
vertex 1.20207041843861 2.11189650230765 1.2
vertex 1.20207041843861 2.11189650230765 12.0
endloop
endfacet
facet normal -0.659967656971141 -0.751294011524132 4.47600080236565e-017
outer loop
vertex 3.60621125531584 0.0 0.0
vertex 2.40414083687722 1.05594825115383 1.2
vertex 0.0 3.16784475346148 0.0
endloop
endfacet
facet normal -0.659967656971141 -0.751294011524132 4.47600080236565e-017
outer loop
vertex 2.40414083687722 1.05594825115383 1.2
vertex 3.60621125531584 0.0 0.0
vertex 3.60621125531584 0.0 10.8
endloop
endfacet
facet normal -0.659967656971141 -0.751294011524132 4.47600080236565e-017
outer loop
vertex 2.40414083687722 1.05594825115383 1.2
vertex 3.60621125531584 0.0 10.8
vertex 2.40414083687722 1.05594825115383 10.8
endloop
endfacet
facet normal -0.698104004981673 0.715996367468822 0.0
outer loop
vertex 7.64219962637451 11.8675723136231 12.0
vertex 16.5325019360175 19.2872083959085 0.0
vertex 7.64219962637451 11.8675723136231 0.0
endloop
endfacet
facet normal -0.579566640853101 0.81492484856596 0.0
outer loop
vertex 16.5325019360175 19.2872083959085 0.0
vertex 7.64219962637451 11.8675723136231 12.0
vertex 16.5325019360175 19.2872083959085 12.0
endloop
endfacet
facet normal -0.579566640853101 0.81492484856596 0.0
outer loop
vertex 16.5325019360175 19.2872083959085 12.0
vertex 26.4589803375031 25.2498840784552 0.0
vertex 16.5325019360175 19.2872083959085 0.0
endloop
endfacet
facet normal -0.447213595499959 0.894427190999916 0.0
outer loop
vertex 26.4589803375031 25.2498840784552 0.0
vertex 16.5325019360175 19.2872083959085 12.0
vertex 26.4589803375031 25.2498840784552 12.0
endloop
endfacet
facet normal 0.579566640853098 -0.814924848565962 0.0
outer loop
vertex 19.3227484562859 15.3638610830883 10.8
vertex 11.0031285228658 8.42050301730582 0.0
vertex 19.3227484562859 15.3638610830883 0.0
endloop
endfacet
facet normal 0.698104004981671 -0.715996367468824 0.0
outer loop
vertex 11.0031285228658 8.42050301730582 0.0
vertex 19.3227484562859 15.3638610830883 10.8
vertex 11.0031285228658 8.42050301730582 10.8
endloop
endfacet
facet normal -0.447213595499957 -0.894427190999916 0.0
outer loop
vertex 91.3879692784655 20.9437833103929 10.8
vertex 81.3504621374729 25.0272557862089 0.0
vertex 91.3879692784655 20.9437833103929 0.0
endloop
endfacet
facet normal -0.304199894340908 -0.952608221822057 0.0
outer loop
vertex 81.3504621374729 25.0272557862089 0.0
vertex 91.3879692784655 20.9437833103929 10.8
vertex 81.3504621374729 25.0272557862089 10.8
endloop
endfacet
facet normal -0.153934690986053 -0.988081024466632 0.0
outer loop
vertex 70.8040037247945 27.5169368934755 10.8
vertex 60.0000000000001 28.3534777357858 0.0
vertex 70.8040037247945 27.5169368934755 0.0
endloop
endfacet
facet normal 2.1710229174226e-016 -1.0 0.0
outer loop
vertex 60.0000000000001 28.3534777357858 0.0
vertex 70.8040037247945 27.5169368934755 10.8
vertex 60.0000000000001 28.3534777357858 10.8
endloop
endfacet
facet normal -0.579566640853099 -0.814924848565962 0.0
outer loop
vertex 100.677251543714 15.3638610830882 10.8
vertex 91.3879692784655 20.9437833103929 0.0
vertex 100.677251543714 15.3638610830882 0.0
endloop
endfacet
facet normal -0.447213595499957 -0.894427190999916 0.0
outer loop
vertex 91.3879692784655 20.9437833103929 0.0
vertex 100.677251543714 15.3638610830882 10.8
vertex 91.3879692784655 20.9437833103929 10.8
endloop
endfacet
facet normal 0.447213595499958 -0.894427190999916 0.0
outer loop
vertex 28.6120307215342 20.9437833103928 10.8
vertex 19.3227484562859 15.3638610830883 0.0
vertex 28.6120307215342 20.9437833103928 0.0
endloop
endfacet
facet normal 0.579566640853098 -0.814924848565962 0.0
outer loop
vertex 19.3227484562859 15.3638610830883 0.0
vertex 28.6120307215342 20.9437833103928 10.8
vertex 19.3227484562859 15.3638610830883 10.8
endloop
endfacet
facet normal -0.153934690986053 0.988081024466632 0.0
outer loop
vertex 48.454898176046 32.2739215884588 12.0
vertex 60.0 33.1678447534615 0.0
vertex 48.454898176046 32.2739215884588 0.0
endloop
endfacet
facet normal -1.00575959643863e-015 1.0 0.0
outer loop
vertex 60.0 33.1678447534615 0.0
vertex 48.454898176046 32.2739215884588 12.0
vertex 60.0 33.1678447534615 12.0
endloop
endfacet
facet normal 2.1710229174226e-016 -1.0 0.0
outer loop
vertex 60.0000000000001 28.3534777357858 10.8
vertex 49.1959962752054 27.5169368934755 0.0
vertex 60.0000000000001 28.3534777357858 0.0
endloop
endfacet
facet normal 0.153934690986054 -0.988081024466632 0.0
outer loop
vertex 49.1959962752054 27.5169368934755 0.0
vertex 60.0000000000001 28.3534777357858 10.8
vertex 49.1959962752054 27.5169368934755 10.8
endloop
endfacet
facet normal 0.0 0.0 -1.0
outer loop
vertex 7.64219962637451 11.8675723136231 0.0
vertex 3.60621125531584 0.0 0.0
vertex 0.0 3.16784475346148 0.0
endloop
endfacet
facet normal 0.0 0.0 -1.0
outer loop
vertex 3.60621125531584 0.0 0.0
vertex 7.64219962637451 11.8675723136231 0.0
vertex 11.0031285228658 8.42050301730582 0.0
endloop
endfacet
facet normal 0.0 0.0 -1.0
outer loop
vertex 11.0031285228658 8.42050301730582 0.0
vertex 7.64219962637451 11.8675723136231 0.0
vertex 16.5325019360175 19.2872083959085 0.0
endloop
endfacet
facet normal 0.0 0.0 -1.0
outer loop
vertex 11.0031285228658 8.42050301730582 0.0
vertex 16.5325019360175 19.2872083959085 0.0
vertex 19.3227484562859 15.3638610830883 0.0
endloop
endfacet
facet normal 0.0 0.0 -1.0
outer loop
vertex 19.3227484562859 15.3638610830883 0.0
vertex 16.5325019360175 19.2872083959085 0.0
vertex 26.4589803375031 25.2498840784552 0.0
endloop
endfacet
facet normal 0.0 0.0 -1.0
outer loop
vertex 19.3227484562859 15.3638610830883 0.0
vertex 26.4589803375031 25.2498840784552 0.0
vertex 28.6120307215342 20.9437833103928 0.0
endloop
endfacet
facet normal 0.0 0.0 -1.0
outer loop
vertex 28.6120307215342 20.9437833103928 0.0
vertex 26.4589803375031 25.2498840784552 0.0
vertex 37.1850079244319 29.6134613901157 0.0
endloop
endfacet
facet normal 0.0 0.0 -1.0
outer loop
vertex 28.6120307215342 20.9437833103928 0.0
vertex 37.1850079244319 29.6134613901157 0.0
vertex 38.6495378625271 25.0272557862088 0.0
endloop
endfacet
facet normal 0.0 0.0 -1.0
outer loop
vertex 38.6495378625271 25.0272557862088 0.0
vertex 37.1850079244319 29.6134613901157 0.0
vertex 48.454898176046 32.2739215884588 0.0
endloop
endfacet
facet normal 0.0 0.0 -1.0
outer loop
vertex 38.6495378625271 25.0272557862088 0.0
vertex 48.454898176046 32.2739215884588 0.0
vertex 49.1959962752054 27.5169368934755 0.0
endloop
endfacet
facet normal 0.0 0.0 -1.0
outer loop
vertex 49.1959962752054 27.5169368934755 0.0
vertex 48.454898176046 32.2739215884588 0.0
vertex 60.0 33.1678447534615 0.0
endloop
endfacet
facet normal 0.0 0.0 -1.0
outer loop
vertex 49.1959962752054 27.5169368934755 0.0
vertex 60.0 33.1678447534615 0.0
vertex 60.0000000000001 28.3534777357858 0.0
endloop
endfacet
facet normal 0.0 0.0 -1.0
outer loop
vertex 60.0000000000001 28.3534777357858 0.0
vertex 60.0 33.1678447534615 0.0
vertex 71.545101823954 32.2739215884588 0.0
endloop
endfacet
facet normal 0.0 0.0 -1.0
outer loop
vertex 60.0000000000001 28.3534777357858 0.0
vertex 71.545101823954 32.2739215884588 0.0
vertex 70.8040037247945 27.5169368934755 0.0
endloop
endfacet
facet normal 0.0 0.0 -1.0
outer loop
vertex 70.8040037247945 27.5169368934755 0.0
vertex 71.545101823954 32.2739215884588 0.0
vertex 81.3504621374729 25.0272557862089 0.0
endloop
endfacet
facet normal 0.0 0.0 -1.0
outer loop
vertex 81.3504621374729 25.0272557862089 0.0
vertex 71.545101823954 32.2739215884588 0.0
vertex 82.8149920755681 29.6134613901157 0.0
endloop
endfacet
facet normal 0.0 0.0 -1.0
outer loop
vertex 81.3504621374729 25.0272557862089 0.0
vertex 82.8149920755681 29.6134613901157 0.0
vertex 91.3879692784655 20.9437833103929 0.0
endloop
endfacet
facet normal 0.0 0.0 -1.0
outer loop
vertex 91.3879692784655 20.9437833103929 0.0
vertex 82.8149920755681 29.6134613901157 0.0
vertex 93.5410196624968 25.2498840784552 0.0
endloop
endfacet
facet normal 0.0 0.0 -1.0
outer loop
vertex 91.3879692784655 20.9437833103929 0.0
vertex 93.5410196624968 25.2498840784552 0.0
vertex 100.677251543714 15.3638610830882 0.0
endloop
endfacet
facet normal 0.0 0.0 -1.0
outer loop
vertex 100.677251543714 15.3638610830882 0.0
vertex 93.5410196624968 25.2498840784552 0.0
vertex 103.467498063983 19.2872083959085 0.0
endloop
endfacet
facet normal 0.0 0.0 -1.0
outer loop
vertex 100.677251543714 15.3638610830882 0.0
vertex 103.467498063983 19.2872083959085 0.0
vertex 108.996871477134 8.42050301730557 0.0
endloop
endfacet
facet normal 0.0 0.0 -1.0
outer loop
vertex 108.996871477134 8.42050301730557 0.0
vertex 103.467498063983 19.2872083959085 0.0
vertex 112.357800373625 11.8675723136231 0.0
endloop
endfacet
facet normal 0.0 0.0 -1.0
outer loop
vertex 108.996871477134 8.42050301730557 0.0
vertex 112.357800373625 11.8675723136231 0.0
vertex 116.393788744684 2.04447569984723e-014 0.0
endloop
endfacet
facet normal 0.0 0.0 -1.0
outer loop
vertex 116.393788744684 2.04447569984723e-014 0.0
vertex 112.357800373625 11.8675723136231 0.0
vertex 120.0 3.1678447534615 0.0
endloop
endfacet
facet normal 0.153934690986054 -0.988081024466632 0.0
outer loop
vertex 49.1959962752054 27.5169368934755 10.8
vertex 38.6495378625271 25.0272557862088 0.0
vertex 49.1959962752054 27.5169368934755 0.0
endloop
endfacet
facet normal 0.304199894340909 -0.952608221822056 0.0
outer loop
vertex 38.6495378625271 25.0272557862088 0.0
vertex 49.1959962752054 27.5169368934755 10.8
vertex 38.6495378625271 25.0272557862088 10.8
endloop
endfacet
facet normal 0.698104004981671 -0.715996367468824 0.0
outer loop
vertex 11.0031285228658 8.42050301730582 0.0
vertex 3.60621125531584 0.0 10.8
vertex 3.60621125531584 0.0 0.0
endloop
endfacet
facet normal 0.751294011524132 -0.659967656971141 0.0
outer loop
vertex 3.60621125531584 0.0 10.8
vertex 11.0031285228658 8.42050301730582 0.0
vertex 11.0031285228658 8.42050301730582 10.8
endloop
endfacet
facet normal -0.304199894340907 0.952608221822057 0.0
outer loop
vertex 37.1850079244319 29.6134613901157 12.0
vertex 48.454898176046 32.2739215884588 0.0
vertex 37.1850079244319 29.6134613901157 0.0
endloop
endfacet
facet normal -0.153934690986053 0.988081024466632 0.0
outer loop
vertex 48.454898176046 32.2739215884588 0.0
vertex 37.1850079244319 29.6134613901157 12.0
vertex 48.454898176046 32.2739215884588 12.0
endloop
endfacet
facet normal -1.00575959643863e-015 1.0 0.0
outer loop
vertex 60.0 33.1678447534615 12.0
vertex 71.545101823954 32.2739215884588 0.0
vertex 60.0 33.1678447534615 0.0
endloop
endfacet
facet normal 0.153934690986053 0.988081024466632 0.0
outer loop
vertex 71.545101823954 32.2739215884588 0.0
vertex 60.0 33.1678447534615 12.0
vertex 71.545101823954 32.2739215884588 12.0
endloop
endfacet
facet normal -0.153934690986054 -0.988081024466632 0.0
outer loop
vertex 71.2980691242342 30.6882600234644 12.0
vertex 60.0000000000001 31.5630557475696 1.2
vertex 71.2980691242342 30.6882600234644 1.2
endloop
endfacet
facet normal -7.53212032575188e-017 -1.0 0.0
outer loop
vertex 60.0000000000001 31.5630557475696 1.2
vertex 71.2980691242342 30.6882600234644 12.0
vertex 60.0000000000001 31.5630557475696 12.0
endloop
endfacet
facet normal -0.698104004981673 -0.715996367468822 0.0
outer loop
vertex 111.237490741462 10.7185492148506 12.0
vertex 118.797929581561 2.11189650230767 1.2
vertex 118.797929581561 2.11189650230767 12.0
endloop
endfacet
facet normal -0.751294011524132 -0.659967656971141 -0.0
outer loop
vertex 118.797929581561 2.11189650230767 1.2
vertex 111.237490741462 10.7185492148506 12.0
vertex 111.237490741462 10.7185492148506 1.2
endloop
endfacet
facet normal 0.153934690986054 -0.988081024466632 0.0
outer loop
vertex 48.7019308757658 30.6882600234644 12.0
vertex 37.6731845704636 28.0847261888134 1.2
vertex 48.7019308757658 30.6882600234644 1.2
endloop
endfacet
facet normal 0.304199894340908 -0.952608221822057 0.0
outer loop
vertex 37.6731845704636 28.0847261888134 1.2
vertex 48.7019308757658 30.6882600234644 12.0
vertex 37.6731845704636 28.0847261888134 12.0
endloop
endfacet
facet normal -0.698104004981673 -0.715996367468822 0.0
outer loop
vertex 111.237490741462 10.7185492148506 12.0
vertex 102.53741589056 17.9794259583017 1.2
vertex 111.237490741462 10.7185492148506 1.2
endloop
endfacet
facet normal -0.579566640853099 -0.814924848565961 0.0
outer loop
vertex 102.53741589056 17.9794259583017 1.2
vertex 111.237490741462 10.7185492148506 12.0
vertex 102.53741589056 17.9794259583017 12.0
endloop
endfacet
facet normal -0.447213595499957 -0.894427190999917 0.0
outer loop
vertex 92.823336201153 23.8145171557678 12.0
vertex 82.3268154295363 28.0847261888134 1.2
vertex 92.823336201153 23.8145171557678 1.2
endloop
endfacet
facet normal -0.304199894340908 -0.952608221822057 0.0
outer loop
vertex 82.3268154295363 28.0847261888134 1.2
vertex 92.823336201153 23.8145171557678 12.0
vertex 82.3268154295363 28.0847261888134 12.0
endloop
endfacet
facet normal 0.579566640853101 -0.81492484856596 0.0
outer loop
vertex 17.4625841094402 17.9794259583017 12.0
vertex 8.76250925853825 10.7185492148506 1.2
vertex 17.4625841094402 17.9794259583017 1.2
endloop
endfacet
facet normal 0.698104004981673 -0.715996367468822 0.0
outer loop
vertex 8.76250925853825 10.7185492148506 1.2
vertex 17.4625841094402 17.9794259583017 12.0
vertex 8.76250925853825 10.7185492148506 12.0
endloop
endfacet
facet normal 0.304199894340908 -0.952608221822057 0.0
outer loop
vertex 37.6731845704636 28.0847261888134 12.0
vertex 27.1766637988468 23.8145171557677 1.2
vertex 37.6731845704636 28.0847261888134 1.2
endloop
endfacet
facet normal 0.447213595499959 -0.894427190999915 0.0
outer loop
vertex 27.1766637988468 23.8145171557677 1.2
vertex 37.6731845704636 28.0847261888134 12.0
vertex 27.1766637988468 23.8145171557677 12.0
endloop
endfacet
facet normal -0.304199894340908 -0.952608221822057 0.0
outer loop
vertex 82.3268154295363 28.0847261888134 12.0
vertex 71.2980691242342 30.6882600234644 1.2
vertex 82.3268154295363 28.0847261888134 1.2
endloop
endfacet
facet normal -0.153934690986054 -0.988081024466632 0.0
outer loop
vertex 71.2980691242342 30.6882600234644 1.2
vertex 82.3268154295363 28.0847261888134 12.0
vertex 71.2980691242342 30.6882600234644 12.0
endloop
endfacet
facet normal 0.698104004981673 -0.715996367468822 0.0
outer loop
vertex 8.76250925853825 10.7185492148506 1.2
vertex 1.20207041843861 2.11189650230765 12.0
vertex 1.20207041843861 2.11189650230765 1.2
endloop
endfacet
facet normal 0.751294011524132 -0.659967656971141 0.0
outer loop
vertex 1.20207041843861 2.11189650230765 12.0
vertex 8.76250925853825 10.7185492148506 1.2
vertex 8.76250925853825 10.7185492148506 12.0
endloop
endfacet
facet normal -7.53212032575188e-017 -1.0 0.0
outer loop
vertex 60.0000000000001 31.5630557475696 12.0
vertex 48.7019308757658 30.6882600234644 1.2
vertex 60.0000000000001 31.5630557475696 1.2
endloop
endfacet
facet normal 0.153934690986054 -0.988081024466632 0.0
outer loop
vertex 48.7019308757658 30.6882600234644 1.2
vertex 60.0000000000001 31.5630557475696 12.0
vertex 48.7019308757658 30.6882600234644 12.0
endloop
endfacet
facet normal -0.579566640853099 -0.814924848565961 0.0
outer loop
vertex 102.53741589056 17.9794259583017 12.0
vertex 92.823336201153 23.8145171557678 1.2
vertex 102.53741589056 17.9794259583017 1.2
endloop
endfacet
facet normal -0.447213595499957 -0.894427190999917 0.0
outer loop
vertex 92.823336201153 23.8145171557678 1.2
vertex 102.53741589056 17.9794259583017 12.0
vertex 92.823336201153 23.8145171557678 12.0
endloop
endfacet
facet normal 0.447213595499959 -0.894427190999915 0.0
outer loop
vertex 27.1766637988468 23.8145171557677 12.0
vertex 17.4625841094402 17.9794259583017 1.2
vertex 27.1766637988468 23.8145171557677 1.2
endloop
endfacet
facet normal 0.579566640853101 -0.81492484856596 0.0
outer loop
vertex 17.4625841094402 17.9794259583017 1.2
vertex 27.1766637988468 23.8145171557677 12.0
vertex 17.4625841094402 17.9794259583017 12.0
endloop
endfacet
facet normal 0.0 0.0 1.0
outer loop
vertex 1.20207041843861 2.11189650230765 12.0
vertex 7.64219962637451 11.8675723136231 12.0
vertex 0.0 3.16784475346148 12.0
endloop
endfacet
facet normal 0.0 0.0 1.0
outer loop
vertex 7.64219962637451 11.8675723136231 12.0
vertex 1.20207041843861 2.11189650230765 12.0
vertex 8.76250925853825 10.7185492148506 12.0
endloop
endfacet
facet normal 0.0 0.0 1.0
outer loop
vertex 7.64219962637451 11.8675723136231 12.0
vertex 8.76250925853825 10.7185492148506 12.0
vertex 16.5325019360175 19.2872083959085 12.0
endloop
endfacet
facet normal 0.0 0.0 1.0
outer loop
vertex 16.5325019360175 19.2872083959085 12.0
vertex 8.76250925853825 10.7185492148506 12.0
vertex 17.4625841094402 17.9794259583017 12.0
endloop
endfacet
facet normal 0.0 0.0 1.0
outer loop
vertex 16.5325019360175 19.2872083959085 12.0
vertex 17.4625841094402 17.9794259583017 12.0
vertex 26.4589803375031 25.2498840784552 12.0
endloop
endfacet
facet normal 0.0 0.0 1.0
outer loop
vertex 26.4589803375031 25.2498840784552 12.0
vertex 17.4625841094402 17.9794259583017 12.0
vertex 27.1766637988468 23.8145171557677 12.0
endloop
endfacet
facet normal 0.0 0.0 1.0
outer loop
vertex 26.4589803375031 25.2498840784552 12.0
vertex 27.1766637988468 23.8145171557677 12.0
vertex 37.1850079244319 29.6134613901157 12.0
endloop
endfacet
facet normal 0.0 0.0 1.0
outer loop
vertex 37.1850079244319 29.6134613901157 12.0
vertex 27.1766637988468 23.8145171557677 12.0
vertex 37.6731845704636 28.0847261888134 12.0
endloop
endfacet
facet normal 0.0 0.0 1.0
outer loop
vertex 37.1850079244319 29.6134613901157 12.0
vertex 37.6731845704636 28.0847261888134 12.0
vertex 48.454898176046 32.2739215884588 12.0
endloop
endfacet
facet normal 0.0 0.0 1.0
outer loop
vertex 48.454898176046 32.2739215884588 12.0
vertex 37.6731845704636 28.0847261888134 12.0
vertex 48.7019308757658 30.6882600234644 12.0
endloop
endfacet
facet normal 0.0 0.0 1.0
outer loop
vertex 48.454898176046 32.2739215884588 12.0
vertex 48.7019308757658 30.6882600234644 12.0
vertex 60.0 33.1678447534615 12.0
endloop
endfacet
facet normal 0.0 0.0 1.0
outer loop
vertex 60.0 33.1678447534615 12.0
vertex 48.7019308757658 30.6882600234644 12.0
vertex 60.0000000000001 31.5630557475696 12.0
endloop
endfacet
facet normal 0.0 0.0 1.0
outer loop
vertex 60.0 33.1678447534615 12.0
vertex 60.0000000000001 31.5630557475696 12.0
vertex 71.545101823954 32.2739215884588 12.0
endloop
endfacet
facet normal 0.0 0.0 1.0
outer loop
vertex 71.545101823954 32.2739215884588 12.0
vertex 60.0000000000001 31.5630557475696 12.0
vertex 71.2980691242342 30.6882600234644 12.0
endloop
endfacet
facet normal 0.0 0.0 1.0
outer loop
vertex 71.545101823954 32.2739215884588 12.0
vertex 71.2980691242342 30.6882600234644 12.0
vertex 82.3268154295363 28.0847261888134 12.0
endloop
endfacet
facet normal 0.0 0.0 1.0
outer loop
vertex 71.545101823954 32.2739215884588 12.0
vertex 82.3268154295363 28.0847261888134 12.0
vertex 82.8149920755681 29.6134613901157 12.0
endloop
endfacet
facet normal 0.0 0.0 1.0
outer loop
vertex 82.8149920755681 29.6134613901157 12.0
vertex 82.3268154295363 28.0847261888134 12.0
vertex 92.823336201153 23.8145171557678 12.0
endloop
endfacet
facet normal 0.0 0.0 1.0
outer loop
vertex 82.8149920755681 29.6134613901157 12.0
vertex 92.823336201153 23.8145171557678 12.0
vertex 93.5410196624968 25.2498840784552 12.0
endloop
endfacet
facet normal 0.0 0.0 1.0
outer loop
vertex 93.5410196624968 25.2498840784552 12.0
vertex 92.823336201153 23.8145171557678 12.0
vertex 102.53741589056 17.9794259583017 12.0
endloop
endfacet
facet normal 0.0 0.0 1.0
outer loop
vertex 93.5410196624968 25.2498840784552 12.0
vertex 102.53741589056 17.9794259583017 12.0
vertex 103.467498063983 19.2872083959085 12.0
endloop
endfacet
facet normal 0.0 0.0 1.0
outer loop
vertex 103.467498063983 19.2872083959085 12.0
vertex 102.53741589056 17.9794259583017 12.0
vertex 111.237490741462 10.7185492148506 12.0
endloop
endfacet
facet normal 0.0 0.0 1.0
outer loop
vertex 103.467498063983 19.2872083959085 12.0
vertex 111.237490741462 10.7185492148506 12.0
vertex 112.357800373625 11.8675723136231 12.0
endloop
endfacet
facet normal 0.0 0.0 1.0
outer loop
vertex 112.357800373625 11.8675723136231 12.0
vertex 111.237490741462 10.7185492148506 12.0
vertex 118.797929581561 2.11189650230767 12.0
endloop
endfacet
facet normal 0.0 0.0 1.0
outer loop
vertex 112.357800373625 11.8675723136231 12.0
vertex 118.797929581561 2.11189650230767 12.0
vertex 120.0 3.1678447534615 12.0
endloop
endfacet
facet normal -5.98138967045002e-016 1.0 0.0
outer loop
vertex 60.0000000000001 29.9582667416777 10.8
vertex 71.0510364245143 29.1025984584699 1.2
vertex 60.0000000000001 29.9582667416777 1.2
endloop
endfacet
facet normal 0.153934690986053 0.988081024466632 0.0
outer loop
vertex 71.0510364245143 29.1025984584699 1.2
vertex 60.0000000000001 29.9582667416777 10.8
vertex 71.0510364245143 29.1025984584699 10.8
endloop
endfacet
facet normal -0.304199894340908 0.952608221822057 0.0
outer loop
vertex 38.1613612164954 26.5559909875111 10.8
vertex 48.9489635754856 29.1025984584699 1.2
vertex 38.1613612164954 26.5559909875111 1.2
endloop
endfacet
facet normal -0.153934690986054 0.988081024466632 0.0
outer loop
vertex 48.9489635754856 29.1025984584699 1.2
vertex 38.1613612164954 26.5559909875111 10.8
vertex 48.9489635754856 29.1025984584699 10.8
endloop
endfacet
facet normal 0.153934690986053 0.988081024466632 0.0
outer loop
vertex 71.0510364245143 29.1025984584699 10.8
vertex 81.8386387835047 26.5559909875111 1.2
vertex 71.0510364245143 29.1025984584699 1.2
endloop
endfacet
facet normal 0.304199894340909 0.952608221822056 0.0
outer loop
vertex 81.8386387835047 26.5559909875111 1.2
vertex 71.0510364245143 29.1025984584699 10.8
vertex 81.8386387835047 26.5559909875111 10.8
endloop
endfacet
facet normal 0.304199894340909 0.952608221822056 0.0
outer loop
vertex 81.8386387835047 26.5559909875111 10.8
vertex 92.1056527398093 22.3791502330803 1.2
vertex 81.8386387835047 26.5559909875111 1.2
endloop
endfacet
facet normal 0.447213595499957 0.894427190999916 0.0
outer loop
vertex 92.1056527398093 22.3791502330803 1.2
vertex 81.8386387835047 26.5559909875111 10.8
vertex 92.1056527398093 22.3791502330803 10.8
endloop
endfacet
facet normal -0.153934690986054 0.988081024466632 0.0
outer loop
vertex 48.9489635754856 29.1025984584699 10.8
vertex 60.0000000000001 29.9582667416777 1.2
vertex 48.9489635754856 29.1025984584699 1.2
endloop
endfacet
facet normal -5.98138967045002e-016 1.0 0.0
outer loop
vertex 60.0000000000001 29.9582667416777 1.2
vertex 48.9489635754856 29.1025984584699 10.8
vertex 60.0000000000001 29.9582667416777 10.8
endloop
endfacet
facet normal 0.0 0.0 1.0
outer loop
vertex 3.60621125531584 0.0 10.8
vertex 9.88281889070199 9.56952611607819 10.8
vertex 2.40414083687722 1.05594825115383 10.8
endloop
endfacet
facet normal 0.0 0.0 1.0
outer loop
vertex 9.88281889070199 9.56952611607819 10.8
vertex 3.60621125531584 0.0 10.8
vertex 11.0031285228658 8.42050301730582 10.8
endloop
endfacet
facet normal 0.0 0.0 1.0
outer loop
vertex 9.88281889070199 9.56952611607819 10.8
vertex 11.0031285228658 8.42050301730582 10.8
vertex 18.392666282863 16.671643520695 10.8
endloop
endfacet
facet normal 0.0 0.0 1.0
outer loop
vertex 18.392666282863 16.671643520695 10.8
vertex 11.0031285228658 8.42050301730582 10.8
vertex 19.3227484562859 15.3638610830883 10.8
endloop
endfacet
facet normal 0.0 0.0 1.0
outer loop
vertex 18.392666282863 16.671643520695 10.8
vertex 19.3227484562859 15.3638610830883 10.8
vertex 27.8943472601905 22.3791502330802 10.8
endloop
endfacet
facet normal 0.0 0.0 1.0
outer loop
vertex 27.8943472601905 22.3791502330802 10.8
vertex 19.3227484562859 15.3638610830883 10.8
vertex 28.6120307215342 20.9437833103928 10.8
endloop
endfacet
facet normal 0.0 0.0 1.0
outer loop
vertex 27.8943472601905 22.3791502330802 10.8
vertex 28.6120307215342 20.9437833103928 10.8
vertex 38.1613612164954 26.5559909875111 10.8
endloop
endfacet
facet normal 0.0 0.0 1.0
outer loop
vertex 38.1613612164954 26.5559909875111 10.8
vertex 28.6120307215342 20.9437833103928 10.8
vertex 38.6495378625271 25.0272557862088 10.8
endloop
endfacet
facet normal 0.0 0.0 1.0
outer loop
vertex 38.1613612164954 26.5559909875111 10.8
vertex 38.6495378625271 25.0272557862088 10.8
vertex 48.9489635754856 29.1025984584699 10.8
endloop
endfacet
facet normal 0.0 0.0 1.0
outer loop
vertex 48.9489635754856 29.1025984584699 10.8
vertex 38.6495378625271 25.0272557862088 10.8
vertex 49.1959962752054 27.5169368934755 10.8
endloop
endfacet
facet normal 0.0 0.0 1.0
outer loop
vertex 48.9489635754856 29.1025984584699 10.8
vertex 49.1959962752054 27.5169368934755 10.8
vertex 60.0000000000001 29.9582667416777 10.8
endloop
endfacet
facet normal 0.0 0.0 1.0
outer loop
vertex 60.0000000000001 29.9582667416777 10.8
vertex 49.1959962752054 27.5169368934755 10.8
vertex 60.0000000000001 28.3534777357858 10.8
endloop
endfacet
facet normal 0.0 0.0 1.0
outer loop
vertex 60.0000000000001 29.9582667416777 10.8
vertex 60.0000000000001 28.3534777357858 10.8
vertex 70.8040037247945 27.5169368934755 10.8
endloop
endfacet
facet normal 0.0 0.0 1.0
outer loop
vertex 60.0000000000001 29.9582667416777 10.8
vertex 70.8040037247945 27.5169368934755 10.8
vertex 71.0510364245143 29.1025984584699 10.8
endloop
endfacet
facet normal 0.0 0.0 1.0
outer loop
vertex 71.0510364245143 29.1025984584699 10.8
vertex 70.8040037247945 27.5169368934755 10.8
vertex 81.3504621374729 25.0272557862089 10.8
endloop
endfacet
facet normal 0.0 0.0 1.0
outer loop
vertex 71.0510364245143 29.1025984584699 10.8
vertex 81.3504621374729 25.0272557862089 10.8
vertex 81.8386387835047 26.5559909875111 10.8
endloop
endfacet
facet normal 0.0 0.0 1.0
outer loop
vertex 81.8386387835047 26.5559909875111 10.8
vertex 81.3504621374729 25.0272557862089 10.8
vertex 91.3879692784655 20.9437833103929 10.8
endloop
endfacet
facet normal 0.0 0.0 1.0
outer loop
vertex 81.8386387835047 26.5559909875111 10.8
vertex 91.3879692784655 20.9437833103929 10.8
vertex 92.1056527398093 22.3791502330803 10.8
endloop
endfacet
facet normal 0.0 0.0 1.0
outer loop
vertex 92.1056527398093 22.3791502330803 10.8
vertex 91.3879692784655 20.9437833103929 10.8
vertex 100.677251543714 15.3638610830882 10.8
endloop
endfacet
facet normal 0.0 0.0 1.0
outer loop
vertex 92.1056527398093 22.3791502330803 10.8
vertex 100.677251543714 15.3638610830882 10.8
vertex 101.607333717137 16.6716435206949 10.8
endloop
endfacet
facet normal 0.0 0.0 1.0
outer loop
vertex 101.607333717137 16.6716435206949 10.8
vertex 100.677251543714 15.3638610830882 10.8
vertex 108.996871477134 8.42050301730557 10.8
endloop
endfacet
facet normal 0.0 0.0 1.0
outer loop
vertex 101.607333717137 16.6716435206949 10.8
vertex 108.996871477134 8.42050301730557 10.8
vertex 110.117181109298 9.56952611607815 10.8
endloop
endfacet
facet normal 0.0 0.0 1.0
outer loop
vertex 110.117181109298 9.56952611607815 10.8
vertex 108.996871477134 8.42050301730557 10.8
vertex 116.393788744684 2.04447569984723e-014 10.8
endloop
endfacet
facet normal 0.0 0.0 1.0
outer loop
vertex 110.117181109298 9.56952611607815 10.8
vertex 116.393788744684 2.04447569984723e-014 10.8
vertex 117.595859163123 1.05594825115385 10.8
endloop
endfacet
facet normal 0.698104004981673 0.715996367468822 0.0
outer loop
vertex 110.117181109298 9.56952611607815 1.2
vertex 117.595859163123 1.05594825115385 10.8
vertex 117.595859163123 1.05594825115385 1.2
endloop
endfacet
facet normal 0.751294011524131 0.659967656971141 0.0
outer loop
vertex 117.595859163123 1.05594825115385 10.8
vertex 110.117181109298 9.56952611607815 1.2
vertex 110.117181109298 9.56952611607815 10.8
endloop
endfacet
facet normal -0.5795666408531 0.814924848565961 0.0
outer loop
vertex 18.392666282863 16.671643520695 10.8
vertex 27.8943472601905 22.3791502330802 1.2
vertex 18.392666282863 16.671643520695 1.2
endloop
endfacet
facet normal -0.447213595499959 0.894427190999916 0.0
outer loop
vertex 27.8943472601905 22.3791502330802 1.2
vertex 18.392666282863 16.671643520695 10.8
vertex 27.8943472601905 22.3791502330802 10.8
endloop
endfacet
facet normal 0.579566640853099 0.814924848565961 0.0
outer loop
vertex 101.607333717137 16.6716435206949 10.8
vertex 110.117181109298 9.56952611607815 1.2
vertex 101.607333717137 16.6716435206949 1.2
endloop
endfacet
facet normal 0.698104004981673 0.715996367468822 0.0
outer loop
vertex 110.117181109298 9.56952611607815 1.2
vertex 101.607333717137 16.6716435206949 10.8
vertex 110.117181109298 9.56952611607815 10.8
endloop
endfacet
facet normal -0.447213595499959 0.894427190999916 0.0
outer loop
vertex 27.8943472601905 22.3791502330802 10.8
vertex 38.1613612164954 26.5559909875111 1.2
vertex 27.8943472601905 22.3791502330802 1.2
endloop
endfacet
facet normal -0.304199894340908 0.952608221822057 0.0
outer loop
vertex 38.1613612164954 26.5559909875111 1.2
vertex 27.8943472601905 22.3791502330802 10.8
vertex 38.1613612164954 26.5559909875111 10.8
endloop
endfacet
facet normal -0.698104004981672 0.715996367468823 0.0
outer loop
vertex 9.88281889070199 9.56952611607819 10.8
vertex 18.392666282863 16.671643520695 1.2
vertex 9.88281889070199 9.56952611607819 1.2
endloop
endfacet
facet normal -0.5795666408531 0.814924848565961 0.0
outer loop
vertex 18.392666282863 16.671643520695 1.2
vertex 9.88281889070199 9.56952611607819 10.8
vertex 18.392666282863 16.671643520695 10.8
endloop
endfacet
facet normal -0.698104004981672 0.715996367468823 0.0
outer loop
vertex 9.88281889070199 9.56952611607819 10.8
vertex 2.40414083687722 1.05594825115383 1.2
vertex 2.40414083687722 1.05594825115383 10.8
endloop
endfacet
facet normal -0.751294011524132 0.659967656971141 0.0
outer loop
vertex 2.40414083687722 1.05594825115383 1.2
vertex 9.88281889070199 9.56952611607819 10.8
vertex 9.88281889070199 9.56952611607819 1.2
endloop
endfacet
facet normal 0.447213595499957 0.894427190999916 0.0
outer loop
vertex 92.1056527398093 22.3791502330803 10.8
vertex 101.607333717137 16.6716435206949 1.2
vertex 92.1056527398093 22.3791502330803 1.2
endloop
endfacet
facet normal 0.579566640853099 0.814924848565961 0.0
outer loop
vertex 101.607333717137 16.6716435206949 1.2
vertex 92.1056527398093 22.3791502330803 10.8
vertex 101.607333717137 16.6716435206949 10.8
endloop
endfacet
endsolid bas-pour-1mm
