<?xml version="1.0" encoding="UTF-8" standalone="no"?>
<!-- Generator: Adobe Illustrator 14.0.0, SVG Export Plug-In . SVG Version: 6.00 Build 43363)  -->

<svg
   xmlns:dc="http://purl.org/dc/elements/1.1/"
   xmlns:cc="http://creativecommons.org/ns#"
   xmlns:rdf="http://www.w3.org/1999/02/22-rdf-syntax-ns#"
   xmlns:svg="http://www.w3.org/2000/svg"
   xmlns="http://www.w3.org/2000/svg"
   xmlns:sodipodi="http://sodipodi.sourceforge.net/DTD/sodipodi-0.dtd"
   xmlns:inkscape="http://www.inkscape.org/namespaces/inkscape"
   version="1.1"
   id="Layer_1"
   x="0px"
   y="0px"
   width="100mm"
   height="100mm"
   viewBox="0 0 377.95276 377.95274"
   enable-background="new 0 0 850.39 850.39"
   xml:space="preserve"
   sodipodi:docname="stop-pub.svg"
   inkscape:version="0.92.0 r15299"><metadata
     id="metadata2615"><rdf:RDF><cc:Work
         rdf:about=""><dc:format>image/svg+xml</dc:format><dc:type
           rdf:resource="http://purl.org/dc/dcmitype/StillImage" /><dc:title></dc:title></cc:Work></rdf:RDF></metadata><defs
     id="defs2613" /><sodipodi:namedview
     pagecolor="#ffffff"
     bordercolor="#666666"
     borderopacity="1"
     objecttolerance="10"
     gridtolerance="10"
     guidetolerance="10"
     inkscape:pageopacity="0"
     inkscape:pageshadow="2"
     inkscape:window-width="1920"
     inkscape:window-height="1005"
     id="namedview2611"
     showgrid="false"
     inkscape:zoom="1.6789126"
     inkscape:cx="206.44631"
     inkscape:cy="174.7791"
     inkscape:window-x="-9"
     inkscape:window-y="-9"
     inkscape:window-maximized="1"
     inkscape:current-layer="flowRoot3424"
     units="mm" /><g
     id="g2594"
     transform="matrix(1.3291717,0,0,1.3291717,-227.3265,-359.21563)"><g
       id="LINE" /><g
       id="LINE_1_" /><g
       id="LINE_2_" /><g
       id="LINE_3_" /><g
       id="LINE_4_" /><g
       id="LINE_5_" /><g
       id="LINE_6_" /><g
       id="LINE_7_" /><g
       id="LINE_8_" /><g
       id="LINE_9_" /><g
       id="LINE_10_" /><g
       id="LINE_11_" /><g
       id="LINE_12_" /><g
       id="LINE_13_" /><g
       id="LINE_14_" /><g
       id="LINE_15_" /><g
       id="LINE_16_" /><g
       id="LINE_17_" /><g
       id="LINE_18_" /><g
       id="LINE_19_" /><g
       id="LINE_20_" /><g
       id="LINE_21_" /><g
       id="LINE_22_" /><g
       id="LINE_23_" /><g
       id="LINE_24_" /><g
       id="LINE_25_" /><g
       id="LINE_26_" /><g
       id="LINE_27_" /><g
       id="LINE_28_" /><g
       id="LINE_29_" /><g
       id="LINE_30_" /><g
       id="LINE_31_" /><g
       id="LINE_32_" /><g
       id="LINE_33_" /><g
       id="LINE_34_" /><g
       id="LINE_35_" /><g
       id="LINE_36_" /><g
       id="LINE_37_" /><g
       id="LINE_38_" /><g
       id="LINE_39_" /><g
       id="LINE_40_" /><g
       id="LINE_41_" /><g
       id="LINE_42_" /><g
       id="LINE_43_" /><g
       id="LINE_44_" /><g
       id="LINE_45_" /><g
       id="LINE_46_" /><g
       id="LINE_47_" /><g
       id="LINE_48_" /><g
       id="LINE_49_" /><g
       id="LINE_50_" /><g
       id="LINE_51_" /><g
       id="LINE_52_" /><g
       id="LINE_53_" /><g
       id="LINE_54_" /><g
       id="LINE_55_" /><g
       id="LINE_56_" /><g
       id="LINE_57_" /><g
       id="LINE_58_" /><g
       id="LINE_59_" /><g
       id="LINE_60_" /><g
       id="LINE_61_" /><g
       id="LINE_62_" /><g
       id="LINE_63_" /><g
       id="LINE_64_" /><g
       id="LINE_65_" /><g
       id="LINE_66_" /><g
       id="LINE_67_" /><g
       id="LINE_68_" /><g
       id="LINE_69_" /><g
       id="LINE_70_" /><g
       id="LINE_71_" /><g
       id="LINE_72_" /><g
       id="LINE_73_" /><g
       id="LINE_74_" /><g
       id="LINE_75_" /><g
       id="LINE_76_" /><g
       id="LINE_77_" /><g
       id="LINE_78_" /><g
       id="LINE_79_" /><g
       id="LINE_80_" /><g
       id="LINE_81_" /><g
       id="LINE_82_" /><g
       id="LINE_83_" /><g
       id="LINE_84_" /><g
       id="LINE_85_" /><g
       id="LINE_86_" /><g
       id="LINE_87_" /><g
       id="LINE_88_" /><g
       id="LINE_89_" /><g
       id="LINE_90_" /><g
       id="LINE_91_" /><g
       id="LINE_92_" /><g
       id="LINE_93_" /><g
       id="LINE_94_" /><g
       id="LINE_95_" /><g
       id="LINE_96_" /><g
       id="LINE_97_" /><g
       id="LINE_98_" /><g
       id="LINE_99_" /><g
       id="LINE_100_" /><g
       id="LINE_101_" /><g
       id="LINE_102_" /><g
       id="LINE_103_" /><g
       id="LINE_104_" /><g
       id="LINE_105_" /><g
       id="LINE_106_" /><g
       id="LINE_107_" /><g
       id="LINE_108_" /><g
       id="LINE_109_" /><g
       id="LINE_110_" /><g
       id="LINE_111_" /><g
       id="LINE_112_" /><g
       id="LINE_113_" /><g
       id="LINE_114_" /><g
       id="LINE_115_" /><g
       id="LINE_116_" /><g
       id="LINE_117_" /><g
       id="LINE_118_" /><g
       id="LINE_119_" /><g
       id="LINE_120_" /><g
       id="LINE_121_" /><g
       id="LINE_122_" /><g
       id="LINE_123_" /><g
       id="LINE_124_" /><g
       id="LINE_125_" /><g
       id="LINE_126_" /><g
       id="LINE_127_" /><g
       id="LINE_128_" /><g
       id="LINE_129_" /><g
       id="LINE_130_" /><g
       id="LINE_131_" /><g
       id="LINE_132_" /><g
       id="LINE_133_" /><g
       id="LINE_134_" /><g
       id="LINE_135_" /><g
       id="LINE_136_" /><g
       id="LINE_137_" /><g
       id="LINE_138_" /><g
       id="LINE_139_" /><g
       id="LINE_140_" /><g
       id="LINE_141_" /><g
       id="LINE_142_" /><g
       id="LINE_143_" /><g
       id="LINE_144_" /><g
       id="LINE_145_" /><g
       id="LINE_146_" /><g
       id="LINE_147_" /><g
       id="LINE_148_" /><g
       id="LINE_149_" /><g
       id="LINE_150_" /><g
       id="LINE_151_" /><g
       id="LINE_152_" /><g
       id="LINE_153_" /><g
       id="LINE_154_" /><g
       id="LINE_155_" /><g
       id="LINE_156_" /><g
       id="LINE_157_" /><g
       id="LINE_158_" /><g
       id="LINE_159_" /><g
       id="LINE_160_" /><g
       id="LINE_161_" /><g
       id="LINE_162_" /><g
       id="LINE_163_" /><g
       id="LINE_164_" /><g
       id="LINE_165_" /><g
       id="LINE_166_" /><g
       id="LINE_167_" /><g
       id="LINE_168_" /><g
       id="LINE_169_" /><g
       id="LINE_170_" /><g
       id="LINE_171_" /><g
       id="LINE_172_" /><g
       id="LINE_173_" /><g
       id="LINE_174_" /><g
       id="LINE_175_" /><g
       id="LINE_176_" /><g
       id="LINE_177_" /><g
       id="LINE_178_" /><g
       id="LINE_179_" /><g
       id="LINE_180_" /><g
       id="LINE_181_" /><g
       id="LINE_182_" /><g
       id="LINE_183_" /><g
       id="LINE_184_" /><g
       id="LINE_185_" /><g
       id="LINE_186_" /><g
       id="LINE_187_" /><g
       id="LINE_188_" /><g
       id="LINE_189_" /><g
       id="LINE_190_" /><g
       id="LINE_191_" /><g
       id="LINE_192_" /><g
       id="LINE_193_" /><g
       id="LINE_194_" /><g
       id="LINE_195_" /><g
       id="LINE_196_" /><g
       id="LINE_197_" /><g
       id="LINE_198_" /><g
       id="LINE_199_" /><g
       id="LINE_200_" /><g
       id="LINE_201_" /><g
       id="LINE_202_" /><g
       id="LINE_203_" /><g
       id="LINE_204_" /><g
       id="LINE_205_" /><g
       id="LINE_206_" /><g
       id="LINE_207_" /><g
       id="LINE_208_" /><g
       id="LINE_209_" /><g
       id="LINE_210_" /><g
       id="LINE_211_" /><g
       id="LINE_212_" /><g
       id="LINE_213_" /><g
       id="LINE_214_" /><g
       id="LINE_215_" /><g
       id="LINE_216_" /><g
       id="LINE_217_" /><g
       id="LINE_218_" /><g
       id="LINE_219_" /><g
       id="LINE_220_" /><g
       id="LINE_221_" /><g
       id="LINE_222_" /><g
       id="LINE_223_" /><g
       id="LINE_224_" /><g
       id="LINE_225_" /><g
       id="LINE_226_" /><g
       id="LINE_227_" /><g
       id="LINE_228_" /><g
       id="LINE_229_" /><g
       id="LINE_230_" /><g
       id="LINE_231_" /><g
       id="LINE_232_" /><g
       id="LINE_233_" /><g
       id="LINE_234_" /><g
       id="LINE_235_" /><g
       id="LINE_236_" /><g
       id="LINE_237_" /><g
       id="LINE_238_" /><g
       id="LINE_239_" /><g
       id="LINE_240_" /><g
       id="LINE_241_" /><g
       id="LINE_242_" /><g
       id="LINE_243_" /><g
       id="LINE_244_" /><g
       id="LINE_245_" /><g
       id="LINE_246_" /><g
       id="LINE_247_" /><g
       id="LINE_248_" /><g
       id="LINE_249_" /><g
       id="LINE_250_" /><g
       id="LINE_251_" /><g
       id="LINE_252_" /><g
       id="LINE_253_" /><g
       id="LINE_254_" /><g
       id="LINE_255_" /><g
       id="LINE_256_" /><g
       id="LINE_257_" /><g
       id="LINE_258_" /><g
       id="LINE_259_" /><g
       id="LINE_260_" /><g
       id="LINE_261_" /><g
       id="LINE_262_" /><g
       id="LINE_263_" /><g
       id="LINE_264_" /><g
       id="LINE_265_" /><g
       id="LINE_266_" /><g
       id="LINE_267_" /><g
       id="LINE_268_" /><g
       id="LINE_269_" /><g
       id="LINE_270_" /><g
       id="LINE_271_" /><g
       id="LINE_272_" /><g
       id="LINE_273_" /><g
       id="LINE_274_" /><g
       id="LINE_275_" /><g
       id="LINE_276_" /><g
       id="LINE_277_" /><g
       id="LINE_278_" /><g
       id="LINE_279_" /><g
       id="LINE_280_" /><g
       id="LINE_281_" /><g
       id="LINE_282_" /><g
       id="LINE_283_" /><g
       id="LINE_284_" /><g
       id="LINE_285_" /><g
       id="LINE_286_" /><g
       id="LINE_287_" /><g
       id="LINE_288_" /><g
       id="LINE_289_" /><g
       id="LINE_290_" /><g
       id="LINE_291_" /><g
       id="LINE_292_" /><g
       id="LINE_293_" /><g
       id="LINE_294_" /><g
       id="LINE_295_" /><g
       id="LINE_296_" /><g
       id="LINE_297_" /><g
       id="LINE_298_" /><g
       id="LINE_299_" /><g
       id="LINE_300_" /><g
       id="LINE_301_" /><g
       id="LINE_302_" /><g
       id="LINE_303_" /><g
       id="LINE_304_" /><g
       id="LINE_305_" /><g
       id="LINE_306_" /><g
       id="LINE_307_" /><g
       id="LINE_308_" /><g
       id="LINE_309_" /><g
       id="LINE_310_" /><g
       id="LINE_311_" /><g
       id="LINE_312_" /><g
       id="LINE_313_" /><g
       id="LINE_314_" /><g
       id="LINE_315_" /><g
       id="LINE_316_" /><g
       id="LINE_317_" /><g
       id="LINE_318_" /><g
       id="LINE_319_" /><g
       id="LINE_320_" /><g
       id="LINE_321_" /><g
       id="LINE_322_" /><g
       id="LINE_323_" /><g
       id="LINE_324_" /><g
       id="LINE_325_" /><g
       id="LINE_326_" /><g
       id="LINE_327_" /><g
       id="LINE_328_" /><g
       id="LINE_329_" /><g
       id="LINE_330_" /><g
       id="LINE_331_" /><g
       id="LINE_332_" /><g
       id="LINE_333_" /><g
       id="LINE_334_" /><g
       id="LINE_335_" /><g
       id="LINE_336_" /><g
       id="LINE_337_" /><g
       id="LINE_338_" /><g
       id="LINE_339_" /><g
       id="LINE_340_" /><g
       id="LINE_341_" /><g
       id="LINE_342_" /><g
       id="LINE_343_" /><g
       id="LINE_344_" /><g
       id="LINE_345_" /><g
       id="LINE_346_" /><g
       id="LINE_347_" /><g
       id="LINE_348_" /><g
       id="LINE_349_" /><g
       id="LINE_350_" /><g
       id="LINE_351_" /><g
       id="LINE_352_" /><g
       id="LINE_353_" /><g
       id="LINE_354_" /><g
       id="LINE_355_" /><g
       id="LINE_356_" /><g
       id="LINE_357_" /><g
       id="LINE_358_" /><g
       id="LINE_359_" /><g
       id="LINE_360_" /><g
       id="LINE_361_" /><g
       id="LINE_362_" /><g
       id="LINE_363_" /><g
       id="LINE_364_" /><g
       id="LINE_365_" /><g
       id="LINE_366_" /><g
       id="LINE_367_" /><g
       id="LINE_368_" /><g
       id="LINE_369_" /><g
       id="LINE_370_" /><g
       id="LINE_371_" /><g
       id="LINE_372_" /><g
       id="LINE_373_" /><g
       id="LINE_374_" /><g
       id="LINE_375_" /><g
       id="LINE_376_" /><g
       id="LINE_377_" /><g
       id="LINE_378_" /><g
       id="LINE_379_" /><g
       id="LINE_380_" /><g
       id="LINE_381_" /><g
       id="LINE_382_" /><g
       id="LINE_383_" /><g
       id="LINE_384_" /><g
       id="LINE_385_" /><g
       id="LINE_386_" /><g
       id="LINE_387_" /><g
       id="LINE_388_" /><g
       id="LINE_389_" /><g
       id="LINE_390_" /><g
       id="LINE_391_" /><g
       id="LINE_392_" /><g
       id="LINE_393_" /><g
       id="LINE_394_" /><g
       id="LINE_395_" /><g
       id="LINE_396_" /><g
       id="LINE_397_" /><g
       id="LINE_398_" /><g
       id="LINE_399_" /><g
       id="LINE_400_" /><g
       id="LINE_401_" /><g
       id="LINE_402_" /><g
       id="LINE_403_" /><g
       id="LINE_404_" /><g
       id="LINE_405_" /><g
       id="LINE_406_" /><g
       id="LINE_407_" /><g
       id="LINE_408_" /><g
       id="LINE_409_" /><g
       id="LINE_410_" /><g
       id="LINE_411_" /><g
       id="LINE_412_" /><g
       id="LINE_413_" /><g
       id="LINE_414_" /><g
       id="LINE_415_" /><g
       id="LINE_416_" /><g
       id="LINE_417_" /><g
       id="LINE_418_" /><g
       id="LINE_419_" /><g
       id="LINE_420_" /><g
       id="LINE_421_" /><g
       id="LINE_422_" /><g
       id="LINE_423_" /><g
       id="LINE_424_" /><g
       id="LINE_425_" /><g
       id="LINE_426_" /><g
       id="LINE_427_" /><g
       id="LINE_428_" /><g
       id="LINE_429_" /><g
       id="LINE_430_" /><g
       id="LINE_431_" /><g
       id="LINE_432_" /><g
       id="LINE_433_" /><g
       id="LINE_434_" /><g
       id="LINE_435_" /><g
       id="LINE_436_" /><g
       id="LINE_437_" /><g
       id="LINE_438_" /><g
       id="LINE_439_" /><g
       id="LINE_440_" /><g
       id="LINE_441_" /><g
       id="LINE_442_" /><g
       id="LINE_443_" /><g
       id="LINE_444_" /><g
       id="LINE_445_" /><g
       id="LINE_446_" /><g
       id="LINE_447_" /><g
       id="LINE_448_" /><g
       id="LINE_449_" /><g
       id="LINE_450_" /><g
       id="LINE_451_" /><g
       id="LINE_452_" /><g
       id="LINE_453_" /><g
       id="LINE_454_" /><g
       id="LINE_455_" /><g
       id="LINE_456_" /><g
       id="LINE_457_" /><g
       id="LINE_458_" /><g
       id="LINE_459_" /><g
       id="LINE_460_" /><g
       id="LINE_461_" /><g
       id="LINE_462_" /><g
       id="LINE_463_" /><g
       id="LINE_464_" /><g
       id="LINE_465_" /><g
       id="LINE_466_" /><g
       id="LINE_467_" /><g
       id="LINE_468_" /><g
       id="LINE_469_" /><g
       id="LINE_470_" /><g
       id="LINE_471_" /><g
       id="LINE_472_" /><g
       id="LINE_473_" /><g
       id="LINE_474_" /><g
       id="LINE_475_" /><g
       id="LINE_476_" /><g
       id="LINE_477_" /><g
       id="LINE_478_" /><g
       id="LINE_479_" /><g
       id="LINE_480_" /><g
       id="LINE_481_" /><g
       id="LINE_482_" /><g
       id="LINE_483_" /><g
       id="LINE_484_" /><g
       id="LINE_485_" /><g
       id="LINE_486_" /><g
       id="LINE_487_" /><g
       id="LINE_488_" /><g
       id="LINE_489_" /><g
       id="LINE_490_" /><g
       id="LINE_491_" /><g
       id="LINE_492_" /><g
       id="LINE_493_" /><g
       id="LINE_494_" /><g
       id="LINE_495_" /><g
       id="LINE_496_" /><g
       id="LINE_497_" /><g
       id="LINE_498_" /><g
       id="LINE_499_" /><g
       id="LINE_500_" /><g
       id="LINE_501_" /><g
       id="LINE_502_" /><g
       id="LINE_503_" /><g
       id="LINE_504_" /><g
       id="LINE_505_" /><g
       id="LINE_506_" /><g
       id="LINE_507_" /><g
       id="LINE_508_" /><g
       id="LINE_509_" /><g
       id="LINE_510_" /><g
       id="LINE_511_" /><g
       id="LINE_512_" /><g
       id="LINE_513_" /><g
       id="LINE_514_" /><g
       id="LINE_515_" /><g
       id="LINE_516_" /><g
       id="LINE_517_" /><g
       id="LINE_518_" /><g
       id="LINE_519_" /><g
       id="LINE_520_" /><g
       id="LINE_521_" /><g
       id="LINE_522_" /><g
       id="LINE_523_" /><g
       id="LINE_524_" /><g
       id="LINE_525_" /><g
       id="LINE_526_" /><g
       id="LINE_527_" /><g
       id="LINE_528_" /><g
       id="LINE_529_" /><g
       id="LINE_530_" /><g
       id="LINE_531_" /><g
       id="LINE_532_" /><g
       id="LINE_533_" /><g
       id="LINE_534_" /><g
       id="LINE_535_" /><g
       id="LINE_536_" /><g
       id="LINE_537_" /><g
       id="LINE_538_" /><g
       id="LINE_539_" /><g
       id="LINE_540_" /><g
       id="LINE_541_" /><g
       id="LINE_542_" /><g
       id="LINE_543_" /><g
       id="LINE_544_" /><g
       id="LINE_545_" /><g
       id="LINE_546_" /><g
       id="LINE_547_" /><g
       id="LINE_548_" /><g
       id="LINE_549_" /><g
       id="LINE_550_" /><g
       id="LINE_551_" /><g
       id="LINE_552_" /><g
       id="LINE_553_" /><g
       id="LINE_554_" /><g
       id="LINE_555_" /><g
       id="LINE_556_" /><g
       id="LINE_557_" /><g
       id="LINE_558_" /><g
       id="LINE_559_" /><g
       id="LINE_560_" /><g
       id="LINE_561_" /><g
       id="LINE_562_" /><g
       id="LINE_563_" /><g
       id="LINE_564_" /><g
       id="LINE_565_" /><g
       id="LINE_566_" /><g
       id="LINE_567_" /><g
       id="LINE_568_" /><g
       id="LINE_569_" /><g
       id="LINE_570_" /><g
       id="LINE_571_" /><g
       id="LINE_572_" /><g
       id="LINE_573_" /><g
       id="LINE_574_" /><g
       id="LINE_575_" /><g
       id="LINE_576_" /><g
       id="LINE_577_" /><g
       id="LINE_578_" /><g
       id="LINE_579_" /><g
       id="LINE_580_" /><g
       id="LINE_581_" /><g
       id="LINE_582_" /><g
       id="LINE_583_" /><g
       id="LINE_584_" /><g
       id="LINE_585_" /><g
       id="LINE_586_" /><g
       id="LINE_587_" /><g
       id="LINE_588_" /><g
       id="LINE_589_" /><g
       id="LINE_590_" /><g
       id="LINE_591_" /><g
       id="LINE_592_" /><g
       id="LINE_593_" /><g
       id="LINE_594_" /><g
       id="LINE_595_" /><g
       id="LINE_596_" /><g
       id="LINE_597_" /><g
       id="LINE_598_" /><g
       id="LINE_599_" /><g
       id="LINE_600_" /><g
       id="LINE_601_" /><g
       id="LINE_602_" /><g
       id="LINE_603_" /><g
       id="LINE_604_" /><g
       id="LINE_605_" /><g
       id="LINE_606_" /><g
       id="LINE_607_" /><g
       id="LINE_608_" /><g
       id="LINE_609_" /><g
       id="LINE_610_" /><g
       id="LINE_611_" /><g
       id="LINE_612_" /><g
       id="LINE_613_" /><g
       id="LINE_614_" /><g
       id="LINE_615_" /><g
       id="LINE_616_" /><g
       id="LINE_617_" /><g
       id="LINE_618_" /><g
       id="LINE_619_" /><g
       id="LINE_620_" /><g
       id="LINE_621_" /><g
       id="LINE_622_" /><g
       id="LINE_623_" /><g
       id="LINE_624_" /><g
       id="LINE_625_" /><g
       id="LINE_626_" /><g
       id="LINE_627_" /><g
       id="LINE_628_" /><g
       id="LINE_629_" /><g
       id="LINE_630_" /><g
       id="LINE_631_" /><g
       id="LINE_632_" /><g
       id="LINE_633_" /><g
       id="LINE_634_" /><g
       id="LINE_635_" /><g
       id="LINE_636_" /><g
       id="LINE_637_" /><g
       id="LINE_638_" /><g
       id="LINE_639_" /><g
       id="LINE_640_" /><g
       id="LINE_641_" /><g
       id="LINE_642_" /><g
       id="LINE_643_" /><g
       id="LINE_644_" /><g
       id="LINE_645_" /><g
       id="LINE_646_" /><g
       id="LINE_647_" /><g
       id="LINE_648_" /><g
       id="LINE_649_" /><g
       id="LINE_650_" /><g
       id="LINE_651_" /><g
       id="LINE_652_" /><g
       id="LINE_653_" /><g
       id="LINE_654_" /><g
       id="LINE_655_" /><g
       id="LINE_656_" /><g
       id="LINE_657_" /><g
       id="LINE_658_" /><g
       id="LINE_659_" /><g
       id="LINE_660_" /><g
       id="LINE_661_" /><g
       id="LINE_662_" /><g
       id="LINE_663_" /><g
       id="LINE_664_" /><g
       id="LINE_665_" /><g
       id="LINE_666_" /><g
       id="LINE_667_" /><g
       id="LINE_668_" /><g
       id="LINE_669_" /><g
       id="LINE_670_" /><g
       id="LINE_671_" /><g
       id="LINE_672_" /><g
       id="LINE_673_" /><g
       id="LINE_674_" /><g
       id="LINE_675_" /><g
       id="LINE_676_" /><g
       id="LINE_677_" /><g
       id="LINE_678_" /><g
       id="LINE_679_" /><g
       id="LINE_680_" /><g
       id="LINE_681_" /><g
       id="LINE_682_" /><g
       id="LINE_683_" /><g
       id="LINE_684_" /><g
       id="LINE_685_" /><g
       id="LINE_686_" /><g
       id="LINE_687_" /><g
       id="LINE_688_" /><g
       id="LINE_689_" /><g
       id="LINE_690_" /><g
       id="LINE_691_" /><g
       id="LINE_692_" /><g
       id="LINE_693_" /><g
       id="LINE_694_" /><g
       id="LINE_695_" /><g
       id="LINE_696_" /><g
       id="LINE_697_" /><g
       id="LINE_698_" /><g
       id="LINE_699_" /><g
       id="LINE_700_" /><g
       id="LINE_701_" /><g
       id="LINE_702_" /><g
       id="LINE_703_" /><g
       id="LINE_704_" /><g
       id="LINE_705_" /><g
       id="LINE_706_" /><g
       id="LINE_707_" /><g
       id="LINE_708_" /><g
       id="LINE_709_" /><g
       id="LINE_710_" /><g
       id="LINE_711_" /><g
       id="LINE_712_" /><g
       id="LINE_713_" /><g
       id="LINE_714_" /><g
       id="LINE_715_" /><g
       id="LINE_716_" /><g
       id="LINE_717_" /><g
       id="LINE_718_" /><g
       id="LINE_719_" /><g
       id="LINE_720_" /><g
       id="LINE_721_" /><g
       id="LINE_722_" /><g
       id="LINE_723_" /><g
       id="LINE_724_" /><g
       id="LINE_725_" /><g
       id="LINE_726_" /><g
       id="LINE_727_" /><g
       id="LINE_728_" /><g
       id="LINE_729_" /><g
       id="LINE_730_" /><g
       id="LINE_731_" /><g
       id="LINE_732_" /><g
       id="LINE_733_" /><g
       id="LINE_734_" /><g
       id="LINE_735_" /><g
       id="LINE_736_" /><g
       id="LINE_737_" /><g
       id="LINE_738_" /><g
       id="LINE_739_" /><g
       id="LINE_740_" /><g
       id="LINE_741_" /><g
       id="LINE_742_" /><g
       id="LINE_743_" /><g
       id="LINE_744_" /><g
       id="LINE_745_" /><g
       id="LINE_746_" /><g
       id="LINE_747_" /><g
       id="LINE_748_" /><g
       id="LINE_749_" /><g
       id="LINE_750_" /><g
       id="LINE_751_" /><g
       id="LINE_752_" /><g
       id="LINE_753_" /><g
       id="LINE_754_" /><g
       id="LINE_755_" /><g
       id="LINE_756_" /><g
       id="LINE_757_" /><g
       id="LINE_758_" /><g
       id="LINE_759_" /><g
       id="LINE_760_" /><g
       id="LINE_761_" /><g
       id="LINE_762_" /><g
       id="LINE_763_" /><g
       id="LINE_764_" /><g
       id="LINE_765_" /><g
       id="LINE_766_" /><g
       id="LINE_767_" /><g
       id="LINE_768_" /><g
       id="LINE_769_" /><g
       id="LINE_770_" /><g
       id="LINE_771_" /><g
       id="LINE_772_" /><g
       id="LINE_773_" /><g
       id="LINE_774_" /><g
       id="LINE_775_" /><g
       id="LINE_776_" /><g
       id="LINE_777_" /><g
       id="LINE_778_" /><g
       id="LINE_779_" /><g
       id="LINE_780_" /><g
       id="LINE_781_" /><g
       id="LINE_782_" /><g
       id="LINE_783_" /><g
       id="LINE_784_" /><g
       id="LINE_785_" /><g
       id="LINE_786_" /><g
       id="LINE_787_" /><g
       id="LINE_788_" /><g
       id="LINE_789_" /><g
       id="LINE_790_" /><g
       id="LINE_791_" /><g
       id="LINE_792_" /><g
       id="LINE_793_" /><g
       id="LINE_794_" /><g
       id="LINE_795_" /><g
       id="LINE_796_" /><g
       id="LINE_797_" /><g
       id="LINE_798_" /><g
       id="LINE_799_" /><g
       id="LINE_800_" /><g
       id="LINE_801_" /><g
       id="LINE_802_" /><g
       id="LINE_803_" /><g
       id="LINE_804_" /><g
       id="LINE_805_" /><g
       id="LINE_806_" /><g
       id="LINE_807_" /><g
       id="LINE_808_" /><g
       id="LINE_809_" /><g
       id="LINE_810_" /><g
       id="LINE_811_" /><g
       id="LINE_812_" /><g
       id="LINE_813_" /><g
       id="LINE_814_" /><g
       id="LINE_815_" /><g
       id="LINE_816_" /><g
       id="LINE_817_" /><g
       id="LINE_818_" /><g
       id="LINE_819_" /><g
       id="LINE_820_" /><g
       id="LINE_821_" /><g
       id="LINE_822_" /><g
       id="LINE_823_" /><g
       id="LINE_824_" /><g
       id="LINE_825_" /><g
       id="LINE_826_" /><g
       id="LINE_827_" /><g
       id="LINE_828_" /><g
       id="LINE_829_" /><g
       id="LINE_830_" /><g
       id="LINE_831_" /><g
       id="LINE_832_" /><g
       id="LINE_833_" /><g
       id="LINE_834_" /><g
       id="LINE_835_" /><g
       id="LINE_836_" /><g
       id="LINE_837_" /><g
       id="LINE_838_" /><g
       id="LINE_839_" /><g
       id="LINE_840_" /><g
       id="LINE_841_" /><g
       id="LINE_842_" /><g
       id="LINE_843_" /><g
       id="LINE_844_" /><g
       id="LINE_845_" /><g
       id="LINE_846_" /><g
       id="LINE_847_" /><g
       id="LINE_848_" /><g
       id="LINE_849_" /><g
       id="LINE_850_" /><g
       id="LINE_851_" /><g
       id="LINE_852_" /><g
       id="LINE_853_" /><g
       id="LINE_854_" /><g
       id="LINE_855_" /><g
       id="LINE_856_" /><g
       id="LINE_857_" /><g
       id="LINE_858_" /><g
       id="LINE_859_" /><g
       id="LINE_860_" /><g
       id="LINE_861_" /><g
       id="LINE_862_" /><g
       id="LINE_863_" /></g><g
     aria-label="STOP PUB Merci !"
     transform="translate(-190.3115,97.837262)"
     style="font-style:italic;font-variant:normal;font-weight:bold;font-stretch:normal;font-size:40px;line-height:1.25;font-family:Georgia;-inkscape-font-specification:'Georgia, Bold Italic';font-variant-ligatures:normal;font-variant-caps:normal;font-variant-numeric:normal;font-feature-settings:normal;text-align:center;letter-spacing:0px;word-spacing:0px;writing-mode:lr-tb;text-anchor:middle;fill:none;fill-opacity:1;stroke:#000000;stroke-opacity:1"
     id="flowRoot3424"><g
       id="g5489"
       transform="translate(18.897639,-18.897654)"><g
         transform="translate(-168.43976,1.1064915)"
         id="g5439"><g
           id="g5416"
           style="fill:none;stroke:#000000;stroke-width:0.37795275;stroke-miterlimit:4;stroke-dasharray:none;stroke-opacity:1"
           transform="translate(-2.0353359,-8)"><path
             id="path4432"
             d="m 600.95801,125.01264 c -0.5599,1.18489 -1.33464,2.88411 -2.32422,5.09766 -0.98959,2.21354 -2.01823,4.70703 -3.08594,7.48046 h -1.5039 c 0.15625,-3.32031 0.22786,-6.0026 0.21484,-8.04687 v -4.43359 c 0,-0.76823 0.013,-1.3737 0.0391,-1.81641 0.0261,-0.44271 0.0912,-0.89844 0.19531,-1.36719 0.27344,-1.18489 0.85287,-2.07682 1.73829,-2.67578 0.88541,-0.59896 1.83593,-0.89844 2.85156,-0.89844 0.88541,0 1.61458,0.26693 2.1875,0.80078 0.58593,0.53386 0.8789,1.19792 0.8789,1.99219 0,0.41667 -0.0911,0.93099 -0.27343,1.54297 -0.16927,0.59896 -0.47526,1.3737 -0.91797,2.32422 z"
             style="fill:none;stroke:#000000;stroke-width:0.37795275;stroke-miterlimit:4;stroke-dasharray:none;stroke-opacity:1"
             inkscape:connector-curvature="0" /><path
             id="path4430"
             d="m 597.28613,143.56733 c 0,0.98958 -0.3776,1.84244 -1.13281,2.55859 -0.74219,0.70313 -1.61458,1.05469 -2.61719,1.05469 -1.01562,0 -1.90104,-0.35156 -2.65625,-1.05469 -0.74219,-0.71615 -1.11328,-1.56901 -1.11328,-2.55859 0,-0.98959 0.37109,-1.84245 1.11328,-2.5586 0.75521,-0.72917 1.64063,-1.09375 2.65625,-1.09375 1.00261,0 1.875,0.36458 2.61719,1.09375 0.75521,0.71615 1.13281,1.56901 1.13281,2.5586 z"
             style="fill:none;stroke:#000000;stroke-width:0.37795275;stroke-miterlimit:4;stroke-dasharray:none;stroke-opacity:1"
             inkscape:connector-curvature="0" /><path
             id="path4428"
             d="m 576.50488,143.82123 -0.42968,1.75782 c -1.28907,0.50781 -2.31771,0.89192 -3.08594,1.15234 -0.76823,0.27344 -1.66016,0.41016 -2.67578,0.41016 -1.5625,0 -2.77995,-0.37761 -3.65235,-1.13282 -0.85937,-0.76823 -1.28906,-1.73828 -1.28906,-2.91015 0,-0.45573 0.0326,-0.91797 0.0977,-1.38672 0.0651,-0.48177 0.16923,-1.02214 0.3125,-1.6211 l 1.60156,-5.70312 c 0.14323,-0.54687 0.26041,-1.0612 0.35156,-1.54297 0.10417,-0.49479 0.15625,-0.94401 0.15625,-1.34766 0,-0.72917 -0.14974,-1.23698 -0.44922,-1.52343 -0.29948,-0.28646 -0.8724,-0.42969 -1.71875,-0.42969 -0.41667,0 -0.84635,0.0651 -1.28906,0.19531 -0.42969,0.13021 -0.80078,0.25391 -1.11328,0.3711 l 0.42969,-1.75782 c 1.05469,-0.42969 2.0638,-0.79427 3.02734,-1.09375 0.96354,-0.3125 1.875,-0.46875 2.73438,-0.46875 1.54947,0 2.74088,0.37761 3.57421,1.13282 0.84636,0.74219 1.26954,1.71224 1.26954,2.91015 0,0.2474 -0.0326,0.6836 -0.0977,1.3086 -0.0521,0.625 -0.15623,1.19792 -0.3125,1.71875 l -1.60156,5.68359 c -0.13021,0.45573 -0.2474,0.97656 -0.35157,1.5625 -0.10417,0.58594 -0.15625,1.02865 -0.15625,1.32812 0,0.75521 0.16927,1.26954 0.50782,1.54297 0.33854,0.27344 0.92448,0.41016 1.75781,0.41016 0.39063,0 0.83333,-0.0651 1.32812,-0.19531 0.49479,-0.14323 0.85287,-0.26693 1.07422,-0.3711 z"
             style="fill:none;stroke:#000000;stroke-width:0.37795275;stroke-miterlimit:4;stroke-dasharray:none;stroke-opacity:1"
             inkscape:connector-curvature="0" /><path
             id="path4426"
             d="m 576.91504,119.97358 c 0,0.98958 -0.3776,1.83593 -1.13281,2.53906 -0.74219,0.69011 -1.64063,1.03516 -2.69532,1.03516 -1.05469,0 -1.95963,-0.34505 -2.71484,-1.03516 -0.75521,-0.70313 -1.13281,-1.54948 -1.13281,-2.53906 0,-0.98959 0.3776,-1.83594 1.13281,-2.53907 0.75521,-0.70312 1.66015,-1.05468 2.71484,-1.05468 1.05469,0 1.95313,0.35156 2.69532,1.05468 0.75521,0.70313 1.13281,1.54948 1.13281,2.53907 z"
             style="fill:none;stroke:#000000;stroke-width:0.37795275;stroke-miterlimit:4;stroke-dasharray:none;stroke-opacity:1"
             inkscape:connector-curvature="0" /><path
             id="path4424"
             d="m 552.05176,147.25873 c -2.99479,0 -5.33203,-0.7487 -7.01172,-2.24609 -1.66667,-1.49739 -2.5,-3.55469 -2.5,-6.17188 0,-1.57552 0.26693,-3.0664 0.80078,-4.47265 0.53385,-1.41927 1.35417,-2.70834 2.46094,-3.86719 1.02865,-1.09375 2.35026,-1.98567 3.96484,-2.67578 1.61459,-0.69011 3.41797,-1.03516 5.41016,-1.03516 2.30469,0 4.0625,0.42318 5.27344,1.26953 1.22395,0.84636 1.83593,2.01173 1.83593,3.4961 0,0.40365 -0.0651,0.85286 -0.19531,1.34765 -0.13021,0.49479 -0.32552,0.91146 -0.58594,1.25 -0.32552,0.41667 -0.68359,0.73568 -1.07422,0.95704 -0.3776,0.22135 -0.95052,0.33203 -1.71875,0.33203 -1.01562,0 -1.80989,-0.2474 -2.38281,-0.74219 -0.55989,-0.50781 -0.83984,-1.03516 -0.83984,-1.58203 0,-0.65104 0.13672,-1.29557 0.41015,-1.9336 0.27344,-0.63802 0.61849,-1.30859 1.03516,-2.01171 -0.11719,-0.14323 -0.35807,-0.31902 -0.72266,-0.52735 -0.35156,-0.20833 -0.8138,-0.3125 -1.38671,-0.3125 -1.52344,0 -2.78646,0.92448 -3.78907,2.77344 -1.0026,1.83594 -1.5039,4.11459 -1.5039,6.83594 0,2.07031 0.3776,3.63932 1.13281,4.70703 0.76823,1.06771 1.85547,1.60156 3.26172,1.60156 1.43229,0 2.6237,-0.27344 3.57422,-0.82031 0.96354,-0.5599 1.94661,-1.51042 2.94922,-2.85156 l 1.40625,1.1914 c -1.06771,1.65365 -2.48048,2.98177 -4.23829,3.98438 -1.75781,1.0026 -3.61327,1.5039 -5.5664,1.5039 z"
             style="fill:none;stroke:#000000;stroke-width:0.37795275;stroke-miterlimit:4;stroke-dasharray:none;stroke-opacity:1"
             inkscape:connector-curvature="0" /><path
             id="path4422"
             d="m 541.44629,130.85248 c 0,0.58594 -0.0846,1.15235 -0.25391,1.69922 -0.16927,0.54687 -0.42317,1.01562 -0.76172,1.40625 -0.3776,0.44271 -0.77473,0.77474 -1.1914,0.9961 -0.41667,0.20833 -1.0026,0.3125 -1.75781,0.3125 -0.97657,0 -1.7448,-0.24089 -2.30469,-0.72266 -0.5599,-0.48177 -0.83985,-1.02214 -0.83985,-1.62109 0,-0.5599 0.0781,-1.04167 0.23438,-1.44532 0.16927,-0.40365 0.42969,-1.01562 0.78125,-1.83593 -0.87239,0.36458 -1.62109,0.8138 -2.24609,1.34765 -0.625,0.52083 -1.22396,1.11979 -1.79688,1.79688 l -3.08594,13.82812 h -6.46484 l 2.69531,-12.01172 c 0.0781,-0.36458 0.17578,-0.83984 0.29297,-1.42578 0.13021,-0.58593 0.19531,-1.07421 0.19531,-1.46484 0,-0.75521 -0.14974,-1.26953 -0.44922,-1.54297 -0.28645,-0.27344 -0.84635,-0.41016 -1.67968,-0.41016 -0.41667,0 -0.84636,0.0651 -1.28907,0.19532 -0.42969,0.13021 -0.80078,0.2539 -1.11328,0.37109 l 0.42969,-1.75781 c 1.05469,-0.42969 2.0638,-0.79427 3.02734,-1.09375 0.96355,-0.3125 1.87501,-0.46875 2.73438,-0.46875 1.53646,0 2.68229,0.30599 3.4375,0.91797 0.76823,0.59895 1.27604,1.44531 1.52344,2.53906 h 0.13672 c 1.28906,-1.36719 2.38281,-2.31771 3.28125,-2.85156 0.89843,-0.54688 1.86197,-0.82032 2.89062,-0.82032 1.10677,0 1.97917,0.35156 2.61719,1.05469 0.63802,0.69011 0.95703,1.69271 0.95703,3.00781 z"
             style="fill:none;stroke:#000000;stroke-width:0.37795275;stroke-miterlimit:4;stroke-dasharray:none;stroke-opacity:1"
             inkscape:connector-curvature="0" /><path
             id="path4420"
             d="m 508.24316,147.25873 c -1.5625,0 -2.9362,-0.21484 -4.12109,-0.64453 -1.17187,-0.41667 -2.14193,-1.0026 -2.91016,-1.75781 -0.75521,-0.75521 -1.32161,-1.63411 -1.69921,-2.63672 -0.37761,-1.00261 -0.56641,-2.10938 -0.56641,-3.32031 0,-1.53646 0.28646,-3.02735 0.85937,-4.47266 0.57292,-1.44531 1.42579,-2.7474 2.5586,-3.90625 1.06771,-1.10677 2.42187,-2.0052 4.0625,-2.69531 1.64063,-0.69011 3.45052,-1.03516 5.42969,-1.03516 2.33073,0 4.10156,0.37109 5.3125,1.11328 1.22395,0.74219 1.83593,1.85548 1.83593,3.33985 0,1.41927 -0.52734,2.64322 -1.58203,3.67187 -1.05469,1.01563 -2.48698,1.77084 -4.29687,2.26563 -1.43229,0.42969 -2.65625,0.73568 -3.67188,0.91797 -1.0026,0.18229 -2.23307,0.35156 -3.6914,0.50781 0.0261,0.57291 0.10419,1.21744 0.23437,1.93359 0.13021,0.71615 0.32552,1.32813 0.58594,1.83594 0.3125,0.58594 0.75521,1.05469 1.32812,1.40625 0.57292,0.33854 1.30209,0.50781 2.1875,0.50781 1.53646,0 2.83854,-0.29297 3.90625,-0.8789 1.08073,-0.59896 2.10938,-1.54297 3.08594,-2.83203 l 1.42578,1.1914 c -1.17187,1.66667 -2.67578,3.0013 -4.51172,4.00391 -1.82291,0.98958 -3.74349,1.48437 -5.76172,1.48437 z"
             style="fill:none;stroke:#000000;stroke-width:0.37795275;stroke-miterlimit:4;stroke-dasharray:none;stroke-opacity:1"
             inkscape:connector-curvature="0" /><path
             id="path4416"
             d="m 500.11816,118.89936 -0.33203,1.42578 c -0.40365,0.0261 -0.90495,0.0912 -1.5039,0.19531 -0.59896,0.10417 -1.05469,0.20182 -1.36719,0.29297 -0.53385,0.16927 -0.93099,0.4362 -1.19141,0.80078 -0.24739,0.36459 -0.42317,0.76172 -0.52734,1.19141 l -4.35547,19.39453 c -0.0391,0.19531 -0.0781,0.39063 -0.11719,0.58594 -0.0391,0.19531 -0.0586,0.35807 -0.0586,0.48828 0,0.58593 0.24089,1.01562 0.72266,1.28906 0.48177,0.27344 1.42578,0.48177 2.83203,0.625 l -0.33203,1.42578 h -14.98047 l 0.33203,-1.42578 c 0.52083,-0.0651 1.05469,-0.13675 1.60156,-0.21484 0.54687,-0.0781 0.96354,-0.16927 1.25,-0.27344 0.53385,-0.19531 0.94401,-0.45573 1.23047,-0.78125 0.28646,-0.33854 0.48828,-0.77474 0.60547,-1.30859 l 4.6875,-20.80079 h -0.19531 l -15.0586,24.35547 h -2.46094 c -0.0261,-0.50781 -0.11721,-1.32161 -0.27343,-2.4414 -0.15625,-1.13281 -0.29948,-2.19401 -0.42969,-3.1836 l -2.65625,-19.04297 h -0.19531 l -3.90625,16.97266 c -0.15625,0.65104 -0.27995,1.28906 -0.3711,1.91406 -0.0911,0.61198 -0.13672,1.15886 -0.13672,1.64063 0,0.52083 0.0521,0.93099 0.15625,1.23047 0.11719,0.28645 0.27344,0.52734 0.46875,0.72265 0.27344,0.27344 0.78125,0.53386 1.52344,0.78125 0.75521,0.23438 1.3151,0.37761 1.67969,0.42969 l -0.33203,1.42578 H 454.5127 l 0.33203,-1.42578 c 0.33854,-0.0391 0.89192,-0.1237 1.66015,-0.25391 0.76823,-0.14323 1.42579,-0.38411 1.97266,-0.72265 0.58594,-0.36459 1.06771,-0.96355 1.44531,-1.79688 0.39063,-0.84635 0.77474,-2.09635 1.15235,-3.75 l 3.16406,-13.6914 c 0.10417,-0.46875 0.16927,-0.82683 0.19531,-1.07422 0.0391,-0.2474 0.0586,-0.48829 0.0586,-0.72266 0,-0.40365 -0.0586,-0.75521 -0.17578,-1.05469 -0.10417,-0.29947 -0.26693,-0.55989 -0.48828,-0.78125 -0.40365,-0.39062 -0.87891,-0.64452 -1.42578,-0.76171 -0.54687,-0.13021 -1.08073,-0.21485 -1.60156,-0.25391 l 0.33203,-1.42578 h 12.67578 l 2.65625,18.30078 9.08203,-14.86328 c 0.40365,-0.67709 0.76823,-1.3737 1.09375,-2.08985 0.32552,-0.71614 0.51432,-1.16536 0.56641,-1.34765 z"
             style="fill:none;stroke:#000000;stroke-width:0.37795275;stroke-miterlimit:4;stroke-dasharray:none;stroke-opacity:1"
             inkscape:connector-curvature="0" /><path
             id="path4410"
             d="m 627.34473,68.899358 c 3.34635,0 5.80078,0.416667 7.36328,1.25 1.57552,0.820312 2.36328,2.083333 2.36328,3.789062 0,1.132813 -0.25391,2.128906 -0.76172,2.988281 -0.49479,0.859375 -1.15235,1.582032 -1.97266,2.167969 -0.82031,0.598959 -1.77083,1.100261 -2.85156,1.503906 -1.06771,0.403646 -2.17448,0.722657 -3.32031,0.957032 l -0.0781,0.371093 c 0.89844,0.09115 1.8099,0.286459 2.73438,0.585938 0.9375,0.286458 1.73828,0.657552 2.40234,1.113281 0.71615,0.481771 1.28255,1.067708 1.69922,1.757813 0.41667,0.690104 0.625,1.529948 0.625,2.519531 0,2.851563 -1.19792,5.019531 -3.59375,6.503906 -2.38281,1.471354 -5.90495,2.207031 -10.5664,2.207031 h -15.15625 l 0.33203,-1.425781 c 0.32552,-0.01302 0.80729,-0.05859 1.44531,-0.136719 0.65104,-0.09114 1.13281,-0.188801 1.44531,-0.292968 0.50781,-0.169271 0.89193,-0.423178 1.15235,-0.761719 0.27343,-0.338542 0.46223,-0.735677 0.5664,-1.191406 l 4.47266,-19.375 c 0.0651,-0.273438 0.11071,-0.501303 0.13672,-0.683594 0.0261,-0.182292 0.0391,-0.319011 0.0391,-0.410156 0,-0.546875 -0.27995,-0.970053 -0.83984,-1.269532 -0.54688,-0.3125 -1.44532,-0.559896 -2.69532,-0.742187 l 0.33203,-1.425781 z"
             style="fill:none;stroke:#000000;stroke-width:0.37795275;stroke-miterlimit:4;stroke-dasharray:none;stroke-opacity:1"
             inkscape:connector-curvature="0" /><path
             id="path4408"
             d="m 588.69238,97.37592 c -3.38541,0 -5.98307,-0.651042 -7.79297,-1.953125 -1.79687,-1.315104 -2.69531,-3.164062 -2.69531,-5.546875 0,-0.416667 0.026,-0.833333 0.0781,-1.25 0.0521,-0.429687 0.13019,-0.891927 0.23437,-1.386719 l 3.20313,-13.847656 c 0.0651,-0.273437 0.11064,-0.488281 0.13672,-0.644531 0.0261,-0.15625 0.0391,-0.292969 0.0391,-0.410156 0,-0.546875 -0.26042,-0.970053 -0.78125,-1.269532 -0.52083,-0.299479 -1.42578,-0.546874 -2.71485,-0.742187 l 0.33204,-1.425781 h 14.84375 l -0.33204,1.425781 c -0.42969,0.02604 -0.89844,0.08463 -1.40625,0.175781 -0.50781,0.07813 -0.93749,0.169271 -1.28906,0.273438 -0.53385,0.15625 -0.92448,0.416667 -1.17187,0.78125 -0.2474,0.351562 -0.42318,0.755208 -0.52735,1.210937 l -3.16406,13.652344 c -0.13021,0.546875 -0.23437,1.139323 -0.3125,1.777344 -0.0781,0.638021 -0.11719,1.171875 -0.11719,1.601562 0,1.679687 0.48177,2.923177 1.44532,3.730469 0.96354,0.794271 2.36979,1.191406 4.21875,1.191406 2.23958,0 4.17317,-0.742187 5.80078,-2.226562 1.64062,-1.497396 2.74088,-3.476563 3.30078,-5.9375 l 2.1875,-9.492188 c 0.18229,-0.807291 0.3125,-1.497395 0.39062,-2.070312 0.0911,-0.572917 0.13672,-1.054688 0.13672,-1.445313 0,-0.494791 -0.0586,-0.904948 -0.17578,-1.230469 -0.10417,-0.325521 -0.26042,-0.585937 -0.46875,-0.78125 -0.32552,-0.299479 -0.86588,-0.559895 -1.62109,-0.78125 -0.74219,-0.234375 -1.28255,-0.377604 -1.6211,-0.429687 l 0.33203,-1.425781 h 12.01172 l -0.33203,1.425781 c -0.39063,0.03906 -0.95703,0.130206 -1.69922,0.273437 -0.72917,0.130209 -1.38021,0.364584 -1.95312,0.703125 -0.57292,0.325521 -1.0612,0.92448 -1.46485,1.796875 -0.39062,0.859375 -0.78124,2.115886 -1.17187,3.769532 l -2.40234,10.410156 c -0.75521,3.229167 -2.34376,5.722656 -4.76563,7.480469 -2.40885,1.744791 -5.3125,2.617187 -8.71094,2.617187 z"
             style="fill:none;stroke:#000000;stroke-width:0.37795275;stroke-miterlimit:4;stroke-dasharray:none;stroke-opacity:1"
             inkscape:connector-curvature="0" /><path
             id="path4406"
             d="m 575.58691,74.71967 c 0,1.601563 -0.37109,3.040365 -1.11328,4.316406 -0.72917,1.263021 -1.78385,2.324219 -3.16406,3.183594 -1.36719,0.833333 -2.89713,1.451823 -4.58984,1.855469 -1.67969,0.403646 -3.53516,0.605469 -5.56641,0.605469 h -2.8125 l -1.73828,7.519531 c -0.0521,0.221354 -0.0976,0.429687 -0.13672,0.625 -0.0261,0.195313 -0.0391,0.345052 -0.0391,0.449219 0,0.585937 0.24088,1.015625 0.72265,1.289062 0.48177,0.273437 1.42579,0.481771 2.83204,0.625 l -0.33204,1.425781 h -15.05859 l 0.33203,-1.425781 c 0.32552,-0.01302 0.80729,-0.05859 1.44531,-0.136719 0.65105,-0.09114 1.13282,-0.188801 1.44532,-0.292968 0.50781,-0.169271 0.89193,-0.423178 1.15234,-0.761719 0.27344,-0.338542 0.46224,-0.735677 0.56641,-1.191406 l 4.47265,-19.375 c 0.0651,-0.273438 0.11071,-0.501303 0.13672,-0.683594 0.0261,-0.182292 0.0391,-0.319011 0.0391,-0.410156 0,-0.546875 -0.27995,-0.970053 -0.83984,-1.269532 -0.54687,-0.3125 -1.44531,-0.559896 -2.69531,-0.742187 l 0.33203,-1.425781 h 15.01953 c 3.22917,0 5.63151,0.47526 7.20703,1.425781 1.58854,0.950521 2.38281,2.415364 2.38281,4.394531 z"
             style="fill:none;stroke:#000000;stroke-width:0.37795275;stroke-miterlimit:4;stroke-dasharray:none;stroke-opacity:1"
             inkscape:connector-curvature="0" /><path
             id="path4402"
             d="m 537.14941,74.71967 c 0,1.601563 -0.37109,3.040365 -1.11328,4.316406 -0.72917,1.263021 -1.78385,2.324219 -3.16406,3.183594 -1.36719,0.833333 -2.89713,1.451823 -4.58984,1.855469 -1.67969,0.403646 -3.53516,0.605469 -5.56641,0.605469 h -2.8125 l -1.73828,7.519531 c -0.0521,0.221354 -0.0976,0.429687 -0.13672,0.625 -0.0261,0.195313 -0.0391,0.345052 -0.0391,0.449219 0,0.585937 0.24088,1.015625 0.72265,1.289062 0.48177,0.273437 1.42579,0.481771 2.83204,0.625 l -0.33204,1.425781 h -15.05859 l 0.33203,-1.425781 c 0.32552,-0.01302 0.80729,-0.05859 1.44531,-0.136719 0.65105,-0.09114 1.13282,-0.188801 1.44532,-0.292968 0.50781,-0.169271 0.89193,-0.423178 1.15234,-0.761719 0.27344,-0.338542 0.46224,-0.735677 0.56641,-1.191406 l 4.47265,-19.375 c 0.0651,-0.273438 0.11071,-0.501303 0.13672,-0.683594 0.0261,-0.182292 0.0391,-0.319011 0.0391,-0.410156 0,-0.546875 -0.27995,-0.970053 -0.83984,-1.269532 -0.54687,-0.3125 -1.44531,-0.559896 -2.69531,-0.742187 l 0.33203,-1.425781 h 15.01953 c 3.22917,0 5.63151,0.47526 7.20703,1.425781 1.58854,0.950521 2.38281,2.415364 2.38281,4.394531 z"
             style="fill:none;stroke:#000000;stroke-width:0.37795275;stroke-miterlimit:4;stroke-dasharray:none;stroke-opacity:1"
             inkscape:connector-curvature="0" /><path
             id="path4398"
             d="m 506.85645,79.524358 c 0,2.34375 -0.44271,4.609375 -1.32813,6.796875 -0.87239,2.174479 -2.10286,4.06901 -3.69141,5.683593 -1.6276,1.653646 -3.54166,2.96224 -5.74218,3.925782 -2.20052,0.963541 -4.69401,1.445312 -7.48047,1.445312 -3.64583,0 -6.64063,-1.048177 -8.98438,-3.144531 -2.34375,-2.109375 -3.51562,-4.863282 -3.51562,-8.261719 0,-2.473958 0.47526,-4.798177 1.42578,-6.972656 0.95052,-2.1875 2.26562,-4.095052 3.94531,-5.722656 1.64063,-1.601563 3.5612,-2.858073 5.76172,-3.769532 2.21354,-0.911458 4.54427,-1.367187 6.99219,-1.367187 3.67187,0 6.69271,1.028646 9.0625,3.085937 2.36979,2.057292 3.55469,4.824219 3.55469,8.300782 z"
             style="fill:none;stroke:#000000;stroke-width:0.37795275;stroke-miterlimit:4;stroke-dasharray:none;stroke-opacity:1"
             inkscape:connector-curvature="0" /><path
             id="path4394"
             d="m 478.14551,68.899358 -1.83594,7.929687 h -1.50391 c -0.0521,-0.442708 -0.15623,-0.996093 -0.3125,-1.660156 -0.14323,-0.664063 -0.34505,-1.321615 -0.60546,-1.972656 -0.27344,-0.677083 -0.57292,-1.236979 -0.89844,-1.679688 -0.3125,-0.442708 -0.6901,-0.703125 -1.13281,-0.78125 -0.39063,-0.05209 -0.89193,-0.09766 -1.50391,-0.136719 -0.59896,-0.03906 -1.11979,-0.05859 -1.5625,-0.05859 h -0.97656 l -4.98047,21.542968 c -0.0521,0.221355 -0.0976,0.436199 -0.13672,0.644532 -0.0261,0.195312 -0.0391,0.338541 -0.0391,0.429687 0,0.3125 0.0586,0.592448 0.17578,0.839844 0.13021,0.234375 0.36458,0.423177 0.70312,0.566406 0.3125,0.130209 0.76823,0.260417 1.36719,0.390625 0.59896,0.117187 1.09375,0.195312 1.48438,0.234375 l -0.33204,1.425781 h -15.44921 l 0.33203,-1.425781 c 0.36458,-0.02604 0.89843,-0.07812 1.60156,-0.15625 0.70313,-0.07813 1.20443,-0.16927 1.50391,-0.273437 0.52083,-0.208333 0.91146,-0.488281 1.17187,-0.839844 0.26042,-0.351563 0.44271,-0.768229 0.54688,-1.25 l 5.11718,-22.128906 h -0.76172 c -0.49479,0 -0.99609,0.01953 -1.5039,0.05859 -0.49479,0.02604 -1.0612,0.07161 -1.69922,0.136719 -0.46875,0.06511 -0.9961,0.345055 -1.58203,0.839844 -0.57292,0.494791 -1.13282,1.035156 -1.67969,1.621094 -0.65104,0.729167 -1.1914,1.393229 -1.62109,1.992187 -0.41667,0.585937 -0.77474,1.132812 -1.07422,1.640625 h -1.50391 L 451.29,68.899358 Z"
             style="fill:none;stroke:#000000;stroke-width:0.37795275;stroke-miterlimit:4;stroke-dasharray:none;stroke-opacity:1"
             inkscape:connector-curvature="0" /><path
             id="path4392"
             d="m 432.20801,97.356389 c -1.53646,0 -3.08594,-0.188802 -4.64844,-0.566406 -1.54948,-0.377605 -2.91016,-0.891928 -4.08203,-1.542969 l -1.67969,1.367187 h -1.66015 l 2.07031,-10.019531 h 1.67969 c 0.15625,0.976563 0.4427,1.992188 0.85937,3.046875 0.41667,1.041667 0.95703,1.972656 1.62109,2.792969 0.65105,0.846354 1.47787,1.549479 2.48047,2.109375 1.00261,0.559896 2.14844,0.839844 3.4375,0.839844 1.88802,0 3.39844,-0.455729 4.53125,-1.367188 1.13281,-0.924479 1.69922,-2.135417 1.69922,-3.632812 0,-0.963542 -0.32552,-1.809896 -0.97656,-2.539063 -0.63802,-0.729167 -1.67318,-1.354167 -3.10547,-1.875 -0.91146,-0.325521 -1.79688,-0.638021 -2.65625,-0.9375 -0.84635,-0.3125 -1.65364,-0.63151 -2.42187,-0.957031 -1.52344,-0.638021 -2.66927,-1.542969 -3.4375,-2.714844 -0.76823,-1.184896 -1.15235,-2.441406 -1.15235,-3.769531 0,-1.223959 0.27995,-2.395834 0.83985,-3.515625 0.55989,-1.132813 1.36718,-2.141927 2.42187,-3.027344 1.02865,-0.872396 2.29818,-1.569011 3.80859,-2.089844 1.52344,-0.533854 3.19011,-0.800781 5,-0.800781 1.51042,0 3.00782,0.221354 4.49219,0.664063 1.48437,0.429687 2.57812,0.846354 3.28125,1.25 l 1.46485,-1.171875 h 1.69921 l -2.03125,9.453125 h -1.67968 c -0.16927,-1.106771 -0.41667,-2.148438 -0.74219,-3.125 -0.3125,-0.976563 -0.7487,-1.855469 -1.30859,-2.636719 -0.54688,-0.755209 -1.23048,-1.354167 -2.05079,-1.796875 -0.80729,-0.455729 -1.78385,-0.683594 -2.92968,-0.683594 -1.58855,0 -2.91667,0.442708 -3.98438,1.328125 -1.05469,0.885417 -1.58203,1.998698 -1.58203,3.339844 0,0.9375 0.31901,1.757812 0.95703,2.460937 0.63802,0.703125 1.64714,1.315105 3.02735,1.835938 0.80729,0.299479 1.65364,0.611979 2.53906,0.9375 0.88541,0.3125 1.73177,0.638021 2.53906,0.976562 1.51042,0.625 2.70183,1.477865 3.57422,2.558594 0.87239,1.067709 1.30859,2.33724 1.30859,3.808594 0,1.393229 -0.31901,2.701823 -0.95703,3.925781 -0.63802,1.223959 -1.52995,2.278646 -2.67578,3.164063 -1.21094,0.9375 -2.6237,1.660156 -4.23828,2.167968 -1.61459,0.494792 -3.39193,0.742188 -5.33203,0.742188 z"
             style="fill:none;stroke:#000000;stroke-width:0.37795275;stroke-miterlimit:4;stroke-dasharray:none;stroke-opacity:1"
             inkscape:connector-curvature="0" /></g><path
           style="fill:none;stroke:#000000;stroke-width:0.37795275;stroke-miterlimit:4;stroke-dasharray:none;stroke-opacity:1"
           d="m 456.53044,229.25026 -2.80319,1.0368 -2.9149,0.66458 -2.97733,0.27513 -2.98796,-0.11295 -2.9468,-0.5038 -2.8564,-0.88257 -2.7168,-1.24813 -2.53077,-1.59235 -2.30078,-1.90995 -2.03099,-2.19182 -1.72796,-2.44033 -0.81216,-1.81696 -0.31238,-1.96318 0.20472,-1.9778 0.71108,-1.8582 1.16704,-1.61097 1.54452,-1.25209 1.8157,-0.81084 1.96451,-0.31502 1.97782,0.20603 1.8582,0.7111 1.60956,1.16707 1.25341,1.54583 1.25345,1.54311 1.61097,1.16704 1.85819,0.70978 1.97781,0.20601 1.96451,-0.31368 1.81565,-0.8108 1.54447,-1.25341 1.167,-1.61096 0.71112,-1.85686 0.20472,-1.97911 -0.31238,-1.96322 -0.81216,-1.81562 -1.72796,-2.44033 -2.03233,-2.19312 -2.30078,-1.90869 -2.52943,-1.591 -2.7168,-1.24944 -2.8564,-0.88391 -2.94679,-0.50241 -2.98797,-0.11431 -2.97733,0.27648 -2.9149,0.66326 -2.80454,1.03808 -2.64368,1.39423 -2.96135,0.40802 -2.98929,0.016 -2.96671,-0.3748 -2.89227,-0.75764 -2.76867,-1.12847 -2.59722,-1.48201 -2.38186,-1.80502 -2.12535,-2.10409 -1.83292,-2.36194 -1.50993,-2.58123 -1.15904,-2.75407 -0.78953,-2.88295 -0.14091,-1.98447 0.37618,-1.95388 0.87061,-1.78774 1.3039,-1.5033 1.64686,-1.11249 1.87945,-0.65132 1.98444,-0.14088 1.95254,0.37748 1.78907,0.86927 1.50197,1.30394 1.11383,1.64816 0.64998,1.87945 0.64998,1.87945 1.11382,1.64816 1.50332,1.3026 1.78773,0.86928 1.95254,0.37747 1.98447,-0.13954 1.87946,-0.64998 1.64816,-1.11516 1.30256,-1.50197 0.86931,-1.78907 0.37747,-1.95255 -0.14091,-1.98448 -0.78953,-2.88428 -1.15901,-2.75406 -1.50862,-2.58123 -1.83291,-2.36196 -2.12669,-2.10274 -2.38186,-1.80632 -2.59722,-1.48071 -2.76868,-1.12981 -2.89093,-0.75763 -2.9667,-0.37482 -2.99064,0.0173 -2.96139,0.40668 -2.92284,-0.63139 -2.81521,-1.00617 -2.65835,-1.36642 -2.45896,-1.70134 -2.21572,-2.00705 -1.93393,-2.28083 -1.62025,-2.51215 -1.27867,-2.70219 -0.9145,-2.84578 -0.53565,-2.94278 -0.14624,-2.98666 0.24461,-2.97733 0.54496,-1.91401 1.02345,-1.70663 1.42884,-1.38235 1.73857,-0.96629 1.92862,-0.48251 1.98976,0.0306 1.91133,0.54759 1.70535,1.02081 1.38364,1.43018 0.96634,1.73857 0.48379,1.92861 -0.0332,1.98845 -0.0319,1.98844 0.48381,1.92995 0.9663,1.73857 1.38235,1.42755 1.70535,1.02345 1.91397,0.5463 1.98844,0.0319 1.92996,-0.48251 1.73722,-0.96496 1.42888,-1.38368 1.02212,-1.70666 0.54764,-1.91264 0.24324,-2.98002 -0.14753,-2.98534 -0.53433,-2.94143 -0.9158,-2.84709 -1.27733,-2.70223 -1.62025,-2.51345 -1.93526,-2.27951 -2.21443,-2.00705 -2.45894,-1.70267 -2.65967,-1.36503 -2.8152,-1.00752 -2.92152,-0.63003 -2.53072,-1.5937 -2.30082,-1.9087 -2.03229,-2.19312 -1.72791,-2.439056 -1.39432,-2.645039 -1.0394,-2.803236 -0.66194,-2.914861 -0.27778,-2.977331 0.11431,-2.988004 0.50241,-2.946747 0.88391,-2.856417 1.24943,-2.716827 1.16699,-1.609627 1.54449,-1.253409 1.81565,-0.81211 1.96321,-0.312369 1.97911,0.206022 1.85687,0.709804 1.61095,1.166999 1.25207,1.544484 0.81215,1.815649 0.31367,1.964556 -0.20602,1.97911 -0.71111,1.856853 -0.70977,1.858195 -0.20601,1.977781 0.31367,1.963213 0.81081,1.816978 1.25341,1.544484 1.60962,1.166999 1.85814,0.711107 1.97782,0.204693 1.96452,-0.313685 1.81698,-0.810768 1.54318,-1.253409 1.167,-1.609653 1.24943,-2.716801 0.88257,-2.856416 0.50376,-2.948077 0.11297,-2.986662 -0.27644,-2.976002 -0.66329,-2.916203 -1.03805,-2.804565 -1.39432,-2.643709 -1.72924,-2.439057 -2.031,-2.19312 -2.30078,-1.910033 -2.53077,-1.592315 -1.83296,-2.361878 -1.50995,-2.581278 -1.15905,-2.75536 -0.78953,-2.882987 -0.40538,-2.962723 -0.0173,-2.989307 0.37351,-2.966698 0.75762,-2.890936 1.12977,-2.768678 1.48071,-2.598543 1.80636,-2.381876 2.10275,-2.125346 1.64682,-1.113819 1.88083,-0.650011 1.98452,-0.140912 1.95121,0.377485 1.78908,0.869265 1.50191,1.302634 1.11512,1.648193 0.64995,1.880791 0.14092,1.983124 -0.37748,1.953883 -0.87061,1.787709 -1.3026,1.501964 -1.3026,1.503306 -0.87061,1.787736 -0.37614,1.953883 0.13957,1.98444 0.64994,1.878146 1.11387,1.649502 1.50327,1.302562 1.78774,0.869305 1.95388,0.377484 1.98312,-0.140918 1.87947,-0.649939 1.6482,-1.113905 2.10281,-2.125379 1.80639,-2.381862 1.48071,-2.597215 1.12844,-2.768638 0.75893,-2.893607 0.37351,-2.965408 -0.0159,-2.989294 -0.40674,-2.962724 -0.78953,-2.882987 -1.15905,-2.755373 -1.50862,-2.581225 -1.8343,-2.361893 -0.9145,-2.847029 -0.53564,-2.94147 -0.14757,-2.9853196 0.2459,-2.9799764 0.63003,-2.9228486 1.00754,-2.8151989 1.36637,-2.6596859 1.70134,-2.4576385 2.00706,-2.2157159 2.27952,-1.9339315 2.51212,-1.6202869 2.70356,-1.2786368 1.92996,-0.482509 1.98711,0.03189 1.91267,0.546303 1.70665,1.022147 1.38236,1.4288459 0.96629,1.7385699 0.48382,1.9286148 -0.0319,1.9884409 -0.54627,1.9140072 -1.02214,1.70531402 -1.43018,1.38369428 -1.73857,0.9662946 -1.73724,0.9662945 -1.43018,1.3823519 -1.0208,1.705314 -0.5476,1.9140072 -0.0319,1.9871378 0.48382,1.929958 0.96628,1.73853 1.38236,1.428886 1.70665,1.022106 1.91268,0.547646 1.98844,0.03189 1.92861,-0.483806 2.70356,-1.278676 2.51213,-1.618945 2.27952,-1.935274 2.0084,-2.215715 1.7,-2.4589814 1.36637,-2.6583434 1.00754,-2.8151591 0.63133,-2.92284853 0.24324,-2.97867377 -0.14624,-2.9866621 -0.53562,-2.9414703 -0.91445,-2.8470854 0.11431,-2.987965 0.50241,-2.946787 0.88392,-2.856363 1.24809,-2.715498 1.59235,-2.53077 1.90869,-2.300783 2.19312,-2.03229 2.44036,-1.72795 2.64504,-1.395617 2.80323,-1.036754 2.91486,-0.664585 2.97604,-0.276481 1.97911,0.206021 1.8582,0.71112 1.60963,1.167 1.25339,1.544511 0.81213,1.815648 0.31236,1.963173 -0.20467,1.979164 -0.71111,1.858155 -1.16705,1.609654 -1.54448,1.253409 -1.81564,0.810768 -1.96452,0.313684 -1.9645,0.313711 -1.81565,0.810769 -1.54452,1.253408 -1.167,1.609627 -0.71111,1.858196 -0.20468,1.977807 0.31233,1.964516 0.81215,1.8156485 1.25207,1.5445108 1.61097,1.1683419 1.85815,0.7097777 1.97781,0.2046792 2.97737,-0.276481 2.91487,-0.6632434 2.80323,-1.0380964 2.64503,-1.3942745 2.43903,-1.7279498 2.19312,-2.03229 1.90869,-2.30077 1.5937,-2.530783 1.24809,-2.715497 0.8839,-2.857706 0.50241,-2.946787 0.11429,-2.98799 1.12846,-2.76869 1.48072,-2.597214 1.80634,-2.380534 2.10277,-2.126688 2.36189,-1.832914 2.58128,-1.508623 2.75671,-1.159011 2.88294,-0.790858 2.9614,-0.406726 2.99063,-0.01595 2.96541,0.374813 2.89227,0.756299 1.78907,0.870607 1.50197,1.303931 1.11383,1.64683 0.65128,1.879449 0.13958,1.984467 -0.37614,1.95254 -0.87061,1.789078 -1.3026,1.501937 -1.64816,1.11386 -1.87945,0.649978 -1.98314,0.140879 -1.95388,-0.377485 -1.95254,-0.376142 -1.98314,0.140879 -1.88079,0.648649 -1.64816,1.115161 -1.3026,1.501965 -0.86927,1.789078 -0.37748,1.95254 0.14088,1.983137 0.64998,1.880752 1.11253,1.646857 1.50326,1.303904 1.78908,0.869305 2.89227,0.757601 2.9654,0.37484 2.98931,-0.01728 2.96403,-0.406726 2.88297,-0.789515 2.75537,-1.159051 2.57994,-1.509926 2.36324,-1.831625 2.10276,-2.126648 1.80502,-2.381902 1.48071,-2.597175 1.12986,-2.768678 2.0084,-2.214414 2.27953,-1.935274 2.51215,-1.620247 2.70219,-1.277334 2.84709,-0.914457 2.94147,-0.53567 2.98666,-0.147524 2.97997,0.244554 2.92152,0.631356 2.81517,1.00617 2.65968,1.366415 2.45762,1.701328 1.38362,1.428849 0.96633,1.738571 0.4825,1.929954 -0.0306,1.98844 -0.54765,1.912666 -1.02078,1.705356 -1.4302,1.383653 -1.73853,0.966295 -1.92997,0.48251 -1.98714,-0.03189 -1.91397,-0.546305 -1.70531,-1.022146 -1.70536,-1.023446 -1.91264,-0.544976 -1.98978,-0.03322 -1.92863,0.483833 -1.73857,0.966295 -1.42886,1.383652 -1.0221,1.705354 -0.54634,1.912667 -0.0332,1.988441 0.48515,1.928615 0.96499,1.738583 1.38235,1.4301734 2.46028,1.701329 2.65963,1.3664181 2.81387,1.0061682 2.92289,0.6313555 2.97869,0.2432242 2.98658,-0.1461946 2.94145,-0.5356685 2.84709,-0.9144568 2.70219,-1.278675 2.51349,-1.620247 2.27953,-1.9339315 2.00703,-2.215756 2.64509,-1.394276 2.8032,-1.038096 2.9149,-0.663244 2.97867,-0.276481 2.98532,0.114309 2.94675,0.502414 2.85775,0.883912 2.71549,1.248092 2.53073,1.592335 2.30079,1.9087037 2.03233,2.19312 1.72925,2.4403592 0.80944,1.8156486 0.31371,1.9632131 -0.20603,1.97911012 -0.70978,1.85819538 -1.16703,1.6096269 -1.54447,1.2533956 -1.81565,0.8108213 -1.96586,0.3136713 -1.97781,-0.2060217 -1.85819,-0.7097644 -1.60829,-1.1683419 -1.25473,-1.5431816 -1.25341,-1.5458267 -1.60963,-1.16569688 -1.85819,-0.71110686 -1.97781,-0.20602161 -1.96318,0.3137111 -1.81832,0.81078145 -1.54314,1.2533956 -1.167,1.6109561 -0.70981,1.8581953 -0.20603,1.9778208 0.31372,1.9631733 0.81077,1.8169908 1.72791,2.439017 2.03234,2.19312 2.29944,1.908704 2.53077,1.593677 2.7168,1.248092 2.85774,0.883899 2.94674,0.502427 2.98665,0.114302 2.97733,-0.276474 2.9149,-0.664586 2.80454,-1.038057 2.64375,-1.394315 2.9614,-0.40672 2.9893,-0.01594 2.968,0.373497 2.89231,0.757601 2.76738,1.129796 2.59848,1.479382 2.38056,1.80766 2.12534,2.101447 1.83427,2.361911 1.50863,2.581278 1.15903,2.756703 0.79083,2.882946 0.13954,1.984467 -0.3761,1.95254 -0.87065,1.789078 -1.30256,1.501964 -1.64954,1.113833 -1.87807,0.649978 -1.98452,0.140879 -1.95254,-0.377485 -1.78908,-0.869265 -1.50188,-1.303904 -1.11387,-1.646857 -0.64998,-1.880791 -0.64998,-1.879449 -1.11387,-1.646817 -1.50197,-1.303944 -1.78904,-0.869265 -1.95254,-0.377485 -1.98446,0.140879 -1.87812,0.649978 -1.6495,1.11386 -1.30257,1.501937 -0.8693,1.789078 -0.37881,1.95254 0.14091,1.984467 0.79086,2.882987 1.15901,2.756702 1.50863,2.581238 1.83291,2.360609 2.12669,2.10275 2.38186,1.80766 2.59718,1.479368 2.76867,1.129809 2.89102,0.757641 2.9667,0.374801 2.98926,-0.01728 2.96409,-0.406727 2.92149,0.631357 2.81387,1.007512 2.65964,1.365073 2.45893,1.702669 2.21572,2.007062 1.93397,2.27953 1.62163,2.512108 1.27733,2.702232 0.91446,2.847086 0.53566,2.94143 0.1475,2.986662 -0.24449,2.980018 -0.54628,1.911335 -1.02349,1.706642 -1.42889,1.382352 -1.73722,0.966295 -1.92992,0.483845 -1.9885,-0.03323 -1.91265,-0.54496 -1.70664,-1.022146 -1.3824,-1.430176 -0.96629,-1.738583 -0.48246,-1.928615 0.0306,-1.98844 0.0332,-1.988441 -0.48386,-1.929958 -0.96492,-1.738569 -1.38369,-1.428833 -1.70535,-1.022147 -1.91401,-0.546263 -1.9884,-0.03325 -1.92862,0.485154 -1.73991,0.966295 -1.42749,1.382352 -1.0222,1.705314 -0.54756,1.912665 -0.2432,2.980016 0.1462,2.986663 0.53697,2.94143 0.91315,2.845783 1.27864,2.702193 1.62025,2.513451 1.93535,2.279529 2.21434,2.00841 2.45763,1.70133 2.65973,1.36507 2.81645,1.00751 2.9215,0.63136 2.53079,1.59234 2.30074,1.90737 2.03229,2.19446 1.72799,2.44036 1.39423,2.64369 1.03948,2.80324 0.66321,2.9162 0.27648,2.976 -0.11431,2.988 -0.50241,2.94809 -0.88388,2.85507 -1.24942,2.71684 -1.167,1.61096 -1.54318,1.25339 -1.81699,0.81078 -1.96317,0.31371 -1.97915,-0.20602 -1.85691,-0.7098 -1.60961,-1.16834 -1.25341,-1.54449 -0.81207,-1.81565 -0.31371,-1.9645 0.20606,-1.97782 0.70976,-1.85819 0.71108,-1.85686 0.20606,-1.97912 -0.31372,-1.96317 -0.81077,-1.81568 -1.25341,-1.54448 -1.61099,-1.167 -1.8582,-0.71112 -1.97648,-0.20601 -1.96447,0.31367 -1.81698,0.81081 -1.54318,1.25341 -1.167,1.61095 -1.24813,2.7168 -0.88388,2.85508 -0.50241,2.94678 -0.11431,2.98797 0.27648,2.97866 0.6632,2.91357 1.0381,2.8032 1.39432,2.64507 1.72929,2.44036 2.03229,2.19312 2.30073,1.90871 2.53086,1.59235 1.83291,2.36198 1.50863,2.58257 1.15905,2.75537 0.78953,2.88299 0.4067,2.96005 0.0159,2.99064 -0.3748,2.9667 -0.75764,2.89227 -1.12716,2.76868 -1.48206,2.59852 -1.8064,2.38185 -2.10271,2.12401 -1.64685,1.11516 -1.88072,0.64863 -1.98449,0.14092 -1.95117,-0.37618 -1.79046,-0.87061 -1.50199,-1.3039 -1.11381,-1.64686 -0.64999,-1.87945 -0.14092,-1.98442 0.37749,-1.95126 0.87065,-1.79036 1.30256,-1.50198 1.30256,-1.50331 0.87065,-1.78773 0.3761,-1.95388 -0.13954,-1.9831 -0.64998,-1.87945 -1.11379,-1.6482 -1.50196,-1.30256 -1.79046,-0.86931 -1.9525,-0.37748 -1.98313,0.14092 -1.87946,0.64861 -1.64814,1.11385 -2.10275,2.12668 -1.80638,2.38188 -1.48071,2.59854 -1.12844,2.76733 -0.75892,2.89094 -0.37351,2.96804 0.0159,2.98931 0.40675,2.96005 0.78953,2.88432 1.16039,2.75671 1.50861,2.58123 1.83298,2.36059 0.91315,2.84709 0.53699,2.94147 0.14622,2.98533 -0.24455,2.98001 -0.63003,2.92152 -1.00754,2.8165 -1.36503,2.65834 -1.70269,2.45897 -2.00706,2.21706 -2.27951,1.93259 -2.51345,1.62026 -2.70225,1.27872 -1.92863,0.48383 -1.98846,-0.0332 -1.914,-0.54493 -1.70532,-1.02219 -1.38368,-1.43017 -0.96494,-1.73855 -0.48381,-1.92866 0.0332,-1.98975 0.54493,-1.91136 1.02215,-1.70666 1.43018,-1.38235 1.73726,-0.96495 1.73858,-0.96764 1.43017,-1.38368 1.02215,-1.70666 0.54626,-1.91133 0.0319,-1.98978 -0.48384,-1.92862 -0.96628,-1.73723 -1.38235,-1.43151 -1.70666,-1.02082 -1.91133,-0.54496 -1.99111,-0.0346 -1.92729,0.48516 -2.70358,1.27737 -2.51346,1.62028 -2.27686,1.93394 -2.00973,2.21571 -1.70134,2.45898 -1.36504,2.65968 -1.00754,2.81517 -0.63133,2.92154 -0.24458,2.97998 0.14888,2.98666 0.53433,2.94009 0.91441,2.8471 -0.11433,2.98794 -0.50109,2.94683 -0.88524,2.85499 -1.24809,2.71821 -1.59235,2.53073 -1.90999,2.30074 -2.19182,2.0297 -2.44036,1.7292 -2.64371,1.3957 -2.80456,1.03671 -2.91487,0.66329 -2.97738,0.27778 -1.97911,-0.20468 -1.85685,-0.71116 -1.60963,-1.167 -1.2534,-1.54448 -0.81212,-1.8156 -0.31237,-1.96455 0.20468,-1.97779 0.71111,-1.85819 1.16705,-1.611 1.54447,-1.25341 1.81699,-0.81076 1.96318,-0.31372 1.9645,-0.31234 1.81565,-0.81077 1.54452,-1.2534 1.167,-1.611 0.70978,-1.85683 0.20601,-1.97776 -0.31367,-1.96586 -0.80948,-1.81439 -1.25474,-1.54577 -1.61096,-1.16704 -1.85682,-0.70978 -1.97776,-0.20732 -2.97737,0.27777 -2.91493,0.66192 -2.80452,1.03943 -2.64374,1.39427 -2.43903,1.72928 -2.19446,2.03231 -1.90735,2.30081 -1.59364,2.52943 -1.24805,2.71674 -0.8839,2.85646 -0.50245,2.94675 -0.11438,2.98797 -1.12984,2.76868 -1.48071,2.59854 -1.80502,2.38058 -2.10276,2.12534 -2.36324,1.83418 -2.57994,1.50862 -2.75537,1.15905 -2.88297,0.7909 -2.96403,0.40402 -2.98931,0.0173 -2.9654,-0.37351 -2.89227,-0.75894 -1.78908,-0.86926 -1.50326,-1.30128 -1.11253,-1.64946 -0.64998,-1.87946 -0.14088,-1.98451 0.37748,-1.95253 0.86927,-1.78769 1.3026,-1.50334 1.64816,-1.11379 1.88079,-0.64868 1.98314,-0.14222 1.95254,0.37748 1.95388,0.37747 1.98314,-0.14082 1.87945,-0.64999 1.64816,-1.11386 1.3026,-1.50197 0.87061,-1.78907 0.37614,-1.95256 -0.13958,-1.98442 -0.65128,-1.87815 -1.11383,-1.64946 -1.50197,-1.30264 -1.78905,-0.87058 -2.89226,-0.75765 -2.96544,-0.3735 -2.99063,0.0173 -2.9614,0.40408 -2.88294,0.79082 -2.75671,1.15905 -2.58128,1.5086 -2.36186,1.83427 -2.10275,2.12535 -1.80634,2.38056 -1.48074,2.59847 -1.12847,2.7687 -2.00833,2.21445 -2.27953,1.93656 -2.51215,1.61896 -2.70219,1.27733 -2.84709,0.91584 -2.94147,0.53559 -2.98666,0.14628 -2.97868,-0.24331 -2.92282,-0.63262 -2.8152,-1.00621 -2.65967,-1.36503 -2.45898,-1.70141 -1.38231,-1.42889 -0.96634,-1.73853 -0.4838,-1.93 0.0332,-1.9884 0.54632,-1.91272 1.02212,-1.70663 1.42888,-1.38361 1.73853,-0.96637 1.92866,-0.48244 1.98974,0.0332 1.91138,0.54623 1.70664,1.02082 1.70531,1.0235 1.91268,0.54631 1.98979,0.0306 1.92861,-0.48253 1.73857,-0.96491 1.42887,-1.3837 1.02211,-1.70664 0.54632,-1.91272 0.0319,-1.9884 -0.48251,-1.92862 -0.96629,-1.73862 -1.38368,-1.4289 -2.45898,-1.70132 -2.65832,-1.3664 -2.8152,-1.00884 -2.92285,-0.6287 -2.97998,-0.24456 -2.98532,0.14754 -2.94149,0.53433 -2.84577,0.91446 -2.70354,1.27867 -2.51349,1.62025 -2.27818,1.93527 -2.0083,2.21442 z"
           id="path10722"
           inkscape:connector-curvature="0" /><g
           id="g5619"
           style="fill:none;stroke:#000000;stroke-width:0.37795275;stroke-miterlimit:4;stroke-dasharray:none;stroke-opacity:1"
           transform="matrix(1.1079177,0,0,1.1079177,-58.460617,-22.391765)"><path
             sodipodi:nodetypes="ccscccscccscccscc"
             d="m 471.70651,170.0047 c 0.55295,0.60767 0.97525,1.35203 1.26692,2.2331 0.29775,0.88107 0.44662,1.88063 0.44662,2.9987 0,1.11807 -0.15191,2.12067 -0.45573,3.0078 -0.29775,0.88107 -0.71702,1.6163 -1.25781,2.2057 -0.55903,0.61373 -1.22136,1.07553 -1.98698,1.3854 -0.75955,0.30993 -1.62848,0.4649 -2.60677,0.4649 -0.95399,0 -1.82292,-0.158 -2.60677,-0.474 -0.77778,-0.31593 -1.44011,-0.7747 -1.98698,-1.3763 -0.54688,-0.60153 -0.96919,-1.3398 -1.26693,-2.2148 -0.29167,-0.875 -0.4375,-1.87457 -0.4375,-2.9987 0,-1.10593 0.14583,-2.0964 0.4375,-2.9714 0.29167,-0.88107 0.71701,-1.63453 1.27604,-2.2604 0.53472,-0.59547 1.19705,-1.0512 1.98698,-1.3672 0.79601,-0.31593 1.66189,-0.4739 2.59766,-0.4739 0.97222,0 1.84418,0.161 2.61588,0.483 0.77778,0.316 1.43707,0.7687 1.97787,1.3581 z"
             style="font-style:normal;font-variant:normal;font-weight:normal;font-stretch:normal;font-size:medium;line-height:25px;font-family:sans-serif;-inkscape-font-specification:'sans-serif, Normal';font-variant-ligatures:normal;font-variant-caps:normal;font-variant-numeric:normal;font-feature-settings:normal;text-align:center;letter-spacing:0px;word-spacing:0px;writing-mode:lr-tb;text-anchor:middle;fill:none;fill-opacity:1;stroke:#000000;stroke-width:0.37795275;stroke-miterlimit:4;stroke-dasharray:none;stroke-opacity:1"
             id="path5514"
             inkscape:connector-curvature="0" /><path
             d="m 484.5854,182.0177 h -1.71353 v -1.1302 q -0.8659,0.6836 -1.65886,1.0482 -0.79296,0.3646 -1.75,0.3646 -1.60416,0 -2.49739,-0.9753 -0.89324,-0.9843 -0.89324,-2.8802 v -6.6081 h 1.71354 v 5.7969 q 0,0.7748 0.0729,1.3308 0.0729,0.5468 0.3099,0.9388 0.24609,0.401 0.63802,0.5833 0.39192,0.1823 1.13932,0.1823 0.66536,0 1.44922,-0.3464 0.79297,-0.3463 1.47656,-0.8841 v -7.6016 h 1.71354 z"
             style="font-style:normal;font-variant:normal;font-weight:normal;font-stretch:normal;font-size:medium;line-height:25px;font-family:sans-serif;-inkscape-font-specification:'sans-serif, Normal';font-variant-ligatures:normal;font-variant-caps:normal;font-variant-numeric:normal;font-feature-settings:normal;text-align:center;letter-spacing:0px;word-spacing:0px;writing-mode:lr-tb;text-anchor:middle;fill:none;fill-opacity:1;stroke:#000000;stroke-width:0.37795275;stroke-miterlimit:4;stroke-dasharray:none;stroke-opacity:1"
             id="path5516"
             inkscape:connector-curvature="0" /><path
             d="m 489.79895,170.1323 h -1.93229 v -1.7773 h 1.93229 z m -0.10937,11.8854 h -1.71354 v -10.181 h 1.71354 z"
             style="font-style:normal;font-variant:normal;font-weight:normal;font-stretch:normal;font-size:medium;line-height:25px;font-family:sans-serif;-inkscape-font-specification:'sans-serif, Normal';font-variant-ligatures:normal;font-variant-caps:normal;font-variant-numeric:normal;font-feature-settings:normal;text-align:center;letter-spacing:0px;word-spacing:0px;writing-mode:lr-tb;text-anchor:middle;fill:none;fill-opacity:1;stroke:#000000;stroke-width:0.37795275;stroke-miterlimit:4;stroke-dasharray:none;stroke-opacity:1"
             id="path5518"
             inkscape:connector-curvature="0" /><path
             sodipodi:nodetypes="ccccccscsccccscccscccccscccccccccc"
             d="m 507.49947,182.0177 h -1.70443 v -1.0846 c -0.15191,0.10327 -0.3585,0.2491 -0.61979,0.4375 -0.25521,0.18227 -0.50434,0.3281 -0.74739,0.4375 -0.28559,0.13973 -0.61372,0.2552 -0.98438,0.3464 -0.37066,0.0972 -0.80512,0.1458 -1.30338,0.1458 -0.91753,0 -1.69531,-0.30383 -2.33334,-0.9115 -0.63802,-0.6076 -0.95703,-1.38233 -0.95703,-2.3242 0,-0.77167 0.16406,-1.3945 0.49219,-1.8685 0.3342,-0.48 0.80816,-0.85673 1.42188,-1.1302 0.61979,-0.2734 1.36414,-0.45873 2.23307,-0.556 0.86892,-0.0972 1.80164,-0.1701 2.79817,-0.2187 v -0.2643 c 0,-0.38893 -0.0699,-0.711 -0.20963,-0.9662 -0.13368,-0.2552 -0.32812,-0.45573 -0.58333,-0.6016 -0.24306,-0.13973 -0.53473,-0.2339 -0.875,-0.2825 -0.34028,-0.0487 -0.69575,-0.073 -1.06641,-0.073 -0.44965,0 -0.95096,0.0608 -1.50391,0.1823 -0.55295,0.1154 -1.12413,0.28553 -1.71354,0.5104 h -0.0911 v -1.7409 c 0.3342,-0.0911 0.81727,-0.1914 1.44922,-0.3008 0.63194,-0.10933 1.25477,-0.164 1.86848,-0.164 0.71702,0 1.33985,0.0607 1.86849,0.1822 0.53473,0.11547 0.99653,0.316 1.38542,0.6016 0.38281,0.27953 0.67447,0.64107 0.875,1.0846 0.20052,0.4436 0.30078,0.99353 0.30078,1.6498 z m -2.87109,-11.8672 h -1.35807 l -2.48829,-3.4088 h 2.21485 z"
             style="font-style:normal;font-variant:normal;font-weight:normal;font-stretch:normal;font-size:medium;line-height:25px;font-family:sans-serif;-inkscape-font-specification:'sans-serif, Normal';font-variant-ligatures:normal;font-variant-caps:normal;font-variant-numeric:normal;font-feature-settings:normal;text-align:center;letter-spacing:0px;word-spacing:0px;writing-mode:lr-tb;text-anchor:middle;fill:none;fill-opacity:1;stroke:#000000;stroke-width:0.37795275;stroke-miterlimit:4;stroke-dasharray:none;stroke-opacity:1"
             id="path5520"
             inkscape:connector-curvature="0" /><path
             d="m 519.11144,182.0177 h -1.71353 v -14.1823 h 1.71353 z"
             style="font-style:normal;font-variant:normal;font-weight:normal;font-stretch:normal;font-size:medium;line-height:25px;font-family:sans-serif;-inkscape-font-specification:'sans-serif, Normal';font-variant-ligatures:normal;font-variant-caps:normal;font-variant-numeric:normal;font-feature-settings:normal;text-align:center;letter-spacing:0px;word-spacing:0px;writing-mode:lr-tb;text-anchor:middle;fill:none;fill-opacity:1;stroke:#000000;stroke-width:0.37795275;stroke-miterlimit:4;stroke-dasharray:none;stroke-opacity:1"
             id="path5522"
             inkscape:connector-curvature="0" /><path
             d="m 524.27941,167.8354 -0.39193,5.2774 h -1.23958 l -0.39193,-5.2774 z"
             style="font-style:normal;font-variant:normal;font-weight:normal;font-stretch:normal;font-size:medium;line-height:25px;font-family:sans-serif;-inkscape-font-specification:'sans-serif, Normal';font-variant-ligatures:normal;font-variant-caps:normal;font-variant-numeric:normal;font-feature-settings:normal;text-align:center;letter-spacing:0px;word-spacing:0px;writing-mode:lr-tb;text-anchor:middle;fill:none;fill-opacity:1;stroke:#000000;stroke-width:0.37795275;stroke-miterlimit:4;stroke-dasharray:none;stroke-opacity:1"
             id="path5524"
             inkscape:connector-curvature="0" /><path
             d="m 529.31977,170.1323 h -1.93229 v -1.7773 h 1.93229 z m -0.10937,11.8854 h -1.71354 v -10.181 h 1.71354 z"
             style="font-style:normal;font-variant:normal;font-weight:normal;font-stretch:normal;font-size:medium;line-height:25px;font-family:sans-serif;-inkscape-font-specification:'sans-serif, Normal';font-variant-ligatures:normal;font-variant-caps:normal;font-variant-numeric:normal;font-feature-settings:normal;text-align:center;letter-spacing:0px;word-spacing:0px;writing-mode:lr-tb;text-anchor:middle;fill:none;fill-opacity:1;stroke:#000000;stroke-width:0.37795275;stroke-miterlimit:4;stroke-dasharray:none;stroke-opacity:1"
             id="path5526"
             inkscape:connector-curvature="0" /><path
             d="m 541.05936,182.0177 h -1.71354 v -5.7968 q 0,-0.7019 -0.082,-1.3125 -0.082,-0.6198 -0.30078,-0.9662 -0.22787,-0.3828 -0.65625,-0.5651 -0.42839,-0.1914 -1.11198,-0.1914 -0.70183,0 -1.46745,0.3464 -0.76563,0.3463 -1.46745,0.8841 v 7.6015 h -1.71354 v -10.181 h 1.71354 v 1.1303 q 0.80209,-0.6654 1.65886,-1.0391 0.85677,-0.3737 1.75911,-0.3737 1.64974,0 2.51562,0.9935 0.86589,0.9935 0.86589,2.862 z"
             style="font-style:normal;font-variant:normal;font-weight:normal;font-stretch:normal;font-size:medium;line-height:25px;font-family:sans-serif;-inkscape-font-specification:'sans-serif, Normal';font-variant-ligatures:normal;font-variant-caps:normal;font-variant-numeric:normal;font-feature-settings:normal;text-align:center;letter-spacing:0px;word-spacing:0px;writing-mode:lr-tb;text-anchor:middle;fill:none;fill-opacity:1;stroke:#000000;stroke-width:0.37795275;stroke-miterlimit:4;stroke-dasharray:none;stroke-opacity:1"
             id="path5528"
             inkscape:connector-curvature="0" /><path
             d="m 549.8367,169.4943 h -0.0911 q -0.28255,-0.082 -0.73828,-0.1641 -0.45573,-0.091 -0.80209,-0.091 -1.10286,0 -1.60416,0.4922 -0.49219,0.4831 -0.49219,1.7591 v 0.3463 h 3.08984 v 1.4402 h -3.03515 v 8.7408 h -1.71354 v -8.7408 h -1.15756 v -1.4402 h 1.15756 v -0.3372 q 0,-1.8138 0.90234,-2.7799 0.90234,-0.9753 2.60677,-0.9753 0.57422,0 1.02995,0.055 0.46484,0.055 0.84765,0.1276 z"
             style="font-style:normal;font-variant:normal;font-weight:normal;font-stretch:normal;font-size:medium;line-height:25px;font-family:sans-serif;-inkscape-font-specification:'sans-serif, Normal';font-variant-ligatures:normal;font-variant-caps:normal;font-variant-numeric:normal;font-feature-settings:normal;text-align:center;letter-spacing:0px;word-spacing:0px;writing-mode:lr-tb;text-anchor:middle;fill:none;fill-opacity:1;stroke:#000000;stroke-width:0.37795275;stroke-miterlimit:4;stroke-dasharray:none;stroke-opacity:1"
             id="path5530"
             inkscape:connector-curvature="0" /><path
             sodipodi:nodetypes="ssscscscs"
             d="m 559.59843,176.9318 c 0,1.65887 -0.42535,2.96833 -1.27604,3.9284 -0.85069,0.96007 -1.99002,1.4401 -3.41797,1.4401 -1.4401,0 -2.5855,-0.48003 -3.4362,-1.4401 -0.84461,-0.96007 -1.26692,-2.26953 -1.26692,-3.9284 0,-1.65887 0.42231,-2.96833 1.26692,-3.9284 0.8507,-0.96613 1.9961,-1.4492 3.4362,-1.4492 1.42795,0 2.56728,0.48307 3.41797,1.4492 0.85069,0.96007 1.27604,2.26953 1.27604,3.9284 z"
             style="font-style:normal;font-variant:normal;font-weight:normal;font-stretch:normal;font-size:medium;line-height:25px;font-family:sans-serif;-inkscape-font-specification:'sans-serif, Normal';font-variant-ligatures:normal;font-variant-caps:normal;font-variant-numeric:normal;font-feature-settings:normal;text-align:center;letter-spacing:0px;word-spacing:0px;writing-mode:lr-tb;text-anchor:middle;fill:none;fill-opacity:1;stroke:#000000;stroke-width:0.37795275;stroke-miterlimit:4;stroke-dasharray:none;stroke-opacity:1"
             id="path5532"
             inkscape:connector-curvature="0" /><path
             sodipodi:nodetypes="ccccscscccsccccc"
             d="m 577.08019,182.0177 h -1.71353 v -1.0664 c -0.49219,0.4254 -1.00565,0.75657 -1.54038,0.9935 -0.53472,0.237 -1.11501,0.3555 -1.74087,0.3555 -1.21528,0 -2.18143,-0.4679 -2.89845,-1.4037 -0.71093,-0.93573 -1.0664,-2.23303 -1.0664,-3.8919 0,-0.86287 0.12153,-1.63153 0.36458,-2.306 0.24913,-0.67447 0.58334,-1.24867 1.00261,-1.7226 0.4132,-0.4618 0.89324,-0.81423 1.44011,-1.0573 0.55295,-0.24307 1.12412,-0.3646 1.71353,-0.3646 0.53473,0 1.00868,0.0577 1.42187,0.1732 0.41321,0.10933 0.84767,0.2825 1.3034,0.5195 v -4.4115 h 1.71353 z"
             style="font-style:normal;font-variant:normal;font-weight:normal;font-stretch:normal;font-size:medium;line-height:25px;font-family:sans-serif;-inkscape-font-specification:'sans-serif, Normal';font-variant-ligatures:normal;font-variant-caps:normal;font-variant-numeric:normal;font-feature-settings:normal;text-align:center;letter-spacing:0px;word-spacing:0px;writing-mode:lr-tb;text-anchor:middle;fill:none;fill-opacity:1;stroke:#000000;stroke-width:0.37795275;stroke-miterlimit:4;stroke-dasharray:none;stroke-opacity:1"
             id="path5534"
             inkscape:connector-curvature="0" /><path
             sodipodi:nodetypes="cccccscccccscscsccc"
             d="m 588.97472,177.105 h -7.5013 c 0,0.62587 0.0942,1.17273 0.28256,1.6406 0.18837,0.4618 0.44661,0.84157 0.77473,1.1393 0.31597,0.29167 0.68967,0.51043 1.1211,0.6563 0.4375,0.1458 0.91753,0.2187 1.4401,0.2187 0.69271,0 1.38845,-0.1367 2.08724,-0.4101 0.70486,-0.27953 1.20616,-0.55297 1.50391,-0.8203 h 0.0911 v 1.8684 c -0.57725,0.24307 -1.16666,0.44663 -1.76823,0.6107 -0.60156,0.16407 -1.2335,0.2461 -1.89583,0.2461 -1.68923,0 -3.00781,-0.45573 -3.95573,-1.3672 -0.94791,-0.91753 -1.42187,-2.21787 -1.42187,-3.901 0,-1.66493 0.45269,-2.98657 1.35807,-3.9649 0.91146,-0.97827 2.10851,-1.4674 3.59115,-1.4674 1.37326,0 2.43055,0.40103 3.17187,1.2031 0.74739,0.80207 1.12109,1.9414 1.12109,3.418 z"
             style="font-style:normal;font-variant:normal;font-weight:normal;font-stretch:normal;font-size:medium;line-height:25px;font-family:sans-serif;-inkscape-font-specification:'sans-serif, Normal';font-variant-ligatures:normal;font-variant-caps:normal;font-variant-numeric:normal;font-feature-settings:normal;text-align:center;letter-spacing:0px;word-spacing:0px;writing-mode:lr-tb;text-anchor:middle;fill:none;fill-opacity:1;stroke:#000000;stroke-width:0.37795275;stroke-miterlimit:4;stroke-dasharray:none;stroke-opacity:1"
             id="path5536"
             inkscape:connector-curvature="0" /><path
             d="m 598.84582,179.0828 q 0,1.3946 -1.15756,2.2878 -1.14844,0.8932 -3.14453,0.8932 -1.13021,0 -2.07813,-0.2643 -0.9388,-0.2734 -1.57682,-0.5924 v -1.9232 h 0.0911 q 0.8112,0.6107 1.8047,0.9752 0.99348,0.3555 1.90494,0.3555 1.13022,0 1.76824,-0.3646 0.63801,-0.3646 0.63801,-1.1484 0,-0.6016 -0.34636,-0.9115 -0.34635,-0.3099 -1.33072,-0.5286 -0.36459,-0.082 -0.95704,-0.1914 -0.58333,-0.1094 -1.0664,-0.237 -1.33985,-0.3555 -1.90495,-1.0391 -0.55599,-0.6927 -0.55599,-1.6953 0,-0.6289 0.25521,-1.1849 0.26432,-0.556 0.79297,-0.9935 0.51041,-0.4283 1.29427,-0.6744 0.79297,-0.2552 1.76823,-0.2552 0.91146,0 1.84114,0.2278 0.93881,0.2188 1.5586,0.5378 v 1.832 h -0.0911 q -0.65625,-0.4831 -1.59505,-0.8112 -0.9388,-0.3372 -1.84115,-0.3372 -0.9388,0 -1.58593,0.3646 -0.64714,0.3554 -0.64714,1.0664 0,0.6289 0.39193,0.9479 0.38281,0.319 1.23958,0.5195 0.47397,0.1094 1.05729,0.2188 0.59245,0.1093 0.98438,0.2005 1.19401,0.2734 1.84114,0.9388 0.64714,0.6745 0.64714,1.7864 z"
             style="font-style:normal;font-variant:normal;font-weight:normal;font-stretch:normal;font-size:medium;line-height:25px;font-family:sans-serif;-inkscape-font-specification:'sans-serif, Normal';font-variant-ligatures:normal;font-variant-caps:normal;font-variant-numeric:normal;font-feature-settings:normal;text-align:center;letter-spacing:0px;word-spacing:0px;writing-mode:lr-tb;text-anchor:middle;fill:none;fill-opacity:1;stroke:#000000;stroke-width:0.37795275;stroke-miterlimit:4;stroke-dasharray:none;stroke-opacity:1"
             id="path5538"
             inkscape:connector-curvature="0" /><path
             d="m 484.49426,206.3797 q -0.85677,0.4102 -1.63151,0.638 -0.76563,0.2279 -1.63152,0.2279 -1.10286,0 -2.02343,-0.319 -0.92058,-0.3281 -1.57683,-0.9844 -0.66535,-0.6562 -1.02994,-1.6588 -0.36459,-1.0026 -0.36459,-2.3425 0,-2.4974 1.36719,-3.9193 1.3763,-1.4218 3.62761,-1.4218 0.875,0 1.71355,0.2461 0.84765,0.2461 1.54948,0.6015 v 1.905 h -0.0911 q -0.78385,-0.6107 -1.6224,-0.9388 -0.82942,-0.3282 -1.62239,-0.3282 -1.45834,0 -2.30599,0.9844 -0.83854,0.9753 -0.83854,2.8711 0,1.8412 0.82031,2.8346 0.82943,0.9844 2.32422,0.9844 0.51953,0 1.05729,-0.1367 0.53776,-0.1367 0.96615,-0.3555 0.37369,-0.1914 0.70182,-0.401 0.32812,-0.2188 0.51953,-0.3737 h 0.0911 z"
             style="font-style:normal;font-variant:normal;font-weight:normal;font-stretch:normal;font-size:medium;line-height:25px;font-family:sans-serif;-inkscape-font-specification:'sans-serif, Normal';font-variant-ligatures:normal;font-variant-caps:normal;font-variant-numeric:normal;font-feature-settings:normal;text-align:center;letter-spacing:0px;word-spacing:0px;writing-mode:lr-tb;text-anchor:middle;fill:none;fill-opacity:1;stroke:#000000;stroke-width:0.37795275;stroke-miterlimit:4;stroke-dasharray:none;stroke-opacity:1"
             id="path5540"
             inkscape:connector-curvature="0" /><path
             sodipodi:nodetypes="scscscscs"
             d="m 495.37708,201.9318 c 0,1.65887 -0.42535,2.96833 -1.27604,3.9284 -0.8507,0.96007 -1.99002,1.4401 -3.41797,1.4401 -1.44011,0 -2.58551,-0.48003 -3.4362,-1.4401 -0.84462,-0.96007 -1.26693,-2.26953 -1.26693,-3.9284 0,-1.65887 0.42231,-2.96833 1.26693,-3.9284 0.85069,-0.96613 1.99609,-1.4492 3.4362,-1.4492 1.42795,0 2.56727,0.48307 3.41797,1.4492 0.85069,0.96007 1.27604,2.26953 1.27604,3.9284 z"
             style="font-style:normal;font-variant:normal;font-weight:normal;font-stretch:normal;font-size:medium;line-height:25px;font-family:sans-serif;-inkscape-font-specification:'sans-serif, Normal';font-variant-ligatures:normal;font-variant-caps:normal;font-variant-numeric:normal;font-feature-settings:normal;text-align:center;letter-spacing:0px;word-spacing:0px;writing-mode:lr-tb;text-anchor:middle;fill:none;fill-opacity:1;stroke:#000000;stroke-width:0.37795275;stroke-miterlimit:4;stroke-dasharray:none;stroke-opacity:1"
             id="path5542"
             inkscape:connector-curvature="0" /><path
             d="m 499.77031,207.0177 h -1.71354 v -14.1823 h 1.71354 z"
             style="font-style:normal;font-variant:normal;font-weight:normal;font-stretch:normal;font-size:medium;line-height:25px;font-family:sans-serif;-inkscape-font-specification:'sans-serif, Normal';font-variant-ligatures:normal;font-variant-caps:normal;font-variant-numeric:normal;font-feature-settings:normal;text-align:center;letter-spacing:0px;word-spacing:0px;writing-mode:lr-tb;text-anchor:middle;fill:none;fill-opacity:1;stroke:#000000;stroke-width:0.37795275;stroke-miterlimit:4;stroke-dasharray:none;stroke-opacity:1"
             id="path5544"
             inkscape:connector-curvature="0" /><path
             d="m 504.83801,207.0177 h -1.71355 v -14.1823 h 1.71355 z"
             style="font-style:normal;font-variant:normal;font-weight:normal;font-stretch:normal;font-size:medium;line-height:25px;font-family:sans-serif;-inkscape-font-specification:'sans-serif, Normal';font-variant-ligatures:normal;font-variant-caps:normal;font-variant-numeric:normal;font-feature-settings:normal;text-align:center;letter-spacing:0px;word-spacing:0px;writing-mode:lr-tb;text-anchor:middle;fill:none;fill-opacity:1;stroke:#000000;stroke-width:0.37795275;stroke-miterlimit:4;stroke-dasharray:none;stroke-opacity:1"
             id="path5546"
             inkscape:connector-curvature="0" /><path
             sodipodi:nodetypes="cccccscccccscscsccc"
             d="m 516.69608,202.105 h -7.5013 c 0,0.62587 0.0942,1.17273 0.28255,1.6406 0.18837,0.4618 0.44661,0.84157 0.77474,1.1393 0.31597,0.29167 0.68967,0.51043 1.12109,0.6563 0.4375,0.1458 0.91753,0.2187 1.4401,0.2187 0.69271,0 1.38846,-0.1367 2.08724,-0.4101 0.70487,-0.27953 1.20617,-0.55297 1.50391,-0.8203 h 0.0911 v 1.8684 c -0.57726,0.24307 -1.16667,0.44663 -1.76823,0.6107 -0.60157,0.16407 -1.23351,0.2461 -1.89584,0.2461 -1.68923,0 -3.00781,-0.45573 -3.95573,-1.3672 -0.94791,-0.91753 -1.42187,-2.21787 -1.42187,-3.901 0,-1.66493 0.45269,-2.98657 1.35807,-3.9649 0.91146,-0.97827 2.10851,-1.4674 3.59115,-1.4674 1.37326,0 2.43055,0.40103 3.17187,1.2031 0.7474,0.80207 1.1211,1.9414 1.1211,3.418 z"
             style="font-style:normal;font-variant:normal;font-weight:normal;font-stretch:normal;font-size:medium;line-height:25px;font-family:sans-serif;-inkscape-font-specification:'sans-serif, Normal';font-variant-ligatures:normal;font-variant-caps:normal;font-variant-numeric:normal;font-feature-settings:normal;text-align:center;letter-spacing:0px;word-spacing:0px;writing-mode:lr-tb;text-anchor:middle;fill:none;fill-opacity:1;stroke:#000000;stroke-width:0.37795275;stroke-miterlimit:4;stroke-dasharray:none;stroke-opacity:1"
             id="path5548"
             inkscape:connector-curvature="0" /><path
             d="m 526.82238,206.3797 q -0.85677,0.4102 -1.63151,0.638 -0.76562,0.2279 -1.63151,0.2279 -1.10286,0 -2.02344,-0.319 -0.92057,-0.3281 -1.57682,-0.9844 -0.66536,-0.6562 -1.02995,-1.6588 -0.36458,-1.0026 -0.36458,-2.3425 0,-2.4974 1.36719,-3.9193 1.3763,-1.4218 3.6276,-1.4218 0.875,0 1.71354,0.2461 0.84766,0.2461 1.54948,0.6015 v 1.905 h -0.0911 q -0.78385,-0.6107 -1.62239,-0.9388 -0.82943,-0.3282 -1.6224,-0.3282 -1.45833,0 -2.30599,0.9844 -0.83854,0.9753 -0.83854,2.8711 0,1.8412 0.82031,2.8346 0.82943,0.9844 2.32422,0.9844 0.51953,0 1.05729,-0.1367 0.53777,-0.1367 0.96615,-0.3555 0.3737,-0.1914 0.70182,-0.401 0.32813,-0.2188 0.51953,-0.3737 h 0.0911 z"
             style="font-style:normal;font-variant:normal;font-weight:normal;font-stretch:normal;font-size:medium;line-height:25px;font-family:sans-serif;-inkscape-font-specification:'sans-serif, Normal';font-variant-ligatures:normal;font-variant-caps:normal;font-variant-numeric:normal;font-feature-settings:normal;text-align:center;letter-spacing:0px;word-spacing:0px;writing-mode:lr-tb;text-anchor:middle;fill:none;fill-opacity:1;stroke:#000000;stroke-width:0.37795275;stroke-miterlimit:4;stroke-dasharray:none;stroke-opacity:1"
             id="path5550"
             inkscape:connector-curvature="0" /><path
             d="m 534.31457,206.9266 q -0.48307,0.1276 -1.05728,0.2096 -0.56511,0.082 -1.01172,0.082 -1.5586,0 -2.36979,-0.8386 -0.8112,-0.8385 -0.8112,-2.6888 v -5.414 h -1.15755 v -1.4402 h 1.15755 v -2.9257 h 1.71354 v 2.9257 h 3.53646 v 1.4402 h -3.53646 v 4.6393 q 0,0.8021 0.0365,1.2578 0.0365,0.4466 0.25521,0.8385 0.20052,0.3646 0.54687,0.5378 0.35547,0.1641 1.07552,0.1641 0.41927,0 0.875,-0.1185 0.45573,-0.1276 0.65625,-0.2097 h 0.0911 z"
             style="font-style:normal;font-variant:normal;font-weight:normal;font-stretch:normal;font-size:medium;line-height:25px;font-family:sans-serif;-inkscape-font-specification:'sans-serif, Normal';font-variant-ligatures:normal;font-variant-caps:normal;font-variant-numeric:normal;font-feature-settings:normal;text-align:center;letter-spacing:0px;word-spacing:0px;writing-mode:lr-tb;text-anchor:middle;fill:none;fill-opacity:1;stroke:#000000;stroke-width:0.37795275;stroke-miterlimit:4;stroke-dasharray:none;stroke-opacity:1"
             id="path5552"
             inkscape:connector-curvature="0" /><path
             d="m 538.23384,195.1323 h -1.93229 v -1.7773 h 1.93229 z m -0.10938,11.8854 h -1.71353 v -10.181 h 1.71353 z"
             style="font-style:normal;font-variant:normal;font-weight:normal;font-stretch:normal;font-size:medium;line-height:25px;font-family:sans-serif;-inkscape-font-specification:'sans-serif, Normal';font-variant-ligatures:normal;font-variant-caps:normal;font-variant-numeric:normal;font-feature-settings:normal;text-align:center;letter-spacing:0px;word-spacing:0px;writing-mode:lr-tb;text-anchor:middle;fill:none;fill-opacity:1;stroke:#000000;stroke-width:0.37795275;stroke-miterlimit:4;stroke-dasharray:none;stroke-opacity:1"
             id="path5554"
             inkscape:connector-curvature="0" /><path
             d="m 550.26509,196.8367 -4.1198,10.181 h -1.72265 l -4.09245,-10.181 h 1.85938 l 3.15364,8.1029 3.1263,-8.1029 z"
             style="font-style:normal;font-variant:normal;font-weight:normal;font-stretch:normal;font-size:medium;line-height:25px;font-family:sans-serif;-inkscape-font-specification:'sans-serif, Normal';font-variant-ligatures:normal;font-variant-caps:normal;font-variant-numeric:normal;font-feature-settings:normal;text-align:center;letter-spacing:0px;word-spacing:0px;writing-mode:lr-tb;text-anchor:middle;fill:none;fill-opacity:1;stroke:#000000;stroke-width:0.37795275;stroke-miterlimit:4;stroke-dasharray:none;stroke-opacity:1"
             id="path5556"
             inkscape:connector-curvature="0" /><path
             d="m 554.34843,195.1323 h -1.93229 v -1.7773 h 1.93229 z m -0.10938,11.8854 h -1.71354 v -10.181 h 1.71354 z"
             style="font-style:normal;font-variant:normal;font-weight:normal;font-stretch:normal;font-size:medium;line-height:25px;font-family:sans-serif;-inkscape-font-specification:'sans-serif, Normal';font-variant-ligatures:normal;font-variant-caps:normal;font-variant-numeric:normal;font-feature-settings:normal;text-align:center;letter-spacing:0px;word-spacing:0px;writing-mode:lr-tb;text-anchor:middle;fill:none;fill-opacity:1;stroke:#000000;stroke-width:0.37795275;stroke-miterlimit:4;stroke-dasharray:none;stroke-opacity:1"
             id="path5558"
             inkscape:connector-curvature="0" /><path
             d="m 562.86144,206.9266 q -0.48307,0.1276 -1.05728,0.2096 -0.56511,0.082 -1.01172,0.082 -1.55859,0 -2.36979,-0.8386 -0.8112,-0.8385 -0.8112,-2.6888 v -5.414 h -1.15755 v -1.4402 h 1.15755 v -2.9257 h 1.71354 v 2.9257 h 3.53646 v 1.4402 h -3.53646 v 4.6393 q 0,0.8021 0.0365,1.2578 0.0365,0.4466 0.25521,0.8385 0.20052,0.3646 0.54688,0.5378 0.35547,0.1641 1.07552,0.1641 0.41927,0 0.875,-0.1185 0.45573,-0.1276 0.65625,-0.2097 h 0.0911 z"
             style="font-style:normal;font-variant:normal;font-weight:normal;font-stretch:normal;font-size:medium;line-height:25px;font-family:sans-serif;-inkscape-font-specification:'sans-serif, Normal';font-variant-ligatures:normal;font-variant-caps:normal;font-variant-numeric:normal;font-feature-settings:normal;text-align:center;letter-spacing:0px;word-spacing:0px;writing-mode:lr-tb;text-anchor:middle;fill:none;fill-opacity:1;stroke:#000000;stroke-width:0.37795275;stroke-miterlimit:4;stroke-dasharray:none;stroke-opacity:1"
             id="path5560"
             inkscape:connector-curvature="0" /><path
             sodipodi:nodetypes="cccccscccccscscscccccccc"
             d="m 573.4617,202.105 h -7.5013 c 0,0.62587 0.0942,1.17273 0.28255,1.6406 0.18837,0.4618 0.44661,0.84157 0.77474,1.1393 0.31597,0.29167 0.68967,0.51043 1.12109,0.6563 0.4375,0.1458 0.91754,0.2187 1.44011,0.2187 0.69271,0 1.38845,-0.1367 2.08724,-0.4101 0.70486,-0.27953 1.20616,-0.55297 1.5039,-0.8203 h 0.0911 v 1.8684 c -0.57726,0.24307 -1.16667,0.44663 -1.76823,0.6107 -0.60157,0.16407 -1.23351,0.2461 -1.89583,0.2461 -1.68924,0 -3.00782,-0.45573 -3.95573,-1.3672 -0.94792,-0.91753 -1.42188,-2.21787 -1.42188,-3.901 0,-1.66493 0.45269,-2.98657 1.35807,-3.9649 0.91146,-0.97827 2.10851,-1.4674 3.59115,-1.4674 1.37327,0 2.43056,0.40103 3.17187,1.2031 0.7474,0.80207 1.1211,1.9414 1.1211,3.418 z m -1.45833,-10.3633 -2.48829,3.4088 h -1.35807 l 1.63152,-3.4088 z"
             style="font-style:normal;font-variant:normal;font-weight:normal;font-stretch:normal;font-size:medium;line-height:25px;font-family:sans-serif;-inkscape-font-specification:'sans-serif, Normal';font-variant-ligatures:normal;font-variant-caps:normal;font-variant-numeric:normal;font-feature-settings:normal;text-align:center;letter-spacing:0px;word-spacing:0px;writing-mode:lr-tb;text-anchor:middle;fill:none;fill-opacity:1;stroke:#000000;stroke-width:0.37795275;stroke-miterlimit:4;stroke-dasharray:none;stroke-opacity:1"
             id="path5562"
             inkscape:connector-curvature="0" /><path
             d="m 583.3328,204.0828 q 0,1.3946 -1.15755,2.2878 -1.14844,0.8932 -3.14454,0.8932 -1.13019,0 -2.07812,-0.2643 -0.9388,-0.2734 -1.57682,-0.5924 v -1.9232 h 0.0911 q 0.8112,0.6107 1.80469,0.9752 0.99349,0.3555 1.90495,0.3555 1.13022,0 1.76823,-0.3646 0.63802,-0.3646 0.63802,-1.1484 0,-0.6016 -0.34636,-0.9115 -0.34635,-0.3099 -1.33073,-0.5286 -0.36458,-0.082 -0.95703,-0.1914 -0.58333,-0.1094 -1.0664,-0.237 -1.33985,-0.3555 -1.90495,-1.0391 -0.55599,-0.6927 -0.55599,-1.6953 0,-0.6289 0.25521,-1.1849 0.26432,-0.556 0.79297,-0.9935 0.51041,-0.4283 1.29427,-0.6744 0.79297,-0.2552 1.76823,-0.2552 0.91145,0 1.84114,0.2278 0.9388,0.2188 1.5586,0.5378 v 1.832 h -0.0911 q -0.65625,-0.4831 -1.59505,-0.8112 -0.9388,-0.3372 -1.84115,-0.3372 -0.9388,0 -1.58594,0.3646 -0.64713,0.3554 -0.64713,1.0664 0,0.6289 0.39193,0.9479 0.38281,0.319 1.23958,0.5195 0.47397,0.1094 1.05729,0.2188 0.59245,0.1093 0.98438,0.2005 1.19401,0.2734 1.84114,0.9388 0.64714,0.6745 0.64714,1.7864 z"
             style="font-style:normal;font-variant:normal;font-weight:normal;font-stretch:normal;font-size:medium;line-height:25px;font-family:sans-serif;-inkscape-font-specification:'sans-serif, Normal';font-variant-ligatures:normal;font-variant-caps:normal;font-variant-numeric:normal;font-feature-settings:normal;text-align:center;letter-spacing:0px;word-spacing:0px;writing-mode:lr-tb;text-anchor:middle;fill:none;fill-opacity:1;stroke:#000000;stroke-width:0.37795275;stroke-miterlimit:4;stroke-dasharray:none;stroke-opacity:1"
             id="path5564"
             inkscape:connector-curvature="0" /></g></g><rect
         y="-59.851616"
         x="190.50186"
         height="339.77676"
         width="339.77673"
         id="rect5441"
         style="fill:none;stroke:#000000;stroke-width:0.380725;stroke-miterlimit:4;stroke-dasharray:none;stroke-opacity:1" /></g></g><flowRoot
     xml:space="preserve"
     id="flowRoot3434"
     style="font-style:normal;font-weight:normal;font-size:40px;line-height:1.25;font-family:sans-serif;letter-spacing:0px;word-spacing:0px;fill:#000000;fill-opacity:1;stroke:none"
     transform="translate(0,-472.43723)"><flowRegion
       id="flowRegion3436"><rect
         id="rect3438"
         width="213.39093"
         height="67.520714"
         x="343.33646"
         y="62.436024" /></flowRegion><flowPara
       id="flowPara3440" /></flowRoot></svg>