  0
SECTION
  2
HEADER
  9
$ACADVER
  1
AC1015
  9
$ACADMAINTVER
 70
     6
  9
$DWGCODEPAGE
  3
ANSI_1252
  9
$INSBASE
 10
0.0
 20
0.0
 30
0.0
  9
$EXTMIN
 10
0.0
 20
0.0
 30
0.0
  9
$EXTMAX
 10
100.0
 20
100.0
 30
0.0
  9
$LIMMIN
 10
0.0
 20
0.0
  9
$LIMMAX
 10
100.0
 20
100.0
  9
$ORTHOMODE
 70
     0
  9
$REGENMODE
 70
     1
  9
$FILLMODE
 70
     1
  9
$QTEXTMODE
 70
     0
  9
$MIRRTEXT
 70
     1
  9
$LTSCALE
 40
1.0
  9
$ATTMODE
 70
     1
  9
$TEXTSIZE
 40
3.5
  9
$TRACEWID
 40
1.0
  9
$TEXTSTYLE
  7
Standard
  9
$CLAYER
  8
0
  9
$CELTYPE
  6
ByLayer
  9
$CECOLOR
 62
   256
  9
$CELTSCALE
 40
1.0
  9
$DISPSILH
 70
     0
  9
$DIMSCALE
 40
1.0
  9
$DIMASZ
 40
3.556
  9
$DIMEXO
 40
1.0
  9
$DIMDLI
 40
3.75
  9
$DIMRND
 40
0.0
  9
$DIMDLE
 40
0.0
  9
$DIMEXE
 40
1.0
  9
$DIMTP
 40
0.0
  9
$DIMTM
 40
0.0
  9
$DIMTXT
 40
3.5
  9
$DIMCEN
 40
2.5
  9
$DIMTSZ
 40
0.0
  9
$DIMTOL
 70
     0
  9
$DIMLIM
 70
     0
  9
$DIMTIH
 70
     1
  9
$DIMTOH
 70
     1
  9
$DIMSE1
 70
     0
  9
$DIMSE2
 70
     0
  9
$DIMTAD
 70
     1
  9
$DIMZIN
 70
     0
  9
$DIMBLK
  1

  9
$DIMASO
 70
     1
  9
$DIMSHO
 70
     1
  9
$DIMPOST
  1

  9
$DIMAPOST
  1

  9
$DIMALT
 70
     0
  9
$DIMALTD
 70
     3
  9
$DIMALTF
 40
0.0393700787
  9
$DIMLFAC
 40
5.0
  9
$DIMTOFL
 70
     1
  9
$DIMTVP
 40
0.0
  9
$DIMTIX
 70
     0
  9
$DIMSOXD
 70
     0
  9
$DIMSAH
 70
     0
  9
$DIMBLK1
  1

  9
$DIMBLK2
  1

  9
$DIMSTYLE
  2
ISO-25
  9
$DIMCLRD
 70
     0
  9
$DIMCLRE
 70
     0
  9
$DIMCLRT
 70
     0
  9
$DIMTFAC
 40
1.0
  9
$DIMGAP
 40
1.524
  9
$DIMJUST
 70
     0
  9
$DIMSD1
 70
     0
  9
$DIMSD2
 70
     0
  9
$DIMTOLJ
 70
     0
  9
$DIMTZIN
 70
     0
  9
$DIMALTZ
 70
     0
  9
$DIMALTTZ
 70
     0
  9
$DIMUPT
 70
     0
  9
$DIMDEC
 70
     2
  9
$DIMTDEC
 70
     2
  9
$DIMALTU
 70
     2
  9
$DIMALTTD
 70
     3
  9
$DIMTXSTY
  7
Standard
  9
$DIMAUNIT
 70
     0
  9
$DIMADEC
 70
     2
  9
$DIMALTRND
 40
0.0
  9
$DIMAZIN
 70
     0
  9
$DIMDSEP
 70
    44
  9
$DIMATFIT
 70
     3
  9
$DIMFRAC
 70
     0
  9
$DIMLDRBLK
  1

  9
$DIMLUNIT
 70
     2
  9
$DIMLWD
 70
    -2
  9
$DIMLWE
 70
    -2
  9
$DIMTMOVE
 70
     0
  9
$LUNITS
 70
     2
  9
$LUPREC
 70
     2
  9
$SKETCHINC
 40
1.0
  9
$FILLETRAD
 40
10.0
  9
$AUNITS
 70
     0
  9
$AUPREC
 70
     2
  9
$MENU
  1
.
  9
$ELEVATION
 40
0.0
  9
$PELEVATION
 40
0.0
  9
$THICKNESS
 40
0.0
  9
$LIMCHECK
 70
     0
  9
$CHAMFERA
 40
0.0
  9
$CHAMFERB
 40
0.0
  9
$CHAMFERC
 40
0.0
  9
$CHAMFERD
 40
0.0
  9
$SKPOLY
 70
     0
  9
$TDCREATE
 40
2457966.678866875
  9
$TDUCREATE
 40
2457966.595533542
  9
$TDUPDATE
 40
2457966.678867246
  9
$TDUUPDATE
 40
2457966.595533912
  9
$TDINDWG
 40
0.0000000116
  9
$TDUSRTIMER
 40
0.0000000116
  9
$USRTIMER
 70
     1
  9
$ANGBASE
 50
0.0
  9
$ANGDIR
 70
     0
  9
$PDMODE
 70
     0
  9
$PDSIZE
 40
-1.0
  9
$PLINEWID
 40
0.0
  9
$SPLFRAME
 70
     0
  9
$SPLINETYPE
 70
     6
  9
$SPLINESEGS
 70
     8
  9
$HANDSEED
  5
D8
  9
$SURFTAB1
 70
     6
  9
$SURFTAB2
 70
     6
  9
$SURFTYPE
 70
     6
  9
$SURFU
 70
     6
  9
$SURFV
 70
     6
  9
$UCSBASE
  2

  9
$UCSNAME
  2

  9
$UCSORG
 10
0.0
 20
0.0
 30
0.0
  9
$UCSXDIR
 10
1.0
 20
0.0
 30
0.0
  9
$UCSYDIR
 10
0.0
 20
1.0
 30
0.0
  9
$UCSORTHOREF
  2

  9
$UCSORTHOVIEW
 70
     0
  9
$UCSORGTOP
 10
0.0
 20
0.0
 30
0.0
  9
$UCSORGBOTTOM
 10
0.0
 20
0.0
 30
0.0
  9
$UCSORGLEFT
 10
0.0
 20
0.0
 30
0.0
  9
$UCSORGRIGHT
 10
0.0
 20
0.0
 30
0.0
  9
$UCSORGFRONT
 10
0.0
 20
0.0
 30
0.0
  9
$UCSORGBACK
 10
0.0
 20
0.0
 30
0.0
  9
$PUCSBASE
  2

  9
$PUCSNAME
  2

  9
$PUCSORG
 10
0.0
 20
0.0
 30
0.0
  9
$PUCSXDIR
 10
1.0
 20
0.0
 30
0.0
  9
$PUCSYDIR
 10
0.0
 20
1.0
 30
0.0
  9
$PUCSORTHOREF
  2

  9
$PUCSORTHOVIEW
 70
     0
  9
$PUCSORGTOP
 10
0.0
 20
0.0
 30
0.0
  9
$PUCSORGBOTTOM
 10
0.0
 20
0.0
 30
0.0
  9
$PUCSORGLEFT
 10
0.0
 20
0.0
 30
0.0
  9
$PUCSORGRIGHT
 10
0.0
 20
0.0
 30
0.0
  9
$PUCSORGFRONT
 10
0.0
 20
0.0
 30
0.0
  9
$PUCSORGBACK
 10
0.0
 20
0.0
 30
0.0
  9
$USERI1
 70
     0
  9
$USERI2
 70
     0
  9
$USERI3
 70
     0
  9
$USERI4
 70
     0
  9
$USERI5
 70
     0
  9
$USERR1
 40
0.0
  9
$USERR2
 40
0.0
  9
$USERR3
 40
0.0
  9
$USERR4
 40
0.0
  9
$USERR5
 40
0.0
  9
$WORLDVIEW
 70
     1
  9
$SHADEDGE
 70
     3
  9
$SHADEDIF
 70
    70
  9
$TILEMODE
 70
     1
  9
$MAXACTVP
 70
    64
  9
$PINSBASE
 10
0.0
 20
0.0
 30
0.0
  9
$PLIMCHECK
 70
     0
  9
$PEXTMIN
 10
1.0000000000E+20
 20
1.0000000000E+20
 30
1.0000000000E+20
  9
$PEXTMAX
 10
-1.0000000000E+20
 20
-1.0000000000E+20
 30
-1.0000000000E+20
  9
$PLIMMIN
 10
0.0
 20
0.0
  9
$PLIMMAX
 10
420.0
 20
297.0
  9
$UNITMODE
 70
     0
  9
$VISRETAIN
 70
     1
  9
$PLINEGEN
 70
     0
  9
$PSLTSCALE
 70
     1
  9
$TREEDEPTH
 70
  3020
  9
$CMLSTYLE
  2
Standard
  9
$CMLJUST
 70
     0
  9
$CMLSCALE
 40
20.0
  9
$PROXYGRAPHICS
 70
     1
  9
$MEASUREMENT
 70
     1
  9
$CELWEIGHT
370
    -1
  9
$ENDCAPS
280
     0
  9
$JOINSTYLE
280
     0
  9
$LWDISPLAY
290
     1
  9
$INSUNITS
 70
     4
  9
$HYPERLINKBASE
  1

  9
$STYLESHEET
  1

  9
$XEDIT
290
     1
  9
$CEPSNTYPE
380
     0
  9
$PSTYLEMODE
290
     1
  9
$FINGERPRINTGUID
  2
{E702196B-6284-4F6F-ACFF-0C09A9678A63}
  9
$VERSIONGUID
  2
{FAEB1C32-E019-11D5-929B-00C0DF256EC4}
  9
$EXTNAMES
290
     1
  9
$PSVPSCALE
 40
0.0
  9
$OLESTARTUP
290
     0
  0
ENDSEC
  0
SECTION
  2
CLASSES
  0
CLASS
  1
ACDBDICTIONARYWDFLT
  2
AcDbDictionaryWithDefault
  3
ObjectDBX Classes
 90
        0
280
     0
281
     0
  0
CLASS
  1
VISUALSTYLE
  2
AcDbVisualStyle
  3
ObjectDBX Classes
 90
     4095
280
     0
281
     0
  0
CLASS
  1
MATERIAL
  2
AcDbMaterial
  3
ObjectDBX Classes
 90
     1153
280
     0
281
     0
  0
CLASS
  1
SCALE
  2
AcDbScale
  3
ObjectDBX Classes
 90
     1153
280
     0
281
     0
  0
CLASS
  1
TABLESTYLE
  2
AcDbTableStyle
  3
ObjectDBX Classes
 90
     4095
280
     0
281
     0
  0
CLASS
  1
MLEADERSTYLE
  2
AcDbMLeaderStyle
  3
ACDB_MLEADERSTYLE_CLASS
 90
     4095
280
     0
281
     0
  0
CLASS
  1
SUN
  2
AcDbSun
  3
SCENEOE
 90
     1153
280
     0
281
     0
  0
CLASS
  1
ACDBPLACEHOLDER
  2
AcDbPlaceHolder
  3
ObjectDBX Classes
 90
        0
280
     0
281
     0
  0
CLASS
  1
LAYOUT
  2
AcDbLayout
  3
ObjectDBX Classes
 90
        0
280
     0
281
     0
  0
ENDSEC
  0
SECTION
  2
TABLES
  0
TABLE
  2
VPORT
  5
8
330
0
100
AcDbSymbolTable
 70
     1
  0
VPORT
  5
29
330
8
100
AcDbSymbolTableRecord
100
AcDbViewportTableRecord
  2
*Active
 70
     0
 10
0.0
 20
0.0
 11
1.0
 21
1.0
 12
50.0
 22
50.0
 13
0.0
 23
0.0
 14
10.0
 24
10.0
 15
10.0
 25
10.0
 16
0.0
 26
0.0
 36
1.0
 17
0.0
 27
0.0
 37
0.0
 40
100.0
 41
1.0
 42
50.0
 43
0.0
 44
0.0
 50
0.0
 51
0.0
 71
     0
 72
  2000
 73
     1
 74
     3
 75
     0
 76
     0
 77
     0
 78
     0
281
     0
 65
     1
110
0.0
120
0.0
130
0.0
111
1.0
121
0.0
131
0.0
112
0.0
122
1.0
132
0.0
 79
     0
146
0.0
  0
ENDTAB
  0
TABLE
  2
LTYPE
  5
5
330
0
100
AcDbSymbolTable
 70
     6
  0
LTYPE
  5
14
330
5
100
AcDbSymbolTableRecord
100
AcDbLinetypeTableRecord
  2
ByBlock
 70
     0
  3

 72
    65
 73
     0
 40
0.0
  0
LTYPE
  5
15
330
5
100
AcDbSymbolTableRecord
100
AcDbLinetypeTableRecord
  2
ByLayer
 70
     0
  3

 72
    65
 73
     0
 40
0.0
  0
LTYPE
  5
16
330
5
100
AcDbSymbolTableRecord
100
AcDbLinetypeTableRecord
  2
Continuous
 70
     0
  3
Solid line
 72
    65
 73
     0
 40
0.0
  0
LTYPE
  5
6E
330
5
100
AcDbSymbolTableRecord
100
AcDbLinetypeTableRecord
  2
HIDDEN
 70
     0
  3
Hidden __ __ __ __ __ __ __ __ __ __ __ __ __ __
 72
    65
 73
     2
 40
1.905
 49
1.27
 74
     0
 49
-0.635
 74
     0
  0
LTYPE
  5
6F
330
5
100
AcDbSymbolTableRecord
100
AcDbLinetypeTableRecord
  2
PHANTOM
 70
     0
  3
Phantom ______  __  __  ______  __  __  ______
 72
    65
 73
     6
 40
12.7
 49
6.35
 74
     0
 49
-1.27
 74
     0
 49
1.27
 74
     0
 49
-1.27
 74
     0
 49
1.27
 74
     0
 49
-1.27
 74
     0
  0
LTYPE
  5
70
330
5
100
AcDbSymbolTableRecord
100
AcDbLinetypeTableRecord
  2
CENTER
 70
     0
  3
Center ____ _ ____ _ ____ _ ____ _ ____ _ ____
 72
    65
 73
     4
 40
10.16
 49
6.35
 74
     0
 49
-1.27
 74
     0
 49
1.27
 74
     0
 49
-1.27
 74
     0
  0
LTYPE
  5
71
330
5
100
AcDbSymbolTableRecord
100
AcDbLinetypeTableRecord
  2
CENTERX2
 70
     0
  3
Center (2x) ________  __  ________  __  _____
 72
    65
 73
     4
 40
20.32
 49
12.7
 74
     0
 49
-2.54
 74
     0
 49
2.54
 74
     0
 49
-2.54
 74
     0
  0
LTYPE
  5
72
330
5
100
AcDbSymbolTableRecord
100
AcDbLinetypeTableRecord
  2
DOT2
 70
     0
  3
Dot (.5x) ........................................
 72
    65
 73
     2
 40
0.635
 49
0.0
 74
     0
 49
-0.635
 74
     0
  0
ENDTAB
  0
TABLE
  2
LAYER
  5
2
330
0
100
AcDbSymbolTable
 70
     1
  0
LAYER
  5
10
330
2
100
AcDbSymbolTableRecord
100
AcDbLayerTableRecord
  2
0
 70
     0
 62
     7
  6
Continuous
370
    -3
390
F
  0
ENDTAB
  0
TABLE
  2
STYLE
  5
3
330
0
100
AcDbSymbolTable
 70
     1
  0
STYLE
  5
11
330
3
100
AcDbSymbolTableRecord
100
AcDbTextStyleTableRecord
  2
Standard
 70
     0
 40
0.0
 41
1.0
 50
0.0
 71
     0
 42
3.5
  3
txt
  4

  0
ENDTAB
  0
TABLE
  2
VIEW
  5
6
330
0
100
AcDbSymbolTable
 70
     0
  0
ENDTAB
  0
TABLE
  2
UCS
  5
7
330
0
100
AcDbSymbolTable
 70
     0
  0
ENDTAB
  0
TABLE
  2
APPID
  5
9
330
0
100
AcDbSymbolTable
 70
     1
  0
APPID
  5
12
330
9
100
AcDbSymbolTableRecord
100
AcDbRegAppTableRecord
  2
ACAD
 70
     0
  0
ENDTAB
  0
TABLE
  2
DIMSTYLE
  5
A
330
0
100
AcDbSymbolTable
 70
     1
100
AcDbDimStyleTable
  0
DIMSTYLE
105
27
330
A
100
AcDbSymbolTableRecord
100
AcDbDimStyleTableRecord
  2
ISO-25
 70
     0
 41
2.5
 42
0.625
 43
3.75
 44
1.25
 73
     0
 74
     0
 77
     1
 78
     8
140
2.5
141
2.5
143
0.0393700787
147
0.625
171
     3
172
     1
178
     0
271
     2
272
     2
274
     3
278
    44
283
     0
284
     8
340
11
  0
ENDTAB
  0
TABLE
  2
BLOCK_RECORD
  5
1
330
0
100
AcDbSymbolTable
 70
     1
  0
BLOCK_RECORD
  5
1F
330
1
100
AcDbSymbolTableRecord
100
AcDbBlockTableRecord
  2
*Model_Space
340
22
  0
BLOCK_RECORD
  5
1B
330
1
100
AcDbSymbolTableRecord
100
AcDbBlockTableRecord
  2
*Paper_Space
340
1E
  0
BLOCK_RECORD
  5
23
330
1
100
AcDbSymbolTableRecord
100
AcDbBlockTableRecord
  2
*Paper_Space0
340
26
  0
ENDTAB
  0
ENDSEC
  0
SECTION
  2
BLOCKS
  0
BLOCK
  5
20
330
1F
100
AcDbEntity
  8
0
100
AcDbBlockBegin
  2
*Model_Space
 70
     0
 10
0.0
 20
0.0
 30
0.0
  3
*Model_Space
  1

  0
ENDBLK
  5
21
330
1F
100
AcDbEntity
  8
0
100
AcDbBlockEnd
  0
BLOCK
  5
1C
330
1B
100
AcDbEntity
 67
     1
  8
0
100
AcDbBlockBegin
  2
*Paper_Space
 70
     0
 10
0.0
 20
0.0
 30
0.0
  3
*Paper_Space
  1

  0
ENDBLK
  5
1D
330
1B
100
AcDbEntity
 67
     1
  8
0
100
AcDbBlockEnd
  0
BLOCK
  5
24
330
23
100
AcDbEntity
  8
0
100
AcDbBlockBegin
  2
*Paper_Space0
 70
     0
 10
0.0
 20
0.0
 30
0.0
  3
*Paper_Space0
  1

  0
ENDBLK
  5
25
330
23
100
AcDbEntity
  8
0
100
AcDbBlockEnd
  0
ENDSEC
  0
SECTION
  2
ENTITIES
  0
ARC
  5
73
330
1F
100
AcDbEntity
  8
0
  6
Continuous
 62
     7
370
    15
100
AcDbCircle
 10
47.6727566981
 20
50.6374832522
 30
0.0
 40
2.691693442712781
100
AcDbArc
 50
335.0692465375
 51
0.0
  0
ARC
  5
74
330
1F
100
AcDbEntity
  8
0
  6
Continuous
 62
     7
370
    15
100
AcDbCircle
 10
47.6727566981
 20
50.6374832522
 30
0.0
 40
2.691693442712781
100
AcDbArc
 50
0.0
 51
204.9307534625
  0
LINE
  5
75
330
1F
100
AcDbEntity
  8
0
  6
Continuous
 62
     7
370
    15
100
AcDbLine
 10
51.3367111777
 20
50.3298487639
 30
0.0
 11
50.2693888374
 21
51.3465073158
 31
0.0
  0
LINE
  5
76
330
1F
100
AcDbEntity
  8
0
  6
Continuous
 62
     7
370
    15
100
AcDbLine
 10
45.0761245588
 20
51.3465073158
 30
0.0
 11
44.0119338691
 21
50.3328317609
 31
0.0
  0
SPLINE
  5
77
330
1F
100
AcDbEntity
  8
0
  6
Continuous
 62
     7
370
    15
100
AcDbSpline
210
0.0
220
0.0
230
1.0
 70
     8
 71
     3
 72
    11
 73
     7
 74
     0
 42
0.000000001
 43
0.00000001
 40
0.0
 40
0.0
 40
0.0
 40
0.0
 40
0.2220877818190745
 40
0.6134777368774845
 40
0.990640185563567
 40
1.0
 40
1.0
 40
1.0
 40
1.0
 10
52.65879446480955
 20
47.18039495577626
 30
0.0
 10
52.66456638705395
 20
47.28229529003771
 30
0.0
 10
52.68051028890629
 20
47.56377672020796
 30
0.0
 10
52.60485673505905
 20
48.02788477083911
 30
0.0
 10
52.52017095117534
 20
48.39102023211876
 30
0.0
 10
52.44580863938665
 20
48.56598113215389
 30
0.0
 10
52.44400792179336
 20
48.57021789084594
 30
0.0
  0
SPLINE
  5
78
330
1F
100
AcDbEntity
  8
0
  6
Continuous
 62
     7
370
    15
100
AcDbSpline
210
0.0
220
0.0
230
1.0
 70
     8
 71
     3
 72
    32
 73
    28
 74
     0
 42
0.000000001
 43
0.00000001
 40
0.0
 40
0.0
 40
0.0
 40
0.0
 40
0.0434044347631681
 40
0.0768928307855882
 40
0.0919164890519297
 40
0.1140899699496922
 40
0.1344528399922736
 40
0.1588561326257678
 40
0.1807580685040606
 40
0.2326143149120887
 40
0.2647134762047085
 40
0.3009212992157036
 40
0.3404362856702211
 40
0.3778601528381403
 40
0.4431258926655106
 40
0.4964342892347775
 40
0.5498701886964505
 40
0.6088018060469664
 40
0.6714425317967017
 40
0.7363187529795806
 40
0.8017292649788699
 40
0.8621131642450979
 40
0.890309075372731
 40
0.9044560015673803
 40
0.9205329216322395
 40
0.9619165389332607
 40
1.0
 40
1.0
 40
1.0
 40
1.0
 10
42.67275669810618
 20
47.51027354030521
 30
0.0
 10
42.67254821276037
 20
47.42385064710823
 30
0.0
 10
42.67217887196595
 20
47.27074875927449
 30
0.0
 10
42.67795588081458
 20
46.99128109767233
 30
0.0
 10
42.71289749343912
 20
46.65834304370054
 30
0.0
 10
42.76926721164173
 20
46.34610856176223
 30
0.0
 10
42.86332352952329
 20
45.99446042749804
 30
0.0
 10
42.99025014511221
 20
45.64001592013651
 30
0.0
 10
43.22356102594075
 20
45.12916524750042
 30
0.0
 10
43.54322506857246
 20
44.61388620039926
 30
0.0
 10
43.97938450905886
 20
44.08404330559738
 30
0.0
 10
44.41906461658525
 20
43.6526572766094
 30
0.0
 10
44.93043634899297
 20
43.2568089483425
 30
0.0
 10
45.62825975453055
 20
42.8406476311462
 30
0.0
 10
46.46544193505754
 20
42.51635780148543
 30
0.0
 10
47.44075315453607
 20
42.36291323487225
 30
0.0
 10
48.3911370817869
 20
42.41266190338249
 30
0.0
 10
49.36177389135421
 20
42.67500595812761
 30
0.0
 10
50.31544312449854
 20
43.16234437101102
 30
0.0
 10
51.17983478592436
 20
43.85302646904428
 30
0.0
 10
51.88226840858732
 20
44.69439648556889
 30
0.0
 10
52.2996781170484
 20
45.47014520719398
 30
0.0
 10
52.49270459866063
 20
46.02803361228153
 30
0.0
 10
52.5721546245431
 20
46.3382317119712
 30
0.0
 10
52.63235593085365
 20
46.64930723636865
 30
0.0
 10
52.66416825260012
 20
46.95702363517103
 30
0.0
 10
52.66703376652847
 20
47.21634126271235
 30
0.0
 10
52.66840702310677
 20
47.34061552792048
 30
0.0
  0
LINE
  5
79
330
1F
100
AcDbEntity
  8
0
  6
Continuous
 62
     7
370
    15
100
AcDbLine
 10
19.1727566981
 20
36.399777385
 30
0.0
 11
16.5505217768
 21
35.899777385
 31
0.0
  0
LINE
  5
7A
330
1F
100
AcDbEntity
  8
0
  6
Continuous
 62
     7
370
    15
100
AcDbLine
 10
16.5505217768
 20
20.899777385
 30
0.0
 11
19.1727566981
 21
21.399777385
 31
0.0
  0
LINE
  5
7B
330
1F
100
AcDbEntity
  8
0
  6
Continuous
 62
     7
370
    15
100
AcDbLine
 10
76.1727566981
 20
21.399777385
 30
0.0
 11
78.7949916194
 21
20.899777385
 31
0.0
  0
LINE
  5
7C
330
1F
100
AcDbEntity
  8
0
  6
Continuous
 62
     7
370
    15
100
AcDbLine
 10
78.7949916194
 20
35.899777385
 30
0.0
 11
76.1727566981
 21
36.399777385
 31
0.0
  0
SPLINE
  5
7D
330
1F
100
AcDbEntity
  8
0
  6
Continuous
 62
     7
370
    15
100
AcDbSpline
210
0.0
220
0.0
230
1.0
 70
     8
 71
     3
 72
    10
 73
     6
 74
     0
 42
0.000000001
 43
0.00000001
 40
0.0
 40
0.0
 40
0.0
 40
0.0
 40
0.3333890132216439
 40
0.66665075095426
 40
1.0
 40
1.0
 40
1.0
 40
1.0
 10
16.55052177680905
 20
35.89977738499368
 30
0.0
 10
15.7043120395763
 20
35.76401272850196
 30
0.0
 10
14.01221561642281
 20
35.49253524539999
 30
0.0
 10
11.54887020013799
 20
34.7224330644819
 30
0.0
 10
10.00320037311399
 20
33.9825841966306
 30
0.0
 10
9.230264003431229
 20
33.61261119978953
 30
0.0
  0
SPLINE
  5
7E
330
1F
100
AcDbEntity
  8
0
  6
Continuous
 62
     7
370
    15
100
AcDbSpline
210
0.0
220
0.0
230
1.0
 70
     8
 71
     3
 72
     9
 73
     5
 74
     0
 42
0.000000001
 43
0.00000001
 40
0.0
 40
0.0
 40
0.0
 40
0.0
 40
0.1576575990540134
 40
1.0
 40
1.0
 40
1.0
 40
1.0
 10
15.29416325458899
 20
20.18766151136395
 30
0.0
 10
15.35333490971283
 20
20.23560943266745
 30
0.0
 10
15.72865240458071
 20
20.53973636084093
 30
0.0
 10
16.17475263644116
 20
20.735162044996
 30
0.0
 10
16.55052177680905
 20
20.89977738499369
 30
0.0
  0
SPLINE
  5
7F
330
1F
100
AcDbEntity
  8
0
  6
Continuous
 62
     7
370
    15
100
AcDbSpline
210
0.0
220
0.0
230
1.0
 70
     8
 71
     3
 72
     9
 73
     5
 74
     0
 42
0.000000001
 43
0.00000001
 40
0.0
 40
0.0
 40
0.0
 40
0.0
 40
0.8415518486396955
 40
1.0
 40
1.0
 40
1.0
 40
1.0
 10
78.79499161940333
 20
20.8997773849937
 30
0.0
 10
79.17068396526079
 20
20.73516592731639
 30
0.0
 10
79.61711200943267
 20
20.53956127390925
 30
0.0
 10
79.99271677470799
 20
20.23518622359649
 30
0.0
 10
80.05223065540797
 20
20.18695855955423
 30
0.0
  0
SPLINE
  5
80
330
1F
100
AcDbEntity
  8
0
  6
Continuous
 62
     7
370
    15
100
AcDbSpline
210
0.0
220
0.0
230
1.0
 70
     8
 71
     3
 72
    10
 73
     6
 74
     0
 42
0.000000001
 43
0.00000001
 40
0.0
 40
0.0
 40
0.0
 40
0.0
 40
0.3333491870070459
 40
0.6666109473656243
 40
0.9999999999999999
 40
0.9999999999999999
 40
0.9999999999999999
 40
0.9999999999999999
 10
86.11414771905393
 20
33.61318827601377
 30
0.0
 10
85.34131686611148
 20
33.98306108987178
 30
0.0
 10
83.79585784862044
 20
34.72270971198006
 30
0.0
 10
81.33289087423088
 20
35.492615731751
 30
0.0
 10
79.64106571837706
 20
35.76403955842368
 30
0.0
 10
78.79499161940333
 20
35.89977738499369
 30
0.0
  0
SPLINE
  5
81
330
1F
100
AcDbEntity
  8
0
  6
Continuous
 62
     7
370
    15
100
AcDbSpline
210
0.0
220
0.0
230
1.0
 70
     8
 71
     3
 72
    11
 73
     7
 74
     0
 42
0.000000001
 43
0.00000001
 40
0.0
 40
0.0
 40
0.0
 40
0.0
 40
0.2345360689070332
 40
0.4757658057008161
 40
0.731358515591508
 40
0.9999999999999999
 40
0.9999999999999999
 40
0.9999999999999999
 40
0.9999999999999999
 10
19.17275669810621
 20
21.3997773849937
 30
0.0
 10
19.63778265978669
 20
21.46294862556894
 30
0.0
 10
20.58110644090801
 20
21.59109401620953
 30
0.0
 10
22.00557193107
 20
21.93202529446669
 30
0.0
 10
23.47171398654247
 20
22.37384052599157
 30
0.0
 10
24.46089737631001
 20
22.72157989161398
 30
0.0
 10
24.96780001079885
 20
22.89977738499374
 30
0.0
  0
SPLINE
  5
82
330
1F
100
AcDbEntity
  8
0
  6
Continuous
 62
     7
370
    15
100
AcDbSpline
210
0.0
220
0.0
230
1.0
 70
     8
 71
     3
 72
    11
 73
     7
 74
     0
 42
0.000000001
 43
0.00000001
 40
0.0
 40
0.0
 40
0.0
 40
0.0
 40
0.2686414844090499
 40
0.5242341943000999
 40
0.7654639310928348
 40
0.9999999999999999
 40
0.9999999999999999
 40
0.9999999999999999
 40
0.9999999999999999
 10
70.37771338541245
 20
22.89977738499371
 30
0.0
 10
70.88461601990251
 20
22.72157989161379
 30
0.0
 10
71.87379940967216
 20
22.37384052599117
 30
0.0
 10
73.33994146514434
 20
21.93202529446534
 30
0.0
 10
74.76440695530536
 20
21.59109401620741
 30
0.0
 10
75.70773073642526
 20
21.46294862556835
 30
0.0
 10
76.1727566981062
 20
21.3997773849937
 30
0.0
  0
ARC
  5
83
330
1F
100
AcDbEntity
  8
0
  6
Continuous
 62
     7
370
    15
100
AcDbCircle
 10
9.735288931
 20
32.7481980856
 30
0.0
 40
0.9999992287891241
100
AcDbArc
 50
117.5085543466
 51
202.9797991428
  0
ARC
  5
84
330
1F
100
AcDbEntity
  8
0
  6
Continuous
 62
     7
370
    15
100
AcDbCircle
 10
14.7089564071
 20
21.018973335
 30
0.0
 40
0.9999999650402781
100
AcDbArc
 50
202.9788201951
 51
305.0716545722
  0
ARC
  5
85
330
1F
100
AcDbEntity
  8
0
  6
Continuous
 62
     7
370
    15
100
AcDbCircle
 10
80.6365565946
 20
21.0189724942
 30
0.0
 40
1.000000000000006
100
AcDbArc
 50
234.9826211252
 51
337.0245353222
  0
ARC
  5
86
330
1F
100
AcDbEntity
  8
0
  6
Continuous
 62
     7
370
    15
100
AcDbCircle
 10
85.6102271128
 20
32.7482063048
 30
0.0
 40
1.000000000000006
100
AcDbArc
 50
337.02088089
 51
62.4736049181
  0
ARC
  5
87
330
1F
100
AcDbEntity
  8
0
  6
Continuous
 62
     7
370
    15
100
AcDbCircle
 10
85.6102263849
 20
32.7482040439
 30
0.0
 40
0.9999997874533026
100
AcDbArc
 50
337.02084329
 51
62.4482129031
  0
SPLINE
  5
88
330
1F
100
AcDbEntity
  8
0
  6
Continuous
 62
     7
370
    15
100
AcDbSpline
210
0.0
220
0.0
230
1.0
 70
     8
 71
     3
 72
    18
 73
    14
 74
     0
 42
0.000000001
 43
0.00000001
 40
0.0
 40
0.0
 40
0.0
 40
0.0
 40
0.1390228884045202
 40
0.2106806623099162
 40
0.2894620834861661
 40
0.3934220748687616
 40
0.4766405232438471
 40
0.5442020160551481
 40
0.610712770345604
 40
0.7282882837971387
 40
0.7880744400396708
 40
0.8677532673650594
 40
1.0
 40
1.0
 40
1.0
 40
1.0
 10
27.83441779134965
 20
29.86586141311911
 30
0.0
 10
27.39369394904522
 20
30.93458926306873
 30
0.0
 10
26.55701963877086
 20
32.97409003857279
 30
0.0
 10
29.0710236280491
 20
35.26267222494072
 30
0.0
 10
30.76220055772126
 20
33.12677305411322
 30
0.0
 10
33.07271340014396
 20
31.87493187398247
 30
0.0
 10
35.09317390195337
 20
33.37983428731403
 30
0.0
 10
36.46198483145199
 20
34.62153541840865
 30
0.0
 10
38.20169015525737
 20
36.22498622694009
 30
0.0
 10
40.68783126061967
 20
35.52045543876923
 30
0.0
 10
42.42443183702761
 20
34.15126143633888
 30
0.0
 10
45.06553003955698
 20
33.55778512619193
 30
0.0
 10
46.43156308244486
 20
35.43426137292643
 30
0.0
 10
47.67275669810618
 20
35.40667806068252
 30
0.0
  0
SPLINE
  5
89
330
1F
100
AcDbEntity
  8
0
  6
Continuous
 62
     7
370
    15
100
AcDbSpline
210
0.0
220
0.0
230
1.0
 70
     8
 71
     3
 72
    18
 73
    14
 74
     0
 42
0.000000001
 43
0.00000001
 40
0.0
 40
0.0
 40
0.0
 40
0.0
 40
0.1390228884045202
 40
0.2106806623099162
 40
0.2894620834861661
 40
0.3934220748687615
 40
0.476640523243847
 40
0.544202016055148
 40
0.610712770345604
 40
0.7282882837971387
 40
0.7880744400396708
 40
0.8677532673650594
 40
1.0
 40
1.0
 40
1.0
 40
1.0
 10
67.51109560486272
 20
29.86586141311911
 30
0.0
 10
67.95181944716717
 20
30.93458926306873
 30
0.0
 10
68.78849375744151
 20
32.97409003857279
 30
0.0
 10
66.27448976816328
 20
35.26267222494072
 30
0.0
 10
64.58331283849111
 20
33.12677305411322
 30
0.0
 10
62.27279999606841
 20
31.87493187398247
 30
0.0
 10
60.25233949425901
 20
33.37983428731403
 30
0.0
 10
58.8835285647604
 20
34.62153541840866
 30
0.0
 10
57.14382324095499
 20
36.2249862269401
 30
0.0
 10
54.65768213559272
 20
35.52045543876924
 30
0.0
 10
52.92108155918476
 20
34.15126143633889
 30
0.0
 10
50.27998335665541
 20
33.55778512619192
 30
0.0
 10
48.9139503137675
 20
35.43426137292643
 30
0.0
 10
47.67275669810618
 20
35.40667806068252
 30
0.0
  0
SPLINE
  5
8A
330
1F
100
AcDbEntity
  8
0
  6
Continuous
 62
     7
370
    15
100
AcDbSpline
210
0.0
220
0.0
230
1.0
 70
     8
 71
     3
 72
     8
 73
     4
 74
     0
 42
0.000000001
 43
0.00000001
 40
0.4768659517449588
 40
0.4768659517449588
 40
0.4768659517449588
 40
0.4768659517449588
 40
0.5413531062163814
 40
0.5413531062163814
 40
0.5413531062163814
 40
0.5413531062163814
 10
46.75013985897336
 20
32.52888466924031
 30
0.0
 10
47.61976463445831
 20
32.53654555535134
 30
0.0
 10
48.4896426440154
 20
32.53590409679026
 30
0.0
 10
49.36001346251801
 20
32.52261479511329
 30
0.0
  0
ARC
  5
8B
330
1F
100
AcDbEntity
  8
0
  6
Continuous
 62
     7
370
    15
100
AcDbCircle
 10
47.5666776272
 20
50.6653954386
 30
0.0
 40
2.60820487144851
100
AcDbArc
 50
206.4692354607
 51
272.3309364988
  0
ARC
  5
8C
330
1F
100
AcDbEntity
  8
0
  6
Continuous
 62
     7
370
    15
100
AcDbCircle
 10
47.7496227498
 20
50.7147921256
 30
0.0
 40
2.656555751354901
100
AcDbArc
 50
268.3419451668
 51
332.8578828738
  0
ARC
  5
8D
330
1F
100
AcDbEntity
  8
0
  6
Continuous
 62
     7
370
    15
100
AcDbCircle
 10
48.37520001
 20
47.1753001847
 30
0.0
 40
4.326825112270761
100
AcDbArc
 50
18.7628931871
 51
46.7382765716
  0
SPLINE
  5
8E
330
1F
100
AcDbEntity
  8
0
  6
Continuous
 62
     7
370
    15
100
AcDbSpline
210
0.0
220
0.0
230
1.0
 70
     8
 71
     3
 72
    52
 73
    48
 74
     0
 42
0.000000001
 43
0.00000001
 40
0.0
 40
0.0
 40
0.0
 40
0.0
 40
0.0624999999999987
 40
0.0624999999999987
 40
0.1249999999999974
 40
0.1249999999999974
 40
0.1562499999999967
 40
0.1562499999999967
 40
0.1874999999999961
 40
0.1874999999999961
 40
0.2187499999999954
 40
0.2187499999999954
 40
0.2499999999999948
 40
0.2499999999999948
 40
0.3124999999999942
 40
0.3124999999999942
 40
0.3437499999999941
 40
0.3437499999999941
 40
0.3749999999999945
 40
0.3749999999999945
 40
0.4062499999999949
 40
0.4062499999999949
 40
0.4374999999999953
 40
0.4374999999999953
 40
0.4999999999999956
 40
0.4999999999999956
 40
0.5624999999999958
 40
0.5624999999999958
 40
0.624999999999996
 40
0.624999999999996
 40
0.6874999999999963
 40
0.6874999999999963
 40
0.7499999999999966
 40
0.7499999999999966
 40
0.7812499999999969
 40
0.7812499999999969
 40
0.8124999999999972
 40
0.8124999999999972
 40
0.8749999999999981
 40
0.8749999999999981
 40
0.9062499999999987
 40
0.9062499999999987
 40
0.9374999999999991
 40
0.9374999999999991
 40
0.9687499999999996
 40
0.9687499999999996
 40
1.0
 40
1.0
 40
1.0
 40
1.0
 10
42.94775058083519
 20
48.6487648962335
 30
0.0
 10
42.82449530258653
 20
48.30949417359764
 30
0.0
 10
42.75550225620385
 20
47.97451115446286
 30
0.0
 10
42.71996105247003
 20
47.30931487005637
 30
0.0
 10
42.75405280169463
 20
46.99310431402689
 30
0.0
 10
42.87006871005794
 20
46.52742389654561
 30
0.0
 10
42.92016915598679
 20
46.37314670950117
 30
0.0
 10
43.03956775890886
 20
46.07345877276993
 30
0.0
 10
43.10898694129225
 20
45.92723780539744
 30
0.0
 10
43.26650304913714
 20
45.64093666982032
 30
0.0
 10
43.35460512520344
 20
45.50086383349701
 30
0.0
 10
43.54965548450951
 20
45.22643203466563
 30
0.0
 10
43.65728852998695
 20
45.09141409129891
 30
0.0
 10
44.00165103159517
 20
44.70381341900855
 30
0.0
 10
44.26074916915353
 20
44.46599145159119
 30
0.0
 10
44.69410288632739
 20
44.14128272257467
 30
0.0
 10
44.84691284093853
 20
44.03804324738281
 30
0.0
 10
45.16130667408529
 20
43.84770561400178
 30
0.0
 10
45.32343742702422
 20
43.76008810837328
 30
0.0
 10
45.65764194918329
 20
43.600576562559
 30
0.0
 10
45.82971369921005
 20
43.52867791303075
 30
0.0
 10
46.18433588737457
 20
43.40208458421899
 30
0.0
 10
46.36638090231664
 20
43.34773258458809
 30
0.0
 10
46.91506619896666
 20
43.21646772473422
 30
0.0
 10
47.28843203671975
 20
43.16930953522638
 30
0.0
 10
48.05201637896507
 20
43.1688892438602
 30
0.0
 10
48.42724467268037
 20
43.2157016015687
 30
0.0
 10
49.16522926289925
 20
43.39225345662484
 30
0.0
 10
49.51858310520044
 20
43.52001329560654
 30
0.0
 10
50.18562209235592
 20
43.83791271000189
 30
0.0
 10
50.50480443539872
 20
44.03172039819579
 30
0.0
 10
51.08129991807961
 20
44.46310994905117
 30
0.0
 10
51.34066824122292
 20
44.70060933177052
 30
0.0
 10
51.68615490138543
 20
45.08889177480486
 30
0.0
 10
51.79371884389926
 20
45.22364915459069
 30
0.0
 10
51.98898832624041
 20
45.49794043507409
 30
0.0
 10
52.07740950947936
 20
45.63823199522264
 30
0.0
 10
52.31491948341507
 20
46.06931947686589
 30
0.0
 10
52.43688299837274
 20
46.37289985528245
 30
0.0
 10
52.55248788047524
 20
46.83654070237827
 30
0.0
 10
52.58019121667812
 20
46.99310839796779
 30
0.0
 10
52.61233074619033
 20
47.31259528401878
 30
0.0
 10
52.61660811268757
 20
47.47685938222619
 30
0.0
 10
52.59893959161479
 20
47.80726184624709
 30
0.0
 10
52.57733398910707
 20
47.97341730523461
 30
0.0
 10
52.50775043255838
 20
48.30890274612138
 30
0.0
 10
52.45937972255481
 20
48.47915907185385
 30
0.0
 10
52.39776282456286
 20
48.64876487094912
 30
0.0
  0
ARC
  5
8F
330
1F
100
AcDbEntity
  8
0
  6
Continuous
 62
     7
370
    15
100
AcDbCircle
 10
46.9747413112
 20
47.1718593856
 30
0.0
 40
4.332368638473185
100
AcDbArc
 50
133.2651991183
 51
160.7835091281
  0
LWPOLYLINE
  5
90
330
1F
100
AcDbEntity
  8
0
  6
Continuous
 62
     7
370
    15
100
AcDbPolyline
 90
        6
 70
   128
 43
0.0
 10
42.7015113674
 20
46.9549054807
 10
42.676876771
 20
47.4767760238
 10
42.7474703927
 20
48.0295517255
 10
42.9087826817
 20
48.5918234693
 10
42.9088027226
 20
48.5918778913
 10
42.9088027226
 20
48.5918778913
  0
SPLINE
  5
91
330
1F
100
AcDbEntity
  8
0
  6
Continuous
 62
     7
370
    15
100
AcDbSpline
210
0.0
220
0.0
230
1.0
 70
     8
 71
     3
 72
    11
 73
     7
 74
     0
 42
0.000000001
 43
0.00000001
 40
0.0
 40
0.0
 40
0.0
 40
0.0
 40
0.3522719481685881
 40
0.6750214418164157
 40
0.9898690100402718
 40
1.0
 40
1.0
 40
1.0
 40
1.0
 10
44.0101829833157
 20
50.80239699821661
 30
0.0
 10
43.73608492275257
 20
50.46971064844961
 30
0.0
 10
43.21085982605577
 20
49.83221901546587
 30
0.0
 10
42.77195113560944
 20
48.7074412831122
 30
0.0
 10
42.60409028051019
 20
47.91137483963661
 30
0.0
 10
42.6609880539417
 20
47.5207926962372
 30
0.0
 10
42.66276180410722
 20
47.50861655823183
 30
0.0
  0
SPLINE
  5
92
330
1F
100
AcDbEntity
  8
0
  6
Continuous
 62
     7
370
    15
100
AcDbSpline
210
0.0
220
0.0
230
1.0
 70
     8
 71
     3
 72
    11
 73
     7
 74
     0
 42
0.000000001
 43
0.00000001
 40
0.0
 40
0.0
 40
0.0
 40
0.0
 40
0.0140243677863288
 40
0.427051889051298
 40
0.8398420845957639
 40
1.0
 40
1.0
 40
1.0
 40
1.0
 10
51.33533041291326
 20
50.80239723140534
 30
0.0
 10
51.3308441389465
 20
50.80424360316125
 30
0.0
 10
51.19423393294685
 20
50.86046692518691
 30
0.0
 10
50.93191266385899
 20
50.9857223986556
 30
0.0
 10
50.62430099145865
 20
51.13317929918159
 30
0.0
 10
50.441501290343
 20
51.20981539794032
 30
0.0
 10
50.39040273794753
 20
51.23123771802022
 30
0.0
  0
SPLINE
  5
93
330
1F
100
AcDbEntity
  8
0
  6
Continuous
 62
     7
370
    15
100
AcDbSpline
210
0.0
220
0.0
230
1.0
 70
     8
 71
     3
 72
    11
 73
     7
 74
     0
 42
0.000000001
 43
0.00000001
 40
0.0
 40
0.0
 40
0.0
 40
0.0
 40
0.1403469029617938
 40
0.5429885430108241
 40
0.9859821957339435
 40
1.0
 40
1.0
 40
1.0
 40
1.0
 10
44.95548623615174
 20
51.23159546792969
 30
0.0
 10
44.91066708439739
 20
51.21286427577868
 30
0.0
 10
44.73726613719802
 20
51.14039511172664
 30
0.0
 10
44.42924804833074
 20
50.99340196409496
 30
0.0
 10
44.16092999618487
 20
50.86444355205657
 30
0.0
 10
44.01466920590595
 20
50.80424350017631
 30
0.0
 10
44.0101829832991
 20
50.80239699823166
 30
0.0
  0
LINE
  5
94
330
1F
100
AcDbEntity
  8
0
  6
Continuous
 62
     7
370
    15
100
AcDbLine
 10
52.6727566981
 20
47.5102735403
 30
0.0
 11
52.6715590162
 21
47.619705639
 31
0.0
  0
ARC
  5
95
330
1F
100
AcDbEntity
  8
0
  6
Continuous
 62
     7
370
    15
100
AcDbCircle
 10
47.6727566981
 20
47.5102735403
 30
0.0
 40
5.000000000000005
100
AcDbArc
 50
10.456711859
 51
41.9528829409
  0
ARC
  5
96
330
1F
100
AcDbEntity
  8
0
  6
Continuous
 62
     7
370
    15
100
AcDbCircle
 10
74.1727566981
 20
67.899777385
 30
0.0
 40
8.057928668328206
100
AcDbArc
 50
313.621988817
 51
138.0037944231
  0
LINE
  5
97
330
1F
100
AcDbEntity
  8
0
  6
Continuous
 62
     7
370
    15
100
AcDbLine
 10
73.1727566981
 20
55.8155948924
 30
0.0
 11
79.7319008456
 21
62.0665852254
 31
0.0
  0
LINE
  5
98
330
1F
100
AcDbEntity
  8
0
  6
Continuous
 62
     7
370
    15
100
AcDbLine
 10
73.1727566981
 20
27.899777385
 30
0.0
 11
73.1727566981
 21
55.8155948924
 31
0.0
  0
LINE
  5
99
330
1F
100
AcDbEntity
  8
0
  6
Continuous
 62
     7
370
    15
100
AcDbLine
 10
22.1727566981
 20
27.899777385
 30
0.0
 11
73.1727566981
 21
27.899777385
 31
0.0
  0
LINE
  5
9A
330
1F
100
AcDbEntity
  8
0
  6
Continuous
 62
     7
370
    15
100
AcDbLine
 10
22.1727566981
 20
55.8155948924
 30
0.0
 11
22.1727566981
 21
27.899777385
 31
0.0
  0
LINE
  5
9B
330
1F
100
AcDbEntity
  8
0
  6
Continuous
 62
     7
370
    15
100
AcDbLine
 10
15.6136125506
 20
62.0665852254
 30
0.0
 11
22.1727566981
 21
55.8155948924
 31
0.0
  0
ARC
  5
9C
330
1F
100
AcDbEntity
  8
0
  6
Continuous
 62
     7
370
    15
100
AcDbCircle
 10
21.1727566981
 20
67.899777385
 30
0.0
 40
8.05792866832819
100
AcDbArc
 50
41.9962055769
 51
226.3780111831
  0
LINE
  5
9D
330
1F
100
AcDbEntity
  8
0
  6
Continuous
 62
     7
370
    15
100
AcDbLine
 10
34.715975154
 20
64.899777385
 30
0.0
 11
27.1613217523
 21
73.2911874989
 31
0.0
  0
LINE
  5
9E
330
1F
100
AcDbEntity
  8
0
  6
Continuous
 62
     7
370
    15
100
AcDbLine
 10
60.6295382423
 20
64.899777385
 30
0.0
 11
34.715975154
 21
64.899777385
 31
0.0
  0
LINE
  5
9F
330
1F
100
AcDbEntity
  8
0
  6
Continuous
 62
     7
370
    15
100
AcDbLine
 10
68.184191644
 20
73.2911874989
 30
0.0
 11
60.6295382423
 21
64.899777385
 31
0.0
  0
SPLINE
  5
A0
330
1F
100
AcDbEntity
  8
0
  6
Continuous
 62
     7
370
    15
100
AcDbSpline
210
0.0
220
0.0
230
1.0
 70
     8
 71
     3
 72
    21
 73
    17
 74
     0
 42
0.000000001
 43
0.00000001
 40
0.0
 40
0.0
 40
0.0
 40
0.0
 40
0.0480901257293511
 40
0.0804310929625806
 40
0.13002930436294
 40
0.1839420860271389
 40
0.2219670639192211
 40
0.2576896666540142
 40
0.2953959492536242
 40
0.382878462250938
 40
0.4351593944757691
 40
0.5630088772364137
 40
0.6230611775408679
 40
0.7589089268184201
 40
0.8583098628371713
 40
1.0
 40
1.0
 40
1.0
 40
1.0
 10
47.67275669810618
 20
41.93603621373153
 30
0.0
 10
46.66882477100722
 20
41.93808844287572
 30
0.0
 10
45.36195430776362
 20
42.63481597322935
 30
0.0
 10
42.49980673065976
 20
43.22347318254041
 30
0.0
 10
41.19694869879659
 20
40.04533308955323
 30
0.0
 10
38.10129490532552
 20
40.29971358804166
 30
0.0
 10
35.4367912414433
 20
40.84781551290577
 30
0.0
 10
34.77235281860381
 20
43.16540808626214
 30
0.0
 10
32.68334275280073
 20
45.59160247887142
 30
0.0
 10
27.91891787335084
 20
45.67254224082996
 30
0.0
 10
25.8187224904181
 20
40.452935827839
 30
0.0
 10
24.35168581818851
 20
36.07318431410219
 30
0.0
 10
25.88189215639471
 20
29.17659166461136
 30
0.0
 10
33.61048509685069
 20
29.19811023941968
 30
0.0
 10
39.90032131927925
 20
32.44262891092963
 30
0.0
 10
44.98005456584704
 20
32.54435147024104
 30
0.0
 10
47.67275669810618
 20
32.52675385622548
 30
0.0
  0
SPLINE
  5
A1
330
1F
100
AcDbEntity
  8
0
  6
Continuous
 62
     7
370
    15
100
AcDbSpline
210
0.0
220
0.0
230
1.0
 70
     8
 71
     3
 72
    21
 73
    17
 74
     0
 42
0.000000001
 43
0.00000001
 40
0.0
 40
0.0
 40
0.0
 40
0.0
 40
0.1416901371628288
 40
0.2410910731815799
 40
0.3769388224591321
 40
0.4369911227635862
 40
0.5648406055242308
 40
0.6171215377490619
 40
0.7046040507463758
 40
0.7423103333459858
 40
0.778032936080779
 40
0.8160579139728611
 40
0.86997069563706
 40
0.9195689070374194
 40
0.9519098742706489
 40
1.0
 40
1.0
 40
1.0
 40
1.0
 10
47.67275669810618
 20
32.52675385622548
 30
0.0
 10
50.36545883036534
 20
32.54435147024104
 30
0.0
 10
55.44519207693313
 20
32.44262891092963
 30
0.0
 10
61.73502829936168
 20
29.19811023941969
 30
0.0
 10
69.46362123981767
 20
29.17659166461137
 30
0.0
 10
70.99382757802385
 20
36.07318431410219
 30
0.0
 10
69.52679090579427
 20
40.452935827839
 30
0.0
 10
67.42659552286153
 20
45.67254224082997
 30
0.0
 10
62.66217064341163
 20
45.59160247887142
 30
0.0
 10
60.57316057760858
 20
43.16540808626214
 30
0.0
 10
59.90872215476906
 20
40.84781551290577
 30
0.0
 10
57.24421849088686
 20
40.29971358804166
 30
0.0
 10
54.14856469741578
 20
40.04533308955323
 30
0.0
 10
52.84570666555263
 20
43.22347318254042
 30
0.0
 10
49.98355908844876
 20
42.63481597322934
 30
0.0
 10
48.67668862520516
 20
41.93808844287572
 30
0.0
 10
47.67275669810618
 20
41.93603621373153
 30
0.0
  0
CIRCLE
  5
A2
330
1F
100
AcDbEntity
  8
0
  6
Continuous
 62
     7
370
    15
100
AcDbCircle
 10
35.3683758244
 20
55.9502568052
 30
0.0
 40
1.0
  0
CIRCLE
  5
A3
330
1F
100
AcDbEntity
  8
0
  6
Continuous
 62
     7
370
    15
100
AcDbCircle
 10
59.9771375718
 20
55.9502568052
 30
0.0
 40
1.0
  0
LINE
  5
A4
330
1F
100
AcDbEntity
  8
0
  6
Continuous
 62
     7
370
    15
100
AcDbLine
 10
68.9902568826
 20
70.7929618655
 30
0.0
 11
65.7805270939
 21
66.0024871893
 31
0.0
  0
ARC
  5
A5
330
1F
100
AcDbEntity
  8
0
  6
Continuous
 62
     7
370
    15
100
AcDbCircle
 10
69.5355299085
 20
63.486547704
 30
0.0
 40
4.519955489968557
100
AcDbArc
 50
146.1769922734
 51
303.056421098
  0
LINE
  5
A6
330
1F
100
AcDbEntity
  8
0
  6
Continuous
 62
     7
370
    15
100
AcDbLine
 10
72.0010057944
 20
59.6982200667
 30
0.0
 11
76.8339948779
 21
62.8435705177
 31
0.0
  0
ARC
  5
A7
330
1F
100
AcDbEntity
  8
0
  6
Continuous
 62
     7
370
    15
100
AcDbCircle
 10
73.7251430011
 20
67.6204777072
 30
0.0
 40
5.699456315248106
100
AcDbArc
 50
303.056421098
 51
146.1769922734
  0
LINE
  5
A8
330
1F
100
AcDbEntity
  8
0
  6
Continuous
 62
     7
370
    15
100
AcDbLine
 10
29.5649863023
 20
66.0024871893
 30
0.0
 11
26.3552565136
 21
70.7929618655
 31
0.0
  0
ARC
  5
A9
330
1F
100
AcDbEntity
  8
0
  6
Continuous
 62
     7
370
    15
100
AcDbCircle
 10
21.6203703951
 20
67.6204777072
 30
0.0
 40
5.699456315248111
100
AcDbArc
 50
33.8230077266
 51
236.943578902
  0
LINE
  5
AA
330
1F
100
AcDbEntity
  8
0
  6
Continuous
 62
     7
370
    15
100
AcDbLine
 10
18.5115185183
 20
62.8435705177
 30
0.0
 11
23.3445076018
 21
59.6982200667
 31
0.0
  0
ARC
  5
AB
330
1F
100
AcDbEntity
  8
0
  6
Continuous
 62
     7
370
    15
100
AcDbCircle
 10
25.8099834877
 20
63.486547704
 30
0.0
 40
4.519955489968568
100
AcDbArc
 50
236.943578902
 51
33.8230077266
  0
LINE
  5
AC
330
1F
100
AcDbEntity
  8
0
  6
Continuous
 62
     7
370
    15
100
AcDbLine
 10
27.1613217523
 20
73.2911874989
 30
0.0
 11
27.9045108894
 21
73.9602688889
 31
0.0
  0
LINE
  5
AD
330
1F
100
AcDbEntity
  8
0
  6
Continuous
 62
     7
370
    15
100
AcDbLine
 10
27.9045108894
 20
73.9602688889
 30
0.0
 11
33.5019149669
 21
67.7428938896
 31
0.0
  0
SPLINE
  5
AE
330
1F
100
AcDbEntity
  8
0
  6
Continuous
 62
     7
370
    15
100
AcDbSpline
210
0.0
220
0.0
230
1.0
 70
     8
 71
     3
 72
    12
 73
     8
 74
     0
 42
0.000000001
 43
0.00000001
 40
0.0
 40
0.0
 40
0.0
 40
0.0
 40
0.2499999999999986
 40
0.2499999999999986
 40
0.4999999999999972
 40
0.4999999999999972
 40
1.0
 40
1.0
 40
1.0
 40
1.0
 10
33.50191496691965
 20
67.74289388963507
 30
0.0
 10
33.65825796943148
 20
67.56923426784253
 30
0.0
 10
33.79309857195901
 20
67.36893409665461
 30
0.0
 10
34.02810600091696
 20
66.9360911575376
 30
0.0
 10
34.13119061118589
 20
66.69923225248847
 30
0.0
 10
34.41119689260142
 20
65.96215065182703
 30
0.0
 10
34.5613159548225
 20
65.43642358089652
 30
0.0
 10
34.71597515395555
 20
64.8997773849937
 30
0.0
  0
LINE
  5
AF
330
1F
100
AcDbEntity
  8
0
  6
Continuous
 62
     7
370
    15
100
AcDbLine
 10
80.4217982593
 20
61.3426780776
 30
0.0
 11
79.7319008456
 21
62.0665852254
 31
0.0
  0
LINE
  5
B0
330
1F
100
AcDbEntity
  8
0
  6
Continuous
 62
     7
370
    15
100
AcDbLine
 10
75.9929755767
 20
57.1219250109
 30
0.0
 11
80.4217982593
 21
61.3426780776
 31
0.0
  0
SPLINE
  5
B1
330
1F
100
AcDbEntity
  8
0
  6
Continuous
 62
     7
370
    15
100
AcDbSpline
210
0.0
220
0.0
230
1.0
 70
     8
 71
     3
 72
    12
 73
     8
 74
     0
 42
0.000000001
 43
0.00000001
 40
0.0
 40
0.0
 40
0.0
 40
0.0
 40
0.25
 40
0.25
 40
0.5
 40
0.5
 40
1.0
 40
1.0
 40
1.0
 40
1.0
 10
75.99297557674538
 20
57.12192501094793
 30
0.0
 10
75.82261236695297
 20
56.9595656003965
 30
0.0
 10
75.62518855411443
 20
56.81668971979591
 30
0.0
 10
75.19794616215404
 20
56.566100979381
 30
0.0
 10
74.9666856791218
 20
56.45632001158697
 30
0.0
 10
74.23144431589895
 20
56.15075296620546
 30
0.0
 10
73.70703148134538
 20
55.98550128734439
 30
0.0
 10
73.17275669810618
 20
55.81559489236985
 30
0.0
  0
LINE
  5
B2
330
1F
100
AcDbEntity
  8
0
  6
Continuous
 62
     7
370
    15
100
AcDbLine
 10
15.6136125506
 20
62.0665852254
 30
0.0
 11
14.923715137
 21
61.3426780776
 31
0.0
  0
SPLINE
  5
B3
330
1F
100
AcDbEntity
  8
0
  6
Continuous
 62
     7
370
    15
100
AcDbSpline
210
0.0
220
0.0
230
1.0
 70
     8
 71
     3
 72
    12
 73
     8
 74
     0
 42
0.000000001
 43
0.00000001
 40
0.0
 40
0.0
 40
0.0
 40
0.0
 40
0.5000000000000011
 40
0.5000000000000011
 40
0.7500000000000006
 40
0.7500000000000006
 40
1.0
 40
1.0
 40
1.0
 40
1.0
 10
22.1727566981062
 20
55.81559489236985
 30
0.0
 10
21.64241375107497
 20
55.98425091142902
 30
0.0
 10
21.11218724026861
 20
56.15151701220123
 30
0.0
 10
20.37940980186904
 20
56.45608712750514
 30
0.0
 10
20.14828483365513
 20
56.56563574427048
 30
0.0
 10
19.71852512768789
 20
56.81778975508446
 30
0.0
 10
19.52440130724221
 20
56.95813580666788
 30
0.0
 10
19.35253781946701
 20
57.12192501094794
 30
0.0
  0
LINE
  5
B4
330
1F
100
AcDbEntity
  8
0
  6
Continuous
 62
     7
370
    15
100
AcDbLine
 10
19.3525378195
 20
57.1219250109
 30
0.0
 11
14.923715137
 21
61.3426780776
 31
0.0
  0
LINE
  5
B5
330
1F
100
AcDbEntity
  8
0
  6
Continuous
 62
     7
370
    15
100
AcDbLine
 10
67.4410025068
 20
73.9602688889
 30
0.0
 11
68.184191644
 21
73.2911874989
 31
0.0
  0
SPLINE
  5
B6
330
1F
100
AcDbEntity
  8
0
  6
Continuous
 62
     7
370
    15
100
AcDbSpline
210
0.0
220
0.0
230
1.0
 70
     8
 71
     3
 72
    14
 73
    10
 74
     0
 42
0.000000001
 43
0.00000001
 40
0.0
 40
0.0
 40
0.0
 40
0.0
 40
0.25
 40
0.25
 40
0.5
 40
0.5
 40
0.75
 40
0.75
 40
1.0
 40
1.0
 40
1.0
 40
1.0
 10
60.62953824225684
 20
64.8997773849937
 30
0.0
 10
60.70621287117871
 20
65.16582782519593
 30
0.0
 10
60.78298025016186
 20
65.4323523337131
 30
0.0
 10
60.94442490492484
 20
65.95533963327631
 30
0.0
 10
61.02847760000586
 20
66.21030126012535
 30
0.0
 10
61.2158040586264
 20
66.70284474033879
 30
0.0
 10
61.31752179558529
 20
66.93649683480668
 30
0.0
 10
61.55376723923687
 20
67.37122882433772
 30
0.0
 10
61.68649691198699
 20
67.56839173961859
 30
0.0
 10
61.84359842929274
 20
67.74289388963507
 30
0.0
  0
LINE
  5
B7
330
1F
100
AcDbEntity
  8
0
  6
Continuous
 62
     7
370
    15
100
AcDbLine
 10
67.4410025068
 20
73.9602688889
 30
0.0
 11
61.8435984293
 21
67.7428938896
 31
0.0
  0
ARC
  5
B8
330
1F
100
AcDbEntity
  8
0
  6
Continuous
 62
     7
370
    15
100
AcDbCircle
 10
21.1727566981
 20
67.899777385
 30
0.0
 40
9.057928668328206
100
AcDbArc
 50
41.9962055769
 51
226.3780111831
  0
ELLIPSE
  5
B9
330
1F
100
AcDbEntity
  8
0
  6
Continuous
 62
     7
370
    15
100
AcDbEllipse
 10
24.1727566981
 20
27.899777385
 30
0.0
 11
0.0
 21
5.0
 31
0.0
210
0.0
220
0.0
230
1.0
 40
0.4
 41
1.570796326794897
 42
3.141592653589793
  0
ELLIPSE
  5
BA
330
1F
100
AcDbEntity
  8
0
  6
Continuous
 62
     7
370
    15
100
AcDbEllipse
 10
71.1727566981
 20
27.899777385
 30
0.0
 11
0.0
 21
5.0
 31
0.0
210
0.0
220
0.0
230
1.0
 40
0.4
 41
3.141592653589793
 42
4.712388980384695
  0
LINE
  5
BB
330
1F
100
AcDbEntity
  8
0
  6
Continuous
 62
     7
370
    15
100
AcDbLine
 10
71.1727566981
 20
22.899777385
 30
0.0
 11
24.1727566981
 21
22.899777385
 31
0.0
  0
LINE
  5
BC
330
1F
100
AcDbEntity
  8
0
  6
Continuous
 62
     7
370
    15
100
AcDbLine
 10
76.1727566981
 20
27.899777385
 30
0.0
 11
73.1727566981
 21
27.899777385
 31
0.0
  0
LINE
  5
BD
330
1F
100
AcDbEntity
  8
0
  6
Continuous
 62
     7
370
    15
100
AcDbLine
 10
76.1727566981
 20
57.2932598721
 30
0.0
 11
76.1727566981
 21
27.899777385
 31
0.0
  0
ARC
  5
BE
330
1F
100
AcDbEntity
  8
0
  6
Continuous
 62
     7
370
    15
100
AcDbCircle
 10
71.1727566981
 20
27.899777385
 30
0.0
 40
5.000000000000014
100
AcDbArc
 50
270.0
 51
0.0
  0
ARC
  5
BF
330
1F
100
AcDbEntity
  8
0
  6
Continuous
 62
     7
370
    15
100
AcDbCircle
 10
24.1727566981
 20
27.899777385
 30
0.0
 40
5.0
100
AcDbArc
 50
180.0
 51
270.0
  0
LINE
  5
C0
330
1F
100
AcDbEntity
  8
0
  6
Continuous
 62
     7
370
    15
100
AcDbLine
 10
22.1727566981
 20
27.899777385
 30
0.0
 11
19.1727566981
 21
27.899777385
 31
0.0
  0
LINE
  5
C1
330
1F
100
AcDbEntity
  8
0
  6
Continuous
 62
     7
370
    15
100
AcDbLine
 10
33.3606752449
 20
67.899777385
 30
0.0
 11
61.9848381513
 21
67.899777385
 31
0.0
  0
LINE
  5
C2
330
1F
100
AcDbEntity
  8
0
  6
Continuous
 62
     7
370
    15
100
AcDbLine
 10
19.1727566981
 20
27.899777385
 30
0.0
 11
19.1727566981
 21
57.2932598721
 31
0.0
  0
ARC
  5
C3
330
1F
100
AcDbEntity
  8
0
  6
Continuous
 62
     7
370
    15
100
AcDbCircle
 10
74.1727566981
 20
67.899777385
 30
0.0
 40
9.057928668328193
100
AcDbArc
 50
313.621988817
 51
138.0037944231
  0
SPLINE
  5
C4
330
1F
100
AcDbEntity
  8
0
  6
Continuous
 62
     7
370
    15
100
AcDbSpline
210
0.0
220
0.0
230
1.0
 70
     8
 71
     3
 72
    15
 73
    11
 74
     0
 42
0.000000001
 43
0.00000001
 40
0.0
 40
0.0
 40
0.0
 40
0.0
 40
0.1926242536859175
 40
0.3295452516083419
 40
0.4599863652933677
 40
0.5826381457295382
 40
0.6554867800856655
 40
0.7413161121340966
 40
0.8636979522891668
 40
1.0
 40
1.0
 40
1.0
 40
1.0
 10
61.31354117768432
 20
39.08870616502275
 30
0.0
 10
60.21886851653323
 20
38.96829140506811
 30
0.0
 10
59.37787382081925
 20
37.08878472483927
 30
0.0
 10
56.81849315989265
 20
36.90430891742507
 30
0.0
 10
54.71257486894365
 20
37.44375419150242
 30
0.0
 10
53.98218429582354
 20
39.13004672884937
 30
0.0
 10
52.50787618592221
 20
39.74205854372127
 30
0.0
 10
51.09129731634216
 20
39.10689262007198
 30
0.0
 10
49.70359130050099
 20
38.01192182618605
 30
0.0
 10
48.3707366242282
 20
37.61570903638396
 30
0.0
 10
47.67275669810618
 20
37.54401321796873
 30
0.0
  0
SPLINE
  5
C5
330
1F
100
AcDbEntity
  8
0
  6
Continuous
 62
     7
370
    15
100
AcDbSpline
210
0.0
220
0.0
230
1.0
 70
     8
 71
     3
 72
    10
 73
     6
 74
     0
 42
0.000000001
 43
0.00000001
 40
0.6765814940206103
 40
0.6765814940206103
 40
0.6765814940206103
 40
0.6765814940206103
 40
0.7917991218394815
 40
0.8670960524574033
 40
1.0
 40
1.0
 40
1.0
 40
1.0
 10
68.57442601920874
 20
42.77431551801163
 30
0.0
 10
69.03369870766122
 20
41.40964961851301
 30
0.0
 10
68.64028231217195
 20
38.88956696176685
 30
0.0
 10
64.89562348489292
 20
35.50073356499452
 30
0.0
 10
63.04005690093425
 20
39.47619390593933
 30
0.0
 10
61.31354117768432
 20
39.08870616502275
 30
0.0
  0
SPLINE
  5
C6
330
1F
100
AcDbEntity
  8
0
  6
Continuous
 62
     7
370
    15
100
AcDbSpline
210
0.0
220
0.0
230
1.0
 70
     8
 71
     3
 72
    15
 73
    11
 74
     0
 42
0.000000001
 43
0.00000001
 40
0.0
 40
0.0
 40
0.0
 40
0.0
 40
0.1926242536859175
 40
0.3295452516083417
 40
0.4599863652933676
 40
0.5826381457295382
 40
0.6554867800856654
 40
0.7413161121340965
 40
0.8636979522891667
 40
1.0
 40
1.0
 40
1.0
 40
1.0
 10
34.03197221852805
 20
39.08870616502275
 30
0.0
 10
35.12664487967914
 20
38.96829140506811
 30
0.0
 10
35.96763957539313
 20
37.08878472483926
 30
0.0
 10
38.52702023631971
 20
36.90430891742508
 30
0.0
 10
40.63293852726872
 20
37.44375419150242
 30
0.0
 10
41.36332910038883
 20
39.13004672884938
 30
0.0
 10
42.83763721029016
 20
39.74205854372127
 30
0.0
 10
44.25421607987021
 20
39.10689262007198
 30
0.0
 10
45.64192209571139
 20
38.01192182618605
 30
0.0
 10
46.97477677198418
 20
37.61570903638396
 30
0.0
 10
47.67275669810619
 20
37.54401321796873
 30
0.0
  0
SPLINE
  5
C7
330
1F
100
AcDbEntity
  8
0
  6
Continuous
 62
     7
370
    15
100
AcDbSpline
210
0.0
220
0.0
230
1.0
 70
     8
 71
     3
 72
     8
 73
     4
 74
     0
 42
0.000000001
 43
0.00000001
 40
0.222478543823744
 40
0.222478543823744
 40
0.222478543823744
 40
0.222478543823744
 40
0.3178217649456741
 40
0.3178217649456741
 40
0.3178217649456741
 40
0.3178217649456741
 10
54.91914300402688
 20
40.46556749685941
 30
0.0
 10
55.89456501168561
 20
39.88794381466603
 30
0.0
 10
57.27340695737497
 20
40.15345667317542
 30
0.0
 10
58.45534443156569
 20
40.57974877093265
 30
0.0
  0
SPLINE
  5
C8
330
1F
100
AcDbEntity
  8
0
  6
Continuous
 62
     7
370
    15
100
AcDbSpline
210
0.0
220
0.0
230
1.0
 70
     8
 71
     3
 72
    10
 73
     6
 74
     0
 42
0.000000001
 43
0.00000001
 40
0.6765814966275627
 40
0.6765814966275627
 40
0.6765814966275627
 40
0.6765814966275627
 40
0.7917991218394815
 40
0.8670960524574033
 40
1.0
 40
1.0
 40
1.0
 40
1.0
 10
26.77108737699185
 20
42.7743155179766
 30
0.0
 10
26.31181468855524
 20
41.40964961848693
 30
0.0
 10
26.70523108405183
 20
38.88956696175651
 30
0.0
 10
30.44988991131947
 20
35.50073356499451
 30
0.0
 10
32.30545649527812
 20
39.47619390593933
 30
0.0
 10
34.03197221852805
 20
39.08870616502275
 30
0.0
  0
SPLINE
  5
C9
330
1F
100
AcDbEntity
  8
0
  6
Continuous
 62
     7
370
    15
100
AcDbSpline
210
0.0
220
0.0
230
1.0
 70
     8
 71
     3
 72
     8
 73
     4
 74
     0
 42
0.000000001
 43
0.00000001
 40
0.2224785432989732
 40
0.2224785432989732
 40
0.2224785432989732
 40
0.2224785432989732
 40
0.3178217647897523
 40
0.3178217647897523
 40
0.3178217647897523
 40
0.3178217647897523
 10
40.4263703921855
 20
40.46556749685941
 30
0.0
 10
39.45094838452678
 20
39.88794381466603
 30
0.0
 10
38.07210643883741
 20
40.15345667317541
 30
0.0
 10
36.89016896464668
 20
40.57974877093264
 30
0.0
  0
LINE
  5
CA
330
1F
100
AcDbEntity
  8
0
  6
Continuous
 62
     7
370
    15
100
AcDbLine
 10
19.1727566981
 20
21.3997774386
 30
0.0
 11
19.1727566981
 21
27.8994706543
 31
0.0
  0
LINE
  5
CB
330
1F
100
AcDbEntity
  8
0
  6
Continuous
 62
     7
370
    15
100
AcDbLine
 10
16.5505217768
 20
20.8997776019
 30
0.0
 11
16.5505217768
 21
35.8997773837
 31
0.0
  0
LINE
  5
CC
330
1F
100
AcDbEntity
  8
0
  6
Continuous
 62
     7
370
    15
100
AcDbLine
 10
76.1727566981
 20
27.8994706543
 30
0.0
 11
76.1727566981
 21
21.3997774386
 31
0.0
  0
LINE
  5
CD
330
1F
100
AcDbEntity
  8
0
  6
Continuous
 62
     7
370
    15
100
AcDbLine
 10
78.7949916194
 20
35.8997768869
 30
0.0
 11
78.7949916194
 21
20.8997773863
 31
0.0
  0
SPLINE
  5
CE
330
1F
100
AcDbEntity
  8
0
  6
Continuous
 62
     7
370
    15
100
AcDbSpline
210
0.0
220
0.0
230
1.0
 70
    24
 71
     3
 72
    26
 73
    22
 74
     0
 42
0.000000001
 43
0.00000001
 40
0.0
 40
0.0
 40
0.0
 40
0.0
 40
0.0466058872029253
 40
0.1045823672495342
 40
0.1605614477687542
 40
0.2182493192354817
 40
0.2723611581816789
 40
0.3283575234328588
 40
0.3782831865294877
 40
0.4295210776430402
 40
0.4901812703039887
 40
0.5426052894890318
 40
0.5966197795901033
 40
0.6490127563731298
 40
0.7028237184360744
 40
0.7568000314629895
 40
0.8124924855758799
 40
0.8644962253140429
 40
0.9178468666720051
 40
0.9727189865007092
 40
1.0
 40
1.0
 40
1.0
 40
1.0
 10
13.7829125007191
 20
20.64130467816293
 30
0.0
 10
13.78008066207948
 20
20.64798290451428
 30
0.0
 10
13.77372609173714
 20
20.66296866624459
 30
0.0
 10
13.67312596326119
 20
20.90021044250266
 30
0.0
 10
13.50184109430348
 20
21.30414557830502
 30
0.0
 10
13.26400575976812
 20
21.86502435725816
 30
0.0
 10
12.96199141797466
 20
22.57725425187138
 30
0.0
 10
12.62100938233998
 20
23.3813803005317
 30
0.0
 10
12.25004065823973
 20
24.25622291132205
 30
0.0
 10
11.8423878411618
 20
25.217576339845
 30
0.0
 10
11.41064082631887
 20
26.23575027507967
 30
0.0
 10
10.96987537654699
 20
27.27519207104215
 30
0.0
 10
10.56157732628796
 20
28.23806713048438
 30
0.0
 10
10.17141642072787
 20
29.15816999380906
 30
0.0
 10
9.812743695048267
 20
30.0040153801389
 30
0.0
 10
9.490605031510016
 20
30.76370376122791
 30
0.0
 10
9.228327397292388
 20
31.38222396351009
 30
0.0
 10
9.025115575015786
 20
31.86145132041232
 30
0.0
 10
8.888173194883011
 20
32.18439776193184
 30
0.0
 10
8.816035402915936
 20
32.35451780214331
 30
0.0
 10
8.822660559261063
 20
32.33889392687476
 30
0.0
 10
8.824860609001895
 20
32.33370562626045
 30
0.0
  0
SPLINE
  5
CF
330
1F
100
AcDbEntity
  8
0
  6
Continuous
 62
     7
370
    15
100
AcDbSpline
210
0.0
220
0.0
230
1.0
 70
    24
 71
     3
 72
    48
 73
    44
 74
     0
 42
0.000000001
 43
0.00000001
 40
0.0
 40
0.0
 40
0.0
 40
0.0
 40
0.0312499999999997
 40
0.0312499999999997
 40
0.0624999999999994
 40
0.0624999999999994
 40
0.124999999999999
 40
0.124999999999999
 40
0.1874999999999986
 40
0.1874999999999986
 40
0.2187499999999985
 40
0.2187499999999985
 40
0.2499999999999984
 40
0.2499999999999984
 40
0.3124999999999984
 40
0.3124999999999984
 40
0.3749999999999984
 40
0.3749999999999984
 40
0.4374999999999984
 40
0.4374999999999984
 40
0.4999999999999984
 40
0.4999999999999984
 40
0.5312499999999984
 40
0.5312499999999984
 40
0.5624999999999986
 40
0.5624999999999986
 40
0.5937499999999986
 40
0.5937499999999986
 40
0.6249999999999986
 40
0.6249999999999986
 40
0.6874999999999988
 40
0.6874999999999988
 40
0.7499999999999989
 40
0.7499999999999989
 40
0.8124999999999992
 40
0.8124999999999992
 40
0.8437499999999993
 40
0.8437499999999993
 40
0.8749999999999996
 40
0.8749999999999996
 40
0.9374999999999998
 40
0.9374999999999998
 40
1.0
 40
1.0
 40
1.0
 40
1.0
 10
86.53069531586013
 20
32.3573885715117
 30
0.0
 10
86.53170172240853
 20
32.35976194499339
 30
0.0
 10
86.52842514855593
 20
32.35203491509183
 30
0.0
 10
86.51375223672112
 20
32.31743229858127
 30
0.0
 10
86.50239357249237
 20
32.29064555667183
 30
0.0
 10
86.45679684318938
 20
32.18311637937074
 30
0.0
 10
86.41099567353503
 20
32.07510507751537
 30
0.0
 10
86.28910752832186
 20
31.78766051344514
 30
0.0
 10
86.21463605574506
 20
31.6120370355994
 30
0.0
 10
86.08291213523421
 20
31.30139710550084
 30
0.0
 10
86.03563690835406
 20
31.18990958587269
 30
0.0
 10
85.9340026088288
 20
30.95022896007817
 30
0.0
 10
85.87949418335245
 20
30.82168364033615
 30
0.0
 10
85.7087114828583
 20
30.41893275091681
 30
0.0
 10
85.58406672456678
 20
30.12498736231399
 30
0.0
 10
85.3145455128653
 20
29.48938488374868
 30
0.0
 10
85.1685106549049
 20
29.14499596871458
 30
0.0
 10
84.86809124578792
 20
28.43652734823596
 30
0.0
 10
84.71249443767617
 20
28.06958881947104
 30
0.0
 10
84.38999841008184
 20
27.30905767918568
 30
0.0
 10
84.22503389539102
 20
26.92002761453553
 30
0.0
 10
83.97690688109338
 20
26.33487832594722
 30
0.0
 10
83.89365482043196
 20
26.13854789329628
 30
0.0
 10
83.72960789968137
 20
25.75168175844982
 30
0.0
 10
83.648415403382
 20
25.56020832464068
 30
0.0
 10
83.48762410368225
 20
25.18101980743375
 30
0.0
 10
83.40802543432393
 20
24.99330504014243
 30
0.0
 10
83.25041858612352
 20
24.62162630390254
 30
0.0
 10
83.17202678318303
 20
24.43675764761515
 30
0.0
 10
82.94221422760343
 20
23.89479870861485
 30
0.0
 10
82.79732175593948
 20
23.55310384336225
 30
0.0
 10
82.52414062602423
 20
22.90887030725107
 30
0.0
 10
82.39464665569034
 20
22.60348919092305
 30
0.0
 10
82.16461746584602
 20
22.0610193708877
 30
0.0
 10
82.06302870486701
 20
21.82144613705941
 30
0.0
 10
81.92937401168574
 20
21.50625293307521
 30
0.0
 10
81.88785459929332
 20
21.40833915011686
 30
0.0
 10
81.812611199023
 20
21.23089526209937
 30
0.0
 10
81.77867388880031
 20
21.15086208639049
 30
0.0
 10
81.68746166551577
 20
20.93575947970103
 30
0.0
 10
81.64047485428586
 20
20.82495212064724
 30
0.0
 10
81.5761207808107
 20
20.67318815242983
 30
0.0
 10
81.55908625859698
 20
20.63301623248388
 30
0.0
 10
81.55735068542997
 20
20.6289232907828
 30
0.0
  0
LWPOLYLINE
  5
D0
330
1F
100
AcDbEntity
  8
0
  6
Continuous
 62
     8
370
    15
100
AcDbPolyline
 90
       20
 70
   128
 43
0.0
 10
50.3593762892
 20
50.4722901468
 10
50.3614013651
 20
50.4395746409
 10
50.3370525827
 20
49.9890465565
 10
50.2164092052
 20
49.5507216787
 10
50.0038315987
 20
49.1404422108
 10
49.7070028717
 20
48.7730367217
 10
49.3366511879
 20
48.461784203
 10
48.9061620219
 20
48.2179341317
 10
48.431094374
 20
48.0502998848
 10
47.9286184266
 20
47.9649402006
 10
47.4168949697
 20
47.9649402006
 10
46.9144190223
 20
48.0502998848
 10
46.4393513743
 20
48.2179341317
 10
46.0088622083
 20
48.461784203
 10
45.6385105245
 20
48.7730367217
 10
45.3416817975
 20
49.1404422108
 10
45.129104191
 20
49.5507216787
 10
45.0084608135
 20
49.9890465565
 10
44.9841120311
 20
50.4395746409
 10
44.986137107
 20
50.4722901467
  0
SPLINE
  5
D1
330
1F
100
AcDbEntity
  8
0
  6
Continuous
 62
     8
370
    15
100
AcDbSpline
210
0.0
220
0.0
230
1.0
 70
     8
 71
     3
 72
    46
 73
    42
 74
     0
 42
0.000000001
 43
0.00000001
 40
0.0
 40
0.0
 40
0.0
 40
0.0
 40
0.0106517597025728
 40
0.0463855398236505
 40
0.0828138880564155
 40
0.1056319792520003
 40
0.1288192282525512
 40
0.1521776504383846
 40
0.1758738036236883
 40
0.2215479574034458
 40
0.2446510560321579
 40
0.2680081326658482
 40
0.2933895427778122
 40
0.3189364496974761
 40
0.3450058812194411
 40
0.3712566864976563
 40
0.3969359309605009
 40
0.4227935031629316
 40
0.4492274667134674
 40
0.4758692384497041
 40
0.4948087367098217
 40
0.5330988817495812
 40
0.5524841609051403
 40
0.576176662361311
 40
0.6000477225599332
 40
0.6244585921251445
 40
0.6490459224763485
 40
0.6720444941155853
 40
0.6953149242876436
 40
0.7187205219836319
 40
0.7424002230802637
 40
0.7670912874135173
 40
0.7919363147130193
 40
0.8172618036484394
 40
0.8427517366267706
 40
0.8683721030495578
 40
0.8941634625604105
 40
0.9205023283458482
 40
0.9470378590819173
 40
0.990625175994223
 40
1.0
 40
1.0
 40
1.0
 40
1.0
 10
52.45512124366206
 20
48.53723086072731
 30
0.0
 10
52.47365391371547
 20
48.48378714502471
 30
0.0
 10
52.55435869196857
 20
48.25105418143303
 30
0.0
 10
52.64718994452917
 20
47.82865020902667
 30
0.0
 10
52.68239456745809
 20
47.34764195580858
 30
0.0
 10
52.65852703642959
 20
46.93996545283575
 30
0.0
 10
52.60608030138857
 20
46.60459671450991
 30
0.0
 10
52.52148637739428
 20
46.27349024112696
 30
0.0
 10
52.37035920838069
 20
45.84859178922494
 30
0.0
 10
52.16433364056766
 20
45.44286618399572
 30
0.0
 10
51.91030823098897
 20
45.06005539583359
 30
0.0
 10
51.6876397587212
 20
44.77332561783766
 30
0.0
 10
51.43221097441663
 20
44.49087198163267
 30
0.0
 10
51.14193315751211
 20
44.21491199217329
 30
0.0
 10
50.82409673777255
 20
43.95495208258696
 30
0.0
 10
50.48310452307773
 20
43.7161197204782
 30
0.0
 10
50.1227879340537
 20
43.50161805294192
 30
0.0
 10
49.7436268400017
 20
43.31257045436443
 30
0.0
 10
49.34369455973076
 20
43.15047247616887
 30
0.0
 10
48.96625541367571
 20
43.0322460545196
 30
0.0
 10
48.51716189497032
 20
42.92681992568041
 30
0.0
 10
48.09750654645699
 20
42.86943342753428
 30
0.0
 10
47.64903628993309
 20
42.8538657122137
 30
0.0
 10
47.27988966892912
 20
42.86954496145352
 30
0.0
 10
46.88608315232097
 20
42.91917482717035
 30
0.0
 10
46.49327964969269
 20
43.00146433177125
 30
0.0
 10
46.11372886205395
 20
43.11291703364305
 30
0.0
 10
45.75064389913014
 20
43.24934145212196
 30
0.0
 10
45.40541309122121
 20
43.40718567960222
 30
0.0
 10
45.0705908208375
 20
43.58880342779878
 30
0.0
 10
44.74490100464887
 20
43.79506727882977
 30
0.0
 10
44.43105217987358
 20
44.02554407439992
 30
0.0
 10
44.13121114665883
 20
44.28025114297279
 30
0.0
 10
43.8515022845297
 20
44.55530893679982
 30
0.0
 10
43.5946245618793
 20
44.84946195506975
 30
0.0
 10
43.36382149393093
 20
45.16028134799293
 30
0.0
 10
43.16075453016799
 20
45.48839223419973
 30
0.0
 10
42.98653472730793
 20
45.83316394718935
 30
0.0
 10
42.8217050223999
 20
46.27225234033097
 30
0.0
 10
42.71158960586103
 20
46.64503731660669
 30
0.0
 10
42.70302702849811
 20
46.90830456733555
 30
0.0
 10
42.70151136741603
 20
46.95490548072924
 30
0.0
  0
SPLINE
  5
D2
330
1F
100
AcDbEntity
  8
0
  6
Continuous
 62
     8
370
    15
100
AcDbSpline
210
0.0
220
0.0
230
1.0
 70
     8
 71
     3
 72
    25
 73
    21
 74
     0
 42
0.000000001
 43
0.00000001
 40
0.0
 40
0.0
 40
0.0
 40
0.0
 40
0.0343728689150586
 40
0.0922960855805798
 40
0.1401905972800038
 40
0.2376639076441838
 40
0.2874423911576697
 40
0.3317281563737972
 40
0.4219885744671913
 40
0.4680924949688929
 40
0.5128860724765191
 40
0.6040742138407625
 40
0.650544702162279
 40
0.6986156526332378
 40
0.7963059605207258
 40
0.8459917232903563
 40
0.8833451951155563
 40
0.9586496385281555
 40
0.9966324105328721
 40
1.0
 40
1.0
 40
1.0
 40
1.0
 10
33.41379995168351
 20
67.84076856246534
 30
0.0
 10
33.45756443482981
 20
67.83521340387851
 30
0.0
 10
33.57507835232802
 20
67.82029700590164
 30
0.0
 10
33.7404488291249
 20
67.78562841498228
 30
0.0
 10
33.96604848307854
 20
67.72173469515809
 30
0.0
 10
34.15837006050418
 20
67.63591609661033
 30
0.0
 10
34.3185960200123
 20
67.52351508843279
 30
0.0
 10
34.45462369671245
 20
67.39708322929158
 30
0.0
 10
34.56205318990943
 20
67.24655636075413
 30
0.0
 10
34.64364324628276
 20
67.07032879359014
 30
0.0
 10
34.70926084273004
 20
66.87715850582768
 30
0.0
 10
34.75197503479183
 20
66.66079801612815
 30
0.0
 10
34.77580308473408
 20
66.42252470447004
 30
0.0
 10
34.78832695364579
 20
66.16454104127766
 30
0.0
 10
34.78477912540159
 20
65.88670253606394
 30
0.0
 10
34.77120475853648
 20
65.61528870030165
 30
0.0
 10
34.75531278020859
 20
65.37318686632608
 30
0.0
 10
34.73696976827004
 20
65.1451047245431
 30
0.0
 10
34.72180082183229
 20
64.96776460570729
 30
0.0
 10
34.71641386944604
 20
64.90489732102759
 30
0.0
 10
34.71597515395555
 20
64.8997773849937
 30
0.0
  0
SPLINE
  5
D3
330
1F
100
AcDbEntity
  8
0
  6
Continuous
 62
     8
370
    15
100
AcDbSpline
210
0.0
220
0.0
230
1.0
 70
     8
 71
     3
 72
    25
 73
    21
 74
     0
 42
0.000000001
 43
0.00000001
 40
0.0
 40
0.0
 40
0.0
 40
0.0
 40
0.0547210848864797
 40
0.0852714143539438
 40
0.1351865517494136
 40
0.1858292930632112
 40
0.2368680944623612
 40
0.2887452504746996
 40
0.3807681820445877
 40
0.4750260750412822
 40
0.5673178013682907
 40
0.6141923673762308
 40
0.6617511505699151
 40
0.7105315066470642
 40
0.7599768623073271
 40
0.8097495570260541
 40
0.8601785566387113
 40
0.9280726137764043
 40
0.9965267515131347
 40
1.0
 40
1.0
 40
1.0
 40
1.0
 10
76.10658951672364
 20
57.23020127756543
 30
0.0
 10
76.09769137535288
 20
57.16023715731755
 30
0.0
 10
76.08382547519064
 20
57.05121264693107
 30
0.0
 10
76.04841003550608
 20
56.89269296781041
 30
0.0
 10
76.00778218589261
 20
56.74513821657025
 30
0.0
 10
75.94805286464332
 20
56.5871648061835
 30
0.0
 10
75.87354565199831
 20
56.440680201328
 30
0.0
 10
75.7592806628877
 20
56.27371240019706
 30
0.0
 10
75.58381531667271
 20
56.10356063308855
 30
0.0
 10
75.32381258567861
 20
55.95759279657682
 30
0.0
 10
75.06380797539359
 20
55.87657044129853
 30
0.0
 10
74.83523304467039
 20
55.83287358383135
 30
0.0
 10
74.65025554360389
 20
55.80910997108596
 30
0.0
 10
74.45330898739336
 20
55.79380350387134
 30
0.0
 10
74.24582545133116
 20
55.78607399948721
 30
0.0
 10
74.02975305540008
 20
55.78481217587188
 30
0.0
 10
73.78150753534345
 20
55.78922831645261
 30
0.0
 10
73.5003365313225
 20
55.79970996422529
 30
0.0
 10
73.2874849979908
 20
55.81001090817546
 30
0.0
 10
73.17804153284936
 20
55.81533767219221
 30
0.0
 10
73.17275669810618
 20
55.81559489236984
 30
0.0
  0
SPLINE
  5
D4
330
1F
100
AcDbEntity
  8
0
  6
Continuous
 62
     8
370
    15
100
AcDbSpline
210
0.0
220
0.0
230
1.0
 70
     8
 71
     3
 72
    20
 73
    16
 74
     0
 42
0.000000001
 43
0.00000001
 40
0.0
 40
0.0
 40
0.0
 40
0.0
 40
0.0034708719177396
 40
0.0712281439657574
 40
0.1397257534119452
 40
0.2375157760762645
 40
0.3378543713509187
 40
0.429784797790335
 40
0.5243681558149436
 40
0.6159515891441497
 40
0.7105214949208226
 40
0.8104386274671904
 40
0.9136562658008639
 40
0.972587111700023
 40
1.0
 40
1.0
 40
1.0
 40
1.0
 10
22.1727566981062
 20
55.81559489236985
 30
0.0
 10
22.16747186838018
 20
55.8153376723798
 30
0.0
 10
22.05901825168664
 20
55.81005908448715
 30
0.0
 10
21.84615543117726
 20
55.7997571971249
 30
0.0
 10
21.49362671541296
 20
55.78657870682157
 30
0.0
 10
21.10221992931941
 20
55.78274336855282
 30
0.0
 10
20.70048254829988
 20
55.8037501995768
 30
0.0
 10
20.33734685066495
 20
55.8594982584278
 30
0.0
 10
20.02683685621846
 20
55.95545902852265
 30
0.0
 10
19.76389440814695
 20
56.10194475042794
 30
0.0
 10
19.55226493962327
 20
56.30567354890891
 30
0.0
 10
19.3922161022899
 20
56.57523654642966
 30
0.0
 10
19.30124811918889
 20
56.86106757005137
 30
0.0
 10
19.25480824967207
 20
57.08679319113131
 30
0.0
 10
19.24092373571658
 20
57.19738508309731
 30
0.0
 10
19.23651560310928
 20
57.23249641120311
 30
0.0
  0
SPLINE
  5
D5
330
1F
100
AcDbEntity
  8
0
  6
Continuous
 62
     8
370
    15
100
AcDbSpline
210
0.0
220
0.0
230
1.0
 70
     8
 71
     3
 72
    25
 73
    21
 74
     0
 42
0.000000001
 43
0.00000001
 40
0.0
 40
0.0
 40
0.0
 40
0.0
 40
0.0033671776707233
 40
0.0782892687695827
 40
0.153957974485268
 40
0.2020646935284943
 40
0.2507686504771571
 40
0.2997856809049355
 40
0.3494601380732303
 40
0.4396622181678072
 40
0.4854375682627415
 40
0.5318972697312323
 40
0.6210774779143968
 40
0.7124354779717814
 40
0.7602494771228087
 40
0.8088642695824274
 40
0.8578727332819988
 40
0.9076546900579523
 40
0.963634041350003
 40
0.9999999999999999
 40
0.9999999999999999
 40
0.9999999999999999
 40
0.9999999999999999
 10
60.62953824225682
 20
64.8997773849937
 30
0.0
 10
60.62909953201269
 20
64.90489726433316
 30
0.0
 10
60.61889920771326
 20
65.02393808987671
 30
0.0
 10
60.59889412828858
 20
65.25817404713862
 30
0.0
 10
60.57729447857447
 20
65.55662797489335
 30
0.0
 10
60.56454345077434
 20
65.8101707480136
 30
0.0
 10
60.55902472548779
 20
66.01977049897793
 30
0.0
 10
60.56020473980986
 20
66.22544849159048
 30
0.0
 10
60.57229053267424
 20
66.47916747903899
 30
0.0
 10
60.60164377907642
 20
66.71270086479456
 30
0.0
 10
60.65149140713705
 20
66.92165302266743
 30
0.0
 10
60.71653949655379
 20
67.11448998662888
 30
0.0
 10
60.82878921366184
 20
67.3260280679143
 30
0.0
 10
60.98618710178788
 20
67.49448937269405
 30
0.0
 10
61.14292146786593
 20
67.60505810635806
 30
0.0
 10
61.27840780686837
 20
67.67656774722377
 30
0.0
 10
61.42906960373394
 20
67.73568296581358
 30
0.0
 10
61.60067340140857
 20
67.78457797127916
 30
0.0
 10
61.7682561650513
 20
67.81979806635454
 30
0.0
 10
61.88561186249407
 20
67.83493408474371
 30
0.0
 10
61.93182701346626
 20
67.84089471034787
 30
0.0
  0
SPLINE
  5
D6
330
1F
100
AcDbEntity
  8
0
  6
Continuous
 62
     8
370
    15
100
AcDbSpline
210
0.0
220
0.0
230
1.0
 70
     8
 71
     3
 72
    40
 73
    36
 74
     0
 42
0.000000001
 43
0.00000001
 40
0.0
 40
0.0
 40
0.0
 40
0.0
 40
0.0250168417329073
 40
0.053267301776967
 40
0.0817394115886948
 40
0.1075614710613445
 40
0.1599863273418584
 40
0.1866442769066869
 40
0.2136319983484857
 40
0.2408158824774372
 40
0.268640729004035
 40
0.2966928087529919
 40
0.3227634138021422
 40
0.3757439356196799
 40
0.4027075025231726
 40
0.4289605890323824
 40
0.4823577410152269
 40
0.5095848943275023
 40
0.5399853338995633
 40
0.5706905139735859
 40
0.5956444729774344
 40
0.6463263174725115
 40
0.6721086616505909
 40
0.6992981234446056
 40
0.7267049165814259
 40
0.7548241037635881
 40
0.783198297806534
 40
0.8109781407104126
 40
0.8389771526802688
 40
0.8676383391093807
 40
0.8965159666433135
 40
0.9243467486812325
 40
0.9523663131799449
 40
0.9809870895336975
 40
1.0
 40
1.0
 40
1.0
 40
1.0
 10
9.27422584677244
 20
33.63285651818705
 30
0.0
 10
9.275656495184165
 20
33.62955310798094
 30
0.0
 10
9.278702714267201
 20
33.62251929651021
 30
0.0
 10
9.311862086191336
 20
33.54588055079711
 30
0.0
 10
9.365389884563536
 20
33.42209996751973
 30
0.0
 10
9.461656669705345
 20
33.19946806645772
 30
0.0
 10
9.59264083813964
 20
32.89661001773598
 30
0.0
 10
9.759836206507
 20
32.51053669548759
 30
0.0
 10
9.904791072461034
 20
32.17622700667931
 30
0.0
 10
10.06915362737162
 20
31.79774568831998
 30
0.0
 10
10.25284815695518
 20
31.37559856216748
 30
0.0
 10
10.4495119470932
 20
30.92369701938431
 30
0.0
 10
10.72359051111828
 20
30.29435144995126
 30
0.0
 10
11.01735417566624
 20
29.62073623155409
 30
0.0
 10
11.32759861474745
 20
28.91135741910671
 30
0.0
 10
11.64820981903579
 20
28.1800791838167
 30
0.0
 10
11.98132094014218
 20
27.42357473071295
 30
0.0
 10
12.33177575479538
 20
26.63327593214104
 30
0.0
 10
12.61076090890897
 20
26.00606347113028
 30
0.0
 10
12.87995506576963
 20
25.40295489954125
 30
0.0
 10
13.20682311368904
 20
24.67354693937138
 30
0.0
 10
13.50920535313738
 20
24.00314399598776
 30
0.0
 10
13.80161968788268
 20
23.36032116612986
 30
0.0
 10
14.01819727291247
 20
22.88741435069819
 30
0.0
 10
14.2281454673115
 20
22.43241674431483
 30
0.0
 10
14.42568413282783
 20
22.00809405800477
 30
0.0
 10
14.60559045331037
 20
21.62398253205513
 30
0.0
 10
14.7657259122423
 20
21.28378854041129
 30
0.0
 10
14.9061760098752
 20
20.9869470981773
 30
0.0
 10
15.02698508879185
 20
20.7328826993903
 30
0.0
 10
15.1251115549278
 20
20.52749952561055
 30
0.0
 10
15.2003175958462
 20
20.3707619760341
 30
0.0
 10
15.25173487818034
 20
20.26399087957857
 30
0.0
 10
15.28002614405384
 20
20.20544461548564
 30
0.0
 10
15.27987608794236
 20
20.20575917572451
 30
0.0
 10
15.2798161932837
 20
20.20588473194442
 30
0.0
  0
SPLINE
  5
D7
330
1F
100
AcDbEntity
  8
0
  6
Continuous
 62
     8
370
    15
100
AcDbSpline
210
0.0
220
0.0
230
1.0
 70
     8
 71
     3
 72
    39
 73
    35
 74
     0
 42
0.000000001
 43
0.00000001
 40
0.0
 40
0.0
 40
0.0
 40
0.0
 40
0.002072352701192
 40
0.0300905860687565
 40
0.0727651987679549
 40
0.0915312205486549
 40
0.1547194143915281
 40
0.173999746773182
 40
0.193478008625434
 40
0.2592525720272
 40
0.2794303866114523
 40
0.2988959363261542
 40
0.3646408227609234
 40
0.3847874419172073
 40
0.4042822980683718
 40
0.4700964124445011
 40
0.4902659055420852
 40
0.5124173049157481
 40
0.5347637417868237
 40
0.5572432369528859
 40
0.5767714773729253
 40
0.6426521070062738
 40
0.6628059438923246
 40
0.6831281862711944
 40
0.7311008367823224
 40
0.7521189970474671
 40
0.7732353470919275
 40
0.7933400595693711
 40
0.8612179953967822
 40
0.8820044744966872
 40
0.9018911651168389
 40
0.9689884059576603
 40
0.9895324984092347
 40
1.0
 40
1.0
 40
1.0
 40
1.0
 10
80.06341359262564
 20
20.20116407218525
 30
0.0
 10
80.06322247717051
 20
20.20076895263366
 30
0.0
 10
80.06044747847059
 20
20.19503181200699
 30
0.0
 10
80.07708989337168
 20
20.22942108301551
 30
0.0
 10
80.12149489214683
 20
20.3214632952003
 30
0.0
 10
80.22324555489782
 20
20.53334329963693
 30
0.0
 10
80.3449689870119
 20
20.78804526552677
 30
0.0
 10
80.50487226983853
 20
21.12539433456912
 30
0.0
 10
80.68635966077348
 20
21.5096676165327
 30
0.0
 10
80.90926645421867
 20
21.98442132998671
 30
0.0
 10
81.16455103295662
 20
22.53466478331953
 30
0.0
 10
81.43303902342377
 20
23.11686826100766
 30
0.0
 10
81.72849521208744
 20
23.7649839974293
 30
0.0
 10
82.03958013000297
 20
24.4540098999076
 30
0.0
 10
82.35741820283671
 20
25.16061305591229
 30
0.0
 10
82.6884486834113
 20
25.90176206796606
 30
0.0
 10
83.02954988996733
 20
26.66903575144171
 30
0.0
 10
83.23366156528917
 20
27.1291284926706
 30
0.0
 10
83.4435520637428
 20
27.60416686866426
 30
0.0
 10
83.64295758995662
 20
28.05691738344476
 30
0.0
 10
83.97203535836883
 20
28.80608489930678
 30
0.0
 10
84.28295077821207
 20
29.51723443870244
 30
0.0
 10
84.57508629596535
 20
30.18702245802584
 30
0.0
 10
84.80942063016228
 20
30.7247770728351
 30
0.0
 10
85.03003646307613
 20
31.23167972991581
 30
0.0
 10
85.23139543019379
 20
31.69440477908617
 30
0.0
 10
85.36086615985516
 20
31.99230224674431
 30
0.0
 10
85.57049888903873
 20
32.47532688810731
 30
0.0
 10
85.74252456131337
 20
32.87272460053285
 30
0.0
 10
85.8723702955444
 20
33.1729127619551
 30
0.0
 10
85.98243651156866
 20
33.42744366513155
 30
0.0
 10
86.0489723974591
 20
33.58130888304181
 30
0.0
 10
86.07178947443909
 20
33.63401672160589
 30
0.0
 10
86.07096429186028
 20
33.63211052286795
 30
0.0
 10
86.0706857637735
 20
33.63146711388052
 30
0.0
  0
ENDSEC
  0
SECTION
  2
OBJECTS
  0
DICTIONARY
  5
C
330
0
100
AcDbDictionary
281
     1
  3
ACAD_GROUP
350
D
  3
ACAD_LAYOUT
350
1A
  3
ACAD_MLINESTYLE
350
17
  3
ACAD_PLOTSETTINGS
350
19
  3
ACAD_PLOTSTYLENAME
350
E
  3
ACAD_SCALELIST
350
47
  0
DICTIONARY
  5
D
102
{ACAD_REACTORS
330
C
102
}
330
C
100
AcDbDictionary
281
     1
  0
DICTIONARY
  5
1A
102
{ACAD_REACTORS
330
C
102
}
330
C
100
AcDbDictionary
281
     1
  3
Layout1
350
1E
  3
Layout2
350
26
  3
Model
350
22
  0
DICTIONARY
  5
17
102
{ACAD_REACTORS
330
C
102
}
330
C
100
AcDbDictionary
281
     1
  3
Standard
350
18
  0
DICTIONARY
  5
19
102
{ACAD_REACTORS
330
C
102
}
330
C
100
AcDbDictionary
281
     1
  0
ACDBDICTIONARYWDFLT
  5
E
102
{ACAD_REACTORS
330
C
102
}
330
C
100
AcDbDictionary
281
     1
  3
Normal
350
F
100
AcDbDictionaryWithDefault
340
F
  0
DICTIONARY
  5
47
102
{ACAD_REACTORS
330
C
102
}
330
C
100
AcDbDictionary
281
     1
  3
A0
350
48
  3
A1
350
49
  3
A2
350
4A
  3
A3
350
4B
  3
A4
350
4C
  3
A5
350
4D
  3
A6
350
4E
  3
A7
350
4F
  3
A8
350
50
  3
A9
350
51
  3
B0
350
52
  3
B1
350
53
  3
B2
350
54
  3
B3
350
55
  3
B4
350
56
  3
B5
350
57
  3
B6
350
58
  3
B7
350
59
  3
B8
350
5A
  3
B9
350
5B
  3
C0
350
5C
  3
C1
350
5D
  3
C2
350
5E
  3
C3
350
5F
  3
C4
350
60
  3
C5
350
61
  3
C6
350
62
  3
C7
350
63
  3
C8
350
64
  3
C9
350
65
  3
D0
350
66
  3
D1
350
67
  3
D2
350
68
  0
LAYOUT
  5
1E
102
{ACAD_REACTORS
330
1A
102
}
330
1A
100
AcDbPlotSettings
  1

  2
none_device
  4

  6

 40
0.0
 41
0.0
 42
0.0
 43
0.0
 44
0.0
 45
0.0
 46
0.0
 47
0.0
 48
0.0
 49
0.0
140
0.0
141
0.0
142
1.0
143
1.0
 70
   688
 72
     1
 73
     0
 74
     5
  7

 75
    16
147
1.0
148
0.0
149
0.0
100
AcDbLayout
  1
Layout1
 70
     1
 71
     1
 10
0.0
 20
0.0
 11
420.0
 21
297.0
 12
0.0
 22
0.0
 32
0.0
 14
1.0000000000E+20
 24
1.0000000000E+20
 34
1.0000000000E+20
 15
-1.0000000000E+20
 25
-1.0000000000E+20
 35
-1.0000000000E+20
146
0.0
 13
0.0
 23
0.0
 33
0.0
 16
1.0
 26
0.0
 36
0.0
 17
0.0
 27
1.0
 37
0.0
 76
     0
330
1B
  0
LAYOUT
  5
26
102
{ACAD_REACTORS
330
1A
102
}
330
1A
100
AcDbPlotSettings
  1

  2
none_device
  4

  6

 40
0.0
 41
0.0
 42
0.0
 43
0.0
 44
0.0
 45
0.0
 46
0.0
 47
0.0
 48
0.0
 49
0.0
140
0.0
141
0.0
142
1.0
143
1.0
 70
   688
 72
     1
 73
     0
 74
     5
  7

 75
    16
147
1.0
148
0.0
149
0.0
100
AcDbLayout
  1
Layout2
 70
     1
 71
     2
 10
0.0
 20
0.0
 11
0.0
 21
0.0
 12
0.0
 22
0.0
 32
0.0
 14
0.0
 24
0.0
 34
0.0
 15
0.0
 25
0.0
 35
0.0
146
0.0
 13
0.0
 23
0.0
 33
0.0
 16
1.0
 26
0.0
 36
0.0
 17
0.0
 27
1.0
 37
0.0
 76
     0
330
23
  0
LAYOUT
  5
22
102
{ACAD_REACTORS
330
1A
102
}
330
1A
100
AcDbPlotSettings
  1

  2
none_device
  4
Letter_(8.50_x_11.00_Inches)
  6

 40
6.35
 41
6.35
 42
6.35000508
 43
6.35000508
 44
215.9
 45
279.4
 46
0.0
 47
0.0
 48
0.0
 49
0.0
140
0.0
141
0.0
142
1.0
143
1.0
 70
  1712
 72
     1
 73
     0
 74
     0
  7

 75
     0
147
1.0
148
0.0
149
0.0
100
AcDbLayout
  1
Model
 70
     1
 71
     0
 10
0.0
 20
0.0
 11
100.0
 21
100.0
 12
0.0
 22
0.0
 32
0.0
 14
0.0
 24
0.0
 34
0.0
 15
100.0
 25
100.0
 35
0.0
146
0.0
 13
0.0
 23
0.0
 33
0.0
 16
1.0
 26
0.0
 36
0.0
 17
0.0
 27
1.0
 37
0.0
 76
     0
330
1F
331
29
  0
MLINESTYLE
  5
18
102
{ACAD_REACTORS
330
17
102
}
330
17
100
AcDbMlineStyle
  2
Standard
 70
     0
  3

 62
   256
 51
90.0
 52
90.0
 71
     2
 49
0.5
 62
   256
  6
BYLAYER
 49
-0.5
 62
   256
  6
BYLAYER
  0
ACDBPLACEHOLDER
  5
F
102
{ACAD_REACTORS
330
E
102
}
330
E
  0
SCALE
  5
48
102
{ACAD_REACTORS
330
47
102
}
330
47
100
AcDbScale
 70
     0
300
1:1
140
1.0
141
1.0
290
     1
  0
SCALE
  5
49
102
{ACAD_REACTORS
330
47
102
}
330
47
100
AcDbScale
 70
     0
300
1:2
140
1.0
141
2.0
290
     0
  0
SCALE
  5
4A
102
{ACAD_REACTORS
330
47
102
}
330
47
100
AcDbScale
 70
     0
300
1:4
140
1.0
141
4.0
290
     0
  0
SCALE
  5
4B
102
{ACAD_REACTORS
330
47
102
}
330
47
100
AcDbScale
 70
     0
300
1:5
140
1.0
141
5.0
290
     0
  0
SCALE
  5
4C
102
{ACAD_REACTORS
330
47
102
}
330
47
100
AcDbScale
 70
     0
300
1:8
140
1.0
141
8.0
290
     0
  0
SCALE
  5
4D
102
{ACAD_REACTORS
330
47
102
}
330
47
100
AcDbScale
 70
     0
300
1:10
140
1.0
141
10.0
290
     0
  0
SCALE
  5
4E
102
{ACAD_REACTORS
330
47
102
}
330
47
100
AcDbScale
 70
     0
300
1:16
140
1.0
141
16.0
290
     0
  0
SCALE
  5
4F
102
{ACAD_REACTORS
330
47
102
}
330
47
100
AcDbScale
 70
     0
300
1:20
140
1.0
141
20.0
290
     0
  0
SCALE
  5
50
102
{ACAD_REACTORS
330
47
102
}
330
47
100
AcDbScale
 70
     0
300
1:30
140
1.0
141
30.0
290
     0
  0
SCALE
  5
51
102
{ACAD_REACTORS
330
47
102
}
330
47
100
AcDbScale
 70
     0
300
1:40
140
1.0
141
40.0
290
     0
  0
SCALE
  5
52
102
{ACAD_REACTORS
330
47
102
}
330
47
100
AcDbScale
 70
     0
300
1:50
140
1.0
141
50.0
290
     0
  0
SCALE
  5
53
102
{ACAD_REACTORS
330
47
102
}
330
47
100
AcDbScale
 70
     0
300
1:100
140
1.0
141
100.0
290
     0
  0
SCALE
  5
54
102
{ACAD_REACTORS
330
47
102
}
330
47
100
AcDbScale
 70
     0
300
2:1
140
2.0
141
1.0
290
     0
  0
SCALE
  5
55
102
{ACAD_REACTORS
330
47
102
}
330
47
100
AcDbScale
 70
     0
300
4:1
140
4.0
141
1.0
290
     0
  0
SCALE
  5
56
102
{ACAD_REACTORS
330
47
102
}
330
47
100
AcDbScale
 70
     0
300
8:1
140
8.0
141
1.0
290
     0
  0
SCALE
  5
57
102
{ACAD_REACTORS
330
47
102
}
330
47
100
AcDbScale
 70
     0
300
10:1
140
10.0
141
1.0
290
     0
  0
SCALE
  5
58
102
{ACAD_REACTORS
330
47
102
}
330
47
100
AcDbScale
 70
     0
300
100:1
140
100.0
141
1.0
290
     0
  0
SCALE
  5
59
102
{ACAD_REACTORS
330
47
102
}
330
47
100
AcDbScale
 70
     0
300
1/128" = 1'-0"
140
0.0078125
141
12.0
290
     0
  0
SCALE
  5
5A
102
{ACAD_REACTORS
330
47
102
}
330
47
100
AcDbScale
 70
     0
300
1/64" = 1'-0"
140
0.015625
141
12.0
290
     0
  0
SCALE
  5
5B
102
{ACAD_REACTORS
330
47
102
}
330
47
100
AcDbScale
 70
     0
300
1/32" = 1'-0"
140
0.03125
141
12.0
290
     0
  0
SCALE
  5
5C
102
{ACAD_REACTORS
330
47
102
}
330
47
100
AcDbScale
 70
     0
300
1/16" = 1'-0"
140
0.0625
141
12.0
290
     0
  0
SCALE
  5
5D
102
{ACAD_REACTORS
330
47
102
}
330
47
100
AcDbScale
 70
     0
300
3/32" = 1'-0"
140
0.09375
141
12.0
290
     0
  0
SCALE
  5
5E
102
{ACAD_REACTORS
330
47
102
}
330
47
100
AcDbScale
 70
     0
300
1/8" = 1'-0"
140
0.125
141
12.0
290
     0
  0
SCALE
  5
5F
102
{ACAD_REACTORS
330
47
102
}
330
47
100
AcDbScale
 70
     0
300
3/16" = 1'-0"
140
0.1875
141
12.0
290
     0
  0
SCALE
  5
60
102
{ACAD_REACTORS
330
47
102
}
330
47
100
AcDbScale
 70
     0
300
1/4" = 1'-0"
140
0.25
141
12.0
290
     0
  0
SCALE
  5
61
102
{ACAD_REACTORS
330
47
102
}
330
47
100
AcDbScale
 70
     0
300
3/8" = 1'-0"
140
0.375
141
12.0
290
     0
  0
SCALE
  5
62
102
{ACAD_REACTORS
330
47
102
}
330
47
100
AcDbScale
 70
     0
300
1/2" = 1'-0"
140
0.5
141
12.0
290
     0
  0
SCALE
  5
63
102
{ACAD_REACTORS
330
47
102
}
330
47
100
AcDbScale
 70
     0
300
3/4" = 1'-0"
140
0.75
141
12.0
290
     0
  0
SCALE
  5
64
102
{ACAD_REACTORS
330
47
102
}
330
47
100
AcDbScale
 70
     0
300
1" = 1'-0"
140
1.0
141
12.0
290
     0
  0
SCALE
  5
65
102
{ACAD_REACTORS
330
47
102
}
330
47
100
AcDbScale
 70
     0
300
1-1/2" = 1'-0"
140
1.5
141
12.0
290
     0
  0
SCALE
  5
66
102
{ACAD_REACTORS
330
47
102
}
330
47
100
AcDbScale
 70
     0
300
3" = 1'-0"
140
3.0
141
12.0
290
     0
  0
SCALE
  5
67
102
{ACAD_REACTORS
330
47
102
}
330
47
100
AcDbScale
 70
     0
300
6" = 1'-0"
140
6.0
141
12.0
290
     0
  0
SCALE
  5
68
102
{ACAD_REACTORS
330
47
102
}
330
47
100
AcDbScale
 70
     0
300
1'-0" = 1'-0"
140
12.0
141
12.0
290
     0
  0
ENDSEC
  0
EOF
