<?xml version="1.0" encoding="UTF-8" standalone="no"?>
<!-- Created by Vectric (http://www.vectric.com/) -->

<svg
   xmlns:dc="http://purl.org/dc/elements/1.1/"
   xmlns:cc="http://creativecommons.org/ns#"
   xmlns:rdf="http://www.w3.org/1999/02/22-rdf-syntax-ns#"
   xmlns:svg="http://www.w3.org/2000/svg"
   xmlns="http://www.w3.org/2000/svg"
   xmlns:sodipodi="http://sodipodi.sourceforge.net/DTD/sodipodi-0.dtd"
   xmlns:inkscape="http://www.inkscape.org/namespaces/inkscape"
   width="2500.00000000mm"
   height="1345.00000000mm"
   viewBox="0 0 2500.00000000 1345.00000000"
   id="svg2"
   version="1.1"
   sodipodi:docname="bureau-haut_v2.svg"
   inkscape:version="0.92.4 (5da689c313, 2019-01-14)">
  <metadata
     id="metadata367">
    <rdf:RDF>
      <cc:Work
         rdf:about="">
        <dc:format>image/svg+xml</dc:format>
        <dc:type
           rdf:resource="http://purl.org/dc/dcmitype/StillImage" />
      </cc:Work>
    </rdf:RDF>
  </metadata>
  <defs
     id="defs365" />
  <sodipodi:namedview
     pagecolor="#ffffff"
     bordercolor="#666666"
     borderopacity="1"
     objecttolerance="10"
     gridtolerance="10"
     guidetolerance="10"
     inkscape:pageopacity="0"
     inkscape:pageshadow="2"
     inkscape:window-width="1920"
     inkscape:window-height="1017"
     id="namedview363"
     showgrid="false"
     inkscape:zoom="0.10686505"
     inkscape:cx="4979.7722"
     inkscape:cy="2694.0874"
     inkscape:window-x="-8"
     inkscape:window-y="-8"
     inkscape:window-maximized="1"
     inkscape:current-layer="580cefc5-00bf-4839-8cb7-625e61d7dd14" />
  <g
     inkscape:groupmode="layer"
     id="85667243-1302-4a85-b3ac-c7bf39b332ec"
     inkscape:label="Prévisualisation du parcours d'outil" />
  <g
     inkscape:groupmode="layer"
     id="c480e819-3b08-49d7-b519-95aa86342b91"
     inkscape:label="Brut">
    <path
       style="fill:none;stroke-width:0.280000;stroke-linecap:round;stroke-linejoin:round;stroke-opacity:1;stroke:#000000;"
       d="M 0.000000,1230.000000 L 2500.000000,1230.000000 L 2500.000000,10.000000 L 0.000000,10.000000 L 0.000000,1230.000000 "
       id="path3" />
  </g>
  <g
     inkscape:groupmode="layer"
     id="9efe7ed3-481e-44cd-abf8-ea0348acefb1"
     inkscape:label="GROUP0">
    <path
       style="fill:none;stroke-width:0.280000;stroke-linecap:round;stroke-linejoin:round;stroke-opacity:1;stroke:#000000;"
       d="M 130.000000,1170.000000 L 130.000000,1152.000000 A 6.010000,6.010000 0 0,1 142.020000,1152.000000 L 217.980000,1152.000000 A 6.010000,6.010000 0 0,1 230.000000,1152.000000 L 230.000000,1170.000000 A 6.010000,6.010000 0 0,1 217.980000,1170.000000 L 142.020000,1170.000000 A 6.010000,6.010000 0 0,1 130.000000,1170.000000 "
       id="path6" />
    <path
       style="fill:none;stroke-width:0.280000;stroke-linecap:round;stroke-linejoin:round;stroke-opacity:1;stroke:#000000;"
       d="M 150.000000,649.500000 L 150.000000,590.500000 A 18.000000,18.000000 0 0,1 168.000000,572.500000 L 177.000000,572.500000 A 18.000000,18.000000 0 0,1 195.000000,590.500000 L 195.000000,649.500000 A 18.000000,18.000000 0 0,1 177.000000,667.500000 L 168.000000,667.500000 A 18.000000,18.000000 0 0,1 150.000000,649.500000 "
       id="path8" />
    <path
       style="fill:none;stroke-width:0.280000;stroke-linecap:round;stroke-linejoin:round;stroke-opacity:1;stroke:#000000;"
       d="M 707.980000,629.000000 L 632.020000,629.000000 A 6.010000,6.010000 0 0,1 620.000000,629.000000 L 620.000000,611.000000 A 6.010000,6.010000 0 0,1 632.020000,611.000000 L 707.980000,611.000000 A 6.010000,6.010000 0 0,1 720.000000,611.000000 L 720.000000,629.000000 A 6.010000,6.010000 0 0,1 707.980000,629.000000 "
       id="path10" />
    <path
       style="fill:none;stroke-width:0.280000;stroke-linecap:round;stroke-linejoin:round;stroke-opacity:1;stroke:#000000;"
       d="M 130.000000,88.000000 L 130.000000,70.000000 A 6.010000,6.010000 0 0,1 142.020000,70.000000 L 217.980000,70.000000 A 6.010000,6.010000 0 0,1 230.000000,70.000000 L 230.000000,88.000000 A 6.010000,6.010000 0 0,1 217.980000,88.000000 L 142.020000,88.000000 A 6.010000,6.010000 0 0,1 130.000000,88.000000 "
       id="path12" />
    <path
       style="fill:none;stroke-width:0.280000;stroke-linecap:round;stroke-linejoin:round;stroke-opacity:1;stroke:#000000;"
       d="M 1537.876747,842.935171 L 1537.876747,918.895171 A 6.010000,6.010000 0 0,1 1537.876747,930.915171 L 1519.876747,930.915171 A 6.010000,6.010000 0 0,1 1519.876747,918.895171 L 1519.876747,842.935171 A 6.010000,6.010000 0 0,1 1519.876747,830.915171 L 1537.876747,830.915171 A 6.010000,6.010000 0 0,1 1537.876747,842.935171 "
       id="path14" />
    <path
       style="fill:none;stroke-width:0.280000;stroke-linecap:round;stroke-linejoin:round;stroke-opacity:1;stroke:#000000;"
       d="M 782.426407,887.573593 L 467.573593,1202.426407 A 60.000000,60.000000 0 0,1 425.147186,1220.000000 L 100.000000,1220.000000 L 68.000000,1220.000000 A 18.000000,18.000000 0 0,1 50.000000,1202.000000 L 50.000000,38.000000 A 18.000000,18.000000 0 0,1 68.000000,20.000000 L 100.000000,20.000000 L 425.147186,20.000000 A 60.000000,60.000000 0 0,1 467.573593,37.573593 L 782.426407,352.426407 A 60.000000,60.000000 0 0,1 800.000000,394.852814 L 800.000000,845.147186 A 60.000000,60.000000 0 0,1 782.426407,887.573593 "
       id="path16" />
    <path
       style="fill:none;stroke-width:0.280000;stroke-linecap:round;stroke-linejoin:round;stroke-opacity:1;stroke:#000000;"
       d="M 1767.390169,273.031206 L 1767.390168,373.031206 L 1785.390167,373.031206 A 6.010000,6.010000 0 0,1 1785.390167,385.051206 L 1785.390168,605.011206 A 6.010000,6.010000 0 0,1 1785.390169,617.031206 L 1767.390169,617.031206 L 1767.390169,717.031206 L 1867.390169,717.031206 L 1867.390169,273.031206 L 1767.390169,273.031206 "
       id="path18" />
    <path
       style="fill:none;stroke-width:0.280000;stroke-linecap:round;stroke-linejoin:round;stroke-opacity:1;stroke:#000000;"
       d="M 1063.999988,111.508845 L 1079.000012,111.508845 A 6.010000,6.010000 0 0,0 1079.000012,99.488845 L 1079.000012,71.508845 L 1973.000012,71.508845 A 18.000000,18.000000 0 0,1 1991.000012,89.508845 L 1991.000012,146.752375 A 18.000000,18.000000 0 0,1 1976.530103,164.402827 L 1776.623490,204.384150 A 60.000000,60.000000 0 0,0 1730.802643,246.377271 L 1589.786541,728.561361 A 18.000000,18.000000 0 0,1 1572.510196,741.508845 L 1541.000012,741.508845 L 1541.000012,713.528845 A 6.010000,6.010000 0 0,0 1541.000012,701.508845 L 1526.000012,701.508845 L 1526.000012,601.508845 L 1541.000012,601.508845 A 6.010000,6.010000 0 0,0 1541.000012,589.488845 L 1541.000012,260.008269 A 6.010000,6.010000 0 0,0 1532.500589,251.508845 L 1079.000012,251.508845 L 1079.000012,223.528845 A 6.010000,6.010000 0 0,0 1079.000012,211.508845 L 1063.999988,211.508845 L 1063.999988,111.508845 "
       id="path20" />
    <path
       style="fill:none;stroke-width:0.280000;stroke-linecap:round;stroke-linejoin:round;stroke-opacity:1;stroke:#000000;"
       d="M 983.959348,629.000000 L 907.999348,629.000000 A 6.010000,6.010000 0 0,1 895.979348,629.000000 L 895.979348,611.000000 A 6.010000,6.010000 0 0,1 907.999348,611.000000 L 983.959348,611.000000 A 6.010000,6.010000 0 0,1 995.979348,611.000000 L 995.979348,629.000000 A 6.010000,6.010000 0 0,1 983.959348,629.000000 "
       id="path22" />
    <path
       style="fill:none;stroke-width:0.280000;stroke-linecap:round;stroke-linejoin:round;stroke-opacity:1;stroke:#000000;"
       d="M 1537.876747,970.915171 L 1390.357693,970.915171 A 60.000000,60.000000 0 0,1 1373.728054,968.564587 L 1082.887855,884.668375 A 18.000000,18.000000 0 0,1 1069.876747,867.373551 L 1069.876747,808.915171 A 18.000000,18.000000 0 0,1 1087.876747,790.915171 L 1981.876747,790.915171 L 1981.876747,818.895171 A 6.010000,6.010000 0 0,0 1981.876747,830.915171 L 1996.876771,830.915171 L 1996.876771,930.915171 L 1990.376170,930.915171 A 6.010000,6.010000 0 0,0 1981.876747,939.414595 L 1981.876747,952.915171 L 1893.896747,952.915171 A 6.010000,6.010000 0 0,0 1881.876747,952.915171 L 1881.876747,970.915171 L 1637.876747,970.915171 L 1637.876747,952.915171 A 6.010000,6.010000 0 0,0 1625.856747,952.915171 L 1549.896747,952.915171 A 6.010000,6.010000 0 0,0 1537.876747,952.915171 L 1537.876747,970.915171 "
       id="path24" />
    <path
       style="fill:none;stroke-width:0.280000;stroke-linecap:round;stroke-linejoin:round;stroke-opacity:1;stroke:#000000;"
       d="M 995.979348,73.000000 L 995.979348,88.000000 A 6.010000,6.010000 0 0,0 1007.999348,88.000000 L 1035.979348,88.000000 L 1035.979348,500.000000 A 80.000000,80.000000 0 0,0 1115.979348,580.000000 L 1385.979348,580.000000 L 1385.979348,611.000000 L 1357.999348,611.000000 A 6.010000,6.010000 0 0,0 1345.979348,611.000000 L 1345.979348,629.000000 A 6.010000,6.010000 0 0,0 1357.999348,629.000000 L 1385.979348,629.000000 L 1385.979348,660.000000 L 1115.979348,660.000000 A 80.000000,80.000000 0 0,0 1035.979348,740.000000 L 1035.979348,1152.000000 L 1007.999348,1152.000000 A 6.010000,6.010000 0 0,0 995.979348,1152.000000 L 995.979348,1167.000000 L 895.979348,1167.000000 L 895.979348,1152.000000 A 6.010000,6.010000 0 0,0 883.959348,1152.000000 L 855.979348,1152.000000 L 855.979348,88.000000 L 883.959348,88.000000 A 6.010000,6.010000 0 0,0 895.979348,88.000000 L 895.979348,73.000000 L 995.979348,73.000000 "
       id="path26" />
    <path
       style="fill:none;stroke-width:0.280000;stroke-linecap:round;stroke-linejoin:round;stroke-opacity:1;stroke:#000000;"
       d="M 2010.713764,714.688343 L 2010.713764,614.688343 L 1992.713765,614.688343 A 6.010000,6.010000 0 0,1 1992.713765,602.668343 L 1992.713764,382.708343 A 6.010000,6.010000 0 0,1 1992.713764,370.688343 L 2010.713764,370.688343 L 2010.713764,270.688343 L 1910.713764,270.688343 L 1910.713764,714.688343 L 2010.713764,714.688343 "
       id="path28" />
    <path
       style="fill:none;stroke-width:0.280000;stroke-linecap:round;stroke-linejoin:round;stroke-opacity:1;stroke:#000000;"
       d="M 1537.600826,1147.905605 L 1537.600826,1071.945605 A 6.010000,6.010000 0 0,0 1537.600826,1059.925605 L 1519.600826,1059.925605 A 6.010000,6.010000 0 0,0 1519.600826,1071.945605 L 1519.600826,1147.905605 A 6.010000,6.010000 0 0,0 1519.600826,1159.925605 L 1537.600826,1159.925605 A 6.010000,6.010000 0 0,0 1537.600826,1147.905605 "
       id="path30" />
    <path
       style="fill:none;stroke-width:0.280000;stroke-linecap:round;stroke-linejoin:round;stroke-opacity:1;stroke:#000000;"
       d="M 1537.600826,1019.925605 L 1390.081772,1019.925605 A 60.000000,60.000000 0 0,0 1373.452133,1022.276189 L 1082.611934,1106.172400 A 18.000000,18.000000 0 0,0 1069.600826,1123.467225 L 1069.600826,1181.925605 A 18.000000,18.000000 0 0,0 1087.600826,1199.925605 L 1981.600826,1199.925605 L 1981.600826,1171.945605 A 6.010000,6.010000 0 0,1 1981.600826,1159.925605 L 1996.600851,1159.925605 L 1996.600851,1059.925605 L 1990.100250,1059.925605 A 6.010000,6.010000 0 0,1 1981.600826,1051.426181 L 1981.600826,1037.925605 L 1893.620826,1037.925604 A 6.010000,6.010000 0 0,1 1881.600826,1037.925604 L 1881.600826,1019.925604 L 1637.600826,1019.925605 L 1637.600826,1037.925605 A 6.010000,6.010000 0 0,1 1625.580826,1037.925605 L 1549.620826,1037.925605 A 6.010000,6.010000 0 0,1 1537.600826,1037.925605 L 1537.600826,1019.925605 "
       id="path32" />
    <path
       style="fill:none;stroke-width:0.280000;stroke-linecap:round;stroke-linejoin:round;stroke-opacity:1;stroke:#000000;"
       d="M 2053.056000,0.000000 L 2053.056000,1240.000000 "
       id="path34" />
  </g>
  <g
     inkscape:groupmode="layer"
     id="580cefc5-00bf-4839-8cb7-625e61d7dd14"
     inkscape:label="Tête vis TFHC M5" />
</svg>
