<?xml version="1.0" encoding="UTF-8" standalone="no"?>
<!-- Created by Vectric (http://www.vectric.com/) -->

<svg
   xmlns:dc="http://purl.org/dc/elements/1.1/"
   xmlns:cc="http://creativecommons.org/ns#"
   xmlns:rdf="http://www.w3.org/1999/02/22-rdf-syntax-ns#"
   xmlns:svg="http://www.w3.org/2000/svg"
   xmlns="http://www.w3.org/2000/svg"
   xmlns:sodipodi="http://sodipodi.sourceforge.net/DTD/sodipodi-0.dtd"
   xmlns:inkscape="http://www.inkscape.org/namespaces/inkscape"
   width="1000mm"
   height="600mm"
   viewBox="0 0 1000 600"
   id="svg2"
   version="1.1"
   sodipodi:docname="arbre cles usb.svg"
   inkscape:version="0.92.0 r15299">
  <metadata
     id="metadata18">
    <rdf:RDF>
      <cc:Work
         rdf:about="">
        <dc:format>image/svg+xml</dc:format>
        <dc:type
           rdf:resource="http://purl.org/dc/dcmitype/StillImage" />
        <dc:title />
      </cc:Work>
    </rdf:RDF>
  </metadata>
  <defs
     id="defs16" />
  <sodipodi:namedview
     pagecolor="#ffffff"
     bordercolor="#666666"
     borderopacity="1"
     objecttolerance="10"
     gridtolerance="10"
     guidetolerance="10"
     inkscape:pageopacity="0"
     inkscape:pageshadow="2"
     inkscape:window-width="1920"
     inkscape:window-height="1005"
     id="namedview14"
     showgrid="false"
     inkscape:document-units="mm"
     inkscape:zoom="0.64192202"
     inkscape:cx="770.78541"
     inkscape:cy="392.48169"
     inkscape:window-x="-9"
     inkscape:window-y="-9"
     inkscape:window-maximized="1"
     inkscape:current-layer="1d64f8a4-5ba6-4df2-b53c-fe90734bf260" />
  <g
     inkscape:groupmode="layer"
     id="1d64f8a4-5ba6-4df2-b53c-fe90734bf260"
     inkscape:label="Layer0"
     style="stroke:#000000"
     transform="translate(0,450)">
    <path
       style="fill:none;stroke:#ff0000;stroke-width:0.1;stroke-linecap:round;stroke-linejoin:round;stroke-miterlimit:4;stroke-dasharray:none;stroke-opacity:1"
       d="m 51.050358,144.94921 h 25 v -10 h 17.5 v 10 h 15.000002 v -10 h 17.5 v 10 h 25 v -10 l -0.65264,-0.0428 -0.64146,-0.1276 -0.61932,-0.21023 -0.58658,-0.28927 -0.54381,-0.36336 -0.49173,-0.43123 -0.43123,-0.49173 -0.36336,-0.54381 -0.28927,-0.58658 -0.21023,-0.61932 -0.1276,-0.64147 -0.0428,-0.65263 -0.0428,-0.65263 -0.1276,-0.64146 -0.21023,-0.61932 -0.28927,-0.58659 -0.36336,-0.5438 -0.43123,-0.49173 -0.49173,-0.43123 -0.5438,-0.36336 -0.58659,-0.28927 -0.61932,-0.21024 -0.64146,-0.12759 -0.65263,-0.0428 h -25 l -0.65264,-0.0428 -0.64146,-0.1276 -0.61932,-0.21023 -0.58658,-0.28927 -0.54381,-0.36336 -0.49173,-0.43123 -0.43123,-0.49173 -0.36336,-0.54381 -0.28927,-0.58658 -0.21023,-0.61932 -0.1276,-0.64147 -0.0428,-0.65263 V 54.949212 l 0.0428,-0.65264 0.1276,-0.64146 0.21023,-0.61932 0.28927,-0.58658 0.36336,-0.54381 0.43123,-0.49173 0.49173,-0.43123 0.54381,-0.36336 0.58658,-0.28927 0.61932,-0.21023 0.64146,-0.1276 0.65264,-0.0428 h 80 l 0.65263,-0.0428 0.64146,-0.12759 0.61932,-0.21024 0.58659,-0.28927 0.5438,-0.36336 0.49173,-0.43123 0.43123,-0.49173 0.36336,-0.5438 0.28927,-0.58659 0.21023,-0.61932 0.1276,-0.64146 0.0428,-0.65263 v -17.5 l -0.0214,-0.32632 -0.0638,-0.32073 -0.10512,-0.30966 -0.14463,-0.29329 -0.18168,-0.27191 -0.21562,-0.24586 -0.24586,-0.21562 -0.2719,-0.18168 -0.2933,-0.14463 -0.30966,-0.10512 -0.32073,-0.0638 -0.32631,-0.0214 -0.65264,0.0428 -0.64146,0.1276 -0.61932,0.21023 -0.58658,0.28927 -0.54381,0.36336 -0.49173,0.43123 -0.43123,0.49173 -0.36336,0.54381 -0.28927,0.58658 -0.21023,0.61932 -0.1276,0.64147 -0.0428,0.65263 h -20 l -0.0428,-0.65263 -0.1276,-0.64147 -0.21023,-0.61932 -0.28927,-0.58658 -0.36336,-0.54381 -0.43123,-0.49173 -0.49173,-0.43123 -0.5438,-0.36336 -0.58659,-0.28927 -0.61932,-0.21023 -0.64146,-0.1276 -0.65263,-0.0428 -0.65264,0.0428 -0.64146,0.1276 -0.61932,0.21023 -0.58658,0.28927 -0.54381,0.36336 -0.49173,0.43123 -0.43123,0.49173 -0.36336,0.54381 -0.28927,0.58658 -0.21023,0.61932 -0.1276,0.64147 -0.0428,0.65263 h -20 l -0.0428,-0.65263 -0.1276,-0.64147 -0.21023,-0.61932 -0.28927,-0.58658 -0.36336,-0.54381 -0.43123,-0.49173 -0.49173,-0.43123 -0.5438,-0.36336 -0.58659,-0.28927 -0.61932,-0.21023 -0.64146,-0.1276 -0.65263,-0.0428 -0.65264,0.0428 -0.64146,0.1276 -0.61932,0.21023 -0.58658,0.28927 -0.54381,0.36336 -0.49173,0.43123 -0.43123,0.49173 -0.36336,0.54381 -0.28927,0.58658 -0.21023,0.61932 -0.1276,0.64147 -0.0428,0.65263 h -20 l -0.0428,-0.65263 -0.1276,-0.64147 -0.21023,-0.61932 -0.28927,-0.58658 -0.36336,-0.54381 -0.43123,-0.49173 -0.49173,-0.43123 -0.5438,-0.36336 -0.58659,-0.28927 -0.61932,-0.21023 -0.64146,-0.1276 -0.65263,-0.0428 H 93.550168 l -0.65264,0.0428 -0.64146,0.1276 -0.61932,0.21023 -0.58658,0.28927 -0.54381,0.36336 -0.49173,0.43123 -0.43123,0.49173 -0.36336,0.54381 -0.28927,0.58658 -0.21023,0.61932 -0.1276,0.64147 -0.0428,0.65263 h -20 l -0.0428,-0.65263 -0.1276,-0.64147 -0.21023,-0.61932 -0.28927,-0.58658 -0.36336,-0.54381 -0.43123,-0.49173 -0.49173,-0.43123 -0.5438,-0.36336 -0.58659,-0.28927 -0.61932,-0.21023 -0.64146,-0.1276 -0.65263,-0.0428 -0.65264,0.0428 -0.64146,0.1276 -0.61932,0.21023 -0.58658,0.28927 -0.54381,0.36336 -0.49173,0.43123 -0.43123,0.49173 -0.36336,0.54381 -0.28927,0.58658 -0.21023,0.61932 -0.1276,0.64147 -0.0428,0.65263 H 38.55009 l -0.0428,-0.65263 -0.1276,-0.64147 -0.21023,-0.61932 -0.28927,-0.58658 -0.36336,-0.54381 -0.43123,-0.49173 -0.49173,-0.43123 -0.5438,-0.36336 -0.58659,-0.28927 -0.61932,-0.21023 -0.64146,-0.1276 -0.65263,-0.0428 -0.65264,0.0428 -0.64146,0.1276 -0.61932,0.21023 -0.58658,0.28927 -0.54381,0.36336 -0.49173,0.43123 -0.43123,0.49173 -0.36336,0.54381 -0.28927,0.58658 -0.21023,0.61932 -0.1276,0.64147 -0.0428,0.65263 h -20 l -0.0428,-0.65263 -0.1276,-0.64147 -0.21023,-0.61932 -0.28927,-0.58658 -0.36336,-0.54381 -0.43123,-0.49173 -0.49173,-0.43123 -0.5438,-0.36336 -0.58659,-0.28927 -0.61932,-0.21023 -0.64146,-0.1276 -0.65263,-0.0428 -0.32632,0.0214 -0.32073,0.0638 -0.30966,0.10512 -0.29329,0.14463 -0.27191,0.18168 -0.24586,0.21562 -0.21562,0.24586 -0.18168,0.27191 -0.14463,0.29329 -0.10512,0.30966 -0.0638,0.32073 -0.0214,0.32632 v 17.5 l 0.0428,0.65263 0.1276,0.64146 0.21023,0.61932 0.28927,0.58659 0.36336,0.5438 0.43123,0.49173 0.49173,0.43123 0.54381,0.36336 0.58658,0.28927 0.61932,0.21024 0.64146,0.12759 0.65264,0.0428 h 79.999998 l 0.65263,0.0428 0.64146,0.1276 0.61932,0.21023 0.58659,0.28927 0.5438,0.36336 0.49173,0.43123 0.43123,0.49173 0.36336,0.54381 0.28927,0.58658 0.21023,0.61932 0.1276,0.64146 0.0428,0.65264 v 64.999998 l -0.0428,0.65263 -0.1276,0.64147 -0.21023,0.61932 -0.28927,0.58658 -0.36336,0.54381 -0.43123,0.49173 -0.49173,0.43123 -0.5438,0.36336 -0.58659,0.28927 -0.61932,0.21023 -0.64146,0.1276 -0.65263,0.0428 h -25 l -0.65264,0.0428 -0.64146,0.12759 -0.61932,0.21024 -0.58658,0.28927 -0.54381,0.36336 -0.49173,0.43123 -0.43123,0.49173 -0.36336,0.5438 -0.28927,0.58659 -0.21023,0.61932 -0.1276,0.64146 -0.0428,0.65263 -0.0428,0.65263 -0.1276,0.64147 -0.21023,0.61932 -0.28927,0.58658 -0.36336,0.54381 -0.43123,0.49173 -0.49173,0.43123 -0.5438,0.36336 -0.58659,0.28927 -0.61932,0.21023 -0.64146,0.1276 -0.65263,0.0428 v 10"
       id="path2"
       inkscape:connector-curvature="0" />
    <g
       id="g4493"
       transform="translate(173.69019,26.546958)">
      <path
         inkscape:connector-curvature="0"
         id="path4"
         d="m 132.35981,73.403037 v -10 h 25 v 10 h -25"
         style="fill:none;stroke:#ff0000;stroke-width:0.1;stroke-linecap:round;stroke-linejoin:round;stroke-miterlimit:4;stroke-dasharray:none;stroke-opacity:1" />
      <path
         inkscape:connector-curvature="0"
         id="path6"
         d="m 99.859813,73.403037 v -10 h 14.999997 v 10 H 99.859813"
         style="fill:none;stroke:#ff0000;stroke-width:0.1;stroke-linecap:round;stroke-linejoin:round;stroke-miterlimit:4;stroke-dasharray:none;stroke-opacity:1" />
      <path
         inkscape:connector-curvature="0"
         id="path8"
         d="m 57.359813,73.403037 h 25 v -10 h -25 v 10"
         style="fill:none;stroke:#ff0000;stroke-width:0.1;stroke-linecap:round;stroke-linejoin:round;stroke-miterlimit:4;stroke-dasharray:none;stroke-opacity:1" />
      <path
         inkscape:connector-curvature="0"
         id="path10"
         d="m 22.004474,103.75838 4.917268,4.31232 5.438071,3.63361 5.865828,2.8927 6.19322,2.10232 6.414642,1.27595 6.52631,0.42776 h 99.999997 l 6.52631,-0.42776 6.41464,-1.27595 6.19322,-2.10232 5.86583,-2.8927 5.43807,-3.63361 4.91727,-4.31232 4.31233,-4.917271 3.6336,-5.438072 2.89271,-5.865828 2.10231,-6.193219 1.27596,-6.414643 0.42775,-6.52631 -0.42775,-6.526309 -1.27596,-6.414643 -2.10231,-6.193219 -2.89271,-5.865829 -3.6336,-5.438071 -4.31233,-4.917268 -4.91727,-4.312328 -5.43807,-3.633603 -5.86583,-2.892706 -6.19322,-2.102315 -6.41464,-1.275952 -6.52631,-0.427757 H 57.359813 l -6.52631,0.427757 -6.414642,1.275952 -6.19322,2.102315 -5.865828,2.892706 -5.438071,3.633603 -4.917268,4.312328 -4.312328,4.917268 -3.633603,5.438071 -2.892707,5.865829 -2.102314,6.193219 -1.275952,6.414643 -0.427757,6.526309 0.427757,6.52631 1.275952,6.414643 2.102314,6.193219 2.892707,5.865828 3.633603,5.438072 4.312328,4.917271"
         style="fill:none;stroke:#ff0000;stroke-width:0.1;stroke-linecap:round;stroke-linejoin:round;stroke-miterlimit:4;stroke-dasharray:none;stroke-opacity:1" />
    </g>
  </g>
</svg>
