 0
SECTION
 2
ENTITIES
  0
POLYLINE
 8
GROUP0
 66
     1
70
    8
 10
0.0
 20
 0.0
 30
0.0
  0
VERTEX
  8
MY3DLAYER
10
274.591024893342
20
737.634868607116
30
1.84284809634505e-012
 70
     32
  0
VERTEX
  8
MY3DLAYER
10
273.504470811751
20
735.6260535409
30
1.84496307120696e-012
 70
     32
  0
VERTEX
  8
MY3DLAYER
10
272.489088524794
20
733.89318896106
30
1.84425807958632e-012
 70
     32
  0
VERTEX
  8
MY3DLAYER
10
272.163447031157
20
733.226878378822
30
1.84425807958632e-012
 70
     32
  0
VERTEX
  8
MY3DLAYER
10
284.238919533212
20
733.226878378822
30
1.84425807958632e-012
 70
     32
  0
VERTEX
  8
MY3DLAYER
10
304.148054491338
20
733.226878378822
30
1.8456680628276e-012
 70
     32
  0
VERTEX
  8
MY3DLAYER
10
313.63169272771
20
733.229413701835
30
1.84637305444824e-012
 70
     32
  0
VERTEX
  8
MY3DLAYER
10
313.898680706909
20
737.765867133451
30
1.8456680628276e-012
 70
     32
  0
VERTEX
  8
MY3DLAYER
10
314.456963526163
20
742.278296832562
30
1.84425807958632e-012
 70
     32
  0
VERTEX
  8
MY3DLAYER
10
315.304230733277
20
746.745492795964
30
1.84425807958632e-012
 70
     32
  0
VERTEX
  8
MY3DLAYER
10
316.436975914815
20
751.148967543183
30
1.84425807958632e-012
 70
     32
  0
VERTEX
  8
MY3DLAYER
10
317.850511207382
20
755.470497303853
30
1.84284809634505e-012
 70
     32
  0
VERTEX
  8
MY3DLAYER
10
319.538986698341
20
759.692197436752
30
1.84214310472441e-012
 70
     32
  0
VERTEX
  8
MY3DLAYER
10
321.49541463566
20
763.796596445349
30
1.84143811310378e-012
 70
     32
  0
VERTEX
  8
MY3DLAYER
10
323.711698346708
20
767.766708283551
30
1.84143811310378e-012
 70
     32
  0
VERTEX
  8
MY3DLAYER
10
326.178665746317
20
771.586102652421
30
1.84073312148314e-012
 70
     32
  0
VERTEX
  8
MY3DLAYER
10
328.886107295437
20
775.238972996929
30
1.84073312148314e-012
 70
     32
  0
VERTEX
  8
MY3DLAYER
10
331.822818253289
20
778.710201921348
30
1.84073312148314e-012
 70
     32
  0
VERTEX
  8
MY3DLAYER
10
334.976645048162
20
781.985423752558
30
1.8400281298625e-012
 70
     32
  0
VERTEX
  8
MY3DLAYER
10
338.334535574936
20
785.051083992357
30
1.84143811310378e-012
 70
     32
  0
VERTEX
  8
MY3DLAYER
10
341.8825932112
20
787.894495412718
30
1.83932313824187e-012
 70
     32
  0
VERTEX
  8
MY3DLAYER
10
345.606134328382
20
790.503890561856
30
1.83861814662123e-012
 70
     32
  0
VERTEX
  8
MY3DLAYER
10
349.48974905992
20
792.868470463798
30
1.83932313824187e-012
 70
     32
  0
VERTEX
  8
MY3DLAYER
10
353.517365074959
20
794.978449309923
30
1.83861814662123e-012
 70
     32
  0
VERTEX
  8
MY3DLAYER
10
357.672314093652
20
796.825094957509
30
1.83861814662123e-012
 70
     32
  0
VERTEX
  8
MY3DLAYER
10
361.937400868806
20
798.400765067685
30
1.83932313824187e-012
 70
     32
  0
VERTEX
  8
MY3DLAYER
10
366.294974348366
20
799.698938733233
30
1.83932313824187e-012
 70
     32
  0
VERTEX
  8
MY3DLAYER
10
370.727000724261
20
800.714243465351
30
1.83932313824187e-012
 70
     32
  0
VERTEX
  8
MY3DLAYER
10
375.215138065274
20
801.442477427682
30
1.83861814662123e-012
 70
     32
  0
VERTEX
  8
MY3DLAYER
10
379.740812225086
20
801.880626825606
30
1.8400281298625e-012
 70
     32
  0
VERTEX
  8
MY3DLAYER
10
384.285293711336
20
802.026878378822
30
1.83932313824187e-012
 70
     32
  0
VERTEX
  8
MY3DLAYER
10
388.829775197586
20
801.880626825606
30
1.8400281298625e-012
 70
     32
  0
VERTEX
  8
MY3DLAYER
10
393.355449357398
20
801.442477427682
30
1.83791315500059e-012
 70
     32
  0
VERTEX
  8
MY3DLAYER
10
397.843586698411
20
800.714243465351
30
1.84073312148314e-012
 70
     32
  0
VERTEX
  8
MY3DLAYER
10
402.275613074306
20
799.698938733233
30
1.84073312148314e-012
 70
     32
  0
VERTEX
  8
MY3DLAYER
10
406.633186553866
20
798.400765067685
30
1.84143811310378e-012
 70
     32
  0
VERTEX
  8
MY3DLAYER
10
410.89827332902
20
796.825094957509
30
1.84143811310378e-012
 70
     32
  0
VERTEX
  8
MY3DLAYER
10
415.053222347713
20
794.978449309923
30
1.84143811310378e-012
 70
     32
  0
VERTEX
  8
MY3DLAYER
10
419.080838362752
20
792.868470463798
30
1.84284809634505e-012
 70
     32
  0
VERTEX
  8
MY3DLAYER
10
422.96445309429
20
790.503890561856
30
1.84355308796569e-012
 70
     32
  0
VERTEX
  8
MY3DLAYER
10
426.687994211472
20
787.894495412719
30
1.84425807958632e-012
 70
     32
  0
VERTEX
  8
MY3DLAYER
10
430.236051847736
20
785.051083992357
30
1.8456680628276e-012
 70
     32
  0
VERTEX
  8
MY3DLAYER
10
433.59394237451
20
781.985423752558
30
1.8456680628276e-012
 70
     32
  0
VERTEX
  8
MY3DLAYER
10
436.747769169383
20
778.710201921348
30
1.8456680628276e-012
 70
     32
  0
VERTEX
  8
MY3DLAYER
10
439.684480127235
20
775.238972996929
30
1.84637305444824e-012
 70
     32
  0
VERTEX
  8
MY3DLAYER
10
442.391921676355
20
771.586102652421
30
1.84707804606887e-012
 70
     32
  0
VERTEX
  8
MY3DLAYER
10
444.858889075964
20
767.766708283551
30
1.8456680628276e-012
 70
     32
  0
VERTEX
  8
MY3DLAYER
10
447.075172787012
20
763.796596445349
30
1.84919302093078e-012
 70
     32
  0
VERTEX
  8
MY3DLAYER
10
449.031600724331
20
759.692197436753
30
1.85060300417206e-012
 70
     32
  0
VERTEX
  8
MY3DLAYER
10
450.72007621529
20
755.470497303854
30
1.84989801255142e-012
 70
     32
  0
VERTEX
  8
MY3DLAYER
10
452.133611507857
20
751.148967543184
30
1.85130799579269e-012
 70
     32
  0
VERTEX
  8
MY3DLAYER
10
453.266356689395
20
746.745492795965
30
1.85130799579269e-012
 70
     32
  0
VERTEX
  8
MY3DLAYER
10
454.113623896508
20
742.278296832562
30
1.85201298741333e-012
 70
     32
  0
VERTEX
  8
MY3DLAYER
10
454.671906715763
20
737.765867133452
30
1.85271797903397e-012
 70
     32
  0
VERTEX
  8
MY3DLAYER
10
454.938894694962
20
733.226878378822
30
1.85412796227524e-012
 70
     32
  0
VERTEX
  8
MY3DLAYER
10
466.088877298007
20
733.226878378822
30
1.85483295389588e-012
 70
     32
  0
VERTEX
  8
MY3DLAYER
10
486.058745500582
20
733.226878378822
30
1.85624293713715e-012
 70
     32
  0
VERTEX
  8
MY3DLAYER
10
496.512352171431
20
733.226878378822
30
1.85624293713715e-012
 70
     32
  0
VERTEX
  8
MY3DLAYER
10
483.828244547611
20
759.289062465469
30
1.85201298741333e-012
 70
     32
  0
VERTEX
  8
MY3DLAYER
10
465.719807127971
20
796.480603355656
30
1.8456680628276e-012
 70
     32
  0
VERTEX
  8
MY3DLAYER
10
455.040071635861
20
818.406458944815
30
1.84073312148314e-012
 70
     32
  0
VERTEX
  8
MY3DLAYER
10
439.359427898855
20
857.57265452914
30
1.83438819689741e-012
 70
     32
  0
VERTEX
  8
MY3DLAYER
10
439.278203092003
20
857.795611691271
30
1.83438819689741e-012
 70
     32
  0
VERTEX
  8
MY3DLAYER
10
439.225628882095
20
857.939924704699
30
1.83368320527677e-012
 70
     32
  0
VERTEX
  8
MY3DLAYER
10
438.442130817097
20
860.977249706457
30
1.83368320527677e-012
 70
     32
  0
VERTEX
  8
MY3DLAYER
10
434.674688654824
20
876.028648116739
30
1.83086323879422e-012
 70
     32
  0
VERTEX
  8
MY3DLAYER
10
424.206806781144
20
917.32348991403
30
1.82381332258785e-012
 70
     32
  0
VERTEX
  8
MY3DLAYER
10
422.105740617147
20
925.585406591048
30
1.82310833096722e-012
 70
     32
  0
VERTEX
  8
MY3DLAYER
10
421.978539490105
20
926.115219801489
30
1.82310833096722e-012
 70
     32
  0
VERTEX
  8
MY3DLAYER
10
415.891196140494
20
950.751096259179
30
1.81887838124339e-012
 70
     32
  0
VERTEX
  8
MY3DLAYER
10
410.301949372984
20
999.53186375038
30
1.80900849855448e-012
 70
     32
  0
VERTEX
  8
MY3DLAYER
10
407.197519396048
20
1027.05644042099
30
1.8075985153132e-012
 70
     32
  0
VERTEX
  8
MY3DLAYER
10
406.468890293286
20
1033.75428456175
30
1.80477854883065e-012
 70
     32
  0
VERTEX
  8
MY3DLAYER
10
401.745395464007
20
1111.3273851533
30
1.79349868290046e-012
 70
     32
  0
VERTEX
  8
MY3DLAYER
10
401.672700544423
20
1112.6941148756
30
1.7942036745211e-012
 70
     32
  0
VERTEX
  8
MY3DLAYER
10
401.611007686054
20
1113.82036807433
30
1.79279369127983e-012
 70
     32
  0
VERTEX
  8
MY3DLAYER
10
401.272903291808
20
1118.43008377806
30
1.79349868290046e-012
 70
     32
  0
VERTEX
  8
MY3DLAYER
10
400.217806697035
20
1132.58306272783
30
1.78997372479728e-012
 70
     32
  0
VERTEX
  8
MY3DLAYER
10
399.370633400009
20
1143.94697566151
30
1.788563741556e-012
 70
     32
  0
VERTEX
  8
MY3DLAYER
10
399.141502394784
20
1148.92250447188
30
1.788563741556e-012
 70
     32
  0
VERTEX
  8
MY3DLAYER
10
398.587111268971
20
1162.69823590762
30
1.78503878345282e-012
 70
     32
  0
VERTEX
  8
MY3DLAYER
10
398.138154339919
20
1173.85409644158
30
1.78433379183218e-012
 70
     32
  0
VERTEX
  8
MY3DLAYER
10
394.538568344848
20
1239.4421974822
30
1.77305392590199e-012
 70
     32
  0
VERTEX
  8
MY3DLAYER
10
394.430492482236
20
1240.77103305638
30
1.77305392590199e-012
 70
     32
  0
VERTEX
  8
MY3DLAYER
10
394.604793258085
20
1240.93472457717
30
1.77305392590199e-012
 70
     32
  0
VERTEX
  8
MY3DLAYER
10
395.420210893533
20
1240.93472457717
30
1.77375891752263e-012
 70
     32
  0
VERTEX
  8
MY3DLAYER
10
396.161355046242
20
1240.93472457717
30
1.77446390914326e-012
 70
     32
  0
VERTEX
  8
MY3DLAYER
10
396.25555207151
20
1241.09862114691
30
1.77305392590199e-012
 70
     32
  0
VERTEX
  8
MY3DLAYER
10
396.25585674402
20
1241.82587442791
30
1.77305392590199e-012
 70
     32
  0
VERTEX
  8
MY3DLAYER
10
396.256135897779
20
1242.49221445191
30
1.77305392590199e-012
 70
     32
  0
VERTEX
  8
MY3DLAYER
10
396.224840372145
20
1243.02774749535
30
1.77305392590199e-012
 70
     32
  0
VERTEX
  8
MY3DLAYER
10
396.082861317905
20
1245.05933868965
30
1.77234893428135e-012
 70
     32
  0
VERTEX
  8
MY3DLAYER
10
395.95172773255
20
1246.93574108373
30
1.77234893428135e-012
 70
     32
  0
VERTEX
  8
MY3DLAYER
10
395.933728813113
20
1248.66215797257
30
1.77305392590199e-012
 70
     32
  0
VERTEX
  8
MY3DLAYER
10
395.93221527909
20
1255.48305040022
30
1.77164394266072e-012
 70
     32
  0
VERTEX
  8
MY3DLAYER
10
395.930806139955
20
1261.83347682716
30
1.76952896779881e-012
 70
     32
  0
VERTEX
  8
MY3DLAYER
10
395.814660564716
20
1263.78860973607
30
1.77093895104008e-012
 70
     32
  0
VERTEX
  8
MY3DLAYER
10
394.690995344626
20
1268.47750771932
30
1.76952896779881e-012
 70
     32
  0
VERTEX
  8
MY3DLAYER
10
391.50534782229
20
1273.85731078811
30
1.76811898455753e-012
 70
     32
  0
VERTEX
  8
MY3DLAYER
10
389.166099049038
20
1276.50938564433
30
1.76670900131626e-012
 70
     32
  0
VERTEX
  8
MY3DLAYER
10
389.165798378775
20
1280.9707310081
30
1.76670900131626e-012
 70
     32
  0
VERTEX
  8
MY3DLAYER
10
389.165513947716
20
1285.19111905185
30
1.76670900131626e-012
 70
     32
  0
VERTEX
  8
MY3DLAYER
10
389.165138821686
20
1285.81980118651
30
1.76600400969562e-012
 70
     32
  0
VERTEX
  8
MY3DLAYER
10
389.16191949822
20
1285.9122835697
30
1.76600400969562e-012
 70
     32
  0
VERTEX
  8
MY3DLAYER
10
389.030185200825
20
1286.85849684628
30
1.76600400969562e-012
 70
     32
  0
VERTEX
  8
MY3DLAYER
10
388.382931613413
20
1288.8335741264
30
1.76529901807498e-012
 70
     32
  0
VERTEX
  8
MY3DLAYER
10
387.102512592874
20
1290.62348503435
30
1.76529901807498e-012
 70
     32
  0
VERTEX
  8
MY3DLAYER
10
386.285293711318
20
1292.72940365214
30
-7.04991620636974e-016
 70
     32
  0
VERTEX
  8
MY3DLAYER
10
386.285293711318
20
891.704405451393
30
6.06292793747798e-014
 70
     32
  0
VERTEX
  8
MY3DLAYER
10
382.285293711319
20
891.704405451393
30
6.06292793747798e-014
 70
     32
  0
VERTEX
  8
MY3DLAYER
10
382.285293711319
20
1292.44109462691
30
-7.04991620636974e-016
 70
     32
  0
VERTEX
  8
MY3DLAYER
10
381.419685630256
20
1290.55341982036
30
1.76529901807498e-012
 70
     32
  0
VERTEX
  8
MY3DLAYER
10
380.171123720577
20
1288.73958616056
30
1.76529901807498e-012
 70
     32
  0
VERTEX
  8
MY3DLAYER
10
379.549639862133
20
1286.76399262233
30
1.76459402645435e-012
 70
     32
  0
VERTEX
  8
MY3DLAYER
10
379.434139944869
20
1285.89674537466
30
1.76529901807498e-012
 70
     32
  0
VERTEX
  8
MY3DLAYER
10
379.430624130478
20
1285.80328330876
30
1.76459402645435e-012
 70
     32
  0
VERTEX
  8
MY3DLAYER
10
379.430314979019
20
1285.05321468819
30
1.76600400969562e-012
 70
     32
  0
VERTEX
  8
MY3DLAYER
10
379.430314979019
20
1280.72967276024
30
1.76529901807498e-012
 70
     32
  0
VERTEX
  8
MY3DLAYER
10
379.430314979019
20
1276.3717593955
30
1.76529901807498e-012
 70
     32
  0
VERTEX
  8
MY3DLAYER
10
376.885466673171
20
1273.64347885114
30
1.76741399293689e-012
 70
     32
  0
VERTEX
  8
MY3DLAYER
10
373.81679010573
20
1268.21885198747
30
1.76741399293689e-012
 70
     32
  0
VERTEX
  8
MY3DLAYER
10
372.762279502159
20
1263.63068046158
30
1.76811898455753e-012
 70
     32
  0
VERTEX
  8
MY3DLAYER
10
372.664987648273
20
1261.62662640086
30
1.77023395941944e-012
 70
     32
  0
VERTEX
  8
MY3DLAYER
10
372.663829948224
20
1255.11572132506
30
1.76952896779881e-012
 70
     32
  0
VERTEX
  8
MY3DLAYER
10
372.662644409538
20
1248.44825175642
30
1.77023395941944e-012
 70
     32
  0
VERTEX
  8
MY3DLAYER
10
372.641001712095
20
1246.88210519769
30
1.77164394266072e-012
 70
     32
  0
VERTEX
  8
MY3DLAYER
10
372.506266768752
20
1244.95402654321
30
1.77234893428135e-012
 70
     32
  0
VERTEX
  8
MY3DLAYER
10
372.367193637854
20
1242.96386772887
30
1.77234893428135e-012
 70
     32
  0
VERTEX
  8
MY3DLAYER
10
372.34037044306
20
1242.47905041409
30
1.77164394266072e-012
 70
     32
  0
VERTEX
  8
MY3DLAYER
10
372.34080088824
20
1241.83309568045
30
1.77164394266072e-012
 70
     32
  0
VERTEX
  8
MY3DLAYER
10
372.341248732568
20
1240.93472457717
30
1.77234893428135e-012
 70
     32
  0
VERTEX
  8
MY3DLAYER
10
374.045103120768
20
1240.93472457717
30
1.77234893428135e-012
 70
     32
  0
VERTEX
  8
MY3DLAYER
10
372.351543803347
20
1209.84835181792
30
1.77728387562581e-012
 70
     32
  0
VERTEX
  8
MY3DLAYER
10
371.244250664957
20
1189.52327261952
30
1.780808833729e-012
 70
     32
  0
VERTEX
  8
MY3DLAYER
10
370.690326235411
20
1184.58566181008
30
1.780808833729e-012
 70
     32
  0
VERTEX
  8
MY3DLAYER
10
367.199272521216
20
1105.58713767294
30
1.79208869965919e-012
 70
     32
  0
VERTEX
  8
MY3DLAYER
10
365.562423325592
20
1078.14283898413
30
1.79631864938301e-012
 70
     32
  0
VERTEX
  8
MY3DLAYER
10
363.608146394788
20
1045.37637524818
30
1.80195858234811e-012
 70
     32
  0
VERTEX
  8
MY3DLAYER
10
362.820655973826
20
1035.97102878908
30
1.80407355721002e-012
 70
     32
  0
VERTEX
  8
MY3DLAYER
10
352.715296209933
20
948.637991104253
30
1.81464843151957e-012
 70
     32
  0
VERTEX
  8
MY3DLAYER
10
350.735670624296
20
940.945192545361
30
1.81605841476085e-012
 70
     32
  0
VERTEX
  8
MY3DLAYER
10
348.137623643503
20
930.849216712968
30
1.81817338962276e-012
 70
     32
  0
VERTEX
  8
MY3DLAYER
10
347.044513834182
20
927.281691121663
30
1.81887838124339e-012
 70
     32
  0
VERTEX
  8
MY3DLAYER
10
328.42688268112
20
856.127119781124
30
1.82804327231167e-012
 70
     32
  0
VERTEX
  8
MY3DLAYER
10
326.443851353534
20
850.883414846777
30
1.82874826393231e-012
 70
     32
  0
VERTEX
  8
MY3DLAYER
10
318.44458693664
20
830.359036940061
30
1.83156823041486e-012
 70
     32
  0
VERTEX
  8
MY3DLAYER
10
315.199513841272
20
822.559090902594
30
1.83297821365613e-012
 70
     32
  0
VERTEX
  8
MY3DLAYER
10
274.591024893342
20
737.634868607116
30
1.84284809634505e-012
 70
     32
  0
SEQEND
  0
POLYLINE
 8
GROUP0
 66
     1
70
    8
 10
0.0
 20
 0.0
 30
0.0
  0
VERTEX
  8
MY3DLAYER
10
435.321408222375
20
792.724905697105
30
1.84425807958632e-012
 70
     32
  0
VERTEX
  8
MY3DLAYER
10
435.38277902847
20
792.597951650886
30
1.84425807958632e-012
 70
     32
  0
VERTEX
  8
MY3DLAYER
10
435.292240073452
20
792.635544469426
30
1.84496307120696e-012
 70
     32
  0
VERTEX
  8
MY3DLAYER
10
435.178419621832
20
792.72078851314
30
1.84425807958632e-012
 70
     32
  0
VERTEX
  8
MY3DLAYER
10
435.064464629497
20
792.805837294225
30
1.84425807958632e-012
 70
     32
  0
VERTEX
  8
MY3DLAYER
10
434.950382240204
20
792.890712243945
30
1.84425807958632e-012
 70
     32
  0
VERTEX
  8
MY3DLAYER
10
434.836179597706
20
792.975434793565
30
1.84425807958632e-012
 70
     32
  0
VERTEX
  8
MY3DLAYER
10
434.721863845758
20
793.060026374348
30
1.84355308796569e-012
 70
     32
  0
VERTEX
  8
MY3DLAYER
10
434.607442128116
20
793.144508417559
30
1.84143811310378e-012
 70
     32
  0
VERTEX
  8
MY3DLAYER
10
434.492921588534
20
793.228902354463
30
1.84214310472441e-012
 70
     32
  0
VERTEX
  8
MY3DLAYER
10
434.493100226499
20
793.308754891843
30
1.84355308796569e-012
 70
     32
  0
VERTEX
  8
MY3DLAYER
10
434.543894108432
20
793.377238893254
30
1.84355308796569e-012
 70
     32
  0
VERTEX
  8
MY3DLAYER
10
434.606164432308
20
793.46119626737
30
1.84425807958632e-012
 70
     32
  0
VERTEX
  8
MY3DLAYER
10
434.672260236832
20
793.550311432386
30
1.84355308796569e-012
 70
     32
  0
VERTEX
  8
MY3DLAYER
10
434.734530560708
20
793.634268806502
30
1.84425807958632e-012
 70
     32
  0
VERTEX
  8
MY3DLAYER
10
434.785324442642
20
793.702752807913
30
1.84355308796569e-012
 70
     32
  0
VERTEX
  8
MY3DLAYER
10
434.816990921337
20
793.745447854818
30
1.84425807958632e-012
 70
     32
  0
VERTEX
  8
MY3DLAYER
10
434.863642373628
20
793.671858009067
30
1.84284809634505e-012
 70
     32
  0
VERTEX
  8
MY3DLAYER
10
434.935073967609
20
793.524091824124
30
1.84355308796569e-012
 70
     32
  0
VERTEX
  8
MY3DLAYER
10
435.028639294935
20
793.330538933986
30
1.84496307120696e-012
 70
     32
  0
VERTEX
  8
MY3DLAYER
10
435.132265410145
20
793.116173905125
30
1.84214310472441e-012
 70
     32
  0
VERTEX
  8
MY3DLAYER
10
435.233879367779
20
792.905971304007
30
1.84355308796569e-012
 70
     32
  0
VERTEX
  8
MY3DLAYER
10
435.321408222375
20
792.724905697105
30
1.84425807958632e-012
 70
     32
  0
SEQEND
 0
ENDSEC
 0
EOF
