  0
SECTION
  2
HEADER
  9
$ACADVER
  1
AC1014
  9
$ACADMAINTVER
 70
     9
  9
$DWGCODEPAGE
  3
ANSI_1252
  9
$INSBASE
 10
0.0
 20
0.0
 30
0.0
  9
$EXTMIN
 10
1.000000000000000E+20
 20
1.000000000000000E+20
 30
1.000000000000000E+20
  9
$EXTMAX
 10
-1.000000000000000E+20
 20
-1.000000000000000E+20
 30
-1.000000000000000E+20
  9
$LIMMIN
 10
0.0
 20
0.0
  9
$LIMMAX
 10
12.0
 20
9.0
  9
$ORTHOMODE
 70
     0
  9
$REGENMODE
 70
     1
  9
$FILLMODE
 70
     1
  9
$QTEXTMODE
 70
     0
  9
$MIRRTEXT
 70
     1
  9
$DRAGMODE
 70
     2
  9
$LTSCALE
 40
1.0
  9
$OSMODE
 70
    37
  9
$ATTMODE
 70
     1
  9
$TEXTSIZE
 40
0.2
  9
$TRACEWID
 40
0.05
  9
$TEXTSTYLE
  7
STANDARD
  9
$CLAYER
  8
0
  9
$CELTYPE
  6
BYLAYER
  9
$CECOLOR
 62
   256
  9
$CELTSCALE
 40
1.0
  9
$DELOBJ
 70
     1
  9
$DISPSILH
 70
     0
  9
$DIMSCALE
 40
1.0
  9
$DIMASZ
 40
0.18
  9
$DIMEXO
 40
0.0625
  9
$DIMDLI
 40
0.38
  9
$DIMRND
 40
0.0
  9
$DIMDLE
 40
0.0
  9
$DIMEXE
 40
0.18
  9
$DIMTP
 40
0.0
  9
$DIMTM
 40
0.0
  9
$DIMTXT
 40
0.18
  9
$DIMCEN
 40
0.09
  9
$DIMTSZ
 40
0.0
  9
$DIMTOL
 70
     0
  9
$DIMLIM
 70
     0
  9
$DIMTIH
 70
     1
  9
$DIMTOH
 70
     1
  9
$DIMSE1
 70
     0
  9
$DIMSE2
 70
     0
  9
$DIMTAD
 70
     0
  9
$DIMZIN
 70
     0
  9
$DIMBLK
  1

  9
$DIMASO
 70
     1
  9
$DIMSHO
 70
     1
  9
$DIMPOST
  1

  9
$DIMAPOST
  1

  9
$DIMALT
 70
     0
  9
$DIMALTD
 70
     2
  9
$DIMALTF
 40
25.4
  9
$DIMLFAC
 40
1.0
  9
$DIMTOFL
 70
     0
  9
$DIMTVP
 40
0.0
  9
$DIMTIX
 70
     0
  9
$DIMSOXD
 70
     0
  9
$DIMSAH
 70
     0
  9
$DIMBLK1
  1

  9
$DIMBLK2
  1

  9
$DIMSTYLE
  2
STANDARD
  9
$DIMCLRD
 70
     0
  9
$DIMCLRE
 70
     0
  9
$DIMCLRT
 70
     0
  9
$DIMTFAC
 40
1.0
  9
$DIMGAP
 40
0.09
  9
$DIMJUST
 70
     0
  9
$DIMSD1
 70
     0
  9
$DIMSD2
 70
     0
  9
$DIMTOLJ
 70
     1
  9
$DIMTZIN
 70
     0
  9
$DIMALTZ
 70
     0
  9
$DIMALTTZ
 70
     0
  9
$DIMFIT
 70
     3
  9
$DIMUPT
 70
     0
  9
$DIMUNIT
 70
     2
  9
$DIMDEC
 70
     4
  9
$DIMTDEC
 70
     4
  9
$DIMALTU
 70
     2
  9
$DIMALTTD
 70
     2
  9
$DIMTXSTY
  7
STANDARD
  9
$DIMAUNIT
 70
     0
  9
$LUNITS
 70
     2
  9
$LUPREC
 70
     4
  9
$SKETCHINC
 40
0.1
  9
$FILLETRAD
 40
0.5
  9
$AUNITS
 70
     0
  9
$AUPREC
 70
     0
  9
$MENU
  1
.
  9
$ELEVATION
 40
0.0
  9
$PELEVATION
 40
0.0
  9
$THICKNESS
 40
0.0
  9
$LIMCHECK
 70
     0
  9
$CHAMFERA
 40
0.5
  9
$CHAMFERB
 40
0.5
  9
$CHAMFERC
 40
1.0
  9
$CHAMFERD
 40
0.0
  9
$SKPOLY
 70
     0
  9
$TDCREATE
 40
2457966.743012928
  9
$TDUPDATE
 40
2457966.74301294
  9
$TDINDWG
 40
0.0000000116
  9
$TDUSRTIMER
 40
0.0000000116
  9
$USRTIMER
 70
     1
  9
$ANGBASE
 50
0.0
  9
$ANGDIR
 70
     0
  9
$PDMODE
 70
     0
  9
$PDSIZE
 40
0.0
  9
$PLINEWID
 40
0.0
  9
$COORDS
 70
     1
  9
$SPLFRAME
 70
     0
  9
$SPLINETYPE
 70
     6
  9
$SPLINESEGS
 70
     8
  9
$ATTDIA
 70
     0
  9
$ATTREQ
 70
     1
  9
$HANDLING
 70
     1
  9
$HANDSEED
  5
36B
  9
$SURFTAB1
 70
     6
  9
$SURFTAB2
 70
     6
  9
$SURFTYPE
 70
     6
  9
$SURFU
 70
     6
  9
$SURFV
 70
     6
  9
$UCSNAME
  2

  9
$UCSORG
 10
0.0
 20
0.0
 30
0.0
  9
$UCSXDIR
 10
1.0
 20
0.0
 30
0.0
  9
$UCSYDIR
 10
0.0
 20
1.0
 30
0.0
  9
$PUCSNAME
  2

  9
$PUCSORG
 10
0.0
 20
0.0
 30
0.0
  9
$PUCSXDIR
 10
1.0
 20
0.0
 30
0.0
  9
$PUCSYDIR
 10
0.0
 20
1.0
 30
0.0
  9
$USERI1
 70
     0
  9
$USERI2
 70
     0
  9
$USERI3
 70
     0
  9
$USERI4
 70
     0
  9
$USERI5
 70
     0
  9
$USERR1
 40
0.0
  9
$USERR2
 40
0.0
  9
$USERR3
 40
0.0
  9
$USERR4
 40
0.0
  9
$USERR5
 40
0.0
  9
$WORLDVIEW
 70
     1
  9
$SHADEDGE
 70
     3
  9
$SHADEDIF
 70
    70
  9
$TILEMODE
 70
     1
  9
$MAXACTVP
 70
    64
  9
$PINSBASE
 10
0.0
 20
0.0
 30
0.0
  9
$PLIMCHECK
 70
     0
  9
$PEXTMIN
 10
1.000000000000000E+20
 20
1.000000000000000E+20
 30
1.000000000000000E+20
  9
$PEXTMAX
 10
-1.000000000000000E+20
 20
-1.000000000000000E+20
 30
-1.000000000000000E+20
  9
$PLIMMIN
 10
0.0
 20
0.0
  9
$PLIMMAX
 10
12.0
 20
9.0
  9
$UNITMODE
 70
     0
  9
$VISRETAIN
 70
     1
  9
$PLINEGEN
 70
     0
  9
$PSLTSCALE
 70
     1
  9
$TREEDEPTH
 70
  3020
  9
$PICKSTYLE
 70
     1
  9
$CMLSTYLE
  2
STANDARD
  9
$CMLJUST
 70
     0
  9
$CMLSCALE
 40
1.0
  9
$PROXYGRAPHICS
 70
     1
  9
$MEASUREMENT
 70
     0
  0
ENDSEC
  0
SECTION
  2
CLASSES
  0
CLASS
  1
ACDBDICTIONARYWDFLT
  2
AcDbDictionaryWithDefault
  3
ObjectDBX Classes
 90
        0
280
     0
281
     0
  0
CLASS
  1
VISUALSTYLE
  2
AcDbVisualStyle
  3
ObjectDBX Classes
 90
     4095
280
     0
281
     0
  0
CLASS
  1
MATERIAL
  2
AcDbMaterial
  3
ObjectDBX Classes
 90
     1153
280
     0
281
     0
  0
CLASS
  1
DICTIONARYVAR
  2
AcDbDictionaryVar
  3
ObjectDBX Classes
 90
        0
280
     0
281
     0
  0
CLASS
  1
XRECORD
  2
AcDbXrecord
  3
AutoCAD 2000
 90
        0
280
     0
281
     0
  0
CLASS
  1
LWPOLYLINE
  2
AcDbPolyline
  3
AutoCAD 2000
 90
        0
280
     0
281
     1
  0
CLASS
  1
HATCH
  2
AcDbHatch
  3
AutoCAD 2000
 90
        0
280
     0
281
     1
  0
CLASS
  1
ACDBPLACEHOLDER
  2
AcDbPlaceHolder
  3
ObjectDBX Classes
 90
        0
280
     0
281
     0
  0
CLASS
  1
LAYOUT
  2
AcDbLayout
  3
ObjectDBX Classes
 90
        0
280
     0
281
     0
  0
ENDSEC
  0
SECTION
  2
TABLES
  0
TABLE
  2
VPORT
  5
8
330
0
100
AcDbSymbolTable
 70
     1
  0
VPORT
  5
29
330
8
100
AcDbSymbolTableRecord
100
AcDbViewportTableRecord
  2
*ACTIVE
 70
     0
 10
0.0
 20
0.0
 11
1.0
 21
1.0
 12
0.0
 22
0.0
 13
0.0
 23
0.0
 14
0.5
 24
0.5
 15
0.5
 25
0.5
 16
0.0
 26
0.0
 36
1.0
 17
0.0
 27
0.0
 37
-1000.0
 40
364.2972142934531
 41
2.044016506189821
 42
50.0
 43
444.4941536805662
 44
584.4106322762485
 50
0.0
 51
0.0
 71
     0
 72
   100
 73
     1
 74
     3
 75
     0
 76
     0
 77
     0
 78
     0
  0
ENDTAB
  0
TABLE
  2
LTYPE
  5
5
330
0
100
AcDbSymbolTable
 70
     1
  0
LTYPE
  5
14
330
5
100
AcDbSymbolTableRecord
100
AcDbLinetypeTableRecord
  2
BYBLOCK
 70
     0
  3

 72
    65
 73
     0
 40
0.0
  0
LTYPE
  5
15
330
5
100
AcDbSymbolTableRecord
100
AcDbLinetypeTableRecord
  2
BYLAYER
 70
     0
  3

 72
    65
 73
     0
 40
0.0
  0
LTYPE
  5
16
330
5
100
AcDbSymbolTableRecord
100
AcDbLinetypeTableRecord
  2
CONTINUOUS
 70
     0
  3
Solid line
 72
    65
 73
     0
 40
0.0
  0
ENDTAB
  0
TABLE
  2
LAYER
  5
2
330
0
100
AcDbSymbolTable
 70
     3
  0
LAYER
  5
10
330
2
100
AcDbSymbolTableRecord
100
AcDbLayerTableRecord
  2
0
 70
     0
 62
     7
  6
CONTINUOUS
  0
LAYER
  5
3F
330
2
100
AcDbSymbolTableRecord
100
AcDbLayerTableRecord
  2
PROFILEEDGES
 70
     0
 62
     7
  6
CONTINUOUS
  0
LAYER
  5
40
330
2
100
AcDbSymbolTableRecord
100
AcDbLayerTableRecord
  2
SECTIONCUTEDGES
 70
     0
 62
     7
  6
CONTINUOUS
  0
ENDTAB
  0
TABLE
  2
STYLE
  5
3
330
0
100
AcDbSymbolTable
 70
     1
  0
STYLE
  5
11
330
3
100
AcDbSymbolTableRecord
100
AcDbTextStyleTableRecord
  2
STANDARD
 70
     0
 40
0.0
 41
1.0
 50
0.0
 71
     0
 42
0.2
  3
txt
  4

  0
ENDTAB
  0
TABLE
  2
VIEW
  5
6
330
0
100
AcDbSymbolTable
 70
     0
  0
ENDTAB
  0
TABLE
  2
UCS
  5
7
330
0
100
AcDbSymbolTable
 70
     0
  0
ENDTAB
  0
TABLE
  2
APPID
  5
9
330
0
100
AcDbSymbolTable
 70
     1
  0
APPID
  5
12
330
9
100
AcDbSymbolTableRecord
100
AcDbRegAppTableRecord
  2
ACAD
 70
     0
  0
ENDTAB
  0
TABLE
  2
DIMSTYLE
  5
A
330
0
100
AcDbSymbolTable
 70
     1
  0
DIMSTYLE
105
27
330
A
100
AcDbSymbolTableRecord
100
AcDbDimStyleTableRecord
  2
STANDARD
 70
     0
  3

  4

  5

  6

  7

 40
1.0
 41
0.18
 42
0.0625
 43
0.38
 44
0.18
 45
0.0
 46
0.0
 47
0.0
 48
0.0
140
0.18
141
0.09
142
0.0
143
25.4
144
1.0
145
0.0
146
1.0
147
0.09
 71
     0
 72
     0
 73
     1
 74
     1
 75
     0
 76
     0
 77
     0
 78
     0
170
     0
171
     2
172
     0
173
     0
174
     0
175
     0
176
     0
177
     0
178
     0
270
     2
271
     4
272
     4
273
     2
274
     2
340
11
275
     0
280
     0
281
     0
282
     0
283
     1
284
     0
285
     0
286
     0
287
     3
288
     0
  0
ENDTAB
  0
TABLE
  2
BLOCK_RECORD
  5
1
330
0
100
AcDbSymbolTable
 70
     1
  0
BLOCK_RECORD
  5
1F
330
1
100
AcDbSymbolTableRecord
100
AcDbBlockTableRecord
  2
*MODEL_SPACE
  0
BLOCK_RECORD
  5
1B
330
1
100
AcDbSymbolTableRecord
100
AcDbBlockTableRecord
  2
*PAPER_SPACE
  0
ENDTAB
  0
ENDSEC
  0
SECTION
  2
BLOCKS
  0
BLOCK
  5
20
330
1F
100
AcDbEntity
  8
0
100
AcDbBlockBegin
  2
*MODEL_SPACE
 70
     0
 10
0.0
 20
0.0
 30
0.0
  3
*MODEL_SPACE
  1

  0
ENDBLK
  5
21
330
1F
100
AcDbEntity
  8
0
100
AcDbBlockEnd
  0
BLOCK
  5
1C
330
1B
100
AcDbEntity
 67
     1
  8
0
100
AcDbBlockBegin
  2
*PAPER_SPACE
 70
     0
 10
0.0
 20
0.0
 30
0.0
  3
*PAPER_SPACE
  1

  0
ENDBLK
  5
1D
330
1B
100
AcDbEntity
 67
     1
  8
0
100
AcDbBlockEnd
  0
ENDSEC
  0
SECTION
  2
ENTITIES
  0
LINE
  5
41
330
1F
100
AcDbEntity
  8
0
100
AcDbLine
 10
240.3058018505505
 20
-110.3658777423433
 30
0.0
 11
240.3058018505505
 21
-83.86587774234353
 31
0.0
  0
LINE
  5
42
330
1F
100
AcDbEntity
  8
0
100
AcDbLine
 10
241.8587161211656
 20
-83.66143270007785
 30
0.0
 11
240.3058018505505
 21
-83.86587774234353
 31
0.0
  0
LINE
  5
43
330
1F
100
AcDbEntity
  8
0
100
AcDbLine
 10
243.3058018505505
 20
-83.06203016505013
 30
0.0
 11
241.8587161211656
 21
-83.66143270007785
 31
0.0
  0
LINE
  5
44
330
1F
100
AcDbEntity
  8
0
100
AcDbLine
 10
244.5484425376698
 20
-82.10851842946283
 30
0.0
 11
243.3058018505505
 21
-83.06203016505013
 31
0.0
  0
LINE
  5
45
330
1F
100
AcDbEntity
  8
0
100
AcDbLine
 10
245.5019542732571
 20
-80.86587774234349
 30
0.0
 11
244.5484425376698
 21
-82.10851842946283
 31
0.0
  0
LINE
  5
46
330
1F
100
AcDbEntity
  8
0
100
AcDbLine
 10
246.1013568082849
 20
-79.41879201295865
 30
0.0
 11
245.5019542732571
 21
-80.86587774234349
 31
0.0
  0
LINE
  5
47
330
1F
100
AcDbEntity
  8
0
100
AcDbLine
 10
246.3058018505505
 20
-77.86587774234344
 30
0.0
 11
246.1013568082849
 21
-79.41879201295865
 31
0.0
  0
LINE
  5
48
330
1F
100
AcDbEntity
  8
0
100
AcDbLine
 10
246.1013568082849
 20
-76.31296347172842
 30
0.0
 11
246.3058018505505
 21
-77.86587774234344
 31
0.0
  0
LINE
  5
49
330
1F
100
AcDbEntity
  8
0
100
AcDbLine
 10
245.5019542732571
 20
-74.8658777423434
 30
0.0
 11
246.1013568082849
 21
-76.31296347172842
 31
0.0
  0
LINE
  5
4A
330
1F
100
AcDbEntity
  8
0
100
AcDbLine
 10
244.5484425376698
 20
-73.62323705522424
 30
0.0
 11
245.5019542732571
 21
-74.8658777423434
 31
0.0
  0
LINE
  5
4B
330
1F
100
AcDbEntity
  8
0
100
AcDbLine
 10
243.3058018505505
 20
-72.66972531963694
 30
0.0
 11
244.5484425376698
 21
-73.62323705522424
 31
0.0
  0
LINE
  5
4C
330
1F
100
AcDbEntity
  8
0
100
AcDbLine
 10
241.8587161211656
 20
-72.07032278460903
 30
0.0
 11
243.3058018505505
 21
-72.66972531963694
 31
0.0
  0
LINE
  5
4D
330
1F
100
AcDbEntity
  8
0
100
AcDbLine
 10
240.3058018505505
 20
-71.86587774234354
 30
0.0
 11
241.8587161211656
 21
-72.07032278460903
 31
0.0
  0
LINE
  5
4E
330
1F
100
AcDbEntity
  8
0
100
AcDbLine
 10
240.3058018505505
 20
-71.86587774234354
 30
0.0
 11
240.3058018505505
 21
61.52281675238109
 31
0.0
  0
LINE
  5
4F
330
1F
100
AcDbEntity
  8
0
100
AcDbLine
 10
240.3058018505505
 20
61.52281675238109
 30
0.0
 11
240.4761727191052
 21
62.81691197789358
 31
0.0
  0
LINE
  5
50
330
1F
100
AcDbEntity
  8
0
100
AcDbLine
 10
240.4761727191052
 20
62.81691197789358
 30
0.0
 11
240.9756748316283
 21
64.02281675238106
 31
0.0
  0
LINE
  5
51
330
1F
100
AcDbEntity
  8
0
100
AcDbLine
 10
240.9756748316283
 20
64.02281675238106
 30
0.0
 11
241.7702679446178
 21
65.0583506583137
 31
0.0
  0
LINE
  5
52
330
1F
100
AcDbEntity
  8
0
100
AcDbLine
 10
241.7702679446178
 20
65.0583506583137
 30
0.0
 11
242.8058018505505
 21
65.85294377130322
 31
0.0
  0
LINE
  5
53
330
1F
100
AcDbEntity
  8
0
100
AcDbLine
 10
242.8058018505505
 20
65.85294377130322
 30
0.0
 11
244.0117066250379
 21
66.35244588382638
 31
0.0
  0
LINE
  5
54
330
1F
100
AcDbEntity
  8
0
100
AcDbLine
 10
244.0117066250379
 20
66.35244588382638
 30
0.0
 11
245.3058018505505
 21
66.52281675238103
 31
0.0
  0
LINE
  5
55
330
1F
100
AcDbEntity
  8
0
100
AcDbLine
 10
245.3058018505505
 20
66.52281675238103
 30
0.0
 11
246.5998970760631
 21
66.35244588382638
 31
0.0
  0
LINE
  5
56
330
1F
100
AcDbEntity
  8
0
100
AcDbLine
 10
246.5998970760631
 20
66.35244588382638
 30
0.0
 11
247.8058018505505
 21
65.85294377130322
 31
0.0
  0
LINE
  5
57
330
1F
100
AcDbEntity
  8
0
100
AcDbLine
 10
247.8058018505505
 20
65.85294377130322
 30
0.0
 11
248.8413357564833
 21
65.0583506583137
 31
0.0
  0
LINE
  5
58
330
1F
100
AcDbEntity
  8
0
100
AcDbLine
 10
248.8413357564833
 20
65.0583506583137
 30
0.0
 11
251.4925382268422
 21
62.4983934621353
 31
0.0
  0
LINE
  5
59
330
1F
100
AcDbEntity
  8
0
100
AcDbLine
 10
251.4925382268422
 20
62.4983934621353
 30
0.0
 11
255.6207879052199
 21
59.13693750552508
 31
0.0
  0
LINE
  5
5A
330
1F
100
AcDbEntity
  8
0
100
AcDbLine
 10
255.6207879052199
 20
59.13693750552508
 30
0.0
 11
259.6688100384896
 21
56.37432060684468
 31
0.0
  0
LINE
  5
5B
330
1F
100
AcDbEntity
  8
0
100
AcDbLine
 10
260.8337449455949
 20
55.78556314595414
 30
0.0
 11
259.6688100384896
 21
56.37432060684468
 31
0.0
  0
LINE
  5
5C
330
1F
100
AcDbEntity
  8
0
100
AcDbLine
 10
262.1113673021383
 20
55.51837444932353
 30
0.0
 11
260.8337449455949
 21
55.78556314595414
 31
0.0
  0
LINE
  5
5D
330
1F
100
AcDbEntity
  8
0
100
AcDbLine
 10
263.4146092558919
 20
55.5909629850774
 30
0.0
 11
262.1113673021383
 21
55.51837444932353
 31
0.0
  0
LINE
  5
5E
330
1F
100
AcDbEntity
  8
0
100
AcDbLine
 10
264.6546570214168
 20
55.99838196446277
 30
0.0
 11
263.4146092558919
 21
55.5909629850774
 31
0.0
  0
LINE
  5
5F
330
1F
100
AcDbEntity
  8
0
100
AcDbLine
 10
265.7470033927681
 20
56.71286645732607
 30
0.0
 11
264.6546570214168
 21
55.99838196446277
 31
0.0
  0
LINE
  5
60
330
1F
100
AcDbEntity
  8
0
100
AcDbLine
 10
266.6172067699261
 20
57.68572552622024
 30
0.0
 11
265.7470033927681
 21
56.71286645732607
 31
0.0
  0
LINE
  5
61
330
1F
100
AcDbEntity
  8
0
100
AcDbLine
 10
267.2059642308164
 20
58.85066043332555
 30
0.0
 11
266.6172067699261
 21
57.68572552622024
 31
0.0
  0
LINE
  5
62
330
1F
100
AcDbEntity
  8
0
100
AcDbLine
 10
267.4731529274472
 20
60.12828278986893
 30
0.0
 11
267.2059642308164
 21
58.85066043332555
 31
0.0
  0
LINE
  5
63
330
1F
100
AcDbEntity
  8
0
100
AcDbLine
 10
267.4005643916933
 20
61.43152474362258
 30
0.0
 11
267.4731529274472
 21
60.12828278986893
 31
0.0
  0
LINE
  5
64
330
1F
100
AcDbEntity
  8
0
100
AcDbLine
 10
266.9931454123079
 20
62.67157250914736
 30
0.0
 11
267.4005643916933
 21
61.43152474362258
 31
0.0
  0
LINE
  5
65
330
1F
100
AcDbEntity
  8
0
100
AcDbLine
 10
266.2786609194446
 20
63.7639188804988
 30
0.0
 11
266.9931454123079
 21
62.67157250914736
 31
0.0
  0
LINE
  5
66
330
1F
100
AcDbEntity
  8
0
100
AcDbLine
 10
265.3058018505505
 20
64.63412225765663
 30
0.0
 11
266.2786609194446
 21
63.7639188804988
 31
0.0
  0
LINE
  5
67
330
1F
100
AcDbEntity
  8
0
100
AcDbLine
 10
265.3058018505505
 20
64.63412225765663
 30
0.0
 11
261.6070320571875
 21
67.15838808404443
 31
0.0
  0
LINE
  5
68
330
1F
100
AcDbEntity
  8
0
100
AcDbLine
 10
261.6070320571875
 20
67.15838808404443
 30
0.0
 11
258.1345526149811
 21
69.98587857386329
 31
0.0
  0
LINE
  5
69
330
1F
100
AcDbEntity
  8
0
100
AcDbLine
 10
258.1345526149811
 20
69.98587857386329
 30
0.0
 11
254.9131527696176
 21
73.0964089117405
 31
0.0
  0
LINE
  5
6A
330
1F
100
AcDbEntity
  8
0
100
AcDbLine
 10
254.9131527696176
 20
73.0964089117405
 30
0.0
 11
251.9658293663049
 21
76.46777372481677
 31
0.0
  0
LINE
  5
6B
330
1F
100
AcDbEntity
  8
0
100
AcDbLine
 10
251.9658293663049
 20
76.46777372481677
 30
0.0
 11
249.313622680494
 21
80.07590560188332
 31
0.0
  0
LINE
  5
6C
330
1F
100
AcDbEntity
  8
0
100
AcDbLine
 10
249.313622680494
 20
80.07590560188332
 30
0.0
 11
246.975466216109
 21
83.89504690518915
 31
0.0
  0
LINE
  5
6D
330
1F
100
AcDbEntity
  8
0
100
AcDbLine
 10
246.975466216109
 20
83.89504690518915
 30
0.0
 11
244.9680515435432
 21
87.8979336483948
 31
0.0
  0
LINE
  5
6E
330
1F
100
AcDbEntity
  8
0
100
AcDbLine
 10
244.9680515435432
 20
87.8979336483948
 30
0.0
 11
243.3057091423114
 21
92.05599012800512
 31
0.0
  0
LINE
  5
6F
330
1F
100
AcDbEntity
  8
0
100
AcDbLine
 10
243.3057091423114
 20
92.05599012800512
 30
0.0
 11
242.0003060989967
 21
96.33953291885811
 31
0.0
  0
LINE
  5
70
330
1F
100
AcDbEntity
  8
0
100
AcDbLine
 10
242.0003060989967
 20
96.33953291885811
 30
0.0
 11
241.0611613908025
 21
100.7179827773849
 31
0.0
  0
LINE
  5
71
330
1F
100
AcDbEntity
  8
0
100
AcDbLine
 10
241.0611613908025
 20
100.7179827773849
 30
0.0
 11
240.4949793594803
 21
105.1600829399174
 31
0.0
  0
LINE
  5
72
330
1F
100
AcDbEntity
  8
0
100
AcDbLine
 10
240.4949793594803
 20
105.1600829399174
 30
0.0
 11
240.3058018505505
 21
109.6341222576567
 31
0.0
  0
LINE
  5
73
330
1F
100
AcDbEntity
  8
0
100
AcDbLine
 10
240.3058018505505
 20
109.6341222576567
 30
0.0
 11
240.3058018505505
 21
166.6341222576567
 31
0.0
  0
LINE
  5
74
330
1F
100
AcDbEntity
  8
0
100
AcDbLine
 10
240.2035793294177
 20
167.4105793929643
 30
0.0
 11
240.3058018505505
 21
166.6341222576567
 31
0.0
  0
LINE
  5
75
330
1F
100
AcDbEntity
  8
0
100
AcDbLine
 10
239.9038780619038
 20
168.1341222576567
 30
0.0
 11
240.2035793294177
 21
167.4105793929643
 31
0.0
  0
LINE
  5
76
330
1F
100
AcDbEntity
  8
0
100
AcDbLine
 10
239.4271221941102
 20
168.7554426012163
 30
0.0
 11
239.9038780619038
 21
168.1341222576567
 31
0.0
  0
LINE
  5
77
330
1F
100
AcDbEntity
  8
0
100
AcDbLine
 10
238.8058018505504
 20
169.2321984690101
 30
0.0
 11
239.4271221941102
 21
168.7554426012163
 31
0.0
  0
LINE
  5
78
330
1F
100
AcDbEntity
  8
0
100
AcDbLine
 10
238.082258985858
 20
169.5318997365239
 30
0.0
 11
238.8058018505504
 21
169.2321984690101
 31
0.0
  0
LINE
  5
79
330
1F
100
AcDbEntity
  8
0
100
AcDbLine
 10
237.3058018505505
 20
169.6341222576568
 30
0.0
 11
238.082258985858
 21
169.5318997365239
 31
0.0
  0
LINE
  5
7A
330
1F
100
AcDbEntity
  8
0
100
AcDbLine
 10
236.5293447152429
 20
169.5318997365239
 30
0.0
 11
237.3058018505505
 21
169.6341222576568
 31
0.0
  0
LINE
  5
7B
330
1F
100
AcDbEntity
  8
0
100
AcDbLine
 10
235.8058018505504
 20
169.2321984690101
 30
0.0
 11
236.5293447152429
 21
169.5318997365239
 31
0.0
  0
LINE
  5
7C
330
1F
100
AcDbEntity
  8
0
100
AcDbLine
 10
235.1844815069908
 20
168.7554426012163
 30
0.0
 11
235.8058018505504
 21
169.2321984690101
 31
0.0
  0
LINE
  5
7D
330
1F
100
AcDbEntity
  8
0
100
AcDbLine
 10
234.7077256391972
 20
168.1341222576567
 30
0.0
 11
235.1844815069908
 21
168.7554426012163
 31
0.0
  0
LINE
  5
7E
330
1F
100
AcDbEntity
  8
0
100
AcDbLine
 10
234.4080243716833
 20
167.4105793929643
 30
0.0
 11
234.7077256391972
 21
168.1341222576567
 31
0.0
  0
LINE
  5
7F
330
1F
100
AcDbEntity
  8
0
100
AcDbLine
 10
234.3058018505505
 20
166.6341222576567
 30
0.0
 11
234.4080243716833
 21
167.4105793929643
 31
0.0
  0
LINE
  5
80
330
1F
100
AcDbEntity
  8
0
100
AcDbLine
 10
234.3058018505505
 20
166.6341222576567
 30
0.0
 11
234.3058018505505
 21
-164.3658777423432
 31
0.0
  0
LINE
  5
81
330
1F
100
AcDbEntity
  8
0
100
AcDbLine
 10
234.510246892816
 20
-165.9187920129584
 30
0.0
 11
234.3058018505505
 21
-164.3658777423432
 31
0.0
  0
LINE
  5
82
330
1F
100
AcDbEntity
  8
0
100
AcDbLine
 10
235.1096494278438
 20
-167.3658777423433
 30
0.0
 11
234.510246892816
 21
-165.9187920129584
 31
0.0
  0
LINE
  5
83
330
1F
100
AcDbEntity
  8
0
100
AcDbLine
 10
236.0631611634312
 20
-168.6085184294625
 30
0.0
 11
235.1096494278438
 21
-167.3658777423433
 31
0.0
  0
LINE
  5
84
330
1F
100
AcDbEntity
  8
0
100
AcDbLine
 10
237.3058018505505
 20
-169.5620301650499
 30
0.0
 11
236.0631611634312
 21
-168.6085184294625
 31
0.0
  0
LINE
  5
85
330
1F
100
AcDbEntity
  8
0
100
AcDbLine
 10
238.7528875799353
 20
-170.1614327000777
 30
0.0
 11
237.3058018505505
 21
-169.5620301650499
 31
0.0
  0
LINE
  5
86
330
1F
100
AcDbEntity
  8
0
100
AcDbLine
 10
240.3058018505504
 20
-170.3658777423433
 30
0.0
 11
238.7528875799353
 21
-170.1614327000777
 31
0.0
  0
LINE
  5
87
330
1F
100
AcDbEntity
  8
0
100
AcDbLine
 10
240.3058018505504
 20
-170.3658777423433
 30
0.0
 11
255.8058018505505
 21
-170.3658777423433
 31
0.0
  0
LINE
  5
88
330
1F
100
AcDbEntity
  8
0
100
AcDbLine
 10
255.8058018505505
 20
-164.3658777423433
 30
0.0
 11
255.8058018505505
 21
-170.3658777423433
 31
0.0
  0
LINE
  5
89
330
1F
100
AcDbEntity
  8
0
100
AcDbLine
 10
255.8058018505505
 20
-164.3658777423433
 30
0.0
 11
255.8058018505505
 21
-140.3658777423433
 31
0.0
  0
LINE
  5
8A
330
1F
100
AcDbEntity
  8
0
100
AcDbLine
 10
255.8058018505505
 20
-140.3658777423433
 30
0.0
 11
240.3058018505505
 21
-110.3658777423433
 31
0.0
  0
LINE
  5
8B
330
1F
100
AcDbEntity
  8
0
100
AcDbLine
 10
238.8058018505505
 20
166.6341222576567
 30
0.0
 11
238.7546905899841
 21
166.245893690003
 31
0.0
  0
LINE
  5
8C
330
1F
100
AcDbEntity
  8
0
100
AcDbLine
 10
238.7546905899841
 20
166.245893690003
 30
0.0
 11
238.6048399562272
 21
165.8841222576567
 31
0.0
  0
LINE
  5
8D
330
1F
100
AcDbEntity
  8
0
100
AcDbLine
 10
238.6048399562272
 20
165.8841222576567
 30
0.0
 11
238.3664620223303
 21
165.5734620858769
 31
0.0
  0
LINE
  5
8E
330
1F
100
AcDbEntity
  8
0
100
AcDbLine
 10
238.3664620223303
 20
165.5734620858769
 30
0.0
 11
238.0558018505505
 21
165.3350841519801
 31
0.0
  0
LINE
  5
8F
330
1F
100
AcDbEntity
  8
0
100
AcDbLine
 10
238.0558018505505
 20
165.3350841519801
 30
0.0
 11
237.6940304182043
 21
165.1852335182232
 31
0.0
  0
LINE
  5
90
330
1F
100
AcDbEntity
  8
0
100
AcDbLine
 10
237.6940304182043
 20
165.1852335182232
 30
0.0
 11
237.3058018505505
 21
165.1341222576567
 31
0.0
  0
LINE
  5
91
330
1F
100
AcDbEntity
  8
0
100
AcDbLine
 10
237.3058018505505
 20
165.1341222576567
 30
0.0
 11
236.9175732828967
 21
165.1852335182232
 31
0.0
  0
LINE
  5
92
330
1F
100
AcDbEntity
  8
0
100
AcDbLine
 10
236.9175732828967
 20
165.1852335182232
 30
0.0
 11
236.5558018505505
 21
165.3350841519801
 31
0.0
  0
LINE
  5
93
330
1F
100
AcDbEntity
  8
0
100
AcDbLine
 10
236.5558018505505
 20
165.3350841519801
 30
0.0
 11
236.2451416787707
 21
165.5734620858769
 31
0.0
  0
LINE
  5
94
330
1F
100
AcDbEntity
  8
0
100
AcDbLine
 10
236.2451416787707
 20
165.5734620858769
 30
0.0
 11
236.0067637448738
 21
165.8841222576567
 31
0.0
  0
LINE
  5
95
330
1F
100
AcDbEntity
  8
0
100
AcDbLine
 10
236.0067637448738
 20
165.8841222576567
 30
0.0
 11
235.8569131111169
 21
166.245893690003
 31
0.0
  0
LINE
  5
96
330
1F
100
AcDbEntity
  8
0
100
AcDbLine
 10
235.8569131111169
 20
166.245893690003
 30
0.0
 11
235.8058018505504
 21
166.6341222576567
 31
0.0
  0
LINE
  5
97
330
1F
100
AcDbEntity
  8
0
100
AcDbLine
 10
235.8058018505504
 20
166.6341222576567
 30
0.0
 11
235.8569131111169
 21
167.0223508253106
 31
0.0
  0
LINE
  5
98
330
1F
100
AcDbEntity
  8
0
100
AcDbLine
 10
235.8569131111169
 20
167.0223508253106
 30
0.0
 11
236.0067637448738
 21
167.3841222576567
 31
0.0
  0
LINE
  5
99
330
1F
100
AcDbEntity
  8
0
100
AcDbLine
 10
236.0067637448738
 20
167.3841222576567
 30
0.0
 11
236.2451416787707
 21
167.6947824294365
 31
0.0
  0
LINE
  5
9A
330
1F
100
AcDbEntity
  8
0
100
AcDbLine
 10
236.2451416787707
 20
167.6947824294365
 30
0.0
 11
236.5558018505505
 21
167.9331603633335
 31
0.0
  0
LINE
  5
9B
330
1F
100
AcDbEntity
  8
0
100
AcDbLine
 10
236.5558018505505
 20
167.9331603633335
 30
0.0
 11
236.9175732828967
 21
168.0830109970904
 31
0.0
  0
LINE
  5
9C
330
1F
100
AcDbEntity
  8
0
100
AcDbLine
 10
236.9175732828967
 20
168.0830109970904
 30
0.0
 11
237.3058018505505
 21
168.1341222576567
 31
0.0
  0
LINE
  5
9D
330
1F
100
AcDbEntity
  8
0
100
AcDbLine
 10
237.3058018505505
 20
168.1341222576567
 30
0.0
 11
237.6940304182043
 21
168.0830109970904
 31
0.0
  0
LINE
  5
9E
330
1F
100
AcDbEntity
  8
0
100
AcDbLine
 10
237.6940304182043
 20
168.0830109970904
 30
0.0
 11
238.0558018505505
 21
167.9331603633335
 31
0.0
  0
LINE
  5
9F
330
1F
100
AcDbEntity
  8
0
100
AcDbLine
 10
238.0558018505505
 20
167.9331603633335
 30
0.0
 11
238.3664620223303
 21
167.6947824294365
 31
0.0
  0
LINE
  5
A0
330
1F
100
AcDbEntity
  8
0
100
AcDbLine
 10
238.3664620223303
 20
167.6947824294365
 30
0.0
 11
238.6048399562272
 21
167.3841222576567
 31
0.0
  0
LINE
  5
A1
330
1F
100
AcDbEntity
  8
0
100
AcDbLine
 10
238.6048399562272
 20
167.3841222576567
 30
0.0
 11
238.7546905899841
 21
167.0223508253106
 31
0.0
  0
LINE
  5
A2
330
1F
100
AcDbEntity
  8
0
100
AcDbLine
 10
238.7546905899841
 20
167.0223508253106
 30
0.0
 11
238.8058018505505
 21
166.6341222576567
 31
0.0
  0
LINE
  5
A3
330
1F
100
AcDbEntity
  8
0
100
AcDbLine
 10
240.9528494633068
 20
-80.28069230806608
 30
0.0
 11
240.3058018505505
 21
-80.36587774234341
 31
0.0
  0
LINE
  5
A4
330
1F
100
AcDbEntity
  8
0
100
AcDbLine
 10
240.3058018505505
 20
-80.36587774234341
 30
0.0
 11
239.6587542377942
 21
-80.28069230806608
 31
0.0
  0
LINE
  5
A5
330
1F
100
AcDbEntity
  8
0
100
AcDbLine
 10
239.6587542377942
 20
-80.28069230806608
 30
0.0
 11
239.0558018505505
 21
-80.03094125180459
 31
0.0
  0
LINE
  5
A6
330
1F
100
AcDbEntity
  8
0
100
AcDbLine
 10
239.0558018505505
 20
-80.03094125180459
 30
0.0
 11
238.5380348975841
 21
-79.63364469530984
 31
0.0
  0
LINE
  5
A7
330
1F
100
AcDbEntity
  8
0
100
AcDbLine
 10
238.5380348975841
 20
-79.63364469530984
 30
0.0
 11
238.1407383410894
 21
-79.11587774234351
 31
0.0
  0
LINE
  5
A8
330
1F
100
AcDbEntity
  8
0
100
AcDbLine
 10
238.1407383410894
 20
-79.11587774234351
 30
0.0
 11
237.8909872848278
 21
-78.51292535509987
 31
0.0
  0
LINE
  5
A9
330
1F
100
AcDbEntity
  8
0
100
AcDbLine
 10
237.8909872848278
 20
-78.51292535509987
 30
0.0
 11
237.8058018505504
 21
-77.86587774234344
 31
0.0
  0
LINE
  5
AA
330
1F
100
AcDbEntity
  8
0
100
AcDbLine
 10
237.8058018505504
 20
-77.86587774234344
 30
0.0
 11
237.8909872848278
 21
-77.2188301295872
 31
0.0
  0
LINE
  5
AB
330
1F
100
AcDbEntity
  8
0
100
AcDbLine
 10
237.8909872848278
 20
-77.2188301295872
 30
0.0
 11
238.1407383410894
 21
-76.61587774234354
 31
0.0
  0
LINE
  5
AC
330
1F
100
AcDbEntity
  8
0
100
AcDbLine
 10
238.1407383410894
 20
-76.61587774234354
 30
0.0
 11
238.5380348975841
 21
-76.09811078937705
 31
0.0
  0
LINE
  5
AD
330
1F
100
AcDbEntity
  8
0
100
AcDbLine
 10
238.5380348975841
 20
-76.09811078937705
 30
0.0
 11
239.0558018505504
 21
-75.7008142328823
 31
0.0
  0
LINE
  5
AE
330
1F
100
AcDbEntity
  8
0
100
AcDbLine
 10
239.0558018505504
 20
-75.7008142328823
 30
0.0
 11
239.6587542377942
 21
-75.4510631766208
 31
0.0
  0
LINE
  5
AF
330
1F
100
AcDbEntity
  8
0
100
AcDbLine
 10
239.6587542377942
 20
-75.4510631766208
 30
0.0
 11
240.3058018505505
 21
-75.36587774234347
 31
0.0
  0
LINE
  5
B0
330
1F
100
AcDbEntity
  8
0
100
AcDbLine
 10
240.3058018505505
 20
-75.36587774234347
 30
0.0
 11
240.9528494633068
 21
-75.4510631766208
 31
0.0
  0
LINE
  5
B1
330
1F
100
AcDbEntity
  8
0
100
AcDbLine
 10
240.9528494633068
 20
-75.4510631766208
 30
0.0
 11
241.5558018505505
 21
-75.7008142328823
 31
0.0
  0
LINE
  5
B2
330
1F
100
AcDbEntity
  8
0
100
AcDbLine
 10
241.5558018505505
 20
-75.7008142328823
 30
0.0
 11
242.0735688035169
 21
-76.09811078937705
 31
0.0
  0
LINE
  5
B3
330
1F
100
AcDbEntity
  8
0
100
AcDbLine
 10
242.0735688035169
 20
-76.09811078937705
 30
0.0
 11
242.4708653600116
 21
-76.61587774234354
 31
0.0
  0
LINE
  5
B4
330
1F
100
AcDbEntity
  8
0
100
AcDbLine
 10
242.4708653600116
 20
-76.61587774234354
 30
0.0
 11
242.7206164162731
 21
-77.2188301295872
 31
0.0
  0
LINE
  5
B5
330
1F
100
AcDbEntity
  8
0
100
AcDbLine
 10
242.7206164162731
 20
-77.2188301295872
 30
0.0
 11
242.8058018505505
 21
-77.86587774234344
 31
0.0
  0
LINE
  5
B6
330
1F
100
AcDbEntity
  8
0
100
AcDbLine
 10
242.8058018505505
 20
-77.86587774234344
 30
0.0
 11
242.7206164162731
 21
-78.51292535509968
 31
0.0
  0
LINE
  5
B7
330
1F
100
AcDbEntity
  8
0
100
AcDbLine
 10
242.7206164162731
 20
-78.51292535509968
 30
0.0
 11
242.4708653600116
 21
-79.11587774234351
 31
0.0
  0
LINE
  5
B8
330
1F
100
AcDbEntity
  8
0
100
AcDbLine
 10
242.4708653600116
 20
-79.11587774234351
 30
0.0
 11
242.0735688035169
 21
-79.63364469530984
 31
0.0
  0
LINE
  5
B9
330
1F
100
AcDbEntity
  8
0
100
AcDbLine
 10
242.0735688035169
 20
-79.63364469530984
 30
0.0
 11
241.5558018505505
 21
-80.03094125180459
 31
0.0
  0
LINE
  5
BA
330
1F
100
AcDbEntity
  8
0
100
AcDbLine
 10
241.5558018505505
 20
-80.03094125180459
 30
0.0
 11
240.9528494633068
 21
-80.28069230806608
 31
0.0
  0
LINE
  5
BB
330
1F
100
AcDbEntity
  8
0
100
AcDbLine
 10
241.8058018505505
 20
-164.3658777423433
 30
0.0
 11
241.7546905899841
 21
-164.7541063099971
 31
0.0
  0
LINE
  5
BC
330
1F
100
AcDbEntity
  8
0
100
AcDbLine
 10
241.7546905899841
 20
-164.7541063099971
 30
0.0
 11
241.6048399562272
 21
-165.1158777423433
 31
0.0
  0
LINE
  5
BD
330
1F
100
AcDbEntity
  8
0
100
AcDbLine
 10
241.6048399562272
 20
-165.1158777423433
 30
0.0
 11
241.3664620223303
 21
-165.4265379141231
 31
0.0
  0
LINE
  5
BE
330
1F
100
AcDbEntity
  8
0
100
AcDbLine
 10
241.3664620223303
 20
-165.4265379141231
 30
0.0
 11
241.0558018505505
 21
-165.66491584802
 31
0.0
  0
LINE
  5
BF
330
1F
100
AcDbEntity
  8
0
100
AcDbLine
 10
241.0558018505505
 20
-165.66491584802
 30
0.0
 11
240.6940304182043
 21
-165.8147664817769
 31
0.0
  0
LINE
  5
C0
330
1F
100
AcDbEntity
  8
0
100
AcDbLine
 10
240.6940304182043
 20
-165.8147664817769
 30
0.0
 11
240.3058018505505
 21
-165.8658777423433
 31
0.0
  0
LINE
  5
C1
330
1F
100
AcDbEntity
  8
0
100
AcDbLine
 10
240.3058018505505
 20
-165.8658777423433
 30
0.0
 11
239.9175732828967
 21
-165.8147664817769
 31
0.0
  0
LINE
  5
C2
330
1F
100
AcDbEntity
  8
0
100
AcDbLine
 10
239.9175732828967
 20
-165.8147664817769
 30
0.0
 11
239.5558018505505
 21
-165.66491584802
 31
0.0
  0
LINE
  5
C3
330
1F
100
AcDbEntity
  8
0
100
AcDbLine
 10
239.5558018505505
 20
-165.66491584802
 30
0.0
 11
239.2451416787707
 21
-165.4265379141231
 31
0.0
  0
LINE
  5
C4
330
1F
100
AcDbEntity
  8
0
100
AcDbLine
 10
239.2451416787707
 20
-165.4265379141231
 30
0.0
 11
239.0067637448738
 21
-165.1158777423433
 31
0.0
  0
LINE
  5
C5
330
1F
100
AcDbEntity
  8
0
100
AcDbLine
 10
239.0067637448738
 20
-165.1158777423433
 30
0.0
 11
238.8569131111169
 21
-164.7541063099971
 31
0.0
  0
LINE
  5
C6
330
1F
100
AcDbEntity
  8
0
100
AcDbLine
 10
238.8569131111169
 20
-164.7541063099971
 30
0.0
 11
238.8058018505505
 21
-164.3658777423433
 31
0.0
  0
LINE
  5
C7
330
1F
100
AcDbEntity
  8
0
100
AcDbLine
 10
238.8058018505505
 20
-164.3658777423433
 30
0.0
 11
238.8569131111169
 21
-163.9776491746895
 31
0.0
  0
LINE
  5
C8
330
1F
100
AcDbEntity
  8
0
100
AcDbLine
 10
238.8569131111169
 20
-163.9776491746895
 30
0.0
 11
239.0067637448738
 21
-163.6158777423433
 31
0.0
  0
LINE
  5
C9
330
1F
100
AcDbEntity
  8
0
100
AcDbLine
 10
239.0067637448738
 20
-163.6158777423433
 30
0.0
 11
239.2451416787707
 21
-163.3052175705635
 31
0.0
  0
LINE
  5
CA
330
1F
100
AcDbEntity
  8
0
100
AcDbLine
 10
239.2451416787707
 20
-163.3052175705635
 30
0.0
 11
239.5558018505505
 21
-163.0668396366667
 31
0.0
  0
LINE
  5
CB
330
1F
100
AcDbEntity
  8
0
100
AcDbLine
 10
239.5558018505505
 20
-163.0668396366667
 30
0.0
 11
239.9175732828967
 21
-162.9169890029098
 31
0.0
  0
LINE
  5
CC
330
1F
100
AcDbEntity
  8
0
100
AcDbLine
 10
239.9175732828967
 20
-162.9169890029098
 30
0.0
 11
240.3058018505505
 21
-162.8658777423432
 31
0.0
  0
LINE
  5
CD
330
1F
100
AcDbEntity
  8
0
100
AcDbLine
 10
240.3058018505505
 20
-162.8658777423432
 30
0.0
 11
240.6940304182043
 21
-162.9169890029098
 31
0.0
  0
LINE
  5
CE
330
1F
100
AcDbEntity
  8
0
100
AcDbLine
 10
240.6940304182043
 20
-162.9169890029098
 30
0.0
 11
241.0558018505505
 21
-163.0668396366667
 31
0.0
  0
LINE
  5
CF
330
1F
100
AcDbEntity
  8
0
100
AcDbLine
 10
241.0558018505505
 20
-163.0668396366667
 30
0.0
 11
241.3664620223303
 21
-163.3052175705635
 31
0.0
  0
LINE
  5
D0
330
1F
100
AcDbEntity
  8
0
100
AcDbLine
 10
241.3664620223303
 20
-163.3052175705635
 30
0.0
 11
241.6048399562272
 21
-163.6158777423433
 31
0.0
  0
LINE
  5
D1
330
1F
100
AcDbEntity
  8
0
100
AcDbLine
 10
241.6048399562272
 20
-163.6158777423433
 30
0.0
 11
241.7546905899841
 21
-163.9776491746895
 31
0.0
  0
LINE
  5
D2
330
1F
100
AcDbEntity
  8
0
100
AcDbLine
 10
241.7546905899841
 20
-163.9776491746895
 30
0.0
 11
241.8058018505505
 21
-164.3658777423433
 31
0.0
  0
LINE
  5
D3
330
1F
100
AcDbEntity
  8
0
100
AcDbLine
 10
263.8390577848564
 20
61.15442675531965
 30
0.0
 11
263.961283478672
 21
60.78241242566218
 31
0.0
  0
LINE
  5
D4
330
1F
100
AcDbEntity
  8
0
100
AcDbLine
 10
263.961283478672
 20
60.78241242566218
 30
0.0
 11
263.9830600393983
 21
60.39143983953605
 31
0.0
  0
LINE
  5
D5
330
1F
100
AcDbEntity
  8
0
100
AcDbLine
 10
263.9830600393983
 20
60.39143983953605
 30
0.0
 11
263.9029034304089
 21
60.00815313257305
 31
0.0
  0
LINE
  5
D6
330
1F
100
AcDbEntity
  8
0
100
AcDbLine
 10
263.9029034304089
 20
60.00815313257305
 30
0.0
 11
263.7262761921418
 21
59.65867266044143
 31
0.0
  0
LINE
  5
D7
330
1F
100
AcDbEntity
  8
0
100
AcDbLine
 10
263.7262761921418
 20
59.65867266044143
 30
0.0
 11
263.4652151789945
 21
59.36681493977326
 31
0.0
  0
LINE
  5
D8
330
1F
100
AcDbEntity
  8
0
100
AcDbLine
 10
263.4652151789945
 20
59.36681493977326
 30
0.0
 11
263.1375112675891
 21
59.15246959191429
 31
0.0
  0
LINE
  5
D9
330
1F
100
AcDbEntity
  8
0
100
AcDbLine
 10
263.1375112675891
 20
59.15246959191429
 30
0.0
 11
262.7654969379316
 21
59.03024389809859
 31
0.0
  0
LINE
  5
DA
330
1F
100
AcDbEntity
  8
0
100
AcDbLine
 10
262.7654969379316
 20
59.03024389809859
 30
0.0
 11
262.3745243518055
 21
59.00846733737243
 31
0.0
  0
LINE
  5
DB
330
1F
100
AcDbEntity
  8
0
100
AcDbLine
 10
262.3745243518055
 20
59.00846733737243
 30
0.0
 11
261.9912376448425
 21
59.08862394636174
 31
0.0
  0
LINE
  5
DC
330
1F
100
AcDbEntity
  8
0
100
AcDbLine
 10
261.9912376448425
 20
59.08862394636174
 30
0.0
 11
261.6417571727109
 21
59.26525118462889
 31
0.0
  0
LINE
  5
DD
330
1F
100
AcDbEntity
  8
0
100
AcDbLine
 10
261.6417571727109
 20
59.26525118462889
 30
0.0
 11
261.3498994520427
 21
59.52631219777619
 31
0.0
  0
LINE
  5
DE
330
1F
100
AcDbEntity
  8
0
100
AcDbLine
 10
261.3498994520427
 20
59.52631219777619
 30
0.0
 11
261.1355541041837
 21
59.85401610918166
 31
0.0
  0
LINE
  5
DF
330
1F
100
AcDbEntity
  8
0
100
AcDbLine
 10
261.1355541041837
 20
59.85401610918166
 30
0.0
 11
261.013328410368
 21
60.22603043883913
 31
0.0
  0
LINE
  5
E0
330
1F
100
AcDbEntity
  8
0
100
AcDbLine
 10
261.013328410368
 20
60.22603043883913
 30
0.0
 11
260.9915518496419
 21
60.61700302496526
 31
0.0
  0
LINE
  5
E1
330
1F
100
AcDbEntity
  8
0
100
AcDbLine
 10
260.9915518496419
 20
60.61700302496526
 30
0.0
 11
261.0717084586311
 21
61.00028973192826
 31
0.0
  0
LINE
  5
E2
330
1F
100
AcDbEntity
  8
0
100
AcDbLine
 10
261.0717084586311
 20
61.00028973192826
 30
0.0
 11
261.2483356968983
 21
61.34977020405971
 31
0.0
  0
LINE
  5
E3
330
1F
100
AcDbEntity
  8
0
100
AcDbLine
 10
261.2483356968983
 20
61.34977020405971
 30
0.0
 11
261.5093967100456
 21
61.64162792472805
 31
0.0
  0
LINE
  5
E4
330
1F
100
AcDbEntity
  8
0
100
AcDbLine
 10
261.5093967100456
 20
61.64162792472805
 30
0.0
 11
261.837100621451
 21
61.85597327258701
 31
0.0
  0
LINE
  5
E5
330
1F
100
AcDbEntity
  8
0
100
AcDbLine
 10
261.837100621451
 20
61.85597327258701
 30
0.0
 11
262.2091149511085
 21
61.97819896640254
 31
0.0
  0
LINE
  5
E6
330
1F
100
AcDbEntity
  8
0
100
AcDbLine
 10
262.2091149511085
 20
61.97819896640254
 30
0.0
 11
262.6000875372346
 21
61.9999755271287
 31
0.0
  0
LINE
  5
E7
330
1F
100
AcDbEntity
  8
0
100
AcDbLine
 10
262.6000875372346
 20
61.9999755271287
 30
0.0
 11
262.9833742441976
 21
61.91981891813957
 31
0.0
  0
LINE
  5
E8
330
1F
100
AcDbEntity
  8
0
100
AcDbLine
 10
262.9833742441976
 20
61.91981891813957
 30
0.0
 11
263.3328547163292
 21
61.74319167987241
 31
0.0
  0
LINE
  5
E9
330
1F
100
AcDbEntity
  8
0
100
AcDbLine
 10
263.3328547163292
 20
61.74319167987241
 30
0.0
 11
263.6247124369974
 21
61.48213066672512
 31
0.0
  0
LINE
  5
EA
330
1F
100
AcDbEntity
  8
0
100
AcDbLine
 10
263.6247124369974
 20
61.48213066672512
 30
0.0
 11
263.8390577848564
 21
61.15442675531965
 31
0.0
  0
LINE
  5
EB
330
1F
100
AcDbEntity
  8
0
100
AcDbLine
 10
281.3058018505505
 20
-50.36587774234334
 30
0.0
 11
281.3058018505505
 21
-7.393841436897446
 31
0.0
  0
LINE
  5
EC
330
1F
100
AcDbEntity
  8
0
100
AcDbLine
 10
281.2329310006152
 20
-52.66322979623934
 30
0.0
 11
281.3058018505505
 21
-50.36587774234334
 31
0.0
  0
LINE
  5
ED
330
1F
100
AcDbEntity
  8
0
100
AcDbLine
 10
281.0146114251966
 20
-54.95134543652066
 30
0.0
 11
281.2329310006152
 21
-52.66322979623934
 31
0.0
  0
LINE
  5
EE
330
1F
100
AcDbEntity
  8
0
100
AcDbLine
 10
280.6517208695645
 20
-57.22102538421019
 30
0.0
 11
281.0146114251966
 21
-54.95134543652066
 31
0.0
  0
LINE
  5
EF
330
1F
100
AcDbEntity
  8
0
100
AcDbLine
 10
280.1457183209315
 20
-59.46314448030839
 30
0.0
 11
280.6517208695645
 21
-57.22102538421019
 31
0.0
  0
LINE
  5
F0
330
1F
100
AcDbEntity
  8
0
100
AcDbLine
 10
279.4986381426511
 20
-61.66868837313558
 30
0.0
 11
280.1457183209315
 21
-59.46314448030839
 31
0.0
  0
LINE
  5
F1
330
1F
100
AcDbEntity
  8
0
100
AcDbLine
 10
278.7130818951412
 20
-63.82878976017956
 30
0.0
 11
279.4986381426511
 21
-61.66868837313558
 31
0.0
  0
LINE
  5
F2
330
1F
100
AcDbEntity
  8
0
100
AcDbLine
 10
277.7922078764112
 20
-65.93476403873555
 30
0.0
 11
278.7130818951412
 21
-63.82878976017956
 31
0.0
  0
LINE
  5
F3
330
1F
100
AcDbEntity
  8
0
100
AcDbLine
 10
276.7397184242506
 20
-67.97814422201058
 30
0.0
 11
277.7922078764112
 21
-65.93476403873555
 31
0.0
  0
LINE
  5
F4
330
1F
100
AcDbEntity
  8
0
100
AcDbLine
 10
275.5598450311241
 20
-69.95071498031126
 30
0.0
 11
276.7397184242506
 21
-67.97814422201058
 31
0.0
  0
LINE
  5
F5
330
1F
100
AcDbEntity
  8
0
100
AcDbLine
 10
274.2573313316234
 20
-71.84454567045348
 30
0.0
 11
275.5598450311241
 21
-69.95071498031126
 31
0.0
  0
LINE
  5
F6
330
1F
100
AcDbEntity
  8
0
100
AcDbLine
 10
272.8374140308705
 20
-73.65202222060104
 30
0.0
 11
274.2573313316234
 21
-71.84454567045348
 31
0.0
  0
LINE
  5
F7
330
1F
100
AcDbEntity
  8
0
100
AcDbLine
 10
271.3058018505505
 20
-75.36587774234324
 30
0.0
 11
272.8374140308705
 21
-73.65202222060104
 31
0.0
  0
LINE
  5
F8
330
1F
100
AcDbEntity
  8
0
100
AcDbLine
 10
271.3058018505505
 20
-75.36587774234324
 30
0.0
 11
271.0106489024432
 21
-75.71801094953224
 31
0.0
  0
LINE
  5
F9
330
1F
100
AcDbEntity
  8
0
100
AcDbLine
 10
271.0106489024432
 20
-75.71801094953224
 30
0.0
 11
270.7624101931805
 21
-76.10465109437655
 31
0.0
  0
LINE
  5
FA
330
1F
100
AcDbEntity
  8
0
100
AcDbLine
 10
270.7624101931805
 20
-76.10465109437655
 30
0.0
 11
270.5650738460914
 21
-76.51958654055963
 31
0.0
  0
LINE
  5
FB
330
1F
100
AcDbEntity
  8
0
100
AcDbLine
 10
270.5650738460914
 20
-76.51958654055963
 30
0.0
 11
270.4218102035124
 21
-76.95615106854684
 31
0.0
  0
LINE
  5
FC
330
1F
100
AcDbEntity
  8
0
100
AcDbLine
 10
270.4218102035124
 20
-76.95615106854684
 30
0.0
 11
270.3349208930859
 21
-77.4073309729256
 31
0.0
  0
LINE
  5
FD
330
1F
100
AcDbEntity
  8
0
100
AcDbLine
 10
270.3349208930859
 20
-77.4073309729256
 30
0.0
 11
270.3058018505505
 21
-77.86587774234322
 31
0.0
  0
LINE
  5
FE
330
1F
100
AcDbEntity
  8
0
100
AcDbLine
 10
270.3058018505505
 20
-77.86587774234322
 30
0.0
 11
270.3349208930859
 21
-78.32442451176101
 31
0.0
  0
LINE
  5
FF
330
1F
100
AcDbEntity
  8
0
100
AcDbLine
 10
270.3349208930859
 20
-78.32442451176101
 30
0.0
 11
270.4218102035124
 21
-78.77560441613977
 31
0.0
  0
LINE
  5
100
330
1F
100
AcDbEntity
  8
0
100
AcDbLine
 10
270.4218102035124
 20
-78.77560441613977
 30
0.0
 11
270.5650738460914
 21
-79.2121689441268
 31
0.0
  0
LINE
  5
101
330
1F
100
AcDbEntity
  8
0
100
AcDbLine
 10
270.5650738460914
 20
-79.2121689441268
 30
0.0
 11
270.7624101931805
 21
-79.62710439031007
 31
0.0
  0
LINE
  5
102
330
1F
100
AcDbEntity
  8
0
100
AcDbLine
 10
270.7624101931805
 20
-79.62710439031007
 30
0.0
 11
271.0106489024432
 21
-80.0137445351542
 31
0.0
  0
LINE
  5
103
330
1F
100
AcDbEntity
  8
0
100
AcDbLine
 10
271.0106489024432
 20
-80.0137445351542
 30
0.0
 11
271.3058018505505
 21
-80.36587774234319
 31
0.0
  0
LINE
  5
104
330
1F
100
AcDbEntity
  8
0
100
AcDbLine
 10
271.3058018505505
 20
-80.36587774234319
 30
0.0
 11
281.3058018505505
 21
-92.29641102846118
 31
0.0
  0
LINE
  5
105
330
1F
100
AcDbEntity
  8
0
100
AcDbLine
 10
281.3058018505505
 20
-110.3658777423432
 30
0.0
 11
281.3058018505505
 21
-92.29641102846118
 31
0.0
  0
LINE
  5
106
330
1F
100
AcDbEntity
  8
0
100
AcDbLine
 10
265.8058018505505
 20
-140.3658777423433
 30
0.0
 11
281.3058018505505
 21
-110.3658777423432
 31
0.0
  0
LINE
  5
107
330
1F
100
AcDbEntity
  8
0
100
AcDbLine
 10
265.8058018505505
 20
-164.3658777423433
 30
0.0
 11
265.8058018505505
 21
-140.3658777423433
 31
0.0
  0
LINE
  5
108
330
1F
100
AcDbEntity
  8
0
100
AcDbLine
 10
265.8058018505505
 20
-164.3658777423433
 30
0.0
 11
265.8058018505505
 21
-170.3658777423433
 31
0.0
  0
LINE
  5
109
330
1F
100
AcDbEntity
  8
0
100
AcDbLine
 10
265.8058018505505
 20
-170.3658777423433
 30
0.0
 11
281.3058018505505
 21
-170.3658777423433
 31
0.0
  0
LINE
  5
10A
330
1F
100
AcDbEntity
  8
0
100
AcDbLine
 10
282.8587161211656
 20
-170.1614327000777
 30
0.0
 11
281.3058018505505
 21
-170.3658777423433
 31
0.0
  0
LINE
  5
10B
330
1F
100
AcDbEntity
  8
0
100
AcDbLine
 10
284.3058018505505
 20
-169.5620301650499
 30
0.0
 11
282.8587161211656
 21
-170.1614327000777
 31
0.0
  0
LINE
  5
10C
330
1F
100
AcDbEntity
  8
0
100
AcDbLine
 10
285.5484425376698
 20
-168.6085184294626
 30
0.0
 11
284.3058018505505
 21
-169.5620301650499
 31
0.0
  0
LINE
  5
10D
330
1F
100
AcDbEntity
  8
0
100
AcDbLine
 10
286.5019542732571
 20
-167.3658777423433
 30
0.0
 11
285.5484425376698
 21
-168.6085184294626
 31
0.0
  0
LINE
  5
10E
330
1F
100
AcDbEntity
  8
0
100
AcDbLine
 10
287.1013568082849
 20
-165.9187920129585
 30
0.0
 11
286.5019542732571
 21
-167.3658777423433
 31
0.0
  0
LINE
  5
10F
330
1F
100
AcDbEntity
  8
0
100
AcDbLine
 10
287.3058018505505
 20
-164.3658777423433
 30
0.0
 11
287.1013568082849
 21
-165.9187920129585
 31
0.0
  0
LINE
  5
110
330
1F
100
AcDbEntity
  8
0
100
AcDbLine
 10
287.3058018505505
 20
-164.3658777423433
 30
0.0
 11
287.3058018505505
 21
166.6341222576568
 31
0.0
  0
LINE
  5
111
330
1F
100
AcDbEntity
  8
0
100
AcDbLine
 10
287.2035793294177
 20
167.4105793929644
 30
0.0
 11
287.3058018505505
 21
166.6341222576568
 31
0.0
  0
LINE
  5
112
330
1F
100
AcDbEntity
  8
0
100
AcDbLine
 10
286.9038780619038
 20
168.1341222576568
 30
0.0
 11
287.2035793294177
 21
167.4105793929644
 31
0.0
  0
LINE
  5
113
330
1F
100
AcDbEntity
  8
0
100
AcDbLine
 10
286.4271221941101
 20
168.7554426012165
 30
0.0
 11
286.9038780619038
 21
168.1341222576568
 31
0.0
  0
LINE
  5
114
330
1F
100
AcDbEntity
  8
0
100
AcDbLine
 10
285.8058018505505
 20
169.2321984690101
 30
0.0
 11
286.4271221941101
 21
168.7554426012165
 31
0.0
  0
LINE
  5
115
330
1F
100
AcDbEntity
  8
0
100
AcDbLine
 10
285.082258985858
 20
169.531899736524
 30
0.0
 11
285.8058018505505
 21
169.2321984690101
 31
0.0
  0
LINE
  5
116
330
1F
100
AcDbEntity
  8
0
100
AcDbLine
 10
284.3058018505505
 20
169.6341222576568
 30
0.0
 11
285.082258985858
 21
169.531899736524
 31
0.0
  0
LINE
  5
117
330
1F
100
AcDbEntity
  8
0
100
AcDbLine
 10
283.5293447152429
 20
169.531899736524
 30
0.0
 11
284.3058018505505
 21
169.6341222576568
 31
0.0
  0
LINE
  5
118
330
1F
100
AcDbEntity
  8
0
100
AcDbLine
 10
282.8058018505505
 20
169.2321984690101
 30
0.0
 11
283.5293447152429
 21
169.531899736524
 31
0.0
  0
LINE
  5
119
330
1F
100
AcDbEntity
  8
0
100
AcDbLine
 10
282.1844815069908
 20
168.7554426012165
 30
0.0
 11
282.8058018505505
 21
169.2321984690101
 31
0.0
  0
LINE
  5
11A
330
1F
100
AcDbEntity
  8
0
100
AcDbLine
 10
281.7077256391972
 20
168.1341222576568
 30
0.0
 11
282.1844815069908
 21
168.7554426012165
 31
0.0
  0
LINE
  5
11B
330
1F
100
AcDbEntity
  8
0
100
AcDbLine
 10
281.4080243716833
 20
167.4105793929644
 30
0.0
 11
281.7077256391972
 21
168.1341222576568
 31
0.0
  0
LINE
  5
11C
330
1F
100
AcDbEntity
  8
0
100
AcDbLine
 10
281.3058018505505
 20
166.6341222576568
 30
0.0
 11
281.4080243716833
 21
167.4105793929644
 31
0.0
  0
LINE
  5
11D
330
1F
100
AcDbEntity
  8
0
100
AcDbLine
 10
281.3058018505505
 20
94.6341222576569
 30
0.0
 11
281.3058018505505
 21
166.6341222576568
 31
0.0
  0
LINE
  5
11E
330
1F
100
AcDbEntity
  8
0
100
AcDbLine
 10
281.3058018505505
 20
94.6341222576569
 30
0.0
 11
281.0819871056997
 21
88.84429335797428
 31
0.0
  0
LINE
  5
11F
330
1F
100
AcDbEntity
  8
0
100
AcDbLine
 10
281.0819871056997
 20
88.84429335797428
 30
0.0
 11
280.4118786855478
 21
83.08902043370279
 31
0.0
  0
LINE
  5
120
330
1F
100
AcDbEntity
  8
0
100
AcDbLine
 10
280.4118786855478
 20
83.08902043370279
 30
0.0
 11
279.2994760606303
 21
77.40265321660473
 31
0.0
  0
LINE
  5
121
330
1F
100
AcDbEntity
  8
0
100
AcDbLine
 10
279.2994760606303
 20
77.40265321660473
 30
0.0
 11
277.7514184872048
 21
71.81913018208871
 31
0.0
  0
LINE
  5
122
330
1F
100
AcDbEntity
  8
0
100
AcDbLine
 10
277.7514184872048
 20
71.81913018208871
 30
0.0
 11
275.7769453815596
 21
66.3717759910438
 31
0.0
  0
LINE
  5
123
330
1F
100
AcDbEntity
  8
0
100
AcDbLine
 10
275.7769453815596
 20
66.3717759910438
 30
0.0
 11
273.3878411755442
 21
61.09310259516006
 31
0.0
  0
LINE
  5
124
330
1F
100
AcDbEntity
  8
0
100
AcDbLine
 10
273.3878411755442
 20
61.09310259516006
 30
0.0
 11
270.5983649824464
 21
56.01461519281739
 31
0.0
  0
LINE
  5
125
330
1F
100
AcDbEntity
  8
0
100
AcDbLine
 10
270.5983649824464
 20
56.01461519281739
 30
0.0
 11
267.4251654929976
 21
51.16662419367425
 31
0.0
  0
LINE
  5
126
330
1F
100
AcDbEntity
  8
0
100
AcDbLine
 10
267.4251654929976
 20
51.16662419367425
 30
0.0
 11
263.8871816094401
 21
46.57806431422423
 31
0.0
  0
LINE
  5
127
330
1F
100
AcDbEntity
  8
0
100
AcDbLine
 10
263.8871816094401
 20
46.57806431422423
 30
0.0
 11
260.0055294107121
 21
42.27632188403133
 31
0.0
  0
LINE
  5
128
330
1F
100
AcDbEntity
  8
0
100
AcDbLine
 10
260.0055294107121
 20
42.27632188403133
 30
0.0
 11
255.8033761233861
 21
38.28707139334686
 31
0.0
  0
LINE
  5
129
330
1F
100
AcDbEntity
  8
0
100
AcDbLine
 10
255.8033761233861
 20
38.28707139334686
 30
0.0
 11
251.3058018505505
 21
34.63412225765683
 31
0.0
  0
LINE
  5
12A
330
1F
100
AcDbEntity
  8
0
100
AcDbLine
 10
251.3058018505505
 20
34.63412225765683
 30
0.0
 11
250.2183359055304
 21
33.67884730435997
 31
0.0
  0
LINE
  5
12B
330
1F
100
AcDbEntity
  8
0
100
AcDbLine
 10
250.2183359055304
 20
33.67884730435997
 30
0.0
 11
249.2908813952447
 21
32.56755951565451
 31
0.0
  0
LINE
  5
12C
330
1F
100
AcDbEntity
  8
0
100
AcDbLine
 10
249.2908813952447
 20
32.56755951565451
 30
0.0
 11
248.5455469349264
 21
31.3267497154689
 31
0.0
  0
LINE
  5
12D
330
1F
100
AcDbEntity
  8
0
100
AcDbLine
 10
248.5455469349264
 20
31.3267497154689
 30
0.0
 11
248.0000997709688
 21
29.9859962671027
 31
0.0
  0
LINE
  5
12E
330
1F
100
AcDbEntity
  8
0
100
AcDbLine
 10
248.0000997709688
 20
29.9859962671027
 30
0.0
 11
247.6675422461759
 21
28.57725998565099
 31
0.0
  0
LINE
  5
12F
330
1F
100
AcDbEntity
  8
0
100
AcDbLine
 10
247.6675422461759
 20
28.57725998565099
 30
0.0
 11
247.5558018505506
 21
27.13412225765672
 31
0.0
  0
LINE
  5
130
330
1F
100
AcDbEntity
  8
0
100
AcDbLine
 10
247.5558018505506
 20
27.13412225765672
 30
0.0
 11
247.6675422461759
 21
25.69098452966246
 31
0.0
  0
LINE
  5
131
330
1F
100
AcDbEntity
  8
0
100
AcDbLine
 10
247.6675422461759
 20
25.69098452966246
 30
0.0
 11
248.0000997709688
 21
24.28224824821075
 31
0.0
  0
LINE
  5
132
330
1F
100
AcDbEntity
  8
0
100
AcDbLine
 10
248.0000997709688
 20
24.28224824821075
 30
0.0
 11
248.5455469349264
 21
22.94149479984473
 31
0.0
  0
LINE
  5
133
330
1F
100
AcDbEntity
  8
0
100
AcDbLine
 10
248.5455469349264
 20
22.94149479984473
 30
0.0
 11
249.2908813952447
 21
21.70068499965894
 31
0.0
  0
LINE
  5
134
330
1F
100
AcDbEntity
  8
0
100
AcDbLine
 10
249.2908813952447
 20
21.70068499965894
 30
0.0
 11
250.2183359055304
 21
20.58939721095366
 31
0.0
  0
LINE
  5
135
330
1F
100
AcDbEntity
  8
0
100
AcDbLine
 10
250.2183359055304
 20
20.58939721095366
 30
0.0
 11
251.3058018505505
 21
19.63412225765681
 31
0.0
  0
LINE
  5
136
330
1F
100
AcDbEntity
  8
0
100
AcDbLine
 10
251.3058018505505
 20
19.63412225765681
 30
0.0
 11
280.8664620223303
 21
-6.333181265117645
 31
0.0
  0
LINE
  5
137
330
1F
100
AcDbEntity
  8
0
100
AcDbLine
 10
280.8664620223303
 20
-6.333181265117645
 30
0.0
 11
281.1048399562271
 21
-6.643841436897437
 31
0.0
  0
LINE
  5
138
330
1F
100
AcDbEntity
  8
0
100
AcDbLine
 10
281.1048399562271
 20
-6.643841436897437
 30
0.0
 11
281.2546905899841
 21
-7.005612869243556
 31
0.0
  0
LINE
  5
139
330
1F
100
AcDbEntity
  8
0
100
AcDbLine
 10
281.2546905899841
 20
-7.005612869243556
 30
0.0
 11
281.3058018505505
 21
-7.393841436897446
 31
0.0
  0
LINE
  5
13A
330
1F
100
AcDbEntity
  8
0
100
AcDbLine
 10
285.8058018505505
 20
166.6341222576568
 30
0.0
 11
285.7546905899841
 21
166.245893690003
 31
0.0
  0
LINE
  5
13B
330
1F
100
AcDbEntity
  8
0
100
AcDbLine
 10
285.7546905899841
 20
166.245893690003
 30
0.0
 11
285.6048399562271
 21
165.8841222576567
 31
0.0
  0
LINE
  5
13C
330
1F
100
AcDbEntity
  8
0
100
AcDbLine
 10
285.6048399562271
 20
165.8841222576567
 30
0.0
 11
285.3664620223303
 21
165.573462085877
 31
0.0
  0
LINE
  5
13D
330
1F
100
AcDbEntity
  8
0
100
AcDbLine
 10
285.3664620223303
 20
165.573462085877
 30
0.0
 11
285.0558018505506
 21
165.3350841519802
 31
0.0
  0
LINE
  5
13E
330
1F
100
AcDbEntity
  8
0
100
AcDbLine
 10
285.0558018505506
 20
165.3350841519802
 30
0.0
 11
284.6940304182042
 21
165.1852335182232
 31
0.0
  0
LINE
  5
13F
330
1F
100
AcDbEntity
  8
0
100
AcDbLine
 10
284.6940304182042
 20
165.1852335182232
 30
0.0
 11
284.3058018505505
 21
165.1341222576569
 31
0.0
  0
LINE
  5
140
330
1F
100
AcDbEntity
  8
0
100
AcDbLine
 10
284.3058018505505
 20
165.1341222576569
 30
0.0
 11
283.9175732828967
 21
165.1852335182232
 31
0.0
  0
LINE
  5
141
330
1F
100
AcDbEntity
  8
0
100
AcDbLine
 10
283.9175732828967
 20
165.1852335182232
 30
0.0
 11
283.5558018505505
 21
165.3350841519802
 31
0.0
  0
LINE
  5
142
330
1F
100
AcDbEntity
  8
0
100
AcDbLine
 10
283.5558018505505
 20
165.3350841519802
 30
0.0
 11
283.2451416787707
 21
165.573462085877
 31
0.0
  0
LINE
  5
143
330
1F
100
AcDbEntity
  8
0
100
AcDbLine
 10
283.2451416787707
 20
165.573462085877
 30
0.0
 11
283.0067637448739
 21
165.8841222576567
 31
0.0
  0
LINE
  5
144
330
1F
100
AcDbEntity
  8
0
100
AcDbLine
 10
283.0067637448739
 20
165.8841222576567
 30
0.0
 11
282.8569131111169
 21
166.245893690003
 31
0.0
  0
LINE
  5
145
330
1F
100
AcDbEntity
  8
0
100
AcDbLine
 10
282.8569131111169
 20
166.245893690003
 30
0.0
 11
282.8058018505505
 21
166.6341222576568
 31
0.0
  0
LINE
  5
146
330
1F
100
AcDbEntity
  8
0
100
AcDbLine
 10
282.8058018505505
 20
166.6341222576568
 30
0.0
 11
282.8569131111169
 21
167.0223508253107
 31
0.0
  0
LINE
  5
147
330
1F
100
AcDbEntity
  8
0
100
AcDbLine
 10
282.8569131111169
 20
167.0223508253107
 30
0.0
 11
283.0067637448739
 21
167.3841222576568
 31
0.0
  0
LINE
  5
148
330
1F
100
AcDbEntity
  8
0
100
AcDbLine
 10
283.0067637448739
 20
167.3841222576568
 30
0.0
 11
283.2451416787707
 21
167.6947824294366
 31
0.0
  0
LINE
  5
149
330
1F
100
AcDbEntity
  8
0
100
AcDbLine
 10
283.2451416787707
 20
167.6947824294366
 30
0.0
 11
283.5558018505505
 21
167.9331603633335
 31
0.0
  0
LINE
  5
14A
330
1F
100
AcDbEntity
  8
0
100
AcDbLine
 10
283.5558018505505
 20
167.9331603633335
 30
0.0
 11
283.9175732828967
 21
168.0830109970905
 31
0.0
  0
LINE
  5
14B
330
1F
100
AcDbEntity
  8
0
100
AcDbLine
 10
283.9175732828967
 20
168.0830109970905
 30
0.0
 11
284.3058018505505
 21
168.1341222576568
 31
0.0
  0
LINE
  5
14C
330
1F
100
AcDbEntity
  8
0
100
AcDbLine
 10
284.3058018505505
 20
168.1341222576568
 30
0.0
 11
284.6940304182042
 21
168.0830109970905
 31
0.0
  0
LINE
  5
14D
330
1F
100
AcDbEntity
  8
0
100
AcDbLine
 10
284.6940304182042
 20
168.0830109970905
 30
0.0
 11
285.0558018505505
 21
167.9331603633335
 31
0.0
  0
LINE
  5
14E
330
1F
100
AcDbEntity
  8
0
100
AcDbLine
 10
285.0558018505505
 20
167.9331603633335
 30
0.0
 11
285.3664620223303
 21
167.6947824294366
 31
0.0
  0
LINE
  5
14F
330
1F
100
AcDbEntity
  8
0
100
AcDbLine
 10
285.3664620223303
 20
167.6947824294366
 30
0.0
 11
285.6048399562271
 21
167.3841222576568
 31
0.0
  0
LINE
  5
150
330
1F
100
AcDbEntity
  8
0
100
AcDbLine
 10
285.6048399562271
 20
167.3841222576568
 30
0.0
 11
285.7546905899841
 21
167.0223508253107
 31
0.0
  0
LINE
  5
151
330
1F
100
AcDbEntity
  8
0
100
AcDbLine
 10
285.7546905899841
 20
167.0223508253107
 30
0.0
 11
285.8058018505505
 21
166.6341222576568
 31
0.0
  0
LINE
  5
152
330
1F
100
AcDbEntity
  8
0
100
AcDbLine
 10
282.7546905899844
 20
-164.7541063099966
 30
0.0
 11
282.6048399562276
 21
-165.1158777423429
 31
0.0
  0
LINE
  5
153
330
1F
100
AcDbEntity
  8
0
100
AcDbLine
 10
282.6048399562276
 20
-165.1158777423429
 30
0.0
 11
282.366462022331
 21
-165.4265379141229
 31
0.0
  0
LINE
  5
154
330
1F
100
AcDbEntity
  8
0
100
AcDbLine
 10
282.366462022331
 20
-165.4265379141229
 30
0.0
 11
282.0558018505513
 21
-165.6649158480198
 31
0.0
  0
LINE
  5
155
330
1F
100
AcDbEntity
  8
0
100
AcDbLine
 10
282.0558018505513
 20
-165.6649158480198
 30
0.0
 11
281.6940304182052
 21
-165.8147664817771
 31
0.0
  0
LINE
  5
156
330
1F
100
AcDbEntity
  8
0
100
AcDbLine
 10
281.6940304182052
 20
-165.8147664817771
 30
0.0
 11
281.3058018505515
 21
-165.8658777423438
 31
0.0
  0
LINE
  5
157
330
1F
100
AcDbEntity
  8
0
100
AcDbLine
 10
281.3058018505515
 20
-165.8658777423438
 30
0.0
 11
280.9175732828976
 21
-165.8147664817777
 31
0.0
  0
LINE
  5
158
330
1F
100
AcDbEntity
  8
0
100
AcDbLine
 10
280.9175732828976
 20
-165.8147664817777
 30
0.0
 11
280.5558018505513
 21
-165.6649158480209
 31
0.0
  0
LINE
  5
159
330
1F
100
AcDbEntity
  8
0
100
AcDbLine
 10
280.5558018505513
 20
-165.6649158480209
 30
0.0
 11
280.2451416787713
 21
-165.4265379141243
 31
0.0
  0
LINE
  5
15A
330
1F
100
AcDbEntity
  8
0
100
AcDbLine
 10
280.2451416787713
 20
-165.4265379141243
 30
0.0
 11
280.0067637448743
 21
-165.1158777423445
 31
0.0
  0
LINE
  5
15B
330
1F
100
AcDbEntity
  8
0
100
AcDbLine
 10
280.0067637448743
 20
-165.1158777423445
 30
0.0
 11
279.8569131111171
 21
-164.7541063099984
 31
0.0
  0
LINE
  5
15C
330
1F
100
AcDbEntity
  8
0
100
AcDbLine
 10
279.8569131111171
 20
-164.7541063099984
 30
0.0
 11
279.8058018505505
 21
-164.3658777423447
 31
0.0
  0
LINE
  5
15D
330
1F
100
AcDbEntity
  8
0
100
AcDbLine
 10
279.8058018505505
 20
-164.3658777423447
 30
0.0
 11
279.8569131111166
 21
-163.9776491746908
 31
0.0
  0
LINE
  5
15E
330
1F
100
AcDbEntity
  8
0
100
AcDbLine
 10
279.8569131111166
 20
-163.9776491746908
 30
0.0
 11
280.0067637448734
 21
-163.6158777423445
 31
0.0
  0
LINE
  5
15F
330
1F
100
AcDbEntity
  8
0
100
AcDbLine
 10
280.0067637448734
 20
-163.6158777423445
 30
0.0
 11
280.24514167877
 21
-163.3052175705645
 31
0.0
  0
LINE
  5
160
330
1F
100
AcDbEntity
  8
0
100
AcDbLine
 10
280.24514167877
 20
-163.3052175705645
 30
0.0
 11
280.5558018505496
 21
-163.0668396366675
 31
0.0
  0
LINE
  5
161
330
1F
100
AcDbEntity
  8
0
100
AcDbLine
 10
280.5558018505496
 20
-163.0668396366675
 30
0.0
 11
280.9175732828958
 21
-162.9169890029104
 31
0.0
  0
LINE
  5
162
330
1F
100
AcDbEntity
  8
0
100
AcDbLine
 10
280.9175732828958
 20
-162.9169890029104
 30
0.0
 11
281.3058018505495
 21
-162.8658777423437
 31
0.0
  0
LINE
  5
163
330
1F
100
AcDbEntity
  8
0
100
AcDbLine
 10
281.3058018505495
 20
-162.8658777423437
 30
0.0
 11
281.6940304182034
 21
-162.9169890029099
 31
0.0
  0
LINE
  5
164
330
1F
100
AcDbEntity
  8
0
100
AcDbLine
 10
281.6940304182034
 20
-162.9169890029099
 30
0.0
 11
282.0558018505497
 21
-163.0668396366666
 31
0.0
  0
LINE
  5
165
330
1F
100
AcDbEntity
  8
0
100
AcDbLine
 10
282.0558018505497
 20
-163.0668396366666
 30
0.0
 11
282.3664620223296
 21
-163.3052175705632
 31
0.0
  0
LINE
  5
166
330
1F
100
AcDbEntity
  8
0
100
AcDbLine
 10
282.3664620223296
 20
-163.3052175705632
 30
0.0
 11
282.6048399562267
 21
-163.6158777423428
 31
0.0
  0
LINE
  5
167
330
1F
100
AcDbEntity
  8
0
100
AcDbLine
 10
282.6048399562267
 20
-163.6158777423428
 30
0.0
 11
282.7546905899839
 21
-163.977649174689
 31
0.0
  0
LINE
  5
168
330
1F
100
AcDbEntity
  8
0
100
AcDbLine
 10
282.7546905899839
 20
-163.977649174689
 30
0.0
 11
282.8058018505505
 21
-164.3658777423427
 31
0.0
  0
LINE
  5
169
330
1F
100
AcDbEntity
  8
0
100
AcDbLine
 10
282.8058018505505
 20
-164.3658777423427
 30
0.0
 11
282.7546905899844
 21
-164.7541063099966
 31
0.0
  0
LINE
  5
16A
330
1F
100
AcDbEntity
  8
0
100
AcDbLine
 10
258.3058018505505
 20
142.6341222576568
 30
0.0
 11
258.3058018505505
 21
166.6341222576568
 31
0.0
  0
LINE
  5
16B
330
1F
100
AcDbEntity
  8
0
100
AcDbLine
 10
258.3058018505505
 20
166.6341222576568
 30
0.0
 11
258.2035793303818
 21
167.410579389366
 31
0.0
  0
LINE
  5
16C
330
1F
100
AcDbEntity
  8
0
100
AcDbLine
 10
258.2035793303818
 20
167.410579389366
 30
0.0
 11
257.903878065629
 21
168.1341222512043
 31
0.0
  0
LINE
  5
16D
330
1F
100
AcDbEntity
  8
0
100
AcDbLine
 10
257.903878065629
 20
168.1341222512043
 30
0.0
 11
257.4271222020127
 21
168.7554425933139
 31
0.0
  0
LINE
  5
16E
330
1F
100
AcDbEntity
  8
0
100
AcDbLine
 10
257.4271222020127
 20
168.7554425933139
 30
0.0
 11
256.8058018634553
 21
169.2321984615594
 31
0.0
  0
LINE
  5
16F
330
1F
100
AcDbEntity
  8
0
100
AcDbLine
 10
256.8058018634553
 20
169.2321984615594
 30
0.0
 11
256.0822590038498
 21
169.531899731703
 31
0.0
  0
LINE
  5
170
330
1F
100
AcDbEntity
  8
0
100
AcDbLine
 10
256.0822590038498
 20
169.531899731703
 30
0.0
 11
255.3058018729022
 21
169.6341222576568
 31
0.0
  0
LINE
  5
171
330
1F
100
AcDbEntity
  8
0
100
AcDbLine
 10
255.3058018729022
 20
169.6341222576568
 30
0.0
 11
254.5293447404314
 21
169.5318997432732
 31
0.0
  0
LINE
  5
172
330
1F
100
AcDbEntity
  8
0
100
AcDbLine
 10
254.5293447404314
 20
169.5318997432732
 30
0.0
 11
253.8058018763601
 21
169.2321984839113
 31
0.0
  0
LINE
  5
173
330
1F
100
AcDbEntity
  8
0
100
AcDbLine
 10
253.8058018763601
 20
169.2321984839113
 30
0.0
 11
253.1844815306985
 21
168.755442624924
 31
0.0
  0
LINE
  5
174
330
1F
100
AcDbEntity
  8
0
100
AcDbLine
 10
253.1844815306985
 20
168.755442624924
 30
0.0
 11
252.7077256578236
 21
168.1341222899187
 31
0.0
  0
LINE
  5
175
330
1F
100
AcDbEntity
  8
0
100
AcDbLine
 10
252.7077256578236
 20
168.1341222899187
 30
0.0
 11
252.4080243822892
 21
167.4105794325462
 31
0.0
  0
LINE
  5
176
330
1F
100
AcDbEntity
  8
0
100
AcDbLine
 10
252.4080243822892
 20
167.4105794325462
 30
0.0
 11
252.3058018505505
 21
166.6341222576568
 31
0.0
  0
LINE
  5
177
330
1F
100
AcDbEntity
  8
0
100
AcDbLine
 10
252.3058018505505
 20
166.6341222576568
 30
0.0
 11
252.3058018505505
 21
142.6341222576568
 31
0.0
  0
LINE
  5
178
330
1F
100
AcDbEntity
  8
0
100
AcDbLine
 10
252.3058018505505
 20
142.6341222576568
 30
0.0
 11
252.4080243716833
 21
141.8576651223492
 31
0.0
  0
LINE
  5
179
330
1F
100
AcDbEntity
  8
0
100
AcDbLine
 10
252.4080243716833
 20
141.8576651223492
 30
0.0
 11
252.7077256391972
 21
141.1341222576568
 31
0.0
  0
LINE
  5
17A
330
1F
100
AcDbEntity
  8
0
100
AcDbLine
 10
252.7077256391972
 20
141.1341222576568
 30
0.0
 11
253.1844815069908
 21
140.5128019140971
 31
0.0
  0
LINE
  5
17B
330
1F
100
AcDbEntity
  8
0
100
AcDbLine
 10
253.1844815069908
 20
140.5128019140971
 30
0.0
 11
253.8058018505505
 21
140.0360460463035
 31
0.0
  0
LINE
  5
17C
330
1F
100
AcDbEntity
  8
0
100
AcDbLine
 10
253.8058018505505
 20
140.0360460463035
 30
0.0
 11
254.5293447152429
 21
139.7363447787896
 31
0.0
  0
LINE
  5
17D
330
1F
100
AcDbEntity
  8
0
100
AcDbLine
 10
254.5293447152429
 20
139.7363447787896
 30
0.0
 11
255.3058018505505
 21
139.6341222576568
 31
0.0
  0
LINE
  5
17E
330
1F
100
AcDbEntity
  8
0
100
AcDbLine
 10
255.3058018505505
 20
139.6341222576568
 30
0.0
 11
256.0822589858581
 21
139.7363447787896
 31
0.0
  0
LINE
  5
17F
330
1F
100
AcDbEntity
  8
0
100
AcDbLine
 10
256.0822589858581
 20
139.7363447787896
 30
0.0
 11
256.8058018505504
 21
140.0360460463035
 31
0.0
  0
LINE
  5
180
330
1F
100
AcDbEntity
  8
0
100
AcDbLine
 10
256.8058018505504
 20
140.0360460463035
 30
0.0
 11
257.4271221941102
 21
140.5128019140971
 31
0.0
  0
LINE
  5
181
330
1F
100
AcDbEntity
  8
0
100
AcDbLine
 10
257.4271221941102
 20
140.5128019140971
 30
0.0
 11
257.9038780619038
 21
141.1341222576568
 31
0.0
  0
LINE
  5
182
330
1F
100
AcDbEntity
  8
0
100
AcDbLine
 10
257.9038780619038
 20
141.1341222576568
 30
0.0
 11
258.2035793294177
 21
141.8576651223492
 31
0.0
  0
LINE
  5
183
330
1F
100
AcDbEntity
  8
0
100
AcDbLine
 10
258.2035793294177
 20
141.8576651223492
 30
0.0
 11
258.3058018505505
 21
142.6341222576568
 31
0.0
  0
LINE
  5
184
330
1F
100
AcDbEntity
  8
0
100
AcDbLine
 10
267.3058018505504
 20
142.6341222576568
 30
0.0
 11
267.3058018505504
 21
166.6341222576568
 31
0.0
  0
LINE
  5
185
330
1F
100
AcDbEntity
  8
0
100
AcDbLine
 10
267.3058018505504
 20
166.6341222576568
 30
0.0
 11
267.2035793303818
 21
167.410579389366
 31
0.0
  0
LINE
  5
186
330
1F
100
AcDbEntity
  8
0
100
AcDbLine
 10
267.2035793303818
 20
167.410579389366
 30
0.0
 11
266.903878065629
 21
168.1341222512043
 31
0.0
  0
LINE
  5
187
330
1F
100
AcDbEntity
  8
0
100
AcDbLine
 10
266.903878065629
 20
168.1341222512043
 30
0.0
 11
266.4271222020126
 21
168.7554425933139
 31
0.0
  0
LINE
  5
188
330
1F
100
AcDbEntity
  8
0
100
AcDbLine
 10
266.4271222020126
 20
168.7554425933139
 30
0.0
 11
265.8058018634552
 21
169.2321984615594
 31
0.0
  0
LINE
  5
189
330
1F
100
AcDbEntity
  8
0
100
AcDbLine
 10
265.8058018634552
 20
169.2321984615594
 30
0.0
 11
265.0822590038497
 21
169.531899731703
 31
0.0
  0
LINE
  5
18A
330
1F
100
AcDbEntity
  8
0
100
AcDbLine
 10
265.0822590038497
 20
169.531899731703
 30
0.0
 11
264.3058018729022
 21
169.6341222576568
 31
0.0
  0
LINE
  5
18B
330
1F
100
AcDbEntity
  8
0
100
AcDbLine
 10
264.3058018729022
 20
169.6341222576568
 30
0.0
 11
263.5293447404313
 21
169.5318997432732
 31
0.0
  0
LINE
  5
18C
330
1F
100
AcDbEntity
  8
0
100
AcDbLine
 10
263.5293447404313
 20
169.5318997432732
 30
0.0
 11
262.80580187636
 21
169.2321984839113
 31
0.0
  0
LINE
  5
18D
330
1F
100
AcDbEntity
  8
0
100
AcDbLine
 10
262.80580187636
 20
169.2321984839113
 30
0.0
 11
262.1844815306984
 21
168.755442624924
 31
0.0
  0
LINE
  5
18E
330
1F
100
AcDbEntity
  8
0
100
AcDbLine
 10
262.1844815306984
 20
168.755442624924
 30
0.0
 11
261.7077256578236
 21
168.1341222899187
 31
0.0
  0
LINE
  5
18F
330
1F
100
AcDbEntity
  8
0
100
AcDbLine
 10
261.7077256578236
 20
168.1341222899187
 30
0.0
 11
261.4080243822891
 21
167.4105794325462
 31
0.0
  0
LINE
  5
190
330
1F
100
AcDbEntity
  8
0
100
AcDbLine
 10
261.4080243822891
 20
167.4105794325462
 30
0.0
 11
261.3058018505504
 21
166.6341222576568
 31
0.0
  0
LINE
  5
191
330
1F
100
AcDbEntity
  8
0
100
AcDbLine
 10
261.3058018505504
 20
166.6341222576568
 30
0.0
 11
261.3058018505504
 21
142.6341222576568
 31
0.0
  0
LINE
  5
192
330
1F
100
AcDbEntity
  8
0
100
AcDbLine
 10
261.3058018505504
 20
142.6341222576568
 30
0.0
 11
261.4080243716832
 21
141.8576651223492
 31
0.0
  0
LINE
  5
193
330
1F
100
AcDbEntity
  8
0
100
AcDbLine
 10
261.4080243716832
 20
141.8576651223492
 30
0.0
 11
261.7077256391971
 21
141.1341222576568
 31
0.0
  0
LINE
  5
194
330
1F
100
AcDbEntity
  8
0
100
AcDbLine
 10
261.7077256391971
 20
141.1341222576568
 30
0.0
 11
262.1844815069908
 21
140.5128019140971
 31
0.0
  0
LINE
  5
195
330
1F
100
AcDbEntity
  8
0
100
AcDbLine
 10
262.1844815069908
 20
140.5128019140971
 30
0.0
 11
262.8058018505504
 21
140.0360460463035
 31
0.0
  0
LINE
  5
196
330
1F
100
AcDbEntity
  8
0
100
AcDbLine
 10
262.8058018505504
 20
140.0360460463035
 30
0.0
 11
263.5293447152429
 21
139.7363447787896
 31
0.0
  0
LINE
  5
197
330
1F
100
AcDbEntity
  8
0
100
AcDbLine
 10
263.5293447152429
 20
139.7363447787896
 30
0.0
 11
264.3058018505504
 21
139.6341222576568
 31
0.0
  0
LINE
  5
198
330
1F
100
AcDbEntity
  8
0
100
AcDbLine
 10
264.3058018505504
 20
139.6341222576568
 30
0.0
 11
265.082258985858
 21
139.7363447787896
 31
0.0
  0
LINE
  5
199
330
1F
100
AcDbEntity
  8
0
100
AcDbLine
 10
265.082258985858
 20
139.7363447787896
 30
0.0
 11
265.8058018505504
 21
140.0360460463035
 31
0.0
  0
LINE
  5
19A
330
1F
100
AcDbEntity
  8
0
100
AcDbLine
 10
265.8058018505504
 20
140.0360460463035
 30
0.0
 11
266.42712219411
 21
140.5128019140971
 31
0.0
  0
LINE
  5
19B
330
1F
100
AcDbEntity
  8
0
100
AcDbLine
 10
266.42712219411
 20
140.5128019140971
 30
0.0
 11
266.9038780619037
 21
141.1341222576568
 31
0.0
  0
LINE
  5
19C
330
1F
100
AcDbEntity
  8
0
100
AcDbLine
 10
266.9038780619037
 20
141.1341222576568
 30
0.0
 11
267.2035793294176
 21
141.8576651223492
 31
0.0
  0
LINE
  5
19D
330
1F
100
AcDbEntity
  8
0
100
AcDbLine
 10
267.2035793294176
 20
141.8576651223492
 30
0.0
 11
267.3058018505504
 21
142.6341222576568
 31
0.0
  0
LINE
  5
19E
330
1F
100
AcDbEntity
  8
0
100
AcDbLine
 10
276.3058018505504
 20
102.6341222576567
 30
0.0
 11
276.3058018505504
 21
126.6341222576567
 31
0.0
  0
LINE
  5
19F
330
1F
100
AcDbEntity
  8
0
100
AcDbLine
 10
276.3058018505504
 20
126.6341222576567
 30
0.0
 11
276.2035793303818
 21
127.4105793893659
 31
0.0
  0
LINE
  5
1A0
330
1F
100
AcDbEntity
  8
0
100
AcDbLine
 10
276.2035793303818
 20
127.4105793893659
 30
0.0
 11
275.903878065629
 21
128.1341222512042
 31
0.0
  0
LINE
  5
1A1
330
1F
100
AcDbEntity
  8
0
100
AcDbLine
 10
275.903878065629
 20
128.1341222512042
 30
0.0
 11
275.4271222020126
 21
128.7554425933138
 31
0.0
  0
LINE
  5
1A2
330
1F
100
AcDbEntity
  8
0
100
AcDbLine
 10
275.4271222020126
 20
128.7554425933138
 30
0.0
 11
274.8058018634552
 21
129.2321984615593
 31
0.0
  0
LINE
  5
1A3
330
1F
100
AcDbEntity
  8
0
100
AcDbLine
 10
274.8058018634552
 20
129.2321984615593
 30
0.0
 11
274.0822590038497
 21
129.5318997317029
 31
0.0
  0
LINE
  5
1A4
330
1F
100
AcDbEntity
  8
0
100
AcDbLine
 10
274.0822590038497
 20
129.5318997317029
 30
0.0
 11
273.3058018729022
 21
129.6341222576567
 31
0.0
  0
LINE
  5
1A5
330
1F
100
AcDbEntity
  8
0
100
AcDbLine
 10
273.3058018729022
 20
129.6341222576567
 30
0.0
 11
272.5293447404314
 21
129.5318997432731
 31
0.0
  0
LINE
  5
1A6
330
1F
100
AcDbEntity
  8
0
100
AcDbLine
 10
272.5293447404314
 20
129.5318997432731
 30
0.0
 11
271.80580187636
 21
129.2321984839112
 31
0.0
  0
LINE
  5
1A7
330
1F
100
AcDbEntity
  8
0
100
AcDbLine
 10
271.80580187636
 20
129.2321984839112
 30
0.0
 11
271.1844815306984
 21
128.7554426249239
 31
0.0
  0
LINE
  5
1A8
330
1F
100
AcDbEntity
  8
0
100
AcDbLine
 10
271.1844815306984
 20
128.7554426249239
 30
0.0
 11
270.7077256578236
 21
128.1341222899186
 31
0.0
  0
LINE
  5
1A9
330
1F
100
AcDbEntity
  8
0
100
AcDbLine
 10
270.7077256578236
 20
128.1341222899186
 30
0.0
 11
270.4080243822892
 21
127.4105794325461
 31
0.0
  0
LINE
  5
1AA
330
1F
100
AcDbEntity
  8
0
100
AcDbLine
 10
270.4080243822892
 20
127.4105794325461
 30
0.0
 11
270.3058018505504
 21
126.6341222576567
 31
0.0
  0
LINE
  5
1AB
330
1F
100
AcDbEntity
  8
0
100
AcDbLine
 10
270.3058018505504
 20
126.6341222576567
 30
0.0
 11
270.3058018505504
 21
102.6341222576567
 31
0.0
  0
LINE
  5
1AC
330
1F
100
AcDbEntity
  8
0
100
AcDbLine
 10
270.3058018505504
 20
102.6341222576567
 30
0.0
 11
270.4080243716833
 21
101.8576651223491
 31
0.0
  0
LINE
  5
1AD
330
1F
100
AcDbEntity
  8
0
100
AcDbLine
 10
270.4080243716833
 20
101.8576651223491
 30
0.0
 11
270.7077256391971
 21
101.1341222576567
 31
0.0
  0
LINE
  5
1AE
330
1F
100
AcDbEntity
  8
0
100
AcDbLine
 10
270.7077256391971
 20
101.1341222576567
 30
0.0
 11
271.1844815069908
 21
100.512801914097
 31
0.0
  0
LINE
  5
1AF
330
1F
100
AcDbEntity
  8
0
100
AcDbLine
 10
271.1844815069908
 20
100.512801914097
 30
0.0
 11
271.8058018505504
 21
100.0360460463034
 31
0.0
  0
LINE
  5
1B0
330
1F
100
AcDbEntity
  8
0
100
AcDbLine
 10
271.8058018505504
 20
100.0360460463034
 30
0.0
 11
272.5293447152429
 21
99.7363447787895
 31
0.0
  0
LINE
  5
1B1
330
1F
100
AcDbEntity
  8
0
100
AcDbLine
 10
272.5293447152429
 20
99.7363447787895
 30
0.0
 11
273.3058018505504
 21
99.63412225765666
 31
0.0
  0
LINE
  5
1B2
330
1F
100
AcDbEntity
  8
0
100
AcDbLine
 10
273.3058018505504
 20
99.63412225765666
 30
0.0
 11
274.082258985858
 21
99.7363447787895
 31
0.0
  0
LINE
  5
1B3
330
1F
100
AcDbEntity
  8
0
100
AcDbLine
 10
274.082258985858
 20
99.7363447787895
 30
0.0
 11
274.8058018505504
 21
100.0360460463034
 31
0.0
  0
LINE
  5
1B4
330
1F
100
AcDbEntity
  8
0
100
AcDbLine
 10
274.8058018505504
 20
100.0360460463034
 30
0.0
 11
275.4271221941101
 21
100.512801914097
 31
0.0
  0
LINE
  5
1B5
330
1F
100
AcDbEntity
  8
0
100
AcDbLine
 10
275.4271221941101
 20
100.512801914097
 30
0.0
 11
275.9038780619038
 21
101.1341222576567
 31
0.0
  0
LINE
  5
1B6
330
1F
100
AcDbEntity
  8
0
100
AcDbLine
 10
275.9038780619038
 20
101.1341222576567
 30
0.0
 11
276.2035793294177
 21
101.8576651223491
 31
0.0
  0
LINE
  5
1B7
330
1F
100
AcDbEntity
  8
0
100
AcDbLine
 10
276.2035793294177
 20
101.8576651223491
 30
0.0
 11
276.3058018505504
 21
102.6341222576567
 31
0.0
  0
LINE
  5
1B8
330
1F
100
AcDbEntity
  8
0
100
AcDbLine
 10
249.3058018505504
 20
142.6341222576568
 30
0.0
 11
249.3058018505504
 21
166.6341222576568
 31
0.0
  0
LINE
  5
1B9
330
1F
100
AcDbEntity
  8
0
100
AcDbLine
 10
249.3058018505504
 20
166.6341222576568
 30
0.0
 11
249.2035793303818
 21
167.410579389366
 31
0.0
  0
LINE
  5
1BA
330
1F
100
AcDbEntity
  8
0
100
AcDbLine
 10
249.2035793303818
 20
167.410579389366
 30
0.0
 11
248.903878065629
 21
168.1341222512043
 31
0.0
  0
LINE
  5
1BB
330
1F
100
AcDbEntity
  8
0
100
AcDbLine
 10
248.903878065629
 20
168.1341222512043
 30
0.0
 11
248.4271222020126
 21
168.7554425933139
 31
0.0
  0
LINE
  5
1BC
330
1F
100
AcDbEntity
  8
0
100
AcDbLine
 10
248.4271222020126
 20
168.7554425933139
 30
0.0
 11
247.8058018634552
 21
169.2321984615594
 31
0.0
  0
LINE
  5
1BD
330
1F
100
AcDbEntity
  8
0
100
AcDbLine
 10
247.8058018634552
 20
169.2321984615594
 30
0.0
 11
247.0822590038498
 21
169.531899731703
 31
0.0
  0
LINE
  5
1BE
330
1F
100
AcDbEntity
  8
0
100
AcDbLine
 10
247.0822590038498
 20
169.531899731703
 30
0.0
 11
246.3058018729022
 21
169.6341222576568
 31
0.0
  0
LINE
  5
1BF
330
1F
100
AcDbEntity
  8
0
100
AcDbLine
 10
246.3058018729022
 20
169.6341222576568
 30
0.0
 11
245.5293447404314
 21
169.5318997432732
 31
0.0
  0
LINE
  5
1C0
330
1F
100
AcDbEntity
  8
0
100
AcDbLine
 10
245.5293447404314
 20
169.5318997432732
 30
0.0
 11
244.80580187636
 21
169.2321984839113
 31
0.0
  0
LINE
  5
1C1
330
1F
100
AcDbEntity
  8
0
100
AcDbLine
 10
244.80580187636
 20
169.2321984839113
 30
0.0
 11
244.1844815306984
 21
168.755442624924
 31
0.0
  0
LINE
  5
1C2
330
1F
100
AcDbEntity
  8
0
100
AcDbLine
 10
244.1844815306984
 20
168.755442624924
 30
0.0
 11
243.7077256578236
 21
168.1341222899187
 31
0.0
  0
LINE
  5
1C3
330
1F
100
AcDbEntity
  8
0
100
AcDbLine
 10
243.7077256578236
 20
168.1341222899187
 30
0.0
 11
243.4080243822892
 21
167.4105794325462
 31
0.0
  0
LINE
  5
1C4
330
1F
100
AcDbEntity
  8
0
100
AcDbLine
 10
243.4080243822892
 20
167.4105794325462
 30
0.0
 11
243.3058018505505
 21
166.6341222576568
 31
0.0
  0
LINE
  5
1C5
330
1F
100
AcDbEntity
  8
0
100
AcDbLine
 10
243.3058018505505
 20
166.6341222576568
 30
0.0
 11
243.3058018505505
 21
142.6341222576568
 31
0.0
  0
LINE
  5
1C6
330
1F
100
AcDbEntity
  8
0
100
AcDbLine
 10
243.3058018505505
 20
142.6341222576568
 30
0.0
 11
243.4080243716832
 21
141.8576651223492
 31
0.0
  0
LINE
  5
1C7
330
1F
100
AcDbEntity
  8
0
100
AcDbLine
 10
243.4080243716832
 20
141.8576651223492
 30
0.0
 11
243.7077256391972
 21
141.1341222576568
 31
0.0
  0
LINE
  5
1C8
330
1F
100
AcDbEntity
  8
0
100
AcDbLine
 10
243.7077256391972
 20
141.1341222576568
 30
0.0
 11
244.1844815069908
 21
140.5128019140971
 31
0.0
  0
LINE
  5
1C9
330
1F
100
AcDbEntity
  8
0
100
AcDbLine
 10
244.1844815069908
 20
140.5128019140971
 30
0.0
 11
244.8058018505504
 21
140.0360460463035
 31
0.0
  0
LINE
  5
1CA
330
1F
100
AcDbEntity
  8
0
100
AcDbLine
 10
244.8058018505504
 20
140.0360460463035
 30
0.0
 11
245.5293447152429
 21
139.7363447787896
 31
0.0
  0
LINE
  5
1CB
330
1F
100
AcDbEntity
  8
0
100
AcDbLine
 10
245.5293447152429
 20
139.7363447787896
 30
0.0
 11
246.3058018505505
 21
139.6341222576568
 31
0.0
  0
LINE
  5
1CC
330
1F
100
AcDbEntity
  8
0
100
AcDbLine
 10
246.3058018505505
 20
139.6341222576568
 30
0.0
 11
247.082258985858
 21
139.7363447787896
 31
0.0
  0
LINE
  5
1CD
330
1F
100
AcDbEntity
  8
0
100
AcDbLine
 10
247.082258985858
 20
139.7363447787896
 30
0.0
 11
247.8058018505504
 21
140.0360460463035
 31
0.0
  0
LINE
  5
1CE
330
1F
100
AcDbEntity
  8
0
100
AcDbLine
 10
247.8058018505504
 20
140.0360460463035
 30
0.0
 11
248.4271221941101
 21
140.5128019140971
 31
0.0
  0
LINE
  5
1CF
330
1F
100
AcDbEntity
  8
0
100
AcDbLine
 10
248.4271221941101
 20
140.5128019140971
 30
0.0
 11
248.9038780619038
 21
141.1341222576568
 31
0.0
  0
LINE
  5
1D0
330
1F
100
AcDbEntity
  8
0
100
AcDbLine
 10
248.9038780619038
 20
141.1341222576568
 30
0.0
 11
249.2035793294177
 21
141.8576651223492
 31
0.0
  0
LINE
  5
1D1
330
1F
100
AcDbEntity
  8
0
100
AcDbLine
 10
249.2035793294177
 20
141.8576651223492
 30
0.0
 11
249.3058018505504
 21
142.6341222576568
 31
0.0
  0
LINE
  5
1D2
330
1F
100
AcDbEntity
  8
0
100
AcDbLine
 10
252.3058018505504
 20
126.6341222576567
 30
0.0
 11
252.3058018505504
 21
97.63412225765676
 31
0.0
  0
LINE
  5
1D3
330
1F
100
AcDbEntity
  8
0
100
AcDbLine
 10
252.3058018505504
 20
97.63412225765676
 30
0.0
 11
252.408024370719
 21
96.85766512594752
 31
0.0
  0
LINE
  5
1D4
330
1F
100
AcDbEntity
  8
0
100
AcDbLine
 10
252.408024370719
 20
96.85766512594752
 30
0.0
 11
252.7077256354718
 21
96.1341222641091
 31
0.0
  0
LINE
  5
1D5
330
1F
100
AcDbEntity
  8
0
100
AcDbLine
 10
252.7077256354718
 20
96.1341222641091
 30
0.0
 11
253.1844814990882
 21
95.51280192199955
 31
0.0
  0
LINE
  5
1D6
330
1F
100
AcDbEntity
  8
0
100
AcDbLine
 10
253.1844814990882
 20
95.51280192199955
 30
0.0
 11
253.8058018376456
 21
95.03604605375399
 31
0.0
  0
LINE
  5
1D7
330
1F
100
AcDbEntity
  8
0
100
AcDbLine
 10
253.8058018376456
 20
95.03604605375399
 30
0.0
 11
254.5293446972511
 21
94.73634478361038
 31
0.0
  0
LINE
  5
1D8
330
1F
100
AcDbEntity
  8
0
100
AcDbLine
 10
254.5293446972511
 20
94.73634478361038
 30
0.0
 11
255.3058018281987
 21
94.63412225765671
 31
0.0
  0
LINE
  5
1D9
330
1F
100
AcDbEntity
  8
0
100
AcDbLine
 10
255.3058018281987
 20
94.63412225765671
 30
0.0
 11
256.0822589606695
 21
94.73634477204021
 31
0.0
  0
LINE
  5
1DA
330
1F
100
AcDbEntity
  8
0
100
AcDbLine
 10
256.0822589606695
 20
94.73634477204021
 30
0.0
 11
256.8058018247408
 21
95.03604603140225
 31
0.0
  0
LINE
  5
1DB
330
1F
100
AcDbEntity
  8
0
100
AcDbLine
 10
256.8058018247408
 20
95.03604603140225
 30
0.0
 11
257.4271221704024
 21
95.5128018903895
 31
0.0
  0
LINE
  5
1DC
330
1F
100
AcDbEntity
  8
0
100
AcDbLine
 10
257.4271221704024
 20
95.5128018903895
 30
0.0
 11
257.9038780432772
 21
96.13412222539469
 31
0.0
  0
LINE
  5
1DD
330
1F
100
AcDbEntity
  8
0
100
AcDbLine
 10
257.9038780432772
 20
96.13412222539469
 30
0.0
 11
258.2035793188117
 21
96.85766508276728
 31
0.0
  0
LINE
  5
1DE
330
1F
100
AcDbEntity
  8
0
100
AcDbLine
 10
258.2035793188117
 20
96.85766508276728
 30
0.0
 11
258.3058018505504
 21
97.63412225765676
 31
0.0
  0
LINE
  5
1DF
330
1F
100
AcDbEntity
  8
0
100
AcDbLine
 10
258.3058018505504
 20
97.63412225765676
 30
0.0
 11
258.3058018505504
 21
126.6341222576567
 31
0.0
  0
LINE
  5
1E0
330
1F
100
AcDbEntity
  8
0
100
AcDbLine
 10
258.3058018505504
 20
126.6341222576567
 30
0.0
 11
258.2035793303818
 21
127.4105793893659
 31
0.0
  0
LINE
  5
1E1
330
1F
100
AcDbEntity
  8
0
100
AcDbLine
 10
258.2035793303818
 20
127.4105793893659
 30
0.0
 11
257.903878065629
 21
128.1341222512042
 31
0.0
  0
LINE
  5
1E2
330
1F
100
AcDbEntity
  8
0
100
AcDbLine
 10
257.903878065629
 20
128.1341222512042
 30
0.0
 11
257.4271222020126
 21
128.7554425933138
 31
0.0
  0
LINE
  5
1E3
330
1F
100
AcDbEntity
  8
0
100
AcDbLine
 10
257.4271222020126
 20
128.7554425933138
 30
0.0
 11
256.8058018634552
 21
129.2321984615594
 31
0.0
  0
LINE
  5
1E4
330
1F
100
AcDbEntity
  8
0
100
AcDbLine
 10
256.8058018634552
 20
129.2321984615594
 30
0.0
 11
256.0822590038497
 21
129.531899731703
 31
0.0
  0
LINE
  5
1E5
330
1F
100
AcDbEntity
  8
0
100
AcDbLine
 10
256.0822590038497
 20
129.531899731703
 30
0.0
 11
255.3058018729021
 21
129.6341222576567
 31
0.0
  0
LINE
  5
1E6
330
1F
100
AcDbEntity
  8
0
100
AcDbLine
 10
255.3058018729021
 20
129.6341222576567
 30
0.0
 11
254.5293447404313
 21
129.5318997432731
 31
0.0
  0
LINE
  5
1E7
330
1F
100
AcDbEntity
  8
0
100
AcDbLine
 10
254.5293447404313
 20
129.5318997432731
 30
0.0
 11
253.80580187636
 21
129.2321984839112
 31
0.0
  0
LINE
  5
1E8
330
1F
100
AcDbEntity
  8
0
100
AcDbLine
 10
253.80580187636
 20
129.2321984839112
 30
0.0
 11
253.1844815306983
 21
128.7554426249239
 31
0.0
  0
LINE
  5
1E9
330
1F
100
AcDbEntity
  8
0
100
AcDbLine
 10
253.1844815306983
 20
128.7554426249239
 30
0.0
 11
252.7077256578235
 21
128.1341222899186
 31
0.0
  0
LINE
  5
1EA
330
1F
100
AcDbEntity
  8
0
100
AcDbLine
 10
252.7077256578235
 20
128.1341222899186
 30
0.0
 11
252.4080243822891
 21
127.4105794325461
 31
0.0
  0
LINE
  5
1EB
330
1F
100
AcDbEntity
  8
0
100
AcDbLine
 10
252.4080243822891
 20
127.4105794325461
 30
0.0
 11
252.3058018505504
 21
126.6341222576567
 31
0.0
  0
LINE
  5
1EC
330
1F
100
AcDbEntity
  8
0
100
AcDbLine
 10
267.3058018505504
 20
102.6341222576567
 30
0.0
 11
267.3058018505504
 21
126.6341222576567
 31
0.0
  0
LINE
  5
1ED
330
1F
100
AcDbEntity
  8
0
100
AcDbLine
 10
267.3058018505504
 20
126.6341222576567
 30
0.0
 11
267.2035793303818
 21
127.4105793893659
 31
0.0
  0
LINE
  5
1EE
330
1F
100
AcDbEntity
  8
0
100
AcDbLine
 10
267.2035793303818
 20
127.4105793893659
 30
0.0
 11
266.903878065629
 21
128.1341222512042
 31
0.0
  0
LINE
  5
1EF
330
1F
100
AcDbEntity
  8
0
100
AcDbLine
 10
266.903878065629
 20
128.1341222512042
 30
0.0
 11
266.4271222020126
 21
128.7554425933138
 31
0.0
  0
LINE
  5
1F0
330
1F
100
AcDbEntity
  8
0
100
AcDbLine
 10
266.4271222020126
 20
128.7554425933138
 30
0.0
 11
265.8058018634552
 21
129.2321984615593
 31
0.0
  0
LINE
  5
1F1
330
1F
100
AcDbEntity
  8
0
100
AcDbLine
 10
265.8058018634552
 20
129.2321984615593
 30
0.0
 11
265.0822590038497
 21
129.5318997317029
 31
0.0
  0
LINE
  5
1F2
330
1F
100
AcDbEntity
  8
0
100
AcDbLine
 10
265.0822590038497
 20
129.5318997317029
 30
0.0
 11
264.3058018729022
 21
129.6341222576567
 31
0.0
  0
LINE
  5
1F3
330
1F
100
AcDbEntity
  8
0
100
AcDbLine
 10
264.3058018729022
 20
129.6341222576567
 30
0.0
 11
263.5293447404313
 21
129.5318997432731
 31
0.0
  0
LINE
  5
1F4
330
1F
100
AcDbEntity
  8
0
100
AcDbLine
 10
263.5293447404313
 20
129.5318997432731
 30
0.0
 11
262.80580187636
 21
129.2321984839112
 31
0.0
  0
LINE
  5
1F5
330
1F
100
AcDbEntity
  8
0
100
AcDbLine
 10
262.80580187636
 20
129.2321984839112
 30
0.0
 11
262.1844815306984
 21
128.7554426249239
 31
0.0
  0
LINE
  5
1F6
330
1F
100
AcDbEntity
  8
0
100
AcDbLine
 10
262.1844815306984
 20
128.7554426249239
 30
0.0
 11
261.7077256578236
 21
128.1341222899186
 31
0.0
  0
LINE
  5
1F7
330
1F
100
AcDbEntity
  8
0
100
AcDbLine
 10
261.7077256578236
 20
128.1341222899186
 30
0.0
 11
261.4080243822891
 21
127.4105794325461
 31
0.0
  0
LINE
  5
1F8
330
1F
100
AcDbEntity
  8
0
100
AcDbLine
 10
261.4080243822891
 20
127.4105794325461
 30
0.0
 11
261.3058018505504
 21
126.6341222576567
 31
0.0
  0
LINE
  5
1F9
330
1F
100
AcDbEntity
  8
0
100
AcDbLine
 10
261.3058018505504
 20
126.6341222576567
 30
0.0
 11
261.3058018505504
 21
102.6341222576567
 31
0.0
  0
LINE
  5
1FA
330
1F
100
AcDbEntity
  8
0
100
AcDbLine
 10
261.3058018505504
 20
102.6341222576567
 30
0.0
 11
261.4080243716832
 21
101.8576651223491
 31
0.0
  0
LINE
  5
1FB
330
1F
100
AcDbEntity
  8
0
100
AcDbLine
 10
261.4080243716832
 20
101.8576651223491
 30
0.0
 11
261.7077256391971
 21
101.1341222576567
 31
0.0
  0
LINE
  5
1FC
330
1F
100
AcDbEntity
  8
0
100
AcDbLine
 10
261.7077256391971
 20
101.1341222576567
 30
0.0
 11
262.1844815069908
 21
100.512801914097
 31
0.0
  0
LINE
  5
1FD
330
1F
100
AcDbEntity
  8
0
100
AcDbLine
 10
262.1844815069908
 20
100.512801914097
 30
0.0
 11
262.8058018505504
 21
100.0360460463034
 31
0.0
  0
LINE
  5
1FE
330
1F
100
AcDbEntity
  8
0
100
AcDbLine
 10
262.8058018505504
 20
100.0360460463034
 30
0.0
 11
263.5293447152429
 21
99.7363447787895
 31
0.0
  0
LINE
  5
1FF
330
1F
100
AcDbEntity
  8
0
100
AcDbLine
 10
263.5293447152429
 20
99.7363447787895
 30
0.0
 11
264.3058018505504
 21
99.63412225765666
 31
0.0
  0
LINE
  5
200
330
1F
100
AcDbEntity
  8
0
100
AcDbLine
 10
264.3058018505504
 20
99.63412225765666
 30
0.0
 11
265.082258985858
 21
99.7363447787895
 31
0.0
  0
LINE
  5
201
330
1F
100
AcDbEntity
  8
0
100
AcDbLine
 10
265.082258985858
 20
99.7363447787895
 30
0.0
 11
265.8058018505504
 21
100.0360460463034
 31
0.0
  0
LINE
  5
202
330
1F
100
AcDbEntity
  8
0
100
AcDbLine
 10
265.8058018505504
 20
100.0360460463034
 30
0.0
 11
266.42712219411
 21
100.512801914097
 31
0.0
  0
LINE
  5
203
330
1F
100
AcDbEntity
  8
0
100
AcDbLine
 10
266.42712219411
 20
100.512801914097
 30
0.0
 11
266.9038780619037
 21
101.1341222576567
 31
0.0
  0
LINE
  5
204
330
1F
100
AcDbEntity
  8
0
100
AcDbLine
 10
266.9038780619037
 20
101.1341222576567
 30
0.0
 11
267.2035793294176
 21
101.8576651223491
 31
0.0
  0
LINE
  5
205
330
1F
100
AcDbEntity
  8
0
100
AcDbLine
 10
267.2035793294176
 20
101.8576651223491
 30
0.0
 11
267.3058018505504
 21
102.6341222576567
 31
0.0
  0
LINE
  5
206
330
1F
100
AcDbEntity
  8
0
100
AcDbLine
 10
276.3058018505504
 20
142.6341222576568
 30
0.0
 11
276.3058018505504
 21
166.6341222576568
 31
0.0
  0
LINE
  5
207
330
1F
100
AcDbEntity
  8
0
100
AcDbLine
 10
276.3058018505504
 20
166.6341222576568
 30
0.0
 11
276.2035793303818
 21
167.410579389366
 31
0.0
  0
LINE
  5
208
330
1F
100
AcDbEntity
  8
0
100
AcDbLine
 10
276.2035793303818
 20
167.410579389366
 30
0.0
 11
275.903878065629
 21
168.1341222512043
 31
0.0
  0
LINE
  5
209
330
1F
100
AcDbEntity
  8
0
100
AcDbLine
 10
275.903878065629
 20
168.1341222512043
 30
0.0
 11
275.4271222020126
 21
168.7554425933139
 31
0.0
  0
LINE
  5
20A
330
1F
100
AcDbEntity
  8
0
100
AcDbLine
 10
275.4271222020126
 20
168.7554425933139
 30
0.0
 11
274.8058018634552
 21
169.2321984615594
 31
0.0
  0
LINE
  5
20B
330
1F
100
AcDbEntity
  8
0
100
AcDbLine
 10
274.8058018634552
 20
169.2321984615594
 30
0.0
 11
274.0822590038497
 21
169.531899731703
 31
0.0
  0
LINE
  5
20C
330
1F
100
AcDbEntity
  8
0
100
AcDbLine
 10
274.0822590038497
 20
169.531899731703
 30
0.0
 11
273.3058018729022
 21
169.6341222576568
 31
0.0
  0
LINE
  5
20D
330
1F
100
AcDbEntity
  8
0
100
AcDbLine
 10
273.3058018729022
 20
169.6341222576568
 30
0.0
 11
272.5293447404314
 21
169.5318997432732
 31
0.0
  0
LINE
  5
20E
330
1F
100
AcDbEntity
  8
0
100
AcDbLine
 10
272.5293447404314
 20
169.5318997432732
 30
0.0
 11
271.80580187636
 21
169.2321984839113
 31
0.0
  0
LINE
  5
20F
330
1F
100
AcDbEntity
  8
0
100
AcDbLine
 10
271.80580187636
 20
169.2321984839113
 30
0.0
 11
271.1844815306984
 21
168.755442624924
 31
0.0
  0
LINE
  5
210
330
1F
100
AcDbEntity
  8
0
100
AcDbLine
 10
271.1844815306984
 20
168.755442624924
 30
0.0
 11
270.7077256578236
 21
168.1341222899187
 31
0.0
  0
LINE
  5
211
330
1F
100
AcDbEntity
  8
0
100
AcDbLine
 10
270.7077256578236
 20
168.1341222899187
 30
0.0
 11
270.4080243822892
 21
167.4105794325462
 31
0.0
  0
LINE
  5
212
330
1F
100
AcDbEntity
  8
0
100
AcDbLine
 10
270.4080243822892
 20
167.4105794325462
 30
0.0
 11
270.3058018505504
 21
166.6341222576568
 31
0.0
  0
LINE
  5
213
330
1F
100
AcDbEntity
  8
0
100
AcDbLine
 10
270.3058018505504
 20
166.6341222576568
 30
0.0
 11
270.3058018505504
 21
142.6341222576568
 31
0.0
  0
LINE
  5
214
330
1F
100
AcDbEntity
  8
0
100
AcDbLine
 10
270.3058018505504
 20
142.6341222576568
 30
0.0
 11
270.4080243716833
 21
141.8576651223492
 31
0.0
  0
LINE
  5
215
330
1F
100
AcDbEntity
  8
0
100
AcDbLine
 10
270.4080243716833
 20
141.8576651223492
 30
0.0
 11
270.7077256391971
 21
141.1341222576568
 31
0.0
  0
LINE
  5
216
330
1F
100
AcDbEntity
  8
0
100
AcDbLine
 10
270.7077256391971
 20
141.1341222576568
 30
0.0
 11
271.1844815069908
 21
140.5128019140971
 31
0.0
  0
LINE
  5
217
330
1F
100
AcDbEntity
  8
0
100
AcDbLine
 10
271.1844815069908
 20
140.5128019140971
 30
0.0
 11
271.8058018505504
 21
140.0360460463035
 31
0.0
  0
LINE
  5
218
330
1F
100
AcDbEntity
  8
0
100
AcDbLine
 10
271.8058018505504
 20
140.0360460463035
 30
0.0
 11
272.5293447152429
 21
139.7363447787896
 31
0.0
  0
LINE
  5
219
330
1F
100
AcDbEntity
  8
0
100
AcDbLine
 10
272.5293447152429
 20
139.7363447787896
 30
0.0
 11
273.3058018505504
 21
139.6341222576568
 31
0.0
  0
LINE
  5
21A
330
1F
100
AcDbEntity
  8
0
100
AcDbLine
 10
273.3058018505504
 20
139.6341222576568
 30
0.0
 11
274.082258985858
 21
139.7363447787896
 31
0.0
  0
LINE
  5
21B
330
1F
100
AcDbEntity
  8
0
100
AcDbLine
 10
274.082258985858
 20
139.7363447787896
 30
0.0
 11
274.8058018505504
 21
140.0360460463035
 31
0.0
  0
LINE
  5
21C
330
1F
100
AcDbEntity
  8
0
100
AcDbLine
 10
274.8058018505504
 20
140.0360460463035
 30
0.0
 11
275.4271221941101
 21
140.5128019140971
 31
0.0
  0
LINE
  5
21D
330
1F
100
AcDbEntity
  8
0
100
AcDbLine
 10
275.4271221941101
 20
140.5128019140971
 30
0.0
 11
275.9038780619038
 21
141.1341222576568
 31
0.0
  0
LINE
  5
21E
330
1F
100
AcDbEntity
  8
0
100
AcDbLine
 10
275.9038780619038
 20
141.1341222576568
 30
0.0
 11
276.2035793294177
 21
141.8576651223492
 31
0.0
  0
LINE
  5
21F
330
1F
100
AcDbEntity
  8
0
100
AcDbLine
 10
276.2035793294177
 20
141.8576651223492
 30
0.0
 11
276.3058018505504
 21
142.6341222576568
 31
0.0
  0
LINE
  5
220
330
1F
100
AcDbEntity
  8
0
100
AcDbLine
 10
266.1270487976502
 20
-42.18731977357675
 30
0.0
 11
268.538858346625
 21
-43.18632399862307
 31
0.0
  0
LINE
  5
221
330
1F
100
AcDbEntity
  8
0
100
AcDbLine
 10
263.538858346625
 20
-41.84657803646751
 30
0.0
 11
266.1270487976502
 21
-42.18731977357675
 31
0.0
  0
LINE
  5
222
330
1F
100
AcDbEntity
  8
0
100
AcDbLine
 10
260.9506678955998
 20
-42.18731977357675
 30
0.0
 11
263.538858346625
 21
-41.84657803646751
 31
0.0
  0
LINE
  5
223
330
1F
100
AcDbEntity
  8
0
100
AcDbLine
 10
258.538858346625
 20
-43.18632399862307
 30
0.0
 11
260.9506678955998
 21
-42.18731977357675
 31
0.0
  0
LINE
  5
224
330
1F
100
AcDbEntity
  8
0
100
AcDbLine
 10
256.4677905347596
 20
-44.775510224602
 30
0.0
 11
258.538858346625
 21
-43.18632399862307
 31
0.0
  0
LINE
  5
225
330
1F
100
AcDbEntity
  8
0
100
AcDbLine
 10
254.8786043087806
 20
-46.84657803646746
 30
0.0
 11
256.4677905347596
 21
-44.775510224602
 31
0.0
  0
LINE
  5
226
330
1F
100
AcDbEntity
  8
0
100
AcDbLine
 10
253.8796000837343
 20
-49.25838758544224
 30
0.0
 11
254.8786043087806
 21
-46.84657803646746
 31
0.0
  0
LINE
  5
227
330
1F
100
AcDbEntity
  8
0
100
AcDbLine
 10
253.538858346625
 20
-51.84657803646749
 30
0.0
 11
253.8796000837343
 21
-49.25838758544224
 31
0.0
  0
LINE
  5
228
330
1F
100
AcDbEntity
  8
0
100
AcDbLine
 10
253.8796000837343
 20
-54.43476848749265
 30
0.0
 11
253.538858346625
 21
-51.84657803646749
 31
0.0
  0
LINE
  5
229
330
1F
100
AcDbEntity
  8
0
100
AcDbLine
 10
254.8786043087806
 20
-56.84657803646744
 30
0.0
 11
253.8796000837343
 21
-54.43476848749265
 31
0.0
  0
LINE
  5
22A
330
1F
100
AcDbEntity
  8
0
100
AcDbLine
 10
256.4677905347596
 20
-58.9176458483329
 30
0.0
 11
254.8786043087806
 21
-56.84657803646744
 31
0.0
  0
LINE
  5
22B
330
1F
100
AcDbEntity
  8
0
100
AcDbLine
 10
258.538858346625
 20
-60.50683207431183
 30
0.0
 11
256.4677905347596
 21
-58.9176458483329
 31
0.0
  0
LINE
  5
22C
330
1F
100
AcDbEntity
  8
0
100
AcDbLine
 10
260.9506678955998
 20
-61.50583629935814
 30
0.0
 11
258.538858346625
 21
-60.50683207431183
 31
0.0
  0
LINE
  5
22D
330
1F
100
AcDbEntity
  8
0
100
AcDbLine
 10
263.538858346625
 20
-61.84657803646748
 30
0.0
 11
260.9506678955998
 21
-61.50583629935814
 31
0.0
  0
LINE
  5
22E
330
1F
100
AcDbEntity
  8
0
100
AcDbLine
 10
266.1270487976503
 20
-61.50583629935814
 30
0.0
 11
263.538858346625
 21
-61.84657803646748
 31
0.0
  0
LINE
  5
22F
330
1F
100
AcDbEntity
  8
0
100
AcDbLine
 10
268.538858346625
 20
-60.50683207431183
 30
0.0
 11
266.1270487976503
 21
-61.50583629935814
 31
0.0
  0
LINE
  5
230
330
1F
100
AcDbEntity
  8
0
100
AcDbLine
 10
270.6099261584905
 20
-58.91764584833299
 30
0.0
 11
268.538858346625
 21
-60.50683207431183
 31
0.0
  0
LINE
  5
231
330
1F
100
AcDbEntity
  8
0
100
AcDbLine
 10
272.1991123844695
 20
-56.84657803646744
 30
0.0
 11
270.6099261584905
 21
-58.91764584833299
 31
0.0
  0
LINE
  5
232
330
1F
100
AcDbEntity
  8
0
100
AcDbLine
 10
273.1981166095157
 20
-54.43476848749265
 30
0.0
 11
272.1991123844695
 21
-56.84657803646744
 31
0.0
  0
LINE
  5
233
330
1F
100
AcDbEntity
  8
0
100
AcDbLine
 10
273.538858346625
 20
-51.84657803646749
 30
0.0
 11
273.1981166095157
 21
-54.43476848749265
 31
0.0
  0
LINE
  5
234
330
1F
100
AcDbEntity
  8
0
100
AcDbLine
 10
273.1981166095157
 20
-49.25838758544224
 30
0.0
 11
273.538858346625
 21
-51.84657803646749
 31
0.0
  0
LINE
  5
235
330
1F
100
AcDbEntity
  8
0
100
AcDbLine
 10
272.1991123844695
 20
-46.84657803646746
 30
0.0
 11
273.1981166095157
 21
-49.25838758544224
 31
0.0
  0
LINE
  5
236
330
1F
100
AcDbEntity
  8
0
100
AcDbLine
 10
270.6099261584905
 20
-44.775510224602
 30
0.0
 11
272.1991123844695
 21
-46.84657803646746
 31
0.0
  0
LINE
  5
237
330
1F
100
AcDbEntity
  8
0
100
AcDbLine
 10
268.538858346625
 20
-43.18632399862307
 30
0.0
 11
270.6099261584905
 21
-44.775510224602
 31
0.0
  0
LINE
  5
238
330
1F
100
AcDbEntity
  8
0
100
AcDbLine
 10
263.538858346625
 20
-49.34657803646743
 30
0.0
 11
264.1859059593813
 21
-49.43176347074476
 31
0.0
  0
LINE
  5
239
330
1F
100
AcDbEntity
  8
0
100
AcDbLine
 10
264.1859059593813
 20
-49.43176347074476
 30
0.0
 11
264.788858346625
 21
-49.68151452700634
 31
0.0
  0
LINE
  5
23A
330
1F
100
AcDbEntity
  8
0
100
AcDbLine
 10
264.788858346625
 20
-49.68151452700634
 30
0.0
 11
265.3066252995914
 21
-50.0788110835011
 31
0.0
  0
LINE
  5
23B
330
1F
100
AcDbEntity
  8
0
100
AcDbLine
 10
265.3066252995914
 20
-50.0788110835011
 30
0.0
 11
265.7039218560861
 21
-50.59657803646742
 31
0.0
  0
LINE
  5
23C
330
1F
100
AcDbEntity
  8
0
100
AcDbLine
 10
265.7039218560861
 20
-50.59657803646742
 30
0.0
 11
265.9536729123477
 21
-51.19953042371116
 31
0.0
  0
LINE
  5
23D
330
1F
100
AcDbEntity
  8
0
100
AcDbLine
 10
265.9536729123477
 20
-51.19953042371116
 30
0.0
 11
266.0388583466251
 21
-51.84657803646749
 31
0.0
  0
LINE
  5
23E
330
1F
100
AcDbEntity
  8
0
100
AcDbLine
 10
266.0388583466251
 20
-51.84657803646749
 30
0.0
 11
265.9536729123477
 21
-52.49362564922374
 31
0.0
  0
LINE
  5
23F
330
1F
100
AcDbEntity
  8
0
100
AcDbLine
 10
265.9536729123477
 20
-52.49362564922374
 30
0.0
 11
265.7039218560861
 21
-53.09657803646748
 31
0.0
  0
LINE
  5
240
330
1F
100
AcDbEntity
  8
0
100
AcDbLine
 10
265.7039218560861
 20
-53.09657803646748
 30
0.0
 11
265.3066252995914
 21
-53.61434498943389
 31
0.0
  0
LINE
  5
241
330
1F
100
AcDbEntity
  8
0
100
AcDbLine
 10
265.3066252995914
 20
-53.61434498943389
 30
0.0
 11
264.788858346625
 21
-54.01164154592855
 31
0.0
  0
LINE
  5
242
330
1F
100
AcDbEntity
  8
0
100
AcDbLine
 10
264.788858346625
 20
-54.01164154592855
 30
0.0
 11
264.1859059593813
 21
-54.26139260219013
 31
0.0
  0
LINE
  5
243
330
1F
100
AcDbEntity
  8
0
100
AcDbLine
 10
264.1859059593813
 20
-54.26139260219013
 30
0.0
 11
263.538858346625
 21
-54.34657803646747
 31
0.0
  0
LINE
  5
244
330
1F
100
AcDbEntity
  8
0
100
AcDbLine
 10
263.538858346625
 20
-54.34657803646747
 30
0.0
 11
262.8918107338687
 21
-54.26139260219013
 31
0.0
  0
LINE
  5
245
330
1F
100
AcDbEntity
  8
0
100
AcDbLine
 10
262.8918107338687
 20
-54.26139260219013
 30
0.0
 11
262.288858346625
 21
-54.01164154592855
 31
0.0
  0
LINE
  5
246
330
1F
100
AcDbEntity
  8
0
100
AcDbLine
 10
262.288858346625
 20
-54.01164154592855
 30
0.0
 11
261.7710913936587
 21
-53.61434498943389
 31
0.0
  0
LINE
  5
247
330
1F
100
AcDbEntity
  8
0
100
AcDbLine
 10
261.7710913936587
 20
-53.61434498943389
 30
0.0
 11
261.3737948371639
 21
-53.09657803646748
 31
0.0
  0
LINE
  5
248
330
1F
100
AcDbEntity
  8
0
100
AcDbLine
 10
261.3737948371639
 20
-53.09657803646748
 30
0.0
 11
261.1240437809024
 21
-52.49362564922374
 31
0.0
  0
LINE
  5
249
330
1F
100
AcDbEntity
  8
0
100
AcDbLine
 10
261.1240437809024
 20
-52.49362564922374
 30
0.0
 11
261.038858346625
 21
-51.84657803646749
 31
0.0
  0
LINE
  5
24A
330
1F
100
AcDbEntity
  8
0
100
AcDbLine
 10
261.038858346625
 20
-51.84657803646749
 30
0.0
 11
261.1240437809024
 21
-51.19953042371116
 31
0.0
  0
LINE
  5
24B
330
1F
100
AcDbEntity
  8
0
100
AcDbLine
 10
261.1240437809024
 20
-51.19953042371116
 30
0.0
 11
261.3737948371639
 21
-50.59657803646751
 31
0.0
  0
LINE
  5
24C
330
1F
100
AcDbEntity
  8
0
100
AcDbLine
 10
261.3737948371639
 20
-50.59657803646751
 30
0.0
 11
261.7710913936587
 21
-50.0788110835011
 31
0.0
  0
LINE
  5
24D
330
1F
100
AcDbEntity
  8
0
100
AcDbLine
 10
261.7710913936587
 20
-50.0788110835011
 30
0.0
 11
262.288858346625
 21
-49.68151452700634
 31
0.0
  0
LINE
  5
24E
330
1F
100
AcDbEntity
  8
0
100
AcDbLine
 10
262.288858346625
 20
-49.68151452700634
 30
0.0
 11
262.8918107338687
 21
-49.43176347074476
 31
0.0
  0
LINE
  5
24F
330
1F
100
AcDbEntity
  8
0
100
AcDbLine
 10
262.8918107338687
 20
-49.43176347074476
 30
0.0
 11
263.538858346625
 21
-49.34657803646743
 31
0.0
  0
LINE
  5
250
330
1F
100
AcDbEntity
  8
0
100
AcDbLine
 10
265.314120668742
 20
-28.3628153419688
 30
0.0
 11
265.9611682814983
 21
-28.44800077624613
 31
0.0
  0
LINE
  5
251
330
1F
100
AcDbEntity
  8
0
100
AcDbLine
 10
263.1490571592809
 20
-29.61281534196887
 30
0.0
 11
263.5463537157756
 21
-29.09504838900246
 31
0.0
  0
LINE
  5
252
330
1F
100
AcDbEntity
  8
0
100
AcDbLine
 10
264.064120668742
 20
-28.6977518325078
 30
0.0
 11
264.6670730559857
 21
-28.44800077624613
 31
0.0
  0
LINE
  5
253
330
1F
100
AcDbEntity
  8
0
100
AcDbLine
 10
264.6670730559857
 20
-28.44800077624613
 30
0.0
 11
265.314120668742
 21
-28.3628153419688
 31
0.0
  0
LINE
  5
254
330
1F
100
AcDbEntity
  8
0
100
AcDbLine
 10
262.814120668742
 20
-30.86281534196886
 30
0.0
 11
262.8993061030193
 21
-30.21576772921252
 31
0.0
  0
LINE
  5
255
330
1F
100
AcDbEntity
  8
0
100
AcDbLine
 10
265.9611682814984
 20
-33.27762990769159
 30
0.0
 11
265.314120668742
 21
-33.36281534196893
 31
0.0
  0
LINE
  5
256
330
1F
100
AcDbEntity
  8
0
100
AcDbLine
 10
264.064120668742
 20
-33.02787885142992
 30
0.0
 11
263.5463537157756
 21
-32.63058229493526
 31
0.0
  0
LINE
  5
257
330
1F
100
AcDbEntity
  8
0
100
AcDbLine
 10
265.314120668742
 20
-33.36281534196893
 30
0.0
 11
264.6670730559857
 21
-33.27762990769159
 31
0.0
  0
LINE
  5
258
330
1F
100
AcDbEntity
  8
0
100
AcDbLine
 10
262.8993061030193
 20
-30.21576772921252
 30
0.0
 11
263.1490571592809
 21
-29.61281534196887
 31
0.0
  0
LINE
  5
259
330
1F
100
AcDbEntity
  8
0
100
AcDbLine
 10
263.5463537157756
 20
-32.63058229493526
 30
0.0
 11
263.1490571592809
 21
-32.11281534196885
 31
0.0
  0
LINE
  5
25A
330
1F
100
AcDbEntity
  8
0
100
AcDbLine
 10
263.5463537157756
 20
-29.09504838900246
 30
0.0
 11
264.064120668742
 21
-28.6977518325078
 31
0.0
  0
LINE
  5
25B
330
1F
100
AcDbEntity
  8
0
100
AcDbLine
 10
262.8993061030193
 20
-31.50986295472519
 30
0.0
 11
262.814120668742
 21
-30.86281534196886
 31
0.0
  0
LINE
  5
25C
330
1F
100
AcDbEntity
  8
0
100
AcDbLine
 10
264.6670730559857
 20
-33.27762990769159
 30
0.0
 11
264.064120668742
 21
-33.02787885142992
 31
0.0
  0
LINE
  5
25D
330
1F
100
AcDbEntity
  8
0
100
AcDbLine
 10
266.564120668742
 20
-33.02787885142992
 30
0.0
 11
265.9611682814984
 21
-33.27762990769159
 31
0.0
  0
LINE
  5
25E
330
1F
100
AcDbEntity
  8
0
100
AcDbLine
 10
267.4791841782031
 20
-29.61281534196887
 30
0.0
 11
267.7289352344647
 21
-30.21576772921252
 31
0.0
  0
LINE
  5
25F
330
1F
100
AcDbEntity
  8
0
100
AcDbLine
 10
263.7612063981269
 20
-36.65837029970327
 30
0.0
 11
262.314120668742
 21
-36.05896776467546
 31
0.0
  0
LINE
  5
260
330
1F
100
AcDbEntity
  8
0
100
AcDbLine
 10
268.314120668742
 20
-25.66666291926226
 30
0.0
 11
269.5567613558613
 21
-26.62017465484956
 31
0.0
  0
LINE
  5
261
330
1F
100
AcDbEntity
  8
0
100
AcDbLine
 10
259.5185657110076
 20
-29.30990107135375
 30
0.0
 11
260.1179682460354
 21
-27.86281534196891
 31
0.0
  0
LINE
  5
262
330
1F
100
AcDbEntity
  8
0
100
AcDbLine
 10
265.314120668742
 20
-36.86281534196885
 30
0.0
 11
263.7612063981269
 21
-36.65837029970327
 31
0.0
  0
LINE
  5
263
330
1F
100
AcDbEntity
  8
0
100
AcDbLine
 10
266.8670349393572
 20
-36.65837029970327
 30
0.0
 11
265.314120668742
 21
-36.86281534196885
 31
0.0
  0
LINE
  5
264
330
1F
100
AcDbEntity
  8
0
100
AcDbLine
 10
262.314120668742
 20
-25.66666291926226
 30
0.0
 11
263.7612063981269
 21
-25.06726038423445
 31
0.0
  0
LINE
  5
265
330
1F
100
AcDbEntity
  8
0
100
AcDbLine
 10
262.314120668742
 20
-36.05896776467546
 30
0.0
 11
261.0714799816227
 21
-35.10545602908815
 31
0.0
  0
LINE
  5
266
330
1F
100
AcDbEntity
  8
0
100
AcDbLine
 10
269.5567613558613
 20
-35.10545602908815
 30
0.0
 11
268.314120668742
 21
-36.05896776467546
 31
0.0
  0
LINE
  5
267
330
1F
100
AcDbEntity
  8
0
100
AcDbLine
 10
271.1096756264764
 20
-32.41572961258397
 30
0.0
 11
270.5102730914486
 21
-33.86281534196881
 31
0.0
  0
LINE
  5
268
330
1F
100
AcDbEntity
  8
0
100
AcDbLine
 10
263.1490571592809
 20
-32.11281534196885
 30
0.0
 11
262.8993061030193
 21
-31.50986295472519
 31
0.0
  0
LINE
  5
269
330
1F
100
AcDbEntity
  8
0
100
AcDbLine
 10
259.5185657110076
 20
-32.41572961258397
 30
0.0
 11
259.314120668742
 21
-30.86281534196886
 31
0.0
  0
LINE
  5
26A
330
1F
100
AcDbEntity
  8
0
100
AcDbLine
 10
268.314120668742
 20
-36.05896776467546
 30
0.0
 11
266.8670349393572
 21
-36.65837029970327
 31
0.0
  0
LINE
  5
26B
330
1F
100
AcDbEntity
  8
0
100
AcDbLine
 10
267.7289352344647
 20
-31.50986295472519
 30
0.0
 11
267.4791841782031
 21
-32.11281534196885
 31
0.0
  0
LINE
  5
26C
330
1F
100
AcDbEntity
  8
0
100
AcDbLine
 10
269.5567613558613
 20
-26.62017465484956
 30
0.0
 11
270.5102730914486
 21
-27.86281534196891
 31
0.0
  0
LINE
  5
26D
330
1F
100
AcDbEntity
  8
0
100
AcDbLine
 10
265.9611682814983
 20
-28.44800077624613
 30
0.0
 11
266.564120668742
 21
-28.6977518325078
 31
0.0
  0
LINE
  5
26E
330
1F
100
AcDbEntity
  8
0
100
AcDbLine
 10
260.1179682460354
 20
-27.86281534196891
 30
0.0
 11
261.0714799816227
 21
-26.62017465484956
 31
0.0
  0
LINE
  5
26F
330
1F
100
AcDbEntity
  8
0
100
AcDbLine
 10
261.0714799816227
 20
-35.10545602908815
 30
0.0
 11
260.1179682460354
 21
-33.86281534196881
 31
0.0
  0
LINE
  5
270
330
1F
100
AcDbEntity
  8
0
100
AcDbLine
 10
260.1179682460354
 20
-33.86281534196881
 30
0.0
 11
259.5185657110076
 21
-32.41572961258397
 31
0.0
  0
LINE
  5
271
330
1F
100
AcDbEntity
  8
0
100
AcDbLine
 10
267.814120668742
 20
-30.86281534196886
 30
0.0
 11
267.7289352344647
 21
-31.50986295472519
 31
0.0
  0
LINE
  5
272
330
1F
100
AcDbEntity
  8
0
100
AcDbLine
 10
261.0714799816227
 20
-26.62017465484956
 30
0.0
 11
262.314120668742
 21
-25.66666291926226
 31
0.0
  0
LINE
  5
273
330
1F
100
AcDbEntity
  8
0
100
AcDbLine
 10
259.314120668742
 20
-30.86281534196886
 30
0.0
 11
259.5185657110076
 21
-29.30990107135375
 31
0.0
  0
LINE
  5
274
330
1F
100
AcDbEntity
  8
0
100
AcDbLine
 10
270.5102730914486
 20
-33.86281534196881
 30
0.0
 11
269.5567613558613
 21
-35.10545602908815
 31
0.0
  0
LINE
  5
275
330
1F
100
AcDbEntity
  8
0
100
AcDbLine
 10
271.314120668742
 20
-30.86281534196886
 30
0.0
 11
271.1096756264764
 21
-32.41572961258397
 31
0.0
  0
LINE
  5
276
330
1F
100
AcDbEntity
  8
0
100
AcDbLine
 10
267.4791841782031
 20
-32.11281534196885
 30
0.0
 11
267.0818876217084
 21
-32.63058229493526
 31
0.0
  0
LINE
  5
277
330
1F
100
AcDbEntity
  8
0
100
AcDbLine
 10
265.314120668742
 20
-24.86281534196887
 30
0.0
 11
266.8670349393572
 21
-25.06726038423445
 31
0.0
  0
LINE
  5
278
330
1F
100
AcDbEntity
  8
0
100
AcDbLine
 10
263.7612063981269
 20
-25.06726038423445
 30
0.0
 11
265.314120668742
 21
-24.86281534196887
 31
0.0
  0
LINE
  5
279
330
1F
100
AcDbEntity
  8
0
100
AcDbLine
 10
271.1096756264764
 20
-29.30990107135375
 30
0.0
 11
271.314120668742
 21
-30.86281534196886
 31
0.0
  0
LINE
  5
27A
330
1F
100
AcDbEntity
  8
0
100
AcDbLine
 10
270.5102730914486
 20
-27.86281534196891
 30
0.0
 11
271.1096756264764
 21
-29.30990107135375
 31
0.0
  0
LINE
  5
27B
330
1F
100
AcDbEntity
  8
0
100
AcDbLine
 10
267.0818876217084
 20
-32.63058229493526
 30
0.0
 11
266.564120668742
 21
-33.02787885142992
 31
0.0
  0
LINE
  5
27C
330
1F
100
AcDbEntity
  8
0
100
AcDbLine
 10
267.7289352344647
 20
-30.21576772921252
 30
0.0
 11
267.814120668742
 21
-30.86281534196886
 31
0.0
  0
LINE
  5
27D
330
1F
100
AcDbEntity
  8
0
100
AcDbLine
 10
267.0818876217084
 20
-29.09504838900246
 30
0.0
 11
267.4791841782031
 21
-29.61281534196887
 31
0.0
  0
LINE
  5
27E
330
1F
100
AcDbEntity
  8
0
100
AcDbLine
 10
266.564120668742
 20
-28.6977518325078
 30
0.0
 11
267.0818876217084
 21
-29.09504838900246
 31
0.0
  0
LINE
  5
27F
330
1F
100
AcDbEntity
  8
0
100
AcDbLine
 10
266.8670349393572
 20
-25.06726038423445
 30
0.0
 11
268.314120668742
 21
-25.66666291926226
 31
0.0
  0
LINE
  5
280
330
1F
100
AcDbEntity
  8
0
100
AcDbLine
 10
250.2147790024736
 20
-34.68322424402075
 30
0.0
 11
250.8618266152299
 21
-34.76840967829808
 31
0.0
  0
LINE
  5
281
330
1F
100
AcDbEntity
  8
0
100
AcDbLine
 10
248.0497154930125
 20
-35.93322424402083
 30
0.0
 11
248.4470120495072
 21
-35.41545729105442
 31
0.0
  0
LINE
  5
282
330
1F
100
AcDbEntity
  8
0
100
AcDbLine
 10
248.9647790024736
 20
-35.01816073455975
 30
0.0
 11
249.5677313897172
 21
-34.76840967829808
 31
0.0
  0
LINE
  5
283
330
1F
100
AcDbEntity
  8
0
100
AcDbLine
 10
249.5677313897172
 20
-34.76840967829808
 30
0.0
 11
250.2147790024736
 21
-34.68322424402075
 31
0.0
  0
LINE
  5
284
330
1F
100
AcDbEntity
  8
0
100
AcDbLine
 10
247.7147790024736
 20
-37.18322424402081
 30
0.0
 11
247.7999644367509
 21
-36.53617663126447
 31
0.0
  0
LINE
  5
285
330
1F
100
AcDbEntity
  8
0
100
AcDbLine
 10
250.8618266152299
 20
-39.59803880974354
 30
0.0
 11
250.2147790024736
 21
-39.68322424402088
 31
0.0
  0
LINE
  5
286
330
1F
100
AcDbEntity
  8
0
100
AcDbLine
 10
248.9647790024736
 20
-39.34828775348188
 30
0.0
 11
248.4470120495072
 21
-38.95099119698721
 31
0.0
  0
LINE
  5
287
330
1F
100
AcDbEntity
  8
0
100
AcDbLine
 10
250.2147790024736
 20
-39.68322424402088
 30
0.0
 11
249.5677313897173
 21
-39.59803880974354
 31
0.0
  0
LINE
  5
288
330
1F
100
AcDbEntity
  8
0
100
AcDbLine
 10
247.7999644367509
 20
-36.53617663126447
 30
0.0
 11
248.0497154930125
 21
-35.93322424402083
 31
0.0
  0
LINE
  5
289
330
1F
100
AcDbEntity
  8
0
100
AcDbLine
 10
248.4470120495072
 20
-38.95099119698721
 30
0.0
 11
248.0497154930125
 21
-38.4332242440208
 31
0.0
  0
LINE
  5
28A
330
1F
100
AcDbEntity
  8
0
100
AcDbLine
 10
248.4470120495072
 20
-35.41545729105442
 30
0.0
 11
248.9647790024736
 21
-35.01816073455975
 31
0.0
  0
LINE
  5
28B
330
1F
100
AcDbEntity
  8
0
100
AcDbLine
 10
247.7999644367509
 20
-37.83027185677714
 30
0.0
 11
247.7147790024736
 21
-37.18322424402081
 31
0.0
  0
LINE
  5
28C
330
1F
100
AcDbEntity
  8
0
100
AcDbLine
 10
249.5677313897173
 20
-39.59803880974354
 30
0.0
 11
248.9647790024736
 21
-39.34828775348188
 31
0.0
  0
LINE
  5
28D
330
1F
100
AcDbEntity
  8
0
100
AcDbLine
 10
251.4647790024736
 20
-39.34828775348188
 30
0.0
 11
250.8618266152299
 21
-39.59803880974354
 31
0.0
  0
LINE
  5
28E
330
1F
100
AcDbEntity
  8
0
100
AcDbLine
 10
252.3798425119347
 20
-35.93322424402083
 30
0.0
 11
252.6295935681963
 21
-36.53617663126447
 31
0.0
  0
LINE
  5
28F
330
1F
100
AcDbEntity
  8
0
100
AcDbLine
 10
248.6618647318585
 20
-42.97877920175522
 30
0.0
 11
247.2147790024736
 21
-42.37937666672742
 31
0.0
  0
LINE
  5
290
330
1F
100
AcDbEntity
  8
0
100
AcDbLine
 10
253.2147790024736
 20
-31.98707182131421
 30
0.0
 11
254.4574196895929
 21
-32.94058355690152
 31
0.0
  0
LINE
  5
291
330
1F
100
AcDbEntity
  8
0
100
AcDbLine
 10
244.4192240447392
 20
-35.6303099734057
 30
0.0
 11
245.018626579767
 21
-34.18322424402086
 31
0.0
  0
LINE
  5
292
330
1F
100
AcDbEntity
  8
0
100
AcDbLine
 10
250.2147790024736
 20
-43.1832242440208
 30
0.0
 11
248.6618647318585
 21
-42.97877920175522
 31
0.0
  0
LINE
  5
293
330
1F
100
AcDbEntity
  8
0
100
AcDbLine
 10
251.7676932730887
 20
-42.97877920175522
 30
0.0
 11
250.2147790024736
 21
-43.1832242440208
 31
0.0
  0
LINE
  5
294
330
1F
100
AcDbEntity
  8
0
100
AcDbLine
 10
247.2147790024736
 20
-31.98707182131421
 30
0.0
 11
248.6618647318585
 21
-31.3876692862864
 31
0.0
  0
LINE
  5
295
330
1F
100
AcDbEntity
  8
0
100
AcDbLine
 10
247.2147790024736
 20
-42.37937666672742
 30
0.0
 11
245.9721383153543
 21
-41.42586493114011
 31
0.0
  0
LINE
  5
296
330
1F
100
AcDbEntity
  8
0
100
AcDbLine
 10
254.4574196895929
 20
-41.42586493114011
 30
0.0
 11
253.2147790024736
 21
-42.37937666672742
 31
0.0
  0
LINE
  5
297
330
1F
100
AcDbEntity
  8
0
100
AcDbLine
 10
256.010333960208
 20
-38.73613851463593
 30
0.0
 11
255.4109314251802
 21
-40.18322424402076
 31
0.0
  0
LINE
  5
298
330
1F
100
AcDbEntity
  8
0
100
AcDbLine
 10
248.0497154930125
 20
-38.4332242440208
 30
0.0
 11
247.7999644367509
 21
-37.83027185677714
 31
0.0
  0
LINE
  5
299
330
1F
100
AcDbEntity
  8
0
100
AcDbLine
 10
244.4192240447392
 20
-38.73613851463593
 30
0.0
 11
244.2147790024736
 21
-37.18322424402081
 31
0.0
  0
LINE
  5
29A
330
1F
100
AcDbEntity
  8
0
100
AcDbLine
 10
253.2147790024736
 20
-42.37937666672742
 30
0.0
 11
251.7676932730887
 21
-42.97877920175522
 31
0.0
  0
LINE
  5
29B
330
1F
100
AcDbEntity
  8
0
100
AcDbLine
 10
252.6295935681963
 20
-37.83027185677714
 30
0.0
 11
252.3798425119347
 21
-38.4332242440208
 31
0.0
  0
LINE
  5
29C
330
1F
100
AcDbEntity
  8
0
100
AcDbLine
 10
254.4574196895929
 20
-32.94058355690152
 30
0.0
 11
255.4109314251802
 21
-34.18322424402086
 31
0.0
  0
LINE
  5
29D
330
1F
100
AcDbEntity
  8
0
100
AcDbLine
 10
250.8618266152299
 20
-34.76840967829808
 30
0.0
 11
251.4647790024736
 21
-35.01816073455975
 31
0.0
  0
LINE
  5
29E
330
1F
100
AcDbEntity
  8
0
100
AcDbLine
 10
245.018626579767
 20
-34.18322424402086
 30
0.0
 11
245.9721383153543
 21
-32.94058355690152
 31
0.0
  0
LINE
  5
29F
330
1F
100
AcDbEntity
  8
0
100
AcDbLine
 10
245.9721383153543
 20
-41.42586493114011
 30
0.0
 11
245.018626579767
 21
-40.18322424402076
 31
0.0
  0
LINE
  5
2A0
330
1F
100
AcDbEntity
  8
0
100
AcDbLine
 10
245.018626579767
 20
-40.18322424402076
 30
0.0
 11
244.4192240447392
 21
-38.73613851463593
 31
0.0
  0
LINE
  5
2A1
330
1F
100
AcDbEntity
  8
0
100
AcDbLine
 10
252.7147790024736
 20
-37.18322424402081
 30
0.0
 11
252.6295935681963
 21
-37.83027185677714
 31
0.0
  0
LINE
  5
2A2
330
1F
100
AcDbEntity
  8
0
100
AcDbLine
 10
245.9721383153543
 20
-32.94058355690152
 30
0.0
 11
247.2147790024736
 21
-31.98707182131421
 31
0.0
  0
LINE
  5
2A3
330
1F
100
AcDbEntity
  8
0
100
AcDbLine
 10
244.2147790024736
 20
-37.18322424402081
 30
0.0
 11
244.4192240447392
 21
-35.6303099734057
 31
0.0
  0
LINE
  5
2A4
330
1F
100
AcDbEntity
  8
0
100
AcDbLine
 10
255.4109314251802
 20
-40.18322424402076
 30
0.0
 11
254.4574196895929
 21
-41.42586493114011
 31
0.0
  0
LINE
  5
2A5
330
1F
100
AcDbEntity
  8
0
100
AcDbLine
 10
256.2147790024736
 20
-37.18322424402081
 30
0.0
 11
256.010333960208
 21
-38.73613851463593
 31
0.0
  0
LINE
  5
2A6
330
1F
100
AcDbEntity
  8
0
100
AcDbLine
 10
252.3798425119347
 20
-38.4332242440208
 30
0.0
 11
251.98254595544
 21
-38.95099119698721
 31
0.0
  0
LINE
  5
2A7
330
1F
100
AcDbEntity
  8
0
100
AcDbLine
 10
250.2147790024736
 20
-31.18322424402082
 30
0.0
 11
251.7676932730887
 21
-31.3876692862864
 31
0.0
  0
LINE
  5
2A8
330
1F
100
AcDbEntity
  8
0
100
AcDbLine
 10
248.6618647318585
 20
-31.3876692862864
 30
0.0
 11
250.2147790024736
 21
-31.18322424402082
 31
0.0
  0
LINE
  5
2A9
330
1F
100
AcDbEntity
  8
0
100
AcDbLine
 10
256.010333960208
 20
-35.6303099734057
 30
0.0
 11
256.2147790024736
 21
-37.18322424402081
 31
0.0
  0
LINE
  5
2AA
330
1F
100
AcDbEntity
  8
0
100
AcDbLine
 10
255.4109314251802
 20
-34.18322424402086
 30
0.0
 11
256.010333960208
 21
-35.6303099734057
 31
0.0
  0
LINE
  5
2AB
330
1F
100
AcDbEntity
  8
0
100
AcDbLine
 10
251.98254595544
 20
-38.95099119698721
 30
0.0
 11
251.4647790024736
 21
-39.34828775348188
 31
0.0
  0
LINE
  5
2AC
330
1F
100
AcDbEntity
  8
0
100
AcDbLine
 10
252.6295935681963
 20
-36.53617663126447
 30
0.0
 11
252.7147790024736
 21
-37.18322424402081
 31
0.0
  0
LINE
  5
2AD
330
1F
100
AcDbEntity
  8
0
100
AcDbLine
 10
251.98254595544
 20
-35.41545729105442
 30
0.0
 11
252.3798425119347
 21
-35.93322424402083
 31
0.0
  0
LINE
  5
2AE
330
1F
100
AcDbEntity
  8
0
100
AcDbLine
 10
251.4647790024736
 20
-35.01816073455975
 30
0.0
 11
251.98254595544
 21
-35.41545729105442
 31
0.0
  0
LINE
  5
2AF
330
1F
100
AcDbEntity
  8
0
100
AcDbLine
 10
251.7676932730887
 20
-31.3876692862864
 30
0.0
 11
253.2147790024736
 21
-31.98707182131421
 31
0.0
  0
LINE
  5
2B0
330
1F
100
AcDbEntity
  8
0
100
AcDbLine
 10
250.5371950515976
 20
-20.01329400887749
 30
0.0
 11
251.1842426643539
 21
-20.09847944315482
 31
0.0
  0
LINE
  5
2B1
330
1F
100
AcDbEntity
  8
0
100
AcDbLine
 10
248.3721315421365
 20
-21.26329400887757
 30
0.0
 11
248.7694280986312
 21
-20.74552705591116
 31
0.0
  0
LINE
  5
2B2
330
1F
100
AcDbEntity
  8
0
100
AcDbLine
 10
249.2871950515976
 20
-20.34823049941649
 30
0.0
 11
249.8901474388412
 21
-20.09847944315482
 31
0.0
  0
LINE
  5
2B3
330
1F
100
AcDbEntity
  8
0
100
AcDbLine
 10
249.8901474388412
 20
-20.09847944315482
 30
0.0
 11
250.5371950515976
 21
-20.01329400887749
 31
0.0
  0
LINE
  5
2B4
330
1F
100
AcDbEntity
  8
0
100
AcDbLine
 10
248.0371950515976
 20
-22.51329400887755
 30
0.0
 11
248.1223804858749
 21
-21.86624639612122
 31
0.0
  0
LINE
  5
2B5
330
1F
100
AcDbEntity
  8
0
100
AcDbLine
 10
251.1842426643539
 20
-24.92810857460028
 30
0.0
 11
250.5371950515976
 21
-25.01329400887762
 31
0.0
  0
LINE
  5
2B6
330
1F
100
AcDbEntity
  8
0
100
AcDbLine
 10
249.2871950515976
 20
-24.67835751833861
 30
0.0
 11
248.7694280986312
 21
-24.28106096184395
 31
0.0
  0
LINE
  5
2B7
330
1F
100
AcDbEntity
  8
0
100
AcDbLine
 10
250.5371950515976
 20
-25.01329400887762
 30
0.0
 11
249.8901474388413
 21
-24.92810857460028
 31
0.0
  0
LINE
  5
2B8
330
1F
100
AcDbEntity
  8
0
100
AcDbLine
 10
248.1223804858749
 20
-21.86624639612122
 30
0.0
 11
248.3721315421365
 21
-21.26329400887757
 31
0.0
  0
LINE
  5
2B9
330
1F
100
AcDbEntity
  8
0
100
AcDbLine
 10
248.7694280986312
 20
-24.28106096184395
 30
0.0
 11
248.3721315421365
 21
-23.76329400887754
 31
0.0
  0
LINE
  5
2BA
330
1F
100
AcDbEntity
  8
0
100
AcDbLine
 10
248.7694280986312
 20
-20.74552705591116
 30
0.0
 11
249.2871950515976
 21
-20.34823049941649
 31
0.0
  0
LINE
  5
2BB
330
1F
100
AcDbEntity
  8
0
100
AcDbLine
 10
248.1223804858749
 20
-23.16034162163389
 30
0.0
 11
248.0371950515976
 21
-22.51329400887755
 31
0.0
  0
LINE
  5
2BC
330
1F
100
AcDbEntity
  8
0
100
AcDbLine
 10
249.8901474388413
 20
-24.92810857460028
 30
0.0
 11
249.2871950515976
 21
-24.67835751833861
 31
0.0
  0
LINE
  5
2BD
330
1F
100
AcDbEntity
  8
0
100
AcDbLine
 10
251.7871950515976
 20
-24.67835751833861
 30
0.0
 11
251.1842426643539
 21
-24.92810857460028
 31
0.0
  0
LINE
  5
2BE
330
1F
100
AcDbEntity
  8
0
100
AcDbLine
 10
252.7022585610587
 20
-21.26329400887757
 30
0.0
 11
252.9520096173203
 21
-21.86624639612122
 31
0.0
  0
LINE
  5
2BF
330
1F
100
AcDbEntity
  8
0
100
AcDbLine
 10
248.9842807809825
 20
-28.30884896661196
 30
0.0
 11
247.5371950515976
 21
-27.70944643158415
 31
0.0
  0
LINE
  5
2C0
330
1F
100
AcDbEntity
  8
0
100
AcDbLine
 10
253.5371950515976
 20
-17.31714158617095
 30
0.0
 11
254.7798357387169
 21
-18.27065332175826
 31
0.0
  0
LINE
  5
2C1
330
1F
100
AcDbEntity
  8
0
100
AcDbLine
 10
244.7416400938632
 20
-20.96037973826244
 30
0.0
 11
245.341042628891
 21
-19.5132940088776
 31
0.0
  0
LINE
  5
2C2
330
1F
100
AcDbEntity
  8
0
100
AcDbLine
 10
250.5371950515976
 20
-28.51329400887754
 30
0.0
 11
248.9842807809825
 21
-28.30884896661196
 31
0.0
  0
LINE
  5
2C3
330
1F
100
AcDbEntity
  8
0
100
AcDbLine
 10
252.0901093222127
 20
-28.30884896661196
 30
0.0
 11
250.5371950515976
 21
-28.51329400887754
 31
0.0
  0
LINE
  5
2C4
330
1F
100
AcDbEntity
  8
0
100
AcDbLine
 10
247.5371950515976
 20
-17.31714158617095
 30
0.0
 11
248.9842807809825
 21
-16.71773905114314
 31
0.0
  0
LINE
  5
2C5
330
1F
100
AcDbEntity
  8
0
100
AcDbLine
 10
247.5371950515976
 20
-27.70944643158415
 30
0.0
 11
246.2945543644783
 21
-26.75593469599685
 31
0.0
  0
LINE
  5
2C6
330
1F
100
AcDbEntity
  8
0
100
AcDbLine
 10
254.7798357387169
 20
-26.75593469599685
 30
0.0
 11
253.5371950515976
 21
-27.70944643158415
 31
0.0
  0
LINE
  5
2C7
330
1F
100
AcDbEntity
  8
0
100
AcDbLine
 10
256.332750009332
 20
-24.06620827949267
 30
0.0
 11
255.7333474743042
 21
-25.5132940088775
 31
0.0
  0
LINE
  5
2C8
330
1F
100
AcDbEntity
  8
0
100
AcDbLine
 10
248.3721315421365
 20
-23.76329400887754
 30
0.0
 11
248.1223804858749
 21
-23.16034162163389
 31
0.0
  0
LINE
  5
2C9
330
1F
100
AcDbEntity
  8
0
100
AcDbLine
 10
244.7416400938632
 20
-24.06620827949267
 30
0.0
 11
244.5371950515976
 21
-22.51329400887755
 31
0.0
  0
LINE
  5
2CA
330
1F
100
AcDbEntity
  8
0
100
AcDbLine
 10
253.5371950515976
 20
-27.70944643158415
 30
0.0
 11
252.0901093222127
 21
-28.30884896661196
 31
0.0
  0
LINE
  5
2CB
330
1F
100
AcDbEntity
  8
0
100
AcDbLine
 10
252.9520096173203
 20
-23.16034162163389
 30
0.0
 11
252.7022585610587
 21
-23.76329400887754
 31
0.0
  0
LINE
  5
2CC
330
1F
100
AcDbEntity
  8
0
100
AcDbLine
 10
254.7798357387169
 20
-18.27065332175826
 30
0.0
 11
255.7333474743042
 21
-19.5132940088776
 31
0.0
  0
LINE
  5
2CD
330
1F
100
AcDbEntity
  8
0
100
AcDbLine
 10
251.1842426643539
 20
-20.09847944315482
 30
0.0
 11
251.7871950515976
 21
-20.34823049941649
 31
0.0
  0
LINE
  5
2CE
330
1F
100
AcDbEntity
  8
0
100
AcDbLine
 10
245.341042628891
 20
-19.5132940088776
 30
0.0
 11
246.2945543644783
 21
-18.27065332175826
 31
0.0
  0
LINE
  5
2CF
330
1F
100
AcDbEntity
  8
0
100
AcDbLine
 10
246.2945543644783
 20
-26.75593469599685
 30
0.0
 11
245.341042628891
 21
-25.5132940088775
 31
0.0
  0
LINE
  5
2D0
330
1F
100
AcDbEntity
  8
0
100
AcDbLine
 10
245.341042628891
 20
-25.5132940088775
 30
0.0
 11
244.7416400938632
 21
-24.06620827949267
 31
0.0
  0
LINE
  5
2D1
330
1F
100
AcDbEntity
  8
0
100
AcDbLine
 10
253.0371950515976
 20
-22.51329400887755
 30
0.0
 11
252.9520096173203
 21
-23.16034162163389
 31
0.0
  0
LINE
  5
2D2
330
1F
100
AcDbEntity
  8
0
100
AcDbLine
 10
246.2945543644783
 20
-18.27065332175826
 30
0.0
 11
247.5371950515976
 21
-17.31714158617095
 31
0.0
  0
LINE
  5
2D3
330
1F
100
AcDbEntity
  8
0
100
AcDbLine
 10
244.5371950515976
 20
-22.51329400887755
 30
0.0
 11
244.7416400938632
 21
-20.96037973826244
 31
0.0
  0
LINE
  5
2D4
330
1F
100
AcDbEntity
  8
0
100
AcDbLine
 10
255.7333474743042
 20
-25.5132940088775
 30
0.0
 11
254.7798357387169
 21
-26.75593469599685
 31
0.0
  0
LINE
  5
2D5
330
1F
100
AcDbEntity
  8
0
100
AcDbLine
 10
256.5371950515976
 20
-22.51329400887755
 30
0.0
 11
256.332750009332
 21
-24.06620827949267
 31
0.0
  0
LINE
  5
2D6
330
1F
100
AcDbEntity
  8
0
100
AcDbLine
 10
252.7022585610587
 20
-23.76329400887754
 30
0.0
 11
252.304962004564
 21
-24.28106096184395
 31
0.0
  0
LINE
  5
2D7
330
1F
100
AcDbEntity
  8
0
100
AcDbLine
 10
250.5371950515976
 20
-16.51329400887756
 30
0.0
 11
252.0901093222127
 21
-16.71773905114314
 31
0.0
  0
LINE
  5
2D8
330
1F
100
AcDbEntity
  8
0
100
AcDbLine
 10
248.9842807809825
 20
-16.71773905114314
 30
0.0
 11
250.5371950515976
 21
-16.51329400887756
 31
0.0
  0
LINE
  5
2D9
330
1F
100
AcDbEntity
  8
0
100
AcDbLine
 10
256.332750009332
 20
-20.96037973826244
 30
0.0
 11
256.5371950515976
 21
-22.51329400887755
 31
0.0
  0
LINE
  5
2DA
330
1F
100
AcDbEntity
  8
0
100
AcDbLine
 10
255.7333474743042
 20
-19.5132940088776
 30
0.0
 11
256.332750009332
 21
-20.96037973826244
 31
0.0
  0
LINE
  5
2DB
330
1F
100
AcDbEntity
  8
0
100
AcDbLine
 10
252.304962004564
 20
-24.28106096184395
 30
0.0
 11
251.7871950515976
 21
-24.67835751833861
 31
0.0
  0
LINE
  5
2DC
330
1F
100
AcDbEntity
  8
0
100
AcDbLine
 10
252.9520096173203
 20
-21.86624639612122
 30
0.0
 11
253.0371950515976
 21
-22.51329400887755
 31
0.0
  0
LINE
  5
2DD
330
1F
100
AcDbEntity
  8
0
100
AcDbLine
 10
252.304962004564
 20
-20.74552705591116
 30
0.0
 11
252.7022585610587
 21
-21.26329400887757
 31
0.0
  0
LINE
  5
2DE
330
1F
100
AcDbEntity
  8
0
100
AcDbLine
 10
251.7871950515976
 20
-20.34823049941649
 30
0.0
 11
252.304962004564
 21
-20.74552705591116
 31
0.0
  0
LINE
  5
2DF
330
1F
100
AcDbEntity
  8
0
100
AcDbLine
 10
252.0901093222127
 20
-16.71773905114314
 30
0.0
 11
253.5371950515976
 21
-17.31714158617095
 31
0.0
  0
LINE
  5
2E0
330
1F
100
AcDbEntity
  8
0
100
AcDbLine
 10
250.8596111007216
 20
-5.182155749172362
 30
0.0
 11
251.5066587134779
 21
-5.267341183449695
 31
0.0
  0
LINE
  5
2E1
330
1F
100
AcDbEntity
  8
0
100
AcDbLine
 10
248.6945475912605
 20
-6.432155749172439
 30
0.0
 11
249.0918441477552
 21
-5.91438879620603
 31
0.0
  0
LINE
  5
2E2
330
1F
100
AcDbEntity
  8
0
100
AcDbLine
 10
249.6096111007216
 20
-5.517092239711364
 30
0.0
 11
250.2125634879652
 21
-5.267341183449695
 31
0.0
  0
LINE
  5
2E3
330
1F
100
AcDbEntity
  8
0
100
AcDbLine
 10
250.2125634879652
 20
-5.267341183449695
 30
0.0
 11
250.8596111007216
 21
-5.182155749172362
 31
0.0
  0
LINE
  5
2E4
330
1F
100
AcDbEntity
  8
0
100
AcDbLine
 10
248.3596111007216
 20
-7.682155749172426
 30
0.0
 11
248.4447965349989
 21
-7.035108136416091
 31
0.0
  0
LINE
  5
2E5
330
1F
100
AcDbEntity
  8
0
100
AcDbLine
 10
251.5066587134779
 20
-10.09697031489516
 30
0.0
 11
250.8596111007216
 21
-10.18215574917249
 31
0.0
  0
LINE
  5
2E6
330
1F
100
AcDbEntity
  8
0
100
AcDbLine
 10
249.6096111007216
 20
-9.847219258633487
 30
0.0
 11
249.0918441477552
 21
-9.44992270213882
 31
0.0
  0
LINE
  5
2E7
330
1F
100
AcDbEntity
  8
0
100
AcDbLine
 10
250.8596111007216
 20
-10.18215574917249
 30
0.0
 11
250.2125634879653
 21
-10.09697031489516
 31
0.0
  0
LINE
  5
2E8
330
1F
100
AcDbEntity
  8
0
100
AcDbLine
 10
248.4447965349989
 20
-7.035108136416091
 30
0.0
 11
248.6945475912605
 21
-6.432155749172439
 31
0.0
  0
LINE
  5
2E9
330
1F
100
AcDbEntity
  8
0
100
AcDbLine
 10
249.0918441477552
 20
-9.44992270213882
 30
0.0
 11
248.6945475912605
 21
-8.932155749172413
 31
0.0
  0
LINE
  5
2EA
330
1F
100
AcDbEntity
  8
0
100
AcDbLine
 10
249.0918441477552
 20
-5.91438879620603
 30
0.0
 11
249.6096111007216
 21
-5.517092239711364
 31
0.0
  0
LINE
  5
2EB
330
1F
100
AcDbEntity
  8
0
100
AcDbLine
 10
248.4447965349989
 20
-8.32920336192876
 30
0.0
 11
248.3596111007216
 21
-7.682155749172426
 31
0.0
  0
LINE
  5
2EC
330
1F
100
AcDbEntity
  8
0
100
AcDbLine
 10
250.2125634879653
 20
-10.09697031489516
 30
0.0
 11
249.6096111007216
 21
-9.847219258633487
 31
0.0
  0
LINE
  5
2ED
330
1F
100
AcDbEntity
  8
0
100
AcDbLine
 10
252.1096111007216
 20
-9.847219258633487
 30
0.0
 11
251.5066587134779
 21
-10.09697031489516
 31
0.0
  0
LINE
  5
2EE
330
1F
100
AcDbEntity
  8
0
100
AcDbLine
 10
253.0246746101827
 20
-6.432155749172439
 30
0.0
 11
253.2744256664443
 21
-7.035108136416091
 31
0.0
  0
LINE
  5
2EF
330
1F
100
AcDbEntity
  8
0
100
AcDbLine
 10
249.3066968301065
 20
-13.47771070690684
 30
0.0
 11
247.8596111007216
 21
-12.87830817187903
 31
0.0
  0
LINE
  5
2F0
330
1F
100
AcDbEntity
  8
0
100
AcDbLine
 10
253.8596111007216
 20
-2.486003326465824
 30
0.0
 11
255.1022517878409
 21
-3.43951506205313
 31
0.0
  0
LINE
  5
2F1
330
1F
100
AcDbEntity
  8
0
100
AcDbLine
 10
245.0640561429872
 20
-6.129241478557311
 30
0.0
 11
245.663458678015
 21
-4.682155749172477
 31
0.0
  0
LINE
  5
2F2
330
1F
100
AcDbEntity
  8
0
100
AcDbLine
 10
250.8596111007216
 20
-13.68215574917241
 30
0.0
 11
249.3066968301065
 21
-13.47771070690684
 31
0.0
  0
LINE
  5
2F3
330
1F
100
AcDbEntity
  8
0
100
AcDbLine
 10
252.4125253713367
 20
-13.47771070690684
 30
0.0
 11
250.8596111007216
 21
-13.68215574917241
 31
0.0
  0
LINE
  5
2F4
330
1F
100
AcDbEntity
  8
0
100
AcDbLine
 10
247.8596111007216
 20
-2.486003326465824
 30
0.0
 11
249.3066968301065
 21
-1.886600791438016
 31
0.0
  0
LINE
  5
2F5
330
1F
100
AcDbEntity
  8
0
100
AcDbLine
 10
247.8596111007216
 20
-12.87830817187903
 30
0.0
 11
246.6169704136023
 21
-11.92479643629172
 31
0.0
  0
LINE
  5
2F6
330
1F
100
AcDbEntity
  8
0
100
AcDbLine
 10
255.1022517878409
 20
-11.92479643629172
 30
0.0
 11
253.8596111007216
 21
-12.87830817187903
 31
0.0
  0
LINE
  5
2F7
330
1F
100
AcDbEntity
  8
0
100
AcDbLine
 10
256.655166058456
 20
-9.235070019787539
 30
0.0
 11
256.0557635234282
 21
-10.68215574917238
 31
0.0
  0
LINE
  5
2F8
330
1F
100
AcDbEntity
  8
0
100
AcDbLine
 10
248.6945475912605
 20
-8.932155749172413
 30
0.0
 11
248.4447965349989
 21
-8.32920336192876
 31
0.0
  0
LINE
  5
2F9
330
1F
100
AcDbEntity
  8
0
100
AcDbLine
 10
245.0640561429872
 20
-9.235070019787539
 30
0.0
 11
244.8596111007216
 21
-7.682155749172426
 31
0.0
  0
LINE
  5
2FA
330
1F
100
AcDbEntity
  8
0
100
AcDbLine
 10
253.8596111007216
 20
-12.87830817187903
 30
0.0
 11
252.4125253713367
 21
-13.47771070690684
 31
0.0
  0
LINE
  5
2FB
330
1F
100
AcDbEntity
  8
0
100
AcDbLine
 10
253.2744256664443
 20
-8.32920336192876
 30
0.0
 11
253.0246746101827
 21
-8.932155749172413
 31
0.0
  0
LINE
  5
2FC
330
1F
100
AcDbEntity
  8
0
100
AcDbLine
 10
255.1022517878409
 20
-3.43951506205313
 30
0.0
 11
256.0557635234282
 21
-4.682155749172477
 31
0.0
  0
LINE
  5
2FD
330
1F
100
AcDbEntity
  8
0
100
AcDbLine
 10
251.5066587134779
 20
-5.267341183449695
 30
0.0
 11
252.1096111007216
 21
-5.517092239711364
 31
0.0
  0
LINE
  5
2FE
330
1F
100
AcDbEntity
  8
0
100
AcDbLine
 10
245.663458678015
 20
-4.682155749172477
 30
0.0
 11
246.6169704136023
 21
-3.43951506205313
 31
0.0
  0
LINE
  5
2FF
330
1F
100
AcDbEntity
  8
0
100
AcDbLine
 10
246.6169704136023
 20
-11.92479643629172
 30
0.0
 11
245.663458678015
 21
-10.68215574917238
 31
0.0
  0
LINE
  5
300
330
1F
100
AcDbEntity
  8
0
100
AcDbLine
 10
245.663458678015
 20
-10.68215574917238
 30
0.0
 11
245.0640561429872
 21
-9.235070019787539
 31
0.0
  0
LINE
  5
301
330
1F
100
AcDbEntity
  8
0
100
AcDbLine
 10
253.3596111007216
 20
-7.682155749172426
 30
0.0
 11
253.2744256664443
 21
-8.32920336192876
 31
0.0
  0
LINE
  5
302
330
1F
100
AcDbEntity
  8
0
100
AcDbLine
 10
246.6169704136023
 20
-3.43951506205313
 30
0.0
 11
247.8596111007216
 21
-2.486003326465824
 31
0.0
  0
LINE
  5
303
330
1F
100
AcDbEntity
  8
0
100
AcDbLine
 10
244.8596111007216
 20
-7.682155749172426
 30
0.0
 11
245.0640561429872
 21
-6.129241478557311
 31
0.0
  0
LINE
  5
304
330
1F
100
AcDbEntity
  8
0
100
AcDbLine
 10
256.0557635234282
 20
-10.68215574917238
 30
0.0
 11
255.1022517878409
 21
-11.92479643629172
 31
0.0
  0
LINE
  5
305
330
1F
100
AcDbEntity
  8
0
100
AcDbLine
 10
256.8596111007216
 20
-7.682155749172426
 30
0.0
 11
256.655166058456
 21
-9.235070019787539
 31
0.0
  0
LINE
  5
306
330
1F
100
AcDbEntity
  8
0
100
AcDbLine
 10
253.0246746101827
 20
-8.932155749172413
 30
0.0
 11
252.627378053688
 21
-9.44992270213882
 31
0.0
  0
LINE
  5
307
330
1F
100
AcDbEntity
  8
0
100
AcDbLine
 10
250.8596111007216
 20
-1.682155749172437
 30
0.0
 11
252.4125253713367
 21
-1.886600791438016
 31
0.0
  0
LINE
  5
308
330
1F
100
AcDbEntity
  8
0
100
AcDbLine
 10
249.3066968301065
 20
-1.886600791438016
 30
0.0
 11
250.8596111007216
 21
-1.682155749172437
 31
0.0
  0
LINE
  5
309
330
1F
100
AcDbEntity
  8
0
100
AcDbLine
 10
256.655166058456
 20
-6.129241478557311
 30
0.0
 11
256.8596111007216
 21
-7.682155749172426
 31
0.0
  0
LINE
  5
30A
330
1F
100
AcDbEntity
  8
0
100
AcDbLine
 10
256.0557635234282
 20
-4.682155749172477
 30
0.0
 11
256.655166058456
 21
-6.129241478557311
 31
0.0
  0
LINE
  5
30B
330
1F
100
AcDbEntity
  8
0
100
AcDbLine
 10
252.627378053688
 20
-9.44992270213882
 30
0.0
 11
252.1096111007216
 21
-9.847219258633487
 31
0.0
  0
LINE
  5
30C
330
1F
100
AcDbEntity
  8
0
100
AcDbLine
 10
253.2744256664443
 20
-7.035108136416091
 30
0.0
 11
253.3596111007216
 21
-7.682155749172426
 31
0.0
  0
LINE
  5
30D
330
1F
100
AcDbEntity
  8
0
100
AcDbLine
 10
252.627378053688
 20
-5.91438879620603
 30
0.0
 11
253.0246746101827
 21
-6.432155749172439
 31
0.0
  0
LINE
  5
30E
330
1F
100
AcDbEntity
  8
0
100
AcDbLine
 10
252.1096111007216
 20
-5.517092239711364
 30
0.0
 11
252.627378053688
 21
-5.91438879620603
 31
0.0
  0
LINE
  5
30F
330
1F
100
AcDbEntity
  8
0
100
AcDbLine
 10
252.4125253713367
 20
-1.886600791438016
 30
0.0
 11
253.8596111007216
 21
-2.486003326465824
 31
0.0
  0
LINE
  5
310
330
1F
100
AcDbEntity
  8
0
100
AcDbLine
 10
264.2398771393687
 20
-12.11410080533887
 30
0.0
 11
264.886924752125
 21
-12.19928623961621
 31
0.0
  0
LINE
  5
311
330
1F
100
AcDbEntity
  8
0
100
AcDbLine
 10
262.0748136299076
 20
-13.36410080533895
 30
0.0
 11
262.4721101864023
 21
-12.84633385237254
 31
0.0
  0
LINE
  5
312
330
1F
100
AcDbEntity
  8
0
100
AcDbLine
 10
262.9898771393687
 20
-12.44903729587788
 30
0.0
 11
263.5928295266124
 21
-12.19928623961621
 31
0.0
  0
LINE
  5
313
330
1F
100
AcDbEntity
  8
0
100
AcDbLine
 10
263.5928295266124
 20
-12.19928623961621
 30
0.0
 11
264.2398771393687
 21
-12.11410080533887
 31
0.0
  0
LINE
  5
314
330
1F
100
AcDbEntity
  8
0
100
AcDbLine
 10
261.7398771393687
 20
-14.61410080533894
 30
0.0
 11
261.8250625736461
 21
-13.9670531925826
 31
0.0
  0
LINE
  5
315
330
1F
100
AcDbEntity
  8
0
100
AcDbLine
 10
264.8869247521251
 20
-17.02891537106167
 30
0.0
 11
264.2398771393687
 21
-17.114100805339
 31
0.0
  0
LINE
  5
316
330
1F
100
AcDbEntity
  8
0
100
AcDbLine
 10
262.9898771393687
 20
-16.7791643148
 30
0.0
 11
262.4721101864023
 21
-16.38186775830533
 31
0.0
  0
LINE
  5
317
330
1F
100
AcDbEntity
  8
0
100
AcDbLine
 10
264.2398771393687
 20
-17.114100805339
 30
0.0
 11
263.5928295266124
 21
-17.02891537106167
 31
0.0
  0
LINE
  5
318
330
1F
100
AcDbEntity
  8
0
100
AcDbLine
 10
261.8250625736461
 20
-13.9670531925826
 30
0.0
 11
262.0748136299076
 21
-13.36410080533895
 31
0.0
  0
LINE
  5
319
330
1F
100
AcDbEntity
  8
0
100
AcDbLine
 10
262.4721101864023
 20
-16.38186775830533
 30
0.0
 11
262.0748136299076
 21
-15.86410080533892
 31
0.0
  0
LINE
  5
31A
330
1F
100
AcDbEntity
  8
0
100
AcDbLine
 10
262.4721101864023
 20
-12.84633385237254
 30
0.0
 11
262.9898771393687
 21
-12.44903729587788
 31
0.0
  0
LINE
  5
31B
330
1F
100
AcDbEntity
  8
0
100
AcDbLine
 10
261.8250625736461
 20
-15.26114841809527
 30
0.0
 11
261.7398771393687
 21
-14.61410080533894
 31
0.0
  0
LINE
  5
31C
330
1F
100
AcDbEntity
  8
0
100
AcDbLine
 10
263.5928295266124
 20
-17.02891537106167
 30
0.0
 11
262.9898771393687
 21
-16.7791643148
 31
0.0
  0
LINE
  5
31D
330
1F
100
AcDbEntity
  8
0
100
AcDbLine
 10
265.4898771393687
 20
-16.7791643148
 30
0.0
 11
264.8869247521251
 21
-17.02891537106167
 31
0.0
  0
LINE
  5
31E
330
1F
100
AcDbEntity
  8
0
100
AcDbLine
 10
266.4049406488298
 20
-13.36410080533895
 30
0.0
 11
266.6546917050914
 21
-13.9670531925826
 31
0.0
  0
LINE
  5
31F
330
1F
100
AcDbEntity
  8
0
100
AcDbLine
 10
262.6869628687536
 20
-20.40965576307335
 30
0.0
 11
261.2398771393687
 21
-19.81025322804554
 31
0.0
  0
LINE
  5
320
330
1F
100
AcDbEntity
  8
0
100
AcDbLine
 10
267.2398771393687
 20
-9.417948382632336
 30
0.0
 11
268.482517826488
 21
-10.37146011821964
 31
0.0
  0
LINE
  5
321
330
1F
100
AcDbEntity
  8
0
100
AcDbLine
 10
258.4443221816343
 20
-13.06118653472382
 30
0.0
 11
259.0437247166622
 21
-11.61410080533899
 31
0.0
  0
LINE
  5
322
330
1F
100
AcDbEntity
  8
0
100
AcDbLine
 10
264.2398771393687
 20
-20.61410080533892
 30
0.0
 11
262.6869628687536
 21
-20.40965576307335
 31
0.0
  0
LINE
  5
323
330
1F
100
AcDbEntity
  8
0
100
AcDbLine
 10
265.7927914099839
 20
-20.40965576307335
 30
0.0
 11
264.2398771393687
 21
-20.61410080533892
 31
0.0
  0
LINE
  5
324
330
1F
100
AcDbEntity
  8
0
100
AcDbLine
 10
261.2398771393687
 20
-9.417948382632336
 30
0.0
 11
262.6869628687536
 21
-8.818545847604527
 31
0.0
  0
LINE
  5
325
330
1F
100
AcDbEntity
  8
0
100
AcDbLine
 10
261.2398771393687
 20
-19.81025322804554
 30
0.0
 11
259.9972364522495
 21
-18.85674149245823
 31
0.0
  0
LINE
  5
326
330
1F
100
AcDbEntity
  8
0
100
AcDbLine
 10
268.482517826488
 20
-18.85674149245823
 30
0.0
 11
267.2398771393687
 21
-19.81025322804554
 31
0.0
  0
LINE
  5
327
330
1F
100
AcDbEntity
  8
0
100
AcDbLine
 10
270.0354320971031
 20
-16.16701507595405
 30
0.0
 11
269.4360295620754
 21
-17.61410080533889
 31
0.0
  0
LINE
  5
328
330
1F
100
AcDbEntity
  8
0
100
AcDbLine
 10
262.0748136299076
 20
-15.86410080533892
 30
0.0
 11
261.8250625736461
 21
-15.26114841809527
 31
0.0
  0
LINE
  5
329
330
1F
100
AcDbEntity
  8
0
100
AcDbLine
 10
258.4443221816343
 20
-16.16701507595405
 30
0.0
 11
258.2398771393687
 21
-14.61410080533894
 31
0.0
  0
LINE
  5
32A
330
1F
100
AcDbEntity
  8
0
100
AcDbLine
 10
267.2398771393687
 20
-19.81025322804554
 30
0.0
 11
265.7927914099839
 21
-20.40965576307335
 31
0.0
  0
LINE
  5
32B
330
1F
100
AcDbEntity
  8
0
100
AcDbLine
 10
266.6546917050914
 20
-15.26114841809527
 30
0.0
 11
266.4049406488298
 21
-15.86410080533892
 31
0.0
  0
LINE
  5
32C
330
1F
100
AcDbEntity
  8
0
100
AcDbLine
 10
268.482517826488
 20
-10.37146011821964
 30
0.0
 11
269.4360295620754
 21
-11.61410080533899
 31
0.0
  0
LINE
  5
32D
330
1F
100
AcDbEntity
  8
0
100
AcDbLine
 10
264.886924752125
 20
-12.19928623961621
 30
0.0
 11
265.4898771393687
 21
-12.44903729587788
 31
0.0
  0
LINE
  5
32E
330
1F
100
AcDbEntity
  8
0
100
AcDbLine
 10
259.0437247166622
 20
-11.61410080533899
 30
0.0
 11
259.9972364522495
 21
-10.37146011821964
 31
0.0
  0
LINE
  5
32F
330
1F
100
AcDbEntity
  8
0
100
AcDbLine
 10
259.9972364522495
 20
-18.85674149245823
 30
0.0
 11
259.0437247166622
 21
-17.61410080533889
 31
0.0
  0
LINE
  5
330
330
1F
100
AcDbEntity
  8
0
100
AcDbLine
 10
259.0437247166622
 20
-17.61410080533889
 30
0.0
 11
258.4443221816343
 21
-16.16701507595405
 31
0.0
  0
LINE
  5
331
330
1F
100
AcDbEntity
  8
0
100
AcDbLine
 10
266.7398771393687
 20
-14.61410080533894
 30
0.0
 11
266.6546917050914
 21
-15.26114841809527
 31
0.0
  0
LINE
  5
332
330
1F
100
AcDbEntity
  8
0
100
AcDbLine
 10
259.9972364522495
 20
-10.37146011821964
 30
0.0
 11
261.2398771393687
 21
-9.417948382632336
 31
0.0
  0
LINE
  5
333
330
1F
100
AcDbEntity
  8
0
100
AcDbLine
 10
258.2398771393687
 20
-14.61410080533894
 30
0.0
 11
258.4443221816343
 21
-13.06118653472382
 31
0.0
  0
LINE
  5
334
330
1F
100
AcDbEntity
  8
0
100
AcDbLine
 10
269.4360295620754
 20
-17.61410080533889
 30
0.0
 11
268.482517826488
 21
-18.85674149245823
 31
0.0
  0
LINE
  5
335
330
1F
100
AcDbEntity
  8
0
100
AcDbLine
 10
270.2398771393687
 20
-14.61410080533894
 30
0.0
 11
270.0354320971031
 21
-16.16701507595405
 31
0.0
  0
LINE
  5
336
330
1F
100
AcDbEntity
  8
0
100
AcDbLine
 10
266.4049406488298
 20
-15.86410080533892
 30
0.0
 11
266.0076440923351
 21
-16.38186775830533
 31
0.0
  0
LINE
  5
337
330
1F
100
AcDbEntity
  8
0
100
AcDbLine
 10
264.2398771393687
 20
-8.614100805338948
 30
0.0
 11
265.7927914099839
 21
-8.818545847604527
 31
0.0
  0
LINE
  5
338
330
1F
100
AcDbEntity
  8
0
100
AcDbLine
 10
262.6869628687536
 20
-8.818545847604527
 30
0.0
 11
264.2398771393687
 21
-8.614100805338948
 31
0.0
  0
LINE
  5
339
330
1F
100
AcDbEntity
  8
0
100
AcDbLine
 10
270.0354320971031
 20
-13.06118653472382
 30
0.0
 11
270.2398771393687
 21
-14.61410080533894
 31
0.0
  0
LINE
  5
33A
330
1F
100
AcDbEntity
  8
0
100
AcDbLine
 10
269.4360295620754
 20
-11.61410080533899
 30
0.0
 11
270.0354320971031
 21
-13.06118653472382
 31
0.0
  0
LINE
  5
33B
330
1F
100
AcDbEntity
  8
0
100
AcDbLine
 10
266.0076440923351
 20
-16.38186775830533
 30
0.0
 11
265.4898771393687
 21
-16.7791643148
 31
0.0
  0
LINE
  5
33C
330
1F
100
AcDbEntity
  8
0
100
AcDbLine
 10
266.6546917050914
 20
-13.9670531925826
 30
0.0
 11
266.7398771393687
 21
-14.61410080533894
 31
0.0
  0
LINE
  5
33D
330
1F
100
AcDbEntity
  8
0
100
AcDbLine
 10
266.0076440923351
 20
-12.84633385237254
 30
0.0
 11
266.4049406488298
 21
-13.36410080533895
 31
0.0
  0
LINE
  5
33E
330
1F
100
AcDbEntity
  8
0
100
AcDbLine
 10
265.4898771393687
 20
-12.44903729587788
 30
0.0
 11
266.0076440923351
 21
-12.84633385237254
 31
0.0
  0
LINE
  5
33F
330
1F
100
AcDbEntity
  8
0
100
AcDbLine
 10
265.7927914099839
 20
-8.818545847604527
 30
0.0
 11
267.2398771393687
 21
-9.417948382632336
 31
0.0
  0
ENDSEC
  0
SECTION
  2
OBJECTS
  0
DICTIONARY
  5
C
330
0
100
AcDbDictionary
  3
ACAD_GROUP
350
D
  3
ACAD_LAYOUT
350
1A
  3
ACAD_MATERIAL
350
3B
  3
ACAD_MLEADERSTYLE
350
362
  3
ACAD_MLINESTYLE
350
17
  3
ACAD_PLOTSETTINGS
350
19
  3
ACAD_VISUALSTYLE
350
2A
  3
ACDBHEADERROUNDTRIPXREC
350
340
  3
ACDBVARIABLEDICTIONARY
350
360
  0
DICTIONARY
  5
D
102
{ACAD_REACTORS
330
C
102
}
330
C
100
AcDbDictionary
  0
DICTIONARY
  5
1A
102
{ACAD_REACTORS
330
C
102
}
330
C
100
AcDbDictionary
  0
DICTIONARY
  5
3B
102
{ACAD_REACTORS
330
C
102
}
330
C
100
AcDbDictionary
  3
BYBLOCK
350
3D
  3
BYLAYER
350
3C
  3
GLOBAL
350
3E
  0
DICTIONARY
  5
362
102
{ACAD_REACTORS
330
C
102
}
330
C
100
AcDbDictionary
  0
DICTIONARY
  5
17
102
{ACAD_REACTORS
330
C
102
}
330
C
100
AcDbDictionary
  3
STANDARD
350
18
  0
DICTIONARY
  5
19
102
{ACAD_REACTORS
330
C
102
}
330
C
100
AcDbDictionary
  0
DICTIONARY
  5
2A
102
{ACAD_REACTORS
330
C
102
}
330
C
100
AcDbDictionary
  3
2DWIREFRAME
350
2F
  3
3D_HIDDEN
350
31
  3
3DWIREFRAME
350
30
  3
BASIC
350
32
  3
BRIGHTEN
350
36
  3
COLORCHANGE
350
3A
  3
CONCEPTUAL
350
34
  3
DIM
350
35
  3
FACEPATTERN
350
39
  3
FLAT
350
2B
  3
FLATWITHEDGES
350
2C
  3
GOURAUD
350
2D
  3
GOURAUDWITHEDGES
350
2E
  3
LINEPATTERN
350
38
  3
REALISTIC
350
33
  3
THICKEN
350
37
  0
DICTIONARY
  5
340
102
{ACAD_REACTORS
330
C
102
}
330
C
100
AcDbDictionary
  3
CEPSNTYPE
350
349
  3
DIMSTYLEDATA
350
35F
  3
FINGERPRINTGUID
350
34A
  3
HYPERLINKBASE
350
343
  3
INSUNITS
350
348
  3
LAYOUTDICT
350
345
  3
LWETCUNION
350
347
  3
PLOTSETDICT
350
346
  3
PSVPSCALE
350
34C
  3
PUCSBASE
350
34F
  3
PUCSORGBACK
350
355
  3
PUCSORGBOTTOM
350
351
  3
PUCSORGFRONT
350
354
  3
PUCSORGLEFT
350
352
  3
PUCSORGRIGHT
350
353
  3
PUCSORGTOP
350
350
  3
PUCSORTHOREF
350
34D
  3
PUCSORTHOVIEW
350
34E
  3
STYLESHEET
350
344
  3
TSTACKALIGN
350
341
  3
TSTACKSIZE
350
342
  3
UCSBASE
350
358
  3
UCSORGBACK
350
35E
  3
UCSORGBOTTOM
350
35A
  3
UCSORGFRONT
350
35D
  3
UCSORGLEFT
350
35B
  3
UCSORGRIGHT
350
35C
  3
UCSORGTOP
350
359
  3
UCSORTHOREF
350
356
  3
UCSORTHOVIEW
350
357
  3
VERSIONGUID
350
34B
  0
DICTIONARY
  5
360
102
{ACAD_REACTORS
330
C
102
}
330
C
100
AcDbDictionary
  3
DIMASSOC
350
363
  3
HIDETEXT
350
364
  0
MATERIAL
  5
3D
102
{ACAD_REACTORS
330
3B
102
}
102
{ACAD_XDICTIONARY
360
367
102
}
330
3B
100
AcDbMaterial
  1
ByBlock
  0
MATERIAL
  5
3C
102
{ACAD_REACTORS
330
3B
102
}
102
{ACAD_XDICTIONARY
360
365
102
}
330
3B
100
AcDbMaterial
  1
ByLayer
  0
MATERIAL
  5
3E
102
{ACAD_REACTORS
330
3B
102
}
102
{ACAD_XDICTIONARY
360
369
102
}
330
3B
100
AcDbMaterial
  1
Global
  0
MLINESTYLE
  5
18
102
{ACAD_REACTORS
330
17
102
}
330
17
100
AcDbMlineStyle
  2
Standard
 70
     0
  3

 62
   256
 51
90.0
 52
90.0
 71
     2
 49
0.5
 62
   256
  6
BYLAYER
 49
-0.5
 62
   256
  6
BYLAYER
  0
ACAD_PROXY_OBJECT
  5
2F
102
{ACAD_REACTORS
330
2A
102
}
330
2A
100
AcDbProxyObject
 90
      499
 91
      501
 93
      436
310
42CC9915DA5C99599C985B595049028333333333333E3BF0000000000000FB0107901411070040501600405405064090741402480A0340
1001
ACAD
1000
AcDbSavedByObjectVersion
1070
     0
  0
ACAD_PROXY_OBJECT
  5
31
102
{ACAD_REACTORS
330
2A
102
}
330
2A
100
AcDbProxyObject
 90
      499
 91
      501
 93
      500
310
424CD108121A5919195B90640502408333333333333E3BF0000000000000FB01079024090700405020000000000001110200405405064090740C02480A0340
1001
ACAD
1000
AcDbSavedByObjectVersion
1070
     0
  0
ACAD_PROXY_OBJECT
  5
30
102
{ACAD_REACTORS
330
2A
102
}
330
2A
100
AcDbProxyObject
 90
      499
 91
      501
 93
      436
310
42CCD915DA5C99599C985B595059028333333333333E3BF0000000000000FB0107901411070040501600405405064090741402480A0340
1001
ACAD
1000
AcDbSavedByObjectVersion
1070
     0
  0
ACAD_PROXY_OBJECT
  5
32
102
{ACAD_REACTORS
330
2A
102
}
330
2A
100
AcDbProxyObject
 90
      499
 91
      501
 93
      388
310
4150985CDA58D07406404333333333333E3BF0000000000000FB0107A41107004050150841D405064090741402480A0350
1001
ACAD
1000
AcDbSavedByObjectVersion
1070
     0
  0
ACAD_PROXY_OBJECT
  5
36
102
{ACAD_REACTORS
330
2A
102
}
330
2A
100
AcDbProxyObject
 90
      499
 91
      501
 93
      428
310
42109C9A59DA1D195B90C409028333333333333E3BF0000000000000FB010790141107004050150841D405064090741402480A029950
1001
ACAD
1000
AcDbSavedByObjectVersion
1070
     0
  0
ACAD_PROXY_OBJECT
  5
3A
102
{ACAD_REACTORS
330
2A
102
}
330
2A
100
AcDbProxyObject
 90
      499
 91
      501
 93
      452
310
42D0DBDB1BDC90DA185B99D95104090240C333333333333E3BF0000000000000FB0108901411070040501508421405064090741402480A0350
1001
ACAD
1000
AcDbSavedByObjectVersion
1070
     0
  0
ACAD_PROXY_OBJECT
  5
34
102
{ACAD_REACTORS
330
2A
102
}
330
2A
100
AcDbProxyObject
 90
      499
 91
      501
 93
      500
310
4290DBDB98D95C1D1D585B10940D028333333333333E3BF0000000000000FB0107902409070040501000000000000111010841D405064090740C02480A0340
1001
ACAD
1000
AcDbSavedByObjectVersion
1070
     0
  0
ACAD_PROXY_OBJECT
  5
35
102
{ACAD_REACTORS
330
2A
102
}
330
2A
100
AcDbProxyObject
 90
      499
 91
      501
 93
      412
310
40D11A5B50B409028333333333333E3BF0000000000000FB010790141107004050150841D405064090741402480A02677FFFFFD0
1001
ACAD
1000
AcDbSavedByObjectVersion
1070
     0
  0
ACAD_PROXY_OBJECT
  5
39
102
{ACAD_REACTORS
330
2A
102
}
330
2A
100
AcDbProxyObject
 90
      499
 91
      501
 93
      444
310
42D19858D95C185D1D195C9B90F409028333333333333E3BF0000000000000FB010790141107004050150841D405064090741402480A0350
1001
ACAD
1000
AcDbSavedByObjectVersion
1070
     0
  0
ACAD_PROXY_OBJECT
  5
2B
102
{ACAD_REACTORS
330
2A
102
}
330
2A
100
AcDbProxyObject
 90
      499
 91
      501
 93
      388
310
41119B185D240901404333333333333E3BF0000000000000F9010740A41107004050150841D405064090741402480A1B50
1001
ACAD
1000
AcDbSavedByObjectVersion
1070
     0
  0
ACAD_PROXY_OBJECT
  5
2C
102
{ACAD_REACTORS
330
2A
102
}
330
2A
100
AcDbProxyObject
 90
      499
 91
      501
 93
      476
310
43519B185D15DA5D1A115919D95CD0140901404333333333333E3BF0000000000000F9010740901411070040501600405405064090741402480A1B50
1001
ACAD
1000
AcDbSavedByObjectVersion
1070
     0
  0
ACAD_PROXY_OBJECT
  5
2D
102
{ACAD_REACTORS
330
2A
102
}
330
2A
100
AcDbProxyObject
 90
      499
 91
      501
 93
      412
310
41D1DBDD5C985D5910240902404333333333333E3BF0000000000000F9010740A411070040501641D405064090741402480A1B50
1001
ACAD
1000
AcDbSavedByObjectVersion
1070
     0
  0
ACAD_PROXY_OBJECT
  5
2E
102
{ACAD_REACTORS
330
2A
102
}
330
2A
100
AcDbProxyObject
 90
      499
 91
      501
 93
      500
310
4411DBDD5C985D5915DA5D1A115919D95CD0340902404333333333333E3BF0000000000000F9010740901411070040501600405405064090741402480A1B50
1001
ACAD
1000
AcDbSavedByObjectVersion
1070
     0
  0
ACAD_PROXY_OBJECT
  5
38
102
{ACAD_REACTORS
330
2A
102
}
330
2A
100
AcDbProxyObject
 90
      499
 91
      501
 93
      444
310
42D31A5B995C185D1D195C9B90E409028333333333333E3BF0000000000000FB010790141107004050750841D405064090741402483A0350
1001
ACAD
1000
AcDbSavedByObjectVersion
1070
     0
  0
ACAD_PROXY_OBJECT
  5
33
102
{ACAD_REACTORS
330
2A
102
}
330
2A
100
AcDbProxyObject
 90
      499
 91
      501
 93
      420
310
425499585B1A5CDD1A58D08409028333333333333E3BF0000000000000FB01079019070040501508421405064090741402480A1B40
1001
ACAD
1000
AcDbSavedByObjectVersion
1070
     0
  0
ACAD_PROXY_OBJECT
  5
37
102
{ACAD_REACTORS
330
2A
102
}
330
2A
100
AcDbProxyObject
 90
      499
 91
      501
 93
      412
310
41D51A1A58DAD95B90D409028333333333333E3BF0000000000000FB010790141107004050150C41D405064090741402480A0350
1001
ACAD
1000
AcDbSavedByObjectVersion
1070
     0
  0
XRECORD
  5
349
102
{ACAD_REACTORS
330
340
102
}
330
340
100
AcDbXrecord
 90
        0
  0
XRECORD
  5
35F
102
{ACAD_REACTORS
330
340
102
}
330
340
100
AcDbXrecord
1000
DSTYLE
1002
{
1070
   340
340
11
1002
}
  0
XRECORD
  5
34A
102
{ACAD_REACTORS
330
340
102
}
330
340
100
AcDbXrecord
  1
{EC83AA43-9817-4B02-AB1E-FFFAB9E4BE60}
  0
XRECORD
  5
343
102
{ACAD_REACTORS
330
340
102
}
330
340
100
AcDbXrecord
  1

  0
XRECORD
  5
348
102
{ACAD_REACTORS
330
340
102
}
330
340
100
AcDbXrecord
 90
        1
  0
XRECORD
  5
345
102
{ACAD_REACTORS
330
340
102
}
330
340
100
AcDbXrecord
340
1A
  0
XRECORD
  5
347
102
{ACAD_REACTORS
330
340
102
}
330
340
100
AcDbXrecord
 90
    10781
  0
XRECORD
  5
346
102
{ACAD_REACTORS
330
340
102
}
330
340
100
AcDbXrecord
340
19
  0
XRECORD
  5
34C
102
{ACAD_REACTORS
330
340
102
}
330
340
100
AcDbXrecord
 40
0.0
  0
XRECORD
  5
34F
102
{ACAD_REACTORS
330
340
102
}
330
340
100
AcDbXrecord
340
0
  0
XRECORD
  5
355
102
{ACAD_REACTORS
330
340
102
}
330
340
100
AcDbXrecord
 10
0.0
 20
0.0
 30
0.0
  0
XRECORD
  5
351
102
{ACAD_REACTORS
330
340
102
}
330
340
100
AcDbXrecord
 10
0.0
 20
0.0
 30
0.0
  0
XRECORD
  5
354
102
{ACAD_REACTORS
330
340
102
}
330
340
100
AcDbXrecord
 10
0.0
 20
0.0
 30
0.0
  0
XRECORD
  5
352
102
{ACAD_REACTORS
330
340
102
}
330
340
100
AcDbXrecord
 10
0.0
 20
0.0
 30
0.0
  0
XRECORD
  5
353
102
{ACAD_REACTORS
330
340
102
}
330
340
100
AcDbXrecord
 10
0.0
 20
0.0
 30
0.0
  0
XRECORD
  5
350
102
{ACAD_REACTORS
330
340
102
}
330
340
100
AcDbXrecord
 10
0.0
 20
0.0
 30
0.0
  0
XRECORD
  5
34D
102
{ACAD_REACTORS
330
340
102
}
330
340
100
AcDbXrecord
340
0
  0
XRECORD
  5
34E
102
{ACAD_REACTORS
330
340
102
}
330
340
100
AcDbXrecord
 70
     0
  0
XRECORD
  5
344
102
{ACAD_REACTORS
330
340
102
}
330
340
100
AcDbXrecord
  1

  0
XRECORD
  5
341
102
{ACAD_REACTORS
330
340
102
}
330
340
100
AcDbXrecord
 90
        1
  0
XRECORD
  5
342
102
{ACAD_REACTORS
330
340
102
}
330
340
100
AcDbXrecord
 90
       70
  0
XRECORD
  5
358
102
{ACAD_REACTORS
330
340
102
}
330
340
100
AcDbXrecord
340
0
  0
XRECORD
  5
35E
102
{ACAD_REACTORS
330
340
102
}
330
340
100
AcDbXrecord
 10
0.0
 20
0.0
 30
0.0
  0
XRECORD
  5
35A
102
{ACAD_REACTORS
330
340
102
}
330
340
100
AcDbXrecord
 10
0.0
 20
0.0
 30
0.0
  0
XRECORD
  5
35D
102
{ACAD_REACTORS
330
340
102
}
330
340
100
AcDbXrecord
 10
0.0
 20
0.0
 30
0.0
  0
XRECORD
  5
35B
102
{ACAD_REACTORS
330
340
102
}
330
340
100
AcDbXrecord
 10
0.0
 20
0.0
 30
0.0
  0
XRECORD
  5
35C
102
{ACAD_REACTORS
330
340
102
}
330
340
100
AcDbXrecord
 10
0.0
 20
0.0
 30
0.0
  0
XRECORD
  5
359
102
{ACAD_REACTORS
330
340
102
}
330
340
100
AcDbXrecord
 10
0.0
 20
0.0
 30
0.0
  0
XRECORD
  5
356
102
{ACAD_REACTORS
330
340
102
}
330
340
100
AcDbXrecord
340
0
  0
XRECORD
  5
357
102
{ACAD_REACTORS
330
340
102
}
330
340
100
AcDbXrecord
 70
     0
  0
XRECORD
  5
34B
102
{ACAD_REACTORS
330
340
102
}
330
340
100
AcDbXrecord
  1
{FAEB1C32-E019-11D5-929B-00C0DF256EC4}
  0
DICTIONARYVAR
  5
363
102
{ACAD_REACTORS
330
360
102
}
330
360
100
DictionaryVariables
280
     0
  1
2
  0
DICTIONARYVAR
  5
364
102
{ACAD_REACTORS
330
360
102
}
330
360
100
DictionaryVariables
280
     0
  1
1
  0
DICTIONARY
  5
367
330
3D
100
AcDbDictionary
280
     1
  3
ACAD_XREC_ROUNDTRIP
360
368
  0
DICTIONARY
  5
365
330
3C
100
AcDbDictionary
280
     1
  3
ACAD_XREC_ROUNDTRIP
360
366
  0
DICTIONARY
  5
369
330
3E
100
AcDbDictionary
280
     1
  3
ACAD_XREC_ROUNDTRIP
360
36A
  0
XRECORD
  5
368
102
{ACAD_REACTORS
330
367
102
}
330
367
100
AcDbXrecord
102
MATERIAL
148
0.0
149
0.0
149
0.0
 93
        0
 94
      127
282
     0
 72
     1
 77
     1
171
     1
175
     1
179
     1
273
     0
  0
XRECORD
  5
366
102
{ACAD_REACTORS
330
365
102
}
330
365
100
AcDbXrecord
102
MATERIAL
148
0.0
149
0.0
149
0.0
 93
        0
 94
      127
282
     0
 72
     1
 77
     1
171
     1
175
     1
179
     1
273
     0
  0
XRECORD
  5
36A
102
{ACAD_REACTORS
330
369
102
}
330
369
100
AcDbXrecord
102
MATERIAL
148
0.0
149
0.0
149
0.0
 93
        0
 94
      127
282
     0
 72
     1
 77
     1
171
     1
175
     1
179
     1
273
     0
  0
ENDSEC
  0
EOF
