<?xml version="1.0" encoding="UTF-8" standalone="no"?>
<!-- Created with Inkscape (http://www.inkscape.org/) -->

<svg
   xmlns:dc="http://purl.org/dc/elements/1.1/"
   xmlns:cc="http://creativecommons.org/ns#"
   xmlns:rdf="http://www.w3.org/1999/02/22-rdf-syntax-ns#"
   xmlns:svg="http://www.w3.org/2000/svg"
   xmlns="http://www.w3.org/2000/svg"
   xmlns:sodipodi="http://sodipodi.sourceforge.net/DTD/sodipodi-0.dtd"
   xmlns:inkscape="http://www.inkscape.org/namespaces/inkscape"
   width="1000mm"
   height="600mm"
   viewBox="0 0 1000 600"
   version="1.1"
   id="svg8"
   inkscape:version="0.92.2 (5c3e80d, 2017-08-06)"
   sodipodi:docname="disque adaptateur culot.svg">
  <defs
     id="defs2" />
  <sodipodi:namedview
     id="base"
     pagecolor="#ffffff"
     bordercolor="#666666"
     borderopacity="1.0"
     inkscape:pageopacity="0.0"
     inkscape:pageshadow="2"
     inkscape:zoom="0.44099809"
     inkscape:cx="165.94287"
     inkscape:cy="589.18646"
     inkscape:document-units="mm"
     inkscape:current-layer="layer1"
     showgrid="false"
     inkscape:measure-start="276.25,618.25"
     inkscape:measure-end="391,618.25"
     inkscape:window-width="1920"
     inkscape:window-height="1001"
     inkscape:window-x="-9"
     inkscape:window-y="-9"
     inkscape:window-maximized="1" />
  <metadata
     id="metadata5">
    <rdf:RDF>
      <cc:Work
         rdf:about="">
        <dc:format>image/svg+xml</dc:format>
        <dc:type
           rdf:resource="http://purl.org/dc/dcmitype/StillImage" />
        <dc:title />
      </cc:Work>
    </rdf:RDF>
  </metadata>
  <g
     inkscape:label="Calque 1"
     inkscape:groupmode="layer"
     id="layer1"
     transform="translate(0,303)">
    <flowRoot
       xml:space="preserve"
       id="flowRoot4504"
       style="font-style:normal;font-weight:normal;font-size:40px;line-height:1.25;font-family:sans-serif;letter-spacing:0px;word-spacing:0px;fill:#000000;fill-opacity:1;stroke:none"
       transform="matrix(0.26458333,0,0,0.26458333,-9.4494048,-37.797619)"><flowRegion
         id="flowRegion4506"><rect
           id="rect4508"
           width="968.57141"
           height="260"
           x="65.714287"
           y="1302.5197" /></flowRegion><flowPara
         id="flowPara4510">6mm d'épaisseur au total</flowPara><flowPara
         id="flowPara848" /><flowPara
         id="flowPara850">plaque 4mm</flowPara><flowPara
         id="flowPara852">rondelle 2mm</flowPara></flowRoot>    <circle
       style="opacity:1;fill:#000000;fill-opacity:1;stroke:none;stroke-width:0.02816991;stroke-linejoin:miter;stroke-miterlimit:4;stroke-dasharray:none;stroke-dashoffset:0;stroke-opacity:1"
       id="path4512"
       cx="-81.837502"
       cy="19"
       r="9.75" />
    <circle
       style="opacity:1;fill:#000000;fill-opacity:1;stroke:none;stroke-width:0.2671864;stroke-linejoin:miter;stroke-miterlimit:4;stroke-dasharray:none;stroke-dashoffset:0;stroke-opacity:1"
       id="path4514"
       cx="-81.837502"
       cy="19"
       r="76.5" />
    <circle
       style="opacity:1;fill:#000000;fill-opacity:1;stroke:none;stroke-width:0.28963116;stroke-linejoin:miter;stroke-miterlimit:4;stroke-dasharray:none;stroke-dashoffset:0;stroke-opacity:1"
       id="path4516"
       cx="-81.837502"
       cy="19"
       r="78" />
    <path
       sodipodi:type="star"
       style="opacity:1;fill:#000000;fill-opacity:1;stroke:none;stroke-width:0.14072511;stroke-linejoin:miter;stroke-miterlimit:4;stroke-dasharray:none;stroke-dashoffset:0;stroke-opacity:1"
       id="path4518"
       sodipodi:sides="8"
       sodipodi:cx="467.20807"
       sodipodi:cy="145.40202"
       sodipodi:r1="58.534145"
       sodipodi:r2="78.045525"
       sodipodi:arg1="-0.52359878"
       sodipodi:arg2="-0.1308997"
       inkscape:flatsided="false"
       inkscape:rounded="1"
       inkscape:randomized="0"
       d="m 517.90013,116.13495 c 16.40259,28.41013 22.40384,-13.44445 26.68577,19.08009 4.28194,32.52453 -12.34758,-6.35065 -20.83819,25.33673 -8.49061,31.68738 25.34857,6.33525 5.37804,32.36136 -19.97054,26.0261 -4.24048,-13.22164 -32.65061,3.18095 -28.41013,16.40259 13.44445,22.40384 -19.08009,26.68578 -32.52453,4.28193 6.35065,-12.34759 -25.33673,-20.83819 -31.68738,-8.49061 -6.33525,25.34857 -32.36136,5.37803 -26.0261,-19.97053 13.22165,-4.24048 -3.18095,-32.6506 -16.40259,-28.41013 -22.40384,13.44445 -26.68578,-19.08009 -4.28193,-32.52454 12.34759,6.35064 20.8382,-25.33674 8.4906,-31.687378 -25.34857,-6.33524 -5.37804,-32.361351 19.97053,-26.026107 4.24048,13.221641 32.65061,-3.180952 28.41012,-16.402595 -13.44445,-22.403841 19.08008,-26.685778 32.52454,-4.281937 -6.35064,12.347584 25.33674,20.838192 31.68738,8.490607 6.33525,-25.348569 32.36135,-5.378036 26.02611,19.970535 -13.22164,4.240478 3.18096,32.650605 z"
       inkscape:transform-center-x="2.6802354e-005"
       inkscape:transform-center-y="-9.7933941e-006"
       transform="matrix(0.99120228,0.1225832,-0.1225832,0.99120228,-527.11136,-182.39468)" />
    <circle
       style="opacity:1;fill:#000000;fill-opacity:1;stroke:none;stroke-width:0.02338463;stroke-linejoin:miter;stroke-miterlimit:4;stroke-dasharray:none;stroke-dashoffset:0;stroke-opacity:1"
       id="path4520"
       cx="-82.234383"
       cy="-56.40625"
       r="1" />
    <circle
       style="opacity:1;fill:#000000;fill-opacity:1;stroke:none;stroke-width:0.02338463;stroke-linejoin:miter;stroke-miterlimit:4;stroke-dasharray:none;stroke-dashoffset:0;stroke-opacity:1"
       id="path4520-5"
       cx="-28.541927"
       cy="-34.494019"
       r="1" />
    <circle
       style="opacity:1;fill:#000000;fill-opacity:1;stroke:none;stroke-width:0.02338463;stroke-linejoin:miter;stroke-miterlimit:4;stroke-dasharray:none;stroke-dashoffset:0;stroke-opacity:1"
       id="path4520-9"
       cx="-6.3469973"
       cy="17.783691"
       r="1" />
    <circle
       style="opacity:1;fill:#000000;fill-opacity:1;stroke:none;stroke-width:0.02338463;stroke-linejoin:miter;stroke-miterlimit:4;stroke-dasharray:none;stroke-dashoffset:0;stroke-opacity:1"
       id="path4520-0"
       cx="-27.277554"
       cy="71.174133"
       r="1" />
    <circle
       style="opacity:1;fill:#000000;fill-opacity:1;stroke:none;stroke-width:0.02338463;stroke-linejoin:miter;stroke-miterlimit:4;stroke-dasharray:none;stroke-dashoffset:0;stroke-opacity:1"
       id="path4520-2"
       cx="-81.246788"
       cy="94.49588"
       r="1" />
    <circle
       style="opacity:1;fill:#000000;fill-opacity:1;stroke:none;stroke-width:0.02338463;stroke-linejoin:miter;stroke-miterlimit:4;stroke-dasharray:none;stroke-dashoffset:0;stroke-opacity:1"
       id="path4520-2-6"
       cx="-134.84535"
       cy="72.770813"
       r="1" />
    <circle
       style="opacity:1;fill:#000000;fill-opacity:1;stroke:none;stroke-width:0.02338463;stroke-linejoin:miter;stroke-miterlimit:4;stroke-dasharray:none;stroke-dashoffset:0;stroke-opacity:1"
       id="path4520-2-1"
       cx="-157.32756"
       cy="19.935226"
       r="1" />
    <circle
       style="opacity:1;fill:#000000;fill-opacity:1;stroke:none;stroke-width:0.02338463;stroke-linejoin:miter;stroke-miterlimit:4;stroke-dasharray:none;stroke-dashoffset:0;stroke-opacity:1"
       id="path4520-2-2"
       cx="-135.59895"
       cy="-34.031006"
       r="1" />
    <path
       style="opacity:1;fill:#000000;fill-opacity:1;stroke:none;stroke-width:0.14054969;stroke-linejoin:miter;stroke-miterlimit:4;stroke-dasharray:none;stroke-dashoffset:0;stroke-opacity:1"
       d="m 88.820537,-64.694747 c -0.476668,-0.002 -0.970669,-9e-4 -1.482596,0.003 -32.763287,0.25728 7.987205,11.33652 -22.183658,24.11222 -30.170866,12.77567 -9.768356,-24.19866 -32.753556,-0.84958 -22.9852022,23.34908 13.66399,2.3682 1.363742,32.7359896 C 21.464209,21.674673 9.7468572,-18.897057 10.004161,13.866243 c 0.257303,32.76327 11.336023,-7.9872204 24.111706,22.18364 12.775684,30.17086 -24.1981339,9.76784 -0.849043,32.75304 23.349082,22.9852 2.368188,-13.66398 32.735986,-1.36374 30.367795,12.30026 -10.203942,24.01813 22.559345,23.76082 32.763285,-0.2573 -7.987723,-11.33652 22.183145,-24.11222 30.17086,-12.77567 9.76835,24.19866 32.75355,0.84955 22.9852,-23.34908 -13.66399,-2.36818 -1.36374,-32.73597 12.30025,-30.3677804 24.01761,10.20395 23.76031,-22.55935 -0.2573,-32.76327 -11.33602,7.98722 -24.11171,-22.1836404 -12.77568,-30.1708896 24.19865,-9.7678396 0.84956,-32.7530696 -23.34908,-22.9852 -2.36819,13.66401 -32.73598,1.36375 -29.893302,-12.10805 8.95337,-23.65156 -21.076753,-23.76393 z m -1.267622,1.54255 a 1,1 0 0 1 0.999938,0.99994 1,1 0 0 1 -0.999938,1.00047 1,1 0 0 1 -0.999939,-1.00047 1,1 0 0 1 0.999939,-0.99994 z m 53.692325,21.91237 a 1,1 0 0 1 1.00046,0.99994 1,1 0 0 1 -1.00046,0.99994 1,1 0 0 1 -0.99994,-0.99994 1,1 0 0 1 0.99994,-0.99994 z m -107.057025,0.46302 a 1,1 0 0 1 0.999937,0.99994 1,1 0 0 1 -0.999937,0.99994 1,1 0 0 1 -0.99994,-0.99994 1,1 0 0 1 0.99994,-0.99994 z M 87.94979,3.5042026 a 9.75,9.75 0 0 1 9.749793,9.7497904 9.75,9.75 0 0 1 -9.749793,9.75032 9.75,9.75 0 0 1 -9.749792,-9.75032 9.75,9.75 0 0 1 9.749792,-9.7497904 z m 75.49048,7.5339004 a 1,1 0 0 1 0.99994,0.99994 1,1 0 0 1 -0.99994,0.99994 1,1 0 0 1 -0.99994,-0.99994 1,1 0 0 1 0.99994,-0.99994 z m -150.980445,2.15131 a 1,1 0 0 1 0.999939,0.99994 1,1 0 0 1 -0.999939,0.99993 1,1 0 0 1 -0.999939,-0.99993 1,1 0 0 1 0.999939,-0.99994 z m 130.049935,51.23873 a 1,1 0 0 1 0.99994,1.00044 1,1 0 0 1 -0.99994,0.99994 1,1 0 0 1 -0.99993,-0.99994 1,1 0 0 1 0.99993,-1.00044 z m -107.567586,1.59678 a 1,1 0 0 1 0.999937,0.99994 1,1 0 0 1 -0.999937,0.99994 1,1 0 0 1 -0.99994,-0.99994 1,1 0 0 1 0.99994,-0.99994 z m 53.598278,21.72531 a 1,1 0 0 1 0.999939,0.99994 1,1 0 0 1 -0.999939,0.99994 1,1 0 0 1 -0.99994,-0.99994 1,1 0 0 1 0.99994,-0.99994 z"
       id="path4518-8"
       inkscape:connector-curvature="0" />
    <path
       inkscape:connector-curvature="0"
       style="opacity:1;fill:none;fill-opacity:1;stroke:#ff0000;stroke-width:0.1;stroke-linejoin:miter;stroke-miterlimit:4;stroke-dasharray:none;stroke-dashoffset:0;stroke-opacity:1"
       d="m 278.87054,-64.744757 c -0.47667,-0.003 -0.97067,0 -1.4826,0.003 -32.76329,0.25728 7.9872,11.33652 -22.18366,24.11222 -30.17086,12.77567 -9.76836,-24.19866 -32.75355,-0.84958 -22.98521,23.34908 13.66399,2.36821 1.36374,32.7359996 -12.30026,30.3677904 -24.01761,-10.2039496 -23.76031,22.5593504 0.2573,32.76328 11.33602,-7.9872104 24.11171,22.18365 12.77568,30.17086 -24.19814,9.76783 -0.84905,32.75303 23.34908,22.9852 2.36819,-13.66398 32.73599,-1.36374 30.36779,12.30027 -10.20394,24.01813 22.55934,23.76083 32.76329,-0.25731 -7.98772,-11.33653 22.18315,-24.11222 30.17086,-12.77567 9.76835,24.19866 32.75355,0.84955 22.98521,-23.34908 -13.66399,-2.36818 -1.36374,-32.73597 12.30025,-30.3677904 24.01761,10.20395 23.76031,-22.55936 -0.2573,-32.76327 -11.33602,7.98722 -24.11171,-22.1836404 -12.77568,-30.1708896 24.19865,-9.7678396 0.84956,-32.7530596 -23.34908,-22.9852 -2.36819,13.66401 -32.73598,1.36374 -29.8933,-12.10805 8.95337,-23.65156 -21.07675,-23.76392 z m -1.26763,1.54255 a 1,1 0 0 1 0.99994,0.99994 1,1 0 0 1 -0.99994,1.00047 1,1 0 0 1 -0.99994,-1.00047 1,1 0 0 1 0.99994,-0.99994 z m 53.69233,21.91237 a 1,1 0 0 1 1.00046,0.99994 1,1 0 0 1 -1.00046,0.99994 1,1 0 0 1 -0.99993,-0.99994 1,1 0 0 1 0.99993,-0.99994 z m -107.05703,0.46302 a 1,1 0 0 1 0.99994,0.99994 1,1 0 0 1 -0.99994,0.99994 1,1 0 0 1 -0.99994,-0.99994 1,1 0 0 1 0.99994,-0.99994 z m 53.76158,44.2810096 a 9.7500001,9.7500001 0 0 1 9.74979,9.7497904 9.7500001,9.7500001 0 0 1 -9.74979,9.75032 9.7500001,9.7500001 0 0 1 -9.74979,-9.75032 9.7500001,9.7500001 0 0 1 9.74979,-9.7497904 z m 75.49048,7.5339004 a 1,1 0 0 1 0.99994,0.99994 1,1 0 0 1 -0.99994,0.99994 1,1 0 0 1 -0.99994,-0.99994 1,1 0 0 1 0.99994,-0.99994 z m -150.98045,2.15131 a 1,1 0 0 1 0.99994,0.99994 1,1 0 0 1 -0.99994,0.99994 1,1 0 0 1 -0.99994,-0.99994 1,1 0 0 1 0.99994,-0.99994 z m 130.04995,51.23873 a 1,1 0 0 1 0.99994,1.00044 1,1 0 0 1 -0.99994,0.99994 1,1 0 0 1 -0.99994,-0.99994 1,1 0 0 1 0.99994,-1.00044 z m -107.5676,1.59678 a 1,1 0 0 1 0.99994,0.99994 1,1 0 0 1 -0.99994,0.99994 1,1 0 0 1 -0.99994,-0.99994 1,1 0 0 1 0.99994,-0.99994 z m 53.59828,21.72531 a 1,1 0 0 1 0.99994,0.99994 1,1 0 0 1 -0.99994,0.99994 1,1 0 0 1 -0.99994,-0.99994 1,1 0 0 1 0.99994,-0.99994 z"
       id="path4518-8-7" />
    <circle
       style="opacity:1;fill:#000000;fill-opacity:1;stroke:none;stroke-width:0.02816991;stroke-linejoin:miter;stroke-miterlimit:4;stroke-dasharray:none;stroke-dashoffset:0;stroke-opacity:1"
       id="path4512-7"
       cx="-86.544785"
       cy="211.30368"
       r="9.75" />
    <circle
       style="opacity:1;fill:#000000;fill-opacity:1;stroke:none;stroke-width:0.2671864;stroke-linejoin:miter;stroke-miterlimit:4;stroke-dasharray:none;stroke-dashoffset:0;stroke-opacity:1"
       id="path4514-9"
       cx="-86.544785"
       cy="211.30368"
       r="76.5" />
    <circle
       style="opacity:1;fill:#000000;fill-opacity:1;stroke:none;stroke-width:0.28963116;stroke-linejoin:miter;stroke-miterlimit:4;stroke-dasharray:none;stroke-dashoffset:0;stroke-opacity:1"
       id="path4516-7"
       cx="-86.544785"
       cy="211.30368"
       r="78" />
    <path
       sodipodi:type="star"
       style="opacity:1;fill:#000000;fill-opacity:1;stroke:none;stroke-width:0.14072511;stroke-linejoin:miter;stroke-miterlimit:4;stroke-dasharray:none;stroke-dashoffset:0;stroke-opacity:1"
       id="path4518-2"
       sodipodi:sides="6"
       sodipodi:cx="467.20807"
       sodipodi:cy="145.40202"
       sodipodi:r1="58.534145"
       sodipodi:r2="78.045525"
       sodipodi:arg1="-0.52359878"
       sodipodi:arg2="-4.4017012e-009"
       inkscape:flatsided="false"
       inkscape:rounded="0.8"
       inkscape:randomized="0"
       d="m 517.90013,116.13495 c 16.02385,27.75412 27.35346,-2.78063 27.35346,29.26707 0,32.0477 -11.32961,1.51295 -27.35346,29.26708 -16.02385,27.75412 16.08483,22.29848 -11.6693,38.32233 -27.75412,16.02385 -6.97506,-9.05526 -39.02276,-9.05526 -32.0477,0 -11.26864,25.07911 -39.02276,9.05526 -27.75413,-16.02385 4.35455,-10.56821 -11.6693,-38.32233 -16.02385,-27.75413 -27.35347,2.78063 -27.35347,-29.26708 0,-32.0477 11.32962,-1.51295 27.35347,-29.26707 16.02385,-27.754123 -16.08483,-22.298482 11.6693,-38.322333 27.75412,-16.023852 6.97506,9.055261 39.02276,9.055261 32.0477,0 11.26864,-25.079113 39.02276,-9.055262 27.75412,16.023851 -4.35456,10.568211 11.6693,38.322334 z"
       inkscape:transform-center-x="2.1411042e-005"
       inkscape:transform-center-y="-1.626287e-005"
       transform="matrix(0.86364776,0.50038496,-0.50038496,0.86364776,-417.3362,-148.00805)" />
    <circle
       style="opacity:1;fill:#000000;fill-opacity:1;stroke:none;stroke-width:0.02338463;stroke-linejoin:miter;stroke-miterlimit:4;stroke-dasharray:none;stroke-dashoffset:0;stroke-opacity:1"
       id="path4520-25"
       cx="-86.941681"
       cy="135.89743"
       r="1" />
    <circle
       style="opacity:1;fill:#000000;fill-opacity:1;stroke:none;stroke-width:0.02338463;stroke-linejoin:miter;stroke-miterlimit:4;stroke-dasharray:none;stroke-dashoffset:0;stroke-opacity:1"
       id="path4520-5-2"
       cx="-21.158398"
       cy="173.77165"
       r="1" />
    <circle
       style="opacity:1;fill:#000000;fill-opacity:1;stroke:none;stroke-width:0.02338463;stroke-linejoin:miter;stroke-miterlimit:4;stroke-dasharray:none;stroke-dashoffset:0;stroke-opacity:1"
       id="path4520-0-0"
       cx="-21.378859"
       cy="249.26581"
       r="1" />
    <circle
       style="opacity:1;fill:#000000;fill-opacity:1;stroke:none;stroke-width:0.02338463;stroke-linejoin:miter;stroke-miterlimit:4;stroke-dasharray:none;stroke-dashoffset:0;stroke-opacity:1"
       id="path4520-2-4"
       cx="-85.954079"
       cy="286.79956"
       r="1" />
    <circle
       style="opacity:1;fill:#000000;fill-opacity:1;stroke:none;stroke-width:0.02338463;stroke-linejoin:miter;stroke-miterlimit:4;stroke-dasharray:none;stroke-dashoffset:0;stroke-opacity:1"
       id="path4520-2-6-6"
       cx="-151.16618"
       cy="250.1731"
       r="1" />
    <circle
       style="opacity:1;fill:#000000;fill-opacity:1;stroke:none;stroke-width:0.02338463;stroke-linejoin:miter;stroke-miterlimit:4;stroke-dasharray:none;stroke-dashoffset:0;stroke-opacity:1"
       id="path4520-2-2-4"
       cx="-151.1806"
       cy="172.52185"
       r="1" />
    <path
       style="opacity:1;fill:#000000;fill-opacity:1;stroke:none;stroke-width:0.53088224;stroke-linejoin:miter;stroke-miterlimit:4;stroke-dasharray:none;stroke-dashoffset:0;stroke-opacity:1"
       d="M 313.55469 1641.0723 C 192.65561 1640.8879 307.78214 1683.8039 202.98828 1744.0938 C 98.194439 1804.383 118.96078 1683.285 58.351562 1787.8945 C -2.2576425 1892.504 92.471485 1814.2611 92.287109 1935.1602 C 92.102733 2056.0592 -2.3875175 1977.5265 57.902344 2082.3203 C 118.19221 2187.1142 97.794801 2065.9533 202.4043 2126.5625 C 307.01378 2187.1717 191.75717 2229.7355 312.65625 2229.9199 C 433.55533 2230.1043 318.4288 2187.1883 423.22266 2126.8984 C 528.01646 2066.6086 507.25212 2187.7071 567.86133 2083.0977 C 628.47054 1978.4882 533.73945 2056.7311 533.92383 1935.832 C 534.1082 1814.933 628.60041 1893.4657 568.31055 1788.6719 C 508.02068 1683.878 528.41612 1805.0389 423.80664 1744.4297 C 319.19716 1683.8205 434.45376 1641.2566 313.55469 1641.0723 z M 311.77734 1646.5332 A 3.7795276 3.7795276 0 0 1 315.55664 1650.3145 A 3.7795276 3.7795276 0 0 1 311.77734 1654.0938 A 3.7795276 3.7795276 0 0 1 307.99805 1650.3145 A 3.7795276 3.7795276 0 0 1 311.77734 1646.5332 z M 68.984375 1784.957 A 3.7795276 3.7795276 0 0 1 72.763672 1788.7363 A 3.7795276 3.7795276 0 0 1 68.984375 1792.5156 A 3.7795276 3.7795276 0 0 1 65.205078 1788.7363 A 3.7795276 3.7795276 0 0 1 68.984375 1784.957 z M 560.40625 1789.6816 A 3.7795276 3.7795276 0 0 1 564.18555 1793.4609 A 3.7795276 3.7795276 0 0 1 560.40625 1797.2402 A 3.7795276 3.7795276 0 0 1 556.62695 1793.4609 A 3.7795276 3.7795276 0 0 1 560.40625 1789.6816 z M 313.10547 1898.6465 A 36.850394 36.850394 0 0 1 349.95703 1935.4961 A 36.850394 36.850394 0 0 1 313.10547 1972.3457 A 36.850394 36.850394 0 0 1 276.25586 1935.4961 A 36.850394 36.850394 0 0 1 313.10547 1898.6465 z M 559.57422 2075.0137 A 3.7795276 3.7795276 0 0 1 563.35352 2078.793 A 3.7795276 3.7795276 0 0 1 559.57422 2082.5723 A 3.7795276 3.7795276 0 0 1 555.79297 2078.793 A 3.7795276 3.7795276 0 0 1 559.57422 2075.0137 z M 69.039062 2078.4414 A 3.7795276 3.7795276 0 0 1 72.818359 2082.2207 A 3.7795276 3.7795276 0 0 1 69.039062 2086.002 A 3.7795276 3.7795276 0 0 1 65.259766 2082.2207 A 3.7795276 3.7795276 0 0 1 69.039062 2078.4414 z M 315.50977 2216.873 A 3.7795276 3.7795276 0 0 1 319.28906 2220.6523 A 3.7795276 3.7795276 0 0 1 315.50977 2224.4316 A 3.7795276 3.7795276 0 0 1 311.73047 2220.6523 A 3.7795276 3.7795276 0 0 1 315.50977 2216.873 z "
       transform="matrix(0.26458333,0,0,0.26458333,0,-303)"
       id="path4518-2-7" />
    <path
       inkscape:connector-curvature="0"
       style="opacity:1;fill:none;fill-opacity:1;stroke:#ff0000;stroke-width:0.1;stroke-linejoin:miter;stroke-miterlimit:4;stroke-dasharray:none;stroke-dashoffset:0;stroke-opacity:1"
       d="m 263.50318,126.70579 c -31.98788,-0.0488 -1.52732,11.30607 -29.25403,27.25777 -27.7267,15.95152 -22.23227,-16.089 -38.26846,11.58893 -16.03619,27.67793 9.02756,6.97617 8.97878,38.96405 -0.0488,31.98786 -25.04933,11.20942 -9.09764,38.93611 15.9517,27.72672 10.55488,-4.33043 38.23281,11.70575 27.67793,16.03619 -2.81705,27.29786 29.17083,27.34665 31.98788,0.0488 1.52732,-11.30607 29.25403,-27.25777 27.7267,-15.95168 22.2328,16.08896 38.26898,-11.58894 16.03619,-27.67793 -9.02808,-6.97616 -8.97929,-38.96405 0.0488,-31.98786 25.04984,-11.20942 9.09815,-38.93611 -15.95169,-27.72672 -10.5554,4.33044 -38.23333,-11.70575 -27.67792,-16.03618 2.81705,-27.29788 -29.17083,-27.34664 z m -0.47025,1.44486 a 1,1 0 0 1 0.99994,1.00047 1,1 0 0 1 -0.99994,0.99994 1,1 0 0 1 -0.99994,-0.99994 1,1 0 0 1 0.99994,-1.00047 z m -64.23898,36.62463 a 1,1 0 0 1 0.99994,0.99994 1,1 0 0 1 -0.99994,0.99994 1,1 0 0 1 -0.99994,-0.99994 1,1 0 0 1 0.99994,-0.99994 z m 130.02204,1.25005 a 1,1 0 0 1 0.99994,0.99994 1,1 0 0 1 -0.99994,0.99994 1,1 0 0 1 -0.99994,-0.99994 1,1 0 0 1 0.99994,-0.99994 z m -65.43166,28.8303 a 9.7500001,9.7500001 0 0 1 9.75031,9.74979 9.7500001,9.7500001 0 0 1 -9.75031,9.74979 9.7500001,9.7500001 0 0 1 -9.74979,-9.74979 9.7500001,9.7500001 0 0 1 9.74979,-9.74979 z m 65.21152,46.66382 a 1,1 0 0 1 0.99994,0.99994 1,1 0 0 1 -0.99994,0.99994 1,1 0 0 1 -1.00045,-0.99994 1,1 0 0 1 1.00045,-0.99994 z m -129.78743,0.90691 a 1,1 0 0 1 0.99994,0.99994 1,1 0 0 1 -0.99994,1.00047 1,1 0 0 1 -0.99994,-1.00047 1,1 0 0 1 0.99994,-0.99994 z m 65.21205,36.62669 a 1,1 0 0 1 0.99993,0.99994 1,1 0 0 1 -0.99993,0.99994 1,1 0 0 1 -0.99994,-0.99994 1,1 0 0 1 0.99994,-0.99994 z"
       id="path4518-2-7-9" />
    <flowRoot
       xml:space="preserve"
       id="flowRoot4626"
       style="font-style:normal;font-weight:normal;font-size:40px;line-height:1.25;font-family:sans-serif;letter-spacing:0px;word-spacing:0px;fill:#000000;fill-opacity:1;stroke:none"
       transform="matrix(0.26458333,0,0,0.26458333,20.998768,-384.59521)"><flowRegion
         id="flowRegion4628"><rect
           id="rect4630"
           width="591.83929"
           height="276.6452"
           x="-1362.8177"
           y="1834.608" /></flowRegion><flowPara
         id="flowPara4632">156mm de diam. int.</flowPara><flowPara
         id="flowPara4634">8 baleines à éviter base</flowPara><flowPara
         id="flowPara4636">3 baleines à éviter attache</flowPara></flowRoot>  </g>
</svg>
