<?xml version="1.0" encoding="UTF-8" standalone="no"?>
<!-- Created with Inkscape (http://www.inkscape.org/) -->

<svg
   width="210mm"
   height="297mm"
   viewBox="0 0 210 297"
   version="1.1"
   id="svg5"
   inkscape:version="1.1.1 (3bf5ae0d25, 2021-09-20)"
   sodipodi:docname="peigne.svg"
   xmlns:inkscape="http://www.inkscape.org/namespaces/inkscape"
   xmlns:sodipodi="http://sodipodi.sourceforge.net/DTD/sodipodi-0.dtd"
   xmlns="http://www.w3.org/2000/svg"
   xmlns:svg="http://www.w3.org/2000/svg">
  <sodipodi:namedview
     id="namedview7"
     pagecolor="#ffffff"
     bordercolor="#666666"
     borderopacity="1.0"
     inkscape:pageshadow="2"
     inkscape:pageopacity="0.0"
     inkscape:pagecheckerboard="0"
     inkscape:document-units="mm"
     showgrid="false"
     inkscape:zoom="1"
     inkscape:cx="337.5"
     inkscape:cy="380"
     inkscape:window-width="1920"
     inkscape:window-height="1017"
     inkscape:window-x="-8"
     inkscape:window-y="-8"
     inkscape:window-maximized="1"
     inkscape:current-layer="layer2" />
  <defs
     id="defs2">
    <inkscape:path-effect
       effect="mirror_symmetry"
       start_point="106.18643,25.353037"
       end_point="106.18643,252.01432"
       center_point="106.18643,138.68368"
       id="path-effect3835"
       is_visible="true"
       lpeversion="1.1"
       mode="free"
       discard_orig_path="false"
       fuse_paths="false"
       oposite_fuse="false"
       split_items="false"
       split_open="false" />
  </defs>
  <g
     inkscape:groupmode="layer"
     id="layer2"
     inkscape:label="Calque 2"
     style="display:inline">
    <path
       style="fill:none;stroke:#00ff00;stroke-width:0.1;stop-color:#000000"
       d="m 60.1438,55.433334 c -9.37689,0.06639 -15.75331,1.313029 -20.76663,3.369099 -10.39562,4.263461 -11.4423,10.203234 -10.68173,24.623662 0.67352,12.769982 1.99695,20.795775 2.77721,21.454965 0.431786,0.35556 0.841783,0.50678 1.203804,0.54321 0.497275,0.05 0.904029,-0.11651 1.152396,-0.26757 0.40533,-0.76133 0.85435,-28.299812 0.99741,-29.38743 0.71529,-0.348038 1.43059,-0.28278 1.83592,-0.02175 0.0238,0.576438 0.3378,27.69075 1.91145,29.30042 0.409052,0.11785 0.759785,0.16476 1.058782,0.15674 0.363274,-0.01 0.650178,-0.10056 0.872518,-0.24374 1.77874,-1.94737 1.52196,-28.321566 1.56965,-29.757221 0.85835,-0.217522 1.28752,-0.217522 1.95514,-0.08701 0.23844,2.523273 -0.40135,28.887131 1.55379,29.800731 0.345575,0.03 0.640042,0.0445 0.889278,0.0452 0.473011,0.001 0.783114,-0.0468 0.970492,-0.13223 1.26809,-2.61346 1.67908,-19.567095 1.59351,-29.626713 0.85835,-0.217522 1.28752,-0.217522 1.95514,-0.08701 0.23842,2.523273 -0.40135,28.887133 1.55379,29.800723 0.227999,0.0375 0.531204,0.0536 0.825395,0.0494 0.388825,-0.006 0.761903,-0.0467 0.924785,-0.12097 1.39377,-2.25238 1.25801,-19.766518 1.51233,-29.642085 0.85836,-0.217522 1.28754,-0.217522 1.95514,-0.08701 0.23844,2.523273 -0.40134,28.887125 1.5538,29.800725 0.34233,0.0297 0.57899,0.0289 0.82663,0.0298 0.25742,-0.0112 0.52643,0.0129 0.74994,-0.10147 1.54031,0 1.25801,-19.766518 1.51233,-29.642084 0.85836,-0.217522 1.28754,-0.217522 1.95514,-0.08701 0.23844,2.523273 -0.40133,28.887124 1.5538,29.800724 0.34233,0.0297 0.57898,0.0289 0.82663,0.0298 0.24766,-8.8e-4 0.48431,-9e-5 0.82664,-0.0298 1.70949,0 1.11291,-20.346879 1.70186,-29.830177 0.66762,-0.130514 0.94872,-0.101099 1.80708,0.116425 0.25433,9.875567 0.11856,27.389712 1.51233,29.642092 0.160281,0.0731 0.524102,0.11409 0.906175,0.12069 0.29997,0.005 0.61119,-0.0108 0.843995,-0.0491 1.95515,-0.9136 1.31538,-27.277457 1.55379,-29.800731 0.66762,-0.130513 1.09679,-0.130513 1.95515,0.08701 -0.0856,10.059618 0.32542,27.013251 1.59349,29.626711 0.194165,0.0886 0.520075,0.13706 1.022436,0.1319 0.23794,-0.002 0.515464,-0.0169 0.837324,-0.0449 1.95515,-0.9136 1.31538,-27.277456 1.55382,-29.800729 0.66761,-0.130514 1.09678,-0.130514 1.95513,0.08701 0.0477,1.435655 -0.2091,27.809849 1.56965,29.757219 0.232795,0.14991 0.536368,0.24243 0.924271,0.24458 0.28751,0.002 0.621346,-0.0465 1.007029,-0.15758 1.57365,-1.60967 1.8876,-28.72398 1.91145,-29.300418 0.40533,-0.261028 1.12062,-0.326287 1.83591,0.02175 0.14307,1.087618 0.59209,28.626098 0.99743,29.387428 0.211823,0.12884 0.777092,0.20102 1.349947,0.20665 0.587794,0.006 1.183574,-0.0585 1.413713,-0.20365 0.57654,-1.17963 2.19299,-8.972493 2.58077,-21.752356 0.38924,-12.828298 0.12135,-20.3416 -10.27427,-24.605061 -5.01331,-2.05607 -12.00822,-3.302712 -21.38512,-3.369099 z"
       id="path2065"
       sodipodi:nodetypes="csscsccccsccccsccccsccccccccccccccsccccsccccsccccscsscc" />
    <path
       id="path5395"
       style="fill:none;stroke:#ff0000;stroke-width:0.1;stop-color:#000000"
       d="m 169.38939,60.043968 c -9.26799,0.0664 -15.47016,1.29575 -20.30664,3.2793 -5.02766,2.06194 -7.50822,4.3185 -8.84962,7.81445 -1.3414,3.49596 -1.4564,8.448929 -1.07813,15.621089 0.33526,6.35655 0.83194,11.52875 1.33789,15.166023 0.25298,1.81863 0.50978,3.25682 0.74024,4.24219 0.11523,0.49268 0.22544,0.87415 0.31055,1.10742 0.0248,0.0679 0.0462,0.0894 0.0723,0.1289 0.14568,0.0951 0.27234,0.16242 0.35742,0.17579 0.0138,-0.17276 0.0267,-0.30632 0.041,-0.53711 0.0501,-0.80905 0.10193,-1.94514 0.15234,-3.29297 0.10083,-2.69567 0.19888,-6.242733 0.28906,-9.798833 0.0902,-3.5561 0.17177,-7.12238 0.24024,-9.87109 0.0342,-1.37436 0.0649,-2.54437 0.0918,-3.40821 0.0134,-0.43192 0.0275,-0.78643 0.0391,-1.05664 0.0116,-0.27021 0.0112,-0.39535 0.0391,-0.60742 a 1.2157442,1.2157442 0 0 1 0.67383,-0.93555 c 1.05594,-0.51379 2.15049,-0.51276 3.0254,0.0508 a 1.2157442,1.2157442 0 0 1 0.55664,0.97071 c 0.009,0.21313 0.0114,0.58993 0.0254,1.38867 0.0139,0.79874 0.0338,1.90865 0.0625,3.23047 0.0573,2.64363 0.14836,6.13133 0.28711,9.64648 0.13875,3.51515 0.32655,7.062093 0.57422,9.800783 0.12383,1.36935 0.26366,2.53924 0.41211,3.375 0.0635,0.3577 0.12715,0.61454 0.18555,0.82422 0.0482,0.003 0.1381,0.0284 0.17578,0.0273 0.0387,-0.001 0.0249,-0.007 0.0527,-0.01 0.01,-0.0251 -0.004,0.004 0.006,-0.0254 0.0706,-0.22127 0.1509,-0.56443 0.22656,-0.98633 0.15133,-0.84379 0.28691,-2.01264 0.39844,-3.375 0.22307,-2.72471 0.3598,-6.234583 0.44141,-9.730473 0.0816,-3.49588 0.10885,-6.98103 0.11914,-9.68164 0.0103,-2.70061 -0.002,-4.49887 0.0156,-5.01758 a 1.2157442,1.2157442 0 0 1 0.91602,-1.136709 c 0.9511,-0.24103 1.72142,-0.25306 2.48633,-0.10352 a 1.2157442,1.2157442 0 0 1 0.97851,1.078119 c 0.0831,0.87883 0.07,2.86389 0.0742,5.70508 0.004,2.8412 0.007,6.39681 0.0644,9.89453 0.057,3.49773 0.16848,6.943243 0.38282,9.529303 0.10717,1.29303 0.24334,2.37682 0.39453,3.09961 0.0509,0.24319 0.0964,0.36503 0.14258,0.50977 0.0425,0.001 0.10844,0.008 0.14648,0.008 0.14507,-0.50823 0.40239,-1.5763 0.58398,-3.35742 0.21149,-2.07432 0.37922,-4.736043 0.50391,-7.632823 0.24937,-5.79355 0.33166,-12.53553 0.28906,-17.54296 a 1.2157442,1.2157442 0 0 1 0.91602,-1.187499 c 0.9511,-0.24103 1.72142,-0.25306 2.48633,-0.10352 a 1.2157442,1.2157442 0 0 1 0.97851,1.078119 c 0.083,0.8788 0.07,2.86389 0.0742,5.70508 0.004,2.8412 0.007,6.39681 0.0644,9.89453 0.057,3.49773 0.16847,6.943243 0.38282,9.529303 0.10717,1.29303 0.24334,2.37682 0.39453,3.09961 0.0516,0.24689 0.0979,0.37245 0.14453,0.51758 0.0343,3.9e-4 0.0541,0.006 0.0879,0.006 0.0237,-3.7e-4 0.008,0.002 0.0332,0 0.0624,-0.19263 0.10011,-0.25778 0.16993,-0.64063 0.11921,-0.65378 0.2287,-1.53233 0.32031,-2.5664 0.18321,-2.06816 0.305,-4.761633 0.39062,-7.697273 0.17124,-5.87128 0.20035,-12.71392 0.32813,-17.67578 a 1.2157442,1.2157442 0 0 1 0.91601,-1.146479 c 0.95112,-0.24104 1.72143,-0.25307 2.48633,-0.10352 a 1.2157442,1.2157442 0 0 1 0.97852,1.078119 c 0.083,0.87883 0.07,2.86389 0.0742,5.70508 0.004,2.8412 0.007,6.39681 0.0644,9.89453 0.057,3.49773 0.16847,6.943243 0.38281,9.529303 0.10717,1.29303 0.24334,2.37682 0.39453,3.09961 0.0499,0.23839 0.0931,0.35586 0.13867,0.5 0.038,2.2e-4 0.0783,0.004 0.11914,0.004 h -0.0566 c 0.15112,-0.007 0.048,0.0173 0.10157,0.0117 0.0102,-0.0344 0.009,-0.0224 0.0195,-0.0625 0.11148,-0.44521 0.22815,-1.22178 0.32226,-2.19532 0.18822,-1.94707 0.30633,-4.71351 0.38282,-7.789063 0.15297,-6.1511 0.14544,-13.55515 0.27343,-18.52539 a 1.2157442,1.2157442 0 0 1 0.91602,-1.146479 c 0.95111,-0.24103 1.72144,-0.25306 2.48633,-0.10352 a 1.2157442,1.2157442 0 0 1 0.97851,1.078119 c 0.0831,0.87883 0.07,2.86389 0.0742,5.70508 0.004,2.8412 0.007,6.39681 0.0645,9.89453 0.057,3.49773 0.16848,6.943243 0.38282,9.529303 0.10717,1.29303 0.24334,2.37681 0.39453,3.09961 0.0499,0.23839 0.0931,0.35586 0.13867,0.5 0.038,2.2e-4 0.0783,0.004 0.11914,0.004 0.0625,-2.2e-4 0.12644,-0.007 0.1836,-0.008 9.9e-4,-0.004 9.6e-4,-0.002 0.002,-0.006 0.11685,-0.4526 0.23627,-1.24809 0.33008,-2.24415 0.18761,-1.9921 0.29257,-4.81803 0.36132,-7.943353 0.13752,-6.25066 0.13421,-13.70078 0.4336,-18.52149 a 1.2157442,1.2157442 0 0 1 0.98047,-1.117189 c 0.76564,-0.14967 1.44585,-0.0937 2.33984,0.13282 a 1.2157442,1.2157442 0 0 1 0.91602,1.146479 c 0.12778,4.96186 0.15689,11.8045 0.32812,17.67578 0.0856,2.93564 0.20742,5.629113 0.39063,7.697273 0.0916,1.03407 0.20109,1.91262 0.32031,2.5664 0.0696,0.38176 0.10755,0.44589 0.16992,0.63867 0.0118,5.8e-4 0.004,-1.9e-4 0.0156,0 0.0411,6.7e-4 0.0639,-0.005 0.10546,-0.006 0.0465,-0.14504 0.0931,-0.26961 0.14454,-0.51563 0.15119,-0.72279 0.28736,-1.80658 0.39453,-3.09961 0.21434,-2.58606 0.32578,-6.031573 0.38281,-9.529303 0.057,-3.49772 0.0622,-7.05333 0.0664,-9.89453 0.004,-2.84119 -0.0108,-4.82628 0.0723,-5.70508 a 1.2157442,1.2157442 0 0 1 0.97852,-1.078119 c 0.76489,-0.14953 1.53522,-0.1375 2.48632,0.10352 a 1.2157442,1.2157442 0 0 1 0.91602,1.187499 c -0.0426,5.00743 0.0397,11.74941 0.28906,17.54296 0.12469,2.89678 0.29243,5.558503 0.50391,7.632823 0.18159,1.78112 0.43892,2.84919 0.58398,3.35742 0.01,-1e-5 0.002,1e-4 0.0117,0 a 1.2157442,1.2157442 0 0 1 0.002,0 c 0.0349,-2.9e-4 0.0945,-0.007 0.13281,-0.008 0.0462,-0.14473 0.0917,-0.26658 0.14258,-0.50977 0.15114,-0.72279 0.28745,-1.80658 0.39453,-3.09961 0.21416,-2.58606 0.32602,-6.031573 0.38281,-9.529303 0.0568,-3.49772 0.0605,-7.05332 0.0644,-9.89453 0.004,-2.8412 -0.0108,-4.8261 0.0723,-5.70508 a 1.2157442,1.2157442 0 0 1 0.97851,-1.078119 c 0.76489,-0.14953 1.53523,-0.1375 2.48633,0.10352 a 1.2157442,1.2157442 0 0 1 0.91602,1.136709 c 0.0172,0.51847 0.005,2.31697 0.0156,5.01758 0.0105,2.70061 0.0393,6.18576 0.1211,9.68164 0.0818,3.49589 0.21815,7.005753 0.4414,9.730473 0.11163,1.36236 0.24706,2.5312 0.39844,3.375 0.0757,0.4219 0.15598,0.76505 0.22656,0.98633 0.009,0.0275 -0.003,-1.3e-4 0.006,0.0234 0.0354,0.005 0.0204,0.0134 0.0762,0.0137 a 1.2157442,1.2157442 0 0 1 0.002,0 c 0.0319,2.2e-4 0.10859,-0.0225 0.14843,-0.0254 0.0586,-0.20984 0.12367,-0.46864 0.1875,-0.82813 0.1484,-0.83575 0.28837,-2.00565 0.41211,-3.375 0.24749,-2.73868 0.43572,-6.285633 0.57422,-9.800783 0.1385,-3.51515 0.22801,-7.00284 0.28516,-9.64648 0.0286,-1.32182 0.0486,-2.43172 0.0625,-3.23047 0.0139,-0.79875 0.0165,-1.17477 0.0254,-1.38867 a 1.2157442,1.2157442 0 0 1 0.55664,-0.97071 c 0.87488,-0.56339 1.96946,-0.56447 3.02539,-0.0508 a 1.2157442,1.2157442 0 0 1 0.67383,0.93555 c 0.0279,0.21199 0.0274,0.33722 0.0391,0.60742 0.0116,0.2702 0.0256,0.62472 0.0391,1.05664 0.0269,0.86384 0.0575,2.03385 0.0918,3.40821 0.0687,2.7487 0.1498,6.31499 0.24024,9.87109 0.0904,3.5561 0.19,7.101213 0.29101,9.796873 0.0505,1.34784 0.10216,2.48588 0.15235,3.29493 0.013,0.20897 0.0245,0.32448 0.0371,0.48632 0.0928,0.006 0.16621,0.0166 0.26368,0.0176 0.16355,0.002 0.30368,-0.0124 0.44726,-0.0234 0.0904,-0.281 0.19218,-0.55614 0.35938,-1.32421 0.23036,-1.05824 0.49513,-2.51776 0.7539,-4.33985 0.51754,-3.644173 1.01447,-8.745543 1.20703,-15.091793 0.19415,-6.39854 0.1878,-11.377009 -1.0332,-15.097659 -1.221,-3.72065 -3.51709,-6.30772 -8.48633,-8.3457 -4.80411,-1.97028 -11.65491,-3.21291 -20.92382,-3.2793 h -6.58985 z" />
    <path
       style="fill:none;stroke:#ff0000;stroke-width:0.1;stop-color:#000000"
       d="m 33.528602,48.752989 c 1.67276,-0.856778 1.12539,-25.580978 1.32938,-27.947321 0.57119,-0.122397 0.93838,-0.122397 1.67276,0.0816 0.2176,9.261374 0.10145,25.686252 1.29392,27.798549 0.24479,0.122396 1.04451,0.148771 1.4974,0.06717 1.67276,-0.856778 1.12539,-25.580978 1.32938,-27.947321 0.57119,-0.122396 0.93838,-0.122396 1.67276,0.0816 -0.0732,9.433978 0.27842,25.333207 1.36335,27.784126 0.2448,0.122397 0.73439,0.163195 1.59116,0.0816 1.67276,-0.856778 1.12539,-25.580978 1.32939,-27.947321 0.57119,-0.122397 0.93838,-0.122397 1.67276,0.0816 0.0408,1.346367 -0.1789,26.080265 1.34295,27.906522 0.34679,0.244794 0.87718,0.326392 1.65236,0.0816 1.34637,-1.509563 1.61498,-26.937544 1.63538,-27.478132 0.34679,-0.244794 0.95877,-0.305994 1.57076,0.0204 0.1224,1.019976 0.50657,26.845749 0.85336,27.55973 0.36719,0.244793 0.99958,0.428388 2.71313,0.0204 0.66758,-0.618193 2.93278,-8.490945 4.3247,-20.399507 1.41769,-12.129083 -0.24479,-19.0939346 -9.13898,-23.0922375 -4.28925,-1.928196 -12.39056,-3.097306 -20.41317,-3.159564 -8.0226,0.06226 -16.12391,1.231368 -20.41316,3.159564 C 3.5140022,9.5043494 1.8515222,16.469201 3.2692122,28.598284 c 1.39191,11.908562 3.65712,19.781314 4.32469,20.399507 1.71356,0.407989 2.34595,0.224394 2.7131398,-0.0204 0.34679,-0.713981 0.73096,-26.539754 0.85336,-27.55973 0.61198,-0.326392 1.22397,-0.265193 1.57076,-0.0204 0.0204,0.540588 0.28901,25.968569 1.63538,27.478132 0.77518,0.244795 1.30557,0.163197 1.65236,-0.0816 1.52184,-1.826257 1.30215,-26.560155 1.34295,-27.906522 0.73438,-0.203994 1.10157,-0.203994 1.67276,-0.0816 0.204,2.366343 -0.34338,27.090543 1.32938,27.947321 0.85678,0.0816 1.34637,0.0408 1.59116,-0.0816 1.08494,-2.450919 1.43657,-18.350148 1.36336,-27.784126 0.73438,-0.203994 1.10157,-0.203994 1.67276,-0.0816 0.20399,2.366343 -0.34338,27.090543 1.32938,27.947321 0.45289,0.0816 1.25261,0.05522 1.4974,-0.06717 1.19247,-2.112297 1.07632,-18.537175 1.29391,-27.798549 0.73439,-0.203994 1.10158,-0.203994 1.67276,-0.0816 0.204,2.366343 -0.34337,27.090543 1.32939,27.947321 0.29288,0.02789 0.49536,0.02706 0.70724,0.02798 0.21189,-8.27e-4 0.41436,-8.4e-5 0.70725,-0.02798 z"
       id="use4679"
       sodipodi:nodetypes="cccccccccccccccccsscssccccccccccccccccccc" />
    <path
       style="fill:none;stroke:#ff0000;stroke-width:0.1;stop-color:#000000"
       d="m 94.359614,48.916656 c 1.67276,-0.856778 1.12539,-25.580978 1.32938,-27.947321 0.57119,-0.122397 0.93838,-0.122397 1.67276,0.0816 0.2176,9.261374 0.10145,25.686252 1.29392,27.798549 0.24479,0.122396 1.04451,0.148771 1.497396,0.06717 1.67276,-0.856778 1.12539,-25.580978 1.32938,-27.947321 0.57119,-0.122396 0.93838,-0.122396 1.67276,0.0816 -0.0732,9.433978 0.27842,25.333207 1.36335,27.784126 0.2448,0.122397 0.73439,0.163195 1.59116,0.0816 1.67276,-0.856778 1.12539,-25.580978 1.32939,-27.947321 0.57119,-0.122397 0.93838,-0.122397 1.67276,0.0816 0.0408,1.346367 -0.1789,26.080265 1.34295,27.906522 0.34679,0.244794 0.87718,0.326392 1.65236,0.0816 1.34637,-1.509563 1.61498,-26.937544 1.63538,-27.478132 0.34679,-0.244794 0.95877,-0.305994 1.57076,0.0204 0.1224,1.019976 0.50657,26.845749 0.85336,27.55973 0.36719,0.244793 1.97572,0.271508 2.36451,0.003 0.49327,-1.106266 1.87626,-8.414466 2.20803,-20.399507 0.33303,-12.030478 0.10383,-19.076504 -8.79036,-23.074807 -4.28925,-1.928196 -10.27389,-3.0973056 -18.296496,-3.1595636 -8.0226,0.06226 -13.47808,1.2313676 -17.76733,3.1595636 -8.894186,3.998303 -9.789695,9.568662 -9.138976,23.092238 0.576243,11.975776 1.708534,19.502415 2.376104,20.120608 0.876864,0.791475 1.648703,0.503293 2.015889,0.258499 0.34679,-0.713981 0.73096,-26.539754 0.85336,-27.55973 0.61198,-0.326392 1.22397,-0.265193 1.57076,-0.0204 0.0204,0.540588 0.28901,25.968569 1.63538,27.478132 0.77518,0.244795 1.30557,0.163197 1.65236,-0.0816 1.52184,-1.826257 1.30215,-26.560155 1.34295,-27.906522 0.73438,-0.203994 1.10157,-0.203994 1.67276,-0.0816 0.204003,2.366343 -0.34338,27.090543 1.329383,27.947321 0.85678,0.0816 1.34637,0.0408 1.59116,-0.0816 1.08494,-2.450919 1.43657,-18.350148 1.36336,-27.784126 0.73438,-0.203994 1.10157,-0.203994 1.67276,-0.0816 0.20399,2.366343 -0.34338,27.090543 1.32938,27.947321 0.45289,0.0816 1.25261,0.05522 1.4974,-0.06717 1.19247,-2.112297 1.07632,-18.537175 1.29391,-27.798549 0.73439,-0.203994 1.10158,-0.203994 1.67276,-0.0816 0.204,2.366343 -0.34337,27.090543 1.32939,27.947321 0.29288,0.02789 0.49536,0.02706 0.70724,0.02798 0.21189,-8.27e-4 0.41436,-8.4e-5 0.70725,-0.02798 z"
       id="use4679-0"
       sodipodi:nodetypes="cccccccccccccccccsscsscccccccccccccccccccc" />
    <path
       style="fill:none;stroke:#ff0000;stroke-width:0.1;stop-color:#000000"
       d="m 60.1438,55.433334 c -9.37689,0.06639 -15.75331,1.313029 -20.76663,3.369099 -10.39562,4.263461 -11.271387,10.880851 -10.68173,24.623662 0.261292,6.089787 2.534957,21.988215 3.981014,21.998175 1.446057,0.01 0.03607,-26.691844 2.149806,-29.655 0.71529,-0.348038 1.43059,-0.28278 1.83592,-0.02175 0.959797,2.693802 1.711709,29.45716 2.970232,29.45716 1.258523,0 1.279768,-26.781918 2.442168,-30.000961 0.85835,-0.217522 1.28752,-0.217522 1.95514,-0.08701 0.998665,3.344051 1.173108,29.845931 2.443068,29.845931 1.26996,0 1.483822,-26.569158 2.564002,-29.758943 0.85835,-0.217522 1.28752,-0.217522 1.95514,-0.08701 1.189428,3.283976 0.97548,29.850123 2.379185,29.850123 1.403705,0 1.47099,-26.506819 2.437115,-29.763055 0.85836,-0.217522 1.28754,-0.217522 1.95514,-0.08701 1.151219,3.154438 0.802497,29.830525 2.38043,29.830525 1.577933,0 1.296909,-26.641137 2.26227,-29.743554 0.85836,-0.217522 1.28754,-0.217522 1.95514,-0.08701 1.085071,3.154436 0.956938,29.830524 2.38043,29.830524 1.423492,0 1.324754,-26.653483 2.5285,-29.859977 0.66762,-0.130514 0.94872,-0.101099 1.80708,0.116425 1.138458,3.005685 0.943136,29.762782 2.418505,29.762782 1.475369,0 1.251456,-26.73835 2.397785,-29.849831 0.66762,-0.130513 1.09679,-0.130513 1.95515,0.08701 1.041426,3.04148 1.262197,29.758611 2.615926,29.758611 1.353729,0 1.439481,-26.542213 2.391144,-29.845629 0.66761,-0.130514 1.09678,-0.130514 1.95513,0.08701 1.120254,3.248823 1.070903,30.001799 2.493921,30.001799 1.423018,0 1.483345,-26.706729 2.918479,-29.457998 0.40533,-0.261028 1.12062,-0.326287 1.83591,0.02175 2.502675,3.167679 0.917445,29.594078 2.347377,29.594078 1.429932,0 3.941648,-20.241091 3.994483,-21.956006 0.395225,-12.828115 0.12135,-20.3416 -10.27427,-24.605061 -5.01331,-2.05607 -12.00822,-3.302712 -21.38512,-3.369099 z"
       id="use4679-0-2"
       sodipodi:nodetypes="csszcczcczcczcczcczcczcczcczcczsscc" />
    <path
       style="fill:none;stroke:#ff0000;stroke-width:0.1;stop-color:#000000"
       d="m 79.458384,141.70914 c -9.37689,0.0664 -15.75331,1.31303 -20.76663,3.3691 -10.39562,4.26346 -11.271387,10.88085 -10.68173,24.62366 0.261292,6.08979 2.534957,21.98821 3.981014,21.99817 1.446057,0.01 0.03607,-26.69184 2.149806,-29.655 0.71529,-0.34803 1.43059,-0.28278 1.83592,-0.0217 0.959797,2.69381 1.711709,29.45716 2.970232,29.45716 1.258523,0 1.279768,-26.78191 2.442168,-30.00096 0.85835,-0.21752 1.28752,-0.21752 1.95514,-0.087 0.998665,3.34405 1.173108,29.84593 2.443068,29.84593 1.26996,0 1.483822,-26.56915 2.564002,-29.75894 0.85835,-0.21752 1.28752,-0.21752 1.95514,-0.087 1.189428,3.28398 0.97548,29.85012 2.379185,29.85012 1.403705,0 1.47099,-26.50681 2.437115,-29.76305 0.85836,-0.21752 1.28754,-0.21752 1.95514,-0.087 1.151219,3.15444 0.802497,29.83052 2.38043,29.83052 1.577933,0 1.296909,-26.64113 2.26227,-29.74355 0.85836,-0.21752 1.28754,-0.21752 1.95514,-0.087 1.085071,3.15444 0.956938,29.83052 2.38043,29.83052 1.423492,0 1.324754,-26.65348 2.5285,-29.85997 0.66762,-0.13052 0.94872,-0.1011 1.80708,0.11642 1.138458,3.00569 0.943136,29.76278 2.418505,29.76278 1.475369,0 1.251456,-26.73835 2.397785,-29.84983 0.66762,-0.13051 1.09679,-0.13051 1.95515,0.087 1.041426,3.04148 1.262197,29.75861 2.615926,29.75861 1.35373,0 1.43948,-26.54221 2.39114,-29.84562 0.66761,-0.13052 1.09678,-0.13052 1.95513,0.087 1.12026,3.24882 1.07091,30.00179 2.49392,30.00179 1.42302,0 1.48335,-26.70672 2.91848,-29.45799 0.40533,-0.26103 1.12062,-0.32629 1.83591,0.0217 2.50268,3.16768 0.91745,29.59407 2.34738,29.59407 1.42993,0 3.94165,-20.24109 3.99448,-21.956 0.39523,-12.82812 0.12135,-20.3416 -10.27427,-24.60506 -5.01331,-2.05607 -12.008216,-3.30271 -21.385116,-3.3691 z"
       id="path5258"
       sodipodi:nodetypes="csszcczcczcczcczcczcczcczcczcczsscc" />
    <text
       xml:space="preserve"
       style="font-size:7.05556px;line-height:8.33333px;font-family:Montserrat;-inkscape-font-specification:Montserrat;text-align:center;letter-spacing:0px;word-spacing:0px;text-anchor:middle;stroke-width:0.264583"
       x="30.691666"
       y="15.08125"
       id="text7133"><tspan
         sodipodi:role="line"
         id="tspan7131"
         style="font-size:7.05556px;stroke-width:0.264583"
         x="30.691666"
         y="15.08125">corne</tspan></text>
    <text
       xml:space="preserve"
       style="font-size:7.05556px;line-height:8.33333px;font-family:Montserrat;-inkscape-font-specification:Montserrat;text-align:center;letter-spacing:0px;word-spacing:0px;text-anchor:middle;stroke-width:0.264583"
       x="142.08125"
       y="13.49375"
       id="text10113"><tspan
         sodipodi:role="line"
         style="font-size:7.05556px;stroke-width:0.264583"
         x="142.08125"
         y="13.49375"
         id="tspan10115">bois (contour stylo scanné)</tspan></text>
    <text
       xml:space="preserve"
       style="font-size:7.05556px;line-height:8.33333px;font-family:Montserrat;-inkscape-font-specification:Montserrat;text-align:center;letter-spacing:0px;word-spacing:0px;text-anchor:middle;stroke-width:0.264583"
       x="65.087502"
       y="67.73333"
       id="text11103"><tspan
         sodipodi:role="line"
         id="tspan11101"
         style="font-size:7.05556px;stroke-width:0.264583"
         x="65.087502"
         y="67.73333">mix de style</tspan></text>
    <text
       xml:space="preserve"
       style="font-size:7.05556px;line-height:8.33333px;font-family:Montserrat;-inkscape-font-specification:Montserrat;text-align:center;letter-spacing:0px;word-spacing:0px;text-anchor:middle;stroke-width:0.264583"
       x="174.09583"
       y="71.70208"
       id="text13387"><tspan
         sodipodi:role="line"
         id="tspan13385"
         style="font-size:7.05556px;stroke-width:0.264583"
         x="174.09583"
         y="71.70208">décalage lié</tspan></text>
    <text
       xml:space="preserve"
       style="font-size:7.05556px;line-height:8.33333px;font-family:Montserrat;-inkscape-font-specification:Montserrat;text-align:center;letter-spacing:0px;word-spacing:0px;text-anchor:middle;stroke-width:0.264583"
       x="81.491669"
       y="121.97292"
       id="text14439"><tspan
         sodipodi:role="line"
         id="tspan14437"
         style="font-size:7.05556px;stroke-width:0.264583"
         x="81.491669"
         y="121.97292">affinage</tspan><tspan
         sodipodi:role="line"
         style="font-size:7.05556px;stroke-width:0.264583"
         x="81.491669"
         y="130.30624"
         id="tspan20364">(proto scie montre dents trop larges)</tspan></text>
  </g>
</svg>
