 0
SECTION
 2
ENTITIES
  0
LINE
 8
GROUP0
10
62.1733622560804
20
531.422060595005
30
0.0
11
61.2138764665183
21
528.986264014413
31
0.0
  0
LINE
 8
GROUP0
10
55.0954307233133
20
508.973729734197
30
0.0
11
54.5288003310277
21
506.417825205282
31
0.0
  0
LINE
 8
GROUP0
10
59.423154101201
20
524.066294751191
30
0.0
11
58.5924629968255
21
521.58362073886
31
0.0
  0
LINE
 8
GROUP0
10
63.1752124232325
20
533.840740856009
30
0.0
11
62.1733622560804
21
531.422060595005
31
0.0
  0
LINE
 8
GROUP0
10
66.4318334962235
20
540.986743600979
30
0.0
11
65.304772385601
21
538.623810843723
31
0.0
  0
LINE
 8
GROUP0
10
65.304772385601
20
538.623810843723
30
0.0
11
64.2191217947084
21
536.241568043988
31
0.0
  0
LINE
 8
GROUP0
10
57.0616860503507
20
516.576674955168
30
0.0
11
56.3620664977383
21
514.053928347996
31
0.0
  0
LINE
 8
GROUP0
10
91.547885198223
20
577.530825591992
30
0.0
11
89.7792166194894
21
575.600662536446
31
0.0
  0
LINE
 8
GROUP0
10
68.8088015122595
20
545.651806000501
30
0.0
11
67.5999618128434
21
543.32964654355
31
0.0
  0
LINE
 8
GROUP0
10
84.6790462225529
20
569.629130240093
30
0.0
11
83.0493274000902
21
567.580292881466
31
0.0
  0
LINE
 8
GROUP0
10
55.7065814996991
20
511.519355922568
30
0.0
11
55.0954307233133
21
508.973729734197
31
0.0
  0
LINE
 8
GROUP0
10
93.3499703903009
20
579.429827151467
30
0.0
11
91.547885198223
21
577.530825591992
31
0.0
  0
LINE
 8
GROUP0
10
86.3442739732518
20
571.649213035599
30
0.0
11
84.6790462225529
21
569.629130240093
31
0.0
  0
LINE
 8
GROUP0
10
76.8953045578423
20
559.11000710323
30
0.0
11
75.450355249285
21
556.926926834872
31
0.0
  0
LINE
 8
GROUP0
10
51.3423163882342
20
480.465996087993
30
0.0
11
51.2737861676399
21
477.84893254821
31
0.0
  0
LINE
 8
GROUP0
10
64.2191217947084
20
536.241568043988
30
0.0
11
63.1752124232325
21
533.840740856009
31
0.0
  0
LINE
 8
GROUP0
10
67.5999618128434
20
543.32964654355
30
0.0
11
66.4318334962235
21
540.986743600979
31
0.0
  0
LINE
 8
GROUP0
10
60.2970473232123
20
526.534093081468
30
0.0
11
59.423154101201
21
524.066294751191
31
0.0
  0
LINE
 8
GROUP0
10
81.4556139340046
20
565.503325055425
30
0.0
11
79.8983912848564
21
563.398859426489
31
0.0
  0
LINE
 8
GROUP0
10
75.450355249285
20
556.926926834872
30
0.0
11
74.0437260176347
21
554.718961217598
31
0.0
  0
LINE
 8
GROUP0
10
58.5924629968255
20
521.58362073886
30
0.0
11
57.8052270466432
21
519.086827291028
31
0.0
  0
LINE
 8
GROUP0
10
61.2138764665183
20
528.986264014413
30
0.0
11
60.2970473232123
21
526.534093081468
31
0.0
  0
LINE
 8
GROUP0
10
56.3620664977383
20
514.053928347996
30
0.0
11
55.7065814996991
21
511.519355922568
31
0.0
  0
LINE
 8
GROUP0
10
88.0445034076827
20
573.639925931194
30
0.0
11
86.3442739732518
21
571.649213035599
31
0.0
  0
LINE
 8
GROUP0
10
57.8052270466432
20
519.086827291028
30
0.0
11
57.0616860503507
21
516.576674955168
31
0.0
  0
LINE
 8
GROUP0
10
51.2737861676399
20
477.84893254821
30
0.0
11
51.2509404410985
21
475.231071582618
31
0.0
  0
LINE
 8
GROUP0
10
104.832798988118
20
590.137738050464
30
0.0
11
102.842086092522
21
588.437508616033
31
0.0
  0
LINE
 8
GROUP0
10
142.641271167707
20
613.306799600484
30
0.0
11
140.240443979729
21
612.262890229008
31
0.0
  0
LINE
 8
GROUP0
10
78.3781337977498
20
561.267537035275
30
0.0
11
76.8953045578423
21
559.11000710323
31
0.0
  0
LINE
 8
GROUP0
10
70.0579843701892
20
547.952514619568
30
0.0
11
68.8088015122595
21
545.651806000501
31
0.0
  0
LINE
 8
GROUP0
10
89.7792166194894
20
575.600662536446
30
0.0
11
88.0445034076827
21
573.639925931194
31
0.0
  0
LINE
 8
GROUP0
10
126.250940441099
20
605.134882150283
30
0.0
11
123.99522920459
21
603.806166687934
31
0.0
  0
LINE
 8
GROUP0
10
71.3471298734327
20
550.231071582618
30
0.0
11
70.0579843701892
21
547.952514619568
31
0.0
  0
LINE
 8
GROUP0
10
74.0437260176347
20
554.718961217598
30
0.0
11
72.6758453357817
21
552.486782819126
31
0.0
  0
LINE
 8
GROUP0
10
123.99522920459
20
603.806166687934
30
0.0
11
121.763050806118
21
602.438286006082
31
0.0
  0
LINE
 8
GROUP0
10
79.8983912848564
20
563.398859426489
30
0.0
11
78.3781337977498
21
561.267537035275
31
0.0
  0
LINE
 8
GROUP0
10
97.0521848722489
20
583.132041633415
30
0.0
11
95.1849232631164
21
581.2970887606
31
0.0
  0
LINE
 8
GROUP0
10
119.555085188844
20
601.031656774431
30
0.0
11
117.372004920487
21
599.586707465874
31
0.0
  0
LINE
 8
GROUP0
10
102.842086092522
20
588.437508616033
30
0.0
11
100.88134948727
21
586.702795404227
31
0.0
  0
LINE
 8
GROUP0
10
117.372004920487
20
599.586707465874
30
0.0
11
115.214474988442
21
598.103878225966
31
0.0
  0
LINE
 8
GROUP0
10
106.852881783623
20
591.802965801163
30
0.0
11
104.832798988118
21
590.137738050464
31
0.0
  0
LINE
 8
GROUP0
10
115.214474988442
20
598.103878225966
30
0.0
11
113.083152597228
21
596.58362073886
31
0.0
  0
LINE
 8
GROUP0
10
100.88134948727
20
586.702795404227
30
0.0
11
98.9511864317238
21
584.934126825493
31
0.0
  0
LINE
 8
GROUP0
10
83.0493274000902
20
567.580292881466
30
0.0
11
81.4556139340046
21
565.503325055425
31
0.0
  0
LINE
 8
GROUP0
10
108.90171914225
20
593.432684623626
30
0.0
11
106.852881783623
21
591.802965801163
31
0.0
  0
LINE
 8
GROUP0
10
121.763050806118
20
602.438286006082
30
0.0
11
119.555085188844
21
601.031656774431
31
0.0
  0
LINE
 8
GROUP0
10
113.083152597228
20
596.58362073886
30
0.0
11
110.978686968291
21
595.026398089712
31
0.0
  0
LINE
 8
GROUP0
10
95.1849232631164
20
581.2970887606
30
0.0
11
93.3499703903009
21
579.429827151467
31
0.0
  0
LINE
 8
GROUP0
10
110.978686968291
20
595.026398089712
30
0.0
11
108.90171914225
21
593.432684623626
31
0.0
  0
LINE
 8
GROUP0
10
72.6758453357817
20
552.486782819126
30
0.0
11
71.3471298734327
21
550.231071582618
31
0.0
  0
LINE
 8
GROUP0
10
128.529497404148
20
606.424027653527
30
0.0
11
126.250940441099
21
605.134882150283
31
0.0
  0
LINE
 8
GROUP0
10
98.9511864317238
20
584.934126825493
30
0.0
11
97.0521848722489
21
583.132041633415
31
0.0
  0
LINE
 8
GROUP0
10
135.495268422737
20
610.050178527493
30
0.0
11
133.152365480167
21
608.882050210873
31
0.0
  0
LINE
 8
GROUP0
10
145.059951428712
20
614.308649767636
30
0.0
11
142.641271167707
21
613.306799600484
31
0.0
  0
LINE
 8
GROUP0
10
130.830206023215
20
607.673210511457
30
0.0
11
128.529497404148
21
606.424027653527
31
0.0
  0
LINE
 8
GROUP0
10
133.152365480167
20
608.882050210873
30
0.0
11
130.830206023215
21
607.673210511457
31
0.0
  0
LINE
 8
GROUP0
10
137.858201179994
20
611.177239638115
30
0.0
11
135.495268422737
21
610.050178527493
31
0.0
  0
LINE
 8
GROUP0
10
140.240443979729
20
612.262890229008
30
0.0
11
137.858201179994
21
611.177239638115
31
0.0
  0
LINE
 8
GROUP0
10
68.8088015122595
20
404.810337164734
30
0.0
11
70.0579843701892
21
402.509628545667
31
0.0
  0
LINE
 8
GROUP0
10
71.3471298734327
20
400.231071582618
30
0.0
11
72.6758453357817
21
397.97536034611
31
0.0
  0
LINE
 8
GROUP0
10
66.4318334962235
20
409.475399564256
30
0.0
11
67.5999618128434
21
407.132496621686
31
0.0
  0
LINE
 8
GROUP0
10
61.2138764665183
20
421.475879150823
30
0.0
11
62.1733622560804
21
419.040082570231
31
0.0
  0
LINE
 8
GROUP0
10
88.0445034076827
20
376.822217234042
30
0.0
11
89.7792166194894
21
374.861480628789
31
0.0
  0
LINE
 8
GROUP0
10
60.2970473232123
20
423.928050083767
30
0.0
11
61.2138764665183
21
421.475879150823
31
0.0
  0
LINE
 8
GROUP0
10
64.2191217947084
20
414.220575121248
30
0.0
11
65.304772385601
21
411.838332321513
31
0.0
  0
LINE
 8
GROUP0
10
76.8953045578423
20
391.352136062006
30
0.0
11
78.3781337977498
21
389.194606129961
31
0.0
  0
LINE
 8
GROUP0
10
84.6790462225529
20
380.833012925142
30
0.0
11
86.3442739732518
21
378.812930129637
31
0.0
  0
LINE
 8
GROUP0
10
65.304772385601
20
411.838332321513
30
0.0
11
66.4318334962235
21
409.475399564256
31
0.0
  0
LINE
 8
GROUP0
10
75.4503552492849
20
393.535216330364
30
0.0
11
76.8953045578423
21
391.352136062006
31
0.0
  0
LINE
 8
GROUP0
10
72.6758453357817
20
397.97536034611
30
0.0
11
74.0437260176346
21
395.743181947637
31
0.0
  0
LINE
 8
GROUP0
10
86.3442739732518
20
378.812930129637
30
0.0
11
88.0445034076827
21
376.822217234042
31
0.0
  0
LINE
 8
GROUP0
10
78.3781337977498
20
389.194606129961
30
0.0
11
79.8983912848564
21
387.063283738747
31
0.0
  0
LINE
 8
GROUP0
10
102.842086092522
20
362.024634549202
30
0.0
11
104.832798988118
21
360.324405114771
31
0.0
  0
LINE
 8
GROUP0
10
63.1752124232325
20
416.621402309227
30
0.0
11
64.2191217947084
21
414.220575121248
31
0.0
  0
LINE
 8
GROUP0
10
62.1733622560804
20
419.040082570231
30
0.0
11
63.1752124232325
21
416.621402309227
31
0.0
  0
LINE
 8
GROUP0
10
67.5999618128434
20
407.132496621686
30
0.0
11
68.8088015122595
21
404.810337164734
31
0.0
  0
LINE
 8
GROUP0
10
95.1849232631164
20
369.165054404636
30
0.0
11
97.0521848722489
21
367.33010153182
31
0.0
  0
LINE
 8
GROUP0
10
106.852881783623
20
358.659177364072
30
0.0
11
108.90171914225
21
357.029458541609
31
0.0
  0
LINE
 8
GROUP0
10
98.9511864317237
20
365.528016339742
30
0.0
11
100.88134948727
21
363.759347761009
31
0.0
  0
LINE
 8
GROUP0
10
70.0579843701892
20
402.509628545667
30
0.0
11
71.3471298734327
21
400.231071582618
31
0.0
  0
LINE
 8
GROUP0
10
74.0437260176346
20
395.743181947637
30
0.0
11
75.4503552492849
21
393.535216330364
31
0.0
  0
LINE
 8
GROUP0
10
52.0726561358575
20
459.55180209247
30
0.0
11
52.3690176949002
21
456.950670071846
31
0.0
  0
LINE
 8
GROUP0
10
51.4565102279125
20
467.380678146176
30
0.0
11
51.6163329021249
21
464.767600520999
31
0.0
  0
LINE
 8
GROUP0
10
52.710730129863
20
454.355106438608
30
0.0
11
53.0976893518279
21
451.765901826583
31
0.0
  0
LINE
 8
GROUP0
10
51.4565102279125
20
483.081465019059
30
0.0
11
51.3423163882342
21
480.465996087993
31
0.0
  0
LINE
 8
GROUP0
10
51.3423163882342
20
469.996147077243
30
0.0
11
51.4565102279125
21
467.380678146176
31
0.0
  0
LINE
 8
GROUP0
10
51.6163329021249
20
464.767600520999
30
0.0
11
51.8217357273367
21
462.157710170469
31
0.0
  0
LINE
 8
GROUP0
10
59.423154101201
20
426.395848414044
30
0.0
11
60.2970473232123
21
423.928050083767
31
0.0
  0
LINE
 8
GROUP0
10
55.0954307233132
20
441.488413431038
30
0.0
11
55.7065814996991
21
438.942787242668
31
0.0
  0
LINE
 8
GROUP0
10
54.5288003310277
20
444.044317959954
30
0.0
11
55.0954307233132
21
441.488413431038
31
0.0
  0
LINE
 8
GROUP0
10
55.7065814996991
20
438.942787242668
30
0.0
11
56.3620664977383
21
436.40821481724
31
0.0
  0
LINE
 8
GROUP0
10
52.3690176949002
20
493.51147309339
30
0.0
11
52.0726561358575
21
490.910341072766
31
0.0
  0
LINE
 8
GROUP0
10
58.5924629968255
20
428.878522426376
30
0.0
11
59.423154101201
21
426.395848414044
31
0.0
  0
LINE
 8
GROUP0
10
56.3620664977383
20
436.40821481724
30
0.0
11
57.0616860503507
21
433.885468210068
31
0.0
  0
LINE
 8
GROUP0
10
57.0616860503507
20
433.885468210068
30
0.0
11
57.8052270466432
21
431.375315874207
31
0.0
  0
LINE
 8
GROUP0
10
53.5297774892673
20
449.183844932578
30
0.0
11
54.0068629239489
21
446.609722276136
31
0.0
  0
LINE
 8
GROUP0
10
52.0726561358575
20
490.910341072766
30
0.0
11
51.8217357273367
21
488.304432994766
31
0.0
  0
LINE
 8
GROUP0
10
53.5297774892673
20
501.278298232657
30
0.0
11
53.0976893518279
21
498.696241338652
31
0.0
  0
LINE
 8
GROUP0
10
53.0976893518279
20
498.696241338652
30
0.0
11
52.710730129863
21
496.107036726628
31
0.0
  0
LINE
 8
GROUP0
10
57.8052270466432
20
431.375315874207
30
0.0
11
58.5924629968255
21
428.878522426376
31
0.0
  0
LINE
 8
GROUP0
10
54.0068629239489
20
446.609722276136
30
0.0
11
54.5288003310277
21
444.044317959954
31
0.0
  0
LINE
 8
GROUP0
10
52.3690176949002
20
456.950670071846
30
0.0
11
52.710730129863
21
454.355106438608
31
0.0
  0
LINE
 8
GROUP0
10
51.8217357273367
20
462.157710170469
30
0.0
11
52.0726561358575
21
459.55180209247
31
0.0
  0
LINE
 8
GROUP0
10
51.8217357273367
20
488.304432994766
30
0.0
11
51.6163329021249
21
485.694542644236
31
0.0
  0
LINE
 8
GROUP0
10
51.6163329021249
20
485.694542644236
30
0.0
11
51.4565102279125
21
483.081465019059
31
0.0
  0
LINE
 8
GROUP0
10
54.0068629239489
20
503.852420889099
30
0.0
11
53.5297774892673
21
501.278298232657
31
0.0
  0
LINE
 8
GROUP0
10
52.710730129863
20
496.107036726628
30
0.0
11
52.3690176949002
21
493.51147309339
31
0.0
  0
LINE
 8
GROUP0
10
54.5288003310277
20
506.417825205282
30
0.0
11
54.0068629239489
21
503.852420889099
31
0.0
  0
LINE
 8
GROUP0
10
51.2737861676399
20
472.613210617025
30
0.0
11
51.3423163882342
21
469.996147077243
31
0.0
  0
LINE
 8
GROUP0
10
51.2509404410985
20
475.231071582618
30
0.0
11
51.2737861676399
21
472.613210617025
31
0.0
  0
LINE
 8
GROUP0
10
53.0976893518279
20
451.765901826583
30
0.0
11
53.5297774892673
21
449.183844932578
31
0.0
  0
LINE
 8
GROUP0
10
327.051525632912
20
393.535216330364
30
0.0
11
328.458154864562
21
395.743181947637
31
0.0
  0
LINE
 8
GROUP0
10
325.606576324355
20
391.352136062006
30
0.0
11
327.051525632912
21
393.535216330364
31
0.0
  0
LINE
 8
GROUP0
10
309.151910491896
20
371.032316013768
30
0.0
11
310.953995683974
21
372.931317573243
31
0.0
  0
LINE
 8
GROUP0
10
317.822834659644
20
380.833012925142
30
0.0
11
319.452553482107
21
382.881850283769
31
0.0
  0
LINE
 8
GROUP0
10
314.457377474514
20
376.822217234042
30
0.0
11
316.157606908945
21
378.812930129637
31
0.0
  0
LINE
 8
GROUP0
10
312.722664262708
20
374.861480628789
30
0.0
11
314.457377474514
21
376.822217234042
31
0.0
  0
LINE
 8
GROUP0
10
269.349515402031
20
341.580092954363
30
0.0
11
271.671674858982
21
342.788932653779
31
0.0
  0
LINE
 8
GROUP0
10
287.287405893755
20
352.358264939269
30
0.0
11
289.418728284969
21
353.878522426376
31
0.0
  0
LINE
 8
GROUP0
10
303.550694450473
20
365.528016339742
30
0.0
11
305.449696009948
21
367.33010153182
31
0.0
  0
LINE
 8
GROUP0
10
267.00661245946
20
340.411964637743
30
0.0
11
269.349515402031
21
341.580092954363
31
0.0
  0
LINE
 8
GROUP0
10
293.600161739947
20
357.029458541609
30
0.0
11
295.648999098574
21
358.659177364072
31
0.0
  0
LINE
 8
GROUP0
10
285.129875961711
20
350.875435699361
30
0.0
11
287.287405893755
21
352.358264939269
31
0.0
  0
LINE
 8
GROUP0
10
299.659794789675
20
362.024634549202
30
0.0
11
301.620531394927
21
363.759347761008
31
0.0
  0
LINE
 8
GROUP0
10
273.972383478049
20
344.038115511708
30
0.0
11
276.250940441099
21
345.327261014952
31
0.0
  0
LINE
 8
GROUP0
10
282.946795693353
20
349.430486390804
30
0.0
11
285.129875961711
21
350.875435699361
31
0.0
  0
LINE
 8
GROUP0
10
297.669081894079
20
360.324405114771
30
0.0
11
299.659794789675
21
362.024634549202
31
0.0
  0
LINE
 8
GROUP0
10
278.506651677607
20
346.655976477301
30
0.0
11
280.738830076079
21
348.023857159154
31
0.0
  0
LINE
 8
GROUP0
10
307.316957619081
20
369.165054404636
30
0.0
11
309.151910491896
21
371.032316013768
31
0.0
  0
LINE
 8
GROUP0
10
310.953995683974
20
372.931317573243
30
0.0
11
312.722664262708
21
374.861480628789
31
0.0
  0
LINE
 8
GROUP0
10
316.157606908945
20
378.812930129637
30
0.0
11
317.822834659644
21
380.833012925142
31
0.0
  0
LINE
 8
GROUP0
10
305.449696009948
20
367.33010153182
30
0.0
11
307.316957619081
21
369.165054404636
31
0.0
  0
LINE
 8
GROUP0
10
301.620531394927
20
363.759347761008
30
0.0
11
303.550694450473
21
365.528016339742
31
0.0
  0
LINE
 8
GROUP0
10
245.106696149509
20
331.785358188162
30
0.0
11
247.603489597341
21
332.572594138345
31
0.0
  0
LINE
 8
GROUP0
10
264.643679702203
20
339.28490352712
30
0.0
11
267.00661245946
21
340.411964637743
31
0.0
  0
LINE
 8
GROUP0
10
271.671674858982
20
342.788932653779
30
0.0
11
273.972383478049
21
344.038115511708
31
0.0
  0
LINE
 8
GROUP0
10
199.250940441099
20
398.231071582618
30
9.02389274415327e-014
11
199.250940441099
21
473.231071582618
31
9.02389274415327e-014
  0
LINE
 8
GROUP0
10
262.261436902468
20
338.199252936228
30
0.0
11
264.643679702203
21
339.28490352712
31
0.0
  0
LINE
 8
GROUP0
10
295.648999098574
20
358.659177364072
30
0.0
11
297.669081894079
21
360.324405114771
31
0.0
  0
LINE
 8
GROUP0
10
276.250940441099
20
345.327261014952
30
0.0
11
278.506651677607
21
346.655976477301
31
0.0
  0
LINE
 8
GROUP0
10
280.738830076079
20
348.023857159154
30
0.0
11
282.946795693353
21
349.430486390804
31
0.0
  0
LINE
 8
GROUP0
10
124.250940441099
20
473.231071582618
30
9.02389274415327e-014
11
124.250940441099
21
477.231071582618
31
9.02389274415327e-014
  0
LINE
 8
GROUP0
10
255.006132872894
20
335.194007608037
30
0.0
11
257.441929453485
21
336.1534933976
31
0.0
  0
LINE
 8
GROUP0
10
252.553961939949
20
334.277178464731
30
0.0
11
255.006132872894
21
335.194007608037
31
0.0
  0
LINE
 8
GROUP0
10
289.418728284969
20
353.878522426376
30
0.0
11
291.523193913906
21
355.435745075524
31
0.0
  0
LINE
 8
GROUP0
10
124.250940441099
20
477.231071582618
30
9.02389274415327e-014
11
199.250940441099
21
477.231071582618
31
9.02389274415327e-014
  0
LINE
 8
GROUP0
10
257.441929453485
20
336.1534933976
30
0.0
11
259.86060971449
21
337.155343564752
31
0.0
  0
LINE
 8
GROUP0
10
199.250940441099
20
473.231071582618
30
9.02389274415327e-014
11
124.250940441099
21
473.231071582618
31
9.02389274415327e-014
  0
LINE
 8
GROUP0
10
291.523193913906
20
355.435745075524
30
0.0
11
293.600161739947
21
357.029458541609
31
0.0
  0
LINE
 8
GROUP0
10
247.603489597341
20
332.572594138345
30
0.0
11
250.086163609672
21
333.40328524272
31
0.0
  0
LINE
 8
GROUP0
10
203.250940441099
20
477.231071582618
30
9.02389274415327e-014
11
278.250940441099
21
477.231071582618
31
9.02389274415327e-014
  0
LINE
 8
GROUP0
10
259.86060971449
20
337.155343564752
30
0.0
11
262.261436902468
21
338.199252936228
31
0.0
  0
LINE
 8
GROUP0
10
203.250940441099
20
473.231071582618
30
9.02389274415327e-014
11
203.250940441099
21
398.231071582618
31
9.02389274415327e-014
  0
LINE
 8
GROUP0
10
199.250940441099
20
552.231071582618
30
9.02389274415327e-014
11
203.250940441099
21
552.231071582618
31
9.02389274415327e-014
  0
LINE
 8
GROUP0
10
199.250940441099
20
477.231071582618
30
9.02389274415327e-014
11
199.250940441099
21
552.231071582618
31
9.02389274415327e-014
  0
LINE
 8
GROUP0
10
250.086163609672
20
333.40328524272
30
0.0
11
252.553961939949
21
334.277178464731
31
0.0
  0
LINE
 8
GROUP0
10
203.250940441099
20
552.231071582618
30
9.02389274415327e-014
11
203.250940441099
21
477.231071582618
31
9.02389274415327e-014
  0
LINE
 8
GROUP0
10
278.250940441099
20
473.231071582618
30
9.02389274415327e-014
11
203.250940441099
21
473.231071582618
31
9.02389274415327e-014
  0
LINE
 8
GROUP0
10
278.250940441099
20
477.231071582618
30
9.02389274415327e-014
11
278.250940441099
21
473.231071582618
31
9.02389274415327e-014
  0
LINE
 8
GROUP0
10
203.250940441099
20
398.231071582618
30
9.02389274415327e-014
11
199.250940441099
21
398.231071582618
31
9.02389274415327e-014
  0
LINE
 8
GROUP0
10
232.437694063762
20
328.508931472547
30
0.0
11
234.993598592678
21
329.075561864832
31
0.0
  0
LINE
 8
GROUP0
10
242.596543813648
20
331.04181719187
30
0.0
11
245.106696149509
21
331.785358188162
31
0.0
  0
LINE
 8
GROUP0
10
240.073797206477
20
330.342197639257
30
0.0
11
242.596543813648
21
331.04181719187
31
0.0
  0
LINE
 8
GROUP0
10
237.539224781049
20
329.686712641218
30
0.0
11
240.073797206477
21
330.342197639257
31
0.0
  0
LINE
 8
GROUP0
10
219.531341951871
20
326.349148836419
30
0.0
11
222.126905585108
21
326.690861271382
31
0.0
  0
LINE
 8
GROUP0
10
193.400547004657
20
325.436641369432
30
0.0
11
196.016015935723
21
325.322447529753
31
0.0
  0
LINE
 8
GROUP0
10
185.571670950951
20
326.052787277377
30
0.0
11
188.17757902895
21
325.801866868856
31
0.0
  0
LINE
 8
GROUP0
10
229.87228974758
20
327.986994065468
30
0.0
11
232.437694063762
21
328.508931472547
31
0.0
  0
LINE
 8
GROUP0
10
211.714411502717
20
325.596464043644
30
0.0
11
214.324301853247
21
325.801866868856
31
0.0
  0
LINE
 8
GROUP0
10
196.016015935723
20
325.322447529753
30
0.0
11
198.633079475506
21
325.253917309159
31
0.0
  0
LINE
 8
GROUP0
10
190.78746937948
20
325.596464043644
30
0.0
11
193.400547004657
21
325.436641369432
31
0.0
  0
LINE
 8
GROUP0
10
188.17757902895
20
325.801866868856
30
0.0
11
190.78746937948
21
325.596464043644
31
0.0
  0
LINE
 8
GROUP0
10
224.716110197133
20
327.077820493347
30
0.0
11
227.298167091138
21
327.509908630786
31
0.0
  0
LINE
 8
GROUP0
10
234.993598592678
20
329.075561864832
30
0.0
11
237.539224781049
21
329.686712641218
31
0.0
  0
LINE
 8
GROUP0
10
227.298167091138
20
327.509908630786
30
0.0
11
229.87228974758
21
327.986994065468
31
0.0
  0
LINE
 8
GROUP0
10
201.250940441099
20
325.231071582618
30
0.0
11
203.868801406691
21
325.253917309159
31
0.0
  0
LINE
 8
GROUP0
10
154.898391284856
20
332.572594138345
30
0.0
11
157.395184732688
21
331.785358188162
31
0.0
  0
LINE
 8
GROUP0
10
172.629591134617
20
327.986994065468
30
0.0
11
175.203713791059
21
327.509908630786
31
0.0
  0
LINE
 8
GROUP0
10
222.126905585108
20
326.690861271382
30
0.0
11
224.716110197133
21
327.077820493347
31
0.0
  0
LINE
 8
GROUP0
10
209.10133387754
20
325.436641369432
30
0.0
11
211.714411502717
21
325.596464043644
31
0.0
  0
LINE
 8
GROUP0
10
198.633079475506
20
325.253917309159
30
0.0
11
201.250940441099
21
325.231071582618
31
0.0
  0
LINE
 8
GROUP0
10
147.495748009303
20
335.194007608037
30
0.0
11
149.947918942248
21
334.277178464731
31
0.0
  0
LINE
 8
GROUP0
10
167.508282289519
20
329.075561864832
30
0.0
11
170.064186818435
21
328.508931472547
31
0.0
  0
LINE
 8
GROUP0
10
159.905337068549
20
331.04181719187
30
0.0
11
162.42808367572
21
330.342197639257
31
0.0
  0
LINE
 8
GROUP0
10
180.374975297089
20
326.690861271382
30
0.0
11
182.970538930326
21
326.349148836419
31
0.0
  0
LINE
 8
GROUP0
10
182.970538930326
20
326.349148836419
30
0.0
11
185.571670950951
21
326.052787277377
31
0.0
  0
LINE
 8
GROUP0
10
149.947918942248
20
334.277178464731
30
0.0
11
152.415717272525
21
333.40328524272
31
0.0
  0
LINE
 8
GROUP0
10
214.324301853247
20
325.801866868856
30
0.0
11
216.930209931246
21
326.052787277377
31
0.0
  0
LINE
 8
GROUP0
10
206.485864946474
20
325.322447529753
30
0.0
11
209.10133387754
21
325.436641369432
31
0.0
  0
LINE
 8
GROUP0
10
203.868801406691
20
325.253917309159
30
0.0
11
206.485864946474
21
325.322447529753
31
0.0
  0
LINE
 8
GROUP0
10
216.930209931246
20
326.052787277377
30
0.0
11
219.531341951871
21
326.349148836419
31
0.0
  0
LINE
 8
GROUP0
10
145.059951428712
20
336.1534933976
30
0.0
11
147.495748009303
21
335.194007608037
31
0.0
  0
LINE
 8
GROUP0
10
121.763050806118
20
348.023857159154
30
0.0
11
123.99522920459
21
346.655976477301
31
0.0
  0
LINE
 8
GROUP0
10
175.203713791059
20
327.509908630786
30
0.0
11
177.785770685064
21
327.077820493347
31
0.0
  0
LINE
 8
GROUP0
10
152.415717272525
20
333.40328524272
30
0.0
11
154.898391284856
21
332.572594138345
31
0.0
  0
LINE
 8
GROUP0
10
170.064186818435
20
328.508931472547
30
0.0
11
172.629591134617
21
327.986994065468
31
0.0
  0
LINE
 8
GROUP0
10
177.785770685064
20
327.077820493347
30
0.0
11
180.374975297089
21
326.690861271382
31
0.0
  0
LINE
 8
GROUP0
10
108.90171914225
20
357.029458541609
30
0.0
11
110.978686968291
21
355.435745075524
31
0.0
  0
LINE
 8
GROUP0
10
157.395184732688
20
331.785358188162
30
0.0
11
159.905337068549
21
331.04181719187
31
0.0
  0
LINE
 8
GROUP0
10
119.555085188845
20
349.430486390804
30
0.0
11
121.763050806118
21
348.023857159154
31
0.0
  0
LINE
 8
GROUP0
10
113.083152597228
20
353.878522426376
30
0.0
11
115.214474988442
21
352.358264939269
31
0.0
  0
LINE
 8
GROUP0
10
164.962656101148
20
329.686712641218
30
0.0
11
167.508282289519
21
329.075561864832
31
0.0
  0
LINE
 8
GROUP0
10
115.214474988442
20
352.358264939269
30
0.0
11
117.372004920487
21
350.875435699361
31
0.0
  0
LINE
 8
GROUP0
10
123.99522920459
20
346.655976477301
30
0.0
11
126.250940441098
21
345.327261014952
31
0.0
  0
LINE
 8
GROUP0
10
140.240443979729
20
338.199252936228
30
0.0
11
142.641271167707
21
337.155343564752
31
0.0
  0
LINE
 8
GROUP0
10
142.641271167707
20
337.155343564752
30
0.0
11
145.059951428712
21
336.1534933976
31
0.0
  0
LINE
 8
GROUP0
10
162.42808367572
20
330.342197639257
30
0.0
11
164.962656101148
21
329.686712641218
31
0.0
  0
LINE
 8
GROUP0
10
110.978686968291
20
355.435745075524
30
0.0
11
113.083152597228
21
353.878522426376
31
0.0
  0
LINE
 8
GROUP0
10
133.152365480167
20
341.580092954363
30
0.0
11
135.495268422737
21
340.411964637743
31
0.0
  0
LINE
 8
GROUP0
10
79.8983912848564
20
387.063283738747
30
0.0
11
81.4556139340046
21
384.95881810981
31
0.0
  0
LINE
 8
GROUP0
10
83.0493274000902
20
382.881850283769
30
0.0
11
84.6790462225529
21
380.833012925142
31
0.0
  0
LINE
 8
GROUP0
10
89.7792166194894
20
374.861480628789
30
0.0
11
91.5478851982229
21
372.931317573243
31
0.0
  0
LINE
 8
GROUP0
10
137.858201179994
20
339.28490352712
30
0.0
11
140.240443979729
21
338.199252936228
31
0.0
  0
LINE
 8
GROUP0
10
104.832798988118
20
360.324405114771
30
0.0
11
106.852881783623
21
358.659177364072
31
0.0
  0
LINE
 8
GROUP0
10
135.495268422737
20
340.411964637743
30
0.0
11
137.858201179994
21
339.28490352712
31
0.0
  0
LINE
 8
GROUP0
10
97.0521848722489
20
367.33010153182
30
0.0
11
98.9511864317237
21
365.528016339742
31
0.0
  0
LINE
 8
GROUP0
10
100.88134948727
20
363.759347761009
30
0.0
11
102.842086092522
21
362.024634549202
31
0.0
  0
LINE
 8
GROUP0
10
93.3499703903009
20
371.032316013768
30
0.0
11
95.1849232631164
21
369.165054404636
31
0.0
  0
LINE
 8
GROUP0
10
130.830206023215
20
342.788932653779
30
0.0
11
133.152365480167
21
341.580092954363
31
0.0
  0
LINE
 8
GROUP0
10
91.5478851982229
20
372.931317573243
30
0.0
11
93.3499703903009
21
371.032316013768
31
0.0
  0
LINE
 8
GROUP0
10
126.250940441098
20
345.327261014952
30
0.0
11
128.529497404148
21
344.038115511708
31
0.0
  0
LINE
 8
GROUP0
10
117.372004920487
20
350.875435699361
30
0.0
11
119.555085188845
21
349.430486390804
31
0.0
  0
LINE
 8
GROUP0
10
81.4556139340046
20
384.95881810981
30
0.0
11
83.0493274000902
21
382.881850283769
31
0.0
  0
LINE
 8
GROUP0
10
128.529497404148
20
344.038115511708
30
0.0
11
130.830206023215
21
342.788932653779
31
0.0
  0
LINE
 8
GROUP0
10
303.550694450473
20
584.934126825493
30
0.0
11
301.620531394927
21
586.702795404227
31
0.0
  0
LINE
 8
GROUP0
10
322.603489597341
20
563.398859426489
30
0.0
11
321.046266948192
21
565.503325055425
31
0.0
  0
LINE
 8
GROUP0
10
305.449696009948
20
583.132041633415
30
0.0
11
303.550694450473
21
584.934126825493
31
0.0
  0
LINE
 8
GROUP0
10
312.722664262708
20
575.600662536446
30
0.0
11
310.953995683974
21
577.530825591992
31
0.0
  0
LINE
 8
GROUP0
10
324.123747084447
20
561.267537035275
30
0.0
11
322.603489597341
21
563.398859426489
31
0.0
  0
LINE
 8
GROUP0
10
319.452553482107
20
567.580292881466
30
0.0
11
317.822834659644
21
569.629130240093
31
0.0
  0
LINE
 8
GROUP0
10
317.822834659644
20
569.629130240093
30
0.0
11
316.157606908945
21
571.649213035599
31
0.0
  0
LINE
 8
GROUP0
10
327.051525632912
20
556.926926834872
30
0.0
11
325.606576324355
21
559.11000710323
31
0.0
  0
LINE
 8
GROUP0
10
325.606576324355
20
559.11000710323
30
0.0
11
324.123747084447
21
561.267537035275
31
0.0
  0
LINE
 8
GROUP0
10
328.458154864562
20
554.718961217598
30
0.0
11
327.051525632912
21
556.926926834872
31
0.0
  0
LINE
 8
GROUP0
10
329.826035546415
20
552.486782819126
30
0.0
11
328.458154864562
21
554.718961217598
31
0.0
  0
LINE
 8
GROUP0
10
309.151910491896
20
579.429827151467
30
0.0
11
307.316957619081
21
581.2970887606
31
0.0
  0
LINE
 8
GROUP0
10
339.326668458965
20
533.840740856009
30
0.0
11
338.282759087489
21
536.241568043988
31
0.0
  0
LINE
 8
GROUP0
10
332.443896512008
20
547.952514619568
30
0.0
11
331.154751008764
21
550.231071582618
31
0.0
  0
LINE
 8
GROUP0
10
331.154751008764
20
550.231071582618
30
0.0
11
329.826035546415
21
552.486782819126
31
0.0
  0
LINE
 8
GROUP0
10
316.157606908945
20
571.649213035599
30
0.0
11
314.457377474514
21
573.639925931194
31
0.0
  0
LINE
 8
GROUP0
10
351.250940441099
20
475.231071582618
30
0.0
11
351.228094714557
21
477.84893254821
31
0.0
  0
LINE
 8
GROUP0
10
338.282759087489
20
536.241568043988
30
0.0
11
337.197108496596
21
538.623810843723
31
0.0
  0
LINE
 8
GROUP0
10
336.070047385974
20
540.986743600979
30
0.0
11
334.901919069354
21
543.32964654355
31
0.0
  0
LINE
 8
GROUP0
10
343.078726780996
20
524.066294751191
30
0.0
11
342.204833558985
21
526.534093081468
31
0.0
  0
LINE
 8
GROUP0
10
343.909417885372
20
521.58362073886
30
0.0
11
343.078726780996
21
524.066294751191
31
0.0
  0
LINE
 8
GROUP0
10
344.696653835554
20
519.086827291028
30
0.0
11
343.909417885372
21
521.58362073886
31
0.0
  0
LINE
 8
GROUP0
10
337.197108496596
20
538.623810843723
30
0.0
11
336.070047385974
21
540.986743600979
31
0.0
  0
LINE
 8
GROUP0
10
334.901919069354
20
543.32964654355
30
0.0
11
333.693079369938
21
545.651806000501
31
0.0
  0
LINE
 8
GROUP0
10
340.328518626117
20
531.422060595005
30
0.0
11
339.326668458965
21
533.840740856009
31
0.0
  0
LINE
 8
GROUP0
10
349.404191530369
20
498.696241338652
30
0.0
11
348.97210339293
21
501.278298232657
31
0.0
  0
LINE
 8
GROUP0
10
350.42922474634
20
490.910341072766
30
0.0
11
350.132863187297
21
493.51147309339
31
0.0
  0
LINE
 8
GROUP0
10
341.288004415679
20
528.986264014413
30
0.0
11
340.328518626117
21
531.422060595005
31
0.0
  0
LINE
 8
GROUP0
10
333.693079369938
20
545.651806000501
30
0.0
11
332.443896512008
21
547.952514619568
31
0.0
  0
LINE
 8
GROUP0
10
345.440194831846
20
516.576674955168
30
0.0
11
344.696653835554
21
519.086827291028
31
0.0
  0
LINE
 8
GROUP0
10
347.406450158884
20
508.973729734197
30
0.0
11
346.795299382498
21
511.519355922568
31
0.0
  0
LINE
 8
GROUP0
10
351.228094714557
20
477.84893254821
30
0.0
11
351.159564493963
21
480.465996087993
31
0.0
  0
LINE
 8
GROUP0
10
342.204833558985
20
526.534093081468
30
0.0
11
341.288004415679
21
528.986264014413
31
0.0
  0
LINE
 8
GROUP0
10
350.132863187297
20
493.51147309339
30
0.0
11
349.791150752334
21
496.107036726628
31
0.0
  0
LINE
 8
GROUP0
10
350.42922474634
20
459.55180209247
30
0.0
11
350.68014515486
21
462.157710170469
31
0.0
  0
LINE
 8
GROUP0
10
350.885547980072
20
485.694542644236
30
0.0
11
350.68014515486
21
488.304432994766
31
0.0
  0
LINE
 8
GROUP0
10
351.045370654285
20
483.081465019059
30
0.0
11
350.885547980072
21
485.694542644236
31
0.0
  0
LINE
 8
GROUP0
10
346.139814384459
20
514.053928347996
30
0.0
11
345.440194831846
21
516.576674955168
31
0.0
  0
LINE
 8
GROUP0
10
350.68014515486
20
488.304432994766
30
0.0
11
350.42922474634
21
490.910341072766
31
0.0
  0
LINE
 8
GROUP0
10
347.406450158884
20
441.488413431038
30
0.0
11
347.973080551169
21
444.044317959954
31
0.0
  0
LINE
 8
GROUP0
10
351.228094714557
20
472.613210617025
30
0.0
11
351.250940441099
21
475.231071582618
31
0.0
  0
LINE
 8
GROUP0
10
346.795299382498
20
438.942787242667
30
0.0
11
347.406450158884
21
441.488413431038
31
0.0
  0
LINE
 8
GROUP0
10
346.139814384459
20
436.40821481724
30
0.0
11
346.795299382498
21
438.942787242667
31
0.0
  0
LINE
 8
GROUP0
10
348.97210339293
20
501.278298232657
30
0.0
11
348.495017958248
21
503.852420889099
31
0.0
  0
LINE
 8
GROUP0
10
346.795299382498
20
511.519355922568
30
0.0
11
346.139814384459
21
514.053928347996
31
0.0
  0
LINE
 8
GROUP0
10
351.159564493963
20
480.465996087993
30
0.0
11
351.045370654285
21
483.081465019059
31
0.0
  0
LINE
 8
GROUP0
10
347.973080551169
20
506.417825205282
30
0.0
11
347.406450158884
21
508.973729734197
31
0.0
  0
LINE
 8
GROUP0
10
348.495017958248
20
503.852420889099
30
0.0
11
347.973080551169
21
506.417825205282
31
0.0
  0
LINE
 8
GROUP0
10
349.791150752334
20
496.107036726628
30
0.0
11
349.404191530369
21
498.696241338652
31
0.0
  0
LINE
 8
GROUP0
10
349.404191530369
20
451.765901826583
30
0.0
11
349.791150752334
21
454.355106438608
31
0.0
  0
LINE
 8
GROUP0
10
341.288004415679
20
421.475879150823
30
0.0
11
342.204833558985
21
423.928050083767
31
0.0
  0
LINE
 8
GROUP0
10
348.495017958248
20
446.609722276136
30
0.0
11
348.97210339293
21
449.183844932578
31
0.0
  0
LINE
 8
GROUP0
10
349.791150752334
20
454.355106438608
30
0.0
11
350.132863187297
21
456.950670071846
31
0.0
  0
LINE
 8
GROUP0
10
337.197108496596
20
411.838332321513
30
0.0
11
338.282759087489
21
414.220575121248
31
0.0
  0
LINE
 8
GROUP0
10
350.132863187297
20
456.950670071846
30
0.0
11
350.42922474634
21
459.55180209247
31
0.0
  0
LINE
 8
GROUP0
10
350.68014515486
20
462.157710170469
30
0.0
11
350.885547980072
21
464.767600520999
31
0.0
  0
LINE
 8
GROUP0
10
343.909417885372
20
428.878522426376
30
0.0
11
344.696653835554
21
431.375315874207
31
0.0
  0
LINE
 8
GROUP0
10
342.204833558985
20
423.928050083767
30
0.0
11
343.078726780996
21
426.395848414044
31
0.0
  0
LINE
 8
GROUP0
10
333.693079369938
20
404.810337164734
30
0.0
11
334.901919069354
21
407.132496621686
31
0.0
  0
LINE
 8
GROUP0
10
332.443896512008
20
402.509628545667
30
0.0
11
333.693079369938
21
404.810337164734
31
0.0
  0
LINE
 8
GROUP0
10
338.282759087489
20
414.220575121248
30
0.0
11
339.326668458965
21
416.621402309227
31
0.0
  0
LINE
 8
GROUP0
10
343.078726780996
20
426.395848414044
30
0.0
11
343.909417885372
21
428.878522426376
31
0.0
  0
LINE
 8
GROUP0
10
345.440194831846
20
433.885468210068
30
0.0
11
346.139814384459
21
436.40821481724
31
0.0
  0
LINE
 8
GROUP0
10
336.070047385974
20
409.475399564256
30
0.0
11
337.197108496596
21
411.838332321513
31
0.0
  0
LINE
 8
GROUP0
10
350.885547980072
20
464.767600520999
30
0.0
11
351.045370654285
21
467.380678146176
31
0.0
  0
LINE
 8
GROUP0
10
351.045370654285
20
467.380678146176
30
0.0
11
351.159564493963
21
469.996147077243
31
0.0
  0
LINE
 8
GROUP0
10
347.973080551169
20
444.044317959954
30
0.0
11
348.495017958248
21
446.609722276136
31
0.0
  0
LINE
 8
GROUP0
10
329.826035546415
20
397.975360346109
30
0.0
11
331.154751008764
21
400.231071582618
31
0.0
  0
LINE
 8
GROUP0
10
351.159564493963
20
469.996147077243
30
0.0
11
351.228094714557
21
472.613210617025
31
0.0
  0
LINE
 8
GROUP0
10
340.328518626117
20
419.040082570231
30
0.0
11
341.288004415679
21
421.475879150823
31
0.0
  0
LINE
 8
GROUP0
10
334.901919069354
20
407.132496621686
30
0.0
11
336.070047385974
21
409.475399564256
31
0.0
  0
LINE
 8
GROUP0
10
348.97210339293
20
449.183844932578
30
0.0
11
349.404191530369
21
451.765901826583
31
0.0
  0
LINE
 8
GROUP0
10
331.154751008764
20
400.231071582618
30
0.0
11
332.443896512008
21
402.509628545667
31
0.0
  0
LINE
 8
GROUP0
10
321.046266948192
20
384.95881810981
30
0.0
11
322.603489597341
21
387.063283738747
31
0.0
  0
LINE
 8
GROUP0
10
324.123747084447
20
389.194606129961
30
0.0
11
325.606576324355
21
391.352136062006
31
0.0
  0
LINE
 8
GROUP0
10
322.603489597341
20
387.063283738747
30
0.0
11
324.123747084447
21
389.194606129961
31
0.0
  0
LINE
 8
GROUP0
10
319.452553482107
20
382.881850283769
30
0.0
11
321.046266948192
21
384.95881810981
31
0.0
  0
LINE
 8
GROUP0
10
328.458154864562
20
395.743181947637
30
0.0
11
329.826035546415
21
397.975360346109
31
0.0
  0
LINE
 8
GROUP0
10
339.326668458965
20
416.621402309227
30
0.0
11
340.328518626117
21
419.040082570231
31
0.0
  0
LINE
 8
GROUP0
10
344.696653835554
20
431.375315874207
30
0.0
11
345.440194831846
21
433.885468210068
31
0.0
  0
LINE
 8
GROUP0
10
368.685576641761
20
395.913694825601
30
0.0
11
369.389199554107
21
394.127443999834
31
0.0
  0
LINE
 8
GROUP0
10
366.185900400519
20
403.173281756083
30
0.0
11
366.763206763986
21
401.34229989434
31
0.0
  0
LINE
 8
GROUP0
10
370.123889676685
20
392.353745141764
30
0.0
11
370.889423215767
21
390.593138537246
31
0.0
  0
LINE
 8
GROUP0
10
369.389199554107
20
394.127443999834
30
0.0
11
370.123889676685
21
392.353745141764
31
0.0
  0
LINE
 8
GROUP0
10
365.640637003238
20
405.014060135714
30
0.0
11
366.185900400519
21
403.173281756083
31
0.0
  0
LINE
 8
GROUP0
10
370.889423215767
20
390.593138537246
30
0.0
11
371.685566982422
21
388.846160484107
31
0.0
  0
LINE
 8
GROUP0
10
365.127582664656
20
406.864074314307
30
0.0
11
365.640637003238
21
405.014060135714
31
0.0
  0
LINE
 8
GROUP0
10
368.013235270003
20
397.711953509761
30
0.0
11
368.685576641761
21
395.913694825601
31
0.0
  0
LINE
 8
GROUP0
10
367.372380240528
20
399.521672285297
30
0.0
11
368.013235270003
21
397.711953509761
31
0.0
  0
LINE
 8
GROUP0
10
366.763206763986
20
401.34229989434
30
0.0
11
367.372380240528
21
399.521672285297
31
0.0
  0
LINE
 8
GROUP0
10
361.39617708925
20
433.414404567483
30
0.0
11
361.446432584353
21
431.495224638309
31
0.0
  0
LINE
 8
GROUP0
10
361.982015065943
20
446.832300235026
30
0.0
11
361.798006766361
21
444.921300977827
31
0.0
  0
LINE
 8
GROUP0
10
363.40043337721
20
456.323158767004
30
0.0
11
363.05057072511
21
454.435468818947
31
0.0
  0
LINE
 8
GROUP0
10
361.982015065943
20
423.836038316142
30
0.0
11
362.199346875908
21
421.928541501018
31
0.0
  0
LINE
 8
GROUP0
10
364.198716430077
20
410.589553297759
30
0.0
11
364.646893666094
21
408.722760759621
31
0.0
  0
LINE
 8
GROUP0
10
361.446432584353
20
431.495224638309
30
0.0
11
361.53017473345
21
429.577214088861
31
0.0
  0
LINE
 8
GROUP0
10
363.783187475735
20
458.204455265538
30
0.0
11
363.40043337721
21
456.323158767004
31
0.0
  0
LINE
 8
GROUP0
10
367.372380240528
20
471.146666265872
30
0.0
11
366.763206763986
21
469.326038656828
31
0.0
  0
LINE
 8
GROUP0
10
370.123889676685
20
478.314593409404
30
0.0
11
369.389199554107
21
476.540894551335
31
0.0
  0
LINE
 8
GROUP0
10
366.185900400519
20
467.495056795085
30
0.0
11
365.640637003238
21
465.654278415454
31
0.0
  0
LINE
 8
GROUP0
10
361.379423556453
20
435.334169275584
30
0.0
11
361.39617708925
21
433.414404567483
31
0.0
  0
LINE
 8
GROUP0
10
361.53017473345
20
441.091124462308
30
0.0
11
361.446432584353
21
439.173113912859
31
0.0
  0
LINE
 8
GROUP0
10
364.646893666094
20
408.722760759621
30
0.0
11
365.127582664656
21
406.864074314307
31
0.0
  0
LINE
 8
GROUP0
10
361.53017473345
20
429.577214088861
30
0.0
11
361.647378027873
21
427.66095716373
31
0.0
  0
LINE
 8
GROUP0
10
361.798006766361
20
444.921300977827
30
0.0
11
361.647378027873
21
443.007381387438
31
0.0
  0
LINE
 8
GROUP0
10
362.199346875908
20
448.739797050151
30
0.0
11
361.982015065943
21
446.832300235026
31
0.0
  0
LINE
 8
GROUP0
10
362.44993599488
20
450.643210381191
30
0.0
11
362.199346875908
21
448.739797050151
31
0.0
  0
LINE
 8
GROUP0
10
364.198716430077
20
460.078785253409
30
0.0
11
363.783187475735
21
458.204455265538
31
0.0
  0
LINE
 8
GROUP0
10
361.39617708925
20
437.253933983686
30
0.0
11
361.379423556453
21
435.334169275584
31
0.0
  0
LINE
 8
GROUP0
10
361.647378027873
20
427.66095716373
30
0.0
11
361.798006766361
21
425.747037573342
31
0.0
  0
LINE
 8
GROUP0
10
362.199346875908
20
421.928541501018
30
0.0
11
362.44993599488
21
420.025128169977
31
0.0
  0
LINE
 8
GROUP0
10
363.783187475735
20
412.463883285631
30
0.0
11
364.198716430077
21
410.589553297759
31
0.0
  0
LINE
 8
GROUP0
10
364.646893666094
20
461.945577791548
30
0.0
11
364.198716430077
21
460.078785253409
31
0.0
  0
LINE
 8
GROUP0
10
362.44993599488
20
420.025128169977
30
0.0
11
362.733706090988
21
418.126378121159
31
0.0
  0
LINE
 8
GROUP0
10
363.05057072511
20
416.232869732222
30
0.0
11
363.40043337721
21
414.345179784164
31
0.0
  0
LINE
 8
GROUP0
10
361.798006766361
20
425.747037573342
30
0.0
11
361.982015065943
21
423.836038316142
31
0.0
  0
LINE
 8
GROUP0
10
361.647378027873
20
443.007381387438
30
0.0
11
361.53017473345
21
441.091124462308
31
0.0
  0
LINE
 8
GROUP0
10
363.40043337721
20
414.345179784164
30
0.0
11
363.783187475735
21
412.463883285631
31
0.0
  0
LINE
 8
GROUP0
10
363.05057072511
20
454.435468818947
30
0.0
11
362.733706090988
21
452.54196043001
31
0.0
  0
LINE
 8
GROUP0
10
362.733706090988
20
452.54196043001
30
0.0
11
362.44993599488
21
450.643210381191
31
0.0
  0
LINE
 8
GROUP0
10
362.733706090988
20
418.126378121159
30
0.0
11
363.05057072511
21
416.232869732222
31
0.0
  0
LINE
 8
GROUP0
10
361.446432584353
20
439.173113912859
30
0.0
11
361.39617708925
21
437.253933983686
31
0.0
  0
LINE
 8
GROUP0
10
368.013235270003
20
472.956385041408
30
0.0
11
367.372380240528
21
471.146666265872
31
0.0
  0
LINE
 8
GROUP0
10
413.088304490801
20
528.619459852791
30
0.0
11
411.4691297048
21
527.587931749581
31
0.0
  0
LINE
 8
GROUP0
10
372.512078463545
20
483.554995422383
30
0.0
11
371.685566982422
21
481.822178067061
31
0.0
  0
LINE
 8
GROUP0
10
371.685566982422
20
481.822178067061
30
0.0
11
370.889423215767
21
480.075200013922
31
0.0
  0
LINE
 8
GROUP0
10
366.763206763986
20
469.326038656828
30
0.0
11
366.185900400519
21
467.495056795085
31
0.0
  0
LINE
 8
GROUP0
10
368.685576641761
20
474.754643725567
30
0.0
11
368.013235270003
21
472.956385041408
31
0.0
  0
LINE
 8
GROUP0
10
376.116629140165
20
490.334169275584
30
0.0
11
375.17125577112
21
488.663227502681
31
0.0
  0
LINE
 8
GROUP0
10
383.529517451251
20
501.53382182231
30
0.0
11
382.387554175209
21
499.990547027756
31
0.0
  0
LINE
 8
GROUP0
10
382.387554175209
20
499.990547027756
30
0.0
11
381.272698684664
21
498.427577274199
31
0.0
  0
LINE
 8
GROUP0
10
378.094132979246
20
493.625288341237
30
0.0
11
377.091020479221
21
491.98835751569
31
0.0
  0
LINE
 8
GROUP0
10
370.889423215767
20
480.075200013922
30
0.0
11
370.123889676685
21
478.314593409404
31
0.0
  0
LINE
 8
GROUP0
10
390.930516378344
20
510.353988882459
30
0.0
11
389.63349275394
21
508.938535975059
31
0.0
  0
LINE
 8
GROUP0
10
381.272698684664
20
498.427577274199
30
0.0
11
380.185290575399
21
496.845388657366
31
0.0
  0
LINE
 8
GROUP0
10
385.893367796186
20
504.559412291066
30
0.0
11
384.698240659714
21
503.056931561407
31
0.0
  0
LINE
 8
GROUP0
10
389.63349275394
20
508.938535975059
30
0.0
11
388.361369731948
21
507.50066246454
31
0.0
  0
LINE
 8
GROUP0
10
392.252045519202
20
511.746590026074
30
0.0
11
390.930516378344
21
510.353988882459
31
0.0
  0
LINE
 8
GROUP0
10
380.185290575399
20
496.845388657366
30
0.0
11
379.125661082457
21
495.244463127237
31
0.0
  0
LINE
 8
GROUP0
10
373.368705895733
20
485.273124246934
30
0.0
11
372.512078463545
21
483.554995422383
31
0.0
  0
LINE
 8
GROUP0
10
387.114534813366
20
506.040806341104
30
0.0
11
385.893367796186
21
504.559412291066
31
0.0
  0
LINE
 8
GROUP0
10
393.597677625933
20
513.115915206105
30
0.0
11
392.252045519202
21
511.746590026074
31
0.0
  0
LINE
 8
GROUP0
10
394.967002805963
20
514.461547312836
30
0.0
11
393.597677625933
21
513.115915206105
31
0.0
  0
LINE
 8
GROUP0
10
384.698240659714
20
503.056931561407
30
0.0
11
383.529517451251
21
501.53382182231
31
0.0
  0
LINE
 8
GROUP0
10
375.17125577112
20
488.663227502681
30
0.0
11
374.255188341971
21
486.976041182032
31
0.0
  0
LINE
 8
GROUP0
10
388.361369731948
20
507.50066246454
30
0.0
11
387.114534813366
21
506.040806341104
31
0.0
  0
LINE
 8
GROUP0
10
369.389199554107
20
476.540894551335
30
0.0
11
368.685576641761
21
474.754643725567
31
0.0
  0
LINE
 8
GROUP0
10
411.4691297048
20
527.587931749581
30
0.0
11
409.868204174671
21
526.528302256639
31
0.0
  0
LINE
 8
GROUP0
10
365.127582664656
20
463.804264236862
30
0.0
11
364.646893666094
21
461.945577791548
31
0.0
  0
LINE
 8
GROUP0
10
379.125661082457
20
495.244463127237
30
0.0
11
378.094132979246
21
493.625288341237
31
0.0
  0
LINE
 8
GROUP0
10
409.868204174671
20
526.528302256639
30
0.0
11
408.286015557838
21
525.440894147373
31
0.0
  0
LINE
 8
GROUP0
10
365.640637003238
20
465.654278415454
30
0.0
11
365.127582664656
21
463.804264236862
31
0.0
  0
LINE
 8
GROUP0
10
374.255188341971
20
486.976041182032
30
0.0
11
373.368705895733
21
485.273124246934
31
0.0
  0
LINE
 8
GROUP0
10
377.091020479221
20
491.98835751569
30
0.0
11
376.116629140165
21
490.334169275584
31
0.0
  0
LINE
 8
GROUP0
10
435.566926566166
20
539.341212591509
30
0.0
11
433.75720779063
21
538.700357562034
31
0.0
  0
LINE
 8
GROUP0
10
456.070382450846
20
544.263656837157
30
0.0
11
454.171632402028
21
543.97988674105
31
0.0
  0
LINE
 8
GROUP0
10
405.179771009728
20
523.184075380787
30
0.0
11
403.656661270631
21
522.015352172324
31
0.0
  0
LINE
 8
GROUP0
10
408.286015557838
20
525.440894147373
30
0.0
11
406.723045804281
21
524.326038656828
31
0.0
  0
LINE
 8
GROUP0
10
419.737551650005
20
532.458404490066
30
0.0
11
418.050365329356
21
531.542337060918
31
0.0
  0
LINE
 8
GROUP0
10
396.359603949578
20
515.783076453693
30
0.0
11
394.967002805963
21
514.461547312836
31
0.0
  0
LINE
 8
GROUP0
10
441.059314416583
20
541.072955828799
30
0.0
11
439.218536036952
21
540.527692431518
31
0.0
  0
LINE
 8
GROUP0
10
421.440468585103
20
533.344886936305
30
0.0
11
419.737551650005
21
532.458404490066
31
0.0
  0
LINE
 8
GROUP0
10
424.891414764976
20
535.028025849616
30
0.0
11
423.158597409655
21
534.201514368493
31
0.0
  0
LINE
 8
GROUP0
10
442.909328595176
20
541.586010167382
30
0.0
11
441.059314416583
21
541.072955828799
31
0.0
  0
LINE
 8
GROUP0
10
444.76801504049
20
542.066699165944
30
0.0
11
442.909328595176
21
541.586010167382
31
0.0
  0
LINE
 8
GROUP0
10
418.050365329356
20
531.542337060918
30
0.0
11
416.379423556453
21
530.596963691872
31
0.0
  0
LINE
 8
GROUP0
10
416.379423556453
20
530.596963691872
30
0.0
11
414.725235316347
21
529.622572352817
31
0.0
  0
LINE
 8
GROUP0
10
406.723045804281
20
524.326038656828
30
0.0
11
405.179771009728
21
523.184075380787
31
0.0
  0
LINE
 8
GROUP0
10
402.154180540971
20
520.820225035851
30
0.0
11
400.672786490934
21
519.599058018672
31
0.0
  0
LINE
 8
GROUP0
10
414.725235316347
20
529.622572352817
30
0.0
11
413.088304490801
21
528.619459852791
31
0.0
  0
LINE
 8
GROUP0
10
446.634807578628
20
542.51487640196
30
0.0
11
444.76801504049
21
542.066699165944
31
0.0
  0
LINE
 8
GROUP0
10
431.95894910647
20
538.028016190276
30
0.0
11
430.172698280703
21
537.324393277931
31
0.0
  0
LINE
 8
GROUP0
10
448.5091375665
20
542.930405356303
30
0.0
11
446.634807578628
21
542.51487640196
31
0.0
  0
LINE
 8
GROUP0
10
423.158597409655
20
534.201514368493
30
0.0
11
421.440468585103
21
533.344886936305
31
0.0
  0
LINE
 8
GROUP0
10
430.172698280703
20
537.324393277931
30
0.0
11
428.398999422633
21
536.589703155353
31
0.0
  0
LINE
 8
GROUP0
10
400.672786490934
20
519.599058018672
30
0.0
11
399.212930367497
21
518.352223100089
31
0.0
  0
LINE
 8
GROUP0
10
426.638392818115
20
535.82416961627
30
0.0
11
424.891414764976
21
535.028025849616
31
0.0
  0
LINE
 8
GROUP0
10
428.398999422633
20
536.589703155353
30
0.0
11
426.638392818115
21
535.82416961627
31
0.0
  0
LINE
 8
GROUP0
10
437.387554175209
20
539.950386068051
30
0.0
11
435.566926566166
21
539.341212591509
31
0.0
  0
LINE
 8
GROUP0
10
463.706211444599
20
545.066214804165
30
0.0
11
461.792291854211
21
544.915586065676
31
0.0
  0
LINE
 8
GROUP0
10
477.136378743177
20
545.183418098587
30
0.0
11
475.218368193728
21
545.267160247685
31
0.0
  0
LINE
 8
GROUP0
10
403.656661270631
20
522.015352172324
30
0.0
11
402.154180540971
21
520.820225035851
31
0.0
  0
LINE
 8
GROUP0
10
397.775056856979
20
517.080100078098
30
0.0
11
396.359603949578
21
515.783076453693
31
0.0
  0
LINE
 8
GROUP0
10
399.212930367497
20
518.352223100089
30
0.0
11
397.775056856979
21
517.080100078098
31
0.0
  0
LINE
 8
GROUP0
10
433.75720779063
20
538.700357562034
30
0.0
11
431.95894910647
21
538.028016190276
31
0.0
  0
LINE
 8
GROUP0
10
439.218536036952
20
540.527692431518
30
0.0
11
437.387554175209
21
539.950386068051
31
0.0
  0
LINE
 8
GROUP0
10
488.587214710879
20
543.97988674105
30
0.0
11
486.68846466206
21
544.263656837157
31
0.0
  0
LINE
 8
GROUP0
10
486.68846466206
20
544.263656837157
30
0.0
11
484.785051331019
21
544.51424595613
31
0.0
  0
LINE
 8
GROUP0
10
459.881292597011
20
544.731577766094
30
0.0
11
457.973795781887
21
544.51424595613
31
0.0
  0
LINE
 8
GROUP0
10
494.249709546407
20
542.930405356303
30
0.0
11
492.368413047873
21
543.313159454827
31
0.0
  0
LINE
 8
GROUP0
10
496.124039534278
20
542.51487640196
30
0.0
11
494.249709546407
21
542.930405356303
31
0.0
  0
LINE
 8
GROUP0
10
499.84951851773
20
541.586010167382
30
0.0
11
497.990832072417
21
542.066699165944
31
0.0
  0
LINE
 8
GROUP0
10
454.171632402028
20
543.97988674105
30
0.0
11
452.278124013091
21
543.663022106927
31
0.0
  0
LINE
 8
GROUP0
10
475.218368193728
20
545.267160247685
30
0.0
11
473.299188264554
21
545.317415742787
31
0.0
  0
LINE
 8
GROUP0
10
482.877554515895
20
544.731577766094
30
0.0
11
480.966555258696
21
544.915586065676
31
0.0
  0
LINE
 8
GROUP0
10
516.120454294791
20
535.82416961627
30
0.0
11
514.359847690273
21
536.589703155353
31
0.0
  0
LINE
 8
GROUP0
10
467.540478919178
20
545.267160247685
30
0.0
11
465.622468369729
21
545.183418098587
31
0.0
  0
LINE
 8
GROUP0
10
503.540311075954
20
540.527692431518
30
0.0
11
501.699532696323
21
541.072955828799
31
0.0
  0
LINE
 8
GROUP0
10
471.379423556453
20
545.334169275584
30
0.0
11
469.459658848352
21
545.317415742787
31
0.0
  0
LINE
 8
GROUP0
10
507.19192054674
20
539.341212591509
30
0.0
11
505.371292937697
21
539.950386068051
31
0.0
  0
LINE
 8
GROUP0
10
473.299188264554
20
545.317415742787
30
0.0
11
471.379423556453
21
545.334169275584
31
0.0
  0
LINE
 8
GROUP0
10
534.472831555068
20
525.440894147373
30
0.0
11
532.890642938235
21
526.528302256639
31
0.0
  0
LINE
 8
GROUP0
10
461.792291854211
20
544.915586065676
30
0.0
11
459.881292597011
21
544.731577766094
31
0.0
  0
LINE
 8
GROUP0
10
452.278124013091
20
543.663022106927
30
0.0
11
450.390434065033
21
543.313159454827
31
0.0
  0
LINE
 8
GROUP0
10
505.371292937697
20
539.950386068051
30
0.0
11
503.540311075954
21
540.527692431518
31
0.0
  0
LINE
 8
GROUP0
10
465.622468369729
20
545.183418098587
30
0.0
11
463.706211444599
21
545.066214804165
31
0.0
  0
LINE
 8
GROUP0
10
480.966555258696
20
544.915586065676
30
0.0
11
479.052635668307
21
545.066214804165
31
0.0
  0
LINE
 8
GROUP0
10
492.368413047873
20
543.313159454827
30
0.0
11
490.480723099816
21
543.663022106927
31
0.0
  0
LINE
 8
GROUP0
10
484.785051331019
20
544.51424595613
30
0.0
11
482.877554515895
21
544.731577766094
31
0.0
  0
LINE
 8
GROUP0
10
490.480723099816
20
543.663022106927
30
0.0
11
488.587214710879
21
543.97988674105
31
0.0
  0
LINE
 8
GROUP0
10
529.670542622106
20
528.619459852791
30
0.0
11
528.033611796559
21
529.622572352817
31
0.0
  0
LINE
 8
GROUP0
10
497.990832072417
20
542.066699165944
30
0.0
11
496.124039534278
21
542.51487640196
31
0.0
  0
LINE
 8
GROUP0
10
469.459658848352
20
545.317415742787
30
0.0
11
467.540478919178
21
545.267160247685
31
0.0
  0
LINE
 8
GROUP0
10
509.001639322277
20
538.700357562034
30
0.0
11
507.19192054674
21
539.341212591509
31
0.0
  0
LINE
 8
GROUP0
10
479.052635668307
20
545.066214804165
30
0.0
11
477.136378743177
21
545.183418098587
31
0.0
  0
LINE
 8
GROUP0
10
457.973795781887
20
544.51424595613
30
0.0
11
456.070382450846
21
544.263656837157
31
0.0
  0
LINE
 8
GROUP0
10
450.390434065033
20
543.313159454827
30
0.0
11
448.5091375665
21
542.930405356303
31
0.0
  0
LINE
 8
GROUP0
10
501.699532696323
20
541.072955828799
30
0.0
11
499.84951851773
21
541.586010167382
31
0.0
  0
LINE
 8
GROUP0
10
547.791844306943
20
514.461547312836
30
0.0
11
546.399243163328
21
515.783076453693
31
0.0
  0
LINE
 8
GROUP0
10
523.021295462901
20
532.458404490066
30
0.0
11
521.318378527803
21
533.344886936305
31
0.0
  0
LINE
 8
GROUP0
10
544.983790255928
20
517.080100078098
30
0.0
11
543.545916745409
21
518.352223100089
31
0.0
  0
LINE
 8
GROUP0
10
555.644312299541
20
506.040806341104
30
0.0
11
554.397477380958
21
507.50066246454
31
0.0
  0
LINE
 8
GROUP0
10
549.161169486973
20
513.115915206105
30
0.0
11
547.791844306943
21
514.461547312836
31
0.0
  0
LINE
 8
GROUP0
10
551.828330734562
20
510.353988882459
30
0.0
11
550.506801593705
21
511.746590026074
31
0.0
  0
LINE
 8
GROUP0
10
546.399243163328
20
515.783076453693
30
0.0
11
544.983790255928
21
517.080100078098
31
0.0
  0
LINE
 8
GROUP0
10
569.390141217174
20
485.273124246934
30
0.0
11
568.503658770935
21
486.976041182032
31
0.0
  0
LINE
 8
GROUP0
10
539.102185842276
20
522.015352172324
30
0.0
11
537.579076103179
21
523.184075380787
31
0.0
  0
LINE
 8
GROUP0
10
554.397477380958
20
507.50066246454
30
0.0
11
553.125354358967
21
508.938535975059
31
0.0
  0
LINE
 8
GROUP0
10
521.318378527803
20
533.344886936305
30
0.0
11
519.600249703252
21
534.201514368493
31
0.0
  0
LINE
 8
GROUP0
10
571.869423897139
20
480.075200013922
30
0.0
11
571.073280130485
21
481.822178067061
31
0.0
  0
LINE
 8
GROUP0
10
510.799898006436
20
538.028016190276
30
0.0
11
509.001639322277
21
538.700357562034
31
0.0
  0
LINE
 8
GROUP0
10
514.359847690273
20
536.589703155353
30
0.0
11
512.586148832204
21
537.324393277931
31
0.0
  0
LINE
 8
GROUP0
10
542.086060621972
20
519.599058018672
30
0.0
11
540.604666571935
21
520.820225035851
31
0.0
  0
LINE
 8
GROUP0
10
559.229329661655
20
501.53382182231
30
0.0
11
558.060606453193
21
503.056931561407
31
0.0
  0
LINE
 8
GROUP0
10
537.579076103179
20
523.184075380787
30
0.0
11
536.035801308625
21
524.326038656828
31
0.0
  0
LINE
 8
GROUP0
10
512.586148832204
20
537.324393277931
30
0.0
11
510.799898006436
21
538.028016190276
31
0.0
  0
LINE
 8
GROUP0
10
558.060606453193
20
503.056931561407
30
0.0
11
556.86547931672
21
504.559412291066
31
0.0
  0
LINE
 8
GROUP0
10
519.600249703252
20
534.201514368493
30
0.0
11
517.86743234793
21
535.028025849616
31
0.0
  0
LINE
 8
GROUP0
10
531.289717408106
20
527.587931749581
30
0.0
11
529.670542622106
21
528.619459852791
31
0.0
  0
LINE
 8
GROUP0
10
540.604666571935
20
520.820225035851
30
0.0
11
539.102185842276
21
522.015352172324
31
0.0
  0
LINE
 8
GROUP0
10
524.70848178355
20
531.542337060918
30
0.0
11
523.021295462901
21
532.458404490066
31
0.0
  0
LINE
 8
GROUP0
10
528.033611796559
20
529.622572352817
30
0.0
11
526.379423556453
21
530.596963691872
31
0.0
  0
LINE
 8
GROUP0
10
550.506801593705
20
511.746590026074
30
0.0
11
549.161169486973
21
513.115915206105
31
0.0
  0
LINE
 8
GROUP0
10
517.86743234793
20
535.028025849616
30
0.0
11
516.120454294791
21
535.82416961627
31
0.0
  0
LINE
 8
GROUP0
10
536.035801308625
20
524.326038656828
30
0.0
11
534.472831555068
21
525.440894147373
31
0.0
  0
LINE
 8
GROUP0
10
532.890642938235
20
526.528302256639
30
0.0
11
531.289717408106
21
527.587931749581
31
0.0
  0
LINE
 8
GROUP0
10
553.125354358967
20
508.938535975059
30
0.0
11
551.828330734562
21
510.353988882459
31
0.0
  0
LINE
 8
GROUP0
10
556.86547931672
20
504.559412291066
30
0.0
11
555.644312299541
21
506.040806341104
31
0.0
  0
LINE
 8
GROUP0
10
526.379423556453
20
530.596963691872
30
0.0
11
524.70848178355
21
531.542337060918
31
0.0
  0
LINE
 8
GROUP0
10
543.545916745409
20
518.352223100089
30
0.0
11
542.086060621972
21
519.599058018672
31
0.0
  0
LINE
 8
GROUP0
10
580.025141021918
20
452.54196043001
30
0.0
11
579.708276387796
21
454.435468818947
31
0.0
  0
LINE
 8
GROUP0
10
560.371292937697
20
499.990547027756
30
0.0
11
559.229329661655
21
501.53382182231
31
0.0
  0
LINE
 8
GROUP0
10
574.073270471145
20
474.754643725567
30
0.0
11
573.3696475588
21
476.540894551335
31
0.0
  0
LINE
 8
GROUP0
10
568.503658770935
20
486.976041182032
30
0.0
11
567.587591341787
21
488.663227502681
31
0.0
  0
LINE
 8
GROUP0
10
561.486148428242
20
498.427577274199
30
0.0
11
560.371292937697
21
499.990547027756
31
0.0
  0
LINE
 8
GROUP0
10
566.642217972741
20
490.334169275584
30
0.0
11
565.667826633686
21
491.98835751569
31
0.0
  0
LINE
 8
GROUP0
10
580.559500236999
20
448.739797050151
30
0.0
11
580.308911118026
21
450.643210381191
31
0.0
  0
LINE
 8
GROUP0
10
581.362670023656
20
437.253933983686
30
0.0
11
581.312414528554
21
439.173113912859
31
0.0
  0
LINE
 8
GROUP0
10
581.228672379456
20
429.57721408886
30
0.0
11
581.312414528554
21
431.495224638309
31
0.0
  0
LINE
 8
GROUP0
10
571.073280130485
20
481.822178067061
30
0.0
11
570.246768649362
21
483.554995422383
31
0.0
  0
LINE
 8
GROUP0
10
573.3696475588
20
476.540894551335
30
0.0
11
572.634957436222
21
478.314593409404
31
0.0
  0
LINE
 8
GROUP0
10
578.111953446813
20
461.945577791548
30
0.0
11
577.631264448251
21
463.804264236862
31
0.0
  0
LINE
 8
GROUP0
10
564.66471413366
20
493.625288341237
30
0.0
11
563.63318603045
21
495.244463127237
31
0.0
  0
LINE
 8
GROUP0
10
577.631264448251
20
463.804264236862
30
0.0
11
577.118210109668
21
465.654278415454
31
0.0
  0
LINE
 8
GROUP0
10
580.960840346545
20
444.921300977827
30
0.0
11
580.776832046963
21
446.832300235026
31
0.0
  0
LINE
 8
GROUP0
10
563.63318603045
20
495.244463127237
30
0.0
11
562.573556537508
21
496.845388657366
31
0.0
  0
LINE
 8
GROUP0
10
580.308911118026
20
450.643210381191
30
0.0
11
580.025141021918
21
452.54196043001
31
0.0
  0
LINE
 8
GROUP0
10
580.776832046963
20
446.832300235026
30
0.0
11
580.559500236999
21
448.739797050151
31
0.0
  0
LINE
 8
GROUP0
10
562.573556537508
20
496.845388657366
30
0.0
11
561.486148428242
21
498.427577274199
31
0.0
  0
LINE
 8
GROUP0
10
570.246768649362
20
483.554995422383
30
0.0
11
569.390141217174
21
485.273124246934
31
0.0
  0
LINE
 8
GROUP0
10
574.745611842903
20
472.956385041408
30
0.0
11
574.073270471145
21
474.754643725567
31
0.0
  0
LINE
 8
GROUP0
10
579.358413735696
20
456.323158767004
30
0.0
11
578.975659637172
21
458.204455265538
31
0.0
  0
LINE
 8
GROUP0
10
578.560130682829
20
460.078785253409
30
0.0
11
578.111953446813
21
461.945577791548
31
0.0
  0
LINE
 8
GROUP0
10
575.386466872378
20
471.146666265872
30
0.0
11
574.745611842903
21
472.956385041408
31
0.0
  0
LINE
 8
GROUP0
10
567.587591341787
20
488.663227502681
30
0.0
11
566.642217972741
21
490.334169275584
31
0.0
  0
LINE
 8
GROUP0
10
565.667826633686
20
491.98835751569
30
0.0
11
564.66471413366
21
493.625288341237
31
0.0
  0
LINE
 8
GROUP0
10
577.118210109668
20
465.654278415454
30
0.0
11
576.572946712387
21
467.495056795085
31
0.0
  0
LINE
 8
GROUP0
10
578.975659637172
20
458.204455265538
30
0.0
11
578.560130682829
21
460.078785253409
31
0.0
  0
LINE
 8
GROUP0
10
579.708276387796
20
454.435468818947
30
0.0
11
579.358413735696
21
456.323158767004
31
0.0
  0
LINE
 8
GROUP0
10
575.99564034892
20
469.326038656828
30
0.0
11
575.386466872378
21
471.146666265872
31
0.0
  0
LINE
 8
GROUP0
10
576.572946712387
20
467.495056795085
30
0.0
11
575.99564034892
21
469.326038656828
31
0.0
  0
LINE
 8
GROUP0
10
572.634957436222
20
478.314593409404
30
0.0
11
571.869423897139
21
480.075200013922
31
0.0
  0
LINE
 8
GROUP0
10
572.634957436222
20
392.353745141764
30
0.0
11
573.3696475588
21
394.127443999834
31
0.0
  0
LINE
 8
GROUP0
10
567.587591341787
20
382.005111048487
30
0.0
11
568.503658770935
21
383.692297369136
31
0.0
  0
LINE
 8
GROUP0
10
580.776832046963
20
423.836038316142
30
0.0
11
580.960840346545
21
425.747037573342
31
0.0
  0
LINE
 8
GROUP0
10
563.63318603045
20
375.423875423931
30
0.0
11
564.66471413366
21
377.043050209932
31
0.0
  0
LINE
 8
GROUP0
10
581.111469085034
20
427.66095716373
30
0.0
11
581.228672379456
21
429.57721408886
31
0.0
  0
LINE
 8
GROUP0
10
580.025141021918
20
418.126378121159
30
0.0
11
580.308911118026
21
420.025128169977
31
0.0
  0
LINE
 8
GROUP0
10
580.559500236999
20
421.928541501018
30
0.0
11
580.776832046963
21
423.836038316142
31
0.0
  0
LINE
 8
GROUP0
10
577.631264448251
20
406.864074314307
30
0.0
11
578.111953446813
21
408.722760759621
31
0.0
  0
LINE
 8
GROUP0
10
578.560130682829
20
410.589553297759
30
0.0
11
578.975659637172
21
412.463883285631
31
0.0
  0
LINE
 8
GROUP0
10
579.358413735696
20
414.345179784164
30
0.0
11
579.708276387796
21
416.232869732222
31
0.0
  0
LINE
 8
GROUP0
10
579.708276387796
20
416.232869732222
30
0.0
11
580.025141021918
21
418.126378121159
31
0.0
  0
LINE
 8
GROUP0
10
580.308911118026
20
420.025128169977
30
0.0
11
580.559500236999
21
421.928541501018
31
0.0
  0
LINE
 8
GROUP0
10
581.111469085034
20
443.007381387438
30
0.0
11
580.960840346545
21
444.921300977827
31
0.0
  0
LINE
 8
GROUP0
10
580.960840346545
20
425.747037573342
30
0.0
11
581.111469085034
21
427.66095716373
31
0.0
  0
LINE
 8
GROUP0
10
571.073280130485
20
388.846160484107
30
0.0
11
571.869423897139
21
390.593138537246
31
0.0
  0
LINE
 8
GROUP0
10
581.362670023656
20
433.414404567483
30
0.0
11
581.379423556453
21
435.334169275584
31
0.0
  0
LINE
 8
GROUP0
10
578.111953446813
20
408.722760759621
30
0.0
11
578.560130682829
21
410.589553297759
31
0.0
  0
LINE
 8
GROUP0
10
581.312414528554
20
439.173113912859
30
0.0
11
581.228672379456
21
441.091124462308
31
0.0
  0
LINE
 8
GROUP0
10
581.379423556453
20
435.334169275584
30
0.0
11
581.362670023656
21
437.253933983686
31
0.0
  0
LINE
 8
GROUP0
10
574.745611842903
20
397.711953509761
30
0.0
11
575.386466872378
21
399.521672285297
31
0.0
  0
LINE
 8
GROUP0
10
574.073270471145
20
395.913694825601
30
0.0
11
574.745611842903
21
397.711953509761
31
0.0
  0
LINE
 8
GROUP0
10
575.386466872378
20
399.521672285297
30
0.0
11
575.99564034892
21
401.34229989434
31
0.0
  0
LINE
 8
GROUP0
10
578.975659637172
20
412.463883285631
30
0.0
11
579.358413735696
21
414.345179784164
31
0.0
  0
LINE
 8
GROUP0
10
576.572946712387
20
403.173281756083
30
0.0
11
577.118210109668
21
405.014060135714
31
0.0
  0
LINE
 8
GROUP0
10
577.118210109668
20
405.014060135714
30
0.0
11
577.631264448251
21
406.864074314307
31
0.0
  0
LINE
 8
GROUP0
10
581.312414528554
20
431.495224638309
30
0.0
11
581.362670023656
21
433.414404567483
31
0.0
  0
LINE
 8
GROUP0
10
573.3696475588
20
394.127443999834
30
0.0
11
574.073270471145
21
395.913694825601
31
0.0
  0
LINE
 8
GROUP0
10
553.125354358967
20
361.72980257611
30
0.0
11
554.397477380958
21
363.167676086628
31
0.0
  0
LINE
 8
GROUP0
10
581.228672379456
20
441.091124462308
30
0.0
11
581.111469085034
21
443.007381387438
31
0.0
  0
LINE
 8
GROUP0
10
571.869423897139
20
390.593138537246
30
0.0
11
572.634957436222
21
392.353745141764
31
0.0
  0
LINE
 8
GROUP0
10
570.246768649362
20
387.113343128786
30
0.0
11
571.073280130485
21
388.846160484107
31
0.0
  0
LINE
 8
GROUP0
10
575.99564034892
20
401.34229989434
30
0.0
11
576.572946712387
21
403.173281756083
31
0.0
  0
LINE
 8
GROUP0
10
376.757187055539
20
355.511692146336
30
0.0
11
376.852604142475
21
356.026516677624
31
0.0
  0
LINE
 8
GROUP0
10
376.652799574123
20
354.998611283099
30
0.0
11
376.757187055539
21
355.511692146336
31
0.0
  0
LINE
 8
GROUP0
10
376.652799574123
20
367.473312732165
30
0.0
11
376.539473495666
21
367.984493637948
31
0.0
  0
LINE
 8
GROUP0
10
377.084756101349
20
364.892042309787
30
0.0
11
377.016413614356
21
365.411155036434
31
0.0
  0
LINE
 8
GROUP0
10
377.303802406801
20
361.759534200751
30
0.0
11
377.290096362682
21
362.282946908707
31
0.0
  0
LINE
 8
GROUP0
10
376.539473495666
20
354.487430377316
30
0.0
11
376.652799574123
21
354.998611283099
31
0.0
  0
LINE
 8
GROUP0
10
377.235293059904
20
363.328656219956
30
0.0
11
377.194212494861
21
363.850634290062
31
0.0
  0
LINE
 8
GROUP0
10
377.290096362682
20
362.282946908707
30
0.0
11
377.267257594746
21
362.806040694921
31
0.0
  0
LINE
 8
GROUP0
10
377.267257594746
20
362.806040694921
30
0.0
11
377.235293059904
21
363.328656219956
31
0.0
  0
LINE
 8
GROUP0
10
377.303802406801
20
360.712389814514
30
0.0
11
377.308371552109
21
361.235962007632
31
0.0
  0
LINE
 8
GROUP0
10
377.016413614356
20
365.411155036434
30
0.0
11
376.939021769963
21
365.928995958839
31
0.0
  0
LINE
 8
GROUP0
10
377.144028413157
20
358.100108109603
30
0.0
11
377.194212494861
21
358.621289725203
31
0.0
  0
LINE
 8
GROUP0
10
376.852604142475
20
366.44540733764
30
0.0
11
376.757187055539
21
366.960231868929
31
0.0
  0
LINE
 8
GROUP0
10
376.852604142475
20
356.026516677624
30
0.0
11
376.939021769963
21
356.542928056425
31
0.0
  0
LINE
 8
GROUP0
10
377.194212494861
20
358.621289725203
30
0.0
11
377.235293059904
21
359.143267795309
31
0.0
  0
LINE
 8
GROUP0
10
377.016413614356
20
357.06076897883
30
0.0
11
377.084756101349
21
357.579881705478
31
0.0
  0
LINE
 8
GROUP0
10
376.757187055539
20
366.960231868929
30
0.0
11
376.652799574123
21
367.473312732165
31
0.0
  0
LINE
 8
GROUP0
10
376.939021769963
20
365.928995958839
30
0.0
11
376.852604142475
21
366.44540733764
31
0.0
  0
LINE
 8
GROUP0
10
376.417243340389
20
368.493618875622
30
0.0
11
376.286146340781
21
369.000533360708
31
0.0
  0
LINE
 8
GROUP0
10
377.144028413157
20
364.371815905662
30
0.0
11
377.084756101349
21
364.892042309787
31
0.0
  0
LINE
 8
GROUP0
10
377.267257594746
20
359.665883320344
30
0.0
11
377.290096362682
21
360.188977106557
31
0.0
  0
LINE
 8
GROUP0
10
376.539473495666
20
367.984493637948
30
0.0
11
376.417243340389
21
368.493618875622
31
0.0
  0
LINE
 8
GROUP0
10
376.939021769963
20
356.542928056425
30
0.0
11
377.016413614356
21
357.06076897883
31
0.0
  0
LINE
 8
GROUP0
10
377.084756101349
20
357.579881705478
30
0.0
11
377.144028413157
21
358.100108109603
31
0.0
  0
LINE
 8
GROUP0
10
377.194212494861
20
363.850634290062
30
0.0
11
377.144028413157
21
364.371815905662
31
0.0
  0
LINE
 8
GROUP0
10
375.673928820089
20
351.468917373918
30
0.0
11
375.840067040964
21
351.965452176384
31
0.0
  0
LINE
 8
GROUP0
10
375.840067040964
20
351.965452176384
30
0.0
11
375.997514231
21
352.46481086595
31
0.0
  0
LINE
 8
GROUP0
10
376.417243340389
20
353.978305139642
30
0.0
11
376.539473495666
21
354.487430377316
31
0.0
  0
LINE
 8
GROUP0
10
374.03856727776
20
347.616247015446
30
0.0
11
374.272192941084
21
348.08482760396
31
0.0
  0
LINE
 8
GROUP0
10
374.714735281387
20
349.033862715358
30
0.0
11
374.923517155682
21
349.514028152954
31
0.0
  0
LINE
 8
GROUP0
10
375.123887189113
20
349.997764205155
30
0.0
11
375.315784347025
21
350.484923521273
31
0.0
  0
LINE
 8
GROUP0
10
376.286146340781
20
353.471390654557
30
0.0
11
376.417243340389
21
353.978305139642
31
0.0
  0
LINE
 8
GROUP0
10
374.272192941084
20
348.08482760396
30
0.0
11
374.497605163209
21
348.557414155411
31
0.0
  0
LINE
 8
GROUP0
10
375.499150175686
20
350.975357707862
30
0.0
11
375.673928820089
21
351.468917373918
31
0.0
  0
LINE
 8
GROUP0
10
373.546962766291
20
346.691673400242
30
0.0
11
373.796799337877
21
347.151815124056
31
0.0
  0
LINE
 8
GROUP0
10
377.308371552109
20
361.235962007632
30
0.0
11
377.303802406801
21
361.759534200751
31
0.0
  0
LINE
 8
GROUP0
10
376.146222430259
20
352.966841333122
30
0.0
11
376.286146340781
21
353.471390654557
31
0.0
  0
LINE
 8
GROUP0
10
374.497605163209
20
348.557414155411
30
0.0
11
374.714735281387
21
349.033862715358
31
0.0
  0
LINE
 8
GROUP0
10
375.315784347025
20
350.484923521273
30
0.0
11
375.499150175686
21
350.975357707862
31
0.0
  0
LINE
 8
GROUP0
10
374.923517155682
20
349.514028152954
30
0.0
11
375.123887189113
21
349.997764205155
31
0.0
  0
LINE
 8
GROUP0
10
377.290096362682
20
360.188977106557
30
0.0
11
377.303802406801
21
360.712389814514
31
0.0
  0
LINE
 8
GROUP0
10
373.796799337877
20
347.151815124056
30
0.0
11
374.03856727776
21
347.616247015446
31
0.0
  0
LINE
 8
GROUP0
10
375.997514231
20
352.46481086595
30
0.0
11
376.146222430259
21
352.966841333122
31
0.0
  0
LINE
 8
GROUP0
10
372.468488590472
20
344.896790957182
30
0.0
11
372.749814436802
21
345.338384080636
31
0.0
  0
LINE
 8
GROUP0
10
377.235293059904
20
359.143267795309
30
0.0
11
377.267257594746
21
359.665883320344
31
0.0
  0
LINE
 8
GROUP0
10
369.949658958792
20
341.554191137917
30
0.0
11
370.289704845678
21
341.952333717036
31
0.0
  0
LINE
 8
GROUP0
10
366.187983283604
20
337.921583163923
30
0.0
11
366.591999842705
21
338.254628714063
31
0.0
  0
LINE
 8
GROUP0
10
373.023390573172
20
345.784819760331
30
0.0
11
373.289133665642
21
346.235962007632
31
0.0
  0
LINE
 8
GROUP0
10
362.759513799411
20
335.520942986569
30
0.0
11
363.205949479105
21
335.794519122939
31
0.0
  0
LINE
 8
GROUP0
10
365.36282224667
20
337.276896706214
30
0.0
11
365.778215811879
21
337.595639399431
31
0.0
  0
LINE
 8
GROUP0
10
362.308371552109
20
335.255199894099
30
0.0
11
362.759513799411
21
335.520942986569
31
0.0
  0
LINE
 8
GROUP0
10
361.852660159499
20
334.99737079345
30
0.0
11
362.308371552109
21
335.255199894099
31
0.0
  0
LINE
 8
GROUP0
10
366.990142421824
20
338.594674600949
30
0.0
11
367.382289742875
21
338.94161724331
31
0.0
  0
LINE
 8
GROUP0
10
365.778215811879
20
337.595639399431
30
0.0
11
366.187983283604
21
337.921583163923
31
0.0
  0
LINE
 8
GROUP0
10
370.289704845678
20
341.952333717036
30
0.0
11
370.622750395818
21
342.356350276137
31
0.0
  0
LINE
 8
GROUP0
10
371.578881383358
20
343.602404438858
30
0.0
11
371.882932880779
21
344.028668917101
31
0.0
  0
LINE
 8
GROUP0
10
368.521574987705
20
340.022758572036
30
0.0
11
368.888565562269
21
340.396210893862
31
0.0
  0
LINE
 8
GROUP0
10
367.768322353984
20
339.295350959057
30
0.0
11
368.148122665879
21
339.655767997473
31
0.0
  0
LINE
 8
GROUP0
10
359.510470844383
20
333.829598278354
30
0.0
11
359.98691940433
21
334.046728396533
31
0.0
  0
LINE
 8
GROUP0
10
367.382289742875
20
338.94161724331
30
0.0
11
367.768322353984
21
339.295350959057
31
0.0
  0
LINE
 8
GROUP0
10
369.602716316431
20
341.162043816867
30
0.0
11
369.949658958792
21
341.554191137917
31
0.0
  0
LINE
 8
GROUP0
10
364.941929120883
20
336.965452176384
30
0.0
11
365.36282224667
21
337.276896706214
31
0.0
  0
LINE
 8
GROUP0
10
371.882932880779
20
344.028668917101
30
0.0
11
372.17949872876
21
344.46017490351
31
0.0
  0
LINE
 8
GROUP0
10
371.267436853528
20
343.181511313071
30
0.0
11
371.578881383358
21
343.602404438858
31
0.0
  0
LINE
 8
GROUP0
10
370.948694160311
20
342.766117747863
30
0.0
11
371.267436853528
21
343.181511313071
31
0.0
  0
LINE
 8
GROUP0
10
370.622750395818
20
342.356350276137
30
0.0
11
370.948694160311
21
342.766117747863
31
0.0
  0
LINE
 8
GROUP0
10
372.17949872876
20
344.46017490351
30
0.0
11
372.468488590472
21
344.896790957182
31
0.0
  0
LINE
 8
GROUP0
10
369.248982600684
20
340.776011205757
30
0.0
11
369.602716316431
21
341.162043816867
31
0.0
  0
LINE
 8
GROUP0
10
368.148122665879
20
339.655767997473
30
0.0
11
368.521574987705
21
340.022758572036
31
0.0
  0
LINE
 8
GROUP0
10
372.749814436802
20
345.338384080636
30
0.0
11
373.023390573172
21
345.784819760331
31
0.0
  0
LINE
 8
GROUP0
10
368.888565562269
20
340.396210893862
30
0.0
11
369.248982600684
21
340.776011205757
31
0.0
  0
LINE
 8
GROUP0
10
364.51566464264
20
336.661400678963
30
0.0
11
364.941929120883
21
336.965452176384
31
0.0
  0
LINE
 8
GROUP0
10
363.205949479105
20
335.794519122939
30
0.0
11
363.64754260256
21
336.07584496927
31
0.0
  0
LINE
 8
GROUP0
10
363.64754260256
20
336.07584496927
30
0.0
11
364.084158656232
21
336.364834830981
31
0.0
  0
LINE
 8
GROUP0
10
364.084158656232
20
336.364834830981
30
0.0
11
364.51566464264
21
336.661400678963
31
0.0
  0
LINE
 8
GROUP0
10
366.591999842705
20
338.254628714063
30
0.0
11
366.990142421824
21
338.594674600949
31
0.0
  0
LINE
 8
GROUP0
10
373.289133665642
20
346.235962007632
30
0.0
11
373.546962766291
21
346.691673400242
31
0.0
  0
LINE
 8
GROUP0
10
350.444225450139
20
331.400305146584
30
0.0
11
350.964451854264
21
331.459577458393
31
0.0
  0
LINE
 8
GROUP0
10
359.030305406787
20
333.620816404059
30
0.0
11
359.510470844383
21
333.829598278354
31
0.0
  0
LINE
 8
GROUP0
10
347.308371552109
20
331.235962007632
30
0.0
11
347.831943745228
21
331.240531152941
31
0.0
  0
LINE
 8
GROUP0
10
349.401065764433
20
331.309040499838
30
0.0
11
349.923043834539
21
331.35012106488
31
0.0
  0
LINE
 8
GROUP0
10
346.261386651034
20
331.254237197059
30
0.0
11
346.784799358991
21
331.240531152941
31
0.0
  0
LINE
 8
GROUP0
10
355.072942905185
20
332.25818721896
30
0.0
11
355.577492226619
21
332.398111129483
31
0.0
  0
LINE
 8
GROUP0
10
354.566028420099
20
332.127090219352
30
0.0
11
355.072942905185
21
332.25818721896
31
0.0
  0
LINE
 8
GROUP0
10
360.459505955781
20
334.272140618657
30
0.0
11
360.928086544296
21
334.505766281981
31
0.0
  0
LINE
 8
GROUP0
10
352.001405503316
20
331.605311789778
30
0.0
11
352.517816882117
21
331.691729417266
31
0.0
  0
LINE
 8
GROUP0
10
348.355356453184
20
331.254237197059
30
0.0
11
348.878450239397
21
331.277075964995
31
0.0
  0
LINE
 8
GROUP0
10
360.928086544296
20
334.505766281981
30
0.0
11
361.392518435686
21
334.747534221864
31
0.0
  0
LINE
 8
GROUP0
10
355.577492226619
20
332.398111129483
30
0.0
11
356.079522693791
21
332.546819328741
31
0.0
  0
LINE
 8
GROUP0
10
357.075416185824
20
332.870404739653
30
0.0
11
357.568975851879
21
333.045183384055
31
0.0
  0
LINE
 8
GROUP0
10
358.059410038468
20
333.228549212716
30
0.0
11
358.546569354586
21
333.420446370629
31
0.0
  0
LINE
 8
GROUP0
10
356.578881383358
20
332.704266518778
30
0.0
11
357.075416185824
21
332.870404739653
31
0.0
  0
LINE
 8
GROUP0
10
361.392518435686
20
334.747534221864
30
0.0
11
361.852660159499
21
334.99737079345
31
0.0
  0
LINE
 8
GROUP0
10
349.923043834539
20
331.35012106488
30
0.0
11
350.444225450139
21
331.400305146584
31
0.0
  0
LINE
 8
GROUP0
10
347.831943745228
20
331.240531152941
30
0.0
11
348.355356453184
21
331.254237197059
31
0.0
  0
LINE
 8
GROUP0
10
346.784799358991
20
331.240531152941
30
0.0
11
347.308371552109
21
331.235962007632
31
0.0
  0
LINE
 8
GROUP0
10
357.568975851879
20
333.045183384055
30
0.0
11
358.059410038468
21
333.228549212716
31
0.0
  0
LINE
 8
GROUP0
10
351.483564580911
20
331.527919945385
30
0.0
11
352.001405503316
21
331.605311789778
31
0.0
  0
LINE
 8
GROUP0
10
352.517816882117
20
331.691729417266
30
0.0
11
353.032641413405
21
331.787146504202
31
0.0
  0
LINE
 8
GROUP0
10
353.032641413405
20
331.787146504202
30
0.0
11
353.545722276642
21
331.891533985618
31
0.0
  0
LINE
 8
GROUP0
10
354.056903182425
20
332.004860064075
30
0.0
11
354.566028420099
21
332.127090219352
31
0.0
  0
LINE
 8
GROUP0
10
359.98691940433
20
334.046728396533
30
0.0
11
360.459505955781
21
334.272140618657
31
0.0
  0
LINE
 8
GROUP0
10
358.546569354586
20
333.420446370629
30
0.0
11
359.030305406787
21
333.620816404059
31
0.0
  0
LINE
 8
GROUP0
10
353.545722276642
20
331.891533985618
30
0.0
11
354.056903182425
21
332.004860064075
31
0.0
  0
LINE
 8
GROUP0
10
345.738292864821
20
331.277075964995
30
0.0
11
346.261386651034
21
331.254237197059
31
0.0
  0
LINE
 8
GROUP0
10
345.215677339785
20
331.309040499838
30
0.0
11
345.738292864821
21
331.277075964995
31
0.0
  0
LINE
 8
GROUP0
10
356.079522693791
20
332.546819328741
30
0.0
11
356.578881383358
21
332.704266518778
31
0.0
  0
LINE
 8
GROUP0
10
348.878450239397
20
331.277075964995
30
0.0
11
349.401065764433
21
331.309040499838
31
0.0
  0
LINE
 8
GROUP0
10
350.964451854264
20
331.459577458393
30
0.0
11
351.483564580911
21
331.527919945385
31
0.0
  0
LINE
 8
GROUP0
10
326.468620438339
20
339.655767997473
30
0.0
11
326.848420750234
21
339.295350959057
31
0.0
  0
LINE
 8
GROUP0
10
327.626600682394
20
338.594674600949
30
0.0
11
328.024743261513
21
338.254628714063
31
0.0
  0
LINE
 8
GROUP0
10
328.024743261513
20
338.254628714063
30
0.0
11
328.428759820614
21
337.921583163923
31
0.0
  0
LINE
 8
GROUP0
10
327.234453361343
20
338.94161724331
30
0.0
11
327.626600682394
21
338.594674600949
31
0.0
  0
LINE
 8
GROUP0
10
330.532584447987
20
336.364834830981
30
0.0
11
330.969200501658
21
336.07584496927
31
0.0
  0
LINE
 8
GROUP0
10
332.764082944719
20
334.99737079345
30
0.0
11
333.224224668532
21
334.747534221864
31
0.0
  0
LINE
 8
GROUP0
10
333.224224668532
20
334.747534221864
30
0.0
11
333.688656559923
21
334.505766281981
31
0.0
  0
LINE
 8
GROUP0
10
333.688656559923
20
334.505766281981
30
0.0
11
334.157237148437
21
334.272140618657
31
0.0
  0
LINE
 8
GROUP0
10
335.586437697431
20
333.620816404059
30
0.0
11
336.070173749632
21
333.420446370629
31
0.0
  0
LINE
 8
GROUP0
10
332.308371552109
20
335.255199894099
30
0.0
11
332.764082944719
21
334.99737079345
31
0.0
  0
LINE
 8
GROUP0
10
329.674813983335
20
336.965452176384
30
0.0
11
330.101078461578
21
336.661400678963
31
0.0
  0
LINE
 8
GROUP0
10
343.133178523307
20
331.527919945385
30
0.0
11
343.652291249955
21
331.459577458393
31
0.0
  0
LINE
 8
GROUP0
10
336.070173749632
20
333.420446370629
30
0.0
11
336.55733306575
21
333.228549212716
31
0.0
  0
LINE
 8
GROUP0
10
331.410793625113
20
335.794519122939
30
0.0
11
331.857229304807
21
335.520942986569
31
0.0
  0
LINE
 8
GROUP0
10
330.969200501658
20
336.07584496927
30
0.0
11
331.410793625113
21
335.794519122939
31
0.0
  0
LINE
 8
GROUP0
10
334.629823699888
20
334.046728396533
30
0.0
11
335.106272259835
21
333.829598278354
31
0.0
  0
LINE
 8
GROUP0
10
334.157237148437
20
334.272140618657
30
0.0
11
334.629823699888
21
334.046728396533
31
0.0
  0
LINE
 8
GROUP0
10
335.106272259835
20
333.829598278354
30
0.0
11
335.586437697431
21
333.620816404059
31
0.0
  0
LINE
 8
GROUP0
10
328.428759820614
20
337.921583163923
30
0.0
11
328.838527292339
21
337.595639399431
31
0.0
  0
LINE
 8
GROUP0
10
326.848420750234
20
339.295350959057
30
0.0
11
327.234453361343
21
338.94161724331
31
0.0
  0
LINE
 8
GROUP0
10
336.55733306575
20
333.228549212716
30
0.0
11
337.047767252339
21
333.045183384055
31
0.0
  0
LINE
 8
GROUP0
10
344.693699269679
20
331.35012106488
30
0.0
11
345.215677339785
21
331.309040499838
31
0.0
  0
LINE
 8
GROUP0
10
337.541326918394
20
332.870404739653
30
0.0
11
338.037861720861
21
332.704266518778
31
0.0
  0
LINE
 8
GROUP0
10
344.172517654079
20
331.400305146584
30
0.0
11
344.693699269679
21
331.35012106488
31
0.0
  0
LINE
 8
GROUP0
10
338.037861720861
20
332.704266518778
30
0.0
11
338.537220410427
21
332.546819328741
31
0.0
  0
LINE
 8
GROUP0
10
342.615337600902
20
331.605311789778
30
0.0
11
343.133178523307
21
331.527919945385
31
0.0
  0
LINE
 8
GROUP0
10
329.253920857548
20
337.276896706214
30
0.0
11
329.674813983335
21
336.965452176384
31
0.0
  0
LINE
 8
GROUP0
10
330.101078461578
20
336.661400678963
30
0.0
11
330.532584447987
21
336.364834830981
31
0.0
  0
LINE
 8
GROUP0
10
342.098926222101
20
331.691729417266
30
0.0
11
342.615337600902
21
331.605311789778
31
0.0
  0
LINE
 8
GROUP0
10
343.652291249955
20
331.459577458393
30
0.0
11
344.172517654079
21
331.400305146584
31
0.0
  0
LINE
 8
GROUP0
10
328.838527292339
20
337.595639399431
30
0.0
11
329.253920857548
21
337.276896706214
31
0.0
  0
LINE
 8
GROUP0
10
337.047767252339
20
333.045183384055
30
0.0
11
337.541326918394
21
332.870404739653
31
0.0
  0
LINE
 8
GROUP0
10
321.069780337927
20
346.691673400242
30
0.0
11
321.327609438576
21
346.235962007632
31
0.0
  0
LINE
 8
GROUP0
10
322.437244375458
20
344.46017490351
30
0.0
11
322.733810223439
21
344.028668917101
31
0.0
  0
LINE
 8
GROUP0
10
322.733810223439
20
344.028668917101
30
0.0
11
323.037861720861
21
343.602404438858
31
0.0
  0
LINE
 8
GROUP0
10
318.330596763437
20
353.471390654557
30
0.0
11
318.47052067396
21
352.966841333122
31
0.0
  0
LINE
 8
GROUP0
10
320.578175826458
20
347.616247015446
30
0.0
11
320.819943766341
21
347.151815124056
31
0.0
  0
LINE
 8
GROUP0
10
320.819943766341
20
347.151815124056
30
0.0
11
321.069780337927
21
346.691673400242
31
0.0
  0
LINE
 8
GROUP0
10
318.199499763829
20
353.978305139642
30
0.0
11
318.330596763437
21
353.471390654557
31
0.0
  0
LINE
 8
GROUP0
10
319.693225948536
20
349.514028152954
30
0.0
11
319.902007822831
21
349.033862715358
31
0.0
  0
LINE
 8
GROUP0
10
320.344550163134
20
348.08482760396
30
0.0
11
320.578175826458
21
347.616247015446
31
0.0
  0
LINE
 8
GROUP0
10
319.492855915105
20
349.997764205155
30
0.0
11
319.693225948536
21
349.514028152954
31
0.0
  0
LINE
 8
GROUP0
10
318.94281428413
20
351.468917373918
30
0.0
11
319.117592928532
21
350.975357707862
31
0.0
  0
LINE
 8
GROUP0
10
321.866928667416
20
345.338384080636
30
0.0
11
322.148254513746
21
344.896790957182
31
0.0
  0
LINE
 8
GROUP0
10
331.857229304807
20
335.520942986569
30
0.0
11
332.308371552109
21
335.255199894099
31
0.0
  0
LINE
 8
GROUP0
10
324.32703825854
20
341.952333717036
30
0.0
11
324.667084145426
21
341.554191137917
31
0.0
  0
LINE
 8
GROUP0
10
321.327609438576
20
346.235962007632
30
0.0
11
321.593352531046
21
345.784819760331
31
0.0
  0
LINE
 8
GROUP0
10
318.47052067396
20
352.966841333122
30
0.0
11
318.619228873218
21
352.46481086595
31
0.0
  0
LINE
 8
GROUP0
10
318.776676063254
20
351.965452176384
30
0.0
11
318.94281428413
21
351.468917373918
31
0.0
  0
LINE
 8
GROUP0
10
320.11913794101
20
348.557414155411
30
0.0
11
320.344550163134
21
348.08482760396
31
0.0
  0
LINE
 8
GROUP0
10
322.148254513746
20
344.896790957182
30
0.0
11
322.437244375458
21
344.46017490351
31
0.0
  0
LINE
 8
GROUP0
10
325.367760503534
20
340.776011205757
30
0.0
11
325.72817754195
21
340.396210893862
31
0.0
  0
LINE
 8
GROUP0
10
321.593352531046
20
345.784819760331
30
0.0
11
321.866928667416
21
345.338384080636
31
0.0
  0
LINE
 8
GROUP0
10
323.34930625069
20
343.181511313071
30
0.0
11
323.668048943907
21
342.766117747863
31
0.0
  0
LINE
 8
GROUP0
10
323.037861720861
20
343.602404438858
30
0.0
11
323.34930625069
21
343.181511313071
31
0.0
  0
LINE
 8
GROUP0
10
323.9939927084
20
342.356350276137
30
0.0
11
324.32703825854
21
341.952333717036
31
0.0
  0
LINE
 8
GROUP0
10
323.668048943907
20
342.766117747863
30
0.0
11
323.9939927084
21
342.356350276137
31
0.0
  0
LINE
 8
GROUP0
10
325.72817754195
20
340.396210893862
30
0.0
11
326.095168116513
21
340.022758572036
31
0.0
  0
LINE
 8
GROUP0
10
319.300958757193
20
350.484923521273
30
0.0
11
319.492855915105
21
349.997764205155
31
0.0
  0
LINE
 8
GROUP0
10
319.117592928532
20
350.975357707862
30
0.0
11
319.300958757193
21
350.484923521273
31
0.0
  0
LINE
 8
GROUP0
10
325.014026787787
20
341.162043816867
30
0.0
11
325.367760503534
21
340.776011205757
31
0.0
  0
LINE
 8
GROUP0
10
324.667084145426
20
341.554191137917
30
0.0
11
325.014026787787
21
341.162043816867
31
0.0
  0
LINE
 8
GROUP0
10
318.619228873218
20
352.46481086595
30
0.0
11
318.776676063254
21
351.965452176384
31
0.0
  0
LINE
 8
GROUP0
10
326.095168116513
20
340.022758572036
30
0.0
11
326.468620438339
21
339.655767997473
31
0.0
  0
LINE
 8
GROUP0
10
317.600329489862
20
357.06076897883
30
0.0
11
317.677721334255
21
356.542928056425
31
0.0
  0
LINE
 8
GROUP0
10
317.472714691061
20
358.100108109603
30
0.0
11
317.531987002869
21
357.579881705478
31
0.0
  0
LINE
 8
GROUP0
10
317.422530609357
20
363.850634290062
30
0.0
11
317.381450044314
21
363.328656219956
31
0.0
  0
LINE
 8
GROUP0
10
317.531987002869
20
364.892042309787
30
0.0
11
317.472714691061
21
364.371815905662
31
0.0
  0
LINE
 8
GROUP0
10
319.300958757193
20
371.987000493991
30
0.0
11
319.117592928532
21
371.496566307402
31
0.0
  0
LINE
 8
GROUP0
10
319.117592928532
20
371.496566307402
30
0.0
11
318.94281428413
21
371.003006641347
31
0.0
  0
LINE
 8
GROUP0
10
319.492855915105
20
372.47415981011
30
0.0
11
319.300958757193
21
371.987000493991
31
0.0
  0
LINE
 8
GROUP0
10
317.308371552109
20
361.235962007632
30
0.0
11
317.312940697417
21
360.712389814514
31
0.0
  0
LINE
 8
GROUP0
10
318.330596763437
20
369.000533360708
30
0.0
11
318.199499763829
21
368.493618875622
31
0.0
  0
LINE
 8
GROUP0
10
318.077269608552
20
367.984493637948
30
0.0
11
317.963943530095
21
367.473312732165
31
0.0
  0
LINE
 8
GROUP0
10
317.677721334255
20
356.542928056425
30
0.0
11
317.764138961743
21
356.026516677624
31
0.0
  0
LINE
 8
GROUP0
10
318.776676063254
20
370.506471838881
30
0.0
11
318.619228873218
21
370.007113149314
31
0.0
  0
LINE
 8
GROUP0
10
318.94281428413
20
371.003006641347
30
0.0
11
318.776676063254
21
370.506471838881
31
0.0
  0
LINE
 8
GROUP0
10
317.963943530095
20
367.473312732165
30
0.0
11
317.859556048679
21
366.960231868929
31
0.0
  0
LINE
 8
GROUP0
10
318.619228873218
20
370.007113149314
30
0.0
11
318.47052067396
21
369.505082682142
31
0.0
  0
LINE
 8
GROUP0
10
317.963943530095
20
354.998611283099
30
0.0
11
318.077269608552
21
354.487430377316
31
0.0
  0
LINE
 8
GROUP0
10
317.472714691061
20
364.371815905662
30
0.0
11
317.422530609357
21
363.850634290062
31
0.0
  0
LINE
 8
GROUP0
10
317.764138961743
20
366.44540733764
30
0.0
11
317.677721334255
21
365.928995958839
31
0.0
  0
LINE
 8
GROUP0
10
317.381450044314
20
363.328656219956
30
0.0
11
317.349485509472
21
362.806040694921
31
0.0
  0
LINE
 8
GROUP0
10
319.902007822831
20
349.033862715358
30
0.0
11
320.11913794101
21
348.557414155411
31
0.0
  0
LINE
 8
GROUP0
10
317.859556048679
20
355.511692146336
30
0.0
11
317.963943530095
21
354.998611283099
31
0.0
  0
LINE
 8
GROUP0
10
317.326646741536
20
360.188977106557
30
0.0
11
317.349485509472
21
359.665883320344
31
0.0
  0
LINE
 8
GROUP0
10
317.312940697417
20
361.759534200751
30
0.0
11
317.308371552109
21
361.235962007632
31
0.0
  0
LINE
 8
GROUP0
10
317.349485509472
20
359.665883320344
30
0.0
11
317.381450044314
21
359.143267795309
31
0.0
  0
LINE
 8
GROUP0
10
317.312940697417
20
360.712389814514
30
0.0
11
317.326646741536
21
360.188977106557
31
0.0
  0
LINE
 8
GROUP0
10
317.531987002869
20
357.579881705478
30
0.0
11
317.600329489862
21
357.06076897883
31
0.0
  0
LINE
 8
GROUP0
10
317.422530609357
20
358.621289725203
30
0.0
11
317.472714691061
21
358.100108109603
31
0.0
  0
LINE
 8
GROUP0
10
317.326646741536
20
362.282946908707
30
0.0
11
317.312940697417
21
361.759534200751
31
0.0
  0
LINE
 8
GROUP0
10
317.381450044314
20
359.143267795309
30
0.0
11
317.422530609357
21
358.621289725203
31
0.0
  0
LINE
 8
GROUP0
10
318.077269608552
20
354.487430377316
30
0.0
11
318.199499763829
21
353.978305139642
31
0.0
  0
LINE
 8
GROUP0
10
317.764138961743
20
356.026516677624
30
0.0
11
317.859556048679
21
355.511692146336
31
0.0
  0
LINE
 8
GROUP0
10
317.349485509472
20
362.806040694921
30
0.0
11
317.326646741536
21
362.282946908707
31
0.0
  0
LINE
 8
GROUP0
10
326.468620438339
20
382.816156017792
30
0.0
11
326.095168116513
21
382.449165443229
31
0.0
  0
LINE
 8
GROUP0
10
326.095168116513
20
382.449165443229
30
0.0
11
325.72817754195
21
382.075713121402
31
0.0
  0
LINE
 8
GROUP0
10
321.327609438576
20
376.235962007632
30
0.0
11
321.069780337927
21
375.780250615022
31
0.0
  0
LINE
 8
GROUP0
10
317.600329489862
20
365.411155036434
30
0.0
11
317.531987002869
21
364.892042309787
31
0.0
  0
LINE
 8
GROUP0
10
322.437244375458
20
378.011749111755
30
0.0
11
322.148254513746
21
377.575133058083
31
0.0
  0
LINE
 8
GROUP0
10
321.593352531046
20
376.687104254934
30
0.0
11
321.327609438576
21
376.235962007632
31
0.0
  0
LINE
 8
GROUP0
10
317.859556048679
20
366.960231868929
30
0.0
11
317.764138961743
21
366.44540733764
31
0.0
  0
LINE
 8
GROUP0
10
327.234453361343
20
383.530306771954
30
0.0
11
326.848420750234
21
383.176573056207
31
0.0
  0
LINE
 8
GROUP0
10
329.674813983335
20
385.506471838881
30
0.0
11
329.253920857548
21
385.195027309051
31
0.0
  0
LINE
 8
GROUP0
10
319.693225948536
20
372.957895862311
30
0.0
11
319.492855915105
21
372.47415981011
31
0.0
  0
LINE
 8
GROUP0
10
321.866928667416
20
377.133539934628
30
0.0
11
321.593352531046
21
376.687104254934
31
0.0
  0
LINE
 8
GROUP0
10
317.677721334255
20
365.928995958839
30
0.0
11
317.600329489862
21
365.411155036434
31
0.0
  0
LINE
 8
GROUP0
10
318.47052067396
20
369.505082682142
30
0.0
11
318.330596763437
21
369.000533360708
31
0.0
  0
LINE
 8
GROUP0
10
323.9939927084
20
380.115573739127
30
0.0
11
323.668048943907
21
379.705806267402
31
0.0
  0
LINE
 8
GROUP0
10
323.037861720861
20
378.869519576406
30
0.0
11
322.733810223439
21
378.443255098164
31
0.0
  0
LINE
 8
GROUP0
10
320.344550163134
20
374.387096411305
30
0.0
11
320.11913794101
21
373.914509859853
31
0.0
  0
LINE
 8
GROUP0
10
319.902007822831
20
373.438061299906
30
0.0
11
319.693225948536
21
372.957895862311
31
0.0
  0
LINE
 8
GROUP0
10
322.148254513746
20
377.575133058083
30
0.0
11
321.866928667416
21
377.133539934628
31
0.0
  0
LINE
 8
GROUP0
10
321.069780337927
20
375.780250615022
30
0.0
11
320.819943766341
21
375.320108891209
31
0.0
  0
LINE
 8
GROUP0
10
322.733810223439
20
378.443255098164
30
0.0
11
322.437244375458
21
378.011749111755
31
0.0
  0
LINE
 8
GROUP0
10
328.838527292339
20
384.876284615834
30
0.0
11
328.428759820614
21
384.550340851341
31
0.0
  0
LINE
 8
GROUP0
10
324.667084145426
20
380.917732877348
30
0.0
11
324.32703825854
21
380.519590298228
31
0.0
  0
LINE
 8
GROUP0
10
328.428759820614
20
384.550340851341
30
0.0
11
328.024743261513
21
384.217295301202
31
0.0
  0
LINE
 8
GROUP0
10
330.101078461578
20
385.810523336302
30
0.0
11
329.674813983335
21
385.506471838881
31
0.0
  0
LINE
 8
GROUP0
10
320.11913794101
20
373.914509859853
30
0.0
11
319.902007822831
21
373.438061299906
31
0.0
  0
LINE
 8
GROUP0
10
320.578175826458
20
374.855676999819
30
0.0
11
320.344550163134
21
374.387096411305
31
0.0
  0
LINE
 8
GROUP0
10
323.668048943907
20
379.705806267402
30
0.0
11
323.34930625069
21
379.290412702194
31
0.0
  0
LINE
 8
GROUP0
10
323.34930625069
20
379.290412702194
30
0.0
11
323.037861720861
21
378.869519576406
31
0.0
  0
LINE
 8
GROUP0
10
318.199499763829
20
368.493618875622
30
0.0
11
318.077269608552
21
367.984493637948
31
0.0
  0
LINE
 8
GROUP0
10
327.626600682394
20
383.877249414315
30
0.0
11
327.234453361343
21
383.530306771954
31
0.0
  0
LINE
 8
GROUP0
10
328.024743261513
20
384.217295301202
30
0.0
11
327.626600682394
21
383.877249414315
31
0.0
  0
LINE
 8
GROUP0
10
320.819943766341
20
375.320108891209
30
0.0
11
320.578175826458
21
374.855676999819
31
0.0
  0
LINE
 8
GROUP0
10
341.584101690813
20
390.684777511062
30
0.0
11
341.071020827576
21
390.580390029646
31
0.0
  0
LINE
 8
GROUP0
10
332.764082944719
20
387.474553221814
30
0.0
11
332.308371552109
21
387.216724121165
31
0.0
  0
LINE
 8
GROUP0
10
338.037861720861
20
389.767657496487
30
0.0
11
337.541326918394
21
389.601519275612
31
0.0
  0
LINE
 8
GROUP0
10
330.969200501658
20
386.396079045995
30
0.0
11
330.532584447987
21
386.107089184284
31
0.0
  0
LINE
 8
GROUP0
10
334.629823699888
20
388.425195618732
30
0.0
11
334.157237148437
21
388.199783396607
31
0.0
  0
LINE
 8
GROUP0
10
333.224224668532
20
387.7243897934
30
0.0
11
332.764082944719
21
387.474553221814
31
0.0
  0
LINE
 8
GROUP0
10
334.157237148437
20
388.199783396607
30
0.0
11
333.688656559923
21
387.966157733283
31
0.0
  0
LINE
 8
GROUP0
10
337.541326918394
20
389.601519275612
30
0.0
11
337.047767252339
21
389.42674063121
31
0.0
  0
LINE
 8
GROUP0
10
330.532584447987
20
386.107089184284
30
0.0
11
330.101078461578
21
385.810523336302
31
0.0
  0
LINE
 8
GROUP0
10
325.014026787787
20
381.309880198398
30
0.0
11
324.667084145426
21
380.917732877348
31
0.0
  0
LINE
 8
GROUP0
10
324.32703825854
20
380.519590298228
30
0.0
11
323.9939927084
21
380.115573739127
31
0.0
  0
LINE
 8
GROUP0
10
335.106272259835
20
388.64232573691
30
0.0
11
334.629823699888
21
388.425195618732
31
0.0
  0
LINE
 8
GROUP0
10
337.047767252339
20
389.42674063121
30
0.0
11
336.55733306575
21
389.243374802548
31
0.0
  0
LINE
 8
GROUP0
10
331.410793625113
20
386.677404892325
30
0.0
11
330.969200501658
21
386.396079045995
31
0.0
  0
LINE
 8
GROUP0
10
340.559839921793
20
390.467063951189
30
0.0
11
340.050714684119
21
390.344833795912
31
0.0
  0
LINE
 8
GROUP0
10
342.615337600902
20
390.866612225486
30
0.0
11
342.098926222101
21
390.780194597999
31
0.0
  0
LINE
 8
GROUP0
10
335.586437697431
20
388.851107611205
30
0.0
11
335.106272259835
21
388.64232573691
31
0.0
  0
LINE
 8
GROUP0
10
325.367760503534
20
381.695912809507
30
0.0
11
325.014026787787
21
381.309880198398
31
0.0
  0
LINE
 8
GROUP0
10
340.050714684119
20
390.344833795912
30
0.0
11
339.543800199033
21
390.213736796304
31
0.0
  0
LINE
 8
GROUP0
10
341.071020827576
20
390.580390029646
30
0.0
11
340.559839921793
21
390.467063951189
31
0.0
  0
LINE
 8
GROUP0
10
343.652291249955
20
391.012346556872
30
0.0
11
343.133178523307
21
390.944004069879
31
0.0
  0
LINE
 8
GROUP0
10
344.172517654079
20
391.071618868681
30
0.0
11
343.652291249955
21
391.012346556872
31
0.0
  0
LINE
 8
GROUP0
10
331.857229304807
20
386.950981028696
30
0.0
11
331.410793625113
21
386.677404892325
31
0.0
  0
LINE
 8
GROUP0
10
339.039250877599
20
390.073812885782
30
0.0
11
338.537220410427
21
389.925104686523
31
0.0
  0
LINE
 8
GROUP0
10
332.308371552109
20
387.216724121165
30
0.0
11
331.857229304807
21
386.950981028696
31
0.0
  0
LINE
 8
GROUP0
10
345.215677339785
20
391.162883515427
30
0.0
11
344.693699269679
21
391.121802950385
31
0.0
  0
LINE
 8
GROUP0
10
336.070173749632
20
389.051477644636
30
0.0
11
335.586437697431
21
388.851107611205
31
0.0
  0
LINE
 8
GROUP0
10
329.253920857548
20
385.195027309051
30
0.0
11
328.838527292339
21
384.876284615834
31
0.0
  0
LINE
 8
GROUP0
10
336.55733306575
20
389.243374802548
30
0.0
11
336.070173749632
21
389.051477644636
31
0.0
  0
LINE
 8
GROUP0
10
325.72817754195
20
382.075713121402
30
0.0
11
325.367760503534
21
381.695912809507
31
0.0
  0
LINE
 8
GROUP0
10
326.848420750234
20
383.176573056207
30
0.0
11
326.468620438339
21
382.816156017792
31
0.0
  0
LINE
 8
GROUP0
10
333.688656559923
20
387.966157733283
30
0.0
11
333.224224668532
21
387.7243897934
31
0.0
  0
LINE
 8
GROUP0
10
352.517816882117
20
390.780194597999
30
0.0
11
352.001405503316
21
390.866612225486
31
0.0
  0
LINE
 8
GROUP0
10
354.566028420099
20
390.344833795912
30
0.0
11
354.056903182425
21
390.467063951189
31
0.0
  0
LINE
 8
GROUP0
10
342.098926222101
20
390.780194597999
30
0.0
11
341.584101690813
21
390.684777511062
31
0.0
  0
LINE
 8
GROUP0
10
358.546569354586
20
389.051477644636
30
0.0
11
358.059410038468
21
389.243374802548
31
0.0
  0
LINE
 8
GROUP0
10
356.079522693791
20
389.925104686523
30
0.0
11
355.577492226619
21
390.073812885782
31
0.0
  0
LINE
 8
GROUP0
10
357.568975851879
20
389.42674063121
30
0.0
11
357.075416185824
21
389.601519275612
31
0.0
  0
LINE
 8
GROUP0
10
346.784799358991
20
391.231392862324
30
0.0
11
346.261386651034
21
391.217686818205
31
0.0
  0
LINE
 8
GROUP0
10
348.878450239397
20
391.194848050269
30
0.0
11
348.355356453184
21
391.217686818205
31
0.0
  0
LINE
 8
GROUP0
10
354.056903182425
20
390.467063951189
30
0.0
11
353.545722276642
21
390.580390029646
31
0.0
  0
LINE
 8
GROUP0
10
349.401065764433
20
391.162883515427
30
0.0
11
348.878450239397
21
391.194848050269
31
0.0
  0
LINE
 8
GROUP0
10
360.459505955781
20
388.199783396607
30
0.0
11
359.98691940433
21
388.425195618732
31
0.0
  0
LINE
 8
GROUP0
10
350.964451854264
20
391.012346556872
30
0.0
11
350.444225450139
21
391.071618868681
31
0.0
  0
LINE
 8
GROUP0
10
338.537220410427
20
389.925104686523
30
0.0
11
338.037861720861
21
389.767657496487
31
0.0
  0
LINE
 8
GROUP0
10
348.355356453184
20
391.217686818205
30
0.0
11
347.831943745228
21
391.231392862324
31
0.0
  0
LINE
 8
GROUP0
10
356.578881383358
20
389.767657496487
30
0.0
11
356.079522693791
21
389.925104686523
31
0.0
  0
LINE
 8
GROUP0
10
347.831943745228
20
391.231392862324
30
0.0
11
347.308371552109
21
391.235962007632
31
0.0
  0
LINE
 8
GROUP0
10
357.075416185824
20
389.601519275612
30
0.0
11
356.578881383358
21
389.767657496487
31
0.0
  0
LINE
 8
GROUP0
10
358.059410038468
20
389.243374802548
30
0.0
11
357.568975851879
21
389.42674063121
31
0.0
  0
LINE
 8
GROUP0
10
347.308371552109
20
391.235962007632
30
0.0
11
346.784799358991
21
391.231392862324
31
0.0
  0
LINE
 8
GROUP0
10
359.98691940433
20
388.425195618732
30
0.0
11
359.510470844383
21
388.64232573691
31
0.0
  0
LINE
 8
GROUP0
10
345.738292864821
20
391.194848050269
30
0.0
11
345.215677339785
21
391.162883515427
31
0.0
  0
LINE
 8
GROUP0
10
360.928086544296
20
387.966157733283
30
0.0
11
360.459505955781
21
388.199783396607
31
0.0
  0
LINE
 8
GROUP0
10
349.923043834539
20
391.121802950385
30
0.0
11
349.401065764433
21
391.162883515427
31
0.0
  0
LINE
 8
GROUP0
10
353.032641413405
20
390.684777511062
30
0.0
11
352.517816882117
21
390.780194597999
31
0.0
  0
LINE
 8
GROUP0
10
352.001405503316
20
390.866612225486
30
0.0
11
351.483564580911
21
390.944004069879
31
0.0
  0
LINE
 8
GROUP0
10
351.483564580911
20
390.944004069879
30
0.0
11
350.964451854264
21
391.012346556872
31
0.0
  0
LINE
 8
GROUP0
10
353.545722276642
20
390.580390029646
30
0.0
11
353.032641413405
21
390.684777511062
31
0.0
  0
LINE
 8
GROUP0
10
339.543800199033
20
390.213736796304
30
0.0
11
339.039250877599
21
390.073812885782
31
0.0
  0
LINE
 8
GROUP0
10
343.133178523307
20
390.944004069879
30
0.0
11
342.615337600902
21
390.866612225486
31
0.0
  0
LINE
 8
GROUP0
10
346.261386651034
20
391.217686818205
30
0.0
11
345.738292864821
21
391.194848050269
31
0.0
  0
LINE
 8
GROUP0
10
344.693699269679
20
391.121802950385
30
0.0
11
344.172517654079
21
391.071618868681
31
0.0
  0
LINE
 8
GROUP0
10
350.444225450139
20
391.071618868681
30
0.0
11
349.923043834539
21
391.121802950385
31
0.0
  0
LINE
 8
GROUP0
10
363.205949479105
20
386.677404892325
30
0.0
11
362.759513799411
21
386.950981028696
31
0.0
  0
LINE
 8
GROUP0
10
364.941929120883
20
385.506471838881
30
0.0
11
364.51566464264
21
385.810523336302
31
0.0
  0
LINE
 8
GROUP0
10
365.778215811879
20
384.876284615834
30
0.0
11
365.36282224667
21
385.195027309051
31
0.0
  0
LINE
 8
GROUP0
10
363.64754260256
20
386.396079045995
30
0.0
11
363.205949479105
21
386.677404892325
31
0.0
  0
LINE
 8
GROUP0
10
368.521574987705
20
382.449165443229
30
0.0
11
368.148122665879
21
382.816156017792
31
0.0
  0
LINE
 8
GROUP0
10
361.852660159499
20
387.474553221814
30
0.0
11
361.392518435686
21
387.7243897934
31
0.0
  0
LINE
 8
GROUP0
10
373.546962766291
20
375.780250615022
30
0.0
11
373.289133665642
21
376.235962007632
31
0.0
  0
LINE
 8
GROUP0
10
365.36282224667
20
385.195027309051
30
0.0
11
364.941929120883
21
385.506471838881
31
0.0
  0
LINE
 8
GROUP0
10
367.382289742875
20
383.530306771954
30
0.0
11
366.990142421824
21
383.877249414315
31
0.0
  0
LINE
 8
GROUP0
10
368.888565562269
20
382.075713121402
30
0.0
11
368.521574987705
21
382.449165443229
31
0.0
  0
LINE
 8
GROUP0
10
369.602716316431
20
381.309880198398
30
0.0
11
369.248982600684
21
381.695912809507
31
0.0
  0
LINE
 8
GROUP0
10
370.948694160311
20
379.705806267402
30
0.0
11
370.622750395818
21
380.115573739127
31
0.0
  0
LINE
 8
GROUP0
10
372.749814436802
20
377.133539934628
30
0.0
11
372.468488590472
21
377.575133058083
31
0.0
  0
LINE
 8
GROUP0
10
364.084158656232
20
386.107089184284
30
0.0
11
363.64754260256
21
386.396079045995
31
0.0
  0
LINE
 8
GROUP0
10
366.990142421824
20
383.877249414315
30
0.0
11
366.591999842705
21
384.217295301202
31
0.0
  0
LINE
 8
GROUP0
10
369.248982600684
20
381.695912809507
30
0.0
11
368.888565562269
21
382.075713121402
31
0.0
  0
LINE
 8
GROUP0
10
359.510470844383
20
388.64232573691
30
0.0
11
359.030305406787
21
388.851107611205
31
0.0
  0
LINE
 8
GROUP0
10
370.289704845678
20
380.519590298228
30
0.0
11
369.949658958792
21
380.917732877348
31
0.0
  0
LINE
 8
GROUP0
10
361.392518435686
20
387.7243897934
30
0.0
11
360.928086544296
21
387.966157733283
31
0.0
  0
LINE
 8
GROUP0
10
355.577492226619
20
390.073812885782
30
0.0
11
355.072942905185
21
390.213736796304
31
0.0
  0
LINE
 8
GROUP0
10
371.267436853528
20
379.290412702194
30
0.0
11
370.948694160311
21
379.705806267402
31
0.0
  0
LINE
 8
GROUP0
10
355.072942905185
20
390.213736796304
30
0.0
11
354.566028420099
21
390.344833795912
31
0.0
  0
LINE
 8
GROUP0
10
366.187983283604
20
384.550340851341
30
0.0
11
365.778215811879
21
384.876284615834
31
0.0
  0
LINE
 8
GROUP0
10
359.030305406787
20
388.851107611205
30
0.0
11
358.546569354586
21
389.051477644636
31
0.0
  0
LINE
 8
GROUP0
10
368.148122665879
20
382.816156017792
30
0.0
11
367.768322353984
21
383.176573056207
31
0.0
  0
LINE
 8
GROUP0
10
362.759513799411
20
386.950981028696
30
0.0
11
362.308371552109
21
387.216724121165
31
0.0
  0
LINE
 8
GROUP0
10
364.51566464264
20
385.810523336302
30
0.0
11
364.084158656232
21
386.107089184284
31
0.0
  0
LINE
 8
GROUP0
10
367.768322353984
20
383.176573056207
30
0.0
11
367.382289742875
21
383.530306771954
31
0.0
  0
LINE
 8
GROUP0
10
369.949658958792
20
380.917732877348
30
0.0
11
369.602716316431
21
381.309880198398
31
0.0
  0
LINE
 8
GROUP0
10
371.578881383358
20
378.869519576406
30
0.0
11
371.267436853528
21
379.290412702194
31
0.0
  0
LINE
 8
GROUP0
10
366.591999842705
20
384.217295301202
30
0.0
11
366.187983283604
21
384.550340851341
31
0.0
  0
LINE
 8
GROUP0
10
362.308371552109
20
387.216724121165
30
0.0
11
361.852660159499
21
387.474553221814
31
0.0
  0
LINE
 8
GROUP0
10
374.03856727776
20
374.855676999819
30
0.0
11
373.796799337877
21
375.320108891209
31
0.0
  0
LINE
 8
GROUP0
10
345.308371552109
20
378.235962007632
30
9.02389274415327e-014
11
349.308371552109
21
378.235962007632
31
9.02389274415327e-014
  0
LINE
 8
GROUP0
10
370.622750395818
20
380.115573739127
30
0.0
11
370.289704845678
21
380.519590298228
31
0.0
  0
LINE
 8
GROUP0
10
374.714735281387
20
373.438061299906
30
0.0
11
374.497605163209
21
373.914509859853
31
0.0
  0
LINE
 8
GROUP0
10
349.308371552109
20
363.235962007632
30
9.02389274415327e-014
11
364.308371552109
21
363.235962007632
31
9.02389274415327e-014
  0
LINE
 8
GROUP0
10
330.308371552109
20
363.235962007632
30
9.02389274415327e-014
11
345.308371552109
21
363.235962007632
31
9.02389274415327e-014
  0
LINE
 8
GROUP0
10
372.17949872876
20
378.011749111755
30
0.0
11
371.882932880779
21
378.443255098164
31
0.0
  0
LINE
 8
GROUP0
10
349.308371552109
20
344.235962007632
30
9.02389274415327e-014
11
345.308371552109
21
344.235962007632
31
9.02389274415327e-014
  0
LINE
 8
GROUP0
10
349.308371552109
20
359.235962007632
30
9.02389274415327e-014
11
349.308371552109
21
344.235962007632
31
9.02389274415327e-014
  0
LINE
 8
GROUP0
10
373.796799337877
20
375.320108891209
30
0.0
11
373.546962766291
21
375.780250615022
31
0.0
  0
LINE
 8
GROUP0
10
371.882932880779
20
378.443255098164
30
0.0
11
371.578881383358
21
378.869519576406
31
0.0
  0
LINE
 8
GROUP0
10
375.997514231
20
370.007113149314
30
0.0
11
375.840067040964
21
370.506471838881
31
0.0
  0
LINE
 8
GROUP0
10
375.499150175686
20
371.496566307402
30
0.0
11
375.315784347025
21
371.987000493991
31
0.0
  0
LINE
 8
GROUP0
10
375.315784347025
20
371.987000493991
30
0.0
11
375.123887189113
21
372.47415981011
31
0.0
  0
LINE
 8
GROUP0
10
375.673928820089
20
371.003006641347
30
0.0
11
375.499150175686
21
371.496566307402
31
0.0
  0
LINE
 8
GROUP0
10
376.286146340781
20
369.000533360708
30
0.0
11
376.146222430259
21
369.505082682142
31
0.0
  0
LINE
 8
GROUP0
10
374.923517155682
20
372.957895862311
30
0.0
11
374.714735281387
21
373.438061299906
31
0.0
  0
LINE
 8
GROUP0
10
374.497605163209
20
373.914509859853
30
0.0
11
374.272192941084
21
374.387096411305
31
0.0
  0
LINE
 8
GROUP0
10
373.289133665642
20
376.235962007632
30
0.0
11
373.023390573172
21
376.687104254934
31
0.0
  0
LINE
 8
GROUP0
10
375.840067040964
20
370.506471838881
30
0.0
11
375.673928820089
21
371.003006641347
31
0.0
  0
LINE
 8
GROUP0
10
345.308371552109
20
359.235962007632
30
9.02389274415327e-014
11
330.308371552109
21
359.235962007632
31
9.02389274415327e-014
  0
LINE
 8
GROUP0
10
364.308371552109
20
363.235962007632
30
9.02389274415327e-014
11
364.308371552109
21
359.235962007632
31
9.02389274415327e-014
  0
LINE
 8
GROUP0
10
345.308371552109
20
363.235962007632
30
9.02389274415327e-014
11
345.308371552109
21
378.235962007632
31
9.02389274415327e-014
  0
LINE
 8
GROUP0
10
376.146222430259
20
369.505082682142
30
0.0
11
375.997514231
21
370.007113149314
31
0.0
  0
LINE
 8
GROUP0
10
373.023390573172
20
376.687104254934
30
0.0
11
372.749814436802
21
377.133539934628
31
0.0
  0
LINE
 8
GROUP0
10
375.123887189113
20
372.47415981011
30
0.0
11
374.923517155682
21
372.957895862311
31
0.0
  0
LINE
 8
GROUP0
10
330.308371552109
20
359.235962007632
30
9.02389274415327e-014
11
330.308371552109
21
363.235962007632
31
9.02389274415327e-014
  0
LINE
 8
GROUP0
10
349.308371552109
20
378.235962007632
30
9.02389274415327e-014
11
349.308371552109
21
363.235962007632
31
9.02389274415327e-014
  0
LINE
 8
GROUP0
10
364.308371552109
20
359.235962007632
30
9.02389274415327e-014
11
349.308371552109
21
359.235962007632
31
9.02389274415327e-014
  0
LINE
 8
GROUP0
10
345.308371552109
20
344.235962007632
30
9.02389274415327e-014
11
345.308371552109
21
359.235962007632
31
9.02389274415327e-014
  0
LINE
 8
GROUP0
10
372.468488590472
20
377.575133058083
30
0.0
11
372.17949872876
21
378.011749111755
31
0.0
  0
LINE
 8
GROUP0
10
374.272192941084
20
374.387096411305
30
0.0
11
374.03856727776
21
374.855676999819
31
0.0
  0
LINE
 8
GROUP0
10
338.537220410427
20
332.546819328741
30
0.0
11
339.039250877599
21
332.398111129483
31
0.0
  0
LINE
 8
GROUP0
10
339.039250877599
20
332.398111129483
30
0.0
11
339.543800199033
21
332.25818721896
31
0.0
  0
LINE
 8
GROUP0
10
340.050714684119
20
332.127090219352
30
0.0
11
340.559839921793
21
332.004860064075
31
0.0
  0
LINE
 8
GROUP0
10
341.584101690813
20
331.787146504202
30
0.0
11
342.098926222101
21
331.691729417266
31
0.0
  0
LINE
 8
GROUP0
10
341.071020827576
20
331.891533985618
30
0.0
11
341.584101690813
21
331.787146504202
31
0.0
  0
LINE
 8
GROUP0
10
340.559839921793
20
332.004860064075
30
0.0
11
341.071020827576
21
331.891533985618
31
0.0
  0
LINE
 8
GROUP0
10
339.543800199033
20
332.25818721896
30
0.0
11
340.050714684119
21
332.127090219352
31
0.0
  0
LINE
 8
GROUP0
10
262.261436902469
20
612.262890229008
30
0.0
11
259.86060971449
21
613.306799600484
31
0.0
  0
LINE
 8
GROUP0
10
216.930209931247
20
624.409355887859
30
0.0
11
214.324301853247
21
624.660276296379
31
0.0
  0
LINE
 8
GROUP0
10
152.415717272525
20
617.058857922515
30
0.0
11
149.947918942248
21
616.184964700504
31
0.0
  0
LINE
 8
GROUP0
10
224.716110197133
20
623.384322671888
30
0.0
11
222.126905585108
21
623.771281893853
31
0.0
  0
LINE
 8
GROUP0
10
164.962656101148
20
620.775430524017
30
0.0
11
162.42808367572
21
620.119945525978
31
0.0
  0
LINE
 8
GROUP0
10
193.400547004657
20
625.025501795804
30
0.0
11
190.78746937948
21
624.865679121591
31
0.0
  0
LINE
 8
GROUP0
10
198.633079475506
20
625.208225856076
30
0.0
11
196.016015935723
21
625.139695635482
31
0.0
  0
LINE
 8
GROUP0
10
154.898391284856
20
617.889549026891
30
0.0
11
152.415717272525
21
617.058857922515
31
0.0
  0
LINE
 8
GROUP0
10
185.571670950951
20
624.409355887859
30
0.0
11
182.970538930326
21
624.112994328816
31
0.0
  0
LINE
 8
GROUP0
10
214.324301853247
20
624.660276296379
30
0.0
11
211.714411502717
21
624.865679121591
31
0.0
  0
LINE
 8
GROUP0
10
170.064186818435
20
621.953211692689
30
0.0
11
167.508282289519
21
621.386581300403
31
0.0
  0
LINE
 8
GROUP0
10
188.17757902895
20
624.660276296379
30
0.0
11
185.571670950951
21
624.409355887859
31
0.0
  0
LINE
 8
GROUP0
10
167.508282289519
20
621.386581300403
30
0.0
11
164.962656101148
21
620.775430524017
31
0.0
  0
LINE
 8
GROUP0
10
180.374975297089
20
623.771281893853
30
0.0
11
177.785770685064
21
623.384322671888
31
0.0
  0
LINE
 8
GROUP0
10
222.126905585108
20
623.771281893853
30
0.0
11
219.531341951871
21
624.112994328816
31
0.0
  0
LINE
 8
GROUP0
10
227.298167091138
20
622.952234534449
30
0.0
11
224.716110197133
21
623.384322671888
31
0.0
  0
LINE
 8
GROUP0
10
219.531341951871
20
624.112994328816
30
0.0
11
216.930209931247
21
624.409355887859
31
0.0
  0
LINE
 8
GROUP0
10
190.78746937948
20
624.865679121591
30
0.0
11
188.17757902895
21
624.660276296379
31
0.0
  0
LINE
 8
GROUP0
10
196.016015935723
20
625.139695635482
30
0.0
11
193.400547004657
21
625.025501795804
31
0.0
  0
LINE
 8
GROUP0
10
211.714411502717
20
624.865679121591
30
0.0
11
209.10133387754
21
625.025501795804
31
0.0
  0
LINE
 8
GROUP0
10
206.485864946474
20
625.139695635482
30
0.0
11
203.868801406691
21
625.208225856076
31
0.0
  0
LINE
 8
GROUP0
10
203.868801406691
20
625.208225856076
30
0.0
11
201.250940441099
21
625.231071582618
31
0.0
  0
LINE
 8
GROUP0
10
159.905337068549
20
619.420325973365
30
0.0
11
157.395184732688
21
618.676784977073
31
0.0
  0
LINE
 8
GROUP0
10
182.970538930326
20
624.112994328816
30
0.0
11
180.374975297089
21
623.771281893853
31
0.0
  0
LINE
 8
GROUP0
10
209.10133387754
20
625.025501795804
30
0.0
11
206.485864946474
21
625.139695635482
31
0.0
  0
LINE
 8
GROUP0
10
201.250940441099
20
625.231071582618
30
0.0
11
198.633079475506
21
625.208225856076
31
0.0
  0
LINE
 8
GROUP0
10
147.495748009303
20
615.268135557198
30
0.0
11
145.059951428712
21
614.308649767636
31
0.0
  0
LINE
 8
GROUP0
10
237.539224781049
20
620.775430524017
30
0.0
11
234.993598592678
21
621.386581300403
31
0.0
  0
LINE
 8
GROUP0
10
149.947918942248
20
616.184964700504
30
0.0
11
147.495748009303
21
615.268135557198
31
0.0
  0
LINE
 8
GROUP0
10
229.87228974758
20
622.475149099767
30
0.0
11
227.298167091138
21
622.952234534449
31
0.0
  0
LINE
 8
GROUP0
10
232.437694063762
20
621.953211692689
30
0.0
11
229.87228974758
21
622.475149099767
31
0.0
  0
LINE
 8
GROUP0
10
162.42808367572
20
620.119945525978
30
0.0
11
159.905337068549
21
619.420325973365
31
0.0
  0
LINE
 8
GROUP0
10
255.006132872894
20
615.268135557198
30
0.0
11
252.553961939949
21
616.184964700504
31
0.0
  0
LINE
 8
GROUP0
10
252.553961939949
20
616.184964700504
30
0.0
11
250.086163609672
21
617.058857922515
31
0.0
  0
LINE
 8
GROUP0
10
271.671674858982
20
607.673210511457
30
0.0
11
269.349515402031
21
608.882050210873
31
0.0
  0
LINE
 8
GROUP0
10
273.972383478049
20
606.424027653527
30
0.0
11
271.671674858982
21
607.673210511457
31
0.0
  0
LINE
 8
GROUP0
10
269.349515402031
20
608.882050210873
30
0.0
11
267.00661245946
21
610.050178527493
31
0.0
  0
LINE
 8
GROUP0
10
264.643679702203
20
611.177239638115
30
0.0
11
262.261436902469
21
612.262890229008
31
0.0
  0
LINE
 8
GROUP0
10
234.993598592678
20
621.386581300403
30
0.0
11
232.437694063762
21
621.953211692689
31
0.0
  0
LINE
 8
GROUP0
10
291.523193913906
20
595.026398089712
30
0.0
11
289.41872828497
21
596.58362073886
31
0.0
  0
LINE
 8
GROUP0
10
285.129875961711
20
599.586707465874
30
0.0
11
282.946795693353
21
601.031656774431
31
0.0
  0
LINE
 8
GROUP0
10
276.250940441099
20
605.134882150283
30
0.0
11
273.972383478049
21
606.424027653527
31
0.0
  0
LINE
 8
GROUP0
10
250.086163609672
20
617.058857922515
30
0.0
11
247.603489597341
21
617.889549026891
31
0.0
  0
LINE
 8
GROUP0
10
293.600161739947
20
593.432684623626
30
0.0
11
291.523193913906
21
595.026398089712
31
0.0
  0
LINE
 8
GROUP0
10
259.86060971449
20
613.306799600484
30
0.0
11
257.441929453485
21
614.308649767636
31
0.0
  0
LINE
 8
GROUP0
10
299.659794789675
20
588.437508616033
30
0.0
11
297.669081894079
21
590.137738050464
31
0.0
  0
LINE
 8
GROUP0
10
289.41872828497
20
596.58362073886
30
0.0
11
287.287405893755
21
598.103878225966
31
0.0
  0
LINE
 8
GROUP0
10
247.603489597341
20
617.889549026891
30
0.0
11
245.106696149509
21
618.676784977073
31
0.0
  0
LINE
 8
GROUP0
10
245.106696149509
20
618.676784977073
30
0.0
11
242.596543813648
21
619.420325973365
31
0.0
  0
LINE
 8
GROUP0
10
267.00661245946
20
610.050178527493
30
0.0
11
264.643679702203
21
611.177239638115
31
0.0
  0
LINE
 8
GROUP0
10
301.620531394927
20
586.702795404227
30
0.0
11
299.659794789675
21
588.437508616033
31
0.0
  0
LINE
 8
GROUP0
10
278.506651677607
20
603.806166687934
30
0.0
11
276.250940441099
21
605.134882150283
31
0.0
  0
LINE
 8
GROUP0
10
297.669081894079
20
590.137738050464
30
0.0
11
295.648999098574
21
591.802965801163
31
0.0
  0
LINE
 8
GROUP0
10
287.287405893755
20
598.103878225966
30
0.0
11
285.129875961711
21
599.586707465874
31
0.0
  0
LINE
 8
GROUP0
10
282.946795693353
20
601.031656774431
30
0.0
11
280.738830076079
21
602.438286006082
31
0.0
  0
LINE
 8
GROUP0
10
295.648999098574
20
591.802965801163
30
0.0
11
293.600161739947
21
593.432684623626
31
0.0
  0
LINE
 8
GROUP0
10
280.738830076079
20
602.438286006082
30
0.0
11
278.506651677607
21
603.806166687934
31
0.0
  0
LINE
 8
GROUP0
10
321.046266948192
20
565.503325055425
30
0.0
11
319.452553482107
21
567.580292881466
31
0.0
  0
LINE
 8
GROUP0
10
257.441929453485
20
614.308649767636
30
0.0
11
255.006132872894
21
615.268135557198
31
0.0
  0
LINE
 8
GROUP0
10
310.953995683974
20
577.530825591992
30
0.0
11
309.151910491896
21
579.429827151467
31
0.0
  0
LINE
 8
GROUP0
10
307.316957619081
20
581.2970887606
30
0.0
11
305.449696009948
21
583.132041633415
31
0.0
  0
LINE
 8
GROUP0
10
314.457377474514
20
573.639925931194
30
0.0
11
312.722664262708
21
575.600662536446
31
0.0
  0
LINE
 8
GROUP0
10
240.073797206477
20
620.119945525978
30
0.0
11
237.539224781049
21
620.775430524017
31
0.0
  0
LINE
 8
GROUP0
10
242.596543813648
20
619.420325973365
30
0.0
11
240.073797206477
21
620.119945525978
31
0.0
  0
LINE
 8
GROUP0
10
375.17125577112
20
382.005111048487
30
0.0
11
376.116629140165
21
380.334169275584
31
0.0
  0
LINE
 8
GROUP0
10
421.440468585103
20
337.323451614864
30
0.0
11
423.158597409655
21
336.466824182676
31
0.0
  0
LINE
 8
GROUP0
10
382.387554175209
20
370.677791523412
30
0.0
11
383.529517451251
21
369.134516728859
31
0.0
  0
LINE
 8
GROUP0
10
381.272698684664
20
372.240761276969
30
0.0
11
382.387554175209
21
370.677791523412
31
0.0
  0
LINE
 8
GROUP0
10
399.212930367497
20
352.316115451079
30
0.0
11
400.672786490934
21
351.069280532497
31
0.0
  0
LINE
 8
GROUP0
10
419.737551650005
20
338.209934061102
30
0.0
11
421.440468585103
21
337.323451614864
31
0.0
  0
LINE
 8
GROUP0
10
418.050365329356
20
339.126001490251
30
0.0
11
419.737551650005
21
338.209934061102
31
0.0
  0
LINE
 8
GROUP0
10
400.672786490934
20
351.069280532497
30
0.0
11
402.154180540971
21
349.848113515318
31
0.0
  0
LINE
 8
GROUP0
10
403.656661270631
20
348.652986378845
30
0.0
11
405.179771009728
21
347.484263170382
31
0.0
  0
LINE
 8
GROUP0
10
397.775056856979
20
353.588238473071
30
0.0
11
399.212930367497
21
352.316115451079
31
0.0
  0
LINE
 8
GROUP0
10
379.125661082457
20
375.423875423931
30
0.0
11
380.185290575399
21
373.822949893802
31
0.0
  0
LINE
 8
GROUP0
10
406.723045804281
20
346.34229989434
30
0.0
11
408.286015557838
21
345.227444403795
31
0.0
  0
LINE
 8
GROUP0
10
374.255188341971
20
383.692297369136
30
0.0
11
375.17125577112
21
382.005111048487
31
0.0
  0
LINE
 8
GROUP0
10
393.597677625933
20
357.552423345064
30
0.0
11
394.967002805963
21
356.206791238333
31
0.0
  0
LINE
 8
GROUP0
10
392.252045519202
20
358.921748525095
30
0.0
11
393.597677625933
21
357.552423345064
31
0.0
  0
LINE
 8
GROUP0
10
390.930516378344
20
360.31434966871
30
0.0
11
392.252045519202
21
358.921748525095
31
0.0
  0
LINE
 8
GROUP0
10
405.179771009728
20
347.484263170382
30
0.0
11
406.723045804281
21
346.34229989434
31
0.0
  0
LINE
 8
GROUP0
10
416.379423556453
20
340.071374859296
30
0.0
11
418.050365329356
21
339.126001490251
31
0.0
  0
LINE
 8
GROUP0
10
396.359603949578
20
354.885262097476
30
0.0
11
397.775056856979
21
353.588238473071
31
0.0
  0
LINE
 8
GROUP0
10
424.891414764976
20
335.640312701553
30
0.0
11
426.638392818115
21
334.844168934898
31
0.0
  0
LINE
 8
GROUP0
10
411.4691297048
20
343.080406801588
30
0.0
11
413.088304490801
21
342.048878698377
31
0.0
  0
LINE
 8
GROUP0
10
383.529517451251
20
369.134516728859
30
0.0
11
384.698240659714
21
367.611406989762
31
0.0
  0
LINE
 8
GROUP0
10
384.698240659714
20
367.611406989762
30
0.0
11
385.893367796186
21
366.108926260102
31
0.0
  0
LINE
 8
GROUP0
10
380.185290575399
20
373.822949893802
30
0.0
11
381.272698684664
21
372.240761276969
31
0.0
  0
LINE
 8
GROUP0
10
408.286015557838
20
345.227444403795
30
0.0
11
409.868204174671
21
344.14003629453
31
0.0
  0
LINE
 8
GROUP0
10
376.116629140165
20
380.334169275584
30
0.0
11
377.091020479221
21
378.679981035478
31
0.0
  0
LINE
 8
GROUP0
10
394.967002805963
20
356.206791238333
30
0.0
11
396.359603949578
21
354.885262097476
31
0.0
  0
LINE
 8
GROUP0
10
389.63349275394
20
361.72980257611
30
0.0
11
390.930516378344
21
360.31434966871
31
0.0
  0
LINE
 8
GROUP0
10
409.868204174671
20
344.14003629453
30
0.0
11
411.4691297048
21
343.080406801588
31
0.0
  0
LINE
 8
GROUP0
10
402.154180540971
20
349.848113515318
30
0.0
11
403.656661270631
21
348.652986378845
31
0.0
  0
LINE
 8
GROUP0
10
469.379423556453
20
467.334169275584
30
0.0
11
473.379423556453
21
467.334169275584
31
0.0
  0
LINE
 8
GROUP0
10
373.368705895733
20
385.395214304234
30
0.0
11
374.255188341971
21
383.692297369136
31
0.0
  0
LINE
 8
GROUP0
10
377.091020479221
20
378.679981035478
30
0.0
11
378.094132979246
21
377.043050209932
31
0.0
  0
LINE
 8
GROUP0
10
503.379423556453
20
437.334169275584
30
0.0
11
503.379423556453
21
433.334169275584
31
0.0
  0
LINE
 8
GROUP0
10
378.094132979246
20
377.043050209932
30
0.0
11
379.125661082457
21
375.423875423931
31
0.0
  0
LINE
 8
GROUP0
10
439.379423556453
20
433.334169275584
30
0.0
11
439.379423556453
21
437.334169275584
31
0.0
  0
LINE
 8
GROUP0
10
473.379423556453
20
437.334169275584
30
0.0
11
503.379423556453
21
437.334169275584
31
0.0
  0
LINE
 8
GROUP0
10
372.512078463545
20
387.113343128786
30
0.0
11
373.368705895733
21
385.395214304234
31
0.0
  0
LINE
 8
GROUP0
10
439.379423556453
20
437.334169275584
30
0.0
11
469.379423556453
21
437.334169275584
31
0.0
  0
LINE
 8
GROUP0
10
473.379423556453
20
403.334169275584
30
0.0
11
469.379423556453
21
403.334169275584
31
0.0
  0
LINE
 8
GROUP0
10
473.379423556453
20
433.334169275584
30
0.0
11
473.379423556453
21
403.334169275584
31
0.0
  0
LINE
 8
GROUP0
10
469.379423556453
20
433.334169275584
30
0.0
11
439.379423556453
21
433.334169275584
31
0.0
  0
LINE
 8
GROUP0
10
503.379423556453
20
433.334169275584
30
0.0
11
473.379423556453
21
433.334169275584
31
0.0
  0
LINE
 8
GROUP0
10
371.685566982422
20
388.846160484107
30
0.0
11
372.512078463545
21
387.113343128786
31
0.0
  0
LINE
 8
GROUP0
10
469.379423556453
20
403.334169275584
30
0.0
11
469.379423556453
21
433.334169275584
31
0.0
  0
LINE
 8
GROUP0
10
387.114534813366
20
364.627532210065
30
0.0
11
388.361369731948
21
363.167676086629
31
0.0
  0
LINE
 8
GROUP0
10
385.893367796186
20
366.108926260102
30
0.0
11
387.114534813366
21
364.627532210065
31
0.0
  0
LINE
 8
GROUP0
10
473.379423556453
20
467.334169275584
30
0.0
11
473.379423556453
21
437.334169275584
31
0.0
  0
LINE
 8
GROUP0
10
469.379423556453
20
437.334169275584
30
0.0
11
469.379423556453
21
467.334169275584
31
0.0
  0
LINE
 8
GROUP0
10
388.361369731948
20
363.167676086629
30
0.0
11
389.63349275394
21
361.72980257611
31
0.0
  0
LINE
 8
GROUP0
10
556.86547931672
20
366.108926260102
30
0.0
11
558.060606453193
21
367.611406989762
31
0.0
  0
LINE
 8
GROUP0
10
546.399243163328
20
354.885262097476
30
0.0
11
547.791844306943
21
356.206791238333
31
0.0
  0
LINE
 8
GROUP0
10
537.579076103178
20
347.484263170382
30
0.0
11
539.102185842276
21
348.652986378845
31
0.0
  0
LINE
 8
GROUP0
10
532.890642938235
20
344.14003629453
30
0.0
11
534.472831555068
21
345.227444403795
31
0.0
  0
LINE
 8
GROUP0
10
559.229329661655
20
369.134516728859
30
0.0
11
560.371292937697
21
370.677791523412
31
0.0
  0
LINE
 8
GROUP0
10
569.390141217174
20
385.395214304234
30
0.0
11
570.246768649362
21
387.113343128786
31
0.0
  0
LINE
 8
GROUP0
10
565.667826633685
20
378.679981035478
30
0.0
11
566.642217972741
21
380.334169275584
31
0.0
  0
LINE
 8
GROUP0
10
568.503658770935
20
383.692297369136
30
0.0
11
569.390141217174
21
385.395214304234
31
0.0
  0
LINE
 8
GROUP0
10
554.397477380958
20
363.167676086628
30
0.0
11
555.644312299541
21
364.627532210065
31
0.0
  0
LINE
 8
GROUP0
10
561.486148428242
20
372.240761276969
30
0.0
11
562.573556537508
21
373.822949893802
31
0.0
  0
LINE
 8
GROUP0
10
531.289717408106
20
343.080406801588
30
0.0
11
532.890642938235
21
344.14003629453
31
0.0
  0
LINE
 8
GROUP0
10
542.086060621972
20
351.069280532497
30
0.0
11
543.545916745409
21
352.316115451079
31
0.0
  0
LINE
 8
GROUP0
10
540.604666571935
20
349.848113515318
30
0.0
11
542.086060621972
21
351.069280532497
31
0.0
  0
LINE
 8
GROUP0
10
543.545916745409
20
352.316115451079
30
0.0
11
544.983790255928
21
353.588238473071
31
0.0
  0
LINE
 8
GROUP0
10
544.983790255928
20
353.588238473071
30
0.0
11
546.399243163328
21
354.885262097476
31
0.0
  0
LINE
 8
GROUP0
10
566.642217972741
20
380.334169275584
30
0.0
11
567.587591341787
21
382.005111048487
31
0.0
  0
LINE
 8
GROUP0
10
536.035801308625
20
346.34229989434
30
0.0
11
537.579076103178
21
347.484263170382
31
0.0
  0
LINE
 8
GROUP0
10
555.644312299541
20
364.627532210065
30
0.0
11
556.86547931672
21
366.108926260102
31
0.0
  0
LINE
 8
GROUP0
10
560.371292937697
20
370.677791523412
30
0.0
11
561.486148428242
21
372.240761276969
31
0.0
  0
LINE
 8
GROUP0
10
551.828330734562
20
360.31434966871
30
0.0
11
553.125354358967
21
361.72980257611
31
0.0
  0
LINE
 8
GROUP0
10
550.506801593705
20
358.921748525095
30
0.0
11
551.828330734562
21
360.31434966871
31
0.0
  0
LINE
 8
GROUP0
10
509.001639322277
20
331.967980989134
30
0.0
11
510.799898006436
21
332.640322360892
31
0.0
  0
LINE
 8
GROUP0
10
514.359847690273
20
334.078635395816
30
0.0
11
516.120454294791
21
334.844168934898
31
0.0
  0
LINE
 8
GROUP0
10
558.060606453193
20
367.611406989762
30
0.0
11
559.229329661655
21
369.134516728859
31
0.0
  0
LINE
 8
GROUP0
10
539.102185842276
20
348.652986378845
30
0.0
11
540.604666571935
21
349.848113515318
31
0.0
  0
LINE
 8
GROUP0
10
534.472831555068
20
345.227444403795
30
0.0
11
536.035801308625
21
346.34229989434
31
0.0
  0
LINE
 8
GROUP0
10
564.66471413366
20
377.043050209932
30
0.0
11
565.667826633685
21
378.679981035478
31
0.0
  0
LINE
 8
GROUP0
10
549.161169486973
20
357.552423345064
30
0.0
11
550.506801593705
21
358.921748525095
31
0.0
  0
LINE
 8
GROUP0
10
562.573556537508
20
373.822949893802
30
0.0
11
563.63318603045
21
375.423875423931
31
0.0
  0
LINE
 8
GROUP0
10
547.791844306943
20
356.206791238333
30
0.0
11
549.161169486973
21
357.552423345064
31
0.0
  0
LINE
 8
GROUP0
10
529.670542622106
20
342.048878698377
30
0.0
11
531.289717408106
21
343.080406801588
31
0.0
  0
LINE
 8
GROUP0
10
516.120454294791
20
334.844168934898
30
0.0
11
517.86743234793
21
335.640312701553
31
0.0
  0
LINE
 8
GROUP0
10
479.052635668307
20
325.602123747004
30
0.0
11
480.966555258696
21
325.752752485492
31
0.0
  0
LINE
 8
GROUP0
10
523.021295462901
20
338.209934061102
30
0.0
11
524.70848178355
21
339.126001490251
31
0.0
  0
LINE
 8
GROUP0
10
490.480723099815
20
327.005316444241
30
0.0
11
492.368413047873
21
327.355179096341
31
0.0
  0
LINE
 8
GROUP0
10
465.622468369729
20
325.484920452581
30
0.0
11
467.540478919178
21
325.401178303484
31
0.0
  0
LINE
 8
GROUP0
10
507.19192054674
20
331.327125959659
30
0.0
11
509.001639322277
21
331.967980989134
31
0.0
  0
LINE
 8
GROUP0
10
486.68846466206
20
326.404681714012
30
0.0
11
488.587214710879
21
326.688451810119
31
0.0
  0
LINE
 8
GROUP0
10
475.218368193728
20
325.401178303484
30
0.0
11
477.136378743177
21
325.484920452581
31
0.0
  0
LINE
 8
GROUP0
10
473.299188264554
20
325.350922808381
30
0.0
11
475.218368193728
21
325.401178303484
31
0.0
  0
LINE
 8
GROUP0
10
492.368413047873
20
327.355179096341
30
0.0
11
494.249709546407
21
327.737933194866
31
0.0
  0
LINE
 8
GROUP0
10
482.877554515895
20
325.936760785074
30
0.0
11
484.785051331019
21
326.154092595039
31
0.0
  0
LINE
 8
GROUP0
10
524.70848178355
20
339.126001490251
30
0.0
11
526.379423556453
21
340.071374859296
31
0.0
  0
LINE
 8
GROUP0
10
517.86743234793
20
335.640312701553
30
0.0
11
519.600249703252
21
336.466824182676
31
0.0
  0
LINE
 8
GROUP0
10
471.379423556453
20
325.334169275584
30
0.0
11
473.299188264554
21
325.350922808381
31
0.0
  0
LINE
 8
GROUP0
10
499.84951851773
20
329.082328383787
30
0.0
11
501.699532696323
21
329.595382722369
31
0.0
  0
LINE
 8
GROUP0
10
526.379423556453
20
340.071374859296
30
0.0
11
528.033611796559
21
341.045766198352
31
0.0
  0
LINE
 8
GROUP0
10
480.966555258696
20
325.752752485492
30
0.0
11
482.877554515895
21
325.936760785074
31
0.0
  0
LINE
 8
GROUP0
10
494.249709546407
20
327.737933194866
30
0.0
11
496.124039534278
21
328.153462149208
31
0.0
  0
LINE
 8
GROUP0
10
488.587214710879
20
326.688451810119
30
0.0
11
490.480723099815
21
327.005316444241
31
0.0
  0
LINE
 8
GROUP0
10
503.540311075954
20
330.14064611965
30
0.0
11
505.371292937697
21
330.717952483117
31
0.0
  0
LINE
 8
GROUP0
10
501.699532696323
20
329.595382722369
30
0.0
11
503.540311075954
21
330.14064611965
31
0.0
  0
LINE
 8
GROUP0
10
477.136378743177
20
325.484920452581
30
0.0
11
479.052635668307
21
325.602123747004
31
0.0
  0
LINE
 8
GROUP0
10
497.990832072417
20
328.601639385225
30
0.0
11
499.84951851773
21
329.082328383787
31
0.0
  0
LINE
 8
GROUP0
10
519.600249703252
20
336.466824182676
30
0.0
11
521.318378527803
21
337.323451614864
31
0.0
  0
LINE
 8
GROUP0
10
521.318378527803
20
337.323451614864
30
0.0
11
523.021295462901
21
338.209934061102
31
0.0
  0
LINE
 8
GROUP0
10
512.586148832204
20
333.343945273238
30
0.0
11
514.359847690273
21
334.078635395816
31
0.0
  0
LINE
 8
GROUP0
10
505.371292937697
20
330.717952483117
30
0.0
11
507.19192054674
21
331.327125959659
31
0.0
  0
LINE
 8
GROUP0
10
510.799898006436
20
332.640322360892
30
0.0
11
512.586148832204
21
333.343945273238
31
0.0
  0
LINE
 8
GROUP0
10
484.785051331019
20
326.154092595039
30
0.0
11
486.68846466206
21
326.404681714012
31
0.0
  0
LINE
 8
GROUP0
10
496.124039534278
20
328.153462149208
30
0.0
11
497.990832072417
21
328.601639385225
31
0.0
  0
LINE
 8
GROUP0
10
528.033611796559
20
341.045766198352
30
0.0
11
529.670542622106
21
342.048878698377
31
0.0
  0
LINE
 8
GROUP0
10
444.76801504049
20
328.601639385225
30
0.0
11
446.634807578628
21
328.153462149208
31
0.0
  0
LINE
 8
GROUP0
10
467.540478919178
20
325.401178303484
30
0.0
11
469.459658848352
21
325.350922808381
31
0.0
  0
LINE
 8
GROUP0
10
461.792291854211
20
325.752752485492
30
0.0
11
463.706211444599
21
325.602123747004
31
0.0
  0
LINE
 8
GROUP0
10
442.909328595176
20
329.082328383787
30
0.0
11
444.76801504049
21
328.601639385225
31
0.0
  0
LINE
 8
GROUP0
10
414.725235316347
20
341.045766198352
30
0.0
11
416.379423556453
21
340.071374859296
31
0.0
  0
LINE
 8
GROUP0
10
435.566926566166
20
331.327125959659
30
0.0
11
437.387554175209
21
330.717952483117
31
0.0
  0
LINE
 8
GROUP0
10
175.203713791059
20
622.952234534449
30
0.0
11
172.629591134617
21
622.475149099767
31
0.0
  0
LINE
 8
GROUP0
10
450.390434065033
20
327.355179096341
30
0.0
11
452.278124013091
21
327.005316444241
31
0.0
  0
LINE
 8
GROUP0
10
452.278124013091
20
327.005316444241
30
0.0
11
454.171632402028
21
326.688451810119
31
0.0
  0
LINE
 8
GROUP0
10
437.387554175209
20
330.717952483117
30
0.0
11
439.218536036952
21
330.14064611965
31
0.0
  0
LINE
 8
GROUP0
10
448.5091375665
20
327.737933194866
30
0.0
11
450.390434065033
21
327.355179096341
31
0.0
  0
LINE
 8
GROUP0
10
431.95894910647
20
332.640322360892
30
0.0
11
433.75720779063
21
331.967980989134
31
0.0
  0
LINE
 8
GROUP0
10
446.634807578628
20
328.153462149208
30
0.0
11
448.5091375665
21
327.737933194866
31
0.0
  0
LINE
 8
GROUP0
10
430.172698280703
20
333.343945273238
30
0.0
11
431.95894910647
21
332.640322360892
31
0.0
  0
LINE
 8
GROUP0
10
456.070382450846
20
326.404681714012
30
0.0
11
457.973795781887
21
326.154092595039
31
0.0
  0
LINE
 8
GROUP0
10
459.881292597011
20
325.936760785074
30
0.0
11
461.792291854211
21
325.752752485492
31
0.0
  0
LINE
 8
GROUP0
10
463.706211444599
20
325.602123747004
30
0.0
11
465.622468369729
21
325.484920452581
31
0.0
  0
LINE
 8
GROUP0
10
441.059314416583
20
329.595382722369
30
0.0
11
442.909328595176
21
329.082328383787
31
0.0
  0
LINE
 8
GROUP0
10
428.398999422633
20
334.078635395816
30
0.0
11
430.172698280703
21
333.343945273238
31
0.0
  0
LINE
 8
GROUP0
10
426.638392818115
20
334.844168934898
30
0.0
11
428.398999422633
21
334.078635395816
31
0.0
  0
LINE
 8
GROUP0
10
157.395184732688
20
618.676784977073
30
0.0
11
154.898391284856
21
617.889549026891
31
0.0
  0
LINE
 8
GROUP0
10
423.158597409655
20
336.466824182676
30
0.0
11
424.891414764976
21
335.640312701553
31
0.0
  0
LINE
 8
GROUP0
10
413.088304490801
20
342.048878698377
30
0.0
11
414.725235316347
21
341.045766198352
31
0.0
  0
LINE
 8
GROUP0
10
172.629591134617
20
622.475149099767
30
0.0
11
170.064186818435
21
621.953211692689
31
0.0
  0
LINE
 8
GROUP0
10
439.218536036952
20
330.14064611965
30
0.0
11
441.059314416583
21
329.595382722369
31
0.0
  0
LINE
 8
GROUP0
10
457.973795781887
20
326.154092595039
30
0.0
11
459.881292597011
21
325.936760785074
31
0.0
  0
LINE
 8
GROUP0
10
177.785770685064
20
623.384322671888
30
0.0
11
175.203713791059
21
622.952234534449
31
0.0
  0
LINE
 8
GROUP0
10
454.171632402028
20
326.688451810119
30
0.0
11
456.070382450846
21
326.404681714012
31
0.0
  0
LINE
 8
GROUP0
10
433.75720779063
20
331.967980989134
30
0.0
11
435.566926566166
21
331.327125959659
31
0.0
  0
LINE
 8
GROUP0
10
469.459658848352
20
325.350922808381
30
0.0
11
471.379423556453
21
325.334169275584
31
0.0
 0
ENDSEC
 0
EOF
