 0
SECTION
 2
ENTITIES
  0
POLYLINE
 8
COMPONENT0
 66
     1
70
    8
 10
0.0
 20
 0.0
 30
0.0
  0
VERTEX
  8
MY3DLAYER
10
499.762951140589
20
349.614574490614
30
0.0
 70
     32
  0
VERTEX
  8
MY3DLAYER
10
499.762951140589
20
533.114573931578
30
0.0
 70
     32
  0
VERTEX
  8
MY3DLAYER
10
485.762951140589
20
547.114573931578
30
0.0
 70
     32
  0
VERTEX
  8
MY3DLAYER
10
302.262951699625
20
547.114573931578
30
0.0
 70
     32
  0
VERTEX
  8
MY3DLAYER
10
288.262951699625
20
533.114573931578
30
0.0
 70
     32
  0
VERTEX
  8
MY3DLAYER
10
288.262951699625
20
349.614574490614
30
0.0
 70
     32
  0
VERTEX
  8
MY3DLAYER
10
302.262951699625
20
335.614574490614
30
0.0
 70
     32
  0
VERTEX
  8
MY3DLAYER
10
485.762951140589
20
335.614574490614
30
0.0
 70
     32
  0
VERTEX
  8
MY3DLAYER
10
499.762951140589
20
349.614574490614
30
0.0
 70
     32
  0
SEQEND
  0
POLYLINE
 8
COMPONENT0
 66
     1
70
    8
 10
0.0
 20
 0.0
 30
0.0
  0
VERTEX
  8
MY3DLAYER
10
464.012951420107
20
441.364574211096
30
0.0
 70
     32
  0
VERTEX
  8
MY3DLAYER
10
463.563806642232
20
434.511949119543
30
0.0
 70
     32
  0
VERTEX
  8
MY3DLAYER
10
463.414091716274
20
432.227740755692
30
0.0
 70
     32
  0
VERTEX
  8
MY3DLAYER
10
461.627759260342
20
423.24724105392
30
0.0
 70
     32
  0
VERTEX
  8
MY3DLAYER
10
458.684518695897
20
414.57673394554
30
0.0
 70
     32
  0
VERTEX
  8
MY3DLAYER
10
454.634729685018
20
406.364574211096
30
0.0
 70
     32
  0
VERTEX
  8
MY3DLAYER
10
449.547685240493
20
398.751274180486
30
0.0
 70
     32
  0
VERTEX
  8
MY3DLAYER
10
443.510426103165
20
391.867099528038
30
0.0
 70
     32
  0
VERTEX
  8
MY3DLAYER
10
436.626251450717
20
385.82984039071
30
0.0
 70
     32
  0
VERTEX
  8
MY3DLAYER
10
429.012951420107
20
380.742795946185
30
0.0
 70
     32
  0
VERTEX
  8
MY3DLAYER
10
420.800791685663
20
376.693006935306
30
0.0
 70
     32
  0
VERTEX
  8
MY3DLAYER
10
412.130284577283
20
373.749766370861
30
0.0
 70
     32
  0
VERTEX
  8
MY3DLAYER
10
403.14978487551
20
371.963433914929
30
0.0
 70
     32
  0
VERTEX
  8
MY3DLAYER
10
400.86557651166
20
371.813718988971
30
0.0
 70
     32
  0
VERTEX
  8
MY3DLAYER
10
394.012951420107
20
371.364574211096
30
0.0
 70
     32
  0
VERTEX
  8
MY3DLAYER
10
387.160326328554
20
371.813718988971
30
0.0
 70
     32
  0
VERTEX
  8
MY3DLAYER
10
384.876117964703
20
371.963433914929
30
0.0
 70
     32
  0
VERTEX
  8
MY3DLAYER
10
375.89561826293
20
373.749766370861
30
0.0
 70
     32
  0
VERTEX
  8
MY3DLAYER
10
367.225111154551
20
376.693006935306
30
0.0
 70
     32
  0
VERTEX
  8
MY3DLAYER
10
359.012951420107
20
380.742795946185
30
0.0
 70
     32
  0
VERTEX
  8
MY3DLAYER
10
351.399651389497
20
385.82984039071
30
0.0
 70
     32
  0
VERTEX
  8
MY3DLAYER
10
344.515476737049
20
391.867099528038
30
0.0
 70
     32
  0
VERTEX
  8
MY3DLAYER
10
338.47821759972
20
398.751274180486
30
0.0
 70
     32
  0
VERTEX
  8
MY3DLAYER
10
333.391173155196
20
406.364574211096
30
0.0
 70
     32
  0
VERTEX
  8
MY3DLAYER
10
329.341384144317
20
414.57673394554
30
0.0
 70
     32
  0
VERTEX
  8
MY3DLAYER
10
326.398143579872
20
423.24724105392
30
0.0
 70
     32
  0
VERTEX
  8
MY3DLAYER
10
324.61181112394
20
432.227740755692
30
0.0
 70
     32
  0
VERTEX
  8
MY3DLAYER
10
324.462096197982
20
434.511949119543
30
0.0
 70
     32
  0
VERTEX
  8
MY3DLAYER
10
324.012951420107
20
441.364574211096
30
0.0
 70
     32
  0
VERTEX
  8
MY3DLAYER
10
324.462096197982
20
448.217199302649
30
0.0
 70
     32
  0
VERTEX
  8
MY3DLAYER
10
324.61181112394
20
450.5014076665
30
0.0
 70
     32
  0
VERTEX
  8
MY3DLAYER
10
326.398143579872
20
459.481907368272
30
0.0
 70
     32
  0
VERTEX
  8
MY3DLAYER
10
329.341384144317
20
468.152414476652
30
0.0
 70
     32
  0
VERTEX
  8
MY3DLAYER
10
333.391173155196
20
476.364574211096
30
0.0
 70
     32
  0
VERTEX
  8
MY3DLAYER
10
338.47821759972
20
483.977874241706
30
0.0
 70
     32
  0
VERTEX
  8
MY3DLAYER
10
344.515476737049
20
490.862048894154
30
0.0
 70
     32
  0
VERTEX
  8
MY3DLAYER
10
351.399651389496
20
496.899308031482
30
0.0
 70
     32
  0
VERTEX
  8
MY3DLAYER
10
359.012951420107
20
501.986352476007
30
0.0
 70
     32
  0
VERTEX
  8
MY3DLAYER
10
367.225111154551
20
506.036141486886
30
0.0
 70
     32
  0
VERTEX
  8
MY3DLAYER
10
375.89561826293
20
508.979382051331
30
0.0
 70
     32
  0
VERTEX
  8
MY3DLAYER
10
384.876117964703
20
510.765714507263
30
0.0
 70
     32
  0
VERTEX
  8
MY3DLAYER
10
387.160326328554
20
510.915429433221
30
0.0
 70
     32
  0
VERTEX
  8
MY3DLAYER
10
394.012951420107
20
511.364574211096
30
0.0
 70
     32
  0
VERTEX
  8
MY3DLAYER
10
400.86557651166
20
510.915429433221
30
0.0
 70
     32
  0
VERTEX
  8
MY3DLAYER
10
403.14978487551
20
510.765714507263
30
0.0
 70
     32
  0
VERTEX
  8
MY3DLAYER
10
412.130284577283
20
508.979382051331
30
0.0
 70
     32
  0
VERTEX
  8
MY3DLAYER
10
420.800791685663
20
506.036141486886
30
0.0
 70
     32
  0
VERTEX
  8
MY3DLAYER
10
429.012951420107
20
501.986352476007
30
0.0
 70
     32
  0
VERTEX
  8
MY3DLAYER
10
436.626251450717
20
496.899308031482
30
0.0
 70
     32
  0
VERTEX
  8
MY3DLAYER
10
443.510426103165
20
490.862048894154
30
0.0
 70
     32
  0
VERTEX
  8
MY3DLAYER
10
449.547685240493
20
483.977874241706
30
0.0
 70
     32
  0
VERTEX
  8
MY3DLAYER
10
454.634729685017
20
476.364574211096
30
0.0
 70
     32
  0
VERTEX
  8
MY3DLAYER
10
458.684518695897
20
468.152414476652
30
0.0
 70
     32
  0
VERTEX
  8
MY3DLAYER
10
461.627759260342
20
459.481907368272
30
0.0
 70
     32
  0
VERTEX
  8
MY3DLAYER
10
463.414091716274
20
450.5014076665
30
0.0
 70
     32
  0
VERTEX
  8
MY3DLAYER
10
463.563806642232
20
448.217199302649
30
0.0
 70
     32
  0
VERTEX
  8
MY3DLAYER
10
464.012951420107
20
441.364574211096
30
0.0
 70
     32
  0
SEQEND
  0
LINE
 8
GROUP0
10
463.414091716274
20
432.227740755692
30
0.0
11
461.627759260342
21
423.24724105392
31
0.0
  0
LINE
 8
GROUP0
10
464.012951420107
20
441.364574211096
30
0.0
11
463.414091716274
21
432.227740755692
31
0.0
  0
LINE
 8
GROUP0
10
461.627759260342
20
423.24724105392
30
0.0
11
458.684518695897
21
414.57673394554
31
0.0
  0
LINE
 8
GROUP0
10
458.684518695897
20
414.57673394554
30
0.0
11
454.634729685018
21
406.364574211096
31
0.0
  0
LINE
 8
GROUP0
10
454.634729685018
20
406.364574211096
30
0.0
11
449.547685240493
21
398.751274180486
31
0.0
  0
LINE
 8
GROUP0
10
449.547685240493
20
398.751274180486
30
0.0
11
443.510426103165
21
391.867099528038
31
0.0
  0
LINE
 8
GROUP0
10
443.510426103165
20
391.867099528038
30
0.0
11
436.626251450717
21
385.82984039071
31
0.0
  0
LINE
 8
GROUP0
10
436.626251450717
20
385.82984039071
30
0.0
11
429.012951420107
21
380.742795946185
31
0.0
  0
LINE
 8
GROUP0
10
429.012951420107
20
380.742795946185
30
0.0
11
420.800791685663
21
376.693006935306
31
0.0
  0
LINE
 8
GROUP0
10
420.800791685663
20
376.693006935306
30
0.0
11
412.130284577283
21
373.749766370861
31
0.0
  0
LINE
 8
GROUP0
10
412.130284577283
20
373.749766370861
30
0.0
11
403.14978487551
21
371.963433914929
31
0.0
  0
LINE
 8
GROUP0
10
403.14978487551
20
371.963433914929
30
0.0
11
394.012951420107
21
371.364574211096
31
0.0
  0
LINE
 8
GROUP0
10
394.012951420107
20
371.364574211096
30
0.0
11
384.876117964703
21
371.963433914929
31
0.0
  0
LINE
 8
GROUP0
10
384.876117964703
20
371.963433914929
30
0.0
11
375.89561826293
21
373.749766370861
31
0.0
  0
LINE
 8
GROUP0
10
375.89561826293
20
373.749766370861
30
0.0
11
367.225111154551
21
376.693006935306
31
0.0
  0
LINE
 8
GROUP0
10
367.225111154551
20
376.693006935306
30
0.0
11
359.012951420107
21
380.742795946185
31
0.0
  0
LINE
 8
GROUP0
10
359.012951420107
20
380.742795946185
30
0.0
11
351.399651389497
21
385.82984039071
31
0.0
  0
LINE
 8
GROUP0
10
351.399651389497
20
385.82984039071
30
0.0
11
344.515476737049
21
391.867099528038
31
0.0
  0
LINE
 8
GROUP0
10
344.515476737049
20
391.867099528038
30
0.0
11
338.47821759972
21
398.751274180486
31
0.0
  0
LINE
 8
GROUP0
10
338.47821759972
20
398.751274180486
30
0.0
11
333.391173155196
21
406.364574211096
31
0.0
  0
LINE
 8
GROUP0
10
333.391173155196
20
406.364574211096
30
0.0
11
329.341384144317
21
414.57673394554
31
0.0
  0
LINE
 8
GROUP0
10
329.341384144317
20
414.57673394554
30
0.0
11
326.398143579872
21
423.24724105392
31
0.0
  0
LINE
 8
GROUP0
10
326.398143579872
20
423.24724105392
30
0.0
11
324.61181112394
21
432.227740755692
31
0.0
  0
LINE
 8
GROUP0
10
324.61181112394
20
432.227740755692
30
0.0
11
324.012951420107
21
441.364574211096
31
0.0
  0
LINE
 8
GROUP0
10
324.012951420107
20
441.364574211096
30
0.0
11
324.61181112394
21
450.5014076665
31
0.0
  0
LINE
 8
GROUP0
10
324.61181112394
20
450.5014076665
30
0.0
11
326.398143579872
21
459.481907368272
31
0.0
  0
LINE
 8
GROUP0
10
326.398143579872
20
459.481907368272
30
0.0
11
329.341384144317
21
468.152414476652
31
0.0
  0
LINE
 8
GROUP0
10
329.341384144317
20
468.152414476652
30
0.0
11
333.391173155196
21
476.364574211096
31
0.0
  0
LINE
 8
GROUP0
10
333.391173155196
20
476.364574211096
30
0.0
11
338.47821759972
21
483.977874241706
31
0.0
  0
LINE
 8
GROUP0
10
338.47821759972
20
483.977874241706
30
0.0
11
344.515476737049
21
490.862048894154
31
0.0
  0
LINE
 8
GROUP0
10
344.515476737049
20
490.862048894154
30
0.0
11
351.399651389496
21
496.899308031482
31
0.0
  0
LINE
 8
GROUP0
10
351.399651389496
20
496.899308031482
30
0.0
11
359.012951420107
21
501.986352476007
31
0.0
  0
LINE
 8
GROUP0
10
359.012951420107
20
501.986352476007
30
0.0
11
367.225111154551
21
506.036141486886
31
0.0
  0
LINE
 8
GROUP0
10
367.225111154551
20
506.036141486886
30
0.0
11
375.89561826293
21
508.979382051331
31
0.0
  0
LINE
 8
GROUP0
10
375.89561826293
20
508.979382051331
30
0.0
11
384.876117964703
21
510.765714507263
31
0.0
  0
LINE
 8
GROUP0
10
384.876117964703
20
510.765714507263
30
0.0
11
394.012951420107
21
511.364574211096
31
0.0
  0
LINE
 8
GROUP0
10
394.012951420107
20
511.364574211096
30
0.0
11
403.14978487551
21
510.765714507263
31
0.0
  0
LINE
 8
GROUP0
10
403.14978487551
20
510.765714507263
30
0.0
11
412.130284577283
21
508.979382051331
31
0.0
  0
LINE
 8
GROUP0
10
429.012951420107
20
501.986352476007
30
0.0
11
436.626251450717
21
496.899308031482
31
0.0
  0
LINE
 8
GROUP0
10
436.626251450717
20
496.899308031482
30
0.0
11
443.510426103165
21
490.862048894154
31
0.0
  0
LINE
 8
GROUP0
10
443.510426103165
20
490.862048894154
30
0.0
11
449.547685240493
21
483.977874241706
31
0.0
  0
LINE
 8
GROUP0
10
449.547685240493
20
483.977874241706
30
0.0
11
454.634729685017
21
476.364574211096
31
0.0
  0
LINE
 8
GROUP0
10
454.634729685017
20
476.364574211096
30
0.0
11
458.684518695897
21
468.152414476652
31
0.0
  0
LINE
 8
GROUP0
10
458.684518695897
20
468.152414476652
30
0.0
11
461.627759260342
21
459.481907368272
31
0.0
  0
LINE
 8
GROUP0
10
461.627759260342
20
459.481907368272
30
0.0
11
463.414091716274
21
450.5014076665
31
0.0
  0
LINE
 8
GROUP0
10
463.414091716274
20
450.5014076665
30
0.0
11
464.012951420107
21
441.364574211096
31
0.0
  0
LINE
 8
GROUP0
10
420.800791685663
20
506.036141486886
30
0.0
11
429.012951420107
21
501.986352476007
31
0.0
  0
LINE
 8
GROUP0
10
412.130284577283
20
508.979382051331
30
0.0
11
420.800791685663
21
506.036141486886
31
0.0
  0
POLYLINE
 8
COMPONENT0
 66
     1
70
    8
 10
0.0
 20
 0.0
 30
0.0
  0
VERTEX
  8
MY3DLAYER
10
443.472926443065
20
399.713523845806
30
0.0
 70
     32
  0
VERTEX
  8
MY3DLAYER
10
438.791818269058
20
396.585707362145
30
0.0
 70
     32
  0
VERTEX
  8
MY3DLAYER
10
435.664001785397
20
391.904599188138
30
0.0
 70
     32
  0
VERTEX
  8
MY3DLAYER
10
431.136057432401
20
386.741468198802
30
0.0
 70
     32
  0
VERTEX
  8
MY3DLAYER
10
425.972926443065
20
382.213523845806
30
0.0
 70
     32
  0
VERTEX
  8
MY3DLAYER
10
420.262951420107
20
378.398240512413
30
0.0
 70
     32
  0
VERTEX
  8
MY3DLAYER
10
414.103831619274
20
375.360898754254
30
0.0
 70
     32
  0
VERTEX
  8
MY3DLAYER
10
407.600951287989
20
373.15346833092
30
0.0
 70
     32
  0
VERTEX
  8
MY3DLAYER
10
400.86557651166
20
371.813718988971
30
0.0
 70
     32
  0
VERTEX
  8
MY3DLAYER
10
403.14978487551
20
371.963433914929
30
0.0
 70
     32
  0
VERTEX
  8
MY3DLAYER
10
412.130284577283
20
373.749766370861
30
0.0
 70
     32
  0
VERTEX
  8
MY3DLAYER
10
420.800791685663
20
376.693006935306
30
0.0
 70
     32
  0
VERTEX
  8
MY3DLAYER
10
429.012951420107
20
380.742795946185
30
0.0
 70
     32
  0
VERTEX
  8
MY3DLAYER
10
436.626251450717
20
385.82984039071
30
0.0
 70
     32
  0
VERTEX
  8
MY3DLAYER
10
443.510426103165
20
391.867099528038
30
0.0
 70
     32
  0
VERTEX
  8
MY3DLAYER
10
449.547685240493
20
398.751274180486
30
0.0
 70
     32
  0
VERTEX
  8
MY3DLAYER
10
454.634729685018
20
406.364574211096
30
0.0
 70
     32
  0
VERTEX
  8
MY3DLAYER
10
458.684518695897
20
414.57673394554
30
0.0
 70
     32
  0
VERTEX
  8
MY3DLAYER
10
461.627759260342
20
423.24724105392
30
0.0
 70
     32
  0
VERTEX
  8
MY3DLAYER
10
463.414091716274
20
432.227740755692
30
0.0
 70
     32
  0
VERTEX
  8
MY3DLAYER
10
463.563806642232
20
434.511949119543
30
0.0
 70
     32
  0
VERTEX
  8
MY3DLAYER
10
462.224057300283
20
427.776574343214
30
0.0
 70
     32
  0
VERTEX
  8
MY3DLAYER
10
460.016626876949
20
421.273694011929
30
0.0
 70
     32
  0
VERTEX
  8
MY3DLAYER
10
456.97928511879
20
415.114574211096
30
0.0
 70
     32
  0
VERTEX
  8
MY3DLAYER
10
453.164001785397
20
409.404599188138
30
0.0
 70
     32
  0
VERTEX
  8
MY3DLAYER
10
448.636057432401
20
404.241468198802
30
0.0
 70
     32
  0
VERTEX
  8
MY3DLAYER
10
443.472926443065
20
399.713523845806
30
0.0
 70
     32
  0
SEQEND
  0
POLYLINE
 8
COMPONENT0
 66
     1
70
    8
 10
0.0
 20
 0.0
 30
0.0
  0
VERTEX
  8
MY3DLAYER
10
443.472926443065
20
483.015624576386
30
0.0
 70
     32
  0
VERTEX
  8
MY3DLAYER
10
438.791818269058
20
486.143441060047
30
0.0
 70
     32
  0
VERTEX
  8
MY3DLAYER
10
444.253543837363
20
479.915536664908
30
0.0
 70
     32
  0
VERTEX
  8
MY3DLAYER
10
448.855638940086
20
473.028014613839
30
0.0
 70
     32
  0
VERTEX
  8
MY3DLAYER
10
452.519360454076
20
465.598722318714
30
0.0
 70
     32
  0
VERTEX
  8
MY3DLAYER
10
455.182021088455
20
457.754777030493
30
0.0
 70
     32
  0
VERTEX
  8
MY3DLAYER
10
456.798061981537
20
449.630390827809
30
0.0
 70
     32
  0
VERTEX
  8
MY3DLAYER
10
457.339832225592
20
441.364574211096
30
0.0
 70
     32
  0
VERTEX
  8
MY3DLAYER
10
456.798061981537
20
433.098757594383
30
0.0
 70
     32
  0
VERTEX
  8
MY3DLAYER
10
455.182021088455
20
424.974371391699
30
0.0
 70
     32
  0
VERTEX
  8
MY3DLAYER
10
452.519360454076
20
417.130426103478
30
0.0
 70
     32
  0
VERTEX
  8
MY3DLAYER
10
448.855638940086
20
409.701133808353
30
0.0
 70
     32
  0
VERTEX
  8
MY3DLAYER
10
444.253543837363
20
402.813611757284
30
0.0
 70
     32
  0
VERTEX
  8
MY3DLAYER
10
438.791818269058
20
396.585707362145
30
0.0
 70
     32
  0
VERTEX
  8
MY3DLAYER
10
443.472926443065
20
399.713523845806
30
0.0
 70
     32
  0
VERTEX
  8
MY3DLAYER
10
448.636057432401
20
404.241468198802
30
0.0
 70
     32
  0
VERTEX
  8
MY3DLAYER
10
453.164001785397
20
409.404599188138
30
0.0
 70
     32
  0
VERTEX
  8
MY3DLAYER
10
456.97928511879
20
415.114574211096
30
0.0
 70
     32
  0
VERTEX
  8
MY3DLAYER
10
460.016626876949
20
421.273694011929
30
0.0
 70
     32
  0
VERTEX
  8
MY3DLAYER
10
462.224057300283
20
427.776574343214
30
0.0
 70
     32
  0
VERTEX
  8
MY3DLAYER
10
463.563806642232
20
434.511949119543
30
0.0
 70
     32
  0
VERTEX
  8
MY3DLAYER
10
464.012951420107
20
441.364574211096
30
0.0
 70
     32
  0
VERTEX
  8
MY3DLAYER
10
463.563806642232
20
448.217199302649
30
0.0
 70
     32
  0
VERTEX
  8
MY3DLAYER
10
462.224057300283
20
454.952574078978
30
0.0
 70
     32
  0
VERTEX
  8
MY3DLAYER
10
460.016626876949
20
461.455454410263
30
0.0
 70
     32
  0
VERTEX
  8
MY3DLAYER
10
456.97928511879
20
467.614574211096
30
0.0
 70
     32
  0
VERTEX
  8
MY3DLAYER
10
453.164001785397
20
473.324549234054
30
0.0
 70
     32
  0
VERTEX
  8
MY3DLAYER
10
448.636057432401
20
478.48768022339
30
0.0
 70
     32
  0
VERTEX
  8
MY3DLAYER
10
443.472926443065
20
483.015624576386
30
0.0
 70
     32
  0
SEQEND
  0
POLYLINE
 8
COMPONENT0
 66
     1
70
    8
 10
0.0
 20
 0.0
 30
0.0
  0
VERTEX
  8
MY3DLAYER
10
418.164001785397
20
409.404599188138
30
0.0
 70
     32
  0
VERTEX
  8
MY3DLAYER
10
421.291818269058
20
414.085707362145
30
0.0
 70
     32
  0
VERTEX
  8
MY3DLAYER
10
420.262951420107
20
413.398240512413
30
0.0
 70
     32
  0
VERTEX
  8
MY3DLAYER
10
414.103831619274
20
410.360898754253
30
0.0
 70
     32
  0
VERTEX
  8
MY3DLAYER
10
407.600951287989
20
408.15346833092
30
0.0
 70
     32
  0
VERTEX
  8
MY3DLAYER
10
400.86557651166
20
406.813718988971
30
0.0
 70
     32
  0
VERTEX
  8
MY3DLAYER
10
396.297159783958
20
406.514289137054
30
0.0
 70
     32
  0
VERTEX
  8
MY3DLAYER
10
394.012951420107
20
406.364574211096
30
0.0
 70
     32
  0
VERTEX
  8
MY3DLAYER
10
391.728743056256
20
406.514289137054
30
0.0
 70
     32
  0
VERTEX
  8
MY3DLAYER
10
387.160326328554
20
406.813718988971
30
0.0
 70
     32
  0
VERTEX
  8
MY3DLAYER
10
380.424951552225
20
408.15346833092
30
0.0
 70
     32
  0
VERTEX
  8
MY3DLAYER
10
373.92207122094
20
410.360898754253
30
0.0
 70
     32
  0
VERTEX
  8
MY3DLAYER
10
367.762951420107
20
413.398240512413
30
0.0
 70
     32
  0
VERTEX
  8
MY3DLAYER
10
366.734084571156
20
414.085707362145
30
0.0
 70
     32
  0
VERTEX
  8
MY3DLAYER
10
369.861901054817
20
409.404599188138
30
0.0
 70
     32
  0
VERTEX
  8
MY3DLAYER
10
374.389845407813
20
404.241468198802
30
0.0
 70
     32
  0
VERTEX
  8
MY3DLAYER
10
379.552976397149
20
399.713523845806
30
0.0
 70
     32
  0
VERTEX
  8
MY3DLAYER
10
385.262951420107
20
395.898240512413
30
0.0
 70
     32
  0
VERTEX
  8
MY3DLAYER
10
391.42207122094
20
392.860898754253
30
0.0
 70
     32
  0
VERTEX
  8
MY3DLAYER
10
394.012951420107
20
391.981413436441
30
0.0
 70
     32
  0
VERTEX
  8
MY3DLAYER
10
396.603831619274
20
392.860898754253
30
0.0
 70
     32
  0
VERTEX
  8
MY3DLAYER
10
402.762951420107
20
395.898240512413
30
0.0
 70
     32
  0
VERTEX
  8
MY3DLAYER
10
408.472926443065
20
399.713523845806
30
0.0
 70
     32
  0
VERTEX
  8
MY3DLAYER
10
413.636057432401
20
404.241468198802
30
0.0
 70
     32
  0
VERTEX
  8
MY3DLAYER
10
418.164001785397
20
409.404599188138
30
0.0
 70
     32
  0
SEQEND
  0
POLYLINE
 8
COMPONENT0
 66
     1
70
    8
 10
0.0
 20
 0.0
 30
0.0
  0
VERTEX
  8
MY3DLAYER
10
344.552976397149
20
483.015624576386
30
0.0
 70
     32
  0
VERTEX
  8
MY3DLAYER
10
349.234084571156
20
486.143441060047
30
0.0
 70
     32
  0
VERTEX
  8
MY3DLAYER
10
352.361901054817
20
490.824549234054
30
0.0
 70
     32
  0
VERTEX
  8
MY3DLAYER
10
356.889845407813
20
495.98768022339
30
0.0
 70
     32
  0
VERTEX
  8
MY3DLAYER
10
362.052976397149
20
500.515624576386
30
0.0
 70
     32
  0
VERTEX
  8
MY3DLAYER
10
367.762951420107
20
504.330907909779
30
0.0
 70
     32
  0
VERTEX
  8
MY3DLAYER
10
373.92207122094
20
507.368249667938
30
0.0
 70
     32
  0
VERTEX
  8
MY3DLAYER
10
380.424951552225
20
509.575680091272
30
0.0
 70
     32
  0
VERTEX
  8
MY3DLAYER
10
387.160326328554
20
510.915429433221
30
0.0
 70
     32
  0
VERTEX
  8
MY3DLAYER
10
384.876117964703
20
510.765714507263
30
0.0
 70
     32
  0
VERTEX
  8
MY3DLAYER
10
375.89561826293
20
508.979382051331
30
0.0
 70
     32
  0
VERTEX
  8
MY3DLAYER
10
367.225111154551
20
506.036141486886
30
0.0
 70
     32
  0
VERTEX
  8
MY3DLAYER
10
359.012951420107
20
501.986352476007
30
0.0
 70
     32
  0
VERTEX
  8
MY3DLAYER
10
351.399651389496
20
496.899308031482
30
0.0
 70
     32
  0
VERTEX
  8
MY3DLAYER
10
344.515476737049
20
490.862048894154
30
0.0
 70
     32
  0
VERTEX
  8
MY3DLAYER
10
338.47821759972
20
483.977874241706
30
0.0
 70
     32
  0
VERTEX
  8
MY3DLAYER
10
333.391173155196
20
476.364574211096
30
0.0
 70
     32
  0
VERTEX
  8
MY3DLAYER
10
329.341384144317
20
468.152414476652
30
0.0
 70
     32
  0
VERTEX
  8
MY3DLAYER
10
326.398143579872
20
459.481907368272
30
0.0
 70
     32
  0
VERTEX
  8
MY3DLAYER
10
324.61181112394
20
450.5014076665
30
0.0
 70
     32
  0
VERTEX
  8
MY3DLAYER
10
324.462096197982
20
448.217199302649
30
0.0
 70
     32
  0
VERTEX
  8
MY3DLAYER
10
325.801845539931
20
454.952574078978
30
0.0
 70
     32
  0
VERTEX
  8
MY3DLAYER
10
328.009275963264
20
461.455454410263
30
0.0
 70
     32
  0
VERTEX
  8
MY3DLAYER
10
331.046617721424
20
467.614574211096
30
0.0
 70
     32
  0
VERTEX
  8
MY3DLAYER
10
334.861901054817
20
473.324549234054
30
0.0
 70
     32
  0
VERTEX
  8
MY3DLAYER
10
339.389845407813
20
478.48768022339
30
0.0
 70
     32
  0
VERTEX
  8
MY3DLAYER
10
344.552976397149
20
483.015624576386
30
0.0
 70
     32
  0
SEQEND
  0
POLYLINE
 8
COMPONENT0
 66
     1
70
    8
 10
0.0
 20
 0.0
 30
0.0
  0
VERTEX
  8
MY3DLAYER
10
390.100951287989
20
390.65346833092
30
0.0
 70
     32
  0
VERTEX
  8
MY3DLAYER
10
394.012951420107
20
391.981413436441
30
0.0
 70
     32
  0
VERTEX
  8
MY3DLAYER
10
387.567155484401
20
392.403893222668
30
0.0
 70
     32
  0
VERTEX
  8
MY3DLAYER
10
381.231648904267
20
393.664103835072
30
0.0
 70
     32
  0
VERTEX
  8
MY3DLAYER
10
375.114833953825
20
395.740482720678
30
0.0
 70
     32
  0
VERTEX
  8
MY3DLAYER
10
369.32137103278
20
398.597502461074
30
0.0
 70
     32
  0
VERTEX
  8
MY3DLAYER
10
363.950387897961
20
402.186278656385
30
0.0
 70
     32
  0
VERTEX
  8
MY3DLAYER
10
359.093783559923
20
406.445406350912
30
0.0
 70
     32
  0
VERTEX
  8
MY3DLAYER
10
354.834655865396
20
411.30201068895
30
0.0
 70
     32
  0
VERTEX
  8
MY3DLAYER
10
351.245879670085
20
416.672993823769
30
0.0
 70
     32
  0
VERTEX
  8
MY3DLAYER
10
348.388859929689
20
422.466456744814
30
0.0
 70
     32
  0
VERTEX
  8
MY3DLAYER
10
346.312481044083
20
428.583271695256
30
0.0
 70
     32
  0
VERTEX
  8
MY3DLAYER
10
345.052270431679
20
434.91877827539
30
0.0
 70
     32
  0
VERTEX
  8
MY3DLAYER
10
344.629790645452
20
441.364574211096
30
0.0
 70
     32
  0
VERTEX
  8
MY3DLAYER
10
343.301845539931
20
437.452574078978
30
0.0
 70
     32
  0
VERTEX
  8
MY3DLAYER
10
341.962096197982
20
430.717199302649
30
0.0
 70
     32
  0
VERTEX
  8
MY3DLAYER
10
341.512951420107
20
423.864574211096
30
0.0
 70
     32
  0
VERTEX
  8
MY3DLAYER
10
341.962096197982
20
417.011949119543
30
0.0
 70
     32
  0
VERTEX
  8
MY3DLAYER
10
343.301845539931
20
410.276574343214
30
0.0
 70
     32
  0
VERTEX
  8
MY3DLAYER
10
345.509275963264
20
403.773694011929
30
0.0
 70
     32
  0
VERTEX
  8
MY3DLAYER
10
348.546617721424
20
397.614574211096
30
0.0
 70
     32
  0
VERTEX
  8
MY3DLAYER
10
349.234084571156
20
396.585707362145
30
0.0
 70
     32
  0
VERTEX
  8
MY3DLAYER
10
350.262951420107
20
395.898240512413
30
0.0
 70
     32
  0
VERTEX
  8
MY3DLAYER
10
356.42207122094
20
392.860898754253
30
0.0
 70
     32
  0
VERTEX
  8
MY3DLAYER
10
362.924951552225
20
390.65346833092
30
0.0
 70
     32
  0
VERTEX
  8
MY3DLAYER
10
369.660326328554
20
389.313718988971
30
0.0
 70
     32
  0
VERTEX
  8
MY3DLAYER
10
376.512951420107
20
388.864574211096
30
0.0
 70
     32
  0
VERTEX
  8
MY3DLAYER
10
383.36557651166
20
389.313718988971
30
0.0
 70
     32
  0
VERTEX
  8
MY3DLAYER
10
390.100951287989
20
390.65346833092
30
0.0
 70
     32
  0
SEQEND
  0
POLYLINE
 8
COMPONENT0
 66
     1
70
    8
 10
0.0
 20
 0.0
 30
0.0
  0
VERTEX
  8
MY3DLAYER
10
425.972926443065
20
465.515624576386
30
0.0
 70
     32
  0
VERTEX
  8
MY3DLAYER
10
421.291818269058
20
468.643441060047
30
0.0
 70
     32
  0
VERTEX
  8
MY3DLAYER
10
421.97928511879
20
467.614574211096
30
0.0
 70
     32
  0
VERTEX
  8
MY3DLAYER
10
425.016626876949
20
461.455454410263
30
0.0
 70
     32
  0
VERTEX
  8
MY3DLAYER
10
427.224057300283
20
454.952574078978
30
0.0
 70
     32
  0
VERTEX
  8
MY3DLAYER
10
428.563806642232
20
448.217199302649
30
0.0
 70
     32
  0
VERTEX
  8
MY3DLAYER
10
428.863236494149
20
443.648782574947
30
0.0
 70
     32
  0
VERTEX
  8
MY3DLAYER
10
429.012951420107
20
441.364574211096
30
0.0
 70
     32
  0
VERTEX
  8
MY3DLAYER
10
428.863236494149
20
439.080365847245
30
0.0
 70
     32
  0
VERTEX
  8
MY3DLAYER
10
428.563806642232
20
434.511949119543
30
0.0
 70
     32
  0
VERTEX
  8
MY3DLAYER
10
427.224057300283
20
427.776574343214
30
0.0
 70
     32
  0
VERTEX
  8
MY3DLAYER
10
425.016626876949
20
421.273694011929
30
0.0
 70
     32
  0
VERTEX
  8
MY3DLAYER
10
421.97928511879
20
415.114574211096
30
0.0
 70
     32
  0
VERTEX
  8
MY3DLAYER
10
421.291818269058
20
414.085707362145
30
0.0
 70
     32
  0
VERTEX
  8
MY3DLAYER
10
425.972926443065
20
417.213523845806
30
0.0
 70
     32
  0
VERTEX
  8
MY3DLAYER
10
431.136057432401
20
421.741468198802
30
0.0
 70
     32
  0
VERTEX
  8
MY3DLAYER
10
435.664001785397
20
426.904599188138
30
0.0
 70
     32
  0
VERTEX
  8
MY3DLAYER
10
439.47928511879
20
432.614574211096
30
0.0
 70
     32
  0
VERTEX
  8
MY3DLAYER
10
442.516626876949
20
438.773694011929
30
0.0
 70
     32
  0
VERTEX
  8
MY3DLAYER
10
443.396112194761
20
441.364574211096
30
0.0
 70
     32
  0
VERTEX
  8
MY3DLAYER
10
442.516626876949
20
443.955454410263
30
0.0
 70
     32
  0
VERTEX
  8
MY3DLAYER
10
439.47928511879
20
450.114574211096
30
0.0
 70
     32
  0
VERTEX
  8
MY3DLAYER
10
435.664001785397
20
455.824549234054
30
0.0
 70
     32
  0
VERTEX
  8
MY3DLAYER
10
431.136057432401
20
460.98768022339
30
0.0
 70
     32
  0
VERTEX
  8
MY3DLAYER
10
425.972926443065
20
465.515624576386
30
0.0
 70
     32
  0
SEQEND
  0
POLYLINE
 8
COMPONENT0
 66
     1
70
    8
 10
0.0
 20
 0.0
 30
0.0
  0
VERTEX
  8
MY3DLAYER
10
343.301845539931
20
445.276574343214
30
0.0
 70
     32
  0
VERTEX
  8
MY3DLAYER
10
344.629790645452
20
441.364574211096
30
0.0
 70
     32
  0
VERTEX
  8
MY3DLAYER
10
345.052270431679
20
447.810370146802
30
0.0
 70
     32
  0
VERTEX
  8
MY3DLAYER
10
346.312481044083
20
454.145876726936
30
0.0
 70
     32
  0
VERTEX
  8
MY3DLAYER
10
348.388859929689
20
460.262691677378
30
0.0
 70
     32
  0
VERTEX
  8
MY3DLAYER
10
351.245879670085
20
466.056154598423
30
0.0
 70
     32
  0
VERTEX
  8
MY3DLAYER
10
354.834655865395
20
471.427137733242
30
0.0
 70
     32
  0
VERTEX
  8
MY3DLAYER
10
359.093783559923
20
476.28374207128
30
0.0
 70
     32
  0
VERTEX
  8
MY3DLAYER
10
363.950387897961
20
480.542869765807
30
0.0
 70
     32
  0
VERTEX
  8
MY3DLAYER
10
369.32137103278
20
484.131645961118
30
0.0
 70
     32
  0
VERTEX
  8
MY3DLAYER
10
375.114833953825
20
486.988665701514
30
0.0
 70
     32
  0
VERTEX
  8
MY3DLAYER
10
381.231648904266
20
489.06504458712
30
0.0
 70
     32
  0
VERTEX
  8
MY3DLAYER
10
387.567155484401
20
490.325255199524
30
0.0
 70
     32
  0
VERTEX
  8
MY3DLAYER
10
394.012951420107
20
490.747734985751
30
0.0
 70
     32
  0
VERTEX
  8
MY3DLAYER
10
390.100951287989
20
492.075680091272
30
0.0
 70
     32
  0
VERTEX
  8
MY3DLAYER
10
383.36557651166
20
493.415429433221
30
0.0
 70
     32
  0
VERTEX
  8
MY3DLAYER
10
376.512951420107
20
493.864574211096
30
0.0
 70
     32
  0
VERTEX
  8
MY3DLAYER
10
369.660326328554
20
493.415429433221
30
0.0
 70
     32
  0
VERTEX
  8
MY3DLAYER
10
362.924951552225
20
492.075680091272
30
0.0
 70
     32
  0
VERTEX
  8
MY3DLAYER
10
356.42207122094
20
489.868249667939
30
0.0
 70
     32
  0
VERTEX
  8
MY3DLAYER
10
350.262951420107
20
486.830907909779
30
0.0
 70
     32
  0
VERTEX
  8
MY3DLAYER
10
349.234084571156
20
486.143441060047
30
0.0
 70
     32
  0
VERTEX
  8
MY3DLAYER
10
348.546617721424
20
485.114574211096
30
0.0
 70
     32
  0
VERTEX
  8
MY3DLAYER
10
345.509275963264
20
478.955454410263
30
0.0
 70
     32
  0
VERTEX
  8
MY3DLAYER
10
343.301845539931
20
472.452574078978
30
0.0
 70
     32
  0
VERTEX
  8
MY3DLAYER
10
341.962096197982
20
465.717199302649
30
0.0
 70
     32
  0
VERTEX
  8
MY3DLAYER
10
341.512951420107
20
458.864574211096
30
0.0
 70
     32
  0
VERTEX
  8
MY3DLAYER
10
341.962096197982
20
452.011949119543
30
0.0
 70
     32
  0
VERTEX
  8
MY3DLAYER
10
343.301845539931
20
445.276574343214
30
0.0
 70
     32
  0
SEQEND
  0
POLYLINE
 8
COMPONENT0
 66
     1
70
    8
 10
0.0
 20
 0.0
 30
0.0
  0
VERTEX
  8
MY3DLAYER
10
384.876117964703
20
371.963433914929
30
0.0
 70
     32
  0
VERTEX
  8
MY3DLAYER
10
387.160326328554
20
371.813718988971
30
0.0
 70
     32
  0
VERTEX
  8
MY3DLAYER
10
380.424951552225
20
373.15346833092
30
0.0
 70
     32
  0
VERTEX
  8
MY3DLAYER
10
373.92207122094
20
375.360898754253
30
0.0
 70
     32
  0
VERTEX
  8
MY3DLAYER
10
367.762951420107
20
378.398240512413
30
0.0
 70
     32
  0
VERTEX
  8
MY3DLAYER
10
362.052976397149
20
382.213523845806
30
0.0
 70
     32
  0
VERTEX
  8
MY3DLAYER
10
356.889845407813
20
386.741468198802
30
0.0
 70
     32
  0
VERTEX
  8
MY3DLAYER
10
352.361901054817
20
391.904599188138
30
0.0
 70
     32
  0
VERTEX
  8
MY3DLAYER
10
349.234084571156
20
396.585707362145
30
0.0
 70
     32
  0
VERTEX
  8
MY3DLAYER
10
344.552976397149
20
399.713523845806
30
0.0
 70
     32
  0
VERTEX
  8
MY3DLAYER
10
339.389845407813
20
404.241468198802
30
0.0
 70
     32
  0
VERTEX
  8
MY3DLAYER
10
334.861901054817
20
409.404599188138
30
0.0
 70
     32
  0
VERTEX
  8
MY3DLAYER
10
331.046617721424
20
415.114574211096
30
0.0
 70
     32
  0
VERTEX
  8
MY3DLAYER
10
328.009275963264
20
421.273694011929
30
0.0
 70
     32
  0
VERTEX
  8
MY3DLAYER
10
325.801845539931
20
427.776574343214
30
0.0
 70
     32
  0
VERTEX
  8
MY3DLAYER
10
324.462096197982
20
434.511949119543
30
0.0
 70
     32
  0
VERTEX
  8
MY3DLAYER
10
324.61181112394
20
432.227740755692
30
0.0
 70
     32
  0
VERTEX
  8
MY3DLAYER
10
326.398143579872
20
423.24724105392
30
0.0
 70
     32
  0
VERTEX
  8
MY3DLAYER
10
329.341384144317
20
414.57673394554
30
0.0
 70
     32
  0
VERTEX
  8
MY3DLAYER
10
333.391173155196
20
406.364574211096
30
0.0
 70
     32
  0
VERTEX
  8
MY3DLAYER
10
338.47821759972
20
398.751274180486
30
0.0
 70
     32
  0
VERTEX
  8
MY3DLAYER
10
344.515476737049
20
391.867099528038
30
0.0
 70
     32
  0
VERTEX
  8
MY3DLAYER
10
351.399651389497
20
385.82984039071
30
0.0
 70
     32
  0
VERTEX
  8
MY3DLAYER
10
359.012951420107
20
380.742795946185
30
0.0
 70
     32
  0
VERTEX
  8
MY3DLAYER
10
367.225111154551
20
376.693006935306
30
0.0
 70
     32
  0
VERTEX
  8
MY3DLAYER
10
375.89561826293
20
373.749766370861
30
0.0
 70
     32
  0
VERTEX
  8
MY3DLAYER
10
384.876117964703
20
371.963433914929
30
0.0
 70
     32
  0
SEQEND
  0
POLYLINE
 8
COMPONENT0
 66
     1
70
    8
 10
0.0
 20
 0.0
 30
0.0
  0
VERTEX
  8
MY3DLAYER
10
369.861901054817
20
473.324549234054
30
0.0
 70
     32
  0
VERTEX
  8
MY3DLAYER
10
366.734084571156
20
468.643441060047
30
0.0
 70
     32
  0
VERTEX
  8
MY3DLAYER
10
367.762951420107
20
469.330907909779
30
0.0
 70
     32
  0
VERTEX
  8
MY3DLAYER
10
373.92207122094
20
472.368249667938
30
0.0
 70
     32
  0
VERTEX
  8
MY3DLAYER
10
380.424951552225
20
474.575680091272
30
0.0
 70
     32
  0
VERTEX
  8
MY3DLAYER
10
387.160326328554
20
475.915429433221
30
0.0
 70
     32
  0
VERTEX
  8
MY3DLAYER
10
391.728743056256
20
476.214859285138
30
0.0
 70
     32
  0
VERTEX
  8
MY3DLAYER
10
394.012951420107
20
476.364574211096
30
0.0
 70
     32
  0
VERTEX
  8
MY3DLAYER
10
396.297159783958
20
476.214859285138
30
0.0
 70
     32
  0
VERTEX
  8
MY3DLAYER
10
400.86557651166
20
475.915429433221
30
0.0
 70
     32
  0
VERTEX
  8
MY3DLAYER
10
407.600951287989
20
474.575680091272
30
0.0
 70
     32
  0
VERTEX
  8
MY3DLAYER
10
414.103831619274
20
472.368249667938
30
0.0
 70
     32
  0
VERTEX
  8
MY3DLAYER
10
420.262951420107
20
469.330907909779
30
0.0
 70
     32
  0
VERTEX
  8
MY3DLAYER
10
421.291818269058
20
468.643441060047
30
0.0
 70
     32
  0
VERTEX
  8
MY3DLAYER
10
418.164001785397
20
473.324549234054
30
0.0
 70
     32
  0
VERTEX
  8
MY3DLAYER
10
413.636057432401
20
478.48768022339
30
0.0
 70
     32
  0
VERTEX
  8
MY3DLAYER
10
408.472926443065
20
483.015624576386
30
0.0
 70
     32
  0
VERTEX
  8
MY3DLAYER
10
402.762951420107
20
486.830907909779
30
0.0
 70
     32
  0
VERTEX
  8
MY3DLAYER
10
396.603831619274
20
489.868249667939
30
0.0
 70
     32
  0
VERTEX
  8
MY3DLAYER
10
394.012951420107
20
490.747734985751
30
0.0
 70
     32
  0
VERTEX
  8
MY3DLAYER
10
391.42207122094
20
489.868249667939
30
0.0
 70
     32
  0
VERTEX
  8
MY3DLAYER
10
385.262951420107
20
486.830907909779
30
0.0
 70
     32
  0
VERTEX
  8
MY3DLAYER
10
379.552976397149
20
483.015624576386
30
0.0
 70
     32
  0
VERTEX
  8
MY3DLAYER
10
374.389845407813
20
478.48768022339
30
0.0
 70
     32
  0
VERTEX
  8
MY3DLAYER
10
369.861901054817
20
473.324549234054
30
0.0
 70
     32
  0
SEQEND
  0
POLYLINE
 8
COMPONENT0
 66
     1
70
    8
 10
0.0
 20
 0.0
 30
0.0
  0
VERTEX
  8
MY3DLAYER
10
444.724057300283
20
437.452574078978
30
0.0
 70
     32
  0
VERTEX
  8
MY3DLAYER
10
443.396112194761
20
441.364574211096
30
0.0
 70
     32
  0
VERTEX
  8
MY3DLAYER
10
442.973632408535
20
434.91877827539
30
0.0
 70
     32
  0
VERTEX
  8
MY3DLAYER
10
441.713421796131
20
428.583271695256
30
0.0
 70
     32
  0
VERTEX
  8
MY3DLAYER
10
439.637042910525
20
422.466456744814
30
0.0
 70
     32
  0
VERTEX
  8
MY3DLAYER
10
436.780023170129
20
416.672993823769
30
0.0
 70
     32
  0
VERTEX
  8
MY3DLAYER
10
433.191246974818
20
411.30201068895
30
0.0
 70
     32
  0
VERTEX
  8
MY3DLAYER
10
428.932119280291
20
406.445406350912
30
0.0
 70
     32
  0
VERTEX
  8
MY3DLAYER
10
424.075514942253
20
402.186278656385
30
0.0
 70
     32
  0
VERTEX
  8
MY3DLAYER
10
418.704531807434
20
398.597502461074
30
0.0
 70
     32
  0
VERTEX
  8
MY3DLAYER
10
412.911068886389
20
395.740482720678
30
0.0
 70
     32
  0
VERTEX
  8
MY3DLAYER
10
406.794253935947
20
393.664103835072
30
0.0
 70
     32
  0
VERTEX
  8
MY3DLAYER
10
400.458747355813
20
392.403893222668
30
0.0
 70
     32
  0
VERTEX
  8
MY3DLAYER
10
394.012951420107
20
391.981413436441
30
0.0
 70
     32
  0
VERTEX
  8
MY3DLAYER
10
397.924951552225
20
390.65346833092
30
0.0
 70
     32
  0
VERTEX
  8
MY3DLAYER
10
404.660326328554
20
389.313718988971
30
0.0
 70
     32
  0
VERTEX
  8
MY3DLAYER
10
411.512951420107
20
388.864574211096
30
0.0
 70
     32
  0
VERTEX
  8
MY3DLAYER
10
418.36557651166
20
389.313718988971
30
0.0
 70
     32
  0
VERTEX
  8
MY3DLAYER
10
425.100951287989
20
390.65346833092
30
0.0
 70
     32
  0
VERTEX
  8
MY3DLAYER
10
431.603831619274
20
392.860898754253
30
0.0
 70
     32
  0
VERTEX
  8
MY3DLAYER
10
437.762951420107
20
395.898240512413
30
0.0
 70
     32
  0
VERTEX
  8
MY3DLAYER
10
438.791818269058
20
396.585707362145
30
0.0
 70
     32
  0
VERTEX
  8
MY3DLAYER
10
439.47928511879
20
397.614574211096
30
0.0
 70
     32
  0
VERTEX
  8
MY3DLAYER
10
442.516626876949
20
403.773694011929
30
0.0
 70
     32
  0
VERTEX
  8
MY3DLAYER
10
444.724057300283
20
410.276574343214
30
0.0
 70
     32
  0
VERTEX
  8
MY3DLAYER
10
446.063806642232
20
417.011949119543
30
0.0
 70
     32
  0
VERTEX
  8
MY3DLAYER
10
446.512951420107
20
423.864574211096
30
0.0
 70
     32
  0
VERTEX
  8
MY3DLAYER
10
446.063806642232
20
430.717199302649
30
0.0
 70
     32
  0
VERTEX
  8
MY3DLAYER
10
444.724057300283
20
437.452574078978
30
0.0
 70
     32
  0
SEQEND
  0
POLYLINE
 8
COMPONENT0
 66
     1
70
    8
 10
0.0
 20
 0.0
 30
0.0
  0
VERTEX
  8
MY3DLAYER
10
387.160326328554
20
406.813718988971
30
0.0
 70
     32
  0
VERTEX
  8
MY3DLAYER
10
391.728743056256
20
406.514289137054
30
0.0
 70
     32
  0
VERTEX
  8
MY3DLAYER
10
389.483618130813
20
406.960872251037
30
0.0
 70
     32
  0
VERTEX
  8
MY3DLAYER
10
387.315991353718
20
407.696682392148
30
0.0
 70
     32
  0
VERTEX
  8
MY3DLAYER
10
385.262951420107
20
408.709129644868
30
0.0
 70
     32
  0
VERTEX
  8
MY3DLAYER
10
383.359626412454
20
409.980890755999
30
0.0
 70
     32
  0
VERTEX
  8
MY3DLAYER
10
381.638582749342
20
411.490205540331
30
0.0
 70
     32
  0
VERTEX
  8
MY3DLAYER
10
380.12926796501
20
413.211249203443
30
0.0
 70
     32
  0
VERTEX
  8
MY3DLAYER
10
378.857506853879
20
415.114574211096
30
0.0
 70
     32
  0
VERTEX
  8
MY3DLAYER
10
377.845059601159
20
417.167614144707
30
0.0
 70
     32
  0
VERTEX
  8
MY3DLAYER
10
377.109249460048
20
419.335240921802
30
0.0
 70
     32
  0
VERTEX
  8
MY3DLAYER
10
376.662666346065
20
421.580365847245
30
0.0
 70
     32
  0
VERTEX
  8
MY3DLAYER
10
376.512951420107
20
423.864574211096
30
0.0
 70
     32
  0
VERTEX
  8
MY3DLAYER
10
374.228743056256
20
424.014289137054
30
0.0
 70
     32
  0
VERTEX
  8
MY3DLAYER
10
371.983618130813
20
424.460872251037
30
0.0
 70
     32
  0
VERTEX
  8
MY3DLAYER
10
369.815991353718
20
425.196682392148
30
0.0
 70
     32
  0
VERTEX
  8
MY3DLAYER
10
367.762951420107
20
426.209129644868
30
0.0
 70
     32
  0
VERTEX
  8
MY3DLAYER
10
365.859626412454
20
427.480890755999
30
0.0
 70
     32
  0
VERTEX
  8
MY3DLAYER
10
364.138582749342
20
428.990205540331
30
0.0
 70
     32
  0
VERTEX
  8
MY3DLAYER
10
362.62926796501
20
430.711249203443
30
0.0
 70
     32
  0
VERTEX
  8
MY3DLAYER
10
361.357506853879
20
432.614574211096
30
0.0
 70
     32
  0
VERTEX
  8
MY3DLAYER
10
360.345059601159
20
434.667614144707
30
0.0
 70
     32
  0
VERTEX
  8
MY3DLAYER
10
359.609249460048
20
436.835240921802
30
0.0
 70
     32
  0
VERTEX
  8
MY3DLAYER
10
359.162666346065
20
439.080365847245
30
0.0
 70
     32
  0
VERTEX
  8
MY3DLAYER
10
359.462096197982
20
434.511949119543
30
0.0
 70
     32
  0
VERTEX
  8
MY3DLAYER
10
360.801845539931
20
427.776574343214
30
0.0
 70
     32
  0
VERTEX
  8
MY3DLAYER
10
363.009275963264
20
421.273694011929
30
0.0
 70
     32
  0
VERTEX
  8
MY3DLAYER
10
366.046617721424
20
415.114574211096
30
0.0
 70
     32
  0
VERTEX
  8
MY3DLAYER
10
366.734084571156
20
414.085707362145
30
0.0
 70
     32
  0
VERTEX
  8
MY3DLAYER
10
367.762951420107
20
413.398240512413
30
0.0
 70
     32
  0
VERTEX
  8
MY3DLAYER
10
373.92207122094
20
410.360898754253
30
0.0
 70
     32
  0
VERTEX
  8
MY3DLAYER
10
380.424951552225
20
408.15346833092
30
0.0
 70
     32
  0
VERTEX
  8
MY3DLAYER
10
387.160326328554
20
406.813718988971
30
0.0
 70
     32
  0
SEQEND
  0
POLYLINE
 8
COMPONENT0
 66
     1
70
    8
 10
0.0
 20
 0.0
 30
0.0
  0
VERTEX
  8
MY3DLAYER
10
435.664001785397
20
391.904599188138
30
0.0
 70
     32
  0
VERTEX
  8
MY3DLAYER
10
438.791818269058
20
396.585707362145
30
0.0
 70
     32
  0
VERTEX
  8
MY3DLAYER
10
432.563913873919
20
391.12398179384
30
0.0
 70
     32
  0
VERTEX
  8
MY3DLAYER
10
425.676391822849
20
386.521886691117
30
0.0
 70
     32
  0
VERTEX
  8
MY3DLAYER
10
418.247099527725
20
382.858165177126
30
0.0
 70
     32
  0
VERTEX
  8
MY3DLAYER
10
410.403154239504
20
380.195504542748
30
0.0
 70
     32
  0
VERTEX
  8
MY3DLAYER
10
402.27876803682
20
378.579463649666
30
0.0
 70
     32
  0
VERTEX
  8
MY3DLAYER
10
394.012951420107
20
378.037693405611
30
0.0
 70
     32
  0
VERTEX
  8
MY3DLAYER
10
385.747134803394
20
378.579463649666
30
0.0
 70
     32
  0
VERTEX
  8
MY3DLAYER
10
377.62274860071
20
380.195504542748
30
0.0
 70
     32
  0
VERTEX
  8
MY3DLAYER
10
369.778803312489
20
382.858165177126
30
0.0
 70
     32
  0
VERTEX
  8
MY3DLAYER
10
362.349511017364
20
386.521886691117
30
0.0
 70
     32
  0
VERTEX
  8
MY3DLAYER
10
355.461988966295
20
391.123981793839
30
0.0
 70
     32
  0
VERTEX
  8
MY3DLAYER
10
349.234084571156
20
396.585707362145
30
0.0
 70
     32
  0
VERTEX
  8
MY3DLAYER
10
352.361901054817
20
391.904599188138
30
0.0
 70
     32
  0
VERTEX
  8
MY3DLAYER
10
356.889845407813
20
386.741468198802
30
0.0
 70
     32
  0
VERTEX
  8
MY3DLAYER
10
362.052976397149
20
382.213523845806
30
0.0
 70
     32
  0
VERTEX
  8
MY3DLAYER
10
367.762951420107
20
378.398240512413
30
0.0
 70
     32
  0
VERTEX
  8
MY3DLAYER
10
373.92207122094
20
375.360898754253
30
0.0
 70
     32
  0
VERTEX
  8
MY3DLAYER
10
380.424951552225
20
373.15346833092
30
0.0
 70
     32
  0
VERTEX
  8
MY3DLAYER
10
387.160326328554
20
371.813718988971
30
0.0
 70
     32
  0
VERTEX
  8
MY3DLAYER
10
394.012951420107
20
371.364574211096
30
0.0
 70
     32
  0
VERTEX
  8
MY3DLAYER
10
400.86557651166
20
371.813718988971
30
0.0
 70
     32
  0
VERTEX
  8
MY3DLAYER
10
407.600951287989
20
373.15346833092
30
0.0
 70
     32
  0
VERTEX
  8
MY3DLAYER
10
414.103831619274
20
375.360898754254
30
0.0
 70
     32
  0
VERTEX
  8
MY3DLAYER
10
420.262951420107
20
378.398240512413
30
0.0
 70
     32
  0
VERTEX
  8
MY3DLAYER
10
425.972926443065
20
382.213523845806
30
0.0
 70
     32
  0
VERTEX
  8
MY3DLAYER
10
431.136057432401
20
386.741468198802
30
0.0
 70
     32
  0
VERTEX
  8
MY3DLAYER
10
435.664001785397
20
391.904599188138
30
0.0
 70
     32
  0
SEQEND
  0
POLYLINE
 8
COMPONENT0
 66
     1
70
    8
 10
0.0
 20
 0.0
 30
0.0
  0
VERTEX
  8
MY3DLAYER
10
362.052976397149
20
417.213523845806
30
0.0
 70
     32
  0
VERTEX
  8
MY3DLAYER
10
366.734084571156
20
414.085707362145
30
0.0
 70
     32
  0
VERTEX
  8
MY3DLAYER
10
366.046617721424
20
415.114574211096
30
0.0
 70
     32
  0
VERTEX
  8
MY3DLAYER
10
363.009275963264
20
421.273694011929
30
0.0
 70
     32
  0
VERTEX
  8
MY3DLAYER
10
360.801845539931
20
427.776574343214
30
0.0
 70
     32
  0
VERTEX
  8
MY3DLAYER
10
359.462096197982
20
434.511949119543
30
0.0
 70
     32
  0
VERTEX
  8
MY3DLAYER
10
359.162666346065
20
439.080365847245
30
0.0
 70
     32
  0
VERTEX
  8
MY3DLAYER
10
359.012951420107
20
441.364574211096
30
0.0
 70
     32
  0
VERTEX
  8
MY3DLAYER
10
359.162666346065
20
443.648782574947
30
0.0
 70
     32
  0
VERTEX
  8
MY3DLAYER
10
359.462096197982
20
448.217199302649
30
0.0
 70
     32
  0
VERTEX
  8
MY3DLAYER
10
360.801845539931
20
454.952574078978
30
0.0
 70
     32
  0
VERTEX
  8
MY3DLAYER
10
363.009275963264
20
461.455454410263
30
0.0
 70
     32
  0
VERTEX
  8
MY3DLAYER
10
366.046617721424
20
467.614574211096
30
0.0
 70
     32
  0
VERTEX
  8
MY3DLAYER
10
366.734084571156
20
468.643441060047
30
0.0
 70
     32
  0
VERTEX
  8
MY3DLAYER
10
362.052976397149
20
465.515624576386
30
0.0
 70
     32
  0
VERTEX
  8
MY3DLAYER
10
356.889845407813
20
460.98768022339
30
0.0
 70
     32
  0
VERTEX
  8
MY3DLAYER
10
352.361901054817
20
455.824549234054
30
0.0
 70
     32
  0
VERTEX
  8
MY3DLAYER
10
348.546617721424
20
450.114574211096
30
0.0
 70
     32
  0
VERTEX
  8
MY3DLAYER
10
345.509275963264
20
443.955454410263
30
0.0
 70
     32
  0
VERTEX
  8
MY3DLAYER
10
344.629790645452
20
441.364574211096
30
0.0
 70
     32
  0
VERTEX
  8
MY3DLAYER
10
345.509275963264
20
438.773694011929
30
0.0
 70
     32
  0
VERTEX
  8
MY3DLAYER
10
348.546617721424
20
432.614574211096
30
0.0
 70
     32
  0
VERTEX
  8
MY3DLAYER
10
352.361901054817
20
426.904599188138
30
0.0
 70
     32
  0
VERTEX
  8
MY3DLAYER
10
356.889845407813
20
421.741468198802
30
0.0
 70
     32
  0
VERTEX
  8
MY3DLAYER
10
362.052976397149
20
417.213523845806
30
0.0
 70
     32
  0
SEQEND
  0
POLYLINE
 8
COMPONENT0
 66
     1
70
    8
 10
0.0
 20
 0.0
 30
0.0
  0
VERTEX
  8
MY3DLAYER
10
344.552976397149
20
399.713523845806
30
0.0
 70
     32
  0
VERTEX
  8
MY3DLAYER
10
349.234084571156
20
396.585707362145
30
0.0
 70
     32
  0
VERTEX
  8
MY3DLAYER
10
343.77235900285
20
402.813611757284
30
0.0
 70
     32
  0
VERTEX
  8
MY3DLAYER
10
339.170263900128
20
409.701133808353
30
0.0
 70
     32
  0
VERTEX
  8
MY3DLAYER
10
335.506542386137
20
417.130426103478
30
0.0
 70
     32
  0
VERTEX
  8
MY3DLAYER
10
332.843881751759
20
424.974371391699
30
0.0
 70
     32
  0
VERTEX
  8
MY3DLAYER
10
331.227840858677
20
433.098757594383
30
0.0
 70
     32
  0
VERTEX
  8
MY3DLAYER
10
330.686070614622
20
441.364574211096
30
0.0
 70
     32
  0
VERTEX
  8
MY3DLAYER
10
331.227840858677
20
449.630390827809
30
0.0
 70
     32
  0
VERTEX
  8
MY3DLAYER
10
332.843881751759
20
457.754777030493
30
0.0
 70
     32
  0
VERTEX
  8
MY3DLAYER
10
335.506542386137
20
465.598722318714
30
0.0
 70
     32
  0
VERTEX
  8
MY3DLAYER
10
339.170263900128
20
473.028014613839
30
0.0
 70
     32
  0
VERTEX
  8
MY3DLAYER
10
343.77235900285
20
479.915536664908
30
0.0
 70
     32
  0
VERTEX
  8
MY3DLAYER
10
349.234084571156
20
486.143441060047
30
0.0
 70
     32
  0
VERTEX
  8
MY3DLAYER
10
344.552976397149
20
483.015624576386
30
0.0
 70
     32
  0
VERTEX
  8
MY3DLAYER
10
339.389845407813
20
478.48768022339
30
0.0
 70
     32
  0
VERTEX
  8
MY3DLAYER
10
334.861901054817
20
473.324549234054
30
0.0
 70
     32
  0
VERTEX
  8
MY3DLAYER
10
331.046617721424
20
467.614574211096
30
0.0
 70
     32
  0
VERTEX
  8
MY3DLAYER
10
328.009275963264
20
461.455454410263
30
0.0
 70
     32
  0
VERTEX
  8
MY3DLAYER
10
325.801845539931
20
454.952574078978
30
0.0
 70
     32
  0
VERTEX
  8
MY3DLAYER
10
324.462096197982
20
448.217199302649
30
0.0
 70
     32
  0
VERTEX
  8
MY3DLAYER
10
324.012951420107
20
441.364574211096
30
0.0
 70
     32
  0
VERTEX
  8
MY3DLAYER
10
324.462096197982
20
434.511949119543
30
0.0
 70
     32
  0
VERTEX
  8
MY3DLAYER
10
325.801845539931
20
427.776574343214
30
0.0
 70
     32
  0
VERTEX
  8
MY3DLAYER
10
328.009275963264
20
421.273694011929
30
0.0
 70
     32
  0
VERTEX
  8
MY3DLAYER
10
331.046617721424
20
415.114574211096
30
0.0
 70
     32
  0
VERTEX
  8
MY3DLAYER
10
334.861901054817
20
409.404599188138
30
0.0
 70
     32
  0
VERTEX
  8
MY3DLAYER
10
339.389845407813
20
404.241468198802
30
0.0
 70
     32
  0
VERTEX
  8
MY3DLAYER
10
344.552976397149
20
399.713523845806
30
0.0
 70
     32
  0
SEQEND
  0
POLYLINE
 8
COMPONENT0
 66
     1
70
    8
 10
0.0
 20
 0.0
 30
0.0
  0
VERTEX
  8
MY3DLAYER
10
403.14978487551
20
510.765714507263
30
0.0
 70
     32
  0
VERTEX
  8
MY3DLAYER
10
400.86557651166
20
510.915429433221
30
0.0
 70
     32
  0
VERTEX
  8
MY3DLAYER
10
407.600951287989
20
509.575680091272
30
0.0
 70
     32
  0
VERTEX
  8
MY3DLAYER
10
414.103831619274
20
507.368249667939
30
0.0
 70
     32
  0
VERTEX
  8
MY3DLAYER
10
420.262951420107
20
504.330907909779
30
0.0
 70
     32
  0
VERTEX
  8
MY3DLAYER
10
425.972926443065
20
500.515624576386
30
0.0
 70
     32
  0
VERTEX
  8
MY3DLAYER
10
431.136057432401
20
495.98768022339
30
0.0
 70
     32
  0
VERTEX
  8
MY3DLAYER
10
435.664001785397
20
490.824549234054
30
0.0
 70
     32
  0
VERTEX
  8
MY3DLAYER
10
438.791818269058
20
486.143441060047
30
0.0
 70
     32
  0
VERTEX
  8
MY3DLAYER
10
443.472926443065
20
483.015624576386
30
0.0
 70
     32
  0
VERTEX
  8
MY3DLAYER
10
448.636057432401
20
478.48768022339
30
0.0
 70
     32
  0
VERTEX
  8
MY3DLAYER
10
453.164001785397
20
473.324549234054
30
0.0
 70
     32
  0
VERTEX
  8
MY3DLAYER
10
456.97928511879
20
467.614574211096
30
0.0
 70
     32
  0
VERTEX
  8
MY3DLAYER
10
460.016626876949
20
461.455454410263
30
0.0
 70
     32
  0
VERTEX
  8
MY3DLAYER
10
462.224057300283
20
454.952574078978
30
0.0
 70
     32
  0
VERTEX
  8
MY3DLAYER
10
463.563806642232
20
448.217199302649
30
0.0
 70
     32
  0
VERTEX
  8
MY3DLAYER
10
463.414091716274
20
450.5014076665
30
0.0
 70
     32
  0
VERTEX
  8
MY3DLAYER
10
461.627759260342
20
459.481907368272
30
0.0
 70
     32
  0
VERTEX
  8
MY3DLAYER
10
458.684518695897
20
468.152414476652
30
0.0
 70
     32
  0
VERTEX
  8
MY3DLAYER
10
454.634729685017
20
476.364574211096
30
0.0
 70
     32
  0
VERTEX
  8
MY3DLAYER
10
449.547685240493
20
483.977874241706
30
0.0
 70
     32
  0
VERTEX
  8
MY3DLAYER
10
443.510426103165
20
490.862048894154
30
0.0
 70
     32
  0
VERTEX
  8
MY3DLAYER
10
436.626251450717
20
496.899308031482
30
0.0
 70
     32
  0
VERTEX
  8
MY3DLAYER
10
429.012951420107
20
501.986352476007
30
0.0
 70
     32
  0
VERTEX
  8
MY3DLAYER
10
420.800791685663
20
506.036141486886
30
0.0
 70
     32
  0
VERTEX
  8
MY3DLAYER
10
412.130284577283
20
508.979382051331
30
0.0
 70
     32
  0
VERTEX
  8
MY3DLAYER
10
403.14978487551
20
510.765714507263
30
0.0
 70
     32
  0
SEQEND
  0
POLYLINE
 8
COMPONENT0
 66
     1
70
    8
 10
0.0
 20
 0.0
 30
0.0
  0
VERTEX
  8
MY3DLAYER
10
397.924951552225
20
492.075680091272
30
0.0
 70
     32
  0
VERTEX
  8
MY3DLAYER
10
394.012951420107
20
490.747734985751
30
0.0
 70
     32
  0
VERTEX
  8
MY3DLAYER
10
400.458747355813
20
490.325255199524
30
0.0
 70
     32
  0
VERTEX
  8
MY3DLAYER
10
406.794253935947
20
489.06504458712
30
0.0
 70
     32
  0
VERTEX
  8
MY3DLAYER
10
412.911068886389
20
486.988665701514
30
0.0
 70
     32
  0
VERTEX
  8
MY3DLAYER
10
418.704531807434
20
484.131645961118
30
0.0
 70
     32
  0
VERTEX
  8
MY3DLAYER
10
424.075514942253
20
480.542869765807
30
0.0
 70
     32
  0
VERTEX
  8
MY3DLAYER
10
428.932119280291
20
476.28374207128
30
0.0
 70
     32
  0
VERTEX
  8
MY3DLAYER
10
433.191246974818
20
471.427137733242
30
0.0
 70
     32
  0
VERTEX
  8
MY3DLAYER
10
436.780023170129
20
466.056154598423
30
0.0
 70
     32
  0
VERTEX
  8
MY3DLAYER
10
439.637042910525
20
460.262691677378
30
0.0
 70
     32
  0
VERTEX
  8
MY3DLAYER
10
441.713421796131
20
454.145876726936
30
0.0
 70
     32
  0
VERTEX
  8
MY3DLAYER
10
442.973632408535
20
447.810370146802
30
0.0
 70
     32
  0
VERTEX
  8
MY3DLAYER
10
443.396112194761
20
441.364574211096
30
0.0
 70
     32
  0
VERTEX
  8
MY3DLAYER
10
444.724057300283
20
445.276574343214
30
0.0
 70
     32
  0
VERTEX
  8
MY3DLAYER
10
446.063806642232
20
452.011949119543
30
0.0
 70
     32
  0
VERTEX
  8
MY3DLAYER
10
446.512951420107
20
458.864574211096
30
0.0
 70
     32
  0
VERTEX
  8
MY3DLAYER
10
446.063806642232
20
465.717199302649
30
0.0
 70
     32
  0
VERTEX
  8
MY3DLAYER
10
444.724057300283
20
472.452574078978
30
0.0
 70
     32
  0
VERTEX
  8
MY3DLAYER
10
442.516626876949
20
478.955454410263
30
0.0
 70
     32
  0
VERTEX
  8
MY3DLAYER
10
439.47928511879
20
485.114574211096
30
0.0
 70
     32
  0
VERTEX
  8
MY3DLAYER
10
438.791818269058
20
486.143441060047
30
0.0
 70
     32
  0
VERTEX
  8
MY3DLAYER
10
437.762951420107
20
486.830907909779
30
0.0
 70
     32
  0
VERTEX
  8
MY3DLAYER
10
431.603831619274
20
489.868249667939
30
0.0
 70
     32
  0
VERTEX
  8
MY3DLAYER
10
425.100951287989
20
492.075680091272
30
0.0
 70
     32
  0
VERTEX
  8
MY3DLAYER
10
418.36557651166
20
493.415429433221
30
0.0
 70
     32
  0
VERTEX
  8
MY3DLAYER
10
411.512951420107
20
493.864574211096
30
0.0
 70
     32
  0
VERTEX
  8
MY3DLAYER
10
404.660326328554
20
493.415429433221
30
0.0
 70
     32
  0
VERTEX
  8
MY3DLAYER
10
397.924951552225
20
492.075680091272
30
0.0
 70
     32
  0
SEQEND
  0
POLYLINE
 8
COMPONENT0
 66
     1
70
    8
 10
0.0
 20
 0.0
 30
0.0
  0
VERTEX
  8
MY3DLAYER
10
352.361901054817
20
490.824549234054
30
0.0
 70
     32
  0
VERTEX
  8
MY3DLAYER
10
349.234084571156
20
486.143441060047
30
0.0
 70
     32
  0
VERTEX
  8
MY3DLAYER
10
355.461988966295
20
491.605166628353
30
0.0
 70
     32
  0
VERTEX
  8
MY3DLAYER
10
362.349511017364
20
496.207261731075
30
0.0
 70
     32
  0
VERTEX
  8
MY3DLAYER
10
369.778803312489
20
499.870983245066
30
0.0
 70
     32
  0
VERTEX
  8
MY3DLAYER
10
377.62274860071
20
502.533643879444
30
0.0
 70
     32
  0
VERTEX
  8
MY3DLAYER
10
385.747134803394
20
504.149684772526
30
0.0
 70
     32
  0
VERTEX
  8
MY3DLAYER
10
394.012951420107
20
504.691455016581
30
0.0
 70
     32
  0
VERTEX
  8
MY3DLAYER
10
402.27876803682
20
504.149684772526
30
0.0
 70
     32
  0
VERTEX
  8
MY3DLAYER
10
410.403154239504
20
502.533643879444
30
0.0
 70
     32
  0
VERTEX
  8
MY3DLAYER
10
418.247099527725
20
499.870983245066
30
0.0
 70
     32
  0
VERTEX
  8
MY3DLAYER
10
425.676391822849
20
496.207261731075
30
0.0
 70
     32
  0
VERTEX
  8
MY3DLAYER
10
432.563913873919
20
491.605166628353
30
0.0
 70
     32
  0
VERTEX
  8
MY3DLAYER
10
438.791818269058
20
486.143441060047
30
0.0
 70
     32
  0
VERTEX
  8
MY3DLAYER
10
435.664001785397
20
490.824549234054
30
0.0
 70
     32
  0
VERTEX
  8
MY3DLAYER
10
431.136057432401
20
495.98768022339
30
0.0
 70
     32
  0
VERTEX
  8
MY3DLAYER
10
425.972926443065
20
500.515624576386
30
0.0
 70
     32
  0
VERTEX
  8
MY3DLAYER
10
420.262951420107
20
504.330907909779
30
0.0
 70
     32
  0
VERTEX
  8
MY3DLAYER
10
414.103831619274
20
507.368249667939
30
0.0
 70
     32
  0
VERTEX
  8
MY3DLAYER
10
407.600951287989
20
509.575680091272
30
0.0
 70
     32
  0
VERTEX
  8
MY3DLAYER
10
400.86557651166
20
510.915429433221
30
0.0
 70
     32
  0
VERTEX
  8
MY3DLAYER
10
394.012951420107
20
511.364574211096
30
0.0
 70
     32
  0
VERTEX
  8
MY3DLAYER
10
387.160326328554
20
510.915429433221
30
0.0
 70
     32
  0
VERTEX
  8
MY3DLAYER
10
380.424951552225
20
509.575680091272
30
0.0
 70
     32
  0
VERTEX
  8
MY3DLAYER
10
373.92207122094
20
507.368249667938
30
0.0
 70
     32
  0
VERTEX
  8
MY3DLAYER
10
367.762951420107
20
504.330907909779
30
0.0
 70
     32
  0
VERTEX
  8
MY3DLAYER
10
362.052976397149
20
500.515624576386
30
0.0
 70
     32
  0
VERTEX
  8
MY3DLAYER
10
356.889845407813
20
495.98768022339
30
0.0
 70
     32
  0
VERTEX
  8
MY3DLAYER
10
352.361901054817
20
490.824549234054
30
0.0
 70
     32
  0
SEQEND
  0
POLYLINE
 8
COMPONENT0
 66
     1
70
    8
 10
0.0
 20
 0.0
 30
0.0
  0
VERTEX
  8
MY3DLAYER
10
413.797159783958
20
458.714859285138
30
0.0
 70
     32
  0
VERTEX
  8
MY3DLAYER
10
411.512951420107
20
458.864574211096
30
0.0
 70
     32
  0
VERTEX
  8
MY3DLAYER
10
413.647444857999
20
456.430650921287
30
0.0
 70
     32
  0
VERTEX
  8
MY3DLAYER
10
415.44598666946
20
453.738942881861
30
0.0
 70
     32
  0
VERTEX
  8
MY3DLAYER
10
416.877803305444
20
450.835505963654
30
0.0
 70
     32
  0
VERTEX
  8
MY3DLAYER
10
417.918395986335
20
447.770018777324
30
0.0
 70
     32
  0
VERTEX
  8
MY3DLAYER
10
418.549959882856
20
444.59493265854
30
0.0
 70
     32
  0
VERTEX
  8
MY3DLAYER
10
418.761688761636
20
441.364574211096
30
0.0
 70
     32
  0
VERTEX
  8
MY3DLAYER
10
418.549959882856
20
438.134215763652
30
0.0
 70
     32
  0
VERTEX
  8
MY3DLAYER
10
417.918395986335
20
434.959129644868
30
0.0
 70
     32
  0
VERTEX
  8
MY3DLAYER
10
416.877803305444
20
431.893642458538
30
0.0
 70
     32
  0
VERTEX
  8
MY3DLAYER
10
415.44598666946
20
428.990205540331
30
0.0
 70
     32
  0
VERTEX
  8
MY3DLAYER
10
413.647444858
20
426.298497500905
30
0.0
 70
     32
  0
VERTEX
  8
MY3DLAYER
10
411.512951420107
20
423.864574211096
30
0.0
 70
     32
  0
VERTEX
  8
MY3DLAYER
10
413.797159783958
20
424.014289137054
30
0.0
 70
     32
  0
VERTEX
  8
MY3DLAYER
10
416.042284709401
20
424.460872251037
30
0.0
 70
     32
  0
VERTEX
  8
MY3DLAYER
10
418.209911486496
20
425.196682392148
30
0.0
 70
     32
  0
VERTEX
  8
MY3DLAYER
10
420.262951420107
20
426.209129644868
30
0.0
 70
     32
  0
VERTEX
  8
MY3DLAYER
10
422.16627642776
20
427.480890755999
30
0.0
 70
     32
  0
VERTEX
  8
MY3DLAYER
10
423.887320090871
20
428.990205540331
30
0.0
 70
     32
  0
VERTEX
  8
MY3DLAYER
10
425.396634875204
20
430.711249203443
30
0.0
 70
     32
  0
VERTEX
  8
MY3DLAYER
10
426.668395986335
20
432.614574211096
30
0.0
 70
     32
  0
VERTEX
  8
MY3DLAYER
10
427.680843239054
20
434.667614144707
30
0.0
 70
     32
  0
VERTEX
  8
MY3DLAYER
10
428.416653380165
20
436.835240921802
30
0.0
 70
     32
  0
VERTEX
  8
MY3DLAYER
10
428.863236494149
20
439.080365847245
30
0.0
 70
     32
  0
VERTEX
  8
MY3DLAYER
10
429.012951420107
20
441.364574211096
30
0.0
 70
     32
  0
VERTEX
  8
MY3DLAYER
10
428.863236494149
20
443.648782574947
30
0.0
 70
     32
  0
VERTEX
  8
MY3DLAYER
10
428.416653380165
20
445.89390750039
30
0.0
 70
     32
  0
VERTEX
  8
MY3DLAYER
10
427.680843239054
20
448.061534277485
30
0.0
 70
     32
  0
VERTEX
  8
MY3DLAYER
10
426.668395986335
20
450.114574211096
30
0.0
 70
     32
  0
VERTEX
  8
MY3DLAYER
10
425.396634875204
20
452.017899218749
30
0.0
 70
     32
  0
VERTEX
  8
MY3DLAYER
10
423.887320090871
20
453.738942881861
30
0.0
 70
     32
  0
VERTEX
  8
MY3DLAYER
10
422.16627642776
20
455.248257666193
30
0.0
 70
     32
  0
VERTEX
  8
MY3DLAYER
10
420.262951420107
20
456.520018777324
30
0.0
 70
     32
  0
VERTEX
  8
MY3DLAYER
10
418.209911486496
20
457.532466030044
30
0.0
 70
     32
  0
VERTEX
  8
MY3DLAYER
10
416.042284709401
20
458.268276171155
30
0.0
 70
     32
  0
VERTEX
  8
MY3DLAYER
10
413.797159783958
20
458.714859285138
30
0.0
 70
     32
  0
SEQEND
  0
POLYLINE
 8
COMPONENT0
 66
     1
70
    8
 10
0.0
 20
 0.0
 30
0.0
  0
VERTEX
  8
MY3DLAYER
10
411.363236494149
20
456.580365847245
30
0.0
 70
     32
  0
VERTEX
  8
MY3DLAYER
10
411.512951420107
20
458.864574211096
30
0.0
 70
     32
  0
VERTEX
  8
MY3DLAYER
10
409.228743056256
20
458.714859285138
30
0.0
 70
     32
  0
VERTEX
  8
MY3DLAYER
10
406.983618130813
20
458.268276171155
30
0.0
 70
     32
  0
VERTEX
  8
MY3DLAYER
10
404.815991353718
20
457.532466030044
30
0.0
 70
     32
  0
VERTEX
  8
MY3DLAYER
10
402.762951420107
20
456.520018777324
30
0.0
 70
     32
  0
VERTEX
  8
MY3DLAYER
10
400.859626412454
20
455.248257666193
30
0.0
 70
     32
  0
VERTEX
  8
MY3DLAYER
10
399.138582749342
20
453.738942881861
30
0.0
 70
     32
  0
VERTEX
  8
MY3DLAYER
10
397.62926796501
20
452.017899218749
30
0.0
 70
     32
  0
VERTEX
  8
MY3DLAYER
10
396.357506853879
20
450.114574211096
30
0.0
 70
     32
  0
VERTEX
  8
MY3DLAYER
10
395.345059601159
20
448.061534277485
30
0.0
 70
     32
  0
VERTEX
  8
MY3DLAYER
10
394.609249460048
20
445.89390750039
30
0.0
 70
     32
  0
VERTEX
  8
MY3DLAYER
10
394.162666346065
20
443.648782574947
30
0.0
 70
     32
  0
VERTEX
  8
MY3DLAYER
10
394.012951420107
20
441.364574211096
30
0.0
 70
     32
  0
VERTEX
  8
MY3DLAYER
10
396.297159783958
20
441.514289137054
30
0.0
 70
     32
  0
VERTEX
  8
MY3DLAYER
10
398.542284709401
20
441.960872251037
30
0.0
 70
     32
  0
VERTEX
  8
MY3DLAYER
10
400.709911486496
20
442.696682392148
30
0.0
 70
     32
  0
VERTEX
  8
MY3DLAYER
10
402.762951420107
20
443.709129644868
30
0.0
 70
     32
  0
VERTEX
  8
MY3DLAYER
10
404.66627642776
20
444.980890755999
30
0.0
 70
     32
  0
VERTEX
  8
MY3DLAYER
10
406.387320090871
20
446.490205540331
30
0.0
 70
     32
  0
VERTEX
  8
MY3DLAYER
10
407.896634875204
20
448.211249203443
30
0.0
 70
     32
  0
VERTEX
  8
MY3DLAYER
10
409.168395986335
20
450.114574211096
30
0.0
 70
     32
  0
VERTEX
  8
MY3DLAYER
10
410.180843239054
20
452.167614144707
30
0.0
 70
     32
  0
VERTEX
  8
MY3DLAYER
10
410.916653380166
20
454.335240921802
30
0.0
 70
     32
  0
VERTEX
  8
MY3DLAYER
10
411.363236494149
20
456.580365847245
30
0.0
 70
     32
  0
SEQEND
  0
POLYLINE
 8
COMPONENT0
 66
     1
70
    8
 10
0.0
 20
 0.0
 30
0.0
  0
VERTEX
  8
MY3DLAYER
10
400.86557651166
20
475.915429433221
30
0.0
 70
     32
  0
VERTEX
  8
MY3DLAYER
10
396.297159783958
20
476.214859285138
30
0.0
 70
     32
  0
VERTEX
  8
MY3DLAYER
10
398.542284709401
20
475.768276171155
30
0.0
 70
     32
  0
VERTEX
  8
MY3DLAYER
10
400.709911486496
20
475.032466030044
30
0.0
 70
     32
  0
VERTEX
  8
MY3DLAYER
10
402.762951420107
20
474.020018777324
30
0.0
 70
     32
  0
VERTEX
  8
MY3DLAYER
10
404.66627642776
20
472.748257666193
30
0.0
 70
     32
  0
VERTEX
  8
MY3DLAYER
10
406.387320090871
20
471.238942881861
30
0.0
 70
     32
  0
VERTEX
  8
MY3DLAYER
10
407.896634875204
20
469.517899218749
30
0.0
 70
     32
  0
VERTEX
  8
MY3DLAYER
10
409.168395986335
20
467.614574211096
30
0.0
 70
     32
  0
VERTEX
  8
MY3DLAYER
10
410.180843239054
20
465.561534277485
30
0.0
 70
     32
  0
VERTEX
  8
MY3DLAYER
10
410.916653380166
20
463.39390750039
30
0.0
 70
     32
  0
VERTEX
  8
MY3DLAYER
10
411.363236494149
20
461.148782574947
30
0.0
 70
     32
  0
VERTEX
  8
MY3DLAYER
10
411.512951420107
20
458.864574211096
30
0.0
 70
     32
  0
VERTEX
  8
MY3DLAYER
10
413.797159783958
20
458.714859285138
30
0.0
 70
     32
  0
VERTEX
  8
MY3DLAYER
10
416.042284709401
20
458.268276171155
30
0.0
 70
     32
  0
VERTEX
  8
MY3DLAYER
10
418.209911486496
20
457.532466030044
30
0.0
 70
     32
  0
VERTEX
  8
MY3DLAYER
10
420.262951420107
20
456.520018777324
30
0.0
 70
     32
  0
VERTEX
  8
MY3DLAYER
10
422.16627642776
20
455.248257666193
30
0.0
 70
     32
  0
VERTEX
  8
MY3DLAYER
10
423.887320090871
20
453.738942881861
30
0.0
 70
     32
  0
VERTEX
  8
MY3DLAYER
10
425.396634875204
20
452.017899218749
30
0.0
 70
     32
  0
VERTEX
  8
MY3DLAYER
10
426.668395986335
20
450.114574211096
30
0.0
 70
     32
  0
VERTEX
  8
MY3DLAYER
10
427.680843239054
20
448.061534277485
30
0.0
 70
     32
  0
VERTEX
  8
MY3DLAYER
10
428.416653380165
20
445.89390750039
30
0.0
 70
     32
  0
VERTEX
  8
MY3DLAYER
10
428.863236494149
20
443.648782574947
30
0.0
 70
     32
  0
VERTEX
  8
MY3DLAYER
10
428.563806642232
20
448.217199302649
30
0.0
 70
     32
  0
VERTEX
  8
MY3DLAYER
10
427.224057300283
20
454.952574078978
30
0.0
 70
     32
  0
VERTEX
  8
MY3DLAYER
10
425.016626876949
20
461.455454410263
30
0.0
 70
     32
  0
VERTEX
  8
MY3DLAYER
10
421.97928511879
20
467.614574211096
30
0.0
 70
     32
  0
VERTEX
  8
MY3DLAYER
10
421.291818269058
20
468.643441060047
30
0.0
 70
     32
  0
VERTEX
  8
MY3DLAYER
10
420.262951420107
20
469.330907909779
30
0.0
 70
     32
  0
VERTEX
  8
MY3DLAYER
10
414.103831619274
20
472.368249667938
30
0.0
 70
     32
  0
VERTEX
  8
MY3DLAYER
10
407.600951287989
20
474.575680091272
30
0.0
 70
     32
  0
VERTEX
  8
MY3DLAYER
10
400.86557651166
20
475.915429433221
30
0.0
 70
     32
  0
SEQEND
  0
POLYLINE
 8
COMPONENT0
 66
     1
70
    8
 10
0.0
 20
 0.0
 30
0.0
  0
VERTEX
  8
MY3DLAYER
10
376.662666346065
20
461.148782574947
30
0.0
 70
     32
  0
VERTEX
  8
MY3DLAYER
10
376.512951420107
20
458.864574211096
30
0.0
 70
     32
  0
VERTEX
  8
MY3DLAYER
10
378.946874709916
20
460.999067648989
30
0.0
 70
     32
  0
VERTEX
  8
MY3DLAYER
10
381.638582749342
20
462.797609460449
30
0.0
 70
     32
  0
VERTEX
  8
MY3DLAYER
10
384.542019667548
20
464.229426096433
30
0.0
 70
     32
  0
VERTEX
  8
MY3DLAYER
10
387.607506853879
20
465.270018777324
30
0.0
 70
     32
  0
VERTEX
  8
MY3DLAYER
10
390.782592972663
20
465.901582673845
30
0.0
 70
     32
  0
VERTEX
  8
MY3DLAYER
10
394.012951420107
20
466.113311552625
30
0.0
 70
     32
  0
VERTEX
  8
MY3DLAYER
10
397.243309867551
20
465.901582673845
30
0.0
 70
     32
  0
VERTEX
  8
MY3DLAYER
10
400.418395986335
20
465.270018777324
30
0.0
 70
     32
  0
VERTEX
  8
MY3DLAYER
10
403.483883172665
20
464.229426096433
30
0.0
 70
     32
  0
VERTEX
  8
MY3DLAYER
10
406.387320090871
20
462.797609460449
30
0.0
 70
     32
  0
VERTEX
  8
MY3DLAYER
10
409.079028130298
20
460.999067648989
30
0.0
 70
     32
  0
VERTEX
  8
MY3DLAYER
10
411.512951420107
20
458.864574211096
30
0.0
 70
     32
  0
VERTEX
  8
MY3DLAYER
10
411.363236494149
20
461.148782574947
30
0.0
 70
     32
  0
VERTEX
  8
MY3DLAYER
10
410.916653380166
20
463.39390750039
30
0.0
 70
     32
  0
VERTEX
  8
MY3DLAYER
10
410.180843239054
20
465.561534277485
30
0.0
 70
     32
  0
VERTEX
  8
MY3DLAYER
10
409.168395986335
20
467.614574211096
30
0.0
 70
     32
  0
VERTEX
  8
MY3DLAYER
10
407.896634875204
20
469.517899218749
30
0.0
 70
     32
  0
VERTEX
  8
MY3DLAYER
10
406.387320090871
20
471.238942881861
30
0.0
 70
     32
  0
VERTEX
  8
MY3DLAYER
10
404.66627642776
20
472.748257666193
30
0.0
 70
     32
  0
VERTEX
  8
MY3DLAYER
10
402.762951420107
20
474.020018777324
30
0.0
 70
     32
  0
VERTEX
  8
MY3DLAYER
10
400.709911486496
20
475.032466030044
30
0.0
 70
     32
  0
VERTEX
  8
MY3DLAYER
10
398.542284709401
20
475.768276171155
30
0.0
 70
     32
  0
VERTEX
  8
MY3DLAYER
10
396.297159783958
20
476.214859285138
30
0.0
 70
     32
  0
VERTEX
  8
MY3DLAYER
10
394.012951420107
20
476.364574211096
30
0.0
 70
     32
  0
VERTEX
  8
MY3DLAYER
10
391.728743056256
20
476.214859285138
30
0.0
 70
     32
  0
VERTEX
  8
MY3DLAYER
10
389.483618130813
20
475.768276171155
30
0.0
 70
     32
  0
VERTEX
  8
MY3DLAYER
10
387.315991353718
20
475.032466030044
30
0.0
 70
     32
  0
VERTEX
  8
MY3DLAYER
10
385.262951420107
20
474.020018777324
30
0.0
 70
     32
  0
VERTEX
  8
MY3DLAYER
10
383.359626412454
20
472.748257666193
30
0.0
 70
     32
  0
VERTEX
  8
MY3DLAYER
10
381.638582749342
20
471.238942881861
30
0.0
 70
     32
  0
VERTEX
  8
MY3DLAYER
10
380.12926796501
20
469.517899218749
30
0.0
 70
     32
  0
VERTEX
  8
MY3DLAYER
10
378.857506853879
20
467.614574211096
30
0.0
 70
     32
  0
VERTEX
  8
MY3DLAYER
10
377.845059601159
20
465.561534277485
30
0.0
 70
     32
  0
VERTEX
  8
MY3DLAYER
10
377.109249460048
20
463.39390750039
30
0.0
 70
     32
  0
VERTEX
  8
MY3DLAYER
10
376.662666346065
20
461.148782574947
30
0.0
 70
     32
  0
SEQEND
  0
POLYLINE
 8
COMPONENT0
 66
     1
70
    8
 10
0.0
 20
 0.0
 30
0.0
  0
VERTEX
  8
MY3DLAYER
10
378.797159783958
20
458.714859285138
30
0.0
 70
     32
  0
VERTEX
  8
MY3DLAYER
10
376.512951420107
20
458.864574211096
30
0.0
 70
     32
  0
VERTEX
  8
MY3DLAYER
10
376.662666346065
20
456.580365847245
30
0.0
 70
     32
  0
VERTEX
  8
MY3DLAYER
10
377.109249460048
20
454.335240921802
30
0.0
 70
     32
  0
VERTEX
  8
MY3DLAYER
10
377.845059601159
20
452.167614144707
30
0.0
 70
     32
  0
VERTEX
  8
MY3DLAYER
10
378.857506853879
20
450.114574211096
30
0.0
 70
     32
  0
VERTEX
  8
MY3DLAYER
10
380.12926796501
20
448.211249203443
30
0.0
 70
     32
  0
VERTEX
  8
MY3DLAYER
10
381.638582749342
20
446.490205540331
30
0.0
 70
     32
  0
VERTEX
  8
MY3DLAYER
10
383.359626412454
20
444.980890755999
30
0.0
 70
     32
  0
VERTEX
  8
MY3DLAYER
10
385.262951420107
20
443.709129644868
30
0.0
 70
     32
  0
VERTEX
  8
MY3DLAYER
10
387.315991353718
20
442.696682392148
30
0.0
 70
     32
  0
VERTEX
  8
MY3DLAYER
10
389.483618130813
20
441.960872251037
30
0.0
 70
     32
  0
VERTEX
  8
MY3DLAYER
10
391.728743056256
20
441.514289137054
30
0.0
 70
     32
  0
VERTEX
  8
MY3DLAYER
10
394.012951420107
20
441.364574211096
30
0.0
 70
     32
  0
VERTEX
  8
MY3DLAYER
10
393.863236494149
20
443.648782574947
30
0.0
 70
     32
  0
VERTEX
  8
MY3DLAYER
10
393.416653380166
20
445.89390750039
30
0.0
 70
     32
  0
VERTEX
  8
MY3DLAYER
10
392.680843239054
20
448.061534277485
30
0.0
 70
     32
  0
VERTEX
  8
MY3DLAYER
10
391.668395986335
20
450.114574211096
30
0.0
 70
     32
  0
VERTEX
  8
MY3DLAYER
10
390.396634875204
20
452.017899218749
30
0.0
 70
     32
  0
VERTEX
  8
MY3DLAYER
10
388.887320090871
20
453.738942881861
30
0.0
 70
     32
  0
VERTEX
  8
MY3DLAYER
10
387.16627642776
20
455.248257666193
30
0.0
 70
     32
  0
VERTEX
  8
MY3DLAYER
10
385.262951420107
20
456.520018777324
30
0.0
 70
     32
  0
VERTEX
  8
MY3DLAYER
10
383.209911486496
20
457.532466030044
30
0.0
 70
     32
  0
VERTEX
  8
MY3DLAYER
10
381.042284709401
20
458.268276171155
30
0.0
 70
     32
  0
VERTEX
  8
MY3DLAYER
10
378.797159783958
20
458.714859285138
30
0.0
 70
     32
  0
SEQEND
  0
POLYLINE
 8
COMPONENT0
 66
     1
70
    8
 10
0.0
 20
 0.0
 30
0.0
  0
VERTEX
  8
MY3DLAYER
10
359.462096197982
20
448.217199302649
30
0.0
 70
     32
  0
VERTEX
  8
MY3DLAYER
10
359.162666346065
20
443.648782574947
30
0.0
 70
     32
  0
VERTEX
  8
MY3DLAYER
10
359.609249460048
20
445.89390750039
30
0.0
 70
     32
  0
VERTEX
  8
MY3DLAYER
10
360.345059601159
20
448.061534277485
30
0.0
 70
     32
  0
VERTEX
  8
MY3DLAYER
10
361.357506853879
20
450.114574211096
30
0.0
 70
     32
  0
VERTEX
  8
MY3DLAYER
10
362.62926796501
20
452.017899218749
30
0.0
 70
     32
  0
VERTEX
  8
MY3DLAYER
10
364.138582749342
20
453.738942881861
30
0.0
 70
     32
  0
VERTEX
  8
MY3DLAYER
10
365.859626412454
20
455.248257666193
30
0.0
 70
     32
  0
VERTEX
  8
MY3DLAYER
10
367.762951420107
20
456.520018777324
30
0.0
 70
     32
  0
VERTEX
  8
MY3DLAYER
10
369.815991353718
20
457.532466030044
30
0.0
 70
     32
  0
VERTEX
  8
MY3DLAYER
10
371.983618130813
20
458.268276171155
30
0.0
 70
     32
  0
VERTEX
  8
MY3DLAYER
10
374.228743056256
20
458.714859285138
30
0.0
 70
     32
  0
VERTEX
  8
MY3DLAYER
10
376.512951420107
20
458.864574211096
30
0.0
 70
     32
  0
VERTEX
  8
MY3DLAYER
10
376.662666346065
20
461.148782574947
30
0.0
 70
     32
  0
VERTEX
  8
MY3DLAYER
10
377.109249460048
20
463.39390750039
30
0.0
 70
     32
  0
VERTEX
  8
MY3DLAYER
10
377.845059601159
20
465.561534277485
30
0.0
 70
     32
  0
VERTEX
  8
MY3DLAYER
10
378.857506853879
20
467.614574211096
30
0.0
 70
     32
  0
VERTEX
  8
MY3DLAYER
10
380.12926796501
20
469.517899218749
30
0.0
 70
     32
  0
VERTEX
  8
MY3DLAYER
10
381.638582749342
20
471.238942881861
30
0.0
 70
     32
  0
VERTEX
  8
MY3DLAYER
10
383.359626412454
20
472.748257666193
30
0.0
 70
     32
  0
VERTEX
  8
MY3DLAYER
10
385.262951420107
20
474.020018777324
30
0.0
 70
     32
  0
VERTEX
  8
MY3DLAYER
10
387.315991353718
20
475.032466030044
30
0.0
 70
     32
  0
VERTEX
  8
MY3DLAYER
10
389.483618130813
20
475.768276171155
30
0.0
 70
     32
  0
VERTEX
  8
MY3DLAYER
10
391.728743056256
20
476.214859285138
30
0.0
 70
     32
  0
VERTEX
  8
MY3DLAYER
10
387.160326328554
20
475.915429433221
30
0.0
 70
     32
  0
VERTEX
  8
MY3DLAYER
10
380.424951552225
20
474.575680091272
30
0.0
 70
     32
  0
VERTEX
  8
MY3DLAYER
10
373.92207122094
20
472.368249667938
30
0.0
 70
     32
  0
VERTEX
  8
MY3DLAYER
10
367.762951420107
20
469.330907909779
30
0.0
 70
     32
  0
VERTEX
  8
MY3DLAYER
10
366.734084571156
20
468.643441060047
30
0.0
 70
     32
  0
VERTEX
  8
MY3DLAYER
10
366.046617721424
20
467.614574211096
30
0.0
 70
     32
  0
VERTEX
  8
MY3DLAYER
10
363.009275963264
20
461.455454410263
30
0.0
 70
     32
  0
VERTEX
  8
MY3DLAYER
10
360.801845539931
20
454.952574078978
30
0.0
 70
     32
  0
VERTEX
  8
MY3DLAYER
10
359.462096197982
20
448.217199302649
30
0.0
 70
     32
  0
SEQEND
  0
POLYLINE
 8
COMPONENT0
 66
     1
70
    8
 10
0.0
 20
 0.0
 30
0.0
  0
VERTEX
  8
MY3DLAYER
10
374.228743056256
20
424.014289137054
30
0.0
 70
     32
  0
VERTEX
  8
MY3DLAYER
10
376.512951420107
20
423.864574211096
30
0.0
 70
     32
  0
VERTEX
  8
MY3DLAYER
10
374.378457982214
20
426.298497500905
30
0.0
 70
     32
  0
VERTEX
  8
MY3DLAYER
10
372.579916170754
20
428.990205540331
30
0.0
 70
     32
  0
VERTEX
  8
MY3DLAYER
10
371.14809953477
20
431.893642458538
30
0.0
 70
     32
  0
VERTEX
  8
MY3DLAYER
10
370.107506853879
20
434.959129644868
30
0.0
 70
     32
  0
VERTEX
  8
MY3DLAYER
10
369.475942957358
20
438.134215763652
30
0.0
 70
     32
  0
VERTEX
  8
MY3DLAYER
10
369.264214078578
20
441.364574211096
30
0.0
 70
     32
  0
VERTEX
  8
MY3DLAYER
10
369.475942957358
20
444.59493265854
30
0.0
 70
     32
  0
VERTEX
  8
MY3DLAYER
10
370.107506853879
20
447.770018777324
30
0.0
 70
     32
  0
VERTEX
  8
MY3DLAYER
10
371.14809953477
20
450.835505963654
30
0.0
 70
     32
  0
VERTEX
  8
MY3DLAYER
10
372.579916170754
20
453.738942881861
30
0.0
 70
     32
  0
VERTEX
  8
MY3DLAYER
10
374.378457982214
20
456.430650921287
30
0.0
 70
     32
  0
VERTEX
  8
MY3DLAYER
10
376.512951420107
20
458.864574211096
30
0.0
 70
     32
  0
VERTEX
  8
MY3DLAYER
10
374.228743056256
20
458.714859285138
30
0.0
 70
     32
  0
VERTEX
  8
MY3DLAYER
10
371.983618130813
20
458.268276171155
30
0.0
 70
     32
  0
VERTEX
  8
MY3DLAYER
10
369.815991353718
20
457.532466030044
30
0.0
 70
     32
  0
VERTEX
  8
MY3DLAYER
10
367.762951420107
20
456.520018777324
30
0.0
 70
     32
  0
VERTEX
  8
MY3DLAYER
10
365.859626412454
20
455.248257666193
30
0.0
 70
     32
  0
VERTEX
  8
MY3DLAYER
10
364.138582749342
20
453.738942881861
30
0.0
 70
     32
  0
VERTEX
  8
MY3DLAYER
10
362.62926796501
20
452.017899218749
30
0.0
 70
     32
  0
VERTEX
  8
MY3DLAYER
10
361.357506853879
20
450.114574211096
30
0.0
 70
     32
  0
VERTEX
  8
MY3DLAYER
10
360.345059601159
20
448.061534277485
30
0.0
 70
     32
  0
VERTEX
  8
MY3DLAYER
10
359.609249460048
20
445.89390750039
30
0.0
 70
     32
  0
VERTEX
  8
MY3DLAYER
10
359.162666346065
20
443.648782574947
30
0.0
 70
     32
  0
VERTEX
  8
MY3DLAYER
10
359.012951420107
20
441.364574211096
30
0.0
 70
     32
  0
VERTEX
  8
MY3DLAYER
10
359.162666346065
20
439.080365847245
30
0.0
 70
     32
  0
VERTEX
  8
MY3DLAYER
10
359.609249460048
20
436.835240921802
30
0.0
 70
     32
  0
VERTEX
  8
MY3DLAYER
10
360.345059601159
20
434.667614144707
30
0.0
 70
     32
  0
VERTEX
  8
MY3DLAYER
10
361.357506853879
20
432.614574211096
30
0.0
 70
     32
  0
VERTEX
  8
MY3DLAYER
10
362.62926796501
20
430.711249203443
30
0.0
 70
     32
  0
VERTEX
  8
MY3DLAYER
10
364.138582749342
20
428.990205540331
30
0.0
 70
     32
  0
VERTEX
  8
MY3DLAYER
10
365.859626412454
20
427.480890755999
30
0.0
 70
     32
  0
VERTEX
  8
MY3DLAYER
10
367.762951420107
20
426.209129644868
30
0.0
 70
     32
  0
VERTEX
  8
MY3DLAYER
10
369.815991353718
20
425.196682392148
30
0.0
 70
     32
  0
VERTEX
  8
MY3DLAYER
10
371.983618130813
20
424.460872251037
30
0.0
 70
     32
  0
VERTEX
  8
MY3DLAYER
10
374.228743056256
20
424.014289137054
30
0.0
 70
     32
  0
SEQEND
  0
POLYLINE
 8
COMPONENT0
 66
     1
70
    8
 10
0.0
 20
 0.0
 30
0.0
  0
VERTEX
  8
MY3DLAYER
10
376.662666346065
20
426.148782574947
30
0.0
 70
     32
  0
VERTEX
  8
MY3DLAYER
10
376.512951420107
20
423.864574211096
30
0.0
 70
     32
  0
VERTEX
  8
MY3DLAYER
10
378.797159783958
20
424.014289137054
30
0.0
 70
     32
  0
VERTEX
  8
MY3DLAYER
10
381.042284709401
20
424.460872251037
30
0.0
 70
     32
  0
VERTEX
  8
MY3DLAYER
10
383.209911486496
20
425.196682392148
30
0.0
 70
     32
  0
VERTEX
  8
MY3DLAYER
10
385.262951420107
20
426.209129644868
30
0.0
 70
     32
  0
VERTEX
  8
MY3DLAYER
10
387.16627642776
20
427.480890755999
30
0.0
 70
     32
  0
VERTEX
  8
MY3DLAYER
10
388.887320090871
20
428.990205540331
30
0.0
 70
     32
  0
VERTEX
  8
MY3DLAYER
10
390.396634875204
20
430.711249203443
30
0.0
 70
     32
  0
VERTEX
  8
MY3DLAYER
10
391.668395986335
20
432.614574211096
30
0.0
 70
     32
  0
VERTEX
  8
MY3DLAYER
10
392.680843239054
20
434.667614144707
30
0.0
 70
     32
  0
VERTEX
  8
MY3DLAYER
10
393.416653380166
20
436.835240921802
30
0.0
 70
     32
  0
VERTEX
  8
MY3DLAYER
10
393.863236494149
20
439.080365847245
30
0.0
 70
     32
  0
VERTEX
  8
MY3DLAYER
10
394.012951420107
20
441.364574211096
30
0.0
 70
     32
  0
VERTEX
  8
MY3DLAYER
10
391.728743056256
20
441.214859285138
30
0.0
 70
     32
  0
VERTEX
  8
MY3DLAYER
10
389.483618130813
20
440.768276171155
30
0.0
 70
     32
  0
VERTEX
  8
MY3DLAYER
10
387.315991353718
20
440.032466030044
30
0.0
 70
     32
  0
VERTEX
  8
MY3DLAYER
10
385.262951420107
20
439.020018777324
30
0.0
 70
     32
  0
VERTEX
  8
MY3DLAYER
10
383.359626412454
20
437.748257666193
30
0.0
 70
     32
  0
VERTEX
  8
MY3DLAYER
10
381.638582749342
20
436.238942881861
30
0.0
 70
     32
  0
VERTEX
  8
MY3DLAYER
10
380.12926796501
20
434.517899218749
30
0.0
 70
     32
  0
VERTEX
  8
MY3DLAYER
10
378.857506853879
20
432.614574211096
30
0.0
 70
     32
  0
VERTEX
  8
MY3DLAYER
10
377.845059601159
20
430.561534277485
30
0.0
 70
     32
  0
VERTEX
  8
MY3DLAYER
10
377.109249460048
20
428.39390750039
30
0.0
 70
     32
  0
VERTEX
  8
MY3DLAYER
10
376.662666346065
20
426.148782574947
30
0.0
 70
     32
  0
SEQEND
  0
POLYLINE
 8
COMPONENT0
 66
     1
70
    8
 10
0.0
 20
 0.0
 30
0.0
  0
VERTEX
  8
MY3DLAYER
10
409.228743056256
20
424.014289137054
30
0.0
 70
     32
  0
VERTEX
  8
MY3DLAYER
10
411.512951420107
20
423.864574211096
30
0.0
 70
     32
  0
VERTEX
  8
MY3DLAYER
10
411.363236494149
20
426.148782574947
30
0.0
 70
     32
  0
VERTEX
  8
MY3DLAYER
10
410.916653380165
20
428.39390750039
30
0.0
 70
     32
  0
VERTEX
  8
MY3DLAYER
10
410.180843239054
20
430.561534277485
30
0.0
 70
     32
  0
VERTEX
  8
MY3DLAYER
10
409.168395986335
20
432.614574211096
30
0.0
 70
     32
  0
VERTEX
  8
MY3DLAYER
10
407.896634875204
20
434.517899218749
30
0.0
 70
     32
  0
VERTEX
  8
MY3DLAYER
10
406.387320090871
20
436.238942881861
30
0.0
 70
     32
  0
VERTEX
  8
MY3DLAYER
10
404.66627642776
20
437.748257666193
30
0.0
 70
     32
  0
VERTEX
  8
MY3DLAYER
10
402.762951420107
20
439.020018777324
30
0.0
 70
     32
  0
VERTEX
  8
MY3DLAYER
10
400.709911486496
20
440.032466030044
30
0.0
 70
     32
  0
VERTEX
  8
MY3DLAYER
10
398.542284709401
20
440.768276171155
30
0.0
 70
     32
  0
VERTEX
  8
MY3DLAYER
10
396.297159783958
20
441.214859285138
30
0.0
 70
     32
  0
VERTEX
  8
MY3DLAYER
10
394.012951420107
20
441.364574211096
30
0.0
 70
     32
  0
VERTEX
  8
MY3DLAYER
10
394.162666346065
20
439.080365847245
30
0.0
 70
     32
  0
VERTEX
  8
MY3DLAYER
10
394.609249460048
20
436.835240921802
30
0.0
 70
     32
  0
VERTEX
  8
MY3DLAYER
10
395.345059601159
20
434.667614144707
30
0.0
 70
     32
  0
VERTEX
  8
MY3DLAYER
10
396.357506853879
20
432.614574211096
30
0.0
 70
     32
  0
VERTEX
  8
MY3DLAYER
10
397.62926796501
20
430.711249203443
30
0.0
 70
     32
  0
VERTEX
  8
MY3DLAYER
10
399.138582749342
20
428.990205540331
30
0.0
 70
     32
  0
VERTEX
  8
MY3DLAYER
10
400.859626412454
20
427.480890755999
30
0.0
 70
     32
  0
VERTEX
  8
MY3DLAYER
10
402.762951420107
20
426.209129644868
30
0.0
 70
     32
  0
VERTEX
  8
MY3DLAYER
10
404.815991353718
20
425.196682392148
30
0.0
 70
     32
  0
VERTEX
  8
MY3DLAYER
10
406.983618130813
20
424.460872251037
30
0.0
 70
     32
  0
VERTEX
  8
MY3DLAYER
10
409.228743056256
20
424.014289137054
30
0.0
 70
     32
  0
SEQEND
  0
POLYLINE
 8
COMPONENT0
 66
     1
70
    8
 10
0.0
 20
 0.0
 30
0.0
  0
VERTEX
  8
MY3DLAYER
10
413.797159783958
20
424.014289137054
30
0.0
 70
     32
  0
VERTEX
  8
MY3DLAYER
10
411.512951420107
20
423.864574211096
30
0.0
 70
     32
  0
VERTEX
  8
MY3DLAYER
10
411.363236494149
20
421.580365847245
30
0.0
 70
     32
  0
VERTEX
  8
MY3DLAYER
10
410.916653380165
20
419.335240921802
30
0.0
 70
     32
  0
VERTEX
  8
MY3DLAYER
10
410.180843239054
20
417.167614144707
30
0.0
 70
     32
  0
VERTEX
  8
MY3DLAYER
10
409.168395986335
20
415.114574211096
30
0.0
 70
     32
  0
VERTEX
  8
MY3DLAYER
10
407.896634875204
20
413.211249203443
30
0.0
 70
     32
  0
VERTEX
  8
MY3DLAYER
10
406.387320090871
20
411.490205540331
30
0.0
 70
     32
  0
VERTEX
  8
MY3DLAYER
10
404.66627642776
20
409.980890755999
30
0.0
 70
     32
  0
VERTEX
  8
MY3DLAYER
10
402.762951420107
20
408.709129644868
30
0.0
 70
     32
  0
VERTEX
  8
MY3DLAYER
10
400.709911486496
20
407.696682392148
30
0.0
 70
     32
  0
VERTEX
  8
MY3DLAYER
10
398.542284709401
20
406.960872251037
30
0.0
 70
     32
  0
VERTEX
  8
MY3DLAYER
10
396.297159783958
20
406.514289137054
30
0.0
 70
     32
  0
VERTEX
  8
MY3DLAYER
10
400.86557651166
20
406.813718988971
30
0.0
 70
     32
  0
VERTEX
  8
MY3DLAYER
10
407.600951287989
20
408.15346833092
30
0.0
 70
     32
  0
VERTEX
  8
MY3DLAYER
10
414.103831619274
20
410.360898754253
30
0.0
 70
     32
  0
VERTEX
  8
MY3DLAYER
10
420.262951420107
20
413.398240512413
30
0.0
 70
     32
  0
VERTEX
  8
MY3DLAYER
10
421.291818269058
20
414.085707362145
30
0.0
 70
     32
  0
VERTEX
  8
MY3DLAYER
10
421.97928511879
20
415.114574211096
30
0.0
 70
     32
  0
VERTEX
  8
MY3DLAYER
10
425.016626876949
20
421.273694011929
30
0.0
 70
     32
  0
VERTEX
  8
MY3DLAYER
10
427.224057300283
20
427.776574343214
30
0.0
 70
     32
  0
VERTEX
  8
MY3DLAYER
10
428.563806642232
20
434.511949119543
30
0.0
 70
     32
  0
VERTEX
  8
MY3DLAYER
10
428.863236494149
20
439.080365847245
30
0.0
 70
     32
  0
VERTEX
  8
MY3DLAYER
10
428.416653380165
20
436.835240921802
30
0.0
 70
     32
  0
VERTEX
  8
MY3DLAYER
10
427.680843239054
20
434.667614144707
30
0.0
 70
     32
  0
VERTEX
  8
MY3DLAYER
10
426.668395986335
20
432.614574211096
30
0.0
 70
     32
  0
VERTEX
  8
MY3DLAYER
10
425.396634875204
20
430.711249203443
30
0.0
 70
     32
  0
VERTEX
  8
MY3DLAYER
10
423.887320090871
20
428.990205540331
30
0.0
 70
     32
  0
VERTEX
  8
MY3DLAYER
10
422.16627642776
20
427.480890755999
30
0.0
 70
     32
  0
VERTEX
  8
MY3DLAYER
10
420.262951420107
20
426.209129644868
30
0.0
 70
     32
  0
VERTEX
  8
MY3DLAYER
10
418.209911486496
20
425.196682392148
30
0.0
 70
     32
  0
VERTEX
  8
MY3DLAYER
10
416.042284709401
20
424.460872251037
30
0.0
 70
     32
  0
VERTEX
  8
MY3DLAYER
10
413.797159783958
20
424.014289137054
30
0.0
 70
     32
  0
SEQEND
  0
POLYLINE
 8
COMPONENT0
 66
     1
70
    8
 10
0.0
 20
 0.0
 30
0.0
  0
VERTEX
  8
MY3DLAYER
10
411.363236494149
20
421.580365847245
30
0.0
 70
     32
  0
VERTEX
  8
MY3DLAYER
10
411.512951420107
20
423.864574211096
30
0.0
 70
     32
  0
VERTEX
  8
MY3DLAYER
10
409.079028130298
20
421.730080773203
30
0.0
 70
     32
  0
VERTEX
  8
MY3DLAYER
10
406.387320090871
20
419.931538961743
30
0.0
 70
     32
  0
VERTEX
  8
MY3DLAYER
10
403.483883172665
20
418.499722325759
30
0.0
 70
     32
  0
VERTEX
  8
MY3DLAYER
10
400.418395986335
20
417.459129644868
30
0.0
 70
     32
  0
VERTEX
  8
MY3DLAYER
10
397.243309867551
20
416.827565748347
30
0.0
 70
     32
  0
VERTEX
  8
MY3DLAYER
10
394.012951420107
20
416.615836869567
30
0.0
 70
     32
  0
VERTEX
  8
MY3DLAYER
10
390.782592972663
20
416.827565748347
30
0.0
 70
     32
  0
VERTEX
  8
MY3DLAYER
10
387.607506853879
20
417.459129644868
30
0.0
 70
     32
  0
VERTEX
  8
MY3DLAYER
10
384.542019667548
20
418.499722325759
30
0.0
 70
     32
  0
VERTEX
  8
MY3DLAYER
10
381.638582749342
20
419.931538961743
30
0.0
 70
     32
  0
VERTEX
  8
MY3DLAYER
10
378.946874709916
20
421.730080773203
30
0.0
 70
     32
  0
VERTEX
  8
MY3DLAYER
10
376.512951420107
20
423.864574211096
30
0.0
 70
     32
  0
VERTEX
  8
MY3DLAYER
10
376.662666346065
20
421.580365847245
30
0.0
 70
     32
  0
VERTEX
  8
MY3DLAYER
10
377.109249460048
20
419.335240921802
30
0.0
 70
     32
  0
VERTEX
  8
MY3DLAYER
10
377.845059601159
20
417.167614144707
30
0.0
 70
     32
  0
VERTEX
  8
MY3DLAYER
10
378.857506853879
20
415.114574211096
30
0.0
 70
     32
  0
VERTEX
  8
MY3DLAYER
10
380.12926796501
20
413.211249203443
30
0.0
 70
     32
  0
VERTEX
  8
MY3DLAYER
10
381.638582749342
20
411.490205540331
30
0.0
 70
     32
  0
VERTEX
  8
MY3DLAYER
10
383.359626412454
20
409.980890755999
30
0.0
 70
     32
  0
VERTEX
  8
MY3DLAYER
10
385.262951420107
20
408.709129644868
30
0.0
 70
     32
  0
VERTEX
  8
MY3DLAYER
10
387.315991353718
20
407.696682392148
30
0.0
 70
     32
  0
VERTEX
  8
MY3DLAYER
10
389.483618130813
20
406.960872251037
30
0.0
 70
     32
  0
VERTEX
  8
MY3DLAYER
10
391.728743056256
20
406.514289137054
30
0.0
 70
     32
  0
VERTEX
  8
MY3DLAYER
10
394.012951420107
20
406.364574211096
30
0.0
 70
     32
  0
VERTEX
  8
MY3DLAYER
10
396.297159783958
20
406.514289137054
30
0.0
 70
     32
  0
VERTEX
  8
MY3DLAYER
10
398.542284709401
20
406.960872251037
30
0.0
 70
     32
  0
VERTEX
  8
MY3DLAYER
10
400.709911486496
20
407.696682392148
30
0.0
 70
     32
  0
VERTEX
  8
MY3DLAYER
10
402.762951420107
20
408.709129644868
30
0.0
 70
     32
  0
VERTEX
  8
MY3DLAYER
10
404.66627642776
20
409.980890755999
30
0.0
 70
     32
  0
VERTEX
  8
MY3DLAYER
10
406.387320090871
20
411.490205540331
30
0.0
 70
     32
  0
VERTEX
  8
MY3DLAYER
10
407.896634875204
20
413.211249203443
30
0.0
 70
     32
  0
VERTEX
  8
MY3DLAYER
10
409.168395986335
20
415.114574211096
30
0.0
 70
     32
  0
VERTEX
  8
MY3DLAYER
10
410.180843239054
20
417.167614144707
30
0.0
 70
     32
  0
VERTEX
  8
MY3DLAYER
10
410.916653380165
20
419.335240921802
30
0.0
 70
     32
  0
VERTEX
  8
MY3DLAYER
10
411.363236494149
20
421.580365847245
30
0.0
 70
     32
  0
SEQEND
  0
POLYLINE
 8
COMPONENT0
 66
     1
70
    8
 10
0.0
 20
 0.0
 30
0.0
  0
VERTEX
  8
MY3DLAYER
10
411.363236494149
20
426.148782574947
30
0.0
 70
     32
  0
VERTEX
  8
MY3DLAYER
10
411.512951420107
20
423.864574211096
30
0.0
 70
     32
  0
VERTEX
  8
MY3DLAYER
10
413.647444858
20
426.298497500905
30
0.0
 70
     32
  0
VERTEX
  8
MY3DLAYER
10
415.44598666946
20
428.990205540331
30
0.0
 70
     32
  0
VERTEX
  8
MY3DLAYER
10
416.877803305444
20
431.893642458538
30
0.0
 70
     32
  0
VERTEX
  8
MY3DLAYER
10
417.918395986335
20
434.959129644868
30
0.0
 70
     32
  0
VERTEX
  8
MY3DLAYER
10
418.549959882856
20
438.134215763652
30
0.0
 70
     32
  0
VERTEX
  8
MY3DLAYER
10
418.761688761636
20
441.364574211096
30
0.0
 70
     32
  0
VERTEX
  8
MY3DLAYER
10
418.549959882856
20
444.59493265854
30
0.0
 70
     32
  0
VERTEX
  8
MY3DLAYER
10
417.918395986335
20
447.770018777324
30
0.0
 70
     32
  0
VERTEX
  8
MY3DLAYER
10
416.877803305444
20
450.835505963654
30
0.0
 70
     32
  0
VERTEX
  8
MY3DLAYER
10
415.44598666946
20
453.738942881861
30
0.0
 70
     32
  0
VERTEX
  8
MY3DLAYER
10
413.647444857999
20
456.430650921287
30
0.0
 70
     32
  0
VERTEX
  8
MY3DLAYER
10
411.512951420107
20
458.864574211096
30
0.0
 70
     32
  0
VERTEX
  8
MY3DLAYER
10
411.363236494149
20
456.580365847245
30
0.0
 70
     32
  0
VERTEX
  8
MY3DLAYER
10
410.916653380166
20
454.335240921802
30
0.0
 70
     32
  0
VERTEX
  8
MY3DLAYER
10
410.180843239054
20
452.167614144707
30
0.0
 70
     32
  0
VERTEX
  8
MY3DLAYER
10
409.168395986335
20
450.114574211096
30
0.0
 70
     32
  0
VERTEX
  8
MY3DLAYER
10
407.896634875204
20
448.211249203443
30
0.0
 70
     32
  0
VERTEX
  8
MY3DLAYER
10
406.387320090871
20
446.490205540331
30
0.0
 70
     32
  0
VERTEX
  8
MY3DLAYER
10
404.66627642776
20
444.980890755999
30
0.0
 70
     32
  0
VERTEX
  8
MY3DLAYER
10
402.762951420107
20
443.709129644868
30
0.0
 70
     32
  0
VERTEX
  8
MY3DLAYER
10
400.709911486496
20
442.696682392148
30
0.0
 70
     32
  0
VERTEX
  8
MY3DLAYER
10
398.542284709401
20
441.960872251037
30
0.0
 70
     32
  0
VERTEX
  8
MY3DLAYER
10
396.297159783958
20
441.514289137054
30
0.0
 70
     32
  0
VERTEX
  8
MY3DLAYER
10
394.012951420107
20
441.364574211096
30
0.0
 70
     32
  0
VERTEX
  8
MY3DLAYER
10
396.297159783958
20
441.214859285138
30
0.0
 70
     32
  0
VERTEX
  8
MY3DLAYER
10
398.542284709401
20
440.768276171155
30
0.0
 70
     32
  0
VERTEX
  8
MY3DLAYER
10
400.709911486496
20
440.032466030044
30
0.0
 70
     32
  0
VERTEX
  8
MY3DLAYER
10
402.762951420107
20
439.020018777324
30
0.0
 70
     32
  0
VERTEX
  8
MY3DLAYER
10
404.66627642776
20
437.748257666193
30
0.0
 70
     32
  0
VERTEX
  8
MY3DLAYER
10
406.387320090871
20
436.238942881861
30
0.0
 70
     32
  0
VERTEX
  8
MY3DLAYER
10
407.896634875204
20
434.517899218749
30
0.0
 70
     32
  0
VERTEX
  8
MY3DLAYER
10
409.168395986335
20
432.614574211096
30
0.0
 70
     32
  0
VERTEX
  8
MY3DLAYER
10
410.180843239054
20
430.561534277485
30
0.0
 70
     32
  0
VERTEX
  8
MY3DLAYER
10
410.916653380165
20
428.39390750039
30
0.0
 70
     32
  0
VERTEX
  8
MY3DLAYER
10
411.363236494149
20
426.148782574947
30
0.0
 70
     32
  0
SEQEND
  0
POLYLINE
 8
COMPONENT0
 66
     1
70
    8
 10
0.0
 20
 0.0
 30
0.0
  0
VERTEX
  8
MY3DLAYER
10
378.797159783958
20
424.014289137054
30
0.0
 70
     32
  0
VERTEX
  8
MY3DLAYER
10
376.512951420107
20
423.864574211096
30
0.0
 70
     32
  0
VERTEX
  8
MY3DLAYER
10
378.946874709916
20
421.730080773203
30
0.0
 70
     32
  0
VERTEX
  8
MY3DLAYER
10
381.638582749342
20
419.931538961743
30
0.0
 70
     32
  0
VERTEX
  8
MY3DLAYER
10
384.542019667548
20
418.499722325759
30
0.0
 70
     32
  0
VERTEX
  8
MY3DLAYER
10
387.607506853879
20
417.459129644868
30
0.0
 70
     32
  0
VERTEX
  8
MY3DLAYER
10
390.782592972663
20
416.827565748347
30
0.0
 70
     32
  0
VERTEX
  8
MY3DLAYER
10
394.012951420107
20
416.615836869567
30
0.0
 70
     32
  0
VERTEX
  8
MY3DLAYER
10
397.243309867551
20
416.827565748347
30
0.0
 70
     32
  0
VERTEX
  8
MY3DLAYER
10
400.418395986335
20
417.459129644868
30
0.0
 70
     32
  0
VERTEX
  8
MY3DLAYER
10
403.483883172665
20
418.499722325759
30
0.0
 70
     32
  0
VERTEX
  8
MY3DLAYER
10
406.387320090871
20
419.931538961743
30
0.0
 70
     32
  0
VERTEX
  8
MY3DLAYER
10
409.079028130298
20
421.730080773203
30
0.0
 70
     32
  0
VERTEX
  8
MY3DLAYER
10
411.512951420107
20
423.864574211096
30
0.0
 70
     32
  0
VERTEX
  8
MY3DLAYER
10
409.228743056256
20
424.014289137054
30
0.0
 70
     32
  0
VERTEX
  8
MY3DLAYER
10
406.983618130813
20
424.460872251037
30
0.0
 70
     32
  0
VERTEX
  8
MY3DLAYER
10
404.815991353718
20
425.196682392148
30
0.0
 70
     32
  0
VERTEX
  8
MY3DLAYER
10
402.762951420107
20
426.209129644868
30
0.0
 70
     32
  0
VERTEX
  8
MY3DLAYER
10
400.859626412454
20
427.480890755999
30
0.0
 70
     32
  0
VERTEX
  8
MY3DLAYER
10
399.138582749342
20
428.990205540331
30
0.0
 70
     32
  0
VERTEX
  8
MY3DLAYER
10
397.62926796501
20
430.711249203443
30
0.0
 70
     32
  0
VERTEX
  8
MY3DLAYER
10
396.357506853879
20
432.614574211096
30
0.0
 70
     32
  0
VERTEX
  8
MY3DLAYER
10
395.345059601159
20
434.667614144707
30
0.0
 70
     32
  0
VERTEX
  8
MY3DLAYER
10
394.609249460048
20
436.835240921802
30
0.0
 70
     32
  0
VERTEX
  8
MY3DLAYER
10
394.162666346065
20
439.080365847245
30
0.0
 70
     32
  0
VERTEX
  8
MY3DLAYER
10
394.012951420107
20
441.364574211096
30
0.0
 70
     32
  0
VERTEX
  8
MY3DLAYER
10
393.863236494149
20
439.080365847245
30
0.0
 70
     32
  0
VERTEX
  8
MY3DLAYER
10
393.416653380166
20
436.835240921802
30
0.0
 70
     32
  0
VERTEX
  8
MY3DLAYER
10
392.680843239054
20
434.667614144707
30
0.0
 70
     32
  0
VERTEX
  8
MY3DLAYER
10
391.668395986335
20
432.614574211096
30
0.0
 70
     32
  0
VERTEX
  8
MY3DLAYER
10
390.396634875204
20
430.711249203443
30
0.0
 70
     32
  0
VERTEX
  8
MY3DLAYER
10
388.887320090871
20
428.990205540331
30
0.0
 70
     32
  0
VERTEX
  8
MY3DLAYER
10
387.16627642776
20
427.480890755999
30
0.0
 70
     32
  0
VERTEX
  8
MY3DLAYER
10
385.262951420107
20
426.209129644868
30
0.0
 70
     32
  0
VERTEX
  8
MY3DLAYER
10
383.209911486496
20
425.196682392148
30
0.0
 70
     32
  0
VERTEX
  8
MY3DLAYER
10
381.042284709401
20
424.460872251037
30
0.0
 70
     32
  0
VERTEX
  8
MY3DLAYER
10
378.797159783958
20
424.014289137054
30
0.0
 70
     32
  0
SEQEND
  0
POLYLINE
 8
COMPONENT0
 66
     1
70
    8
 10
0.0
 20
 0.0
 30
0.0
  0
VERTEX
  8
MY3DLAYER
10
376.662666346065
20
456.580365847245
30
0.0
 70
     32
  0
VERTEX
  8
MY3DLAYER
10
376.512951420107
20
458.864574211096
30
0.0
 70
     32
  0
VERTEX
  8
MY3DLAYER
10
374.378457982214
20
456.430650921287
30
0.0
 70
     32
  0
VERTEX
  8
MY3DLAYER
10
372.579916170754
20
453.738942881861
30
0.0
 70
     32
  0
VERTEX
  8
MY3DLAYER
10
371.14809953477
20
450.835505963654
30
0.0
 70
     32
  0
VERTEX
  8
MY3DLAYER
10
370.107506853879
20
447.770018777324
30
0.0
 70
     32
  0
VERTEX
  8
MY3DLAYER
10
369.475942957358
20
444.59493265854
30
0.0
 70
     32
  0
VERTEX
  8
MY3DLAYER
10
369.264214078578
20
441.364574211096
30
0.0
 70
     32
  0
VERTEX
  8
MY3DLAYER
10
369.475942957358
20
438.134215763652
30
0.0
 70
     32
  0
VERTEX
  8
MY3DLAYER
10
370.107506853879
20
434.959129644868
30
0.0
 70
     32
  0
VERTEX
  8
MY3DLAYER
10
371.14809953477
20
431.893642458538
30
0.0
 70
     32
  0
VERTEX
  8
MY3DLAYER
10
372.579916170754
20
428.990205540331
30
0.0
 70
     32
  0
VERTEX
  8
MY3DLAYER
10
374.378457982214
20
426.298497500905
30
0.0
 70
     32
  0
VERTEX
  8
MY3DLAYER
10
376.512951420107
20
423.864574211096
30
0.0
 70
     32
  0
VERTEX
  8
MY3DLAYER
10
376.662666346065
20
426.148782574947
30
0.0
 70
     32
  0
VERTEX
  8
MY3DLAYER
10
377.109249460048
20
428.39390750039
30
0.0
 70
     32
  0
VERTEX
  8
MY3DLAYER
10
377.845059601159
20
430.561534277485
30
0.0
 70
     32
  0
VERTEX
  8
MY3DLAYER
10
378.857506853879
20
432.614574211096
30
0.0
 70
     32
  0
VERTEX
  8
MY3DLAYER
10
380.12926796501
20
434.517899218749
30
0.0
 70
     32
  0
VERTEX
  8
MY3DLAYER
10
381.638582749342
20
436.238942881861
30
0.0
 70
     32
  0
VERTEX
  8
MY3DLAYER
10
383.359626412454
20
437.748257666193
30
0.0
 70
     32
  0
VERTEX
  8
MY3DLAYER
10
385.262951420107
20
439.020018777324
30
0.0
 70
     32
  0
VERTEX
  8
MY3DLAYER
10
387.315991353718
20
440.032466030044
30
0.0
 70
     32
  0
VERTEX
  8
MY3DLAYER
10
389.483618130813
20
440.768276171155
30
0.0
 70
     32
  0
VERTEX
  8
MY3DLAYER
10
391.728743056256
20
441.214859285138
30
0.0
 70
     32
  0
VERTEX
  8
MY3DLAYER
10
394.012951420107
20
441.364574211096
30
0.0
 70
     32
  0
VERTEX
  8
MY3DLAYER
10
391.728743056256
20
441.514289137054
30
0.0
 70
     32
  0
VERTEX
  8
MY3DLAYER
10
389.483618130813
20
441.960872251037
30
0.0
 70
     32
  0
VERTEX
  8
MY3DLAYER
10
387.315991353718
20
442.696682392148
30
0.0
 70
     32
  0
VERTEX
  8
MY3DLAYER
10
385.262951420107
20
443.709129644868
30
0.0
 70
     32
  0
VERTEX
  8
MY3DLAYER
10
383.359626412454
20
444.980890755999
30
0.0
 70
     32
  0
VERTEX
  8
MY3DLAYER
10
381.638582749342
20
446.490205540331
30
0.0
 70
     32
  0
VERTEX
  8
MY3DLAYER
10
380.12926796501
20
448.211249203443
30
0.0
 70
     32
  0
VERTEX
  8
MY3DLAYER
10
378.857506853879
20
450.114574211096
30
0.0
 70
     32
  0
VERTEX
  8
MY3DLAYER
10
377.845059601159
20
452.167614144707
30
0.0
 70
     32
  0
VERTEX
  8
MY3DLAYER
10
377.109249460048
20
454.335240921802
30
0.0
 70
     32
  0
VERTEX
  8
MY3DLAYER
10
376.662666346065
20
456.580365847245
30
0.0
 70
     32
  0
SEQEND
  0
POLYLINE
 8
COMPONENT0
 66
     1
70
    8
 10
0.0
 20
 0.0
 30
0.0
  0
VERTEX
  8
MY3DLAYER
10
409.228743056256
20
458.714859285138
30
0.0
 70
     32
  0
VERTEX
  8
MY3DLAYER
10
411.512951420107
20
458.864574211096
30
0.0
 70
     32
  0
VERTEX
  8
MY3DLAYER
10
409.079028130298
20
460.999067648989
30
0.0
 70
     32
  0
VERTEX
  8
MY3DLAYER
10
406.387320090871
20
462.797609460449
30
0.0
 70
     32
  0
VERTEX
  8
MY3DLAYER
10
403.483883172665
20
464.229426096433
30
0.0
 70
     32
  0
VERTEX
  8
MY3DLAYER
10
400.418395986335
20
465.270018777324
30
0.0
 70
     32
  0
VERTEX
  8
MY3DLAYER
10
397.243309867551
20
465.901582673845
30
0.0
 70
     32
  0
VERTEX
  8
MY3DLAYER
10
394.012951420107
20
466.113311552625
30
0.0
 70
     32
  0
VERTEX
  8
MY3DLAYER
10
390.782592972663
20
465.901582673845
30
0.0
 70
     32
  0
VERTEX
  8
MY3DLAYER
10
387.607506853879
20
465.270018777324
30
0.0
 70
     32
  0
VERTEX
  8
MY3DLAYER
10
384.542019667548
20
464.229426096433
30
0.0
 70
     32
  0
VERTEX
  8
MY3DLAYER
10
381.638582749342
20
462.797609460449
30
0.0
 70
     32
  0
VERTEX
  8
MY3DLAYER
10
378.946874709916
20
460.999067648989
30
0.0
 70
     32
  0
VERTEX
  8
MY3DLAYER
10
376.512951420107
20
458.864574211096
30
0.0
 70
     32
  0
VERTEX
  8
MY3DLAYER
10
378.797159783958
20
458.714859285138
30
0.0
 70
     32
  0
VERTEX
  8
MY3DLAYER
10
381.042284709401
20
458.268276171155
30
0.0
 70
     32
  0
VERTEX
  8
MY3DLAYER
10
383.209911486496
20
457.532466030044
30
0.0
 70
     32
  0
VERTEX
  8
MY3DLAYER
10
385.262951420107
20
456.520018777324
30
0.0
 70
     32
  0
VERTEX
  8
MY3DLAYER
10
387.16627642776
20
455.248257666193
30
0.0
 70
     32
  0
VERTEX
  8
MY3DLAYER
10
388.887320090871
20
453.738942881861
30
0.0
 70
     32
  0
VERTEX
  8
MY3DLAYER
10
390.396634875204
20
452.017899218749
30
0.0
 70
     32
  0
VERTEX
  8
MY3DLAYER
10
391.668395986335
20
450.114574211096
30
0.0
 70
     32
  0
VERTEX
  8
MY3DLAYER
10
392.680843239054
20
448.061534277485
30
0.0
 70
     32
  0
VERTEX
  8
MY3DLAYER
10
393.416653380166
20
445.89390750039
30
0.0
 70
     32
  0
VERTEX
  8
MY3DLAYER
10
393.863236494149
20
443.648782574947
30
0.0
 70
     32
  0
VERTEX
  8
MY3DLAYER
10
394.012951420107
20
441.364574211096
30
0.0
 70
     32
  0
VERTEX
  8
MY3DLAYER
10
394.162666346065
20
443.648782574947
30
0.0
 70
     32
  0
VERTEX
  8
MY3DLAYER
10
394.609249460048
20
445.89390750039
30
0.0
 70
     32
  0
VERTEX
  8
MY3DLAYER
10
395.345059601159
20
448.061534277485
30
0.0
 70
     32
  0
VERTEX
  8
MY3DLAYER
10
396.357506853879
20
450.114574211096
30
0.0
 70
     32
  0
VERTEX
  8
MY3DLAYER
10
397.62926796501
20
452.017899218749
30
0.0
 70
     32
  0
VERTEX
  8
MY3DLAYER
10
399.138582749342
20
453.738942881861
30
0.0
 70
     32
  0
VERTEX
  8
MY3DLAYER
10
400.859626412454
20
455.248257666193
30
0.0
 70
     32
  0
VERTEX
  8
MY3DLAYER
10
402.762951420107
20
456.520018777324
30
0.0
 70
     32
  0
VERTEX
  8
MY3DLAYER
10
404.815991353718
20
457.532466030044
30
0.0
 70
     32
  0
VERTEX
  8
MY3DLAYER
10
406.983618130813
20
458.268276171155
30
0.0
 70
     32
  0
VERTEX
  8
MY3DLAYER
10
409.228743056256
20
458.714859285138
30
0.0
 70
     32
  0
SEQEND
  0
POLYLINE
 8
COMPONENT0
 66
     1
70
    8
 10
0.0
 20
 0.0
 30
0.0
  0
VERTEX
  8
MY3DLAYER
10
396.603831619274
20
392.860898754253
30
0.0
 70
     32
  0
VERTEX
  8
MY3DLAYER
10
394.012951420107
20
391.981413436441
30
0.0
 70
     32
  0
VERTEX
  8
MY3DLAYER
10
400.458747355813
20
392.403893222668
30
0.0
 70
     32
  0
VERTEX
  8
MY3DLAYER
10
406.794253935947
20
393.664103835072
30
0.0
 70
     32
  0
VERTEX
  8
MY3DLAYER
10
412.911068886389
20
395.740482720678
30
0.0
 70
     32
  0
VERTEX
  8
MY3DLAYER
10
418.704531807434
20
398.597502461074
30
0.0
 70
     32
  0
VERTEX
  8
MY3DLAYER
10
424.075514942253
20
402.186278656385
30
0.0
 70
     32
  0
VERTEX
  8
MY3DLAYER
10
428.932119280291
20
406.445406350912
30
0.0
 70
     32
  0
VERTEX
  8
MY3DLAYER
10
433.191246974818
20
411.30201068895
30
0.0
 70
     32
  0
VERTEX
  8
MY3DLAYER
10
436.780023170129
20
416.672993823769
30
0.0
 70
     32
  0
VERTEX
  8
MY3DLAYER
10
439.637042910525
20
422.466456744814
30
0.0
 70
     32
  0
VERTEX
  8
MY3DLAYER
10
441.713421796131
20
428.583271695256
30
0.0
 70
     32
  0
VERTEX
  8
MY3DLAYER
10
442.973632408535
20
434.91877827539
30
0.0
 70
     32
  0
VERTEX
  8
MY3DLAYER
10
443.396112194761
20
441.364574211096
30
0.0
 70
     32
  0
VERTEX
  8
MY3DLAYER
10
442.516626876949
20
438.773694011929
30
0.0
 70
     32
  0
VERTEX
  8
MY3DLAYER
10
439.47928511879
20
432.614574211096
30
0.0
 70
     32
  0
VERTEX
  8
MY3DLAYER
10
435.664001785397
20
426.904599188138
30
0.0
 70
     32
  0
VERTEX
  8
MY3DLAYER
10
431.136057432401
20
421.741468198802
30
0.0
 70
     32
  0
VERTEX
  8
MY3DLAYER
10
425.972926443065
20
417.213523845806
30
0.0
 70
     32
  0
VERTEX
  8
MY3DLAYER
10
421.291818269058
20
414.085707362145
30
0.0
 70
     32
  0
VERTEX
  8
MY3DLAYER
10
418.164001785397
20
409.404599188138
30
0.0
 70
     32
  0
VERTEX
  8
MY3DLAYER
10
413.636057432401
20
404.241468198802
30
0.0
 70
     32
  0
VERTEX
  8
MY3DLAYER
10
408.472926443065
20
399.713523845806
30
0.0
 70
     32
  0
VERTEX
  8
MY3DLAYER
10
402.762951420107
20
395.898240512413
30
0.0
 70
     32
  0
VERTEX
  8
MY3DLAYER
10
396.603831619274
20
392.860898754253
30
0.0
 70
     32
  0
SEQEND
  0
POLYLINE
 8
COMPONENT0
 66
     1
70
    8
 10
0.0
 20
 0.0
 30
0.0
  0
VERTEX
  8
MY3DLAYER
10
345.509275963264
20
438.773694011929
30
0.0
 70
     32
  0
VERTEX
  8
MY3DLAYER
10
344.629790645452
20
441.364574211096
30
0.0
 70
     32
  0
VERTEX
  8
MY3DLAYER
10
345.052270431679
20
434.91877827539
30
0.0
 70
     32
  0
VERTEX
  8
MY3DLAYER
10
346.312481044083
20
428.583271695256
30
0.0
 70
     32
  0
VERTEX
  8
MY3DLAYER
10
348.388859929689
20
422.466456744814
30
0.0
 70
     32
  0
VERTEX
  8
MY3DLAYER
10
351.245879670085
20
416.672993823769
30
0.0
 70
     32
  0
VERTEX
  8
MY3DLAYER
10
354.834655865396
20
411.30201068895
30
0.0
 70
     32
  0
VERTEX
  8
MY3DLAYER
10
359.093783559923
20
406.445406350912
30
0.0
 70
     32
  0
VERTEX
  8
MY3DLAYER
10
363.950387897961
20
402.186278656385
30
0.0
 70
     32
  0
VERTEX
  8
MY3DLAYER
10
369.32137103278
20
398.597502461074
30
0.0
 70
     32
  0
VERTEX
  8
MY3DLAYER
10
375.114833953825
20
395.740482720678
30
0.0
 70
     32
  0
VERTEX
  8
MY3DLAYER
10
381.231648904267
20
393.664103835072
30
0.0
 70
     32
  0
VERTEX
  8
MY3DLAYER
10
387.567155484401
20
392.403893222668
30
0.0
 70
     32
  0
VERTEX
  8
MY3DLAYER
10
394.012951420107
20
391.981413436441
30
0.0
 70
     32
  0
VERTEX
  8
MY3DLAYER
10
391.42207122094
20
392.860898754253
30
0.0
 70
     32
  0
VERTEX
  8
MY3DLAYER
10
385.262951420107
20
395.898240512413
30
0.0
 70
     32
  0
VERTEX
  8
MY3DLAYER
10
379.552976397149
20
399.713523845806
30
0.0
 70
     32
  0
VERTEX
  8
MY3DLAYER
10
374.389845407813
20
404.241468198802
30
0.0
 70
     32
  0
VERTEX
  8
MY3DLAYER
10
369.861901054817
20
409.404599188138
30
0.0
 70
     32
  0
VERTEX
  8
MY3DLAYER
10
366.734084571156
20
414.085707362145
30
0.0
 70
     32
  0
VERTEX
  8
MY3DLAYER
10
362.052976397149
20
417.213523845806
30
0.0
 70
     32
  0
VERTEX
  8
MY3DLAYER
10
356.889845407813
20
421.741468198802
30
0.0
 70
     32
  0
VERTEX
  8
MY3DLAYER
10
352.361901054817
20
426.904599188138
30
0.0
 70
     32
  0
VERTEX
  8
MY3DLAYER
10
348.546617721424
20
432.614574211096
30
0.0
 70
     32
  0
VERTEX
  8
MY3DLAYER
10
345.509275963264
20
438.773694011929
30
0.0
 70
     32
  0
SEQEND
  0
POLYLINE
 8
COMPONENT0
 66
     1
70
    8
 10
0.0
 20
 0.0
 30
0.0
  0
VERTEX
  8
MY3DLAYER
10
391.42207122094
20
489.868249667939
30
0.0
 70
     32
  0
VERTEX
  8
MY3DLAYER
10
394.012951420107
20
490.747734985751
30
0.0
 70
     32
  0
VERTEX
  8
MY3DLAYER
10
387.567155484401
20
490.325255199524
30
0.0
 70
     32
  0
VERTEX
  8
MY3DLAYER
10
381.231648904266
20
489.06504458712
30
0.0
 70
     32
  0
VERTEX
  8
MY3DLAYER
10
375.114833953825
20
486.988665701514
30
0.0
 70
     32
  0
VERTEX
  8
MY3DLAYER
10
369.32137103278
20
484.131645961118
30
0.0
 70
     32
  0
VERTEX
  8
MY3DLAYER
10
363.950387897961
20
480.542869765807
30
0.0
 70
     32
  0
VERTEX
  8
MY3DLAYER
10
359.093783559923
20
476.28374207128
30
0.0
 70
     32
  0
VERTEX
  8
MY3DLAYER
10
354.834655865395
20
471.427137733242
30
0.0
 70
     32
  0
VERTEX
  8
MY3DLAYER
10
351.245879670085
20
466.056154598423
30
0.0
 70
     32
  0
VERTEX
  8
MY3DLAYER
10
348.388859929689
20
460.262691677378
30
0.0
 70
     32
  0
VERTEX
  8
MY3DLAYER
10
346.312481044083
20
454.145876726936
30
0.0
 70
     32
  0
VERTEX
  8
MY3DLAYER
10
345.052270431679
20
447.810370146802
30
0.0
 70
     32
  0
VERTEX
  8
MY3DLAYER
10
344.629790645452
20
441.364574211096
30
0.0
 70
     32
  0
VERTEX
  8
MY3DLAYER
10
345.509275963264
20
443.955454410263
30
0.0
 70
     32
  0
VERTEX
  8
MY3DLAYER
10
348.546617721424
20
450.114574211096
30
0.0
 70
     32
  0
VERTEX
  8
MY3DLAYER
10
352.361901054817
20
455.824549234054
30
0.0
 70
     32
  0
VERTEX
  8
MY3DLAYER
10
356.889845407813
20
460.98768022339
30
0.0
 70
     32
  0
VERTEX
  8
MY3DLAYER
10
362.052976397149
20
465.515624576386
30
0.0
 70
     32
  0
VERTEX
  8
MY3DLAYER
10
366.734084571156
20
468.643441060047
30
0.0
 70
     32
  0
VERTEX
  8
MY3DLAYER
10
369.861901054817
20
473.324549234054
30
0.0
 70
     32
  0
VERTEX
  8
MY3DLAYER
10
374.389845407813
20
478.48768022339
30
0.0
 70
     32
  0
VERTEX
  8
MY3DLAYER
10
379.552976397149
20
483.015624576386
30
0.0
 70
     32
  0
VERTEX
  8
MY3DLAYER
10
385.262951420107
20
486.830907909779
30
0.0
 70
     32
  0
VERTEX
  8
MY3DLAYER
10
391.42207122094
20
489.868249667939
30
0.0
 70
     32
  0
SEQEND
  0
POLYLINE
 8
COMPONENT0
 66
     1
70
    8
 10
0.0
 20
 0.0
 30
0.0
  0
VERTEX
  8
MY3DLAYER
10
442.516626876949
20
443.955454410263
30
0.0
 70
     32
  0
VERTEX
  8
MY3DLAYER
10
443.396112194761
20
441.364574211096
30
0.0
 70
     32
  0
VERTEX
  8
MY3DLAYER
10
442.973632408535
20
447.810370146802
30
0.0
 70
     32
  0
VERTEX
  8
MY3DLAYER
10
441.713421796131
20
454.145876726936
30
0.0
 70
     32
  0
VERTEX
  8
MY3DLAYER
10
439.637042910525
20
460.262691677378
30
0.0
 70
     32
  0
VERTEX
  8
MY3DLAYER
10
436.780023170129
20
466.056154598423
30
0.0
 70
     32
  0
VERTEX
  8
MY3DLAYER
10
433.191246974818
20
471.427137733242
30
0.0
 70
     32
  0
VERTEX
  8
MY3DLAYER
10
428.932119280291
20
476.28374207128
30
0.0
 70
     32
  0
VERTEX
  8
MY3DLAYER
10
424.075514942253
20
480.542869765807
30
0.0
 70
     32
  0
VERTEX
  8
MY3DLAYER
10
418.704531807434
20
484.131645961118
30
0.0
 70
     32
  0
VERTEX
  8
MY3DLAYER
10
412.911068886389
20
486.988665701514
30
0.0
 70
     32
  0
VERTEX
  8
MY3DLAYER
10
406.794253935947
20
489.06504458712
30
0.0
 70
     32
  0
VERTEX
  8
MY3DLAYER
10
400.458747355813
20
490.325255199524
30
0.0
 70
     32
  0
VERTEX
  8
MY3DLAYER
10
394.012951420107
20
490.747734985751
30
0.0
 70
     32
  0
VERTEX
  8
MY3DLAYER
10
396.603831619274
20
489.868249667939
30
0.0
 70
     32
  0
VERTEX
  8
MY3DLAYER
10
402.762951420107
20
486.830907909779
30
0.0
 70
     32
  0
VERTEX
  8
MY3DLAYER
10
408.472926443065
20
483.015624576386
30
0.0
 70
     32
  0
VERTEX
  8
MY3DLAYER
10
413.636057432401
20
478.48768022339
30
0.0
 70
     32
  0
VERTEX
  8
MY3DLAYER
10
418.164001785397
20
473.324549234054
30
0.0
 70
     32
  0
VERTEX
  8
MY3DLAYER
10
421.291818269058
20
468.643441060047
30
0.0
 70
     32
  0
VERTEX
  8
MY3DLAYER
10
425.972926443065
20
465.515624576386
30
0.0
 70
     32
  0
VERTEX
  8
MY3DLAYER
10
431.136057432401
20
460.98768022339
30
0.0
 70
     32
  0
VERTEX
  8
MY3DLAYER
10
435.664001785397
20
455.824549234054
30
0.0
 70
     32
  0
VERTEX
  8
MY3DLAYER
10
439.47928511879
20
450.114574211096
30
0.0
 70
     32
  0
VERTEX
  8
MY3DLAYER
10
442.516626876949
20
443.955454410263
30
0.0
 70
     32
  0
SEQEND
  0
POLYLINE
 8
COMPONENT0
 66
     1
70
    8
 10
0.0
 20
 0.0
 30
0.0
  0
VERTEX
  8
MY3DLAYER
10
350.262951420107
20
395.898240512413
30
0.0
 70
     32
  0
VERTEX
  8
MY3DLAYER
10
349.234084571156
20
396.585707362145
30
0.0
 70
     32
  0
VERTEX
  8
MY3DLAYER
10
355.461988966295
20
391.123981793839
30
0.0
 70
     32
  0
VERTEX
  8
MY3DLAYER
10
362.349511017364
20
386.521886691117
30
0.0
 70
     32
  0
VERTEX
  8
MY3DLAYER
10
369.778803312489
20
382.858165177126
30
0.0
 70
     32
  0
VERTEX
  8
MY3DLAYER
10
377.62274860071
20
380.195504542748
30
0.0
 70
     32
  0
VERTEX
  8
MY3DLAYER
10
385.747134803394
20
378.579463649666
30
0.0
 70
     32
  0
VERTEX
  8
MY3DLAYER
10
394.012951420107
20
378.037693405611
30
0.0
 70
     32
  0
VERTEX
  8
MY3DLAYER
10
402.27876803682
20
378.579463649666
30
0.0
 70
     32
  0
VERTEX
  8
MY3DLAYER
10
410.403154239504
20
380.195504542748
30
0.0
 70
     32
  0
VERTEX
  8
MY3DLAYER
10
418.247099527725
20
382.858165177126
30
0.0
 70
     32
  0
VERTEX
  8
MY3DLAYER
10
425.676391822849
20
386.521886691117
30
0.0
 70
     32
  0
VERTEX
  8
MY3DLAYER
10
432.563913873919
20
391.12398179384
30
0.0
 70
     32
  0
VERTEX
  8
MY3DLAYER
10
438.791818269058
20
396.585707362145
30
0.0
 70
     32
  0
VERTEX
  8
MY3DLAYER
10
437.762951420107
20
395.898240512413
30
0.0
 70
     32
  0
VERTEX
  8
MY3DLAYER
10
431.603831619274
20
392.860898754253
30
0.0
 70
     32
  0
VERTEX
  8
MY3DLAYER
10
425.100951287989
20
390.65346833092
30
0.0
 70
     32
  0
VERTEX
  8
MY3DLAYER
10
418.36557651166
20
389.313718988971
30
0.0
 70
     32
  0
VERTEX
  8
MY3DLAYER
10
411.512951420107
20
388.864574211096
30
0.0
 70
     32
  0
VERTEX
  8
MY3DLAYER
10
404.660326328554
20
389.313718988971
30
0.0
 70
     32
  0
VERTEX
  8
MY3DLAYER
10
397.924951552225
20
390.65346833092
30
0.0
 70
     32
  0
VERTEX
  8
MY3DLAYER
10
394.012951420107
20
391.981413436441
30
0.0
 70
     32
  0
VERTEX
  8
MY3DLAYER
10
390.100951287989
20
390.65346833092
30
0.0
 70
     32
  0
VERTEX
  8
MY3DLAYER
10
383.36557651166
20
389.313718988971
30
0.0
 70
     32
  0
VERTEX
  8
MY3DLAYER
10
376.512951420107
20
388.864574211096
30
0.0
 70
     32
  0
VERTEX
  8
MY3DLAYER
10
369.660326328554
20
389.313718988971
30
0.0
 70
     32
  0
VERTEX
  8
MY3DLAYER
10
362.924951552225
20
390.65346833092
30
0.0
 70
     32
  0
VERTEX
  8
MY3DLAYER
10
356.42207122094
20
392.860898754253
30
0.0
 70
     32
  0
VERTEX
  8
MY3DLAYER
10
350.262951420107
20
395.898240512413
30
0.0
 70
     32
  0
SEQEND
  0
POLYLINE
 8
COMPONENT0
 66
     1
70
    8
 10
0.0
 20
 0.0
 30
0.0
  0
VERTEX
  8
MY3DLAYER
10
439.47928511879
20
397.614574211096
30
0.0
 70
     32
  0
VERTEX
  8
MY3DLAYER
10
438.791818269058
20
396.585707362145
30
0.0
 70
     32
  0
VERTEX
  8
MY3DLAYER
10
444.253543837363
20
402.813611757284
30
0.0
 70
     32
  0
VERTEX
  8
MY3DLAYER
10
448.855638940086
20
409.701133808353
30
0.0
 70
     32
  0
VERTEX
  8
MY3DLAYER
10
452.519360454076
20
417.130426103478
30
0.0
 70
     32
  0
VERTEX
  8
MY3DLAYER
10
455.182021088455
20
424.974371391699
30
0.0
 70
     32
  0
VERTEX
  8
MY3DLAYER
10
456.798061981537
20
433.098757594383
30
0.0
 70
     32
  0
VERTEX
  8
MY3DLAYER
10
457.339832225592
20
441.364574211096
30
0.0
 70
     32
  0
VERTEX
  8
MY3DLAYER
10
456.798061981537
20
449.630390827809
30
0.0
 70
     32
  0
VERTEX
  8
MY3DLAYER
10
455.182021088455
20
457.754777030493
30
0.0
 70
     32
  0
VERTEX
  8
MY3DLAYER
10
452.519360454076
20
465.598722318714
30
0.0
 70
     32
  0
VERTEX
  8
MY3DLAYER
10
448.855638940086
20
473.028014613839
30
0.0
 70
     32
  0
VERTEX
  8
MY3DLAYER
10
444.253543837363
20
479.915536664908
30
0.0
 70
     32
  0
VERTEX
  8
MY3DLAYER
10
438.791818269058
20
486.143441060047
30
0.0
 70
     32
  0
VERTEX
  8
MY3DLAYER
10
439.47928511879
20
485.114574211096
30
0.0
 70
     32
  0
VERTEX
  8
MY3DLAYER
10
442.516626876949
20
478.955454410263
30
0.0
 70
     32
  0
VERTEX
  8
MY3DLAYER
10
444.724057300283
20
472.452574078978
30
0.0
 70
     32
  0
VERTEX
  8
MY3DLAYER
10
446.063806642232
20
465.717199302649
30
0.0
 70
     32
  0
VERTEX
  8
MY3DLAYER
10
446.512951420107
20
458.864574211096
30
0.0
 70
     32
  0
VERTEX
  8
MY3DLAYER
10
446.063806642232
20
452.011949119543
30
0.0
 70
     32
  0
VERTEX
  8
MY3DLAYER
10
444.724057300283
20
445.276574343214
30
0.0
 70
     32
  0
VERTEX
  8
MY3DLAYER
10
443.396112194761
20
441.364574211096
30
0.0
 70
     32
  0
VERTEX
  8
MY3DLAYER
10
444.724057300283
20
437.452574078978
30
0.0
 70
     32
  0
VERTEX
  8
MY3DLAYER
10
446.063806642232
20
430.717199302649
30
0.0
 70
     32
  0
VERTEX
  8
MY3DLAYER
10
446.512951420107
20
423.864574211096
30
0.0
 70
     32
  0
VERTEX
  8
MY3DLAYER
10
446.063806642232
20
417.011949119543
30
0.0
 70
     32
  0
VERTEX
  8
MY3DLAYER
10
444.724057300283
20
410.276574343214
30
0.0
 70
     32
  0
VERTEX
  8
MY3DLAYER
10
442.516626876949
20
403.773694011929
30
0.0
 70
     32
  0
VERTEX
  8
MY3DLAYER
10
439.47928511879
20
397.614574211096
30
0.0
 70
     32
  0
SEQEND
  0
POLYLINE
 8
COMPONENT0
 66
     1
70
    8
 10
0.0
 20
 0.0
 30
0.0
  0
VERTEX
  8
MY3DLAYER
10
348.546617721424
20
485.114574211096
30
0.0
 70
     32
  0
VERTEX
  8
MY3DLAYER
10
349.234084571156
20
486.143441060047
30
0.0
 70
     32
  0
VERTEX
  8
MY3DLAYER
10
343.77235900285
20
479.915536664908
30
0.0
 70
     32
  0
VERTEX
  8
MY3DLAYER
10
339.170263900128
20
473.028014613839
30
0.0
 70
     32
  0
VERTEX
  8
MY3DLAYER
10
335.506542386137
20
465.598722318714
30
0.0
 70
     32
  0
VERTEX
  8
MY3DLAYER
10
332.843881751759
20
457.754777030493
30
0.0
 70
     32
  0
VERTEX
  8
MY3DLAYER
10
331.227840858677
20
449.630390827809
30
0.0
 70
     32
  0
VERTEX
  8
MY3DLAYER
10
330.686070614622
20
441.364574211096
30
0.0
 70
     32
  0
VERTEX
  8
MY3DLAYER
10
331.227840858677
20
433.098757594383
30
0.0
 70
     32
  0
VERTEX
  8
MY3DLAYER
10
332.843881751759
20
424.974371391699
30
0.0
 70
     32
  0
VERTEX
  8
MY3DLAYER
10
335.506542386137
20
417.130426103478
30
0.0
 70
     32
  0
VERTEX
  8
MY3DLAYER
10
339.170263900128
20
409.701133808353
30
0.0
 70
     32
  0
VERTEX
  8
MY3DLAYER
10
343.77235900285
20
402.813611757284
30
0.0
 70
     32
  0
VERTEX
  8
MY3DLAYER
10
349.234084571156
20
396.585707362145
30
0.0
 70
     32
  0
VERTEX
  8
MY3DLAYER
10
348.546617721424
20
397.614574211096
30
0.0
 70
     32
  0
VERTEX
  8
MY3DLAYER
10
345.509275963264
20
403.773694011929
30
0.0
 70
     32
  0
VERTEX
  8
MY3DLAYER
10
343.301845539931
20
410.276574343214
30
0.0
 70
     32
  0
VERTEX
  8
MY3DLAYER
10
341.962096197982
20
417.011949119543
30
0.0
 70
     32
  0
VERTEX
  8
MY3DLAYER
10
341.512951420107
20
423.864574211096
30
0.0
 70
     32
  0
VERTEX
  8
MY3DLAYER
10
341.962096197982
20
430.717199302649
30
0.0
 70
     32
  0
VERTEX
  8
MY3DLAYER
10
343.301845539931
20
437.452574078978
30
0.0
 70
     32
  0
VERTEX
  8
MY3DLAYER
10
344.629790645452
20
441.364574211096
30
0.0
 70
     32
  0
VERTEX
  8
MY3DLAYER
10
343.301845539931
20
445.276574343214
30
0.0
 70
     32
  0
VERTEX
  8
MY3DLAYER
10
341.962096197982
20
452.011949119543
30
0.0
 70
     32
  0
VERTEX
  8
MY3DLAYER
10
341.512951420107
20
458.864574211096
30
0.0
 70
     32
  0
VERTEX
  8
MY3DLAYER
10
341.962096197982
20
465.717199302649
30
0.0
 70
     32
  0
VERTEX
  8
MY3DLAYER
10
343.301845539931
20
472.452574078978
30
0.0
 70
     32
  0
VERTEX
  8
MY3DLAYER
10
345.509275963264
20
478.955454410263
30
0.0
 70
     32
  0
VERTEX
  8
MY3DLAYER
10
348.546617721424
20
485.114574211096
30
0.0
 70
     32
  0
SEQEND
  0
POLYLINE
 8
COMPONENT0
 66
     1
70
    8
 10
0.0
 20
 0.0
 30
0.0
  0
VERTEX
  8
MY3DLAYER
10
437.762951420107
20
486.830907909779
30
0.0
 70
     32
  0
VERTEX
  8
MY3DLAYER
10
438.791818269058
20
486.143441060047
30
0.0
 70
     32
  0
VERTEX
  8
MY3DLAYER
10
432.563913873919
20
491.605166628353
30
0.0
 70
     32
  0
VERTEX
  8
MY3DLAYER
10
425.676391822849
20
496.207261731075
30
0.0
 70
     32
  0
VERTEX
  8
MY3DLAYER
10
418.247099527725
20
499.870983245066
30
0.0
 70
     32
  0
VERTEX
  8
MY3DLAYER
10
410.403154239504
20
502.533643879444
30
0.0
 70
     32
  0
VERTEX
  8
MY3DLAYER
10
402.27876803682
20
504.149684772526
30
0.0
 70
     32
  0
VERTEX
  8
MY3DLAYER
10
394.012951420107
20
504.691455016581
30
0.0
 70
     32
  0
VERTEX
  8
MY3DLAYER
10
385.747134803394
20
504.149684772526
30
0.0
 70
     32
  0
VERTEX
  8
MY3DLAYER
10
377.62274860071
20
502.533643879444
30
0.0
 70
     32
  0
VERTEX
  8
MY3DLAYER
10
369.778803312489
20
499.870983245066
30
0.0
 70
     32
  0
VERTEX
  8
MY3DLAYER
10
362.349511017364
20
496.207261731075
30
0.0
 70
     32
  0
VERTEX
  8
MY3DLAYER
10
355.461988966295
20
491.605166628353
30
0.0
 70
     32
  0
VERTEX
  8
MY3DLAYER
10
349.234084571156
20
486.143441060047
30
0.0
 70
     32
  0
VERTEX
  8
MY3DLAYER
10
350.262951420107
20
486.830907909779
30
0.0
 70
     32
  0
VERTEX
  8
MY3DLAYER
10
356.42207122094
20
489.868249667939
30
0.0
 70
     32
  0
VERTEX
  8
MY3DLAYER
10
362.924951552225
20
492.075680091272
30
0.0
 70
     32
  0
VERTEX
  8
MY3DLAYER
10
369.660326328554
20
493.415429433221
30
0.0
 70
     32
  0
VERTEX
  8
MY3DLAYER
10
376.512951420107
20
493.864574211096
30
0.0
 70
     32
  0
VERTEX
  8
MY3DLAYER
10
383.36557651166
20
493.415429433221
30
0.0
 70
     32
  0
VERTEX
  8
MY3DLAYER
10
390.100951287989
20
492.075680091272
30
0.0
 70
     32
  0
VERTEX
  8
MY3DLAYER
10
394.012951420107
20
490.747734985751
30
0.0
 70
     32
  0
VERTEX
  8
MY3DLAYER
10
397.924951552225
20
492.075680091272
30
0.0
 70
     32
  0
VERTEX
  8
MY3DLAYER
10
404.660326328554
20
493.415429433221
30
0.0
 70
     32
  0
VERTEX
  8
MY3DLAYER
10
411.512951420107
20
493.864574211096
30
0.0
 70
     32
  0
VERTEX
  8
MY3DLAYER
10
418.36557651166
20
493.415429433221
30
0.0
 70
     32
  0
VERTEX
  8
MY3DLAYER
10
425.100951287989
20
492.075680091272
30
0.0
 70
     32
  0
VERTEX
  8
MY3DLAYER
10
431.603831619274
20
489.868249667939
30
0.0
 70
     32
  0
VERTEX
  8
MY3DLAYER
10
437.762951420107
20
486.830907909779
30
0.0
 70
     32
  0
SEQEND
 0
ENDSEC
 0
EOF
