solid mini-table-basse
facet normal 1.0 -2.60609553624269e-030 -6.24731036133687e-014
outer loop
vertex 337.418163484249 -2.22148850439157 0.0
vertex 337.41816348425 23.7785114956076 13.0
vertex 337.41816348425 -2.22148850439238 13.0
endloop
endfacet
facet normal 1.0 -2.60609553624269e-030 -6.24731036133687e-014
outer loop
vertex 337.41816348425 23.7785114956076 13.0
vertex 337.418163484249 -2.22148850439157 0.0
vertex 337.418163484249 23.7785114956084 0.0
endloop
endfacet
facet normal -6.24731036133693e-014 6.24731036133688e-014 -1.0
outer loop
vertex 337.418163484249 23.7785114956084 0.0
vertex 311.41816348425 -2.22148850439157 0.0
vertex 311.41816348425 23.7785114956084 3.24860138789518e-012
endloop
endfacet
facet normal -6.24731036133693e-014 6.24731036133688e-014 -1.0
outer loop
vertex 311.41816348425 -2.22148850439157 0.0
vertex 337.418163484249 23.7785114956084 0.0
vertex 337.418163484249 -2.22148850439157 0.0
endloop
endfacet
facet normal 7.80507370437876e-027 1.0 6.24731036133687e-014
outer loop
vertex 311.41816348425 23.7785114956084 3.24860138789518e-012
vertex 337.41816348425 23.7785114956076 13.0
vertex 337.418163484249 23.7785114956084 0.0
endloop
endfacet
facet normal 7.80507370437876e-027 1.0 6.24731036133687e-014
outer loop
vertex 337.41816348425 23.7785114956076 13.0
vertex 311.41816348425 23.7785114956084 3.24860138789518e-012
vertex 311.41816348425 23.7785114956076 13.0000000000033
endloop
endfacet
facet normal -7.03645794793453e-031 -1.0 -6.24731036133687e-014
outer loop
vertex 337.41816348425 -2.22148850439238 13.0
vertex 311.41816348425 -2.22148850439157 0.0
vertex 337.418163484249 -2.22148850439157 0.0
endloop
endfacet
facet normal -7.03645794793453e-031 -1.0 -6.24731036133687e-014
outer loop
vertex 311.41816348425 -2.22148850439157 0.0
vertex 337.41816348425 -2.22148850439238 13.0
vertex 311.41816348425 -2.22148850439238 13.0
endloop
endfacet
facet normal -1.0 -7.80838344570967e-027 6.24731036133687e-014
outer loop
vertex 311.41816348425 23.7785114956076 13.0000000000033
vertex 311.41816348425 -2.22148850439157 0.0
vertex 311.41816348425 -2.22148850439238 13.0
endloop
endfacet
facet normal -1.0 -7.80838344570967e-027 6.24731036133687e-014
outer loop
vertex 311.41816348425 -2.22148850439157 0.0
vertex 311.41816348425 23.7785114956076 13.0000000000033
vertex 311.41816348425 23.7785114956084 3.24860138789518e-012
endloop
endfacet
facet normal 6.31672492090735e-014 -6.31672492090729e-014 1.0
outer loop
vertex 334.41816348425 0.778511495608241 3.00000000000022
vertex 314.41816348425 20.7785114956083 3.00000000000275
vertex 314.41816348425 0.778511495608241 3.00000000000022
endloop
endfacet
facet normal 6.31672492090735e-014 -6.31672492090729e-014 1.0
outer loop
vertex 314.41816348425 20.7785114956083 3.00000000000275
vertex 334.41816348425 0.778511495608241 3.00000000000022
vertex 334.41816348425 20.7785114956083 3.00000000000022
endloop
endfacet
facet normal 6.24731036133692e-014 -6.24731036133688e-014 1.0
outer loop
vertex 311.41816348425 -2.22148850439238 13.0
vertex 314.41816348425 0.778511495607617 13.0000000000002
vertex 311.41816348425 23.7785114956076 13.0000000000033
endloop
endfacet
facet normal 6.24731036133692e-014 -6.24731036133688e-014 1.0
outer loop
vertex 314.41816348425 0.778511495607617 13.0000000000002
vertex 311.41816348425 -2.22148850439238 13.0
vertex 337.41816348425 -2.22148850439238 13.0
endloop
endfacet
facet normal 6.24731036133692e-014 -6.24731036133688e-014 1.0
outer loop
vertex 314.41816348425 0.778511495607617 13.0000000000002
vertex 337.41816348425 -2.22148850439238 13.0
vertex 334.41816348425 0.778511495607617 13.0000000000002
endloop
endfacet
facet normal 6.24731036133692e-014 -6.24731036133688e-014 1.0
outer loop
vertex 334.41816348425 0.778511495607617 13.0000000000002
vertex 337.41816348425 -2.22148850439238 13.0
vertex 334.41816348425 20.7785114956076 13.0000000000002
endloop
endfacet
facet normal 6.24731036133692e-014 -6.24731036133688e-014 1.0
outer loop
vertex 311.41816348425 23.7785114956076 13.0000000000033
vertex 314.41816348425 20.7785114956076 13.0000000000027
vertex 337.41816348425 23.7785114956076 13.0
endloop
endfacet
facet normal 6.24731036133692e-014 -6.24731036133688e-014 1.0
outer loop
vertex 314.41816348425 20.7785114956076 13.0000000000027
vertex 311.41816348425 23.7785114956076 13.0000000000033
vertex 314.41816348425 0.778511495607617 13.0000000000002
endloop
endfacet
facet normal 6.24731036133692e-014 -6.24731036133688e-014 1.0
outer loop
vertex 337.41816348425 23.7785114956076 13.0
vertex 314.41816348425 20.7785114956076 13.0000000000027
vertex 334.41816348425 20.7785114956076 13.0000000000002
endloop
endfacet
facet normal 6.24731036133692e-014 -6.24731036133688e-014 1.0
outer loop
vertex 337.41816348425 23.7785114956076 13.0
vertex 334.41816348425 20.7785114956076 13.0000000000002
vertex 337.41816348425 -2.22148850439238 13.0
endloop
endfacet
facet normal 1.0 7.89250820961984e-027 -6.24731036133692e-014
outer loop
vertex 314.41816348425 0.778511495608241 3.00000000000022
vertex 314.41816348425 20.7785114956076 13.0000000000027
vertex 314.41816348425 0.778511495607617 13.0000000000002
endloop
endfacet
facet normal 1.0 7.89250820961984e-027 -6.24731036133692e-014
outer loop
vertex 314.41816348425 20.7785114956076 13.0000000000027
vertex 314.41816348425 0.778511495608241 3.00000000000022
vertex 314.41816348425 20.7785114956083 3.00000000000275
endloop
endfacet
facet normal -7.89250820961987e-027 -1.0 -6.24731036133688e-014
outer loop
vertex 334.41816348425 20.7785114956076 13.0000000000002
vertex 314.41816348425 20.7785114956083 3.00000000000275
vertex 334.41816348425 20.7785114956083 3.00000000000022
endloop
endfacet
facet normal -7.89250820961987e-027 -1.0 -6.24731036133688e-014
outer loop
vertex 314.41816348425 20.7785114956083 3.00000000000275
vertex 334.41816348425 20.7785114956076 13.0000000000002
vertex 314.41816348425 20.7785114956076 13.0000000000027
endloop
endfacet
facet normal -1.0 0.0 6.24731036133692e-014
outer loop
vertex 334.41816348425 20.7785114956076 13.0000000000002
vertex 334.41816348425 0.778511495608241 3.00000000000022
vertex 334.41816348425 0.778511495607617 13.0000000000002
endloop
endfacet
facet normal -1.0 0.0 6.24731036133692e-014
outer loop
vertex 334.41816348425 0.778511495608241 3.00000000000022
vertex 334.41816348425 20.7785114956076 13.0000000000002
vertex 334.41816348425 20.7785114956083 3.00000000000022
endloop
endfacet
facet normal 0.0 1.0 6.24731036133688e-014
outer loop
vertex 314.41816348425 0.778511495607617 13.0000000000002
vertex 334.41816348425 0.778511495608241 3.00000000000022
vertex 314.41816348425 0.778511495608241 3.00000000000022
endloop
endfacet
facet normal 0.0 1.0 6.24731036133688e-014
outer loop
vertex 334.41816348425 0.778511495608241 3.00000000000022
vertex 314.41816348425 0.778511495607617 13.0000000000002
vertex 334.41816348425 0.778511495607617 13.0000000000002
endloop
endfacet
endsolid mini-table-basse
