<?xml version="1.0" encoding="UTF-8" standalone="no"?>
<svg
   xmlns:dc="http://purl.org/dc/elements/1.1/"
   xmlns:cc="http://creativecommons.org/ns#"
   xmlns:rdf="http://www.w3.org/1999/02/22-rdf-syntax-ns#"
   xmlns:svg="http://www.w3.org/2000/svg"
   xmlns="http://www.w3.org/2000/svg"
   xmlns:sodipodi="http://sodipodi.sourceforge.net/DTD/sodipodi-0.dtd"
   xmlns:inkscape="http://www.inkscape.org/namespaces/inkscape"
   sodipodi:docname="horloge.svg"
   inkscape:version="1.0 (6e3e5246a0, 2020-05-07)"
   id="svg8"
   version="1.1"
   viewBox="0 0 1000 610"
   height="610mm"
   width="1000mm">
  <defs
     id="defs2">
    <inkscape:path-effect
       effect="mirror_symmetry"
       start_point="117.50015,0.00030658577"
       end_point="117.50015,208.00031"
       center_point="117.50015,104.00031"
       id="path-effect924"
       is_visible="true"
       lpeversion="1"
       mode="free"
       discard_orig_path="false"
       fuse_paths="false"
       oposite_fuse="false"
       split_items="false" />
    <inkscape:path-effect
       split_items="false"
       oposite_fuse="false"
       fuse_paths="false"
       discard_orig_path="false"
       mode="free"
       lpeversion="1"
       is_visible="false"
       id="path-effect862"
       center_point="117.50015,104.00031"
       end_point="117.50015,208.00031"
       start_point="117.50015,0.00030658577"
       effect="mirror_symmetry" />
    <inkscape:path-effect
       effect="mirror_symmetry"
       start_point="117.50015,0.00030658577"
       end_point="117.50015,208.00031"
       center_point="117.50015,104.00031"
       id="path-effect833"
       is_visible="false"
       lpeversion="1"
       mode="free"
       discard_orig_path="false"
       fuse_paths="false"
       oposite_fuse="false"
       split_items="false" />
  </defs>
  <sodipodi:namedview
     inkscape:window-maximized="1"
     inkscape:window-y="27"
     inkscape:window-x="65"
     inkscape:window-height="1097"
     inkscape:window-width="1983"
     showgrid="false"
     inkscape:document-rotation="0"
     inkscape:current-layer="layer2"
     inkscape:document-units="mm"
     inkscape:cy="513.99791"
     inkscape:cx="420.8618"
     inkscape:zoom="0.80325044"
     inkscape:pageshadow="2"
     inkscape:pageopacity="0.0"
     borderopacity="1.0"
     bordercolor="#666666"
     pagecolor="#ffffff"
     id="base"
     showguides="true"
     inkscape:guide-bbox="true"
     inkscape:snap-object-midpoints="true"
     showborder="true">
    <inkscape:grid
       type="xygrid"
       id="grid955" />
  </sodipodi:namedview>
  <metadata
     id="metadata5">
    <rdf:RDF>
      <cc:Work
         rdf:about="">
        <dc:format>image/svg+xml</dc:format>
        <dc:type
           rdf:resource="http://purl.org/dc/dcmitype/StillImage" />
        <dc:title></dc:title>
      </cc:Work>
    </rdf:RDF>
  </metadata>
  <g
     inkscape:groupmode="layer"
     id="layer3"
     inkscape:label="Calque 3"
     style="display:none">
    <path
       sodipodi:nodetypes="ccssccccssccc"
       id="path936"
       d="m 230.56527,233.00031 c 9.19874,-0.12524 16.89137,-2.17481 18,-18.00031 10.65103,0.0896 11.99985,0.44248 11.99985,-20 V 66.999995 c 0,-23.115892 -0.96181,-23.59494 -10.99985,-23.500001 -1.32649,-17.477549 -10.69594,-18.406343 -19,-18.499694 -58.33343,0 -116.66687,0 -175.0003,0 -8.304064,0.09335 -17.673507,1.022145 -19,18.499694 -10.038036,-0.09494 -10.999846,0.384109 -10.999846,23.500001 V 195 c 0,20.44248 1.34882,20.08955 11.999846,20 1.10863,15.8255 8.801256,17.87507 18,18.00031 58.33343,0 116.66687,0 175.0003,0 z"
       style="fill:none;stroke:#ff0000;stroke-width:0.1;stroke-miterlimit:4;stroke-dasharray:none;stroke-dashoffset:0;stroke-opacity:1" />
  </g>
  <g
     inkscape:groupmode="layer"
     id="layer2"
     inkscape:label="Calque 2">
    <path
       style="fill:none;stroke:#ff0000;stroke-width:0.1;stroke-miterlimit:4;stroke-dasharray:none;stroke-dashoffset:0;stroke-opacity:1"
       d="m 223.56527,78 c 0,1.104569 0.89543,2 2,2 1.10457,0 2,-0.895431 2,-2 0,-1.104569 -0.89543,-2 -2,-2 -1.10457,0 -2,0.895431 -2,2"
       id="path934" />
    <path
       style="fill:none;stroke:#ff0000;stroke-width:0.1;stroke-miterlimit:4;stroke-dasharray:none;stroke-dashoffset:0;stroke-opacity:1"
       d="m 216.56527,87 c 0,1.104569 0.89543,2 2,2 1.10457,0 2,-0.895431 2,-2 0,-1.104569 -0.89543,-2 -2,-2 -1.10457,0 -2,0.895431 -2,2"
       id="path932" />
    <path
       style="fill:none;stroke:#ff0000;stroke-width:0.1;stroke-miterlimit:4;stroke-dasharray:none;stroke-dashoffset:0;stroke-opacity:1"
       d="m 62.56497,78 c 0,1.104569 -0.895431,2 -2,2 -1.104569,0 -2,-0.895431 -2,-2 0,-1.104569 0.895431,-2 2,-2 1.104569,0 2,0.895431 2,2"
       id="path928" />
    <path
       style="fill:none;stroke:#ff0000;stroke-width:0.1;stroke-miterlimit:4;stroke-dasharray:none;stroke-dashoffset:0;stroke-opacity:1"
       d="m 69.56497,87 c 0,1.104569 -0.895431,2 -2,2 -1.104569,0 -2,-0.895431 -2,-2 0,-1.104569 0.895431,-2 2,-2 1.104569,0 2,0.895431 2,2"
       id="path868-3" />
    <circle
       style="fill:none;stroke:#ff0000;stroke-width:0.1;stroke-miterlimit:4;stroke-dasharray:none;stroke-dashoffset:0;stroke-opacity:1"
       id="path868-6"
       cx="143.06497"
       cy="76"
       r="1" />
    <path
       id="path947"
       style="fill:none;stroke:#ff0000;stroke-width:0.1;stroke-miterlimit:4;stroke-dasharray:none;stroke-dashoffset:0;stroke-opacity:1"
       d="M 55.56497,0 A 25.0025,25.0025 0 0 0 55.28372,0.002 C 50.305168,0.05797 40.181636,-0.333234 29.322782,7.103563 23.421118,11.145377 19.056444,17.131646 16.094267,23.839891 11.495031,26.937159 7.0538068,31.129728 4.9302038,35.386719 -1.9355052,49.149774 0.56496977,55.095264 0.56496977,67 v 128 c 0,10.77115 -3.36465697,17.48413 6.32812503,31.75 2.575547,3.7907 6.5505862,6.81002 10.5410152,9.00781 2.481336,5.28538 5.954957,10.12394 10.716797,13.83985 10.208625,7.9663 20.71376,8.31379 27.074219,8.40039 A 25.0025,25.0025 0 0 0 55.56497,258 h 175 a 25.0025,25.0025 0 0 0 0.33984,-0.002 c 6.36046,-0.0866 16.8656,-0.43409 27.07422,-8.40039 4.76184,-3.71591 8.23546,-8.55447 10.7168,-13.83985 3.99044,-2.1978 7.96547,-5.21711 10.54102,-9.00781 9.69275,-14.26583 6.32812,-20.97881 6.32812,-31.74995 V 67 c 0,-11.904734 2.50047,-17.850224 -4.36523,-31.613281 -2.12361,-4.256992 -6.56483,-8.44956 -11.16407,-11.546875 C 267.07349,17.131598 262.70882,11.145329 256.80716,7.103516 245.9483,-0.333279 235.82477,0.05792 230.84622,0.001953 A 25.0025,25.0025 0 0 0 230.56497,0 Z" />
  </g>
</svg>
