solid pen_sleeve
facet normal 0.0 -1.0 -3.41272816128351e-013
outer loop
vertex 39.8483338429004 3.82444833458331 2.39697151016571e-014
vertex 40.1267044424356 3.82444833458203 3.73484321518642
vertex 40.0483338429004 3.82444833458183 4.33012701892222
endloop
endfacet
facet normal 0.0 -1.0 -3.41272816128351e-013
outer loop
vertex 40.1267044424356 3.82444833458203 3.73484321518642
vertex 39.8483338429004 3.82444833458331 2.39697151016571e-014
vertex 40.3564754141962 3.82444833458222 3.18012701892222
endloop
endfacet
facet normal 0.0 -1.0 -3.41272816128351e-013
outer loop
vertex 40.3564754141962 3.82444833458222 3.18012701892222
vertex 39.8483338429004 3.82444833458331 2.39697151016571e-014
vertex 40.7219882461714 3.82444833458239 2.70378142219316
endloop
endfacet
facet normal 0.0 -1.0 -3.41272816128351e-013
outer loop
vertex 40.7219882461714 3.82444833458239 2.70378142219316
vertex 39.8483338429004 3.82444833458331 2.39697151016571e-014
vertex 41.1983338429004 3.82444833458251 2.33826859021801
endloop
endfacet
facet normal 0.0 -1.0 -3.41272816128351e-013
outer loop
vertex 41.1983338429004 3.82444833458251 2.33826859021801
vertex 39.8483338429004 3.82444833458331 2.39697151016571e-014
vertex 44.8483338429004 3.82444833458331 2.8199664825479e-014
endloop
endfacet
facet normal 0.0 -1.0 -3.41272816128351e-013
outer loop
vertex 41.1983338429004 3.82444833458251 2.33826859021801
vertex 44.8483338429004 3.82444833458331 2.8199664825479e-014
vertex 41.7530500391646 3.82444833458259 2.10849761845736
endloop
endfacet
facet normal 0.0 -1.0 -3.41272816128351e-013
outer loop
vertex 41.7530500391646 3.82444833458259 2.10849761845736
vertex 44.8483338429004 3.82444833458331 2.8199664825479e-014
vertex 42.3483338429004 3.82444833458262 2.03012701892222
endloop
endfacet
facet normal 0.0 -1.0 -3.41272816128351e-013
outer loop
vertex 42.3483338429004 3.82444833458262 2.03012701892222
vertex 44.8483338429004 3.82444833458331 2.8199664825479e-014
vertex 42.9436176466362 3.82444833458259 2.10849761845737
endloop
endfacet
facet normal 0.0 -1.0 -3.41272816128351e-013
outer loop
vertex 42.9436176466362 3.82444833458259 2.10849761845737
vertex 44.8483338429004 3.82444833458331 2.8199664825479e-014
vertex 43.4983338429004 3.82444833458251 2.33826859021801
endloop
endfacet
facet normal 0.0 -1.0 -3.41272816128351e-013
outer loop
vertex 43.4983338429004 3.82444833458251 2.33826859021801
vertex 44.8483338429004 3.82444833458331 2.8199664825479e-014
vertex 43.9746794396295 3.82444833458239 2.70378142219316
endloop
endfacet
facet normal 0.0 -1.0 -3.41272816128351e-013
outer loop
vertex 43.9746794396295 3.82444833458239 2.70378142219316
vertex 44.8483338429004 3.82444833458331 2.8199664825479e-014
vertex 44.3401922716046 3.82444833458222 3.18012701892222
endloop
endfacet
facet normal 0.0 -1.0 -3.41272816128351e-013
outer loop
vertex 44.3401922716046 3.82444833458222 3.18012701892222
vertex 44.8483338429004 3.82444833458331 2.8199664825479e-014
vertex 44.5699632433653 3.82444833458203 3.73484321518642
endloop
endfacet
facet normal 0.0 -1.0 -3.41272816128351e-013
outer loop
vertex 44.5699632433653 3.82444833458203 3.73484321518642
vertex 44.8483338429004 3.82444833458331 2.8199664825479e-014
vertex 44.6483338429004 3.82444833458183 4.33012701892222
endloop
endfacet
facet normal 0.0 -1.0 -3.41272816128351e-013
outer loop
vertex 44.6483338429004 3.82444833458183 4.33012701892222
vertex 44.8483338429004 3.82444833458331 2.8199664825479e-014
vertex 44.8483338429004 3.82444833458035 8.66025403784441
endloop
endfacet
facet normal 0.0 -1.0 -3.41272816128351e-013
outer loop
vertex 44.8483338429004 3.82444833458035 8.66025403784441
vertex 44.8483338429004 3.82444833458331 2.8199664825479e-014
vertex 47.3483338429004 3.82444833458183 4.33012701892222
endloop
endfacet
facet normal 0.0 -1.0 -3.41272816128351e-013
outer loop
vertex 39.8483338429004 3.82444833458331 2.39697151016571e-014
vertex 39.8483338429004 3.82444833458035 8.66025403784441
vertex 37.3483338429004 3.82444833458183 4.33012701892221
endloop
endfacet
facet normal 0.0 -1.0 -3.41272816128351e-013
outer loop
vertex 39.8483338429004 3.82444833458035 8.66025403784441
vertex 39.8483338429004 3.82444833458331 2.39697151016571e-014
vertex 40.0483338429004 3.82444833458183 4.33012701892222
endloop
endfacet
facet normal 0.0 -1.0 -3.41272816128351e-013
outer loop
vertex 39.8483338429004 3.82444833458035 8.66025403784441
vertex 40.0483338429004 3.82444833458183 4.33012701892222
vertex 40.1267044424356 3.82444833458163 4.92541082265802
endloop
endfacet
facet normal 0.0 -1.0 -3.41272816128351e-013
outer loop
vertex 39.8483338429004 3.82444833458035 8.66025403784441
vertex 40.1267044424356 3.82444833458163 4.92541082265802
vertex 40.3564754141962 3.82444833458144 5.48012701892222
endloop
endfacet
facet normal 0.0 -1.0 -3.41272816128351e-013
outer loop
vertex 39.8483338429004 3.82444833458035 8.66025403784441
vertex 40.3564754141962 3.82444833458144 5.48012701892222
vertex 40.7219882461714 3.82444833458128 5.95647261565128
endloop
endfacet
facet normal 0.0 -1.0 -3.41272816128351e-013
outer loop
vertex 39.8483338429004 3.82444833458035 8.66025403784441
vertex 40.7219882461714 3.82444833458128 5.95647261565128
vertex 41.1983338429004 3.82444833458115 6.32198544762643
endloop
endfacet
facet normal 0.0 -1.0 -3.41272816128351e-013
outer loop
vertex 39.8483338429004 3.82444833458035 8.66025403784441
vertex 41.1983338429004 3.82444833458115 6.32198544762643
vertex 44.8483338429004 3.82444833458035 8.66025403784441
endloop
endfacet
facet normal 0.0 -1.0 -3.41272816128351e-013
outer loop
vertex 44.8483338429004 3.82444833458035 8.66025403784441
vertex 41.1983338429004 3.82444833458115 6.32198544762643
vertex 41.7530500391646 3.82444833458107 6.55175641938707
endloop
endfacet
facet normal 0.0 -1.0 -3.41272816128351e-013
outer loop
vertex 44.8483338429004 3.82444833458035 8.66025403784441
vertex 41.7530500391646 3.82444833458107 6.55175641938707
vertex 42.3483338429004 3.82444833458105 6.63012701892222
endloop
endfacet
facet normal 0.0 -1.0 -3.41272816128351e-013
outer loop
vertex 44.8483338429004 3.82444833458035 8.66025403784441
vertex 42.3483338429004 3.82444833458105 6.63012701892222
vertex 42.9436176466362 3.82444833458107 6.55175641938708
endloop
endfacet
facet normal 0.0 -1.0 -3.41272816128351e-013
outer loop
vertex 44.8483338429004 3.82444833458035 8.66025403784441
vertex 42.9436176466362 3.82444833458107 6.55175641938708
vertex 43.4983338429004 3.82444833458115 6.32198544762643
endloop
endfacet
facet normal 0.0 -1.0 -3.41272816128351e-013
outer loop
vertex 44.8483338429004 3.82444833458035 8.66025403784441
vertex 43.4983338429004 3.82444833458115 6.32198544762643
vertex 43.9746794396295 3.82444833458128 5.95647261565128
endloop
endfacet
facet normal 0.0 -1.0 -3.41272816128351e-013
outer loop
vertex 44.8483338429004 3.82444833458035 8.66025403784441
vertex 43.9746794396295 3.82444833458128 5.95647261565128
vertex 44.3401922716046 3.82444833458144 5.48012701892222
endloop
endfacet
facet normal 0.0 -1.0 -3.41272816128351e-013
outer loop
vertex 44.8483338429004 3.82444833458035 8.66025403784441
vertex 44.3401922716046 3.82444833458144 5.48012701892222
vertex 44.5699632433653 3.82444833458163 4.92541082265802
endloop
endfacet
facet normal 0.0 -1.0 -3.41272816128351e-013
outer loop
vertex 44.8483338429004 3.82444833458035 8.66025403784441
vertex 44.5699632433653 3.82444833458163 4.92541082265802
vertex 44.6483338429004 3.82444833458183 4.33012701892222
endloop
endfacet
facet normal -1.12798659301916e-015 -3.41272816128351e-013 1.0
outer loop
vertex 44.8483338429004 103.82444833458 8.66025403787854
vertex 39.8483338429004 3.82444833458035 8.66025403784441
vertex 44.8483338429004 3.82444833458035 8.66025403784441
endloop
endfacet
facet normal -1.12798659301916e-015 -3.41272816128351e-013 1.0
outer loop
vertex 39.8483338429004 3.82444833458035 8.66025403784441
vertex 44.8483338429004 103.82444833458 8.66025403787854
vertex 39.8483338429004 103.82444833458 8.66025403787854
endloop
endfacet
facet normal 0.0 1.0 3.41272816128351e-013
outer loop
vertex 39.8483338429004 103.82444833458 8.66025403787854
vertex 39.8483338429004 103.824448334583 3.41512040868963e-011
vertex 37.3483338429004 103.824448334582 4.33012701895634
endloop
endfacet
facet normal 0.0 1.0 3.41272816128351e-013
outer loop
vertex 39.8483338429004 103.824448334583 3.41512040868963e-011
vertex 39.8483338429004 103.82444833458 8.66025403787854
vertex 40.0483338429004 103.824448334582 4.33012701895635
endloop
endfacet
facet normal 0.0 1.0 3.41272816128351e-013
outer loop
vertex 40.0483338429004 103.824448334582 4.33012701895635
vertex 39.8483338429004 103.82444833458 8.66025403787854
vertex 40.1267044424356 103.824448334582 4.92541082269214
endloop
endfacet
facet normal 0.0 1.0 3.41272816128351e-013
outer loop
vertex 40.1267044424356 103.824448334582 4.92541082269214
vertex 39.8483338429004 103.82444833458 8.66025403787854
vertex 40.3564754141962 103.824448334581 5.48012701895635
endloop
endfacet
facet normal 0.0 1.0 3.41272816128351e-013
outer loop
vertex 40.3564754141962 103.824448334581 5.48012701895635
vertex 39.8483338429004 103.82444833458 8.66025403787854
vertex 40.7219882461714 103.824448334581 5.95647261568541
endloop
endfacet
facet normal 0.0 1.0 3.41272816128351e-013
outer loop
vertex 40.7219882461714 103.824448334581 5.95647261568541
vertex 39.8483338429004 103.82444833458 8.66025403787854
vertex 41.1983338429004 103.824448334581 6.32198544766056
endloop
endfacet
facet normal 0.0 1.0 3.41272816128351e-013
outer loop
vertex 41.1983338429004 103.824448334581 6.32198544766056
vertex 39.8483338429004 103.82444833458 8.66025403787854
vertex 44.8483338429004 103.82444833458 8.66025403787854
endloop
endfacet
facet normal 0.0 1.0 3.41272816128351e-013
outer loop
vertex 41.1983338429004 103.824448334581 6.32198544766056
vertex 44.8483338429004 103.82444833458 8.66025403787854
vertex 41.7530500391646 103.824448334581 6.5517564194212
endloop
endfacet
facet normal 0.0 1.0 3.41272816128351e-013
outer loop
vertex 41.7530500391646 103.824448334581 6.5517564194212
vertex 44.8483338429004 103.82444833458 8.66025403787854
vertex 42.3483338429004 103.824448334581 6.63012701895635
endloop
endfacet
facet normal 0.0 1.0 3.41272816128351e-013
outer loop
vertex 42.3483338429004 103.824448334581 6.63012701895635
vertex 44.8483338429004 103.82444833458 8.66025403787854
vertex 42.9436176466362 103.824448334581 6.5517564194212
endloop
endfacet
facet normal 0.0 1.0 3.41272816128351e-013
outer loop
vertex 42.9436176466362 103.824448334581 6.5517564194212
vertex 44.8483338429004 103.82444833458 8.66025403787854
vertex 43.4983338429004 103.824448334581 6.32198544766056
endloop
endfacet
facet normal 0.0 1.0 3.41272816128351e-013
outer loop
vertex 43.4983338429004 103.824448334581 6.32198544766056
vertex 44.8483338429004 103.82444833458 8.66025403787854
vertex 43.9746794396295 103.824448334581 5.95647261568541
endloop
endfacet
facet normal 0.0 1.0 3.41272816128351e-013
outer loop
vertex 43.9746794396295 103.824448334581 5.95647261568541
vertex 44.8483338429004 103.82444833458 8.66025403787854
vertex 44.3401922716046 103.824448334581 5.48012701895635
endloop
endfacet
facet normal 0.0 1.0 3.41272816128351e-013
outer loop
vertex 44.3401922716046 103.824448334581 5.48012701895635
vertex 44.8483338429004 103.82444833458 8.66025403787854
vertex 44.5699632433653 103.824448334582 4.92541082269215
endloop
endfacet
facet normal 0.0 1.0 3.41272816128351e-013
outer loop
vertex 44.5699632433653 103.824448334582 4.92541082269215
vertex 44.8483338429004 103.82444833458 8.66025403787854
vertex 44.6483338429004 103.824448334582 4.33012701895635
endloop
endfacet
facet normal 0.0 1.0 3.41272816128351e-013
outer loop
vertex 39.8483338429004 103.824448334583 3.41512040868963e-011
vertex 41.1983338429004 103.824448334583 2.33826859025214
vertex 44.8483338429004 103.824448334583 3.41554340366201e-011
endloop
endfacet
facet normal 0.0 1.0 3.41272816128351e-013
outer loop
vertex 41.1983338429004 103.824448334583 2.33826859025214
vertex 39.8483338429004 103.824448334583 3.41512040868963e-011
vertex 40.7219882461714 103.824448334582 2.70378142222729
endloop
endfacet
facet normal 0.0 1.0 3.41272816128351e-013
outer loop
vertex 40.7219882461714 103.824448334582 2.70378142222729
vertex 39.8483338429004 103.824448334583 3.41512040868963e-011
vertex 40.3564754141962 103.824448334582 3.18012701895635
endloop
endfacet
facet normal 0.0 1.0 3.41272816128351e-013
outer loop
vertex 40.3564754141962 103.824448334582 3.18012701895635
vertex 39.8483338429004 103.824448334583 3.41512040868963e-011
vertex 40.1267044424356 103.824448334582 3.73484321522055
endloop
endfacet
facet normal 0.0 1.0 3.41272816128351e-013
outer loop
vertex 40.1267044424356 103.824448334582 3.73484321522055
vertex 39.8483338429004 103.824448334583 3.41512040868963e-011
vertex 40.0483338429004 103.824448334582 4.33012701895635
endloop
endfacet
facet normal 0.0 1.0 3.41272816128351e-013
outer loop
vertex 44.8483338429004 103.824448334583 3.41554340366201e-011
vertex 41.1983338429004 103.824448334583 2.33826859025214
vertex 41.7530500391646 103.824448334583 2.10849761849149
endloop
endfacet
facet normal 0.0 1.0 3.41272816128351e-013
outer loop
vertex 44.8483338429004 103.824448334583 3.41554340366201e-011
vertex 41.7530500391646 103.824448334583 2.10849761849149
vertex 42.3483338429004 103.824448334583 2.03012701895635
endloop
endfacet
facet normal 0.0 1.0 3.41272816128351e-013
outer loop
vertex 44.8483338429004 103.824448334583 3.41554340366201e-011
vertex 42.3483338429004 103.824448334583 2.03012701895635
vertex 42.9436176466362 103.824448334583 2.10849761849149
endloop
endfacet
facet normal 0.0 1.0 3.41272816128351e-013
outer loop
vertex 44.8483338429004 103.824448334583 3.41554340366201e-011
vertex 42.9436176466362 103.824448334583 2.10849761849149
vertex 43.4983338429004 103.824448334583 2.33826859025214
endloop
endfacet
facet normal 0.0 1.0 3.41272816128351e-013
outer loop
vertex 44.8483338429004 103.824448334583 3.41554340366201e-011
vertex 43.4983338429004 103.824448334583 2.33826859025214
vertex 43.9746794396295 103.824448334582 2.70378142222729
endloop
endfacet
facet normal 0.0 1.0 3.41272816128351e-013
outer loop
vertex 44.8483338429004 103.824448334583 3.41554340366201e-011
vertex 43.9746794396295 103.824448334582 2.70378142222729
vertex 44.3401922716046 103.824448334582 3.18012701895635
endloop
endfacet
facet normal 0.0 1.0 3.41272816128351e-013
outer loop
vertex 44.8483338429004 103.824448334583 3.41554340366201e-011
vertex 44.3401922716046 103.824448334582 3.18012701895635
vertex 44.5699632433653 103.824448334582 3.73484321522055
endloop
endfacet
facet normal 0.0 1.0 3.41272816128351e-013
outer loop
vertex 44.8483338429004 103.824448334583 3.41554340366201e-011
vertex 44.5699632433653 103.824448334582 3.73484321522055
vertex 44.6483338429004 103.824448334582 4.33012701895635
endloop
endfacet
facet normal 0.0 1.0 3.41272816128351e-013
outer loop
vertex 44.8483338429004 103.824448334583 3.41554340366201e-011
vertex 44.6483338429004 103.824448334582 4.33012701895635
vertex 44.8483338429004 103.82444833458 8.66025403787854
endloop
endfacet
facet normal 0.0 1.0 3.41272816128351e-013
outer loop
vertex 44.8483338429004 103.824448334583 3.41554340366201e-011
vertex 44.8483338429004 103.82444833458 8.66025403787854
vertex 47.3483338429004 103.824448334582 4.33012701895635
endloop
endfacet
facet normal -0.866025403784438 1.70636408064176e-013 -0.500000000000001
outer loop
vertex 39.8483338429004 103.824448334583 3.41512040868963e-011
vertex 37.3483338429004 3.82444833458183 4.33012701892221
vertex 37.3483338429004 103.824448334582 4.33012701895634
endloop
endfacet
facet normal -0.866025403784438 1.70636408064176e-013 -0.500000000000001
outer loop
vertex 37.3483338429004 3.82444833458183 4.33012701892221
vertex 39.8483338429004 103.824448334583 3.41512040868963e-011
vertex 39.8483338429004 3.82444833458331 2.39697151016571e-014
endloop
endfacet
facet normal 7.04991620636975e-016 3.41272816128351e-013 -1.0
outer loop
vertex 39.8483338429004 103.824448334583 3.41512040868963e-011
vertex 44.8483338429004 3.82444833458331 2.8199664825479e-014
vertex 39.8483338429004 3.82444833458331 2.39697151016571e-014
endloop
endfacet
facet normal 7.04991620636975e-016 3.41272816128351e-013 -1.0
outer loop
vertex 44.8483338429004 3.82444833458331 2.8199664825479e-014
vertex 39.8483338429004 103.824448334583 3.41512040868963e-011
vertex 44.8483338429004 103.824448334583 3.41554340366201e-011
endloop
endfacet
facet normal 0.866025403784439 1.70636408064175e-013 -0.499999999999999
outer loop
vertex 44.8483338429004 3.82444833458331 2.8199664825479e-014
vertex 47.3483338429004 103.824448334582 4.33012701895635
vertex 47.3483338429004 3.82444833458183 4.33012701892222
endloop
endfacet
facet normal 0.866025403784439 1.70636408064175e-013 -0.499999999999999
outer loop
vertex 47.3483338429004 103.824448334582 4.33012701895635
vertex 44.8483338429004 3.82444833458331 2.8199664825479e-014
vertex 44.8483338429004 103.824448334583 3.41554340366201e-011
endloop
endfacet
facet normal -0.866025403784439 -1.70636408064175e-013 0.499999999999999
outer loop
vertex 37.3483338429004 103.824448334582 4.33012701895634
vertex 39.8483338429004 3.82444833458035 8.66025403784441
vertex 39.8483338429004 103.82444833458 8.66025403787854
endloop
endfacet
facet normal -0.866025403784439 -1.70636408064175e-013 0.499999999999999
outer loop
vertex 39.8483338429004 3.82444833458035 8.66025403784441
vertex 37.3483338429004 103.824448334582 4.33012701895634
vertex 37.3483338429004 3.82444833458183 4.33012701892221
endloop
endfacet
facet normal 0.866025403784438 -1.70636408064176e-013 0.5
outer loop
vertex 47.3483338429004 3.82444833458183 4.33012701892222
vertex 44.8483338429004 103.82444833458 8.66025403787854
vertex 44.8483338429004 3.82444833458035 8.66025403784441
endloop
endfacet
facet normal 0.866025403784438 -1.70636408064176e-013 0.5
outer loop
vertex 44.8483338429004 103.82444833458 8.66025403787854
vertex 47.3483338429004 3.82444833458183 4.33012701892222
vertex 47.3483338429004 103.824448334582 4.33012701895635
endloop
endfacet
facet normal -0.353553390593274 0.707106781186758 -0.612372435695552
outer loop
vertex 43.4983338429004 103.824448334581 6.32198544766056
vertex 43.6211260490362 103.324448334581 5.60291922509196
vertex 43.2483338429004 103.324448334581 5.88897274576817
endloop
endfacet
facet normal -0.5 0.707106781186719 -0.499999999999758
outer loop
vertex 43.6211260490362 103.324448334581 5.60291922509196
vertex 43.4983338429004 103.824448334581 6.32198544766056
vertex 43.9746794396295 103.824448334581 5.95647261568541
endloop
endfacet
facet normal -0.499999999999999 0.707106781186719 -0.499999999999758
outer loop
vertex 43.9746794396295 103.824448334581 5.95647261568541
vertex 43.9071795697124 103.324448334582 5.23012701895618
vertex 43.6211260490362 103.324448334581 5.60291922509196
endloop
endfacet
facet normal -0.612372435695794 0.707106781186669 -0.353553390593032
outer loop
vertex 43.9071795697124 103.324448334582 5.23012701895618
vertex 43.9746794396295 103.824448334581 5.95647261568541
vertex 44.3401922716046 103.824448334581 5.48012701895635
endloop
endfacet
facet normal -0.612372435695794 0.707106781186669 -0.353553390593032
outer loop
vertex 44.3401922716046 103.824448334581 5.48012701895635
vertex 44.0870003302208 103.324448334582 4.79600130014071
vertex 43.9071795697124 103.324448334582 5.23012701895618
endloop
endfacet
facet normal -0.683012701892219 0.70710678118661 -0.183012701891978
outer loop
vertex 44.0870003302208 103.324448334582 4.79600130014071
vertex 44.3401922716046 103.824448334581 5.48012701895635
vertex 44.5699632433653 103.824448334582 4.92541082269215
endloop
endfacet
facet normal -0.683012701892219 0.70710678118661 -0.183012701891978
outer loop
vertex 44.5699632433653 103.824448334582 4.92541082269215
vertex 44.1483338429004 103.324448334582 4.33012701895618
vertex 44.0870003302208 103.324448334582 4.79600130014071
endloop
endfacet
facet normal -0.707106781186547 0.707106781186548 2.41140342819423e-013
outer loop
vertex 44.1483338429004 103.324448334582 4.33012701895618
vertex 44.5699632433653 103.824448334582 4.92541082269215
vertex 44.6483338429004 103.824448334582 4.33012701895635
endloop
endfacet
facet normal -0.707106781186547 0.707106781186548 2.41140342819423e-013
outer loop
vertex 44.1483338429004 103.324448334582 4.33012701895618
vertex 44.5699632433653 103.824448334582 3.73484321522055
vertex 44.0870003302208 103.324448334582 3.86425273777164
endloop
endfacet
facet normal -0.683012701892219 0.707106781186486 0.18301270189246
outer loop
vertex 44.5699632433653 103.824448334582 3.73484321522055
vertex 44.1483338429004 103.324448334582 4.33012701895618
vertex 44.6483338429004 103.824448334582 4.33012701895635
endloop
endfacet
facet normal -0.683012701892219 0.707106781186486 0.18301270189246
outer loop
vertex 44.0870003302208 103.324448334582 3.86425273777164
vertex 44.3401922716046 103.824448334582 3.18012701895635
vertex 43.9071795697124 103.324448334582 3.43012701895618
endloop
endfacet
facet normal -0.612372435695794 0.707106781186428 0.353553390593514
outer loop
vertex 44.3401922716046 103.824448334582 3.18012701895635
vertex 44.0870003302208 103.324448334582 3.86425273777164
vertex 44.5699632433653 103.824448334582 3.73484321522055
endloop
endfacet
facet normal -0.612372435695794 0.707106781186428 0.353553390593514
outer loop
vertex 43.9071795697124 103.324448334582 3.43012701895618
vertex 43.9746794396295 103.824448334582 2.70378142222729
vertex 43.6211260490362 103.324448334582 3.05733481282039
endloop
endfacet
facet normal -0.5 0.707106781186378 0.50000000000024
outer loop
vertex 43.9746794396295 103.824448334582 2.70378142222729
vertex 43.9071795697124 103.324448334582 3.43012701895618
vertex 44.3401922716046 103.824448334582 3.18012701895635
endloop
endfacet
facet normal -0.5 0.707106781186378 0.50000000000024
outer loop
vertex 43.6211260490362 103.324448334582 3.05733481282039
vertex 43.4983338429004 103.824448334583 2.33826859025214
vertex 43.2483338429004 103.324448334582 2.77128129214419
endloop
endfacet
facet normal -0.353553390593273 0.70710678118634 0.612372435696035
outer loop
vertex 43.4983338429004 103.824448334583 2.33826859025214
vertex 43.6211260490362 103.324448334582 3.05733481282039
vertex 43.9746794396295 103.824448334582 2.70378142222729
endloop
endfacet
facet normal -0.353553390593274 0.70710678118634 0.612372435696034
outer loop
vertex 43.2483338429004 103.324448334582 2.77128129214419
vertex 42.9436176466362 103.824448334583 2.10849761849149
vertex 42.814208124085 103.324448334582 2.59146053163586
endloop
endfacet
facet normal -0.183012701892218 0.707106781186316 0.683012701892459
outer loop
vertex 42.9436176466362 103.824448334583 2.10849761849149
vertex 43.2483338429004 103.324448334582 2.77128129214419
vertex 43.4983338429004 103.824448334583 2.33826859025214
endloop
endfacet
facet normal -0.183012701892219 0.707106781186316 0.683012701892459
outer loop
vertex 42.814208124085 103.324448334582 2.59146053163586
vertex 42.3483338429004 103.824448334583 2.03012701895635
vertex 42.3483338429004 103.324448334582 2.53012701895618
endloop
endfacet
facet normal -8.86214867120916e-016 0.707106781186308 0.707106781186787
outer loop
vertex 42.3483338429004 103.824448334583 2.03012701895635
vertex 42.814208124085 103.324448334582 2.59146053163586
vertex 42.9436176466362 103.824448334583 2.10849761849149
endloop
endfacet
facet normal 0.183012701892219 0.707106781186316 0.68301270189246
outer loop
vertex 41.8824595617159 103.324448334582 2.59146053163585
vertex 42.3483338429004 103.824448334583 2.03012701895635
vertex 41.7530500391646 103.824448334583 2.10849761849149
endloop
endfacet
facet normal -8.86214867120916e-016 0.707106781186308 0.707106781186787
outer loop
vertex 42.3483338429004 103.824448334583 2.03012701895635
vertex 41.8824595617159 103.324448334582 2.59146053163585
vertex 42.3483338429004 103.324448334582 2.53012701895618
endloop
endfacet
facet normal 0.353553390593273 0.707106781186339 0.612372435696035
outer loop
vertex 41.4483338429004 103.324448334582 2.77128129214419
vertex 41.7530500391646 103.824448334583 2.10849761849149
vertex 41.1983338429004 103.824448334583 2.33826859025214
endloop
endfacet
facet normal 0.183012701892219 0.707106781186316 0.683012701892459
outer loop
vertex 41.7530500391646 103.824448334583 2.10849761849149
vertex 41.4483338429004 103.324448334582 2.77128129214419
vertex 41.8824595617159 103.324448334582 2.59146053163585
endloop
endfacet
facet normal 0.499999999999999 0.707106781186378 0.500000000000241
outer loop
vertex 41.0755416367647 103.324448334582 3.05733481282039
vertex 41.1983338429004 103.824448334583 2.33826859025214
vertex 40.7219882461714 103.824448334582 2.70378142222729
endloop
endfacet
facet normal 0.353553390593274 0.707106781186339 0.612372435696035
outer loop
vertex 41.1983338429004 103.824448334583 2.33826859025214
vertex 41.0755416367647 103.324448334582 3.05733481282039
vertex 41.4483338429004 103.324448334582 2.77128129214419
endloop
endfacet
facet normal 0.612372435695794 0.707106781186428 0.353553390593515
outer loop
vertex 40.7894881160884 103.324448334582 3.43012701895618
vertex 40.7219882461714 103.824448334582 2.70378142222729
vertex 40.3564754141962 103.824448334582 3.18012701895635
endloop
endfacet
facet normal 0.499999999999999 0.707106781186378 0.500000000000241
outer loop
vertex 40.7219882461714 103.824448334582 2.70378142222729
vertex 40.7894881160884 103.324448334582 3.43012701895618
vertex 41.0755416367647 103.324448334582 3.05733481282039
endloop
endfacet
facet normal 0.683012701892218 0.707106781186486 0.18301270189246
outer loop
vertex 40.6096673555801 103.324448334582 3.86425273777164
vertex 40.3564754141962 103.824448334582 3.18012701895635
vertex 40.1267044424356 103.824448334582 3.73484321522055
endloop
endfacet
facet normal 0.612372435695794 0.707106781186428 0.353553390593515
outer loop
vertex 40.3564754141962 103.824448334582 3.18012701895635
vertex 40.6096673555801 103.324448334582 3.86425273777164
vertex 40.7894881160884 103.324448334582 3.43012701895618
endloop
endfacet
facet normal 0.707106781186546 0.707106781186549 2.41668281918115e-013
outer loop
vertex 40.5483338429004 103.324448334582 4.33012701895618
vertex 40.1267044424356 103.824448334582 3.73484321522055
vertex 40.0483338429004 103.824448334582 4.33012701895635
endloop
endfacet
facet normal 0.683012701892218 0.707106781186486 0.183012701892461
outer loop
vertex 40.1267044424356 103.824448334582 3.73484321522055
vertex 40.5483338429004 103.324448334582 4.33012701895618
vertex 40.6096673555801 103.324448334582 3.86425273777164
endloop
endfacet
facet normal 0.683012701892218 0.707106781186611 -0.183012701891977
outer loop
vertex 40.1267044424356 103.824448334582 4.92541082269214
vertex 40.5483338429004 103.324448334582 4.33012701895618
vertex 40.0483338429004 103.824448334582 4.33012701895635
endloop
endfacet
facet normal 0.707106781186546 0.707106781186549 2.41668281918115e-013
outer loop
vertex 40.5483338429004 103.324448334582 4.33012701895618
vertex 40.1267044424356 103.824448334582 4.92541082269214
vertex 40.6096673555801 103.324448334582 4.79600130014071
endloop
endfacet
facet normal 0.612372435695793 0.70710678118667 -0.353553390593032
outer loop
vertex 40.3564754141962 103.824448334581 5.48012701895635
vertex 40.6096673555801 103.324448334582 4.79600130014071
vertex 40.1267044424356 103.824448334582 4.92541082269214
endloop
endfacet
facet normal 0.683012701892218 0.707106781186611 -0.183012701891977
outer loop
vertex 40.6096673555801 103.324448334582 4.79600130014071
vertex 40.3564754141962 103.824448334581 5.48012701895635
vertex 40.7894881160884 103.324448334582 5.23012701895617
endloop
endfacet
facet normal 0.499999999999999 0.70710678118672 -0.499999999999758
outer loop
vertex 40.7219882461714 103.824448334581 5.95647261568541
vertex 40.7894881160884 103.324448334582 5.23012701895617
vertex 40.3564754141962 103.824448334581 5.48012701895635
endloop
endfacet
facet normal 0.612372435695793 0.70710678118667 -0.353553390593032
outer loop
vertex 40.7894881160884 103.324448334582 5.23012701895617
vertex 40.7219882461714 103.824448334581 5.95647261568541
vertex 41.0755416367647 103.324448334581 5.60291922509196
endloop
endfacet
facet normal 0.353553390593273 0.707106781186758 -0.612372435695552
outer loop
vertex 41.1983338429004 103.824448334581 6.32198544766056
vertex 41.0755416367647 103.324448334581 5.60291922509196
vertex 40.7219882461714 103.824448334581 5.95647261568541
endloop
endfacet
facet normal 0.499999999999999 0.70710678118672 -0.499999999999758
outer loop
vertex 41.0755416367647 103.324448334581 5.60291922509196
vertex 41.1983338429004 103.824448334581 6.32198544766056
vertex 41.4483338429004 103.324448334581 5.88897274576817
endloop
endfacet
facet normal 0.183012701892219 0.707106781186782 -0.683012701891976
outer loop
vertex 41.7530500391646 103.824448334581 6.5517564194212
vertex 41.4483338429004 103.324448334581 5.88897274576817
vertex 41.1983338429004 103.824448334581 6.32198544766056
endloop
endfacet
facet normal 0.353553390593273 0.707106781186758 -0.612372435695552
outer loop
vertex 41.4483338429004 103.324448334581 5.88897274576817
vertex 41.7530500391646 103.824448334581 6.5517564194212
vertex 41.8824595617159 103.324448334581 6.0687935062765
endloop
endfacet
facet normal 5.27957793178418e-016 0.70710678118679 -0.707106781186305
outer loop
vertex 42.3483338429004 103.824448334581 6.63012701895635
vertex 41.8824595617159 103.324448334581 6.0687935062765
vertex 41.7530500391646 103.824448334581 6.5517564194212
endloop
endfacet
facet normal 0.183012701892219 0.707106781186782 -0.683012701891976
outer loop
vertex 41.8824595617159 103.324448334581 6.0687935062765
vertex 42.3483338429004 103.824448334581 6.63012701895635
vertex 42.3483338429004 103.324448334581 6.13012701895618
endloop
endfacet
facet normal -0.183012701892219 0.707106781186782 -0.683012701891977
outer loop
vertex 42.9436176466362 103.824448334581 6.5517564194212
vertex 42.3483338429004 103.324448334581 6.13012701895618
vertex 42.3483338429004 103.824448334581 6.63012701895635
endloop
endfacet
facet normal 3.60339384821987e-016 0.70710678118679 -0.707106781186305
outer loop
vertex 42.3483338429004 103.324448334581 6.13012701895618
vertex 42.9436176466362 103.824448334581 6.5517564194212
vertex 42.814208124085 103.324448334581 6.0687935062765
endloop
endfacet
facet normal -0.183012701892219 0.707106781186782 -0.683012701891977
outer loop
vertex 42.9436176466362 103.824448334581 6.5517564194212
vertex 43.2483338429004 103.324448334581 5.88897274576817
vertex 42.814208124085 103.324448334581 6.0687935062765
endloop
endfacet
facet normal -0.353553390593274 0.707106781186757 -0.612372435695552
outer loop
vertex 43.2483338429004 103.324448334581 5.88897274576817
vertex 42.9436176466362 103.824448334581 6.5517564194212
vertex 43.4983338429004 103.824448334581 6.32198544766056
endloop
endfacet
facet normal 1.0 -3.10194196029497e-028 9.08933209355984e-016
outer loop
vertex 40.5483338429004 4.32444833458183 4.33012701892239
vertex 40.6096673555801 103.324448334582 4.79600130014071
vertex 40.6096673555801 4.32444833458167 4.79600130010693
endloop
endfacet
facet normal 0.965925826289069 8.83279043897877e-014 -0.25881904510252
outer loop
vertex 40.6096673555801 103.324448334582 4.79600130014071
vertex 40.5483338429004 4.32444833458183 4.33012701892239
vertex 40.5483338429004 103.324448334582 4.33012701895618
endloop
endfacet
facet normal 0.707106781186546 -2.41316322518987e-013 0.707106781186549
outer loop
vertex 41.0755416367647 4.32444833458227 3.0573348127866
vertex 40.7894881160884 103.324448334582 3.43012701895618
vertex 40.7894881160884 4.32444833458214 3.43012701892239
endloop
endfacet
facet normal 0.866025403784438 -1.70636408064176e-013 0.500000000000001
outer loop
vertex 40.7894881160884 103.324448334582 3.43012701895618
vertex 41.0755416367647 4.32444833458227 3.0573348127866
vertex 41.0755416367647 103.324448334582 3.05733481282039
endloop
endfacet
facet normal 0.965925826289068 -8.83279043897877e-014 0.25881904510252
outer loop
vertex 40.6096673555801 4.32444833458199 3.86425273773785
vertex 40.5483338429004 103.324448334582 4.33012701895618
vertex 40.5483338429004 4.32444833458183 4.33012701892239
endloop
endfacet
facet normal 1.0 -3.10194196029497e-028 9.08933209355984e-016
outer loop
vertex 40.5483338429004 103.324448334582 4.33012701895618
vertex 40.6096673555801 4.32444833458199 3.86425273773785
vertex 40.6096673555801 103.324448334582 3.86425273777164
endloop
endfacet
facet normal 0.866025403784438 -1.70636408064176e-013 0.500000000000001
outer loop
vertex 40.7894881160884 4.32444833458214 3.43012701892239
vertex 40.6096673555801 103.324448334582 3.86425273777164
vertex 40.6096673555801 4.32444833458199 3.86425273773785
endloop
endfacet
facet normal 0.965925826289068 -8.83279043897877e-014 0.25881904510252
outer loop
vertex 40.6096673555801 103.324448334582 3.86425273777164
vertex 40.7894881160884 4.32444833458214 3.43012701892239
vertex 40.7894881160884 103.324448334582 3.43012701895618
endloop
endfacet
facet normal 0.5 -2.95550928388207e-013 0.866025403784439
outer loop
vertex 41.4483338429004 103.324448334582 2.77128129214419
vertex 41.0755416367647 4.32444833458227 3.0573348127866
vertex 41.4483338429004 4.32444833458236 2.7712812921104
endloop
endfacet
facet normal 0.707106781186546 -2.41316322518987e-013 0.707106781186549
outer loop
vertex 41.0755416367647 4.32444833458227 3.0573348127866
vertex 41.4483338429004 103.324448334582 2.77128129214419
vertex 41.0755416367647 103.324448334582 3.05733481282039
endloop
endfacet
facet normal -0.866025403784438 1.70636408064176e-013 -0.500000000000002
outer loop
vertex 43.9071795697124 103.324448334582 5.23012701895618
vertex 43.6211260490362 4.3244483345814 5.60291922505817
vertex 43.6211260490362 103.324448334581 5.60291922509196
endloop
endfacet
facet normal -0.707106781186548 2.41316322518986e-013 -0.707106781186547
outer loop
vertex 43.6211260490362 4.3244483345814 5.60291922505817
vertex 43.9071795697124 103.324448334582 5.23012701895618
vertex 43.9071795697124 4.32444833458152 5.23012701892239
endloop
endfacet
facet normal -0.965925826289068 -8.83279043897878e-014 0.258819045102521
outer loop
vertex 44.0870003302208 103.324448334582 3.86425273777164
vertex 44.1483338429004 4.32444833458183 4.33012701892239
vertex 44.1483338429004 103.324448334582 4.33012701895618
endloop
endfacet
facet normal -1.0 6.08223913783327e-029 -1.78222197912938e-016
outer loop
vertex 44.1483338429004 4.32444833458183 4.33012701892239
vertex 44.0870003302208 103.324448334582 3.86425273777164
vertex 44.0870003302208 4.32444833458199 3.86425273773785
endloop
endfacet
facet normal -0.70710678118655 -2.41316322518986e-013 0.707106781186545
outer loop
vertex 43.6211260490362 103.324448334582 3.05733481282039
vertex 43.2483338429004 4.32444833458236 2.7712812921104
vertex 43.6211260490362 4.32444833458227 3.05733481278661
endloop
endfacet
facet normal -0.500000000000001 -2.95550928388207e-013 0.866025403784438
outer loop
vertex 43.2483338429004 4.32444833458236 2.7712812921104
vertex 43.6211260490362 103.324448334582 3.05733481282039
vertex 43.2483338429004 103.324448334582 2.77128129214419
endloop
endfacet
facet normal -0.866025403784439 -1.70636408064175e-013 0.499999999999999
outer loop
vertex 43.9071795697124 103.324448334582 3.43012701895618
vertex 44.0870003302208 4.32444833458199 3.86425273773785
vertex 44.0870003302208 103.324448334582 3.86425273777164
endloop
endfacet
facet normal -0.965925826289068 -8.83279043897878e-014 0.258819045102521
outer loop
vertex 44.0870003302208 4.32444833458199 3.86425273773785
vertex 43.9071795697124 103.324448334582 3.43012701895618
vertex 43.9071795697124 4.32444833458214 3.43012701892239
endloop
endfacet
facet normal -0.258819045102521 -3.29644226908775e-013 0.965925826289068
outer loop
vertex 42.814208124085 103.324448334582 2.59146053163586
vertex 42.3483338429004 4.32444833458244 2.53012701892239
vertex 42.814208124085 4.32444833458242 2.59146053160207
endloop
endfacet
facet normal -2.96739959525042e-015 -3.41272816128351e-013 1.0
outer loop
vertex 42.3483338429004 4.32444833458244 2.53012701892239
vertex 42.814208124085 103.324448334582 2.59146053163586
vertex 42.3483338429004 103.324448334582 2.53012701895618
endloop
endfacet
facet normal -0.258819045102519 3.29644226908775e-013 -0.965925826289069
outer loop
vertex 42.814208124085 103.324448334581 6.0687935062765
vertex 43.2483338429004 4.3244483345813 5.88897274573438
vertex 42.814208124085 4.32444833458124 6.06879350624271
endloop
endfacet
facet normal -0.500000000000002 2.95550928388207e-013 -0.866025403784438
outer loop
vertex 43.2483338429004 4.3244483345813 5.88897274573438
vertex 42.814208124085 103.324448334581 6.0687935062765
vertex 43.2483338429004 103.324448334581 5.88897274576817
endloop
endfacet
facet normal -0.500000000000001 -2.95550928388207e-013 0.866025403784438
outer loop
vertex 43.2483338429004 103.324448334582 2.77128129214419
vertex 42.814208124085 4.32444833458242 2.59146053160207
vertex 43.2483338429004 4.32444833458236 2.7712812921104
endloop
endfacet
facet normal -0.258819045102521 -3.29644226908775e-013 0.965925826289068
outer loop
vertex 42.814208124085 4.32444833458242 2.59146053160207
vertex 43.2483338429004 103.324448334582 2.77128129214419
vertex 42.814208124085 103.324448334582 2.59146053163586
endloop
endfacet
facet normal 0.5 2.95550928388207e-013 -0.866025403784439
outer loop
vertex 41.4483338429004 103.324448334581 5.88897274576817
vertex 41.8824595617159 4.32444833458124 6.06879350624271
vertex 41.4483338429004 4.3244483345813 5.88897274573438
endloop
endfacet
facet normal 0.258819045102521 3.29644226908774e-013 -0.965925826289068
outer loop
vertex 41.8824595617159 4.32444833458124 6.06879350624271
vertex 41.4483338429004 103.324448334581 5.88897274576817
vertex 41.8824595617159 103.324448334581 6.0687935062765
endloop
endfacet
facet normal -0.70710678118655 -2.41316322518986e-013 0.707106781186545
outer loop
vertex 43.6211260490362 103.324448334582 3.05733481282039
vertex 43.9071795697124 4.32444833458214 3.43012701892239
vertex 43.9071795697124 103.324448334582 3.43012701895618
endloop
endfacet
facet normal -0.866025403784439 -1.70636408064175e-013 0.499999999999999
outer loop
vertex 43.9071795697124 4.32444833458214 3.43012701892239
vertex 43.6211260490362 103.324448334582 3.05733481282039
vertex 43.6211260490362 4.32444833458227 3.05733481278661
endloop
endfacet
facet normal 0.258819045102521 3.29644226908774e-013 -0.965925826289068
outer loop
vertex 41.8824595617159 103.324448334581 6.0687935062765
vertex 42.3483338429004 4.32444833458122 6.13012701892239
vertex 41.8824595617159 4.32444833458124 6.06879350624271
endloop
endfacet
facet normal 1.49706646246868e-015 3.41272816128351e-013 -1.0
outer loop
vertex 42.3483338429004 4.32444833458122 6.13012701892239
vertex 41.8824595617159 103.324448334581 6.0687935062765
vertex 42.3483338429004 103.324448334581 6.13012701895618
endloop
endfacet
facet normal -1.0 6.08223913783327e-029 -1.78222197912938e-016
outer loop
vertex 44.1483338429004 103.324448334582 4.33012701895618
vertex 44.0870003302208 4.32444833458167 4.79600130010693
vertex 44.0870003302208 103.324448334582 4.79600130014071
endloop
endfacet
facet normal -0.965925826289068 8.83279043897877e-014 -0.25881904510252
outer loop
vertex 44.0870003302208 4.32444833458167 4.79600130010693
vertex 44.1483338429004 103.324448334582 4.33012701895618
vertex 44.1483338429004 4.32444833458183 4.33012701892239
endloop
endfacet
facet normal -0.965925826289068 8.83279043897877e-014 -0.25881904510252
outer loop
vertex 44.0870003302208 103.324448334582 4.79600130014071
vertex 43.9071795697124 4.32444833458152 5.23012701892239
vertex 43.9071795697124 103.324448334582 5.23012701895618
endloop
endfacet
facet normal -0.866025403784438 1.70636408064176e-013 -0.500000000000002
outer loop
vertex 43.9071795697124 4.32444833458152 5.23012701892239
vertex 44.0870003302208 103.324448334582 4.79600130014071
vertex 44.0870003302208 4.32444833458167 4.79600130010693
endloop
endfacet
facet normal 1.49706646246868e-015 3.41272816128351e-013 -1.0
outer loop
vertex 42.3483338429004 103.324448334581 6.13012701895618
vertex 42.814208124085 4.32444833458124 6.06879350624271
vertex 42.3483338429004 4.32444833458122 6.13012701892239
endloop
endfacet
facet normal -0.258819045102519 3.29644226908775e-013 -0.965925826289069
outer loop
vertex 42.814208124085 4.32444833458124 6.06879350624271
vertex 42.3483338429004 103.324448334581 6.13012701895618
vertex 42.814208124085 103.324448334581 6.0687935062765
endloop
endfacet
facet normal -2.96739959525042e-015 -3.41272816128351e-013 1.0
outer loop
vertex 42.3483338429004 103.324448334582 2.53012701895618
vertex 41.8824595617159 4.32444833458242 2.59146053160207
vertex 42.3483338429004 4.32444833458244 2.53012701892239
endloop
endfacet
facet normal 0.258819045102519 -3.29644226908775e-013 0.965925826289069
outer loop
vertex 41.8824595617159 4.32444833458242 2.59146053160207
vertex 42.3483338429004 103.324448334582 2.53012701895618
vertex 41.8824595617159 103.324448334582 2.59146053163585
endloop
endfacet
facet normal 0.258819045102519 -3.29644226908775e-013 0.965925826289069
outer loop
vertex 41.8824595617159 103.324448334582 2.59146053163585
vertex 41.4483338429004 4.32444833458236 2.7712812921104
vertex 41.8824595617159 4.32444833458242 2.59146053160207
endloop
endfacet
facet normal 0.5 -2.95550928388207e-013 0.866025403784439
outer loop
vertex 41.4483338429004 4.32444833458236 2.7712812921104
vertex 41.8824595617159 103.324448334582 2.59146053163585
vertex 41.4483338429004 103.324448334582 2.77128129214419
endloop
endfacet
facet normal 0.866025403784438 1.70636408064176e-013 -0.5
outer loop
vertex 40.7894881160884 4.32444833458152 5.23012701892239
vertex 41.0755416367647 103.324448334581 5.60291922509196
vertex 41.0755416367647 4.3244483345814 5.60291922505817
endloop
endfacet
facet normal 0.707106781186548 2.41316322518987e-013 -0.707106781186548
outer loop
vertex 41.0755416367647 103.324448334581 5.60291922509196
vertex 40.7894881160884 4.32444833458152 5.23012701892239
vertex 40.7894881160884 103.324448334582 5.23012701895617
endloop
endfacet
facet normal -0.500000000000002 2.95550928388207e-013 -0.866025403784438
outer loop
vertex 43.2483338429004 103.324448334581 5.88897274576817
vertex 43.6211260490362 4.3244483345814 5.60291922505817
vertex 43.2483338429004 4.3244483345813 5.88897274573438
endloop
endfacet
facet normal -0.707106781186548 2.41316322518986e-013 -0.707106781186547
outer loop
vertex 43.6211260490362 4.3244483345814 5.60291922505817
vertex 43.2483338429004 103.324448334581 5.88897274576817
vertex 43.6211260490362 103.324448334581 5.60291922509196
endloop
endfacet
facet normal 0.707106781186548 2.41316322518987e-013 -0.707106781186548
outer loop
vertex 41.0755416367647 103.324448334581 5.60291922509196
vertex 41.4483338429004 4.3244483345813 5.88897274573438
vertex 41.0755416367647 4.3244483345814 5.60291922505817
endloop
endfacet
facet normal 0.5 2.95550928388207e-013 -0.866025403784439
outer loop
vertex 41.4483338429004 4.3244483345813 5.88897274573438
vertex 41.0755416367647 103.324448334581 5.60291922509196
vertex 41.4483338429004 103.324448334581 5.88897274576817
endloop
endfacet
facet normal 0.965925826289069 8.83279043897877e-014 -0.25881904510252
outer loop
vertex 40.6096673555801 4.32444833458167 4.79600130010693
vertex 40.7894881160884 103.324448334582 5.23012701895617
vertex 40.7894881160884 4.32444833458152 5.23012701892239
endloop
endfacet
facet normal 0.866025403784438 1.70636408064176e-013 -0.5
outer loop
vertex 40.7894881160884 103.324448334582 5.23012701895617
vertex 40.6096673555801 4.32444833458167 4.79600130010693
vertex 40.6096673555801 103.324448334582 4.79600130014071
endloop
endfacet
facet normal -0.612372435695795 -0.707106781186668 0.353553390593033
outer loop
vertex 44.3401922716046 3.82444833458222 3.18012701892222
vertex 44.0870003302208 4.32444833458199 3.86425273773785
vertex 43.9071795697124 4.32444833458214 3.43012701892239
endloop
endfacet
facet normal -0.68301270189222 -0.70710678118661 0.183012701891978
outer loop
vertex 44.0870003302208 4.32444833458199 3.86425273773785
vertex 44.3401922716046 3.82444833458222 3.18012701892222
vertex 44.5699632433653 3.82444833458203 3.73484321518642
endloop
endfacet
facet normal -0.68301270189222 -0.70710678118661 0.183012701891978
outer loop
vertex 44.0870003302208 4.32444833458199 3.86425273773785
vertex 44.6483338429004 3.82444833458183 4.33012701892222
vertex 44.1483338429004 4.32444833458183 4.33012701892239
endloop
endfacet
facet normal -0.707106781186548 -0.707106781186547 -2.41212616523898e-013
outer loop
vertex 44.6483338429004 3.82444833458183 4.33012701892222
vertex 44.0870003302208 4.32444833458199 3.86425273773785
vertex 44.5699632433653 3.82444833458203 3.73484321518642
endloop
endfacet
facet normal -0.68301270189222 -0.707106781186484 -0.183012701892461
outer loop
vertex 44.0870003302208 4.32444833458167 4.79600130010693
vertex 44.6483338429004 3.82444833458183 4.33012701892222
vertex 44.5699632433653 3.82444833458163 4.92541082265802
endloop
endfacet
facet normal -0.707106781186548 -0.707106781186547 -2.41212616523898e-013
outer loop
vertex 44.6483338429004 3.82444833458183 4.33012701892222
vertex 44.0870003302208 4.32444833458167 4.79600130010693
vertex 44.1483338429004 4.32444833458183 4.33012701892239
endloop
endfacet
facet normal -0.68301270189222 -0.707106781186484 -0.183012701892461
outer loop
vertex 44.0870003302208 4.32444833458167 4.79600130010693
vertex 44.3401922716046 3.82444833458144 5.48012701892222
vertex 43.9071795697124 4.32444833458152 5.23012701892239
endloop
endfacet
facet normal -0.612372435695794 -0.707106781186426 -0.353553390593517
outer loop
vertex 44.3401922716046 3.82444833458144 5.48012701892222
vertex 44.0870003302208 4.32444833458167 4.79600130010693
vertex 44.5699632433653 3.82444833458163 4.92541082265802
endloop
endfacet
facet normal -0.612372435695795 -0.707106781186426 -0.353553390593516
outer loop
vertex 43.9071795697124 4.32444833458152 5.23012701892239
vertex 43.9746794396295 3.82444833458128 5.95647261565128
vertex 43.6211260490362 4.3244483345814 5.60291922505817
endloop
endfacet
facet normal -0.500000000000001 -0.707106781186376 -0.500000000000242
outer loop
vertex 43.9746794396295 3.82444833458128 5.95647261565128
vertex 43.9071795697124 4.32444833458152 5.23012701892239
vertex 44.3401922716046 3.82444833458144 5.48012701892222
endloop
endfacet
facet normal -0.500000000000001 -0.707106781186376 -0.500000000000242
outer loop
vertex 43.6211260490362 4.3244483345814 5.60291922505817
vertex 43.4983338429004 3.82444833458115 6.32198544762643
vertex 43.2483338429004 4.3244483345813 5.88897274573438
endloop
endfacet
facet normal -0.353553390593274 -0.707106781186338 -0.612372435696037
outer loop
vertex 43.4983338429004 3.82444833458115 6.32198544762643
vertex 43.6211260490362 4.3244483345814 5.60291922505817
vertex 43.9746794396295 3.82444833458128 5.95647261565128
endloop
endfacet
facet normal -0.353553390593275 -0.707106781186338 -0.612372435696036
outer loop
vertex 43.2483338429004 4.3244483345813 5.88897274573438
vertex 42.9436176466362 3.82444833458107 6.55175641938708
vertex 42.814208124085 4.32444833458124 6.06879350624271
endloop
endfacet
facet normal -0.183012701892219 -0.707106781186313 -0.683012701892462
outer loop
vertex 42.9436176466362 3.82444833458107 6.55175641938708
vertex 43.2483338429004 4.3244483345813 5.88897274573438
vertex 43.4983338429004 3.82444833458115 6.32198544762643
endloop
endfacet
facet normal 8.46378555046993e-016 -0.707106781186306 -0.70710678118679
outer loop
vertex 42.3483338429004 4.32444833458122 6.13012701892239
vertex 42.9436176466362 3.82444833458107 6.55175641938708
vertex 42.3483338429004 3.82444833458105 6.63012701892222
endloop
endfacet
facet normal -0.183012701892219 -0.707106781186313 -0.683012701892462
outer loop
vertex 42.9436176466362 3.82444833458107 6.55175641938708
vertex 42.3483338429004 4.32444833458122 6.13012701892239
vertex 42.814208124085 4.32444833458124 6.06879350624271
endloop
endfacet
facet normal 0.18301270189222 -0.707106781186314 -0.683012701892461
outer loop
vertex 41.8824595617159 4.32444833458124 6.06879350624271
vertex 42.3483338429004 3.82444833458105 6.63012701892222
vertex 41.7530500391646 3.82444833458107 6.55175641938707
endloop
endfacet
facet normal 7.35369783355654e-016 -0.707106781186306 -0.70710678118679
outer loop
vertex 42.3483338429004 3.82444833458105 6.63012701892222
vertex 41.8824595617159 4.32444833458124 6.06879350624271
vertex 42.3483338429004 4.32444833458122 6.13012701892239
endloop
endfacet
facet normal 0.353553390593274 -0.707106781186338 -0.612372435696036
outer loop
vertex 41.4483338429004 4.3244483345813 5.88897274573438
vertex 41.7530500391646 3.82444833458107 6.55175641938707
vertex 41.1983338429004 3.82444833458115 6.32198544762643
endloop
endfacet
facet normal 0.18301270189222 -0.707106781186314 -0.683012701892461
outer loop
vertex 41.7530500391646 3.82444833458107 6.55175641938707
vertex 41.4483338429004 4.3244483345813 5.88897274573438
vertex 41.8824595617159 4.32444833458124 6.06879350624271
endloop
endfacet
facet normal 0.5 -0.707106781186377 -0.500000000000242
outer loop
vertex 41.0755416367647 4.3244483345814 5.60291922505817
vertex 41.1983338429004 3.82444833458115 6.32198544762643
vertex 40.7219882461714 3.82444833458128 5.95647261565128
endloop
endfacet
facet normal 0.353553390593274 -0.707106781186338 -0.612372435696036
outer loop
vertex 41.1983338429004 3.82444833458115 6.32198544762643
vertex 41.0755416367647 4.3244483345814 5.60291922505817
vertex 41.4483338429004 4.3244483345813 5.88897274573438
endloop
endfacet
facet normal 0.612372435695795 -0.707106781186427 -0.353553390593515
outer loop
vertex 40.7894881160884 4.32444833458152 5.23012701892239
vertex 40.7219882461714 3.82444833458128 5.95647261565128
vertex 40.3564754141962 3.82444833458144 5.48012701892222
endloop
endfacet
facet normal 0.5 -0.707106781186377 -0.500000000000242
outer loop
vertex 40.7219882461714 3.82444833458128 5.95647261565128
vertex 40.7894881160884 4.32444833458152 5.23012701892239
vertex 41.0755416367647 4.3244483345814 5.60291922505817
endloop
endfacet
facet normal 0.68301270189222 -0.707106781186484 -0.18301270189246
outer loop
vertex 40.6096673555801 4.32444833458167 4.79600130010693
vertex 40.3564754141962 3.82444833458144 5.48012701892222
vertex 40.1267044424356 3.82444833458163 4.92541082265802
endloop
endfacet
facet normal 0.612372435695795 -0.707106781186426 -0.353553390593515
outer loop
vertex 40.3564754141962 3.82444833458144 5.48012701892222
vertex 40.6096673555801 4.32444833458167 4.79600130010693
vertex 40.7894881160884 4.32444833458152 5.23012701892239
endloop
endfacet
facet normal 0.707106781186548 -0.707106781186547 -2.41061771440133e-013
outer loop
vertex 40.0483338429004 3.82444833458183 4.33012701892222
vertex 40.6096673555801 4.32444833458167 4.79600130010693
vertex 40.1267044424356 3.82444833458163 4.92541082265802
endloop
endfacet
facet normal 0.68301270189222 -0.707106781186484 -0.18301270189246
outer loop
vertex 40.6096673555801 4.32444833458167 4.79600130010693
vertex 40.0483338429004 3.82444833458183 4.33012701892222
vertex 40.5483338429004 4.32444833458183 4.33012701892239
endloop
endfacet
facet normal 0.68301270189222 -0.707106781186609 0.183012701891978
outer loop
vertex 40.1267044424356 3.82444833458203 3.73484321518642
vertex 40.5483338429004 4.32444833458183 4.33012701892239
vertex 40.0483338429004 3.82444833458183 4.33012701892222
endloop
endfacet
facet normal 0.707106781186548 -0.707106781186547 -2.407800034346e-013
outer loop
vertex 40.5483338429004 4.32444833458183 4.33012701892239
vertex 40.1267044424356 3.82444833458203 3.73484321518642
vertex 40.6096673555801 4.32444833458199 3.86425273773785
endloop
endfacet
facet normal 0.612372435695795 -0.707106781186667 0.353553390593033
outer loop
vertex 40.3564754141962 3.82444833458222 3.18012701892222
vertex 40.6096673555801 4.32444833458199 3.86425273773785
vertex 40.1267044424356 3.82444833458203 3.73484321518642
endloop
endfacet
facet normal 0.68301270189222 -0.707106781186609 0.183012701891978
outer loop
vertex 40.6096673555801 4.32444833458199 3.86425273773785
vertex 40.3564754141962 3.82444833458222 3.18012701892222
vertex 40.7894881160884 4.32444833458214 3.43012701892239
endloop
endfacet
facet normal 0.5 -0.707106781186718 0.499999999999759
outer loop
vertex 40.7219882461714 3.82444833458239 2.70378142219316
vertex 40.7894881160884 4.32444833458214 3.43012701892239
vertex 40.3564754141962 3.82444833458222 3.18012701892222
endloop
endfacet
facet normal 0.612372435695795 -0.707106781186668 0.353553390593033
outer loop
vertex 40.7894881160884 4.32444833458214 3.43012701892239
vertex 40.7219882461714 3.82444833458239 2.70378142219316
vertex 41.0755416367647 4.32444833458227 3.0573348127866
endloop
endfacet
facet normal 0.353553390593274 -0.707106781186756 0.612372435695554
outer loop
vertex 41.1983338429004 3.82444833458251 2.33826859021801
vertex 41.0755416367647 4.32444833458227 3.0573348127866
vertex 40.7219882461714 3.82444833458239 2.70378142219316
endloop
endfacet
facet normal 0.5 -0.707106781186718 0.499999999999759
outer loop
vertex 41.0755416367647 4.32444833458227 3.0573348127866
vertex 41.1983338429004 3.82444833458251 2.33826859021801
vertex 41.4483338429004 4.32444833458236 2.7712812921104
endloop
endfacet
facet normal 0.183012701892219 -0.70710678118678 0.683012701891978
outer loop
vertex 41.7530500391646 3.82444833458259 2.10849761845736
vertex 41.4483338429004 4.32444833458236 2.7712812921104
vertex 41.1983338429004 3.82444833458251 2.33826859021801
endloop
endfacet
facet normal 0.353553390593274 -0.707106781186756 0.612372435695554
outer loop
vertex 41.4483338429004 4.32444833458236 2.7712812921104
vertex 41.7530500391646 3.82444833458259 2.10849761845736
vertex 41.8824595617159 4.32444833458242 2.59146053160207
endloop
endfacet
facet normal -1.5502973533039e-015 -0.707106781186789 0.707106781186306
outer loop
vertex 42.3483338429004 4.32444833458244 2.53012701892239
vertex 41.7530500391646 3.82444833458259 2.10849761845736
vertex 42.3483338429004 3.82444833458262 2.03012701892222
endloop
endfacet
facet normal 0.183012701892219 -0.70710678118678 0.683012701891978
outer loop
vertex 41.7530500391646 3.82444833458259 2.10849761845736
vertex 42.3483338429004 4.32444833458244 2.53012701892239
vertex 41.8824595617159 4.32444833458242 2.59146053160207
endloop
endfacet
facet normal -0.183012701892219 -0.707106781186781 0.683012701891978
outer loop
vertex 42.9436176466362 3.82444833458259 2.10849761845737
vertex 42.3483338429004 4.32444833458244 2.53012701892239
vertex 42.3483338429004 3.82444833458262 2.03012701892222
endloop
endfacet
facet normal -1.5502973533039e-015 -0.707106781186789 0.707106781186306
outer loop
vertex 42.3483338429004 4.32444833458244 2.53012701892239
vertex 42.9436176466362 3.82444833458259 2.10849761845737
vertex 42.814208124085 4.32444833458242 2.59146053160207
endloop
endfacet
facet normal -0.183012701892219 -0.707106781186781 0.683012701891978
outer loop
vertex 42.9436176466362 3.82444833458259 2.10849761845737
vertex 43.2483338429004 4.32444833458236 2.7712812921104
vertex 42.814208124085 4.32444833458242 2.59146053160207
endloop
endfacet
facet normal -0.353553390593274 -0.707106781186756 0.612372435695553
outer loop
vertex 43.2483338429004 4.32444833458236 2.7712812921104
vertex 42.9436176466362 3.82444833458259 2.10849761845737
vertex 43.4983338429004 3.82444833458251 2.33826859021801
endloop
endfacet
facet normal -0.353553390593274 -0.707106781186756 0.612372435695554
outer loop
vertex 43.4983338429004 3.82444833458251 2.33826859021801
vertex 43.6211260490362 4.32444833458227 3.05733481278661
vertex 43.2483338429004 4.32444833458236 2.7712812921104
endloop
endfacet
facet normal -0.500000000000001 -0.707106781186718 0.499999999999758
outer loop
vertex 43.6211260490362 4.32444833458227 3.05733481278661
vertex 43.4983338429004 3.82444833458251 2.33826859021801
vertex 43.9746794396295 3.82444833458239 2.70378142219316
endloop
endfacet
facet normal -0.500000000000001 -0.707106781186718 0.499999999999759
outer loop
vertex 43.9746794396295 3.82444833458239 2.70378142219316
vertex 43.9071795697124 4.32444833458214 3.43012701892239
vertex 43.6211260490362 4.32444833458227 3.05733481278661
endloop
endfacet
facet normal -0.612372435695795 -0.707106781186668 0.353553390593032
outer loop
vertex 43.9071795697124 4.32444833458214 3.43012701892239
vertex 43.9746794396295 3.82444833458239 2.70378142219316
vertex 44.3401922716046 3.82444833458222 3.18012701892222
endloop
endfacet
endsolid pen_sleeve
